<svg xmlns="http://www.w3.org/2000/svg" width="1100" height="820" viewBox="0 0 1100 820">
<rect width="100%" height="100%" fill="white" />
<text x="72" y="25" font-family="Arial" font-size="18" font-weight="700" fill="#111">04_pitch_slide</text>
<text x="18" y="87.5" font-family="Arial" font-size="12" fill="#444">Waveform</text>
<line x1="72" y1="125" x2="1072" y2="125" stroke="#ddd" />
<rect x="72" y="50" width="1000" height="75" fill="none" stroke="#eee" />
<polyline points="72.00,87.50 72.83,87.50 73.66,87.50 74.49,87.50 75.33,87.50 76.16,87.50 77.00,87.50 77.83,87.50 78.67,86.63 79.50,86.35 80.34,87.96 81.17,87.25 82.00,87.42 82.84,87.60 83.67,87.51 84.51,87.47 85.34,87.47 86.18,87.54 87.01,88.11 87.85,87.49 88.68,87.14 89.51,87.37 90.34,87.63 91.17,87.76 92.01,86.70 92.84,87.95 93.68,87.48 94.51,88.13 95.35,87.68 96.18,87.54 97.02,87.75 97.85,86.78 98.68,88.85 99.52,86.19 100.35,88.15 101.19,87.45 102.02,88.09 102.86,86.27 103.69,88.16 104.53,87.21 105.36,87.28 106.19,87.78 107.02,87.41 107.85,87.39 108.69,87.48 109.52,87.79 110.36,87.17 111.19,87.95 112.03,87.25 112.86,87.56 113.70,87.77 114.53,87.36 115.36,86.91 116.20,87.78 117.03,87.50 117.87,87.69 118.70,87.18 119.54,87.69 120.37,87.52 121.21,87.60 122.04,87.43 122.87,87.90 123.71,86.96 124.53,87.77 125.37,87.11 126.20,88.01 127.04,87.14 127.87,87.03 128.71,88.29 129.54,87.65 130.38,87.67 131.21,87.35 132.04,87.63 132.88,86.99 133.71,87.41 134.55,87.62 135.38,87.35 136.22,87.89 137.05,87.57 137.89,87.29 138.72,87.93 139.55,87.28 140.39,87.36 141.21,88.09 142.05,87.18 142.88,87.46 143.72,87.66 144.55,87.53 145.39,86.84 146.22,88.30 147.06,87.11 147.89,87.49 148.72,86.82 149.56,88.53 150.39,86.28 151.23,87.33 152.06,88.10 152.90,87.47 153.73,87.76 154.57,87.30 155.40,87.55 156.24,87.93 157.07,86.77 157.90,88.63 158.73,86.28 159.56,86.67 160.40,88.47 161.23,87.14 162.07,87.60 162.90,86.88 163.74,88.06 164.57,86.97 165.41,88.58 166.24,86.62 167.07,88.22 167.91,87.59 168.74,87.58 169.58,87.34 170.41,88.11 171.25,87.36 172.08,87.07 172.92,87.59 173.75,87.88 174.58,86.95 175.42,87.46 176.24,87.82 177.08,87.23 177.91,87.52 178.75,87.67 179.58,86.66 180.42,88.58 181.25,86.65 182.09,88.02 182.92,87.34 183.75,86.80 184.59,88.65 185.42,87.12 186.26,87.40 187.09,88.12 187.93,87.10 188.76,87.60 189.60,87.82 190.43,87.52 191.26,86.82 192.10,88.13 192.92,87.11 193.76,87.41 194.59,87.16 195.43,88.00 196.26,87.43 197.10,87.07 197.93,88.16 198.77,86.57 199.60,87.33 200.43,88.12 201.27,87.11 202.10,87.97 202.94,87.30 203.77,88.01 204.61,86.41 205.44,88.90 206.28,87.12 207.11,88.21 207.94,89.13 208.78,85.74 209.61,87.76 210.44,88.20 211.27,91.51 212.11,85.82 212.94,86.88 213.78,90.00 214.61,88.39 215.45,88.01 216.28,80.92 217.11,89.22 217.95,86.72 218.78,95.41 219.62,87.11 220.45,88.23 221.29,86.96 222.12,82.50 222.96,78.24 223.79,90.88 224.62,86.38 225.46,84.84 226.29,87.32 227.13,77.65 227.95,94.31 228.79,91.05 229.62,90.38 230.46,86.59 231.29,80.94 232.13,91.10 232.96,81.54 233.79,77.11 234.63,86.96 235.46,88.30 236.30,86.52 237.13,84.44 237.97,80.31 238.80,81.01 239.64,88.74 240.47,93.73 241.30,90.91 242.14,85.91 242.97,96.04 243.81,99.21 244.63,87.92 245.47,69.46 246.30,91.62 247.14,88.16 247.97,73.69 248.81,94.96 249.64,85.33 250.47,95.68 251.31,91.84 252.14,72.74 252.98,99.54 253.81,82.22 254.65,82.65 255.48,85.22 256.32,95.08 257.15,94.00 257.98,63.71 258.82,105.24 259.65,68.22 260.49,107.32 261.32,82.59 262.15,104.27 262.98,75.05 263.82,99.29 264.65,80.38 265.49,94.03 266.32,83.56 267.15,98.86 267.99,80.98 268.82,93.78 269.66,83.53 270.49,88.92 271.33,83.78 272.16,97.05 273.00,82.65 273.83,94.50 274.66,81.35 275.50,100.15 276.33,83.01 277.17,100.63 278.00,59.77 278.84,102.64 279.66,62.12 280.50,95.44 281.33,95.27 282.17,73.24 283.00,105.55 283.83,61.10 284.67,101.45 285.50,94.08 286.34,69.24 287.17,105.94 288.01,62.28 288.84,85.14 289.68,102.24 290.51,60.19 291.34,89.75 292.18,109.78 293.01,77.29 293.85,84.07 294.68,108.11 295.52,56.25 296.34,101.27 297.18,101.40 298.01,53.00 298.85,105.67 299.68,85.68 300.51,73.98 301.35,106.40 302.18,72.26 303.02,87.36 303.85,106.27 304.69,74.04 305.52,101.81 306.36,87.17 307.19,80.22 308.03,105.09 308.86,82.80 309.69,98.43 310.53,84.99 311.36,83.85 312.20,103.94 313.03,86.70 313.86,101.02 314.69,82.72 315.53,86.77 316.36,102.62 317.20,87.70 318.03,95.69 318.86,96.12 319.70,69.23 320.53,106.94 321.37,89.63 322.20,69.56 323.04,103.68 323.87,66.58 324.71,90.81 325.54,100.02 326.37,70.56 327.21,88.80 328.04,105.02 328.88,80.62 329.71,81.63 330.55,99.33 331.37,62.17 332.21,96.94 333.04,97.77 333.88,76.18 334.71,89.42 335.54,105.13 336.38,82.05 337.21,82.13 338.05,99.02 338.88,62.91 339.72,96.52 340.55,94.00 341.39,63.14 342.22,98.74 343.05,89.27 343.89,82.00 344.72,102.28 345.56,89.22 346.39,72.96 347.23,107.11 348.05,86.20 348.89,70.73 349.72,103.28 350.56,70.55 351.39,90.26 352.22,103.15 353.06,85.11 353.89,68.54 354.73,103.44 355.56,86.02 356.40,69.88 357.23,94.78 358.07,103.18 358.90,85.38 359.73,68.36 360.57,99.12 361.40,94.90 362.24,86.98 363.07,70.46 363.91,96.63 364.74,98.33 365.57,87.54 366.40,69.66 367.24,97.00 368.07,97.68 368.90,86.11 369.74,69.60 370.57,100.55 371.41,93.43 372.24,86.68 373.08,77.95 373.91,97.92 374.75,83.18 375.58,90.14 376.41,82.00 377.25,95.85 378.08,74.25 378.92,89.21 379.75,84.22 380.59,96.63 381.42,69.68 382.26,91.29 383.08,98.57 383.92,93.10 384.75,64.91 385.58,99.09 386.42,92.72 387.25,69.73 388.09,93.58 388.92,99.91 389.76,84.00 390.59,83.80 391.43,102.20 392.26,62.45 393.09,96.59 393.93,97.60 394.76,66.13 395.60,94.35 396.43,100.51 397.27,81.63 398.10,81.77 398.94,102.09 399.76,59.12 400.60,96.79 401.43,96.70 402.26,75.03 403.10,87.06 403.93,107.33 404.77,82.06 405.60,66.09 406.44,96.56 407.27,102.11 408.11,86.30 408.94,64.31 409.77,97.59 410.61,97.68 411.44,84.75 412.28,68.88 413.11,101.08 413.95,90.97 414.78,86.76 415.62,82.31 416.45,98.68 417.28,65.09 418.11,91.56 418.94,100.58 419.78,98.08 420.61,63.54 421.45,96.48 422.28,97.54 423.12,93.43 423.95,59.87 424.79,95.23 425.62,95.69 426.45,89.42 427.29,60.76 428.12,97.28 428.96,93.95 429.79,89.90 430.63,61.40 431.46,95.90 432.30,95.21 433.13,90.11 433.96,62.51 434.79,101.84 435.62,94.39 436.46,83.85 437.29,78.00 438.13,107.20 438.96,89.37 439.80,65.50 440.63,93.41 441.47,103.93 442.30,84.24 443.13,70.37 443.97,103.10 444.80,79.96 445.64,85.72 446.47,91.34 447.31,100.58 448.14,64.55 448.98,96.16 449.81,95.04 450.65,81.16 451.47,86.55 452.30,106.29 453.14,83.90 453.97,63.39 454.81,103.50 455.64,84.03 456.48,84.55 457.31,92.96 458.15,101.08 458.98,62.46 459.82,96.80 460.65,96.04 461.48,82.18 462.32,78.59 463.15,109.29 463.99,86.67 464.82,63.42 465.66,96.70 466.49,102.17 467.33,83.95 468.16,75.26 468.99,99.63 469.82,70.39 470.65,88.54 471.49,94.87 472.32,98.63 473.16,65.80 473.99,95.96 474.83,100.91 475.66,91.19 476.50,62.57 477.33,101.00 478.16,93.74 479.00,81.05 479.83,81.89 480.67,108.13 481.50,85.40 482.34,62.39 483.17,97.81 484.01,104.68 484.84,82.65 485.67,66.84 486.50,101.55 487.33,86.09 488.17,86.75 489.00,81.75 489.84,97.20 490.67,78.51 491.51,89.71 492.34,82.16 493.18,94.71 494.01,74.41 494.84,90.98 495.68,88.16 496.51,96.33 497.35,69.67 498.18,93.43 499.02,93.02 499.85,97.04 500.69,68.85 501.52,93.40 502.35,95.06 503.18,94.30 504.01,64.18 504.85,96.38 505.68,96.61 506.52,90.76 507.35,63.39 508.19,96.23 509.02,96.42 509.86,91.97 510.69,64.82 511.52,94.80 512.36,93.89 513.19,97.06 514.03,74.88 514.86,91.55 515.70,79.19 516.53,97.84 517.37,101.36 518.20,85.86 519.03,73.17 519.87,84.66 520.69,105.45 521.53,88.08 522.36,85.59 523.20,65.21 524.03,95.47 524.87,94.12 525.70,96.28 526.54,72.29 527.37,88.81 528.20,80.43 529.04,99.59 529.87,94.42 530.71,83.01 531.54,66.89 532.38,98.18 533.21,102.06 534.05,84.85 534.88,65.38 535.71,95.55 536.55,104.01 537.38,85.77 538.21,67.52 539.04,93.33 539.88,103.90 540.71,87.83 541.55,70.90 542.38,88.31 543.22,102.06 544.05,88.54 544.88,69.81 545.72,86.59 546.55,101.84 547.39,87.89 548.22,69.47 549.06,88.89 549.89,101.59 550.73,87.23 551.56,69.91 552.39,87.42 553.23,102.68 554.06,86.71 554.89,69.64 555.72,89.50 556.56,102.19 557.39,87.16 558.23,70.74 559.06,86.90 559.90,101.99 560.73,86.83 561.56,75.37 562.40,81.26 563.23,103.15 564.07,93.62 564.90,91.86 565.74,65.64 566.57,94.92 567.41,81.75 568.24,97.86 569.07,94.98 569.91,86.37 570.74,65.32 571.58,91.85 572.40,105.77 573.24,82.83 574.07,76.94 574.91,78.98 575.74,103.83 576.58,95.49 577.41,88.01 578.24,61.20 579.08,96.10 579.91,98.93 580.75,98.25 581.58,64.39 582.42,93.33 583.25,93.83 584.09,97.82 584.92,71.36 585.75,91.25 586.59,80.64 587.42,96.82 588.26,88.96 589.09,84.45 589.92,72.57 590.75,99.66 591.59,102.03 592.42,83.87 593.26,64.77 594.09,95.16 594.92,104.76 595.76,85.83 596.59,69.95 597.43,89.30 598.26,103.69 599.10,87.06 599.93,71.75 600.77,85.47 601.60,102.74 602.44,87.95 603.27,67.65 604.10,91.84 604.94,104.12 605.77,87.88 606.60,64.44 607.43,96.61 608.27,102.92 609.10,85.93 609.94,65.31 610.77,94.55 611.61,104.70 612.44,87.27 613.27,70.47 614.11,87.64 614.94,103.93 615.78,87.46 616.61,73.52 617.45,82.53 618.28,102.23 619.12,88.36 619.95,78.86 620.78,80.49 621.62,103.63 622.45,89.97 623.29,74.04 624.11,88.08 624.95,103.69 625.78,87.97 626.62,67.83 627.45,92.61 628.29,101.88 629.12,87.04 629.95,64.43 630.79,96.17 631.62,99.98 632.46,83.93 633.29,64.23 634.13,96.76 634.96,102.19 635.80,85.13 636.63,63.24 637.46,96.45 638.30,103.62 639.13,85.32 639.97,64.18 640.80,95.90 641.63,99.70 642.46,84.57 643.30,64.40 644.13,98.48 644.97,95.75 645.80,84.02 646.63,70.74 647.47,101.85 648.30,89.38 649.14,84.88 649.97,77.80 650.81,102.20 651.64,88.03 652.48,85.41 653.31,75.39 654.14,101.24 654.98,91.41 655.81,85.57 656.65,69.93 657.48,100.48 658.31,91.92 659.14,85.79 659.98,64.86 660.81,96.70 661.65,103.92 662.48,85.63 663.31,65.66 664.15,88.69 664.98,105.47 665.82,89.05 666.65,88.86 667.49,64.23 668.32,92.83 669.16,98.82 669.99,101.62 670.82,66.54 671.66,89.65 672.49,80.02 673.33,97.33 674.16,89.54 675.00,84.42 675.82,71.03 676.66,98.76 677.49,102.92 678.33,85.49 679.16,59.96 679.99,93.70 680.83,106.64 681.66,86.73 682.50,68.66 683.33,87.23 684.17,104.95 685.00,88.76 685.84,77.65 686.67,78.59 687.50,101.77 688.34,94.91 689.17,89.32 690.01,65.57 690.84,96.06 691.68,100.28 692.51,100.81 693.34,61.93 694.17,91.49 695.01,86.63 695.84,95.89 696.67,81.74 697.51,85.71 698.34,67.30 699.18,95.79 700.01,107.66 700.85,85.17 701.68,70.64 702.52,85.68 703.35,103.62 704.18,92.07 705.02,87.43 705.85,67.16 706.69,95.79 707.52,99.27 708.36,97.59 709.19,61.91 710.02,91.70 710.85,99.18 711.69,101.33 712.52,69.98 713.35,90.24 714.19,76.10 715.02,98.76 715.86,105.95 716.69,86.55 717.53,67.88 718.36,84.30 719.20,103.67 720.03,97.85 720.86,100.30 721.70,64.59 722.53,93.37 723.37,82.08 724.20,98.08 725.04,103.73 725.87,86.93 726.71,70.59 727.53,86.35 728.37,107.66 729.20,92.84 730.03,100.43 730.87,63.81 731.70,94.20 732.54,81.95 733.37,96.84 734.21,93.11 735.04,87.02 735.88,61.55 736.71,92.70 737.54,107.40 738.38,86.43 739.21,91.40 740.05,63.22 740.88,93.85 741.72,84.77 742.55,95.60 743.39,92.94 744.22,87.73 745.05,62.72 745.88,90.83 746.71,107.33 747.55,85.99 748.38,90.06 749.22,65.52 750.05,94.40 750.89,98.79 751.72,102.02 752.56,66.52 753.39,91.51 754.23,78.69 755.06,98.09 755.89,100.55 756.73,85.39 757.56,63.52 758.40,92.61 759.23,107.18 760.07,86.20 760.90,81.29 761.73,82.49 762.56,102.55 763.40,94.09 764.23,90.89 765.06,64.06 765.90,94.81 766.73,98.91 767.57,96.23 768.40,63.09 769.24,90.89 770.07,99.53 770.91,101.95 771.74,69.24 772.57,92.78 773.41,89.77 774.24,97.08 775.08,71.53 775.91,89.50 776.75,77.81 777.58,94.85 778.42,81.33 779.24,87.79 780.08,77.43 780.91,96.92 781.74,86.47 782.58,87.45 783.41,73.18 784.25,99.83 785.08,99.93 785.92,85.65 786.75,59.07 787.59,93.56 788.42,105.47 789.25,85.51 790.09,70.97 790.92,87.90 791.76,104.55 792.59,89.08 793.43,84.78 794.26,73.48 795.10,99.03 795.93,98.36 796.76,95.23 797.59,61.50 798.42,92.39 799.26,99.91 800.09,101.28 800.93,67.19 801.76,91.13 802.60,78.96 803.43,96.30 804.27,87.24 805.10,86.06 805.93,69.21 806.77,98.20 807.60,104.90 808.44,85.74 809.27,61.84 810.11,92.85 810.94,106.70 811.78,85.65 812.61,74.72 813.44,88.30 814.27,104.84 815.10,89.31 815.94,83.39 816.77,75.03 817.61,99.16 818.44,97.20 819.28,95.25 820.11,60.29 820.95,91.45 821.78,97.67 822.61,101.86 823.45,66.70 824.28,90.74 825.12,81.47 825.95,94.82 826.79,77.25 827.62,86.14 828.46,77.00 829.29,97.69 830.12,93.69 830.95,86.69 831.78,70.19 832.62,97.69 833.45,107.27 834.29,85.60 835.12,65.22 835.96,90.65 836.79,104.21 837.63,88.22 838.46,88.16 839.29,65.72 840.13,92.86 840.96,99.81 841.80,101.10 842.63,71.27 843.47,90.13 844.30,77.78 845.14,99.40 845.97,105.75 846.80,84.37 847.64,66.91 848.46,93.49 849.30,106.67 850.13,85.43 850.97,79.89 851.80,72.37 852.64,98.68 853.47,98.71 854.31,97.86 855.14,64.15 855.97,93.13 856.81,84.42 857.64,94.98 858.48,87.78 859.31,83.80 860.15,63.88 860.98,95.45 861.82,109.88 862.65,84.44 863.48,71.49 864.32,82.67 865.14,104.26 865.98,92.03 866.81,93.16 867.65,59.04 868.48,90.63 869.32,98.53 870.15,98.43 870.99,73.48 871.82,86.67 872.65,73.40 873.49,99.16 874.32,106.48 875.16,84.81 875.99,65.01 876.83,92.02 877.66,106.23 878.50,87.03 879.33,73.27 880.17,80.05 881.00,103.69 881.83,92.85 882.66,75.47 883.49,78.38 884.33,102.70 885.16,95.35 886.00,91.19 886.83,65.76 887.67,94.22 888.50,99.72 889.33,100.28 890.17,62.78 891.00,91.59 891.84,89.57 892.67,94.60 893.51,81.40 894.34,86.31 895.18,60.75 896.01,92.65 896.85,112.05 897.68,85.34 898.51,73.43 899.35,79.15 900.17,104.06 901.01,97.05 901.84,95.40 902.68,58.11 903.51,91.64 904.35,96.18 905.18,98.21 906.02,70.41 906.85,87.51 907.68,77.56 908.52,97.07 909.35,91.73 910.19,84.28 911.02,62.48 911.86,95.66 912.69,110.38 913.53,84.88 914.36,70.89 915.19,81.27 916.03,103.91 916.85,94.38 917.69,96.99 918.52,61.28 919.36,92.81 920.19,82.67 921.03,95.88 921.86,93.77 922.70,84.26 923.53,58.95 924.36,91.84 925.20,108.55 926.03,84.93 926.87,89.41 927.70,64.27 928.54,90.93 929.37,98.79 930.21,104.52 931.04,65.10 931.87,91.62 932.71,80.43 933.54,99.04 934.37,83.58 935.20,85.46 936.04,67.58 936.87,97.21 937.71,108.57 938.54,84.54 939.38,65.01 940.21,90.42 941.04,108.32 941.88,88.09 942.71,83.80 943.55,71.09 944.38,97.00 945.22,99.28 946.05,97.04 946.89,58.56 947.72,91.29 948.55,99.55 949.39,101.91 950.22,67.72 951.06,89.67 951.88,90.91 952.72,97.28 953.55,71.23 954.39,87.15 955.22,76.43 956.06,96.11 956.89,86.61 957.72,85.76 958.56,71.12 959.39,99.64 960.23,102.58 961.06,84.99 961.90,54.88 962.73,96.10 963.57,108.47 964.40,85.57 965.23,67.19 966.07,91.91 966.90,106.16 967.74,88.69 968.56,69.71 969.40,85.76 970.23,105.54 971.07,90.85 971.90,79.56 972.74,76.91 973.57,103.25 974.40,97.80 975.24,92.38 976.07,63.25 976.91,92.78 977.74,99.45 978.58,100.81 979.41,61.04 980.25,91.77 981.08,92.35 981.91,97.98 982.75,74.40 983.58,86.89 984.42,73.27 985.25,101.00 986.08,96.85 986.91,83.98 987.75,57.83 988.58,96.84 989.42,109.68 990.25,87.43 991.08,68.30 991.92,84.63 992.75,104.59 993.59,92.68 994.42,90.00 995.26,60.05 996.09,90.15 996.93,97.93 997.76,99.44 998.59,79.83 999.43,84.49 1000.26,64.18 1001.10,95.98 1001.93,112.81 1002.77,87.14 1003.59,68.94 1004.43,82.29 1005.26,104.93 1006.10,95.01 1006.93,89.70 1007.76,54.96 1008.60,89.66 1009.43,92.67 1010.27,96.88 1011.10,84.27 1011.94,83.44 1012.77,56.87 1013.61,90.32 1014.44,109.38 1015.27,87.32 1016.11,87.72 1016.94,60.25 1017.78,93.33 1018.61,98.00 1019.45,98.87 1020.27,73.27 1021.11,87.57 1021.94,69.70 1022.78,95.43 1023.61,108.03 1024.44,86.43 1025.28,82.90 1026.11,72.08 1026.95,98.82 1027.78,92.04 1028.62,89.35 1029.45,71.60 1030.29,99.95 1031.12,94.69 1031.96,74.64 1032.79,91.43 1033.62,100.76 1034.46,98.70 1035.29,92.41 1036.13,82.11 1036.96,87.05 1037.79,83.41 1038.62,84.89 1039.46,87.44 1040.29,88.75 1041.12,88.44 1041.96,88.06 1042.79,87.33 1043.63,87.41 1044.46,88.64 1045.30,87.23 1046.13,87.46 1046.97,87.96 1047.80,87.40 1048.64,87.49 1049.47,87.19 1050.30,87.76 1051.14,87.27 1051.97,87.51 1052.81,87.88 1053.64,87.37 1054.48,87.38 1055.30,87.38 1056.14,87.89 1056.97,87.28 1057.81,87.47 1058.64,89.15 1059.47,87.66 1060.31,87.16 1061.14,88.05 1061.98,87.56 1062.81,86.77 1063.65,88.00 1064.48,87.42 1065.32,86.81 1066.15,87.27 1066.98,87.65 1067.82,87.62 1068.65,87.53 1069.49,87.38 1070.32,87.22 1071.16,87.48 1071.99,87.50" fill="none" stroke="#444" stroke-width="1.0" />
<text x="18" y="212.5" font-family="Arial" font-size="12" fill="#444">Voiced probability</text>
<line x1="72" y1="255" x2="1072" y2="255" stroke="#ddd" />
<rect x="72" y="170" width="1000" height="85" fill="none" stroke="#eee" />
<polyline points="72.00,207.79 73.45,217.27 74.90,221.98 76.35,225.49 77.80,224.39 79.26,221.34 80.71,216.48 82.16,218.29 83.61,219.36 85.06,221.04 86.51,219.82 87.96,218.69 89.41,218.07 90.87,218.27 92.32,217.58 93.77,217.43 95.22,217.18 96.67,216.58 98.12,216.42 99.57,217.64 101.02,217.52 102.48,214.83 103.93,213.73 105.38,212.22 106.83,210.79 108.28,208.16 109.73,208.34 111.18,206.98 112.63,207.38 114.09,206.65 115.54,208.48 116.99,207.08 118.44,208.14 119.89,211.49 121.34,211.36 122.79,210.67 124.24,211.37 125.70,210.38 127.15,209.40 128.60,210.65 130.05,211.68 131.50,212.60 132.95,212.26 134.40,212.68 135.85,211.81 137.31,211.07 138.76,211.37 140.21,213.30 141.66,214.00 143.11,212.85 144.56,213.93 146.01,213.10 147.46,214.55 148.92,211.74 150.37,210.92 151.82,209.57 153.27,209.74 154.72,208.57 156.17,208.42 157.62,207.84 159.07,207.68 160.53,208.26 161.98,210.52 163.43,209.34 164.88,206.82 166.33,206.05 167.78,207.26 169.23,207.70 170.68,205.86 172.14,204.70 173.59,205.04 175.04,202.04 176.49,204.41 177.94,204.33 179.39,204.50 180.84,203.81 182.29,203.03 183.75,201.92 185.20,201.28 186.65,201.84 188.10,204.22 189.55,206.36 191.00,207.47 192.45,208.56 193.90,208.23 195.35,209.79 196.81,210.14 198.26,211.63 199.71,212.12 201.16,212.49 202.61,213.35 204.06,212.33 205.51,211.58 206.96,211.46 208.42,209.81 209.87,208.33 211.32,208.27 212.77,208.85 214.22,207.34 215.67,204.67 217.12,202.61 218.57,203.23 220.03,202.18 221.48,201.15 222.93,202.29 224.38,198.86 225.83,194.48 227.28,192.04 228.73,192.35 230.18,191.93 231.64,192.90 233.09,188.28 234.54,187.58 235.99,187.04 237.44,186.62 238.89,185.84 240.34,184.56 241.79,181.69 243.25,179.41 244.70,177.87 246.15,177.49 247.60,177.16 249.05,176.76 250.50,176.41 251.95,175.95 253.40,175.57 254.86,174.89 256.31,174.50 257.76,174.40 259.21,174.15 260.66,173.84 262.11,173.63 263.56,173.74 265.01,173.79 266.47,173.92 267.92,173.96 269.37,173.93 270.82,174.05 272.27,174.03 273.72,173.93 275.17,173.78 276.62,173.67 278.08,173.65 279.53,173.65 280.98,173.73 282.43,173.90 283.88,174.16 285.33,174.46 286.78,174.85 288.23,175.52 289.69,176.52 291.14,176.99 292.59,177.32 294.04,177.08 295.49,177.14 296.94,177.28 298.39,177.66 299.84,177.47 301.29,177.32 302.75,177.26 304.20,176.92 305.65,176.52 307.10,176.27 308.55,175.72 310.00,175.03 311.45,174.58 312.90,174.36 314.36,174.24 315.81,174.19 317.26,174.33 318.71,174.43 320.16,174.64 321.61,174.99 323.06,175.41 324.51,175.74 325.97,176.15 327.42,176.62 328.87,176.96 330.32,177.09 331.77,176.91 333.22,176.93 334.67,176.48 336.12,176.48 337.58,176.50 339.03,176.60 340.48,176.66 341.93,176.59 343.38,176.81 344.83,177.28 346.28,177.59 347.73,178.09 349.19,178.07 350.64,178.14 352.09,177.88 353.54,177.39 354.99,176.78 356.44,176.22 357.89,175.83 359.34,175.67 360.80,175.71 362.25,175.45 363.70,175.10 365.15,174.97 366.60,174.92 368.05,175.13 369.50,175.14 370.95,175.03 372.41,174.88 373.86,174.87 375.31,174.83 376.76,174.71 378.21,174.89 379.66,174.85 381.11,175.01 382.56,175.22 384.02,175.31 385.47,175.59 386.92,175.79 388.37,176.38 389.82,176.93 391.27,177.50 392.72,178.09 394.17,178.29 395.63,178.11 397.08,177.66 398.53,177.58 399.98,177.56 401.43,177.48 402.88,177.05 404.33,176.72 405.78,176.44 407.24,175.99 408.69,175.68 410.14,175.61 411.59,175.40 413.04,175.12 414.49,175.14 415.94,175.13 417.39,175.13 418.84,175.01 420.30,174.83 421.75,174.98 423.20,175.04 424.65,175.20 426.10,175.09 427.55,175.14 429.00,175.12 430.45,175.34 431.91,175.29 433.36,175.06 434.81,175.17 436.26,175.20 437.71,175.29 439.16,175.12 440.61,175.05 442.06,175.06 443.52,175.07 444.97,175.18 446.42,175.31 447.87,175.23 449.32,175.26 450.77,175.34 452.22,175.62 453.67,175.73 455.13,175.93 456.58,176.02 458.03,176.18 459.48,176.26 460.93,176.26 462.38,176.27 463.83,176.06 465.28,175.91 466.74,175.57 468.19,175.53 469.64,175.61 471.09,175.61 472.54,175.53 473.99,175.40 475.44,175.54 476.89,175.47 478.35,175.27 479.80,175.20 481.25,175.09 482.70,175.02 484.15,175.12 485.60,175.24 487.05,175.35 488.50,175.33 489.96,175.71 491.41,175.64 492.86,175.53 494.31,175.59 495.76,175.33 497.21,175.52 498.66,175.47 500.11,175.23 501.57,175.11 503.02,175.09 504.47,175.06 505.92,175.03 507.37,174.97 508.82,174.88 510.27,174.76 511.72,174.63 513.18,174.56 514.63,174.56 516.08,174.69 517.53,175.04 518.98,175.12 520.43,175.12 521.88,175.01 523.33,175.00 524.78,175.11 526.24,175.14 527.69,175.14 529.14,175.27 530.59,175.36 532.04,175.46 533.49,175.55 534.94,175.38 536.39,175.41 537.85,175.45 539.30,175.45 540.75,175.38 542.20,175.42 543.65,175.39 545.10,175.42 546.55,175.39 548.00,175.31 549.46,175.44 550.91,175.65 552.36,175.88 553.81,175.93 555.26,175.96 556.71,175.86 558.16,175.69 559.61,175.54 561.07,175.30 562.52,175.18 563.97,175.23 565.42,175.35 566.87,175.56 568.32,175.53 569.77,175.67 571.22,175.75 572.68,175.70 574.13,175.61 575.58,175.47 577.03,175.42 578.48,175.32 579.93,175.27 581.38,175.21 582.83,175.16 584.29,175.14 585.74,175.04 587.19,175.01 588.64,175.10 590.09,175.30 591.54,175.37 592.99,175.44 594.44,175.44 595.90,175.63 597.35,175.73 598.80,175.94 600.25,175.98 601.70,175.99 603.15,175.89 604.60,176.06 606.05,176.03 607.51,175.92 608.96,175.74 610.41,175.58 611.86,175.39 613.31,175.43 614.76,175.34 616.21,175.31 617.66,175.25 619.12,175.14 620.57,175.02 622.02,175.09 623.47,175.00 624.92,175.05 626.37,175.15 627.82,174.98 629.27,175.03 630.73,174.93 632.18,174.99 633.63,174.79 635.08,174.77 636.53,174.76 637.98,174.73 639.43,174.82 640.88,174.81 642.33,174.67 643.79,174.72 645.24,174.56 646.69,174.47 648.14,174.59 649.59,174.68 651.04,174.78 652.49,174.74 653.94,174.74 655.40,174.65 656.85,174.55 658.30,174.40 659.75,174.39 661.20,174.36 662.65,174.37 664.10,174.49 665.55,174.64 667.01,174.67 668.46,174.66 669.91,174.80 671.36,174.90 672.81,174.95 674.26,174.93 675.71,175.09 677.16,175.20 678.62,175.39 680.07,175.44 681.52,175.42 682.97,175.32 684.42,175.36 685.87,175.46 687.32,175.62 688.77,175.81 690.23,175.86 691.68,175.74 693.13,175.56 694.58,175.49 696.03,175.67 697.48,175.77 698.93,175.77 700.38,175.76 701.84,175.79 703.29,175.69 704.74,175.59 706.19,175.41 707.64,175.28 709.09,175.21 710.54,175.19 711.99,175.37 713.45,175.53 714.90,175.54 716.35,175.56 717.80,175.78 719.25,175.64 720.70,175.55 722.15,175.56 723.60,175.58 725.06,175.46 726.51,175.42 727.96,175.42 729.41,175.44 730.86,175.41 732.31,175.45 733.76,175.26 735.21,175.15 736.67,175.19 738.12,175.29 739.57,175.26 741.02,175.17 742.47,175.34 743.92,175.43 745.37,175.83 746.82,176.13 748.28,176.52 749.73,176.61 751.18,176.32 752.63,176.26 754.08,175.81 755.53,175.64 756.98,175.41 758.43,175.14 759.88,174.85 761.34,174.49 762.79,174.30 764.24,174.26 765.69,174.23 767.14,174.18 768.59,174.08 770.04,174.11 771.49,174.18 772.95,174.17 774.40,174.26 775.85,174.36 777.30,174.36 778.75,174.28 780.20,174.14 781.65,174.05 783.10,174.05 784.56,173.99 786.01,173.93 787.46,173.90 788.91,173.85 790.36,173.86 791.81,173.98 793.26,173.95 794.71,173.95 796.17,173.94 797.62,173.92 799.07,173.93 800.52,173.99 801.97,174.06 803.42,174.06 804.87,174.07 806.32,173.93 807.78,173.98 809.23,173.97 810.68,173.96 812.13,173.96 813.58,173.95 815.03,173.93 816.48,173.86 817.93,173.82 819.39,173.90 820.84,173.96 822.29,173.98 823.74,173.95 825.19,173.90 826.64,173.95 828.09,173.95 829.54,173.98 831.00,173.98 832.45,174.02 833.90,174.10 835.35,174.13 836.80,174.09 838.25,174.13 839.70,174.15 841.15,174.23 842.61,174.49 844.06,174.61 845.51,174.72 846.96,174.72 848.41,174.62 849.86,174.48 851.31,174.44 852.76,174.39 854.22,174.28 855.67,174.38 857.12,174.42 858.57,174.41 860.02,174.38 861.47,174.30 862.92,174.30 864.37,174.26 865.82,174.29 867.28,174.30 868.73,174.34 870.18,174.36 871.63,174.33 873.08,174.36 874.53,174.46 875.98,174.48 877.43,174.63 878.89,174.84 880.34,174.93 881.79,174.87 883.24,174.86 884.69,174.80 886.14,174.69 887.59,174.48 889.04,174.28 890.50,174.17 891.95,174.09 893.40,174.00 894.85,173.93 896.30,173.93 897.75,173.90 899.20,173.91 900.65,173.97 902.11,174.06 903.56,174.12 905.01,174.14 906.46,174.15 907.91,174.13 909.36,174.24 910.81,174.17 912.26,174.13 913.72,174.08 915.17,174.08 916.62,173.97 918.07,173.93 919.52,173.88 920.97,173.91 922.42,173.86 923.87,173.91 925.33,173.88 926.78,173.84 928.23,173.97 929.68,173.98 931.13,174.06 932.58,174.10 934.03,174.09 935.48,174.06 936.94,174.08 938.39,174.08 939.84,174.01 941.29,173.97 942.74,173.99 944.19,174.01 945.64,174.03 947.09,174.02 948.55,174.01 950.00,174.05 951.45,174.10 952.90,174.12 954.35,174.17 955.80,174.06 957.25,174.10 958.70,174.07 960.16,174.05 961.61,174.02 963.06,174.04 964.51,174.03 965.96,174.05 967.41,174.00 968.86,174.06 970.31,174.04 971.77,174.07 973.22,174.06 974.67,174.08 976.12,174.06 977.57,174.01 979.02,173.93 980.47,173.95 981.92,174.04 983.37,174.17 984.83,174.13 986.28,174.12 987.73,174.16 989.18,174.26 990.63,174.34 992.08,174.39 993.53,174.49 994.98,174.52 996.44,174.55 997.89,174.62 999.34,174.59 1000.79,174.65 1002.24,174.68 1003.69,174.58 1005.14,174.56 1006.59,174.43 1008.05,174.39 1009.50,174.41 1010.95,174.59 1012.40,174.77 1013.85,174.62 1015.30,174.46 1016.75,174.40 1018.20,174.37 1019.66,174.45 1021.11,174.57 1022.56,174.71 1024.01,174.76 1025.46,174.80 1026.91,175.19 1028.36,175.68 1029.81,178.20 1031.27,180.70 1032.72,184.91 1034.17,186.16 1035.62,186.06 1037.07,186.71 1038.52,191.64 1039.97,197.85 1041.42,201.76 1042.88,209.50 1044.33,214.96 1045.78,216.84 1047.23,219.96 1048.68,224.98 1050.13,229.33 1051.58,226.75 1053.03,224.85 1054.49,220.59 1055.94,217.37 1057.39,211.46 1058.84,208.89 1060.29,215.30 1061.74,220.04 1063.19,221.78 1064.64,218.37 1066.10,218.02 1067.55,223.18 1069.00,226.71 1070.45,228.47 1071.90,227.94" fill="none" stroke="#2563eb" stroke-width="1.4" />
<line x1="72" y1="229.50" x2="1072" y2="229.50" stroke="#bbb" stroke-dasharray="4 4" />
<text x="1076" y="233.50" font-family="Arial" font-size="10" fill="#666">0.3</text>
<line x1="72" y1="212.50" x2="1072" y2="212.50" stroke="#bbb" stroke-dasharray="4 4" />
<text x="1076" y="216.50" font-family="Arial" font-size="10" fill="#666">0.5</text>
<line x1="72" y1="195.50" x2="1072" y2="195.50" stroke="#bbb" stroke-dasharray="4 4" />
<text x="1076" y="199.50" font-family="Arial" font-size="10" fill="#666">0.7</text>
<line x1="72" y1="178.50" x2="1072" y2="178.50" stroke="#bbb" stroke-dasharray="4 4" />
<text x="1076" y="182.50" font-family="Arial" font-size="10" fill="#666">0.9</text>
<text x="18" y="342.5" font-family="Arial" font-size="12" fill="#444">Pitch confidence</text>
<line x1="72" y1="385" x2="1072" y2="385" stroke="#ddd" />
<rect x="72" y="300" width="1000" height="85" fill="none" stroke="#eee" />
<polyline points="72.00,382.27 73.45,378.61 74.90,376.52 76.35,376.92 77.80,377.71 79.26,376.63 80.71,376.98 82.16,376.33 83.61,374.40 85.06,374.23 86.51,375.77 87.96,377.52 89.41,377.38 90.87,376.13 92.32,374.84 93.77,374.26 95.22,374.29 96.67,375.29 98.12,375.84 99.57,375.53 101.02,375.19 102.48,375.90 103.93,376.73 105.38,376.48 106.83,376.46 108.28,378.64 109.73,377.54 111.18,377.20 112.63,376.29 114.09,376.45 115.54,377.92 116.99,379.91 118.44,378.79 119.89,376.96 121.34,377.83 122.79,375.58 124.24,375.69 125.70,376.31 127.15,376.89 128.60,376.65 130.05,375.66 131.50,374.74 132.95,376.91 134.40,377.65 135.85,376.83 137.31,377.07 138.76,378.28 140.21,379.01 141.66,378.18 143.11,376.35 144.56,377.85 146.01,376.34 147.46,376.16 148.92,375.73 150.37,374.61 151.82,375.86 153.27,377.22 154.72,376.76 156.17,376.75 157.62,377.32 159.07,378.58 160.53,377.36 161.98,378.19 163.43,377.82 164.88,377.12 166.33,376.19 167.78,376.46 169.23,375.30 170.68,376.56 172.14,373.40 173.59,371.01 175.04,367.00 176.49,369.60 177.94,371.78 179.39,371.36 180.84,368.60 182.29,367.85 183.75,368.96 185.20,365.82 186.65,362.32 188.10,362.21 189.55,365.46 191.00,368.37 192.45,370.30 193.90,374.54 195.35,377.09 196.81,376.73 198.26,375.52 199.71,374.42 201.16,373.71 202.61,373.35 204.06,374.65 205.51,376.25 206.96,378.63 208.42,381.36 209.87,381.03 211.32,378.96 212.77,378.05 214.22,380.00 215.67,378.91 217.12,378.03 218.57,378.20 220.03,377.98 221.48,372.12 222.93,374.88 224.38,375.87 225.83,378.25 227.28,374.76 228.73,372.27 230.18,363.65 231.64,365.14 233.09,361.40 234.54,364.01 235.99,362.33 237.44,361.51 238.89,362.83 240.34,362.69 241.79,359.44 243.25,354.89 244.70,354.04 246.15,355.12 247.60,352.07 249.05,352.34 250.50,356.03 251.95,354.01 253.40,353.94 254.86,355.71 256.31,353.83 257.76,351.95 259.21,351.00 260.66,351.11 262.11,352.14 263.56,353.41 265.01,354.64 266.47,353.97 267.92,353.56 269.37,352.72 270.82,352.17 272.27,351.38 273.72,350.57 275.17,350.28 276.62,350.55 278.08,351.58 279.53,353.13 280.98,352.52 282.43,350.88 283.88,349.36 285.33,348.81 286.78,349.59 288.23,351.83 289.69,350.62 291.14,348.87 292.59,348.04 294.04,348.25 295.49,348.42 296.94,349.00 298.39,349.76 299.84,352.06 301.29,352.47 302.75,351.05 304.20,350.36 305.65,349.82 307.10,349.58 308.55,349.11 310.00,349.01 311.45,349.01 312.90,349.16 314.36,349.69 315.81,350.34 317.26,351.46 318.71,352.59 320.16,352.00 321.61,349.45 323.06,348.19 324.51,347.36 325.97,347.12 327.42,347.34 328.87,347.87 330.32,348.31 331.77,348.57 333.22,348.75 334.67,349.09 336.12,349.02 337.58,348.75 339.03,348.49 340.48,348.30 341.93,348.12 343.38,347.70 344.83,347.35 346.28,347.37 347.73,347.55 349.19,347.84 350.64,348.48 352.09,349.53 353.54,351.06 354.99,352.82 356.44,352.78 357.89,351.83 359.34,350.84 360.80,350.83 362.25,350.57 363.70,350.76 365.15,350.96 366.60,351.19 368.05,351.07 369.50,351.16 370.95,351.19 372.41,351.12 373.86,351.13 375.31,351.08 376.76,350.99 378.21,351.06 379.66,350.88 381.11,350.77 382.56,350.54 384.02,351.12 385.47,351.23 386.92,352.24 388.37,353.74 389.82,351.54 391.27,349.66 392.72,348.75 394.17,348.50 395.63,348.75 397.08,348.82 398.53,349.74 399.98,351.19 401.43,352.99 402.88,354.05 404.33,353.07 405.78,352.31 407.24,351.88 408.69,351.75 410.14,351.67 411.59,351.54 413.04,351.55 414.49,351.57 415.94,351.30 417.39,351.38 418.84,351.14 420.30,351.19 421.75,351.08 423.20,351.26 424.65,351.02 426.10,351.05 427.55,351.03 429.00,351.05 430.45,350.86 431.91,350.90 433.36,350.88 434.81,350.70 436.26,350.54 437.71,350.46 439.16,350.33 440.61,350.66 442.06,350.73 443.52,350.79 444.97,350.70 446.42,350.68 447.87,350.78 449.32,351.02 450.77,351.34 452.22,352.13 453.67,352.25 455.13,352.50 456.58,352.84 458.03,352.93 459.48,353.11 460.93,353.30 462.38,353.34 463.83,353.02 465.28,352.93 466.74,352.66 468.19,352.11 469.64,352.24 471.09,352.13 472.54,352.18 473.99,351.76 475.44,351.62 476.89,351.43 478.35,351.54 479.80,351.32 481.25,351.28 482.70,351.05 484.15,351.14 485.60,351.29 487.05,350.61 488.50,350.85 489.96,351.01 491.41,350.96 492.86,350.81 494.31,350.65 495.76,350.81 497.21,350.28 498.66,350.72 500.11,350.87 501.57,350.84 503.02,350.75 504.47,350.88 505.92,350.83 507.37,351.01 508.82,351.31 510.27,351.90 511.72,352.63 513.18,353.50 514.63,354.65 516.08,353.40 517.53,352.35 518.98,351.94 520.43,351.65 521.88,351.45 523.33,351.39 524.78,351.36 526.24,351.73 527.69,351.91 529.14,352.11 530.59,352.65 532.04,353.25 533.49,353.84 534.94,354.23 536.39,354.27 537.85,354.74 539.30,355.08 540.75,355.05 542.20,354.90 543.65,354.53 545.10,354.42 546.55,354.35 548.00,353.88 549.46,353.83 550.91,353.59 552.36,353.63 553.81,353.51 555.26,353.56 556.71,353.88 558.16,354.15 559.61,354.64 561.07,353.92 562.52,353.23 563.97,352.29 565.42,351.36 566.87,351.32 568.32,351.45 569.77,351.39 571.22,351.36 572.68,351.28 574.13,351.32 575.58,351.47 577.03,351.73 578.48,352.01 579.93,352.40 581.38,352.56 582.83,352.61 584.29,352.52 585.74,352.65 587.19,352.57 588.64,352.55 590.09,353.00 591.54,352.94 592.99,352.87 594.44,353.07 595.90,353.41 597.35,354.19 598.80,354.81 600.25,354.09 601.70,353.03 603.15,352.81 604.60,353.00 606.05,352.97 607.51,353.47 608.96,353.36 610.41,353.79 611.86,353.80 613.31,353.75 614.76,353.88 616.21,354.24 617.66,353.87 619.12,353.86 620.57,353.70 622.02,353.38 623.47,352.83 624.92,352.36 626.37,351.92 627.82,351.88 629.27,351.89 630.73,351.80 632.18,351.95 633.63,352.28 635.08,352.61 636.53,352.65 637.98,352.65 639.43,352.43 640.88,352.57 642.33,352.29 643.79,351.80 645.24,351.93 646.69,351.90 648.14,351.74 649.59,351.78 651.04,351.91 652.49,352.23 653.94,352.66 655.40,353.29 656.85,353.97 658.30,354.61 659.75,353.85 661.20,353.47 662.65,352.75 664.10,352.08 665.55,351.42 667.01,351.25 668.46,351.10 669.91,351.44 671.36,351.73 672.81,351.79 674.26,352.06 675.71,352.09 677.16,352.34 678.62,352.55 680.07,352.88 681.52,353.02 682.97,352.92 684.42,352.91 685.87,353.13 687.32,353.20 688.77,352.96 690.23,352.95 691.68,352.74 693.13,352.26 694.58,352.02 696.03,352.26 697.48,352.28 698.93,352.11 700.38,352.02 701.84,352.02 703.29,352.01 704.74,352.37 706.19,352.60 707.64,352.53 709.09,352.41 710.54,352.09 711.99,351.71 713.45,351.15 714.90,351.00 716.35,350.93 717.80,351.21 719.25,351.36 720.70,351.45 722.15,351.73 723.60,351.90 725.06,351.99 726.51,351.98 727.96,351.99 729.41,351.86 730.86,351.62 732.31,351.29 733.76,351.01 735.21,350.98 736.67,351.32 738.12,351.54 739.57,351.98 741.02,352.46 742.47,352.43 743.92,352.46 745.37,352.01 746.82,351.56 748.28,351.23 749.73,351.01 751.18,350.95 752.63,350.86 754.08,350.65 755.53,350.60 756.98,350.54 758.43,350.62 759.88,350.50 761.34,350.30 762.79,350.33 764.24,350.58 765.69,350.87 767.14,351.24 768.59,351.50 770.04,352.01 771.49,352.44 772.95,352.60 774.40,352.93 775.85,353.03 777.30,352.86 778.75,352.68 780.20,352.29 781.65,352.08 783.10,352.01 784.56,351.86 786.01,351.71 787.46,351.10 788.91,351.08 790.36,351.10 791.81,351.11 793.26,351.22 794.71,351.10 796.17,350.93 797.62,350.65 799.07,350.60 800.52,350.61 801.97,350.54 803.42,350.38 804.87,350.19 806.32,350.47 807.78,350.57 809.23,350.58 810.68,350.45 812.13,350.51 813.58,350.69 815.03,350.57 816.48,350.74 817.93,350.63 819.39,350.89 820.84,351.05 822.29,351.13 823.74,351.25 825.19,351.38 826.64,351.36 828.09,351.18 829.54,351.47 831.00,351.28 832.45,351.26 833.90,350.95 835.35,350.67 836.80,350.54 838.25,350.22 839.70,350.09 841.15,350.01 842.61,350.09 844.06,350.15 845.51,350.06 846.96,349.92 848.41,349.81 849.86,349.74 851.31,349.60 852.76,349.63 854.22,349.59 855.67,349.44 857.12,349.43 858.57,349.25 860.02,349.22 861.47,349.06 862.92,349.06 864.37,349.13 865.82,349.35 867.28,349.41 868.73,349.49 870.18,349.45 871.63,349.48 873.08,349.31 874.53,349.23 875.98,349.42 877.43,349.71 878.89,350.14 880.34,350.40 881.79,350.61 883.24,350.81 884.69,350.87 886.14,350.58 887.59,350.28 889.04,349.84 890.50,349.74 891.95,349.46 893.40,349.42 894.85,349.25 896.30,349.17 897.75,349.08 899.20,349.10 900.65,349.10 902.11,349.10 903.56,349.27 905.01,349.33 906.46,349.50 907.91,349.57 909.36,349.65 910.81,349.49 912.26,349.42 913.72,349.32 915.17,349.14 916.62,349.12 918.07,349.11 919.52,349.20 920.97,349.31 922.42,349.28 923.87,349.26 925.33,349.28 926.78,349.22 928.23,349.15 929.68,349.18 931.13,349.22 932.58,349.21 934.03,349.32 935.48,349.38 936.94,349.43 938.39,349.34 939.84,349.06 941.29,349.15 942.74,349.10 944.19,348.83 945.64,349.01 947.09,349.24 948.55,349.38 950.00,349.47 951.45,349.24 952.90,349.50 954.35,349.53 955.80,349.73 957.25,349.72 958.70,350.00 960.16,350.17 961.61,350.25 963.06,350.04 964.51,350.07 965.96,349.82 967.41,349.74 968.86,349.97 970.31,349.92 971.77,349.92 973.22,349.76 974.67,349.75 976.12,349.32 977.57,349.32 979.02,348.95 980.47,348.88 981.92,348.84 983.37,348.99 984.83,348.84 986.28,348.63 987.73,348.46 989.18,348.51 990.63,348.67 992.08,348.76 993.53,348.88 994.98,348.92 996.44,349.12 997.89,349.35 999.34,349.42 1000.79,349.38 1002.24,349.34 1003.69,349.22 1005.14,349.14 1006.59,349.16 1008.05,349.22 1009.50,349.45 1010.95,349.80 1012.40,350.05 1013.85,350.60 1015.30,351.02 1016.75,351.24 1018.20,351.19 1019.66,351.11 1021.11,351.22 1022.56,351.31 1024.01,351.09 1025.46,350.84 1026.91,351.31 1028.36,352.04 1029.81,354.12 1031.27,353.02 1032.72,355.21 1034.17,359.64 1035.62,361.59 1037.07,362.17 1038.52,364.77 1039.97,363.54 1041.42,364.58 1042.88,369.72 1044.33,372.58 1045.78,375.28 1047.23,379.01 1048.68,379.55 1050.13,381.38 1051.58,381.78 1053.03,381.41 1054.49,380.81 1055.94,378.14 1057.39,379.56 1058.84,378.92 1060.29,379.01 1061.74,379.12 1063.19,380.53 1064.64,379.53 1066.10,378.41 1067.55,376.25 1069.00,375.92 1070.45,375.09 1071.90,374.37" fill="none" stroke="#7c3aed" stroke-width="1.4" />
<text x="18" y="477.5" font-family="Arial" font-size="12" fill="#444">Raw f0 before smoothing</text>
<line x1="72" y1="525" x2="1072" y2="525" stroke="#ddd" />
<rect x="72" y="430" width="1000" height="95" fill="none" stroke="#eee" />
<polyline points="72.00,512.10 105.38,511.33 106.83,511.33 108.28,511.33 109.73,510.54 111.18,510.54 112.63,511.33 114.09,511.33 115.54,511.33 116.99,511.33 118.44,511.33 119.89,511.33 121.34,510.54 122.79,510.54 124.24,510.54 125.70,510.54 127.15,511.33 128.60,511.33 130.05,511.33 132.95,512.10 135.85,512.10 137.31,512.85 138.76,512.85 148.92,511.33 150.37,512.10 151.82,512.10 153.27,512.85 154.72,512.85 156.17,512.85 157.62,512.85 159.07,520.28 160.53,520.28 161.98,520.28 163.43,513.60 164.88,513.60 166.33,520.28 167.78,520.28 169.23,520.28 170.68,520.28 172.14,520.28 173.59,520.28 175.04,520.28 176.49,520.28 177.94,520.28 179.39,520.28 180.84,520.28 182.29,520.28 183.75,520.28 185.20,520.28 186.65,520.28 188.10,520.28 189.55,520.28 191.00,520.28 192.45,520.28 193.90,520.28 195.35,520.28 196.81,511.33 198.26,511.33 199.71,511.33 201.16,511.33 204.06,511.33 205.51,510.54 206.96,510.54 208.42,511.33 209.87,430.00 211.32,430.00 212.77,430.00 214.22,430.00 215.67,430.00 217.12,430.00 218.57,430.00 220.03,430.00 221.48,430.00 222.93,430.00 224.38,430.00 225.83,430.00 227.28,478.32 228.73,478.32 230.18,476.89 231.64,475.44 233.09,473.95 234.54,470.90 235.99,467.72 237.44,467.72 238.89,466.09 240.34,462.73 241.79,462.73 243.25,461.00 244.70,461.00 246.15,459.23 247.60,459.23 249.05,459.23 250.50,459.23 251.95,457.43 253.40,457.43 254.86,457.43 256.31,455.60 257.76,455.60 259.21,455.60 260.66,455.60 262.11,455.60 263.56,455.60 265.01,455.60 266.47,453.73 267.92,453.73 269.37,453.73 270.82,453.73 272.27,453.73 273.72,453.73 275.17,453.73 276.62,453.73 278.08,453.73 279.53,453.73 280.98,451.82 282.43,451.82 283.88,451.82 285.33,451.82 286.78,451.82 288.23,451.82 289.69,449.88 291.14,449.88 292.59,449.88 294.04,449.88 295.49,449.88 296.94,449.88 298.39,449.88 299.84,449.88 301.29,451.82 302.75,451.82 304.20,451.82 305.65,451.82 307.10,451.82 308.55,451.82 310.00,451.82 311.45,451.82 312.90,451.82 314.36,451.82 315.81,451.82 317.26,451.82 318.71,451.82 320.16,449.88 321.61,449.88 323.06,449.88 324.51,449.88 325.97,449.88 327.42,449.88 328.87,449.88 330.32,449.88 331.77,449.88 333.22,449.88 334.67,449.88 336.12,449.88 337.58,449.88 339.03,449.88 340.48,449.88 341.93,449.88 343.38,449.88 344.83,449.88 346.28,449.88 347.73,449.88 349.19,449.88 350.64,449.88 352.09,449.88 353.54,449.88 354.99,449.88 356.44,447.90 357.89,447.90 359.34,447.90 360.80,447.90 362.25,447.90 363.70,447.90 365.15,447.90 366.60,447.90 368.05,447.90 369.50,447.90 370.95,447.90 372.41,447.90 373.86,447.90 375.31,447.90 376.76,447.90 378.21,447.90 379.66,447.90 381.11,447.90 382.56,447.90 384.02,447.90 385.47,447.90 386.92,447.90 388.37,449.88 389.82,449.88 391.27,449.88 392.72,449.88 394.17,449.88 395.63,449.88 397.08,449.88 398.53,449.88 399.98,449.88 401.43,449.88 402.88,447.90 404.33,447.90 405.78,447.90 407.24,447.90 408.69,447.90 410.14,447.90 411.59,447.90 413.04,447.90 414.49,447.90 415.94,447.90 417.39,447.90 418.84,447.90 420.30,447.90 421.75,447.90 423.20,447.90 424.65,447.90 426.10,447.90 427.55,447.90 429.00,447.90 430.45,447.90 431.91,447.90 433.36,447.90 434.81,447.90 436.26,447.90 437.71,447.90 439.16,447.90 440.61,447.90 442.06,447.90 443.52,447.90 444.97,447.90 446.42,447.90 447.87,447.90 449.32,447.90 450.77,447.90 452.22,447.90 453.67,447.90 455.13,447.90 456.58,447.90 458.03,447.90 459.48,447.90 460.93,447.90 462.38,447.90 463.83,447.90 465.28,447.90 466.74,447.90 468.19,447.90 469.64,447.90 471.09,447.90 472.54,447.90 473.99,447.90 475.44,447.90 476.89,447.90 478.35,447.90 479.80,447.90 481.25,447.90 482.70,447.90 484.15,447.90 485.60,447.90 487.05,447.90 488.50,447.90 489.96,447.90 491.41,447.90 492.86,447.90 494.31,447.90 495.76,447.90 497.21,447.90 498.66,447.90 500.11,447.90 501.57,447.90 503.02,447.90 504.47,447.90 505.92,447.90 507.37,447.90 508.82,447.90 510.27,447.90 511.72,447.90 513.18,447.90 514.63,447.90 516.08,445.88 517.53,445.88 518.98,445.88 520.43,445.88 521.88,445.88 523.33,445.88 524.78,445.88 526.24,445.88 527.69,445.88 529.14,445.88 530.59,445.88 532.04,445.88 533.49,445.88 534.94,445.88 536.39,445.88 537.85,445.88 539.30,445.88 540.75,447.90 542.20,447.90 543.65,447.90 545.10,447.90 546.55,447.90 548.00,447.90 549.46,447.90 550.91,447.90 552.36,447.90 553.81,447.90 555.26,447.90 556.71,447.90 558.16,447.90 559.61,445.88 561.07,445.88 562.52,445.88 563.97,445.88 565.42,445.88 566.87,445.88 568.32,445.88 569.77,445.88 571.22,445.88 572.68,445.88 574.13,445.88 575.58,445.88 577.03,445.88 578.48,445.88 579.93,445.88 581.38,445.88 582.83,445.88 584.29,445.88 585.74,445.88 587.19,445.88 588.64,445.88 590.09,445.88 591.54,445.88 592.99,445.88 594.44,445.88 595.90,445.88 597.35,445.88 598.80,447.90 600.25,447.90 601.70,447.90 603.15,447.90 604.60,447.90 606.05,447.90 607.51,447.90 608.96,447.90 610.41,447.90 611.86,447.90 613.31,447.90 614.76,447.90 616.21,447.90 617.66,447.90 619.12,447.90 620.57,447.90 622.02,447.90 623.47,447.90 624.92,447.90 626.37,447.90 627.82,447.90 629.27,447.90 630.73,447.90 632.18,447.90 633.63,447.90 635.08,447.90 636.53,447.90 637.98,447.90 639.43,447.90 640.88,447.90 642.33,447.90 643.79,447.90 645.24,447.90 646.69,447.90 648.14,447.90 649.59,447.90 651.04,447.90 652.49,447.90 653.94,447.90 655.40,447.90 656.85,447.90 658.30,445.88 659.75,445.88 661.20,445.88 662.65,445.88 664.10,445.88 665.55,445.88 667.01,445.88 668.46,445.88 669.91,445.88 671.36,445.88 672.81,445.88 674.26,445.88 675.71,445.88 677.16,445.88 678.62,445.88 680.07,445.88 681.52,445.88 682.97,445.88 684.42,445.88 685.87,445.88 687.32,445.88 688.77,445.88 690.23,445.88 691.68,445.88 693.13,445.88 694.58,445.88 696.03,445.88 697.48,445.88 698.93,445.88 700.38,445.88 701.84,445.88 703.29,445.88 704.74,445.88 706.19,445.88 707.64,445.88 709.09,445.88 710.54,445.88 711.99,445.88 713.45,445.88 714.90,445.88 716.35,445.88 717.80,445.88 719.25,445.88 720.70,445.88 722.15,445.88 723.60,445.88 725.06,445.88 726.51,445.88 727.96,445.88 729.41,445.88 730.86,445.88 732.31,445.88 733.76,445.88 735.21,445.88 736.67,445.88 738.12,445.88 739.57,445.88 741.02,445.88 742.47,445.88 743.92,445.88 745.37,445.88 746.82,445.88 748.28,445.88 749.73,445.88 751.18,445.88 752.63,445.88 754.08,445.88 755.53,445.88 756.98,445.88 758.43,445.88 759.88,445.88 761.34,445.88 762.79,445.88 764.24,445.88 765.69,445.88 767.14,445.88 768.59,445.88 770.04,445.88 771.49,445.88 772.95,445.88 774.40,445.88 775.85,445.88 777.30,445.88 778.75,445.88 780.20,445.88 781.65,445.88 783.10,445.88 784.56,445.88 786.01,445.88 787.46,445.88 788.91,445.88 790.36,445.88 791.81,445.88 793.26,445.88 794.71,445.88 796.17,445.88 797.62,445.88 799.07,445.88 800.52,445.88 801.97,445.88 803.42,445.88 804.87,445.88 806.32,445.88 807.78,445.88 809.23,445.88 810.68,445.88 812.13,445.88 813.58,445.88 815.03,445.88 816.48,445.88 817.93,445.88 819.39,445.88 820.84,445.88 822.29,445.88 823.74,445.88 825.19,445.88 826.64,445.88 828.09,445.88 829.54,445.88 831.00,445.88 832.45,445.88 833.90,445.88 835.35,445.88 836.80,445.88 838.25,445.88 839.70,445.88 841.15,445.88 842.61,445.88 844.06,445.88 845.51,445.88 846.96,445.88 848.41,445.88 849.86,445.88 851.31,445.88 852.76,445.88 854.22,445.88 855.67,445.88 857.12,445.88 858.57,445.88 860.02,445.88 861.47,445.88 862.92,445.88 864.37,445.88 865.82,445.88 867.28,445.88 868.73,445.88 870.18,445.88 871.63,445.88 873.08,445.88 874.53,445.88 875.98,445.88 877.43,445.88 878.89,445.88 880.34,445.88 881.79,445.88 883.24,445.88 884.69,445.88 886.14,445.88 887.59,445.88 889.04,445.88 890.50,445.88 891.95,445.88 893.40,445.88 894.85,445.88 896.30,445.88 897.75,445.88 899.20,445.88 900.65,445.88 902.11,445.88 903.56,445.88 905.01,445.88 906.46,445.88 907.91,445.88 909.36,445.88 910.81,445.88 912.26,445.88 913.72,445.88 915.17,445.88 916.62,445.88 918.07,445.88 919.52,445.88 920.97,445.88 922.42,445.88 923.87,445.88 925.33,445.88 926.78,445.88 928.23,445.88 929.68,445.88 931.13,445.88 932.58,445.88 934.03,445.88 935.48,445.88 936.94,445.88 938.39,445.88 939.84,445.88 941.29,445.88 942.74,445.88 944.19,445.88 945.64,445.88 947.09,445.88 948.55,445.88 950.00,445.88 951.45,445.88 952.90,445.88 954.35,445.88 955.80,445.88 957.25,445.88 958.70,445.88 960.16,445.88 961.61,445.88 963.06,445.88 964.51,445.88 965.96,445.88 967.41,445.88 968.86,445.88 970.31,445.88 971.77,445.88 973.22,445.88 974.67,445.88 976.12,445.88 977.57,445.88 979.02,445.88 980.47,445.88 981.92,445.88 983.37,445.88 984.83,445.88 986.28,445.88 987.73,445.88 989.18,445.88 990.63,445.88 992.08,445.88 993.53,445.88 994.98,445.88 996.44,445.88 997.89,445.88 999.34,445.88 1000.79,445.88 1002.24,445.88 1003.69,445.88 1005.14,445.88 1006.59,445.88 1008.05,445.88 1009.50,445.88 1010.95,445.88 1012.40,445.88 1013.85,445.88 1015.30,445.88 1016.75,445.88 1018.20,445.88 1019.66,445.88 1021.11,445.88 1022.56,445.88 1024.01,445.88 1025.46,445.88 1026.91,445.88 1028.36,445.88 1029.81,447.90 1031.27,447.90 1032.72,447.90 1034.17,447.90 1035.62,449.88 1037.07,449.88 1038.52,447.90 1039.97,445.88 1041.42,445.88 1042.88,445.88 1057.39,482.44 1058.84,445.88" fill="none" stroke="#ea580c" stroke-width="1.5" />
<line x1="72" y1="520.47" x2="1072" y2="520.47" stroke="#eee" />
<text x="1076" y="524.47" font-family="Arial" font-size="10" fill="#666">65</text>
<line x1="72" y1="512.29" x2="1072" y2="512.29" stroke="#eee" />
<text x="1076" y="516.29" font-family="Arial" font-size="10" fill="#666">82</text>
<line x1="72" y1="504.59" x2="1072" y2="504.59" stroke="#eee" />
<text x="1076" y="508.59" font-family="Arial" font-size="10" fill="#666">98</text>
<line x1="72" y1="498.81" x2="1072" y2="498.81" stroke="#eee" />
<text x="1076" y="502.81" font-family="Arial" font-size="10" fill="#666">110</text>
<line x1="72" y1="488.71" x2="1072" y2="488.71" stroke="#eee" />
<text x="1076" y="492.71" font-family="Arial" font-size="10" fill="#666">131</text>
<line x1="72" y1="481.01" x2="1072" y2="481.01" stroke="#eee" />
<text x="1076" y="485.01" font-family="Arial" font-size="10" fill="#666">147</text>
<line x1="72" y1="472.34" x2="1072" y2="472.34" stroke="#eee" />
<text x="1076" y="476.34" font-family="Arial" font-size="10" fill="#666">165</text>
<line x1="72" y1="457.42" x2="1072" y2="457.42" stroke="#eee" />
<text x="1076" y="461.42" font-family="Arial" font-size="10" fill="#666">196</text>
<line x1="72" y1="445.87" x2="1072" y2="445.87" stroke="#eee" />
<text x="1076" y="449.87" font-family="Arial" font-size="10" fill="#666">220</text>
<text x="18" y="617.5" font-family="Arial" font-size="12" fill="#444">Smoothed f0 after smoothing</text>
<line x1="72" y1="665" x2="1072" y2="665" stroke="#ddd" />
<rect x="72" y="570" width="1000" height="95" fill="none" stroke="#eee" />
<polyline points="72.00,652.10 105.38,651.33 106.83,651.33 108.28,651.33 109.73,651.33 111.18,651.33 112.63,651.33 114.09,651.33 115.54,651.33 116.99,651.33 118.44,651.33 119.89,651.33 121.34,650.54 122.79,650.54 124.24,650.54 125.70,650.54 127.15,651.33 128.60,651.33 130.05,651.33 132.95,652.10 135.85,652.10 137.31,652.85 138.76,652.85 148.92,651.33 150.37,652.10 151.82,652.10 153.27,652.85 154.72,652.85 156.17,652.85 157.62,652.85 159.07,660.28 160.53,660.28 161.98,660.28 163.43,660.28 164.88,660.28 166.33,660.28 167.78,660.28 169.23,660.28 170.68,660.28 172.14,660.28 173.59,660.28 175.04,660.28 176.49,660.28 177.94,660.28 179.39,660.28 180.84,660.28 182.29,660.28 183.75,660.28 185.20,660.28 186.65,660.28 188.10,660.28 189.55,660.28 191.00,660.28 192.45,660.28 193.90,660.28 195.35,660.28 196.81,651.33 198.26,651.33 199.71,651.33 201.16,651.33 204.06,651.33 205.51,651.33 206.96,650.54 208.42,650.54 209.87,607.72 211.32,607.72 212.77,607.72 214.22,610.90 215.67,619.72 217.12,619.72 218.57,613.95 220.03,613.95 221.48,613.95 222.93,613.95 224.38,613.95 225.83,613.95 227.28,616.89 228.73,616.89 230.18,616.89 231.64,615.44 233.09,613.95 234.54,610.90 235.99,607.72 237.44,607.72 238.89,606.09 240.34,602.73 241.79,602.73 243.25,601.00 244.70,601.00 246.15,599.23 247.60,599.23 249.05,599.23 250.50,599.23 251.95,597.43 253.40,597.43 254.86,597.43 256.31,595.60 257.76,595.60 259.21,595.60 260.66,595.60 262.11,595.60 263.56,595.60 265.01,595.60 266.47,593.73 267.92,593.73 269.37,593.73 270.82,593.73 272.27,593.73 273.72,593.73 275.17,593.73 276.62,593.73 278.08,593.73 279.53,593.73 280.98,591.82 282.43,591.82 283.88,591.82 285.33,591.82 286.78,591.82 288.23,591.82 289.69,589.88 291.14,589.88 292.59,589.88 294.04,589.88 295.49,589.88 296.94,589.88 298.39,589.88 299.84,589.88 301.29,591.82 302.75,591.82 304.20,591.82 305.65,591.82 307.10,591.82 308.55,591.82 310.00,591.82 311.45,591.82 312.90,591.82 314.36,591.82 315.81,591.82 317.26,591.82 318.71,591.82 320.16,589.88 321.61,589.88 323.06,589.88 324.51,589.88 325.97,589.88 327.42,589.88 328.87,589.88 330.32,589.88 331.77,589.88 333.22,589.88 334.67,589.88 336.12,589.88 337.58,589.88 339.03,589.88 340.48,589.88 341.93,589.88 343.38,589.88 344.83,589.88 346.28,589.88 347.73,589.88 349.19,589.88 350.64,589.88 352.09,589.88 353.54,589.88 354.99,589.88 356.44,587.90 357.89,587.90 359.34,587.90 360.80,587.90 362.25,587.90 363.70,587.90 365.15,587.90 366.60,587.90 368.05,587.90 369.50,587.90 370.95,587.90 372.41,587.90 373.86,587.90 375.31,587.90 376.76,587.90 378.21,587.90 379.66,587.90 381.11,587.90 382.56,587.90 384.02,587.90 385.47,587.90 386.92,587.90 388.37,589.88 389.82,589.88 391.27,589.88 392.72,589.88 394.17,589.88 395.63,589.88 397.08,589.88 398.53,589.88 399.98,589.88 401.43,589.88 402.88,587.90 404.33,587.90 405.78,587.90 407.24,587.90 408.69,587.90 410.14,587.90 411.59,587.90 413.04,587.90 414.49,587.90 415.94,587.90 417.39,587.90 418.84,587.90 420.30,587.90 421.75,587.90 423.20,587.90 424.65,587.90 426.10,587.90 427.55,587.90 429.00,587.90 430.45,587.90 431.91,587.90 433.36,587.90 434.81,587.90 436.26,587.90 437.71,587.90 439.16,587.90 440.61,587.90 442.06,587.90 443.52,587.90 444.97,587.90 446.42,587.90 447.87,587.90 449.32,587.90 450.77,587.90 452.22,587.90 453.67,587.90 455.13,587.90 456.58,587.90 458.03,587.90 459.48,587.90 460.93,587.90 462.38,587.90 463.83,587.90 465.28,587.90 466.74,587.90 468.19,587.90 469.64,587.90 471.09,587.90 472.54,587.90 473.99,587.90 475.44,587.90 476.89,587.90 478.35,587.90 479.80,587.90 481.25,587.90 482.70,587.90 484.15,587.90 485.60,587.90 487.05,587.90 488.50,587.90 489.96,587.90 491.41,587.90 492.86,587.90 494.31,587.90 495.76,587.90 497.21,587.90 498.66,587.90 500.11,587.90 501.57,587.90 503.02,587.90 504.47,587.90 505.92,587.90 507.37,587.90 508.82,587.90 510.27,587.90 511.72,587.90 513.18,587.90 514.63,587.90 516.08,585.88 517.53,585.88 518.98,585.88 520.43,585.88 521.88,585.88 523.33,585.88 524.78,585.88 526.24,585.88 527.69,585.88 529.14,585.88 530.59,585.88 532.04,585.88 533.49,585.88 534.94,585.88 536.39,585.88 537.85,585.88 539.30,585.88 540.75,587.90 542.20,587.90 543.65,587.90 545.10,587.90 546.55,587.90 548.00,587.90 549.46,587.90 550.91,587.90 552.36,587.90 553.81,587.90 555.26,587.90 556.71,587.90 558.16,587.90 559.61,585.88 561.07,585.88 562.52,585.88 563.97,585.88 565.42,585.88 566.87,585.88 568.32,585.88 569.77,585.88 571.22,585.88 572.68,585.88 574.13,585.88 575.58,585.88 577.03,585.88 578.48,585.88 579.93,585.88 581.38,585.88 582.83,585.88 584.29,585.88 585.74,585.88 587.19,585.88 588.64,585.88 590.09,585.88 591.54,585.88 592.99,585.88 594.44,585.88 595.90,585.88 597.35,585.88 598.80,587.90 600.25,587.90 601.70,587.90 603.15,587.90 604.60,587.90 606.05,587.90 607.51,587.90 608.96,587.90 610.41,587.90 611.86,587.90 613.31,587.90 614.76,587.90 616.21,587.90 617.66,587.90 619.12,587.90 620.57,587.90 622.02,587.90 623.47,587.90 624.92,587.90 626.37,587.90 627.82,587.90 629.27,587.90 630.73,587.90 632.18,587.90 633.63,587.90 635.08,587.90 636.53,587.90 637.98,587.90 639.43,587.90 640.88,587.90 642.33,587.90 643.79,587.90 645.24,587.90 646.69,587.90 648.14,587.90 649.59,587.90 651.04,587.90 652.49,587.90 653.94,587.90 655.40,587.90 656.85,587.90 658.30,585.88 659.75,585.88 661.20,585.88 662.65,585.88 664.10,585.88 665.55,585.88 667.01,585.88 668.46,585.88 669.91,585.88 671.36,585.88 672.81,585.88 674.26,585.88 675.71,585.88 677.16,585.88 678.62,585.88 680.07,585.88 681.52,585.88 682.97,585.88 684.42,585.88 685.87,585.88 687.32,585.88 688.77,585.88 690.23,585.88 691.68,585.88 693.13,585.88 694.58,585.88 696.03,585.88 697.48,585.88 698.93,585.88 700.38,585.88 701.84,585.88 703.29,585.88 704.74,585.88 706.19,585.88 707.64,585.88 709.09,585.88 710.54,585.88 711.99,585.88 713.45,585.88 714.90,585.88 716.35,585.88 717.80,585.88 719.25,585.88 720.70,585.88 722.15,585.88 723.60,585.88 725.06,585.88 726.51,585.88 727.96,585.88 729.41,585.88 730.86,585.88 732.31,585.88 733.76,585.88 735.21,585.88 736.67,585.88 738.12,585.88 739.57,585.88 741.02,585.88 742.47,585.88 743.92,585.88 745.37,585.88 746.82,585.88 748.28,585.88 749.73,585.88 751.18,585.88 752.63,585.88 754.08,585.88 755.53,585.88 756.98,585.88 758.43,585.88 759.88,585.88 761.34,585.88 762.79,585.88 764.24,585.88 765.69,585.88 767.14,585.88 768.59,585.88 770.04,585.88 771.49,585.88 772.95,585.88 774.40,585.88 775.85,585.88 777.30,585.88 778.75,585.88 780.20,585.88 781.65,585.88 783.10,585.88 784.56,585.88 786.01,585.88 787.46,585.88 788.91,585.88 790.36,585.88 791.81,585.88 793.26,585.88 794.71,585.88 796.17,585.88 797.62,585.88 799.07,585.88 800.52,585.88 801.97,585.88 803.42,585.88 804.87,585.88 806.32,585.88 807.78,585.88 809.23,585.88 810.68,585.88 812.13,585.88 813.58,585.88 815.03,585.88 816.48,585.88 817.93,585.88 819.39,585.88 820.84,585.88 822.29,585.88 823.74,585.88 825.19,585.88 826.64,585.88 828.09,585.88 829.54,585.88 831.00,585.88 832.45,585.88 833.90,585.88 835.35,585.88 836.80,585.88 838.25,585.88 839.70,585.88 841.15,585.88 842.61,585.88 844.06,585.88 845.51,585.88 846.96,585.88 848.41,585.88 849.86,585.88 851.31,585.88 852.76,585.88 854.22,585.88 855.67,585.88 857.12,585.88 858.57,585.88 860.02,585.88 861.47,585.88 862.92,585.88 864.37,585.88 865.82,585.88 867.28,585.88 868.73,585.88 870.18,585.88 871.63,585.88 873.08,585.88 874.53,585.88 875.98,585.88 877.43,585.88 878.89,585.88 880.34,585.88 881.79,585.88 883.24,585.88 884.69,585.88 886.14,585.88 887.59,585.88 889.04,585.88 890.50,585.88 891.95,585.88 893.40,585.88 894.85,585.88 896.30,585.88 897.75,585.88 899.20,585.88 900.65,585.88 902.11,585.88 903.56,585.88 905.01,585.88 906.46,585.88 907.91,585.88 909.36,585.88 910.81,585.88 912.26,585.88 913.72,585.88 915.17,585.88 916.62,585.88 918.07,585.88 919.52,585.88 920.97,585.88 922.42,585.88 923.87,585.88 925.33,585.88 926.78,585.88 928.23,585.88 929.68,585.88 931.13,585.88 932.58,585.88 934.03,585.88 935.48,585.88 936.94,585.88 938.39,585.88 939.84,585.88 941.29,585.88 942.74,585.88 944.19,585.88 945.64,585.88 947.09,585.88 948.55,585.88 950.00,585.88 951.45,585.88 952.90,585.88 954.35,585.88 955.80,585.88 957.25,585.88 958.70,585.88 960.16,585.88 961.61,585.88 963.06,585.88 964.51,585.88 965.96,585.88 967.41,585.88 968.86,585.88 970.31,585.88 971.77,585.88 973.22,585.88 974.67,585.88 976.12,585.88 977.57,585.88 979.02,585.88 980.47,585.88 981.92,585.88 983.37,585.88 984.83,585.88 986.28,585.88 987.73,585.88 989.18,585.88 990.63,585.88 992.08,585.88 993.53,585.88 994.98,585.88 996.44,585.88 997.89,585.88 999.34,585.88 1000.79,585.88 1002.24,585.88 1003.69,585.88 1005.14,585.88 1006.59,585.88 1008.05,585.88 1009.50,585.88 1010.95,585.88 1012.40,585.88 1013.85,585.88 1015.30,585.88 1016.75,585.88 1018.20,585.88 1019.66,585.88 1021.11,585.88 1022.56,585.88 1024.01,585.88 1025.46,585.88 1026.91,585.88 1028.36,585.88 1029.81,587.90 1031.27,587.90 1032.72,587.90 1034.17,587.90 1035.62,587.90 1037.07,587.90 1038.52,587.90 1039.97,585.88 1041.42,585.88 1042.88,585.88 1057.39,622.44 1058.84,585.88" fill="none" stroke="#059669" stroke-width="1.5" />
<line x1="72" y1="660.47" x2="1072" y2="660.47" stroke="#eee" />
<text x="1076" y="664.47" font-family="Arial" font-size="10" fill="#666">65</text>
<line x1="72" y1="652.29" x2="1072" y2="652.29" stroke="#eee" />
<text x="1076" y="656.29" font-family="Arial" font-size="10" fill="#666">82</text>
<line x1="72" y1="644.59" x2="1072" y2="644.59" stroke="#eee" />
<text x="1076" y="648.59" font-family="Arial" font-size="10" fill="#666">98</text>
<line x1="72" y1="638.81" x2="1072" y2="638.81" stroke="#eee" />
<text x="1076" y="642.81" font-family="Arial" font-size="10" fill="#666">110</text>
<line x1="72" y1="628.71" x2="1072" y2="628.71" stroke="#eee" />
<text x="1076" y="632.71" font-family="Arial" font-size="10" fill="#666">131</text>
<line x1="72" y1="621.01" x2="1072" y2="621.01" stroke="#eee" />
<text x="1076" y="625.01" font-family="Arial" font-size="10" fill="#666">147</text>
<line x1="72" y1="612.34" x2="1072" y2="612.34" stroke="#eee" />
<text x="1076" y="616.34" font-family="Arial" font-size="10" fill="#666">165</text>
<line x1="72" y1="597.42" x2="1072" y2="597.42" stroke="#eee" />
<text x="1076" y="601.42" font-family="Arial" font-size="10" fill="#666">196</text>
<line x1="72" y1="585.87" x2="1072" y2="585.87" stroke="#eee" />
<text x="1076" y="589.87" font-family="Arial" font-size="10" fill="#666">220</text>
<text x="18" y="750.0" font-family="Arial" font-size="12" fill="#444">Onset probability</text>
<line x1="72" y1="790" x2="1072" y2="790" stroke="#ddd" />
<rect x="72" y="710" width="1000" height="80" fill="none" stroke="#eee" />
<polyline points="72.00,760.30 73.45,755.06 74.90,756.64 76.35,752.97 77.80,753.71 79.26,755.13 80.71,755.32 82.16,756.05 83.61,754.65 85.06,756.86 86.51,758.42 87.96,758.86 89.41,758.69 90.87,758.29 92.32,757.91 93.77,758.24 95.22,756.92 96.67,756.67 98.12,756.51 99.57,757.48 101.02,757.11 102.48,757.13 103.93,757.22 105.38,757.05 106.83,756.54 108.28,755.94 109.73,755.72 111.18,755.22 112.63,756.64 114.09,757.16 115.54,757.49 116.99,757.03 118.44,758.08 119.89,759.24 121.34,759.09 122.79,758.67 124.24,759.23 125.70,758.75 127.15,758.95 128.60,760.20 130.05,760.59 131.50,760.44 132.95,760.39 134.40,760.11 135.85,760.09 137.31,760.24 138.76,761.06 140.21,761.47 141.66,761.61 143.11,760.59 144.56,761.51 146.01,761.11 147.46,761.51 148.92,760.83 150.37,761.33 151.82,761.15 153.27,760.02 154.72,758.33 156.17,758.41 157.62,759.59 159.07,760.12 160.53,760.36 161.98,761.21 163.43,760.70 164.88,760.48 166.33,759.91 167.78,759.00 169.23,758.58 170.68,758.25 172.14,758.52 173.59,758.51 175.04,758.84 176.49,759.92 177.94,758.44 179.39,758.25 180.84,757.63 182.29,758.37 183.75,758.67 185.20,758.72 186.65,760.29 188.10,761.09 189.55,761.06 191.00,761.39 192.45,761.55 193.90,761.34 195.35,761.78 196.81,761.04 198.26,761.11 199.71,760.80 201.16,760.09 202.61,760.37 204.06,760.32 205.51,760.01 206.96,759.48 208.42,758.39 209.87,757.62 211.32,757.69 212.77,757.82 214.22,755.50 215.67,753.40 217.12,753.27 218.57,753.84 220.03,753.57 221.48,751.85 222.93,750.01 224.38,749.90 225.83,754.27 227.28,757.49 228.73,759.27 230.18,764.26 231.64,766.87 233.09,768.26 234.54,762.19 235.99,760.26 237.44,759.79 238.89,758.97 240.34,758.82 241.79,762.70 243.25,766.12 244.70,771.45 246.15,774.91 247.60,776.31 249.05,777.27 250.50,778.56 251.95,778.66 253.40,779.25 254.86,780.08 256.31,780.64 257.76,781.03 259.21,781.38 260.66,781.89 262.11,781.83 263.56,781.96 265.01,782.03 266.47,782.26 267.92,782.55 269.37,782.85 270.82,782.67 272.27,782.83 273.72,783.00 275.17,783.21 276.62,783.43 278.08,783.68 279.53,783.68 280.98,783.62 282.43,783.53 283.88,782.45 285.33,781.65 286.78,780.44 288.23,779.35 289.69,777.86 291.14,777.40 292.59,777.46 294.04,778.37 295.49,779.31 296.94,780.21 298.39,780.42 299.84,780.79 301.29,780.99 302.75,780.83 304.20,780.51 305.65,780.78 307.10,780.78 308.55,780.96 310.00,781.43 311.45,781.65 312.90,782.05 314.36,782.45 315.81,782.66 317.26,782.30 318.71,782.73 320.16,782.72 321.61,782.45 323.06,782.18 324.51,782.34 325.97,782.17 327.42,781.95 328.87,781.50 330.32,781.62 331.77,781.83 333.22,781.95 334.67,781.92 336.12,781.56 337.58,781.85 339.03,781.94 340.48,781.86 341.93,781.72 343.38,781.57 344.83,781.33 346.28,781.18 347.73,781.04 349.19,781.16 350.64,781.49 352.09,781.41 353.54,782.03 354.99,782.30 356.44,782.24 357.89,782.07 359.34,781.50 360.80,780.95 362.25,780.93 363.70,781.16 365.15,781.25 366.60,781.16 368.05,780.63 369.50,780.46 370.95,780.72 372.41,781.24 373.86,781.28 375.31,781.41 376.76,781.62 378.21,781.63 379.66,781.70 381.11,781.66 382.56,781.13 384.02,780.72 385.47,780.51 386.92,780.37 388.37,780.01 389.82,779.98 391.27,779.85 392.72,779.67 394.17,779.86 395.63,780.44 397.08,780.97 398.53,781.29 399.98,781.29 401.43,780.92 402.88,780.75 404.33,781.06 405.78,781.16 407.24,781.15 408.69,781.10 410.14,781.13 411.59,781.32 413.04,781.71 414.49,781.68 415.94,781.75 417.39,781.59 418.84,781.73 420.30,781.70 421.75,781.39 423.20,781.41 424.65,781.15 426.10,781.06 427.55,780.85 429.00,780.78 430.45,780.61 431.91,780.63 433.36,780.70 434.81,780.67 436.26,780.59 437.71,780.64 439.16,780.85 440.61,780.75 442.06,780.85 443.52,780.98 444.97,781.11 446.42,781.21 447.87,781.15 449.32,781.25 450.77,781.30 452.22,780.96 453.67,781.10 455.13,781.02 456.58,780.98 458.03,780.92 459.48,780.99 460.93,781.18 462.38,781.21 463.83,781.40 465.28,781.28 466.74,781.70 468.19,781.66 469.64,781.51 471.09,781.61 472.54,781.73 473.99,781.81 475.44,781.92 476.89,781.77 478.35,781.84 479.80,781.85 481.25,781.88 482.70,781.88 484.15,781.67 485.60,781.54 487.05,781.58 488.50,781.42 489.96,780.91 491.41,780.74 492.86,780.89 494.31,780.88 495.76,781.27 497.21,781.16 498.66,780.69 500.11,780.84 501.57,781.17 503.02,781.16 504.47,781.17 505.92,781.38 507.37,781.39 508.82,781.23 510.27,781.36 511.72,781.25 513.18,781.15 514.63,781.15 516.08,781.25 517.53,781.05 518.98,781.16 520.43,781.20 521.88,781.27 523.33,781.10 524.78,780.58 526.24,780.09 527.69,779.89 529.14,779.55 530.59,779.09 532.04,778.55 533.49,778.26 534.94,778.47 536.39,778.24 537.85,778.04 539.30,777.99 540.75,778.18 542.20,778.35 543.65,778.71 545.10,778.90 546.55,779.01 548.00,778.94 549.46,778.79 550.91,778.55 552.36,778.26 553.81,777.99 555.26,777.88 556.71,778.11 558.16,778.36 559.61,778.48 561.07,778.81 562.52,779.16 563.97,779.24 565.42,779.58 566.87,779.71 568.32,780.08 569.77,780.01 571.22,779.99 572.68,779.92 574.13,779.84 575.58,779.71 577.03,779.28 578.48,779.20 579.93,778.98 581.38,778.83 582.83,778.87 584.29,778.94 585.74,778.86 587.19,778.92 588.64,778.78 590.09,778.40 591.54,778.52 592.99,778.61 594.44,778.68 595.90,778.50 597.35,778.31 598.80,778.08 600.25,777.97 601.70,777.74 603.15,778.17 604.60,778.13 606.05,778.04 607.51,778.00 608.96,777.91 610.41,778.28 611.86,778.46 613.31,778.34 614.76,778.71 616.21,778.97 617.66,778.83 619.12,778.95 620.57,779.29 622.02,779.35 623.47,779.41 624.92,779.44 626.37,779.39 627.82,779.74 629.27,779.83 630.73,779.80 632.18,779.57 633.63,779.69 635.08,779.62 636.53,779.51 637.98,779.62 639.43,779.54 640.88,779.82 642.33,779.99 643.79,779.94 645.24,780.34 646.69,780.49 648.14,780.18 649.59,780.20 651.04,780.10 652.49,780.18 653.94,779.98 655.40,780.20 656.85,780.26 658.30,780.37 659.75,779.97 661.20,779.55 662.65,779.49 664.10,779.48 665.55,779.50 667.01,779.81 668.46,779.98 669.91,779.78 671.36,779.27 672.81,779.06 674.26,778.93 675.71,778.73 677.16,778.50 678.62,778.10 680.07,778.05 681.52,777.97 682.97,778.18 684.42,778.20 685.87,778.21 687.32,778.10 688.77,778.14 690.23,778.19 691.68,778.23 693.13,778.50 694.58,778.56 696.03,778.12 697.48,777.81 698.93,777.75 700.38,777.63 701.84,777.28 703.29,777.14 704.74,777.17 706.19,777.08 707.64,777.24 709.09,777.57 710.54,777.82 711.99,777.74 713.45,777.99 714.90,778.50 716.35,779.06 717.80,779.03 719.25,779.28 720.70,779.58 722.15,779.99 723.60,780.09 725.06,780.24 726.51,780.26 727.96,780.38 729.41,780.45 730.86,780.44 732.31,780.23 733.76,780.27 735.21,780.60 736.67,780.90 738.12,780.82 739.57,781.00 741.02,781.17 742.47,781.10 743.92,781.10 745.37,780.66 746.82,780.25 748.28,779.50 749.73,779.00 751.18,779.09 752.63,778.79 754.08,779.03 755.53,779.14 756.98,779.31 758.43,779.61 759.88,779.96 761.34,780.53 762.79,780.75 764.24,780.68 765.69,780.58 767.14,780.47 768.59,780.50 770.04,780.32 771.49,780.27 772.95,780.33 774.40,780.43 775.85,780.14 777.30,779.78 778.75,779.69 780.20,779.93 781.65,780.10 783.10,780.00 784.56,780.12 786.01,780.58 787.46,780.74 788.91,780.80 790.36,780.72 791.81,780.51 793.26,780.38 794.71,780.43 796.17,780.38 797.62,780.34 799.07,780.18 800.52,780.00 801.97,780.05 803.42,780.25 804.87,780.31 806.32,780.34 807.78,780.28 809.23,780.42 810.68,780.60 812.13,780.59 813.58,780.62 815.03,780.76 816.48,780.97 817.93,781.07 819.39,780.87 820.84,780.56 822.29,780.52 823.74,780.60 825.19,780.61 826.64,780.44 828.09,780.32 829.54,779.85 831.00,779.60 832.45,779.48 833.90,779.48 835.35,779.64 836.80,779.96 838.25,780.16 839.70,780.29 841.15,780.29 842.61,779.95 844.06,779.66 845.51,779.49 846.96,779.47 848.41,779.67 849.86,779.79 851.31,779.81 852.76,779.78 854.22,779.81 855.67,779.61 857.12,779.57 858.57,779.64 860.02,779.67 861.47,779.94 862.92,780.08 864.37,780.36 865.82,780.30 867.28,780.34 868.73,780.28 870.18,780.45 871.63,780.51 873.08,780.46 874.53,780.17 875.98,779.80 877.43,779.30 878.89,778.69 880.34,778.40 881.79,778.44 883.24,778.33 884.69,778.39 886.14,778.57 887.59,779.16 889.04,779.75 890.50,780.03 891.95,780.36 893.40,780.60 894.85,780.89 896.30,780.95 897.75,781.10 899.20,781.04 900.65,780.73 902.11,780.35 903.56,779.92 905.01,779.61 906.46,779.44 907.91,779.23 909.36,778.88 910.81,779.07 912.26,779.24 913.72,779.50 915.17,779.93 916.62,780.42 918.07,780.75 919.52,781.03 920.97,781.07 922.42,781.38 923.87,781.26 925.33,781.12 926.78,781.09 928.23,780.76 929.68,780.65 931.13,780.23 932.58,779.98 934.03,779.70 935.48,779.74 936.94,779.69 938.39,779.75 939.84,780.10 941.29,780.05 942.74,780.06 944.19,780.32 945.64,780.01 947.09,779.79 948.55,779.71 950.00,779.66 951.45,779.65 952.90,779.59 954.35,779.50 955.80,779.50 957.25,779.40 958.70,779.35 960.16,779.45 961.61,779.63 963.06,779.79 964.51,779.78 965.96,779.87 967.41,779.88 968.86,779.74 970.31,779.87 971.77,779.88 973.22,779.93 974.67,779.98 976.12,780.14 977.57,780.20 979.02,780.61 980.47,780.64 981.92,780.20 983.37,779.79 984.83,779.85 986.28,779.96 987.73,779.91 989.18,779.61 990.63,779.37 992.08,779.38 993.53,779.40 994.98,779.45 996.44,779.63 997.89,779.73 999.34,780.06 1000.79,780.06 1002.24,779.82 1003.69,779.96 1005.14,779.85 1006.59,780.07 1008.05,780.22 1009.50,780.45 1010.95,780.40 1012.40,780.10 1013.85,780.50 1015.30,780.73 1016.75,781.05 1018.20,781.11 1019.66,781.06 1021.11,781.01 1022.56,781.08 1024.01,780.98 1025.46,780.00 1026.91,778.19 1028.36,776.72 1029.81,768.94 1031.27,760.36 1032.72,753.79 1034.17,752.95 1035.62,753.23 1037.07,754.86 1038.52,757.46 1039.97,758.32 1041.42,757.58 1042.88,759.95 1044.33,759.88 1045.78,759.03 1047.23,758.57 1048.68,758.09 1050.13,759.25 1051.58,757.62 1053.03,754.67 1054.49,751.63 1055.94,748.01 1057.39,745.69 1058.84,746.56 1060.29,752.98 1061.74,756.66 1063.19,754.66 1064.64,752.48 1066.10,752.55 1067.55,756.58 1069.00,759.06 1070.45,759.46 1071.90,759.57" fill="none" stroke="#dc2626" stroke-width="1.4" />
<line x1="72.00" y1="795" x2="72.00" y2="802" stroke="#666" />
<text x="60.00" y="815" font-family="Arial" font-size="10" fill="#666">0.0s</text>
<line x1="238.67" y1="795" x2="238.67" y2="802" stroke="#666" />
<text x="226.67" y="815" font-family="Arial" font-size="10" fill="#666">1.1s</text>
<line x1="405.33" y1="795" x2="405.33" y2="802" stroke="#666" />
<text x="393.33" y="815" font-family="Arial" font-size="10" fill="#666">2.3s</text>
<line x1="572.00" y1="795" x2="572.00" y2="802" stroke="#666" />
<text x="560.00" y="815" font-family="Arial" font-size="10" fill="#666">3.4s</text>
<line x1="738.67" y1="795" x2="738.67" y2="802" stroke="#666" />
<text x="726.67" y="815" font-family="Arial" font-size="10" fill="#666">4.6s</text>
<line x1="905.33" y1="795" x2="905.33" y2="802" stroke="#666" />
<text x="893.33" y="815" font-family="Arial" font-size="10" fill="#666">5.7s</text>
<line x1="1072.00" y1="795" x2="1072.00" y2="802" stroke="#666" />
<text x="1060.00" y="815" font-family="Arial" font-size="10" fill="#666">6.9s</text>
</svg>