<svg xmlns="http://www.w3.org/2000/svg" width="1100" height="620" viewBox="0 0 1100 620">
<rect width="100%" height="100%" fill="white" />
<text x="78" y="26" font-family="Arial" font-size="18" font-weight="700" fill="#111">Baseline comparison: 03_sustained_aaa</text>
<text x="18" y="95.0" font-family="Arial" font-size="12" fill="#444">Waveform</text>
<rect x="78" y="50" width="992" height="90" fill="none" stroke="#eee" />
<line x1="78" y1="140" x2="1070" y2="140" stroke="#ddd" />
<text x="18" y="292.5" font-family="Arial" font-size="12" fill="#444">F0: checkpoint vs baseline</text>
<rect x="78" y="190" width="992" height="205" fill="none" stroke="#eee" />
<line x1="78" y1="395" x2="1070" y2="395" stroke="#ddd" />
<text x="18" y="505.0" font-family="Arial" font-size="12" fill="#444">Voiced mask</text>
<rect x="78" y="450" width="992" height="110" fill="none" stroke="#eee" />
<line x1="78" y1="560" x2="1070" y2="560" stroke="#ddd" />
<polyline points="78.00,95.00 78.71,95.00 79.41,95.00 80.12,95.00 80.83,95.00 81.54,95.00 82.25,95.00 82.96,95.00 83.67,95.00 84.38,95.01 85.08,95.72 85.80,95.42 86.50,94.09 87.21,94.43 87.93,95.38 88.63,95.45 89.34,95.02 90.05,94.82 90.76,94.85 91.47,95.02 92.17,95.35 92.89,94.89 93.60,94.71 94.30,94.66 95.02,95.07 95.72,95.29 96.43,94.74 97.14,95.00 97.85,94.33 98.56,96.19 99.26,94.78 99.98,94.86 100.69,95.43 101.39,94.63 102.11,95.25 102.81,95.65 103.52,94.54 104.23,95.29 104.94,95.01 105.65,94.83 106.36,95.48 107.07,94.81 107.78,95.43 108.48,93.85 109.19,95.34 109.91,94.57 110.61,95.28 111.32,95.08 112.03,94.67 112.74,95.54 113.45,94.92 114.16,95.52 114.87,95.90 115.58,93.75 116.28,95.85 117.00,95.15 117.70,93.91 118.41,95.51 119.13,94.61 119.83,95.71 120.54,94.14 121.24,95.17 121.96,95.11 122.67,95.01 123.37,94.70 124.09,94.96 124.79,96.16 125.50,94.86 126.22,94.61 126.92,94.81 127.63,95.77 128.34,94.53 129.05,95.09 129.76,95.48 130.46,96.03 131.18,93.72 131.89,95.48 132.59,94.83 133.30,95.16 134.01,95.34 134.72,93.60 135.43,96.05 136.14,94.93 136.85,94.31 137.56,95.66 138.27,94.62 138.98,96.50 139.68,94.31 140.39,95.14 141.11,95.12 141.81,93.79 142.52,95.74 143.23,94.20 143.94,96.10 144.65,93.86 145.35,95.52 146.07,95.66 146.77,93.91 147.48,94.96 148.20,95.40 148.90,94.24 149.61,95.79 150.32,94.30 151.03,95.14 151.74,94.95 152.44,95.55 153.16,94.85 153.87,94.55 154.57,95.33 155.29,94.94 155.99,93.97 156.70,94.93 157.41,95.06 158.12,95.36 158.83,94.09 159.54,94.78 160.25,95.48 160.96,94.44 161.66,95.00 162.38,95.44 163.09,94.90 163.79,95.67 164.50,94.36 165.21,94.89 165.92,96.07 166.63,93.87 167.34,94.52 168.05,95.46 168.75,95.97 169.46,94.14 170.18,95.73 170.88,95.49 171.59,94.47 172.31,95.35 173.01,95.70 173.72,95.15 174.43,95.73 175.14,94.30 175.85,95.66 176.55,95.26 177.27,95.38 177.97,95.24 178.68,95.00 179.40,95.89 180.10,93.79 180.81,94.54 181.52,94.39 182.23,95.50 182.94,95.34 183.64,91.97 184.36,88.39 185.07,87.78 185.77,88.85 186.49,93.89 187.19,98.25 187.90,95.75 188.61,94.75 189.32,94.92 190.03,95.17 190.73,93.42 191.45,95.40 192.16,96.87 192.86,96.87 193.58,95.33 194.29,73.71 194.99,92.01 195.70,76.42 196.41,91.77 197.12,101.35 197.83,90.94 198.54,87.74 199.25,99.03 199.95,101.67 200.66,70.74 201.38,103.40 202.08,97.49 202.79,81.69 203.50,111.33 204.21,85.72 204.92,103.68 205.63,101.41 206.34,86.24 207.05,98.95 207.75,95.15 208.47,102.76 209.17,87.67 209.88,96.65 210.60,99.86 211.30,83.20 212.01,98.60 212.72,100.19 213.43,98.19 214.14,74.27 214.84,102.10 215.56,95.83 216.27,91.94 216.97,109.08 217.69,85.02 218.39,99.87 219.10,103.42 219.81,94.33 220.52,86.79 221.23,97.45 221.93,103.75 222.65,81.54 223.36,98.90 224.06,96.94 224.77,94.09 225.48,82.17 226.19,100.51 226.90,100.40 227.61,72.37 228.32,107.20 229.03,90.99 229.74,100.65 230.45,110.14 231.15,85.70 231.86,103.30 232.58,100.73 233.28,96.91 233.99,92.97 234.70,95.21 235.41,101.86 236.12,82.81 236.82,97.90 237.54,97.34 238.25,85.38 238.95,84.52 239.67,99.89 240.37,99.70 241.08,87.63 241.80,107.78 242.50,89.54 243.21,103.09 243.91,112.22 244.63,88.30 245.34,88.13 246.04,100.03 246.76,100.94 247.46,82.66 248.17,98.91 248.88,103.08 249.59,103.87 250.30,85.22 251.01,102.66 251.72,89.11 252.43,76.69 253.13,109.23 253.85,86.85 254.56,106.59 255.26,106.82 255.97,96.52 256.68,92.92 257.39,95.54 258.10,97.39 258.81,80.41 259.52,87.93 260.23,95.31 260.93,87.58 261.65,69.77 262.35,100.42 263.06,103.55 263.78,83.96 264.48,106.35 265.19,91.38 265.90,100.31 266.61,110.36 267.32,87.23 268.02,98.44 268.74,99.88 269.44,101.67 270.15,78.81 270.87,88.55 271.57,96.60 272.28,99.42 272.99,84.30 273.70,106.21 274.41,90.69 275.11,101.30 275.83,104.55 276.54,95.32 277.24,79.48 277.96,94.45 278.66,105.76 279.37,103.50 280.08,79.19 280.79,101.73 281.50,86.59 282.21,100.81 282.92,103.19 283.63,101.88 284.33,82.36 285.04,82.48 285.76,96.30 286.46,94.81 287.17,76.96 287.88,100.26 288.59,99.77 289.30,86.48 290.01,105.90 290.72,88.80 291.42,98.59 292.13,110.65 292.85,91.94 293.55,95.77 294.26,101.51 294.97,98.83 295.68,83.51 296.39,98.23 297.09,97.84 297.81,92.14 298.52,82.53 299.22,96.04 299.94,101.39 300.64,80.50 301.35,102.51 302.07,93.14 302.77,91.84 303.48,110.83 304.19,87.20 304.90,97.96 305.61,108.78 306.31,92.56 307.03,88.00 307.74,100.21 308.44,97.43 309.16,85.25 309.86,99.65 310.57,97.07 311.28,89.40 311.99,85.63 312.70,96.79 313.40,98.64 314.12,76.37 314.83,98.97 315.53,97.45 316.24,81.16 316.95,103.37 317.66,96.07 318.37,88.36 319.08,105.81 319.79,92.13 320.50,89.35 321.21,107.65 321.92,93.98 322.62,90.70 323.33,102.07 324.05,96.31 324.75,87.10 325.46,99.37 326.17,96.61 326.88,93.37 327.59,89.99 328.29,96.75 329.01,96.22 329.72,80.94 330.42,97.74 331.14,98.22 331.84,80.22 332.55,99.92 333.27,97.60 333.97,84.50 334.68,102.65 335.38,94.88 336.10,87.11 336.81,102.40 337.51,92.25 338.23,87.85 338.93,101.65 339.64,94.35 340.35,90.60 341.06,100.71 341.77,97.20 342.48,95.46 343.19,97.93 343.90,97.97 344.60,95.68 345.32,92.63 346.03,97.52 346.73,96.15 347.44,89.89 348.15,98.81 348.86,99.07 349.57,89.59 350.28,85.20 350.99,96.71 351.70,93.70 352.40,87.57 353.12,99.50 353.82,95.77 354.53,92.88 355.25,102.33 355.95,95.22 356.66,94.22 357.37,97.48 358.08,99.98 358.79,96.65 359.49,90.08 360.21,97.11 360.92,99.98 361.62,88.49 362.34,83.58 363.04,98.10 363.75,94.53 364.46,100.58 365.17,99.82 365.88,94.71 366.58,89.09 367.30,96.29 368.01,99.97 368.71,99.79 369.43,93.35 370.13,97.95 370.84,97.17 371.55,89.66 372.26,84.26 372.97,98.43 373.68,93.61 374.39,96.51 375.10,99.96 375.80,96.35 376.51,91.51 377.23,98.68 377.93,100.09 378.64,100.05 379.35,93.86 380.06,97.79 380.77,95.15 381.48,85.93 382.19,91.44 382.90,100.29 383.60,94.62 384.32,93.72 385.02,97.75 385.73,97.07 386.45,92.08 387.15,100.89 387.86,100.19 388.56,98.92 389.28,92.82 389.99,102.78 390.69,94.79 391.41,87.94 392.11,90.30 392.82,98.82 393.54,89.68 394.24,82.95 394.95,98.93 395.66,90.40 396.37,97.04 397.08,99.81 397.78,98.63 398.50,93.10 399.21,93.71 399.91,102.42 400.62,93.80 401.33,90.19 402.04,98.12 402.75,99.17 403.46,90.80 404.17,80.59 404.88,100.34 405.59,92.83 406.30,100.25 407.00,100.79 407.71,98.29 408.43,93.88 409.13,91.95 409.84,101.22 410.55,92.52 411.26,90.91 411.97,98.89 412.68,97.31 413.39,89.20 414.09,85.42 414.80,98.95 415.52,94.82 416.22,97.08 416.93,100.46 417.64,95.91 418.35,92.06 419.06,94.88 419.76,95.18 420.48,98.33 421.19,92.50 421.89,106.81 422.61,95.04 423.31,87.31 424.02,94.89 424.74,100.63 425.44,88.76 426.15,86.53 426.86,100.34 427.57,96.03 428.28,98.51 428.98,101.78 429.70,99.63 430.41,93.67 431.11,89.21 431.82,102.85 432.53,92.27 433.24,90.11 433.95,98.30 434.66,98.34 435.37,93.02 436.07,78.12 436.79,103.32 437.50,97.57 438.20,95.21 438.91,96.87 439.62,96.45 440.33,95.93 441.04,92.71 441.75,99.74 442.46,97.65 443.17,90.53 443.87,83.29 444.59,98.60 445.29,99.27 446.00,93.83 446.72,91.09 447.42,96.85 448.13,100.74 448.84,88.92 449.55,88.54 450.26,98.29 450.96,94.88 451.68,87.32 452.39,102.02 453.09,96.78 453.81,92.29 454.51,89.07 455.22,103.26 455.93,97.20 456.64,88.19 457.35,94.76 458.05,104.33 458.77,97.75 459.48,87.50 460.18,93.70 460.90,104.85 461.60,97.96 462.31,88.30 463.02,93.74 463.73,99.18 464.44,91.72 465.15,91.33 465.86,98.12 466.57,98.07 467.27,91.98 467.98,88.95 468.70,97.61 469.40,99.48 470.11,92.84 470.82,83.84 471.53,95.47 472.24,101.61 472.95,91.79 473.66,92.22 474.37,98.61 475.07,97.39 475.79,83.55 476.49,87.31 477.20,102.31 477.92,96.18 478.62,86.97 479.33,101.73 480.03,100.89 480.75,93.54 481.46,88.35 482.16,99.68 482.88,100.08 483.58,96.72 484.29,89.95 485.01,98.57 485.71,98.90 486.42,93.23 487.13,96.11 487.84,95.05 488.55,95.24 489.25,82.57 489.97,98.82 490.68,100.52 491.38,95.08 492.09,88.20 492.80,100.03 493.51,100.13 494.22,95.18 494.93,91.15 495.64,93.99 496.35,97.69 497.06,89.02 497.77,94.72 498.47,101.00 499.18,93.58 499.90,79.54 500.60,100.38 501.31,101.59 502.02,94.56 502.73,89.38 503.44,98.10 504.14,100.25 504.86,96.13 505.56,88.06 506.27,100.51 506.99,100.14 507.69,95.35 508.40,92.17 509.12,101.90 509.82,97.03 510.53,83.01 511.23,93.04 511.95,98.07 512.66,91.90 513.36,82.61 514.08,100.78 514.78,101.73 515.49,96.43 516.20,84.14 516.91,99.43 517.62,102.43 518.33,97.16 519.04,88.95 519.75,100.90 520.45,97.63 521.17,97.25 521.88,95.79 522.58,100.32 523.29,95.31 524.00,87.76 524.71,97.31 525.42,98.93 526.13,92.86 526.84,81.44 527.54,101.11 528.26,96.59 528.97,95.02 529.67,84.31 530.38,102.35 531.10,95.68 531.80,95.53 532.51,91.85 533.22,102.33 533.93,98.61 534.64,86.49 535.34,94.19 536.06,101.91 536.76,97.28 537.47,83.33 538.19,95.99 538.89,99.91 539.60,92.11 540.31,82.32 541.02,98.94 541.73,97.71 542.43,91.03 543.15,89.03 543.86,99.14 544.56,100.49 545.28,91.92 545.98,95.38 546.69,99.79 547.40,99.16 548.11,104.14 548.82,97.62 549.53,100.95 550.24,96.97 550.95,85.40 551.65,97.77 552.37,102.10 553.08,89.76 553.78,85.48 554.49,99.25 555.20,95.74 555.91,87.22 556.62,81.11 557.33,96.51 558.04,96.23 558.74,85.36 559.45,86.44 560.17,98.96 560.87,97.01 561.58,94.90 562.29,96.36 563.00,100.90 563.71,100.38 564.42,103.30 565.13,98.57 565.84,103.45 566.54,100.30 567.26,83.15 567.96,96.37 568.67,100.71 569.39,93.86 570.09,70.93 570.80,99.02 571.51,97.78 572.22,87.91 572.93,85.45 573.63,98.64 574.35,96.19 575.06,87.68 575.76,87.18 576.48,100.35 577.18,100.53 577.89,92.16 578.60,97.56 579.31,101.81 580.02,99.81 580.72,107.63 581.44,97.35 582.15,103.64 582.85,100.76 583.56,107.77 584.27,101.07 584.98,105.41 585.69,88.34 586.40,80.30 587.11,100.01 587.82,95.05 588.53,80.35 589.24,95.11 589.94,105.18 590.65,101.09 591.37,102.44 592.07,97.64 592.78,102.31 593.49,98.92 594.20,90.25 594.91,100.25 595.61,92.75 596.33,74.76 597.04,93.83 597.74,104.22 598.46,97.80 599.16,108.97 599.87,94.71 600.59,101.45 601.29,80.33 602.00,61.34 602.70,102.63 603.42,91.82 604.13,95.74 604.83,100.71 605.55,104.04 606.25,107.67 606.96,68.31 607.67,99.58 608.38,91.33 609.09,90.98 609.80,107.48 610.51,110.77 611.22,109.56 611.92,85.39 612.64,101.10 613.35,85.48 614.05,96.41 614.76,108.10 615.47,112.45 616.18,81.82 616.89,66.15 617.60,99.24 618.31,94.62 619.02,97.76 619.72,102.73 620.44,98.94 621.14,90.78 621.85,75.11 622.57,97.29 623.27,89.70 623.98,105.59 624.69,104.75 625.40,110.12 626.11,78.17 626.81,55.88 627.53,97.84 628.23,102.61 628.94,107.55 629.66,104.28 630.36,95.11 631.07,75.71 631.78,94.64 632.49,102.64 633.20,86.92 633.90,103.33 634.62,96.67 635.33,102.68 636.03,84.56 636.75,60.40 637.45,98.53 638.16,105.39 638.87,111.41 639.58,103.37 640.29,94.21 641.00,73.69 641.71,89.75 642.42,107.56 643.12,105.20 643.84,111.66 644.55,100.84 645.25,92.52 645.96,85.64 646.67,84.24 647.38,98.04 648.09,98.23 648.80,114.37 649.51,105.27 650.21,90.03 650.92,84.28 651.64,94.73 652.34,109.28 653.05,109.24 653.76,76.59 654.47,98.21 655.18,90.84 655.89,89.86 656.60,107.84 657.31,109.23 658.01,84.14 658.73,72.69 659.43,101.88 660.14,99.71 660.86,107.70 661.56,105.30 662.27,90.91 662.98,73.47 663.69,95.61 664.40,109.36 665.10,108.56 665.82,70.76 666.53,97.49 667.23,86.38 667.95,103.47 668.65,105.84 669.36,111.05 670.07,77.96 670.78,54.50 671.49,100.54 672.19,106.35 672.91,111.41 673.62,101.20 674.32,93.77 675.03,71.99 675.74,95.97 676.45,110.80 677.16,103.51 677.87,77.16 678.58,97.20 679.29,89.46 680.00,96.42 680.71,104.40 681.41,101.94 682.12,81.01 682.84,99.56 683.54,103.58 684.25,94.91 684.96,92.27 685.67,94.19 686.38,96.97 687.08,97.77 687.80,87.03 688.51,99.83 689.21,89.35 689.93,103.20 690.63,97.48 691.34,107.15 692.06,84.11 692.76,59.61 693.47,101.26 694.17,105.39 694.89,115.94 695.60,104.85 696.30,88.95 697.02,72.66 697.73,91.67 698.43,108.47 699.14,91.76 699.85,76.86 700.56,102.32 701.27,83.47 701.98,103.06 702.69,100.43 703.39,92.74 704.11,95.82 704.82,106.17 705.52,104.39 706.23,72.61 706.94,74.88 707.65,107.24 708.36,103.33 709.07,105.48 709.78,108.88 710.49,88.59 711.19,65.31 711.91,95.88 712.61,111.66 713.32,87.59 714.04,61.92 714.74,101.48 715.45,100.42 716.16,102.70 716.87,106.09 717.58,89.75 718.28,93.66 719.00,101.11 719.71,94.63 720.41,76.01 721.13,101.02 721.83,106.26 722.54,90.02 723.25,77.12 723.96,95.15 724.67,92.53 725.37,92.70 726.09,106.79 726.80,106.77 727.50,76.06 728.22,61.73 728.92,101.54 729.63,106.15 730.34,112.60 731.05,109.24 731.76,89.54 732.47,66.17 733.18,97.85 733.89,115.48 734.59,101.42 735.30,70.96 736.02,95.30 736.72,92.00 737.43,95.37 738.14,98.22 738.85,103.23 739.56,85.87 740.27,98.65 740.98,102.28 741.69,91.71 742.39,101.22 743.11,104.46 743.81,94.48 744.52,80.68 745.24,77.37 745.94,107.04 746.65,94.43 747.36,84.74 748.07,96.94 748.78,91.13 749.48,95.86 750.20,106.09 750.90,107.88 751.61,89.20 752.33,69.00 753.03,97.41 753.74,101.31 754.45,103.36 755.16,106.81 755.87,91.67 756.57,96.81 757.29,101.15 758.00,92.15 758.70,74.96 759.42,95.56 760.12,111.66 760.83,104.66 761.54,75.51 762.25,94.48 762.96,85.35 763.67,101.70 764.38,105.50 765.09,111.57 765.79,77.89 766.50,58.31 767.22,93.73 767.92,105.77 768.63,116.82 769.34,104.48 770.05,88.97 770.76,77.37 771.47,91.88 772.18,109.52 772.88,113.60 773.59,81.10 774.31,91.78 775.01,89.94 775.72,101.55 776.43,106.90 777.14,111.12 777.85,78.46 778.55,69.32 779.27,104.08 779.98,101.33 780.68,102.42 781.40,103.90 782.10,92.18 782.81,76.99 783.53,96.41 784.23,109.20 784.94,88.63 785.65,93.57 786.36,97.13 787.07,95.68 787.77,92.24 788.49,73.93 789.20,97.09 789.90,88.66 790.61,118.01 791.32,106.72 792.03,87.08 792.74,87.72 793.45,95.44 794.16,96.84 794.86,106.07 795.58,89.08 796.29,101.07 796.99,81.50 797.70,97.13 798.41,101.10 799.12,105.41 799.83,87.42 800.54,59.11 801.25,93.78 801.96,99.34 802.66,119.77 803.38,103.19 804.08,90.17 804.79,76.92 805.51,91.94 806.21,105.70 806.92,114.62 807.63,76.57 808.34,94.81 809.05,88.57 809.75,102.05 810.47,104.11 811.18,109.61 811.88,84.09 812.60,57.40 813.30,93.70 814.01,100.02 814.72,120.23 815.43,104.03 816.14,88.43 816.84,78.60 817.56,90.75 818.27,99.12 818.97,105.31 819.69,84.56 820.39,98.96 821.10,80.89 821.81,84.95 822.52,98.17 823.23,98.36 823.94,90.61 824.65,69.61 825.36,92.75 826.06,81.74 826.77,104.62 827.49,105.54 828.19,95.72 828.90,90.94 829.61,99.36 830.32,90.01 831.03,76.86 831.74,101.59 832.45,111.42 833.16,90.11 833.86,68.30 834.58,95.51 835.28,92.77 835.99,99.70 836.71,108.29 837.41,108.45 838.12,75.88 838.82,66.00 839.54,104.70 840.25,108.16 840.95,109.94 841.67,105.56 842.37,88.80 843.08,70.48 843.80,91.27 844.50,114.43 845.21,118.75 845.92,75.28 846.63,94.90 847.34,83.19 848.04,104.63 848.76,100.03 849.47,106.02 850.17,91.84 850.89,81.47 851.59,93.84 852.30,79.99 853.01,96.81 853.72,109.21 854.43,102.47 855.14,99.32 855.85,101.13 856.56,89.56 857.26,70.35 857.97,97.30 858.69,113.79 859.39,99.73 860.10,68.74 860.81,95.99 861.52,90.56 862.23,100.29 862.94,107.20 863.65,111.75 864.35,77.83 865.06,57.94 865.78,99.22 866.48,107.32 867.19,114.31 867.91,106.83 868.61,89.23 869.32,75.00 870.02,92.88 870.74,106.03 871.45,114.94 872.15,87.38 872.87,96.74 873.57,84.21 874.28,101.31 875.00,100.87 875.70,102.09 876.41,90.08 877.12,84.42 877.83,94.77 878.54,86.69 879.24,110.73 879.96,108.03 880.67,94.24 881.37,91.89 882.08,102.86 882.79,91.73 883.50,84.65 884.21,99.43 884.92,107.15 885.63,83.99 886.34,81.64 887.05,98.04 887.76,96.07 888.46,90.38 889.17,86.90 889.89,100.36 890.59,83.68 891.30,108.70 892.01,105.95 892.72,90.34 893.43,89.43 894.13,99.23 894.85,98.82 895.55,108.06 896.26,75.61 896.98,97.67 897.68,93.29 898.39,102.75 899.10,103.17 899.81,108.52 900.52,79.45 901.22,86.09 901.94,106.40 902.65,91.67 903.35,95.94 904.07,101.68 904.77,101.32 905.48,104.85 906.19,75.57 906.90,96.85 907.61,93.05 908.32,105.37 909.03,102.51 909.74,104.92 910.44,83.96 911.16,64.24 911.87,101.19 912.57,102.01 913.28,106.59 913.99,102.35 914.70,93.76 915.41,81.60 916.12,90.12 916.83,103.13 917.53,93.13 918.24,100.31 918.96,100.23 919.66,101.97 920.37,87.81 921.08,75.20 921.79,102.45 922.50,101.88 923.21,96.32 923.92,100.53 924.63,95.52 925.33,88.11 926.05,87.41 926.75,101.26 927.46,90.97 928.18,104.16 928.88,99.21 929.59,103.74 930.30,87.56 931.01,76.12 931.72,104.34 932.42,101.77 933.14,97.55 933.85,100.58 934.55,97.31 935.27,91.01 935.97,90.85 936.68,102.29 937.39,89.75 938.10,101.76 938.81,100.09 939.51,102.42 940.23,86.36 940.94,71.19 941.64,102.56 942.35,100.85 943.06,99.01 943.77,101.67 944.48,94.76 945.19,90.92 945.90,87.06 946.61,101.92 947.32,92.27 948.03,103.84 948.73,101.76 949.44,101.20 950.16,83.54 950.86,59.70 951.57,99.46 952.28,104.09 952.99,113.94 953.70,102.93 954.40,92.62 955.12,76.30 955.83,94.12 956.53,107.27 957.25,113.04 957.95,74.97 958.66,96.83 959.38,85.69 960.08,106.98 960.79,100.38 961.49,100.74 962.21,88.92 962.92,83.24 963.62,97.00 964.34,89.80 965.04,98.38 965.75,105.07 966.47,93.44 967.17,99.33 967.88,104.83 968.59,91.31 969.30,75.63 970.01,94.84 970.71,112.25 971.43,100.86 972.14,75.10 972.84,96.66 973.55,94.75 974.26,94.66 974.97,96.37 975.68,105.73 976.39,90.99 977.10,102.10 977.81,101.04 978.52,92.61 979.23,87.67 979.93,97.10 980.64,101.30 981.36,99.60 982.06,92.44 982.77,97.22 983.48,94.31 984.19,90.12 984.90,78.92 985.60,100.72 986.32,98.14 987.02,105.98 987.73,102.10 988.45,90.49 989.15,82.00 989.86,85.22 990.57,104.24 991.28,105.10 991.99,108.37 992.69,102.34 993.41,89.10 994.12,83.57 994.82,90.09 995.54,105.42 996.24,105.38 996.95,107.50 997.66,103.91 998.37,91.70 999.08,88.76 999.79,96.68 1000.50,104.22 1001.21,106.13 1001.91,88.27 1002.63,98.69 1003.34,90.46 1004.04,103.78 1004.75,100.55 1005.46,100.86 1006.17,92.65 1006.88,79.57 1007.59,99.17 1008.30,101.68 1009.00,100.11 1009.71,98.18 1010.43,92.68 1011.13,96.70 1011.84,97.31 1012.55,104.00 1013.26,92.75 1013.97,76.37 1014.68,99.70 1015.39,87.15 1016.10,98.51 1016.80,100.36 1017.52,99.39 1018.22,86.30 1018.93,72.32 1019.65,93.85 1020.35,92.52 1021.06,103.46 1021.77,100.92 1022.48,89.76 1023.19,92.66 1023.89,101.83 1024.61,93.53 1025.32,87.24 1026.02,80.40 1026.74,102.97 1027.44,93.77 1028.15,81.64 1028.86,98.20 1029.57,93.85 1030.28,85.69 1030.98,93.30 1031.70,105.79 1032.41,102.61 1033.11,88.15 1033.82,95.12 1034.54,91.56 1035.24,90.91 1035.95,98.40 1036.66,104.19 1037.37,98.05 1038.08,98.29 1038.79,97.51 1039.50,90.47 1040.20,92.73 1040.91,97.69 1041.63,104.89 1042.33,100.47 1043.04,91.72 1043.75,96.50 1044.46,91.33 1045.17,95.38 1045.87,100.22 1046.59,101.81 1047.30,88.44 1048.00,79.02 1048.72,99.58 1049.42,98.45 1050.13,99.74 1050.85,99.07 1051.55,91.87 1052.26,98.32 1052.97,99.92 1053.68,94.25 1054.39,93.15 1055.09,98.66 1055.81,96.36 1056.52,93.04 1057.22,89.70 1057.93,97.17 1058.64,101.98 1059.35,96.27 1060.06,95.09 1060.77,96.61 1061.48,91.98 1062.18,93.09 1062.90,97.34 1063.61,96.99 1064.31,94.72 1065.02,95.04 1065.73,95.59 1066.44,95.15 1067.15,94.33 1067.86,94.74 1068.57,96.48 1069.28,94.52 1069.99,95.00" fill="none" stroke="#444" stroke-width="1.0" />
<polyline points="78.00,331.50 86.58,336.40 88.02,336.40 89.45,331.50 92.31,331.50 93.74,328.97 95.17,328.97 96.60,328.97 98.03,328.97 99.46,331.50 100.89,336.40 102.32,336.40 103.75,328.97 105.18,328.97 106.62,328.97 108.05,328.97 109.48,328.97 110.91,328.97 112.34,326.39 113.77,328.97 115.20,328.97 116.63,328.97 118.06,328.97 119.49,328.97 120.92,328.97 122.35,328.97 123.78,328.97 125.22,328.97 126.65,326.39 128.08,328.97 129.51,328.97 130.94,328.97 132.37,328.97 133.80,328.97 135.23,326.39 136.66,326.39 138.09,326.39 139.52,326.39 140.95,326.39 142.38,326.39 143.81,326.39 145.25,326.39 146.68,326.39 148.11,328.97 149.54,328.97 150.97,328.97 152.40,328.97 153.83,328.97 155.26,328.97 156.69,328.97 158.12,328.97 159.55,328.97 160.98,328.97 162.41,328.97 163.85,328.97 165.28,328.97 166.71,328.97 168.14,328.97 169.57,328.97 171.00,328.97 172.43,328.97 173.86,328.97 175.29,328.97 176.72,328.97 178.15,328.97 179.58,328.97 182.45,190.00 183.88,190.00 185.31,190.00 186.74,190.00 188.17,190.00 189.60,190.00 191.03,247.07 192.46,247.07 193.89,247.07 195.32,247.07 196.75,247.07 198.18,247.07 199.61,247.07 201.05,247.07 202.48,247.07 203.91,247.07 205.34,247.07 206.77,247.07 208.20,247.07 209.63,247.07 211.06,247.07 212.49,247.07 213.92,247.07 215.35,247.07 216.78,247.07 218.21,242.90 219.65,242.90 221.08,242.90 222.51,242.90 223.94,242.90 225.37,242.90 226.80,242.90 228.23,242.90 229.66,242.90 231.09,242.90 232.52,242.90 233.95,242.90 235.38,242.90 236.81,242.90 238.25,242.90 239.68,242.90 241.11,242.90 242.54,242.90 243.97,242.90 245.40,242.90 246.83,242.90 248.26,242.90 249.69,242.90 251.12,242.90 252.55,242.90 253.98,242.90 255.41,242.90 256.85,242.90 258.28,242.90 259.71,242.90 261.14,242.90 262.57,242.90 264.00,242.90 265.43,242.90 266.86,242.90 268.29,242.90 269.72,242.90 271.15,242.90 272.58,242.90 274.01,242.90 275.44,242.90 276.88,238.65 278.31,238.65 279.74,238.65 281.17,238.65 282.60,238.65 284.03,238.65 285.46,242.90 286.89,242.90 288.32,242.90 289.75,242.90 291.18,242.90 292.61,242.90 294.04,242.90 295.48,242.90 296.91,242.90 298.34,242.90 299.77,242.90 301.20,242.90 302.63,242.90 304.06,242.90 305.49,242.90 306.92,242.90 308.35,242.90 309.78,242.90 311.21,242.90 312.64,242.90 314.08,242.90 315.51,242.90 316.94,242.90 318.37,242.90 319.80,242.90 321.23,242.90 322.66,242.90 324.09,242.90 325.52,242.90 326.95,242.90 328.38,242.90 329.81,242.90 331.24,242.90 332.68,242.90 334.11,242.90 335.54,242.90 336.97,242.90 338.40,242.90 339.83,242.90 341.26,242.90 342.69,242.90 344.12,242.90 345.55,350.05 346.98,350.05 348.41,350.05 349.84,350.05 351.28,350.05 352.71,350.05 354.14,350.05 355.57,350.05 357.00,350.05 358.43,347.88 359.86,347.88 361.29,347.88 362.72,347.88 364.15,347.88 365.58,347.88 367.01,347.88 368.44,347.88 369.88,347.88 371.31,347.88 372.74,347.88 374.17,347.88 375.60,347.88 377.03,347.88 378.46,347.88 379.89,347.88 381.32,347.88 382.75,347.88 384.18,347.88 385.61,347.88 387.04,347.88 388.48,347.88 389.91,347.88 391.34,347.88 392.77,347.88 394.20,347.88 395.63,347.88 397.06,347.88 398.49,347.88 399.92,347.88 401.35,347.88 402.78,347.88 404.21,347.88 405.64,347.88 407.07,347.88 408.51,347.88 409.94,347.88 411.37,347.88 412.80,347.88 414.23,347.88 415.66,347.88 417.09,347.88 418.52,347.88 419.95,347.88 421.38,347.88 422.81,347.88 424.24,347.88 425.67,347.88 427.11,347.88 428.54,347.88 429.97,347.88 431.40,347.88 432.83,347.88 434.26,347.88 435.69,347.88 437.12,345.67 438.55,345.67 439.98,345.67 441.41,345.67 442.84,345.67 444.27,345.67 445.71,345.67 447.14,345.67 448.57,345.67 450.00,345.67 451.43,345.67 452.86,343.42 454.29,343.42 455.72,343.42 457.15,343.42 458.58,343.42 460.01,343.42 461.44,343.42 462.87,343.42 464.31,343.42 465.74,343.42 467.17,343.42 468.60,343.42 470.03,343.42 471.46,343.42 472.89,343.42 474.32,343.42 475.75,343.42 477.18,343.42 478.61,345.67 480.04,345.67 481.47,345.67 482.91,345.67 484.34,345.67 485.77,345.67 487.20,345.67 488.63,345.67 490.06,345.67 491.49,345.67 492.92,345.67 494.35,345.67 495.78,345.67 497.21,345.67 498.64,345.67 500.07,343.42 501.51,343.42 502.94,229.91 504.37,229.91 505.80,229.91 507.23,229.91 508.66,229.91 510.09,229.91 511.52,229.91 512.95,229.91 514.38,229.91 515.81,229.91 517.24,229.91 518.67,229.91 520.11,229.91 521.54,225.40 522.97,229.91 524.40,229.91 525.83,229.91 527.26,225.40 528.69,225.40 530.12,225.40 531.55,225.40 532.98,225.40 534.41,225.40 535.84,225.40 537.27,225.40 538.70,225.40 540.14,225.40 541.57,225.40 543.00,225.40 544.43,225.40 545.86,225.40 547.29,225.40 548.72,300.84 550.15,343.42 551.58,300.84 553.01,300.84 554.44,225.40 555.87,225.40 557.30,225.40 558.74,225.40 560.17,225.40 561.60,225.40 563.03,225.40 564.46,225.40 565.89,225.40 567.32,225.40 568.75,225.40 570.18,225.40 571.61,225.40 573.04,225.40 574.47,225.40 575.90,225.40 577.34,225.40 578.77,225.40 580.20,225.40 581.63,225.40 583.06,225.40 584.49,225.40 585.92,225.40 587.35,229.91 588.78,229.91 590.21,229.91 591.64,229.91 593.07,229.91 594.50,229.91 595.94,229.91 597.37,229.91 598.80,229.91 600.23,229.91 601.66,229.91 603.09,229.91 604.52,229.91 605.95,345.67 607.38,229.91 608.81,234.32 610.24,234.32 611.67,234.32 613.10,234.32 614.54,234.32 615.97,234.32 617.40,234.32 618.83,234.32 620.26,234.32 621.69,345.67 623.12,345.67 624.55,345.67 625.98,345.67 627.41,345.67 628.84,345.67 630.27,345.67 631.70,345.67 633.14,345.67 634.57,345.67 636.00,345.67 637.43,345.67 638.86,345.67 640.29,345.67 641.72,345.67 643.15,345.67 644.58,345.67 646.01,345.67 647.44,345.67 648.87,345.67 650.30,345.67 651.73,347.88 653.17,347.88 654.60,347.88 656.03,347.88 657.46,347.88 658.89,347.88 660.32,347.88 661.75,347.88 663.18,347.88 664.61,347.88 666.04,347.88 667.47,347.88 668.90,347.88 670.33,347.88 671.77,347.88 673.20,347.88 674.63,234.32 676.06,347.88 677.49,347.88 678.92,347.88 680.35,347.88 681.78,347.88 683.21,347.88 684.64,347.88 686.07,347.88 687.50,347.88 688.93,347.88 690.37,347.88 691.80,347.88 693.23,347.88 694.66,347.88 696.09,347.88 697.52,347.88 698.95,238.65 700.38,350.05 701.81,238.65 703.24,238.65 704.67,238.65 706.10,238.65 707.53,238.65 708.97,190.00 710.40,190.00 711.83,190.00 713.26,238.65 714.69,238.65 716.12,238.65 717.55,238.65 718.98,238.65 720.41,238.65 721.84,238.65 723.27,238.65 724.70,238.65 726.13,238.65 727.57,238.65 729.00,238.65 730.43,238.65 731.86,238.65 733.29,238.65 734.72,234.32 736.15,234.32 737.58,234.32 739.01,234.32 740.44,234.32 741.87,234.32 743.30,238.65 744.73,238.65 746.17,238.65 747.60,238.65 749.03,238.65 750.46,238.65 751.89,238.65 753.32,238.65 754.75,238.65 756.18,238.65 757.61,238.65 759.04,238.65 760.47,238.65 761.90,238.65 763.33,238.65 764.77,238.65 766.20,238.65 767.63,238.65 769.06,238.65 770.49,238.65 771.92,238.65 773.35,238.65 774.78,238.65 776.21,238.65 777.64,238.65 779.07,238.65 780.50,234.32 781.93,234.32 783.36,234.32 784.80,234.32 786.23,234.32 787.66,234.32 789.09,234.32 790.52,234.32 791.95,234.32 793.38,234.32 794.81,234.32 796.24,234.32 797.67,234.32 799.10,234.32 800.53,234.32 801.96,238.65 803.40,238.65 804.83,238.65 806.26,234.32 807.69,238.65 809.12,238.65 810.55,238.65 811.98,234.32 813.41,238.65 814.84,238.65 816.27,238.65 817.70,238.65 819.13,238.65 820.56,238.65 822.00,238.65 823.43,238.65 824.86,238.65 826.29,238.65 827.72,238.65 829.15,238.65 830.58,238.65 832.01,238.65 833.44,238.65 834.87,238.65 836.30,238.65 837.73,238.65 839.16,238.65 840.60,238.65 842.03,238.65 843.46,238.65 844.89,238.65 846.32,238.65 847.75,238.65 849.18,238.65 850.61,238.65 852.04,238.65 853.47,238.65 854.90,238.65 856.33,238.65 857.76,238.65 859.20,238.65 860.63,238.65 862.06,238.65 863.49,238.65 864.92,238.65 866.35,238.65 867.78,238.65 869.21,238.65 870.64,238.65 872.07,238.65 873.50,238.65 874.93,238.65 876.36,238.65 877.80,238.65 879.23,238.65 880.66,238.65 882.09,238.65 883.52,238.65 884.95,238.65 886.38,238.65 887.81,238.65 889.24,238.65 890.67,234.32 892.10,234.32 893.53,234.32 894.96,347.88 896.40,347.88 897.83,347.88 899.26,347.88 900.69,347.88 902.12,347.88 903.55,347.88 904.98,347.88 906.41,234.32 907.84,234.32 909.27,347.88 910.70,347.88 912.13,234.32 913.56,234.32 914.99,347.88 916.43,347.88 917.86,347.88 919.29,347.88 920.72,347.88 922.15,347.88 923.58,347.88 925.01,347.88 926.44,347.88 927.87,345.67 929.30,345.67 930.73,345.67 932.16,345.67 933.59,345.67 935.03,347.88 936.46,347.88 937.89,347.88 939.32,347.88 940.75,347.88 942.18,347.88 943.61,347.88 945.04,347.88 946.47,347.88 947.90,347.88 949.33,347.88 950.76,347.88 952.19,234.32 953.63,234.32 955.06,234.32 956.49,234.32 957.92,234.32 959.35,238.65 960.78,238.65 962.21,238.65 963.64,238.65 965.07,238.65 966.50,238.65 967.93,238.65 969.36,238.65 970.79,234.32 972.23,234.32 973.66,234.32 975.09,234.32 976.52,234.32 977.95,347.88 979.38,347.88 980.81,347.88 982.24,347.88 983.67,347.88 985.10,347.88 986.53,347.88 987.96,347.88 989.39,234.32 990.83,234.32 992.26,347.88 993.69,234.32 995.12,347.88 996.55,347.88 997.98,347.88 999.41,347.88 1000.84,347.88 1002.27,347.88 1003.70,347.88 1005.13,347.88 1006.56,347.88 1007.99,347.88 1009.43,347.88 1010.86,234.32 1012.29,234.32 1013.72,238.65 1015.15,238.65 1016.58,238.65 1018.01,238.65 1019.44,238.65 1020.87,238.65 1022.30,238.65 1023.73,238.65 1025.16,238.65 1026.59,238.65 1028.03,234.32 1029.46,234.32 1030.89,234.32 1032.32,234.32 1033.75,347.88 1035.18,234.32 1036.61,234.32 1038.04,234.32 1039.47,234.32 1040.90,234.32 1042.33,234.32 1043.76,234.32 1045.19,234.32 1046.62,238.65 1048.06,238.65 1049.49,238.65 1050.92,238.65 1052.35,238.65 1053.78,238.65 1055.21,238.65 1056.64,238.65 1058.07,238.65 1059.50,238.65 1060.93,238.65 1062.36,234.32 1063.79,234.32 1065.22,229.91 1066.66,229.91 1068.09,229.91 1069.52,229.91" fill="none" stroke="#2563eb" stroke-width="1.5" />
<polyline points="130.94,395.00 132.37,394.18 133.80,394.56 135.23,394.56 136.66,394.18 138.09,395.00 139.52,394.18 140.95,393.79 142.38,393.79 143.81,393.79 145.25,393.79 146.68,393.39 148.11,391.80 153.83,376.20 155.26,375.71 156.69,376.69 158.12,376.20 159.55,375.71 160.98,375.21 162.41,372.68 163.85,364.65 165.28,365.21 166.71,366.31 168.14,367.95 169.57,367.41 171.00,366.86 172.43,365.21 173.86,366.31 201.05,353.42 202.48,352.80 203.91,352.80 205.34,352.80 206.77,352.80 208.20,352.80 209.63,352.17 211.06,352.17 212.49,352.17 213.92,352.17 215.35,352.17 216.78,352.17 218.21,352.17 219.65,352.17 221.08,352.17 222.51,352.17 223.94,352.17 225.37,352.80 226.80,352.80 228.23,352.80 229.66,352.80 231.09,352.80 232.52,352.80 233.95,352.17 235.38,352.17 236.81,352.17 238.25,352.17 239.68,352.17 241.11,352.17 242.54,352.17 243.97,352.17 245.40,351.54 246.83,351.54 248.26,351.54 249.69,351.54 251.12,352.17 252.55,352.17 253.98,352.17 255.41,352.17 256.85,352.17 258.28,352.17 259.71,352.17 261.14,352.17 262.57,352.17 264.00,352.17 265.43,351.54 266.86,351.54 268.29,351.54 269.72,350.90 271.15,350.90 272.58,350.26 274.01,350.26 275.44,350.26 276.88,350.26 278.31,350.26 279.74,350.26 281.17,350.26 282.60,350.26 284.03,350.90 285.46,350.90 286.89,350.90 288.32,351.54 289.75,351.54 291.18,352.17 292.61,352.17 294.04,352.17 295.48,352.17 296.91,352.17 298.34,352.17 299.77,352.17 301.20,352.17 302.63,352.80 304.06,352.80 305.49,352.80 306.92,352.80 308.35,352.80 309.78,352.80 311.21,352.80 312.64,352.80 314.08,352.80 315.51,352.80 316.94,352.80 318.37,352.80 319.80,352.80 321.23,352.80 322.66,352.80 324.09,353.42 325.52,353.42 326.95,353.42 328.38,353.42 329.81,353.42 331.24,353.42 332.68,353.42 334.11,353.42 335.54,353.42 336.97,353.42 338.40,353.42 339.83,352.80 341.26,352.80 342.69,352.80 344.12,352.17 345.55,351.54 346.98,350.26 348.41,349.62 349.84,349.62 351.28,349.62 352.71,349.62 354.14,348.97 355.57,348.97 357.00,348.32 358.43,348.97 359.86,348.97 361.29,348.32 362.72,348.32 364.15,348.32 365.58,348.32 367.01,348.32 368.44,348.32 369.88,348.32 371.31,348.32 372.74,348.32 374.17,348.32 375.60,348.32 377.03,347.66 378.46,348.32 379.89,348.32 381.32,348.32 382.75,348.32 384.18,347.66 385.61,348.32 387.04,348.32 388.48,348.32 389.91,348.32 391.34,348.32 392.77,348.32 394.20,348.32 395.63,348.32 397.06,348.32 398.49,348.32 399.92,348.32 401.35,348.32 402.78,347.66 404.21,347.66 405.64,348.32 407.07,348.32 408.51,348.32 409.94,348.32 411.37,348.32 412.80,348.32 414.23,348.32 415.66,348.32 417.09,348.97 418.52,348.97 419.95,348.97 421.38,348.97 422.81,348.97 424.24,348.32 425.67,348.32 427.11,348.32 428.54,348.32 429.97,347.66 431.40,347.66 432.83,347.66 434.26,347.00 435.69,347.00 437.12,347.00 438.55,347.00 439.98,347.00 441.41,346.34 442.84,346.34 444.27,345.67 445.71,345.67 447.14,345.67 452.86,383.28 454.29,383.28 455.72,383.28 457.15,383.28 458.58,383.28 460.01,383.28 461.44,383.28 462.87,383.28 464.31,382.82 470.03,344.33 471.46,344.33 472.89,344.33 474.32,344.33 475.75,344.33 477.18,344.33 478.61,344.33 480.04,344.33 481.47,345.00 482.91,345.00 484.34,345.00 485.77,345.00 487.20,345.00 488.63,345.00 490.06,345.00 491.49,345.00 492.92,345.00 494.35,345.00 500.07,383.28 501.51,383.28 502.94,383.28 504.37,383.28 505.80,383.28 507.23,383.28 508.66,383.28 510.09,383.28 511.52,383.28 512.95,383.28 514.38,383.28 515.81,383.28 517.24,383.28 518.67,383.28 520.11,383.28 521.54,383.28 522.97,383.28 524.40,383.28 525.83,383.28 527.26,383.28 528.69,383.28 530.12,383.28 531.55,383.28 532.98,383.28 534.41,383.28 535.84,383.28 537.27,383.28 538.70,383.28 540.14,383.28 541.57,383.28 543.00,383.28 544.43,383.28 545.86,383.28 547.29,382.82 548.72,383.28 550.15,382.82 551.58,382.82 553.01,382.82 554.44,382.82 555.87,382.82 557.30,382.82 558.74,382.82 560.17,382.82 561.60,382.82 563.03,383.28 564.46,383.28 565.89,383.28 573.04,343.65 574.47,343.65 575.90,343.65 577.34,343.65 578.77,343.65 580.20,344.33 581.63,344.33 583.06,345.00 584.49,345.00 585.92,345.00 587.35,345.00 588.78,345.00 590.21,345.67 591.64,345.67 593.07,345.67 594.50,346.34 595.94,346.34 597.37,346.34 598.80,346.34 600.23,346.34 601.66,347.00 603.09,347.00 604.52,347.00 605.95,347.66 607.38,347.66 608.81,347.66 610.24,347.66 611.67,347.66 613.10,347.66 614.54,348.32 615.97,348.32 617.40,348.32 618.83,348.32 620.26,348.32 621.69,348.32 623.12,348.32 624.55,348.32 625.98,348.32 627.41,348.32 628.84,348.32 630.27,348.32 631.70,348.32 633.14,348.32 634.57,348.32 636.00,348.32 637.43,348.32 638.86,348.32 640.29,348.32 641.72,348.32 643.15,348.32 644.58,348.32 646.01,348.32 647.44,348.32 648.87,348.32 650.30,348.32 651.73,348.32 653.17,348.97 654.60,348.97 656.03,348.97 657.46,348.97 658.89,348.97 660.32,348.97 661.75,348.97 663.18,348.97 664.61,348.97 666.04,348.97 667.47,348.97 668.90,348.97 670.33,348.97 671.77,348.97 673.20,348.97 674.63,348.97 676.06,348.97 677.49,348.97 678.92,348.32 680.35,348.32 681.78,348.32 683.21,348.32 684.64,348.32 686.07,348.32 687.50,348.32 688.93,348.97 690.37,348.97 691.80,348.97 693.23,348.97 694.66,349.62 696.09,349.62 697.52,349.62 698.95,349.62 700.38,349.62 701.81,349.62 703.24,349.62 704.67,349.62 706.10,350.26 707.53,350.26 708.97,350.26 710.40,350.26 711.83,350.26 713.26,350.26 714.69,350.26 716.12,350.26 717.55,350.26 718.98,350.26 720.41,350.26 721.84,349.62 723.27,349.62 724.70,349.62 726.13,349.62 727.57,348.97 729.00,348.97 730.43,348.97 731.86,348.97 733.29,348.97 734.72,348.97 736.15,348.97 737.58,348.97 739.01,348.97 740.44,348.97 741.87,348.97 743.30,349.62 744.73,349.62 746.17,349.62 747.60,350.26 749.03,350.26 750.46,350.26 751.89,350.26 753.32,350.26 754.75,350.26 756.18,350.26 757.61,350.26 759.04,349.62 760.47,349.62 761.90,349.62 763.33,349.62 764.77,349.62 766.20,349.62 767.63,348.97 769.06,348.97 770.49,348.97 771.92,348.97 773.35,348.97 774.78,348.97 776.21,348.97 777.64,348.32 779.07,348.32 780.50,348.32 781.93,348.32 783.36,348.32 784.80,348.97 786.23,348.97 787.66,348.97 789.09,348.97 790.52,348.97 791.95,348.97 793.38,348.97 794.81,348.97 796.24,348.97 797.67,348.97 799.10,348.97 800.53,348.97 801.96,348.97 803.40,348.97 804.83,348.97 806.26,348.97 807.69,348.97 809.12,348.97 810.55,348.97 811.98,348.97 813.41,349.62 814.84,349.62 816.27,349.62 817.70,349.62 819.13,349.62 820.56,349.62 822.00,349.62 823.43,349.62 824.86,349.62 826.29,349.62 827.72,349.62 829.15,349.62 830.58,349.62 832.01,349.62 833.44,349.62 834.87,349.62 836.30,349.62 837.73,349.62 839.16,349.62 840.60,349.62 842.03,349.62 843.46,349.62 844.89,349.62 846.32,349.62 847.75,349.62 849.18,349.62 850.61,349.62 852.04,349.62 853.47,349.62 854.90,349.62 856.33,349.62 857.76,349.62 859.20,349.62 860.63,349.62 862.06,349.62 863.49,349.62 864.92,349.62 866.35,349.62 867.78,349.62 869.21,349.62 870.64,349.62 872.07,349.62 873.50,349.62 874.93,349.62 876.36,349.62 877.80,349.62 879.23,349.62 880.66,349.62 882.09,349.62 883.52,348.97 884.95,348.97 886.38,348.97 887.81,348.97 889.24,348.97 890.67,348.97 892.10,348.32 893.53,348.32 894.96,348.32 896.40,348.32 897.83,348.32 899.26,348.32 900.69,348.32 902.12,348.32 903.55,348.32 904.98,348.32 906.41,348.32 907.84,348.32 909.27,348.32 910.70,348.32 912.13,348.32 913.56,348.32 914.99,348.32 916.43,348.32 917.86,347.66 919.29,347.66 920.72,347.66 922.15,347.66 923.58,347.66 925.01,347.66 926.44,347.66 927.87,347.66 929.30,347.66 930.73,347.66 932.16,347.66 933.59,347.66 935.03,347.66 936.46,347.66 937.89,347.66 939.32,347.66 940.75,347.66 942.18,347.66 943.61,347.66 945.04,348.32 946.47,348.32 947.90,348.32 949.33,348.97 950.76,348.97 952.19,348.97 953.63,348.97 955.06,349.62 956.49,349.62 957.92,349.62 959.35,349.62 960.78,349.62 962.21,349.62 963.64,349.62 965.07,349.62 966.50,349.62 967.93,349.62 969.36,349.62 970.79,349.62 972.23,348.97 973.66,348.97 975.09,348.97 976.52,348.32 977.95,348.32 979.38,348.32 980.81,347.66 982.24,347.66 983.67,347.66 985.10,347.66 986.53,347.66 987.96,347.66 989.39,348.32 990.83,348.32 992.26,348.32 993.69,348.32 995.12,348.32 996.55,348.32 997.98,348.97 999.41,348.97 1000.84,348.97 1002.27,348.97 1003.70,348.97 1005.13,348.97 1006.56,348.97 1007.99,349.62 1009.43,348.97 1010.86,348.97 1012.29,349.62 1013.72,349.62 1015.15,349.62 1016.58,349.62 1018.01,349.62 1019.44,349.62 1020.87,349.62 1032.32,233.88 1033.75,233.88 1035.18,233.88 1036.61,233.88 1038.04,235.19 1039.47,235.19 1040.90,235.19 1042.33,235.19 1043.76,236.50 1045.19,236.50 1046.62,236.50 1048.06,237.79 1049.49,237.79 1050.92,237.79 1052.35,239.08 1053.78,239.08 1055.21,240.36 1056.64,241.63 1058.07,241.63 1059.50,242.90 1060.93,241.63 1062.36,240.36 1063.79,236.50 1065.22,235.19 1066.66,235.19 1068.09,237.79 1069.52,232.57" fill="none" stroke="#dc2626" stroke-width="1.5" stroke-dasharray="5 4"/>
<line x1="78" y1="374.70" x2="1070" y2="374.70" stroke="#eee" />
<text x="1075" y="378.70" font-family="Arial" font-size="10" fill="#666">55</text>
<line x1="78" y1="358.93" x2="1070" y2="358.93" stroke="#eee" />
<text x="1075" y="362.93" font-family="Arial" font-size="10" fill="#666">65</text>
<line x1="78" y1="332.12" x2="1070" y2="332.12" stroke="#eee" />
<text x="1075" y="336.12" font-family="Arial" font-size="10" fill="#666">82</text>
<line x1="78" y1="306.89" x2="1070" y2="306.89" stroke="#eee" />
<text x="1075" y="310.89" font-family="Arial" font-size="10" fill="#666">98</text>
<line x1="78" y1="287.97" x2="1070" y2="287.97" stroke="#eee" />
<text x="1075" y="291.97" font-family="Arial" font-size="10" fill="#666">110</text>
<line x1="78" y1="254.85" x2="1070" y2="254.85" stroke="#eee" />
<text x="1075" y="258.85" font-family="Arial" font-size="10" fill="#666">131</text>
<line x1="78" y1="229.62" x2="1070" y2="229.62" stroke="#eee" />
<text x="1075" y="233.62" font-family="Arial" font-size="10" fill="#666">147</text>
<line x1="78" y1="201.23" x2="1070" y2="201.23" stroke="#eee" />
<text x="1075" y="205.23" font-family="Arial" font-size="10" fill="#666">165</text>
<rect x="78.00" y="472" width="1.43" height="23" fill="#2563eb" opacity="0.75" />
<rect x="86.58" y="472" width="4.29" height="23" fill="#2563eb" opacity="0.75" />
<rect x="92.31" y="472" width="88.71" height="23" fill="#2563eb" opacity="0.75" />
<rect x="182.45" y="472" width="888.50" height="23" fill="#2563eb" opacity="0.75" />
<rect x="130.94" y="518" width="18.60" height="23" fill="#dc2626" opacity="0.75" />
<rect x="153.83" y="518" width="21.46" height="23" fill="#dc2626" opacity="0.75" />
<rect x="201.05" y="518" width="247.52" height="23" fill="#dc2626" opacity="0.75" />
<rect x="452.86" y="518" width="12.88" height="23" fill="#dc2626" opacity="0.75" />
<rect x="470.03" y="518" width="25.75" height="23" fill="#dc2626" opacity="0.75" />
<rect x="500.07" y="518" width="67.25" height="23" fill="#dc2626" opacity="0.75" />
<rect x="573.04" y="518" width="449.26" height="23" fill="#dc2626" opacity="0.75" />
<rect x="1032.32" y="518" width="38.63" height="23" fill="#dc2626" opacity="0.75" />
<text x="78" y="468" font-family="Arial" font-size="11" fill="#2563eb">checkpoint</text>
<text x="78" y="514" font-family="Arial" font-size="11" fill="#dc2626">baseline pyin</text>
<text x="678" y="416" font-family="Arial" font-size="12" fill="#2563eb">checkpoint f0</text>
<text x="808" y="416" font-family="Arial" font-size="12" fill="#dc2626">baseline f0</text>
<line x1="78.00" y1="575" x2="78.00" y2="582" stroke="#666" />
<text x="66.00" y="598" font-family="Arial" font-size="10" fill="#666">0.0s</text>
<line x1="243.33" y1="575" x2="243.33" y2="582" stroke="#666" />
<text x="231.33" y="598" font-family="Arial" font-size="10" fill="#666">1.2s</text>
<line x1="408.67" y1="575" x2="408.67" y2="582" stroke="#666" />
<text x="396.67" y="598" font-family="Arial" font-size="10" fill="#666">2.3s</text>
<line x1="574.00" y1="575" x2="574.00" y2="582" stroke="#666" />
<text x="562.00" y="598" font-family="Arial" font-size="10" fill="#666">3.5s</text>
<line x1="739.33" y1="575" x2="739.33" y2="582" stroke="#666" />
<text x="727.33" y="598" font-family="Arial" font-size="10" fill="#666">4.6s</text>
<line x1="904.67" y1="575" x2="904.67" y2="582" stroke="#666" />
<text x="892.67" y="598" font-family="Arial" font-size="10" fill="#666">5.8s</text>
<line x1="1070.00" y1="575" x2="1070.00" y2="582" stroke="#666" />
<text x="1058.00" y="598" font-family="Arial" font-size="10" fill="#666">6.9s</text>
</svg>