<svg xmlns="http://www.w3.org/2000/svg" width="1100" height="620" viewBox="0 0 1100 620">
<rect width="100%" height="100%" fill="white" />
<text x="78" y="26" font-family="Arial" font-size="18" font-weight="700" fill="#111">Baseline comparison: 05_twinkle_twinkle</text>
<text x="18" y="95.0" font-family="Arial" font-size="12" fill="#444">Waveform</text>
<rect x="78" y="50" width="992" height="90" fill="none" stroke="#eee" />
<line x1="78" y1="140" x2="1070" y2="140" stroke="#ddd" />
<text x="18" y="292.5" font-family="Arial" font-size="12" fill="#444">F0: checkpoint vs baseline</text>
<rect x="78" y="190" width="992" height="205" fill="none" stroke="#eee" />
<line x1="78" y1="395" x2="1070" y2="395" stroke="#ddd" />
<text x="18" y="505.0" font-family="Arial" font-size="12" fill="#444">Voiced mask</text>
<rect x="78" y="450" width="992" height="110" fill="none" stroke="#eee" />
<line x1="78" y1="560" x2="1070" y2="560" stroke="#ddd" />
<polyline points="78.00,95.00 78.70,95.00 79.41,95.00 80.12,95.00 80.83,95.00 81.54,95.00 82.25,95.00 82.96,95.00 83.67,95.00 84.38,95.02 85.09,94.72 85.80,94.95 86.51,95.13 87.21,95.01 87.92,94.96 88.63,94.93 89.34,94.88 90.05,95.98 90.76,94.66 91.47,95.65 92.18,94.25 92.89,94.17 93.60,95.79 94.31,94.75 95.02,94.34 95.72,95.03 96.43,96.72 97.14,94.30 97.85,93.30 98.56,95.63 99.27,94.16 99.97,95.09 100.68,96.13 101.39,94.63 102.11,92.89 102.82,96.31 103.53,95.76 104.23,96.71 104.94,94.22 105.65,93.43 106.36,96.16 107.07,96.28 107.78,93.87 108.48,95.70 109.19,95.13 109.90,93.75 110.61,96.24 111.32,95.20 112.03,94.51 112.74,94.49 113.45,94.96 114.16,96.02 114.87,95.59 115.58,94.10 116.29,95.02 117.00,94.89 117.70,95.04 118.41,96.54 119.12,93.82 119.83,95.65 120.54,94.86 121.25,94.40 121.96,94.93 122.67,95.94 123.38,93.42 124.09,96.14 124.80,95.85 125.51,93.51 126.21,95.67 126.92,96.30 127.63,93.39 128.34,95.07 129.05,95.88 129.76,94.35 130.46,93.38 131.17,96.57 131.89,95.03 132.60,93.30 133.31,95.95 134.02,95.41 134.72,93.82 135.43,95.78 136.14,94.69 136.85,94.97 137.56,95.69 138.27,95.50 138.97,94.01 139.68,96.26 140.39,95.46 141.10,93.15 141.81,96.15 142.52,95.13 143.23,93.59 143.94,96.47 144.65,94.56 145.36,93.52 146.07,96.65 146.78,94.23 147.49,94.58 148.19,94.52 148.90,96.40 149.61,95.62 150.32,98.90 151.03,92.48 151.74,94.35 152.45,96.46 153.16,94.36 153.87,94.81 154.58,95.88 155.29,94.32 156.00,94.41 156.70,96.33 157.41,95.24 158.12,93.08 158.83,95.20 159.54,96.85 160.25,94.36 160.95,96.35 161.67,100.53 162.38,85.41 163.09,79.22 163.80,79.52 164.51,84.63 165.21,93.60 165.92,99.61 166.63,98.49 167.34,95.88 168.05,87.05 168.76,78.50 169.46,87.62 170.17,97.99 170.88,102.09 171.59,108.28 172.30,106.65 173.01,106.95 173.72,102.04 174.43,91.45 175.14,82.53 175.85,93.76 176.56,95.27 177.27,83.24 177.98,82.42 178.68,95.71 179.39,101.59 180.10,105.11 180.81,106.46 181.52,103.59 182.23,94.26 182.94,89.12 183.65,91.39 184.36,90.99 185.07,83.97 185.78,83.87 186.49,92.71 187.19,101.65 187.90,103.66 188.61,106.52 189.32,105.71 190.03,94.08 190.74,91.09 191.44,92.43 192.16,88.02 192.87,82.77 193.58,89.60 194.29,98.91 195.00,100.82 195.70,102.77 196.41,102.22 197.12,97.40 197.83,90.92 198.54,87.85 199.25,89.03 199.95,94.90 200.66,98.15 201.37,98.26 202.08,91.97 202.79,93.54 203.50,94.04 204.21,96.82 204.92,95.71 205.63,95.55 206.34,93.00 207.05,95.73 207.76,94.83 208.47,95.23 209.17,95.28 209.88,99.18 210.59,94.75 211.30,93.74 212.01,93.99 212.72,96.27 213.43,94.75 214.14,97.35 214.85,93.65 215.56,92.84 216.27,89.04 216.98,87.16 217.68,88.57 218.39,83.98 219.10,73.14 219.81,76.18 220.52,96.81 221.23,101.86 221.94,110.42 222.65,106.44 223.36,98.46 224.07,102.88 224.78,98.13 225.49,80.30 226.19,85.91 226.90,103.36 227.61,100.26 228.32,74.94 229.03,85.30 229.74,101.62 230.44,107.20 231.15,96.62 231.86,105.31 232.57,106.33 233.28,84.59 233.99,80.90 234.70,105.76 235.41,93.61 236.12,74.68 236.83,80.26 237.54,91.86 238.25,98.30 238.96,101.65 239.66,105.53 240.37,105.61 241.08,100.98 241.79,95.28 242.50,91.86 243.21,92.71 243.92,98.99 244.63,93.99 245.34,88.57 246.05,80.44 246.76,83.30 247.47,94.89 248.17,99.05 248.88,104.66 249.59,105.16 250.30,102.82 251.01,96.95 251.72,92.77 252.43,93.88 253.14,100.23 253.85,94.92 254.56,89.80 255.27,84.95 255.98,89.13 256.68,96.28 257.39,96.55 258.10,96.00 258.81,94.95 259.52,95.31 260.23,95.20 260.93,94.67 261.64,95.68 262.35,95.05 263.06,95.63 263.77,95.97 264.49,93.56 265.19,95.79 265.90,92.41 266.61,95.64 267.32,95.14 268.03,94.25 268.74,96.00 269.44,95.33 270.15,95.51 270.86,94.11 271.57,95.16 272.28,94.59 272.99,94.77 273.70,96.62 274.41,95.07 275.12,95.17 275.83,93.34 276.54,96.77 277.25,96.30 277.96,95.66 278.66,82.69 279.37,93.16 280.08,107.68 280.79,103.59 281.50,78.39 282.21,93.60 282.92,89.43 283.63,111.60 284.34,104.34 285.05,78.46 285.76,88.22 286.47,94.26 287.17,110.43 287.88,93.77 288.59,90.59 289.30,88.01 290.01,108.11 290.72,105.64 291.42,81.03 292.13,92.54 292.84,104.10 293.55,103.69 294.27,80.35 294.98,96.32 295.68,105.06 296.39,91.57 297.10,88.55 297.81,96.37 298.52,105.34 299.23,84.17 299.93,90.18 300.64,97.77 301.35,107.48 302.06,81.29 302.77,94.44 303.48,103.28 304.19,98.09 304.90,81.48 305.61,98.84 306.32,104.51 307.03,87.90 307.74,89.86 308.45,98.62 309.15,106.89 309.86,80.52 310.57,92.98 311.28,100.92 311.99,105.75 312.70,79.09 313.41,94.55 314.12,102.13 314.83,103.83 315.54,92.51 316.25,83.08 316.96,93.54 317.66,95.26 318.37,95.10 319.08,96.38 319.79,97.59 320.50,95.05 321.21,92.80 321.91,94.97 322.62,93.85 323.33,99.89 324.04,92.43 324.76,96.16 325.47,95.31 326.17,93.72 326.88,95.71 327.59,95.39 328.30,94.94 329.01,93.19 329.72,97.12 330.42,93.87 331.13,96.37 331.84,94.27 332.55,96.06 333.26,97.68 333.97,86.88 334.68,102.88 335.39,107.12 336.10,72.90 336.81,101.56 337.52,109.97 338.23,75.83 338.94,105.50 339.64,101.89 340.35,93.86 341.06,105.20 341.77,89.86 342.48,99.98 343.19,87.68 343.90,86.78 344.61,110.27 345.32,72.40 346.03,105.75 346.74,103.52 347.45,96.61 348.15,94.60 348.86,88.89 349.57,110.89 350.28,65.10 350.99,103.99 351.70,106.41 352.40,78.00 353.11,112.72 353.82,91.16 354.54,101.21 355.25,95.19 355.96,86.35 356.66,111.49 357.37,71.69 358.08,97.46 358.79,109.57 359.50,65.86 360.21,111.02 360.91,98.95 361.62,89.87 362.33,103.41 363.04,88.62 363.75,107.12 364.46,81.30 365.17,96.67 365.88,109.17 366.59,66.94 367.30,107.95 368.01,104.40 368.72,76.92 369.43,108.48 370.13,93.24 370.84,104.65 371.55,85.30 372.26,97.13 372.97,106.53 373.68,73.36 374.39,105.24 375.10,97.83 375.81,90.27 376.52,99.77 377.23,93.88 377.94,104.81 378.64,81.57 379.35,97.94 380.06,108.27 380.77,70.94 381.48,98.46 382.19,114.55 382.89,67.97 383.60,99.63 384.32,115.07 385.03,66.03 385.74,99.01 386.45,115.53 387.15,65.30 387.86,97.31 388.57,116.36 389.28,76.54 389.99,87.59 390.70,103.50 391.40,101.72 392.11,101.71 392.82,66.55 393.53,101.45 394.24,113.68 394.95,95.15 395.66,95.26 396.37,70.39 397.08,104.78 397.79,113.59 398.50,96.86 399.21,100.29 399.92,54.50 400.62,102.86 401.33,109.43 402.04,108.83 402.75,100.12 403.46,57.78 404.17,110.37 404.88,106.51 405.59,77.93 406.30,102.60 407.01,99.21 407.72,88.28 408.43,92.54 409.13,93.36 409.84,98.40 410.55,94.17 411.26,96.63 411.97,94.97 412.68,95.89 413.38,95.25 414.10,93.54 414.81,96.23 415.52,94.71 416.23,95.51 416.94,93.51 417.64,95.96 418.35,92.46 419.06,95.56 419.77,96.12 420.48,94.68 421.19,94.28 421.89,95.25 422.60,94.68 423.31,94.49 424.02,95.40 424.73,98.76 425.44,83.50 426.15,102.00 426.86,99.68 427.57,106.06 428.28,109.93 428.99,97.73 429.70,108.01 430.41,69.84 431.11,94.62 431.82,90.78 432.53,102.05 433.24,111.97 433.95,89.16 434.66,101.78 435.37,69.60 436.08,95.15 436.79,107.90 437.50,96.53 438.21,106.92 438.92,67.97 439.62,98.74 440.33,103.75 441.04,101.06 441.75,102.12 442.46,67.98 443.17,97.28 443.87,80.89 444.59,107.42 445.30,105.22 446.01,104.24 446.72,102.92 447.43,79.40 448.13,100.55 448.84,72.94 449.55,107.98 450.26,104.11 450.97,100.59 451.68,98.58 452.38,69.27 453.09,101.91 453.80,97.91 454.51,104.90 455.22,99.29 455.93,70.95 456.64,104.12 457.35,100.52 458.06,98.37 458.77,98.15 459.48,73.49 460.19,105.48 460.89,98.77 461.60,94.52 462.31,96.67 463.02,78.82 463.73,106.07 464.44,92.80 465.15,99.72 465.86,96.40 466.57,83.24 467.28,101.81 467.99,93.18 468.70,96.10 469.41,98.80 470.11,88.23 470.82,99.59 471.53,94.92 472.24,95.50 472.95,94.47 473.66,94.95 474.37,95.45 475.08,93.13 475.79,95.40 476.50,95.42 477.21,95.36 477.92,93.86 478.62,96.25 479.33,94.49 480.04,93.34 480.75,96.09 481.46,93.87 482.17,96.01 482.87,93.11 483.58,95.85 484.29,96.08 485.00,94.68 485.71,93.63 486.42,97.36 487.13,94.22 487.84,94.61 488.55,94.81 489.26,96.29 489.97,94.99 490.68,94.89 491.38,97.09 492.09,93.40 492.80,96.29 493.51,93.83 494.22,95.08 494.93,97.11 495.64,93.07 496.35,100.53 497.06,104.86 497.77,73.84 498.48,97.21 499.19,99.11 499.90,103.80 500.60,74.46 501.31,102.25 502.02,95.41 502.73,103.22 503.44,75.17 504.15,104.42 504.86,95.37 505.57,100.14 506.28,72.46 506.99,95.11 507.70,104.00 508.41,100.64 509.11,83.25 509.82,87.17 510.53,105.92 511.24,98.38 511.95,96.53 512.66,90.52 513.36,107.37 514.07,90.55 514.78,102.72 515.49,92.79 516.20,104.08 516.92,78.19 517.62,99.64 518.33,96.63 519.04,101.56 519.75,77.60 520.46,94.94 521.17,101.22 521.87,100.27 522.58,78.22 523.29,94.70 524.00,103.72 524.71,98.77 525.42,89.31 526.13,90.14 526.84,110.96 527.55,77.40 528.26,103.39 528.97,97.41 529.68,101.52 530.39,82.04 531.09,91.81 531.80,105.32 532.51,89.37 533.22,100.41 533.93,97.81 534.64,101.58 535.35,81.64 536.06,89.79 536.77,107.26 537.48,95.60 538.19,95.23 538.90,92.32 539.60,108.06 540.31,82.68 541.02,100.90 541.73,93.57 542.44,101.05 543.15,82.73 543.85,98.89 544.56,97.84 545.27,78.43 545.98,117.57 546.70,91.79 547.41,86.37 548.11,79.87 548.82,116.56 549.53,79.16 550.24,108.85 550.95,98.60 551.66,78.42 552.36,96.30 553.07,105.77 553.78,83.60 554.49,99.73 555.20,99.60 555.91,93.11 556.62,89.86 557.33,101.97 558.04,90.22 558.75,92.04 559.46,98.95 560.17,95.30 560.88,94.53 561.58,93.65 562.29,92.52 563.00,95.90 563.71,101.25 564.42,91.56 565.13,93.94 565.84,93.22 566.55,94.81 567.26,99.61 567.97,92.28 568.68,93.28 569.39,95.02 570.09,97.73 570.80,91.89 571.51,96.02 572.22,95.17 572.93,94.24 573.64,96.17 574.34,94.05 575.05,95.77 575.76,94.94 576.48,93.05 577.19,96.59 577.90,95.57 578.60,92.85 579.31,96.29 580.02,94.13 580.73,93.85 581.44,95.79 582.15,97.30 582.85,93.67 583.56,95.76 584.27,93.90 584.98,95.68 585.69,97.15 586.40,92.01 587.11,95.42 587.82,96.66 588.53,95.36 589.24,92.51 589.95,96.84 590.66,96.14 591.37,94.28 592.07,94.15 592.78,96.90 593.49,95.68 594.20,94.83 594.91,95.19 595.62,94.19 596.33,95.89 597.04,94.60 597.75,93.72 598.46,96.83 599.17,94.99 599.88,92.26 600.58,96.53 601.29,96.72 602.00,92.36 602.71,95.75 603.42,95.33 604.13,93.25 604.83,95.79 605.54,94.92 606.25,94.38 606.97,95.42 607.68,95.35 608.39,91.65 609.09,96.85 609.80,96.44 610.51,92.36 611.22,96.39 611.93,95.37 612.64,93.38 613.34,96.14 614.05,93.88 614.76,96.58 615.47,93.80 616.18,94.23 616.89,96.26 617.60,94.76 618.31,94.58 619.02,94.22 619.73,96.04 620.44,93.18 621.15,92.19 621.85,93.86 622.56,100.11 623.27,96.74 623.98,96.49 624.69,91.78 625.40,91.39 626.11,93.37 626.82,92.01 627.53,98.68 628.24,102.47 628.95,110.40 629.66,105.92 630.37,100.08 631.07,96.03 631.78,80.10 632.49,70.68 633.20,103.53 633.91,105.00 634.62,86.39 635.32,76.72 636.03,105.93 636.75,103.36 637.46,94.01 638.17,112.11 638.88,103.52 639.58,96.46 640.29,65.51 641.00,87.36 641.71,106.22 642.42,98.52 643.13,75.25 643.83,100.71 644.54,110.12 645.25,107.31 645.96,99.09 646.67,100.34 647.38,69.07 648.09,80.00 648.80,104.04 649.51,86.18 650.22,93.89 650.93,108.72 651.64,116.87 652.34,95.49 653.05,92.54 653.76,66.31 654.47,91.30 655.18,105.47 655.89,76.87 656.60,110.54 657.31,111.73 658.02,110.10 658.73,91.93 659.44,64.48 660.15,94.08 660.86,97.39 661.56,90.19 662.27,100.62 662.98,122.43 663.69,101.54 664.40,86.53 665.11,60.37 665.81,99.03 666.53,99.97 667.24,89.70 667.95,103.32 668.66,121.67 669.37,96.89 670.07,72.41 670.78,76.14 671.49,106.15 672.20,84.45 672.91,107.53 673.62,119.40 674.32,95.36 675.03,61.82 675.74,104.34 676.45,81.66 677.16,97.50 677.87,112.47 678.58,103.63 679.29,99.02 680.00,74.27 680.71,98.31 681.42,81.17 682.13,101.74 682.83,115.56 683.54,110.39 684.25,87.48 684.96,73.29 685.67,93.45 686.38,78.00 687.09,104.20 687.80,110.97 688.51,110.67 689.22,100.59 689.93,78.22 690.64,78.23 691.35,97.97 692.05,90.20 692.76,93.20 693.47,106.24 694.18,111.14 694.89,99.29 695.60,98.65 696.30,71.74 697.02,84.56 697.73,100.18 698.44,83.43 699.15,103.47 699.86,107.63 700.56,107.89 701.27,99.66 701.98,78.43 702.69,77.70 703.40,95.73 704.11,84.57 704.81,101.33 705.52,109.05 706.23,107.53 706.94,98.55 707.65,73.69 708.36,94.33 709.07,88.23 709.78,92.05 710.49,105.30 711.20,109.72 711.91,100.86 712.62,78.60 713.32,77.01 714.03,95.43 714.74,89.39 715.45,101.04 716.16,111.51 716.87,108.80 717.58,95.51 718.29,73.57 719.00,82.11 719.71,95.39 720.42,95.11 721.13,103.23 721.84,108.93 722.54,105.81 723.25,89.40 723.96,71.23 724.67,82.68 725.38,94.01 726.09,105.68 726.80,103.37 727.51,100.20 728.22,94.74 728.93,90.99 729.64,91.94 730.35,89.15 731.05,94.11 731.76,95.62 732.47,89.27 733.18,87.60 733.89,89.51 734.60,98.87 735.30,98.63 736.01,101.29 736.72,103.35 737.43,100.45 738.14,97.14 738.85,94.64 739.56,92.41 740.27,94.78 740.98,93.92 741.69,96.62 742.40,99.87 743.11,101.17 743.81,104.11 744.52,102.14 745.23,106.81 745.94,102.19 746.65,100.06 747.36,96.88 748.07,92.27 748.78,78.21 749.49,79.50 750.20,91.79 750.91,103.00 751.62,94.03 752.33,92.83 753.03,94.98 753.74,98.96 754.45,102.99 755.16,102.28 755.87,101.73 756.58,97.78 757.29,96.11 758.00,90.87 758.71,77.53 759.42,80.39 760.13,95.14 760.84,97.65 761.54,102.57 762.25,94.03 762.96,93.48 763.67,94.71 764.38,95.56 765.09,100.11 765.79,102.46 766.50,103.87 767.21,99.92 767.92,98.96 768.63,94.07 769.35,83.41 770.05,80.23 770.76,85.44 771.47,89.45 772.18,94.92 772.89,94.66 773.60,95.44 774.30,97.70 775.01,97.60 775.72,97.65 776.43,94.64 777.14,95.87 777.85,99.51 778.56,99.82 779.27,102.09 779.98,103.10 780.69,102.78 781.40,100.52 782.11,98.59 782.82,89.91 783.52,87.65 784.23,83.72 784.94,79.90 785.65,86.18 786.36,84.64 787.07,86.16 787.78,89.13 788.49,87.67 789.20,93.27 789.91,90.28 790.62,88.44 791.33,91.19 792.03,92.58 792.74,95.48 793.45,96.87 794.16,97.68 794.87,92.15 795.58,78.43 796.28,97.87 796.99,105.86 797.70,98.01 798.41,89.01 799.13,91.90 799.84,95.62 800.54,102.65 801.25,106.11 801.96,101.44 802.67,101.86 803.38,96.97 804.09,88.38 804.79,76.20 805.50,77.55 806.21,95.09 806.92,103.84 807.63,107.93 808.34,97.61 809.05,88.80 809.76,87.24 810.47,95.63 811.18,99.49 811.89,102.17 812.60,103.21 813.30,101.50 814.01,99.28 814.72,94.73 815.43,84.35 816.14,77.24 816.85,78.97 817.56,88.62 818.27,98.67 818.98,105.36 819.69,105.92 820.40,99.76 821.11,96.23 821.82,88.79 822.52,87.24 823.23,86.64 823.94,90.84 824.65,96.97 825.36,102.55 826.07,108.05 826.77,108.02 827.48,107.93 828.19,102.39 828.91,97.94 829.62,94.03 830.33,90.27 831.03,78.26 831.74,80.00 832.45,79.42 833.16,85.72 833.87,93.95 834.58,102.24 835.28,104.77 835.99,103.24 836.70,99.71 837.41,93.18 838.12,91.39 838.83,90.44 839.54,91.21 840.25,93.45 840.96,101.82 841.67,101.57 842.38,103.09 843.09,103.48 843.79,102.48 844.50,97.77 845.21,101.17 845.92,98.46 846.63,98.85 847.34,100.89 848.05,97.68 848.76,97.70 849.47,97.40 850.18,95.16 850.89,93.80 851.60,91.88 852.31,91.40 853.01,90.40 853.72,93.36 854.43,92.69 855.14,95.92 855.85,97.25 856.56,99.87 857.26,99.80 857.97,99.13 858.68,100.74 859.40,98.52 860.11,98.69 860.82,97.00 861.52,94.55 862.23,91.30 862.94,90.03 863.65,92.59 864.36,93.11 865.07,77.83 865.77,96.23 866.48,99.78 867.19,104.57 867.90,101.82 868.61,97.44 869.32,97.99 870.03,97.56 870.74,93.91 871.45,91.80 872.16,90.28 872.87,91.85 873.58,95.83 874.28,94.60 874.99,87.78 875.70,79.17 876.41,82.39 877.12,93.13 877.83,100.80 878.54,100.53 879.25,101.43 879.96,103.65 880.67,100.52 881.38,101.08 882.09,100.93 882.80,102.70 883.50,94.37 884.21,90.31 884.92,85.96 885.63,93.88 886.34,95.11 887.05,97.97 887.75,92.30 888.46,85.26 889.18,81.19 889.89,89.01 890.60,97.20 891.31,100.04 892.01,98.59 892.72,100.65 893.43,101.96 894.14,105.02 894.85,104.37 895.56,99.28 896.26,98.13 896.97,89.53 897.68,89.90 898.39,91.95 899.10,98.26 899.81,95.78 900.52,93.36 901.23,88.43 901.94,83.32 902.65,83.29 903.36,88.54 904.07,95.30 904.77,98.64 905.48,100.21 906.19,99.81 906.90,97.14 907.61,96.13 908.32,97.67 909.03,90.93 909.74,89.79 910.45,92.85 911.16,94.32 911.87,96.13 912.58,96.89 913.29,95.34 913.99,96.25 914.70,99.80 915.41,97.94 916.12,96.83 916.83,98.67 917.54,103.34 918.24,99.46 918.96,100.54 919.67,99.79 920.38,97.97 921.09,91.53 921.80,88.81 922.50,85.07 923.21,81.86 923.92,79.04 924.63,84.30 925.34,83.26 926.05,89.18 926.75,93.59 927.46,97.78 928.17,98.44 928.88,99.74 929.59,104.80 930.30,105.64 931.01,106.90 931.72,101.81 932.43,96.76 933.14,89.58 933.85,87.73 934.56,89.61 935.26,99.78 935.97,97.84 936.68,93.84 937.39,81.89 938.10,84.34 938.81,97.51 939.52,99.55 940.23,100.11 940.94,103.83 941.65,101.01 942.36,88.56 943.07,91.02 943.78,99.32 944.48,100.62 945.19,89.91 945.90,81.76 946.61,85.43 947.32,96.83 948.03,98.92 948.74,101.94 949.45,104.68 950.16,95.71 950.87,90.06 951.58,94.26 952.29,102.31 952.99,91.93 953.70,82.00 954.41,88.54 955.12,97.41 955.83,98.76 956.54,102.98 957.24,100.04 957.95,94.00 958.66,91.38 959.37,101.05 960.08,94.83 960.79,86.50 961.50,84.86 962.21,97.09 962.92,98.43 963.63,102.24 964.34,99.71 965.05,96.94 965.75,89.29 966.46,100.44 967.17,95.43 967.88,82.19 968.59,93.45 969.30,98.10 970.01,98.27 970.72,99.58 971.43,93.55 972.14,94.72 972.85,97.18 973.56,85.03 974.27,96.00 974.97,95.75 975.68,101.28 976.39,89.26 977.10,99.37 977.81,82.26 978.52,102.09 979.23,96.20 979.94,100.60 980.65,101.91 981.36,93.71 982.07,101.51 982.78,99.80 983.48,91.10 984.19,91.02 984.90,102.98 985.61,74.71 986.32,100.45 987.03,103.77 987.73,92.59 988.44,94.78 989.15,92.61 989.86,92.72 990.57,84.58 991.29,101.70 991.99,102.89 992.70,97.67 993.41,94.62 994.12,94.83 994.83,88.05 995.54,96.98 996.24,81.88 996.95,95.62 997.66,101.19 998.37,100.25 999.08,96.94 999.79,99.06 1000.50,92.80 1001.21,90.44 1001.92,96.71 1002.63,86.93 1003.34,91.82 1004.05,99.47 1004.75,104.20 1005.46,94.26 1006.17,96.24 1006.88,94.49 1007.59,90.75 1008.30,93.77 1009.01,87.49 1009.72,94.56 1010.43,98.06 1011.14,100.81 1011.85,98.84 1012.56,93.91 1013.27,91.94 1013.97,97.24 1014.68,90.05 1015.39,86.69 1016.10,99.09 1016.81,99.73 1017.52,98.43 1018.22,99.20 1018.93,95.27 1019.64,91.05 1020.35,97.69 1021.06,89.66 1021.78,89.57 1022.48,97.99 1023.19,100.19 1023.90,95.56 1024.61,99.46 1025.32,95.77 1026.03,90.11 1026.73,96.32 1027.44,90.63 1028.15,86.61 1028.86,96.19 1029.57,101.05 1030.28,97.08 1030.99,99.32 1031.70,99.61 1032.41,90.23 1033.12,95.86 1033.83,95.65 1034.54,85.85 1035.24,92.47 1035.95,96.92 1036.66,93.88 1037.37,97.30 1038.08,101.04 1038.79,93.49 1039.50,95.45 1040.21,94.44 1040.92,94.01 1041.63,95.50 1042.34,96.74 1043.05,94.95 1043.76,92.42 1044.46,95.70 1045.17,94.98 1045.88,95.18 1046.59,93.08 1047.30,96.69 1048.01,93.91 1048.71,93.83 1049.42,95.70 1050.13,96.34 1050.84,92.57 1051.56,96.33 1052.27,95.21 1052.97,92.78 1053.68,96.04 1054.39,95.19 1055.10,93.13 1055.81,95.25 1056.52,97.69 1057.22,84.13 1057.93,92.13 1058.64,94.75 1059.35,92.21 1060.06,93.49 1060.77,98.22 1061.48,93.95 1062.19,92.59 1062.90,96.39 1063.61,95.53 1064.32,92.07 1065.03,97.28 1065.73,94.95 1066.44,92.76 1067.15,96.56 1067.86,95.84 1068.57,93.28 1069.28,95.00 1069.99,95.00" fill="none" stroke="#444" stroke-width="1.0" />
<polyline points="78.00,357.74 89.60,356.29 90.76,356.29 91.92,371.95 93.07,371.95 94.23,371.95 95.39,371.95 96.55,371.95 97.71,371.95 98.87,371.95 100.03,371.95 101.19,371.95 102.35,371.95 103.51,371.95 104.67,371.95 105.83,360.55 106.99,360.55 108.15,360.55 109.31,360.55 110.47,373.10 111.63,373.10 112.79,373.10 113.95,373.10 115.11,373.10 116.27,373.10 117.43,371.95 118.59,371.95 119.75,371.95 120.91,371.95 122.06,371.95 123.22,360.55 124.38,360.55 125.54,357.74 126.70,356.29 127.86,356.29 129.02,356.29 130.18,356.29 131.34,356.29 132.50,357.74 133.66,357.74 134.82,356.29 135.98,356.29 137.14,356.29 138.30,356.29 139.46,356.29 140.62,354.82 141.78,354.82 142.94,354.82 144.10,354.82 145.26,354.82 146.42,354.82 147.58,354.82 148.74,356.29 149.90,356.29 156.85,359.16 158.01,359.16 159.17,288.90 160.33,288.90 161.49,288.90 162.65,288.90 163.81,288.90 164.97,288.90 166.13,291.64 167.29,291.64 168.45,291.64 169.61,291.64 170.77,294.32 171.93,294.32 173.09,294.32 174.25,294.32 175.41,296.95 176.57,296.95 177.73,296.95 178.89,296.95 180.04,296.95 181.20,296.95 182.36,296.95 183.52,296.95 184.68,296.95 185.84,296.95 187.00,296.95 188.16,296.95 189.32,299.53 190.48,299.53 191.64,299.53 192.80,299.53 193.96,299.53 195.12,299.53 196.28,299.53 197.44,299.53 198.60,299.53 199.76,299.53 200.92,299.53 202.08,299.53 203.24,299.53 204.40,299.53 205.56,296.95 206.72,296.95 207.88,299.53 209.03,294.32 210.19,294.32 211.35,294.32 212.51,294.32 213.67,291.64 214.83,291.64 215.99,291.64 217.15,291.64 218.31,291.64 219.47,294.32 220.63,294.32 221.79,294.32 222.95,294.32 224.11,294.32 225.27,296.95 226.43,296.95 227.59,296.95 228.75,296.95 229.91,296.95 231.07,296.95 232.23,296.95 233.39,296.95 234.55,296.95 235.71,296.95 236.86,296.95 238.02,296.95 239.18,296.95 240.34,296.95 241.50,296.95 242.66,294.32 243.82,294.32 244.98,294.32 246.14,294.32 247.30,296.95 248.46,296.95 249.62,296.95 250.78,296.95 251.94,296.95 253.10,296.95 254.26,296.95 255.42,296.95 256.58,296.95 257.74,296.95 258.90,296.95 260.06,296.95 261.22,296.95 262.38,296.95 263.54,296.95 264.70,296.95 265.85,296.95 267.01,296.95 268.17,299.53 269.33,299.53 270.49,299.53 271.65,343.65 272.81,343.65 273.97,248.15 275.13,248.15 276.29,248.15 277.45,251.66 278.61,251.66 279.77,251.66 280.93,251.66 282.09,251.66 283.25,251.66 284.41,251.66 285.57,251.66 286.73,251.66 287.89,251.66 289.05,248.15 290.21,248.15 291.37,248.15 292.53,248.15 293.69,248.15 294.84,248.15 296.00,244.57 297.16,244.57 298.32,244.57 299.48,244.57 300.64,244.57 301.80,244.57 302.96,244.57 304.12,244.57 305.28,244.57 306.44,244.57 307.60,244.57 308.76,244.57 309.92,244.57 311.08,244.57 312.24,248.15 313.40,248.15 314.56,248.15 315.72,248.15 316.88,251.66 318.04,251.66 319.20,251.66 320.36,251.66 321.52,251.66 322.68,255.10 323.83,255.10 324.99,248.15 327.31,248.15 328.47,233.41 329.63,233.41 330.79,233.41 331.95,233.41 333.11,233.41 334.27,233.41 335.43,233.41 336.59,233.41 337.75,237.20 338.91,237.20 340.07,237.20 341.23,237.20 342.39,237.20 343.55,237.20 344.71,240.92 345.87,240.92 347.03,240.92 348.19,240.92 349.35,240.92 350.51,240.92 351.67,240.92 352.82,240.92 353.98,240.92 355.14,240.92 356.30,240.92 357.46,240.92 358.62,240.92 359.78,240.92 360.94,240.92 362.10,240.92 363.26,240.92 364.42,240.92 365.58,240.92 366.74,240.92 367.90,240.92 369.06,240.92 370.22,240.92 371.38,240.92 372.54,240.92 373.70,240.92 374.86,240.92 376.02,240.92 377.18,240.92 378.34,240.92 379.50,237.20 380.66,237.20 381.81,237.20 382.97,237.20 384.13,237.20 385.29,233.41 386.45,233.41 387.61,233.41 388.77,233.41 389.93,229.55 391.09,229.55 392.25,229.55 393.41,229.55 394.57,225.61 395.73,225.61 396.89,225.61 398.05,225.61 399.21,225.61 400.37,225.61 401.53,225.61 402.69,225.61 403.85,225.61 405.01,225.61 406.17,229.55 407.33,229.55 408.49,229.55 409.65,229.55 410.80,229.55 411.96,229.55 413.12,229.55 414.28,233.41 420.08,221.59 421.24,221.59 422.40,217.50 423.56,217.50 424.72,217.50 425.88,217.50 427.04,217.50 428.20,217.50 429.36,217.50 430.52,217.50 431.68,221.59 432.84,221.59 434.00,221.59 435.16,221.59 436.32,221.59 437.48,221.59 438.64,221.59 439.79,221.59 440.95,221.59 442.11,221.59 443.27,221.59 444.43,221.59 445.59,221.59 446.75,221.59 447.91,221.59 449.07,221.59 450.23,221.59 451.39,221.59 452.55,221.59 453.71,221.59 454.87,221.59 456.03,225.61 457.19,225.61 458.35,225.61 459.51,225.61 460.67,225.61 461.83,225.61 462.99,225.61 464.15,225.61 465.31,225.61 466.47,225.61 467.62,225.61 468.78,225.61 469.94,225.61 471.10,225.61 472.26,225.61 473.42,225.61 474.58,225.61 475.74,225.61 476.90,225.61 491.98,233.41 493.14,237.20 494.30,244.57 495.46,248.15 496.61,248.15 497.77,248.15 498.93,248.15 500.09,248.15 501.25,248.15 502.41,248.15 503.57,248.15 504.73,248.15 505.89,248.15 507.05,244.57 508.21,244.57 509.37,244.57 510.53,244.57 511.69,244.57 512.85,244.57 514.01,244.57 515.17,244.57 516.33,244.57 517.49,244.57 518.65,244.57 519.81,244.57 520.97,244.57 522.13,244.57 523.29,244.57 524.45,244.57 525.60,244.57 526.76,244.57 527.92,244.57 529.08,244.57 530.24,244.57 531.40,244.57 532.56,244.57 533.72,244.57 534.88,244.57 536.04,244.57 537.20,244.57 538.36,244.57 539.52,244.57 540.68,244.57 541.84,244.57 543.00,244.57 544.16,244.57 545.32,244.57 546.48,244.57 547.64,240.92 548.80,240.92 549.96,240.92 551.12,240.92 552.28,237.20 553.44,237.20 554.59,233.41 555.75,190.00 556.91,190.00 558.07,190.00 559.23,190.00 560.39,190.00 561.55,359.16 562.71,359.16 563.87,359.16 565.03,359.16 566.19,359.16 567.35,359.16 568.51,359.16 569.67,359.16 570.83,359.16 571.99,359.16 573.15,359.16 574.31,359.16 575.47,373.10 576.63,373.10 577.79,373.10 578.95,373.10 580.11,373.10 581.27,359.16 582.43,359.16 583.58,359.16 584.74,359.16 585.90,359.16 587.06,359.16 588.22,359.16 599.82,357.74 600.98,357.74 602.14,354.82 603.30,357.74 604.46,357.74 605.62,357.74 606.78,359.16 607.94,359.16 609.10,359.16 610.26,354.82 618.37,271.36 619.53,271.36 620.69,274.42 621.85,277.43 623.01,277.43 624.17,277.43 625.33,277.43 626.49,277.43 627.65,277.43 628.81,277.43 629.97,274.42 631.13,274.42 632.29,274.42 633.45,274.42 634.61,274.42 635.77,274.42 636.93,271.36 638.09,271.36 639.25,271.36 640.41,271.36 641.56,271.36 642.72,271.36 643.88,271.36 645.04,271.36 646.20,268.23 647.36,268.23 648.52,268.23 649.68,268.23 650.84,268.23 652.00,268.23 653.16,268.23 654.32,268.23 655.48,268.23 656.64,265.04 657.80,265.04 658.96,265.04 660.12,265.04 661.28,265.04 662.44,265.04 663.60,265.04 664.76,265.04 665.92,265.04 667.08,265.04 668.24,265.04 669.40,265.04 670.55,265.04 671.71,261.79 672.87,261.79 674.03,261.79 675.19,261.79 676.35,261.79 677.51,261.79 678.67,261.79 679.83,261.79 680.99,261.79 682.15,261.79 683.31,261.79 684.47,261.79 685.63,261.79 686.79,265.04 687.95,265.04 689.11,265.04 690.27,265.04 691.43,265.04 692.59,265.04 693.75,265.04 694.91,265.04 696.07,265.04 697.23,265.04 698.39,265.04 699.54,265.04 700.70,265.04 701.86,265.04 703.02,265.04 704.18,265.04 705.34,265.04 706.50,265.04 707.66,265.04 708.82,265.04 709.98,265.04 711.14,265.04 712.30,265.04 713.46,265.04 714.62,265.04 715.78,265.04 716.94,265.04 718.10,265.04 719.26,265.04 720.42,265.04 721.58,265.04 722.74,268.23 723.90,268.23 725.06,268.23 726.22,271.36 727.38,271.36 728.53,274.42 729.69,274.42 730.85,277.43 732.01,280.38 733.17,280.38 734.33,286.12 735.49,286.12 736.65,286.12 737.81,286.12 738.97,283.28 740.13,283.28 741.29,283.28 742.45,280.38 743.61,280.38 744.77,280.38 745.93,277.43 747.09,277.43 748.25,277.43 749.41,277.43 750.57,277.43 751.73,274.42 752.89,274.42 754.05,274.42 755.21,274.42 756.36,274.42 757.52,274.42 758.68,274.42 759.84,274.42 761.00,274.42 762.16,274.42 763.32,274.42 764.48,274.42 765.64,274.42 766.80,274.42 767.96,274.42 769.12,277.43 770.28,277.43 771.44,277.43 772.60,277.43 773.76,277.43 774.92,277.43 776.08,277.43 777.24,277.43 778.40,277.43 779.56,277.43 780.72,277.43 781.88,277.43 783.04,277.43 784.20,277.43 785.35,277.43 786.51,280.38 787.67,280.38 788.83,280.38 789.99,280.38 791.15,280.38 792.31,277.43 793.47,277.43 794.63,271.36 795.79,271.36 796.95,274.42 798.11,274.42 799.27,274.42 800.43,274.42 801.59,274.42 802.75,274.42 803.91,274.42 805.07,274.42 806.23,274.42 807.39,274.42 808.55,274.42 809.71,274.42 810.87,274.42 812.03,274.42 813.19,274.42 814.34,277.43 815.50,277.43 816.66,277.43 817.82,277.43 818.98,277.43 820.14,277.43 821.30,277.43 822.46,277.43 823.62,277.43 824.78,277.43 825.94,277.43 827.10,277.43 828.26,277.43 829.42,277.43 830.58,277.43 831.74,277.43 832.90,190.00 834.06,190.00 835.22,190.00 836.38,190.00 837.54,190.00 838.70,190.00 839.86,190.00 841.02,277.43 842.18,277.43 843.33,277.43 844.49,280.38 845.65,280.38 846.81,280.38 847.97,280.38 849.13,283.28 850.29,283.28 851.45,286.12 852.61,286.12 853.77,286.12 854.93,286.12 856.09,288.90 857.25,288.90 858.41,291.64 859.57,291.64 860.73,291.64 861.89,291.64 863.05,294.32 864.21,294.32 865.37,294.32 866.53,296.95 867.69,294.32 868.85,294.32 870.01,294.32 871.17,294.32 872.32,294.32 873.48,294.32 874.64,294.32 875.80,291.64 876.96,291.64 878.12,291.64 879.28,291.64 880.44,291.64 881.60,294.32 882.76,294.32 883.92,294.32 885.08,294.32 886.24,294.32 887.40,294.32 888.56,294.32 889.72,294.32 890.88,291.64 892.04,291.64 893.20,291.64 894.36,294.32 895.52,294.32 896.68,294.32 897.84,294.32 899.00,294.32 900.16,294.32 901.31,294.32 902.47,294.32 903.63,294.32 904.79,294.32 905.95,296.95 907.11,296.95 908.27,296.95 909.43,296.95 910.59,296.95 911.75,296.95 912.91,294.32 914.07,294.32 915.23,291.64 916.39,291.64 917.55,288.90 918.71,288.90 919.87,288.90 921.03,288.90 922.19,288.90 923.35,288.90 924.51,288.90 925.67,288.90 926.83,288.90 927.99,291.64 929.15,291.64 930.30,291.64 931.46,291.64 932.62,291.64 933.78,291.64 934.94,294.32 936.10,294.32 937.26,294.32 938.42,294.32 939.58,294.32 940.74,296.95 941.90,296.95 943.06,296.95 944.22,296.95 945.38,296.95 946.54,296.95 947.70,296.95 948.86,296.95 950.02,296.95 951.18,296.95 952.34,296.95 953.50,296.95 954.66,296.95 955.82,299.53 956.98,299.53 958.13,299.53 959.29,299.53 960.45,299.53 961.61,299.53 962.77,299.53 963.93,299.53 965.09,299.53 966.25,299.53 967.41,302.06 968.57,302.06 969.73,302.06 970.89,302.06 972.05,304.54 973.21,304.54 974.37,304.54 975.53,306.97 976.69,306.97 977.85,306.97 979.01,309.36 980.17,309.36 981.33,309.36 982.49,309.36 983.65,309.36 984.81,309.36 985.97,309.36 987.12,306.97 988.28,306.97 989.44,306.97 990.60,304.54 991.76,304.54 992.92,304.54 994.08,304.54 995.24,304.54 996.40,302.06 997.56,302.06 998.72,302.06 999.88,302.06 1001.04,302.06 1002.20,302.06 1003.36,302.06 1004.52,302.06 1005.68,302.06 1006.84,302.06 1008.00,302.06 1009.16,302.06 1010.32,302.06 1011.48,302.06 1012.64,302.06 1013.80,302.06 1014.96,302.06 1016.11,302.06 1017.27,302.06 1018.43,299.53 1019.59,299.53 1020.75,299.53 1021.91,299.53 1023.07,299.53 1024.23,299.53 1025.39,299.53 1026.55,299.53 1027.71,299.53 1028.87,299.53 1030.03,299.53 1031.19,299.53 1032.35,299.53 1033.51,299.53 1034.67,299.53 1035.83,299.53 1036.99,299.53 1038.15,299.53 1039.31,299.53 1040.47,299.53 1041.63,299.53 1042.79,299.53 1043.95,299.53 1045.10,299.53 1046.26,299.53 1047.42,361.92 1048.58,361.92 1049.74,361.92 1050.90,361.92 1052.06,361.92 1053.22,361.92 1054.38,361.92 1055.54,299.53 1056.70,294.32" fill="none" stroke="#2563eb" stroke-width="1.5" />
<polyline points="89.60,395.00 90.76,395.00 91.92,395.00 93.07,395.00 94.23,395.00 118.59,384.20 119.75,384.75 120.91,383.64 122.06,383.92 123.22,385.02 124.38,384.75 125.54,385.02 126.70,384.75 127.86,385.02 129.02,385.29 130.18,384.47 131.34,384.20 132.50,385.29 133.66,385.56 134.82,385.02 135.98,384.20 137.14,380.75 138.30,380.75 139.46,381.05 140.62,379.85 141.78,379.85 142.94,378.63 144.10,377.38 156.85,286.68 158.01,287.52 159.17,288.35 160.33,288.35 161.49,289.18 162.65,290.00 163.81,290.00 164.97,290.82 166.13,290.82 167.29,290.82 168.45,291.64 169.61,292.45 170.77,293.25 171.93,294.05 173.09,294.85 174.25,295.64 175.41,296.42 176.57,296.42 177.73,297.21 178.89,297.21 180.04,297.21 181.20,297.21 182.36,297.21 183.52,297.98 184.68,297.98 185.84,297.98 187.00,297.98 188.16,297.98 189.32,297.98 190.48,298.76 191.64,298.76 192.80,298.76 193.96,299.53 195.12,300.29 196.28,300.29 197.44,300.29 198.60,301.05 199.76,301.80 200.92,302.56 202.08,303.30 203.24,304.78 204.40,306.25 205.56,306.97 209.03,294.05 210.19,285.84 211.35,288.35 212.51,290.82 213.67,291.64 214.83,292.45 215.99,293.25 217.15,294.05 218.31,294.05 219.47,294.85 220.63,294.85 221.79,295.64 222.95,295.64 224.11,295.64 225.27,296.42 226.43,296.42 227.59,297.21 228.75,297.21 229.91,297.21 231.07,297.21 232.23,297.21 233.39,297.21 234.55,297.21 235.71,297.21 236.86,297.21 238.02,297.21 239.18,296.42 240.34,296.42 241.50,295.64 242.66,295.64 243.82,295.64 244.98,295.64 246.14,294.85 247.30,295.64 248.46,295.64 249.62,295.64 250.78,295.64 251.94,295.64 253.10,295.64 254.26,295.64 255.42,295.64 256.58,295.64 257.74,295.64 258.90,296.42 260.06,296.42 261.22,296.42 262.38,298.76 271.65,240.18 272.81,246.72 273.97,249.91 275.13,250.96 276.29,250.96 277.45,252.00 278.61,252.00 279.77,252.00 280.93,252.00 282.09,252.00 283.25,252.00 284.41,250.96 285.57,250.96 286.73,250.96 287.89,250.96 289.05,249.91 290.21,249.91 291.37,248.85 292.53,248.85 293.69,247.79 294.84,246.72 296.00,246.72 297.16,245.65 298.32,245.65 299.48,244.57 300.64,244.57 301.80,244.57 302.96,244.57 304.12,244.57 305.28,244.57 306.44,244.57 307.60,245.65 308.76,245.65 309.92,246.72 311.08,246.72 312.24,247.79 313.40,247.79 314.56,247.79 315.72,248.85 316.88,249.91 318.04,250.96 319.20,252.00 320.36,254.07 321.52,257.13 322.68,260.14 327.31,234.56 328.47,229.94 329.63,232.26 330.79,233.41 331.95,234.56 333.11,235.70 334.27,235.70 335.43,236.83 336.59,236.83 337.75,237.95 338.91,237.95 340.07,237.95 341.23,237.95 342.39,239.07 343.55,240.18 344.71,240.18 345.87,240.18 347.03,240.18 348.19,240.18 349.35,240.18 350.51,240.18 351.67,240.18 352.82,240.18 353.98,240.18 355.14,240.18 356.30,239.07 357.46,239.07 358.62,239.07 359.78,239.07 360.94,239.07 362.10,239.07 363.26,239.07 364.42,240.18 365.58,240.18 366.74,240.18 367.90,240.18 369.06,240.18 370.22,240.18 371.38,240.18 372.54,240.18 373.70,240.18 374.86,239.07 376.02,239.07 377.18,237.95 378.34,237.95 379.50,236.83 380.66,235.70 381.81,235.70 382.97,234.56 384.13,233.41 385.29,233.41 386.45,232.26 387.61,231.10 388.77,229.94 389.93,229.94 391.09,228.77 392.25,227.59 393.41,227.59 394.57,226.40 395.73,226.40 396.89,226.40 398.05,225.21 399.21,225.21 400.37,226.40 401.53,226.40 402.69,226.40 403.85,226.40 405.01,226.40 406.17,226.40 407.33,227.59 408.49,228.77 409.65,229.94 410.80,231.10 411.96,233.41 413.12,239.07 418.92,222.80 420.08,219.14 421.24,217.91 422.40,217.91 423.56,219.14 424.72,219.14 425.88,220.37 427.04,220.37 428.20,221.59 429.36,221.59 430.52,221.59 431.68,221.59 432.84,221.59 434.00,222.80 435.16,222.80 436.32,222.80 437.48,222.80 438.64,222.80 439.79,222.80 440.95,222.80 442.11,222.80 443.27,221.59 444.43,221.59 445.59,221.59 446.75,221.59 447.91,221.59 449.07,221.59 450.23,222.80 451.39,222.80 452.55,222.80 453.71,224.01 454.87,224.01 456.03,225.21 457.19,225.21 458.35,225.21 459.51,225.21 460.67,225.21 461.83,225.21 462.99,225.21 464.15,225.21 465.31,225.21 466.47,225.21 467.62,225.21 468.78,224.01 469.94,224.01 471.10,224.01 472.26,224.01 473.42,224.01 474.58,225.21 489.66,229.94 490.82,239.07 491.98,244.57 493.14,246.72 494.30,247.79 495.46,247.79 496.61,247.79 497.77,247.79 498.93,247.79 500.09,246.72 501.25,246.72 502.41,246.72 503.57,246.72 504.73,246.72 505.89,246.72 507.05,245.65 508.21,245.65 509.37,245.65 510.53,245.65 511.69,245.65 512.85,245.65 514.01,245.65 515.17,245.65 516.33,245.65 517.49,245.65 518.65,245.65 519.81,245.65 520.97,245.65 522.13,244.57 523.29,244.57 524.45,244.57 525.60,244.57 526.76,243.48 527.92,243.48 529.08,243.48 530.24,243.48 531.40,243.48 532.56,243.48 533.72,243.48 534.88,243.48 536.04,243.48 537.20,243.48 538.36,242.39 616.05,272.59 617.21,279.80 618.37,279.80 619.53,279.80 620.69,279.80 621.85,278.91 623.01,278.03 624.17,277.13 625.33,276.23 626.49,276.23 627.65,275.33 628.81,275.33 629.97,274.42 631.13,274.42 632.29,273.51 633.45,273.51 634.61,272.59 635.77,272.59 636.93,271.66 638.09,271.66 639.25,271.66 640.41,270.73 641.56,270.73 642.72,269.80 643.88,269.80 645.04,269.80 646.20,268.86 647.36,268.86 648.52,268.86 649.68,267.91 650.84,267.91 652.00,267.91 653.16,266.96 654.32,266.96 655.48,266.96 656.64,266.96 657.80,266.96 658.96,266.00 660.12,266.00 661.28,266.00 662.44,266.00 663.60,266.00 664.76,265.04 665.92,265.04 667.08,264.07 668.24,264.07 669.40,263.10 670.55,263.10 671.71,263.10 672.87,262.12 674.03,262.12 675.19,262.12 676.35,262.12 677.51,262.12 678.67,262.12 679.83,262.12 680.99,262.12 682.15,263.10 683.31,263.10 684.47,264.07 685.63,264.07 686.79,265.04 687.95,265.04 689.11,266.00 690.27,266.00 691.43,266.00 692.59,266.96 693.75,266.96 694.91,266.96 696.07,266.96 697.23,266.96 698.39,266.00 699.54,266.00 700.70,266.00 701.86,266.00 703.02,265.04 704.18,265.04 705.34,265.04 706.50,265.04 707.66,265.04 708.82,265.04 709.98,265.04 711.14,265.04 712.30,265.04 713.46,265.04 714.62,265.04 715.78,265.04 716.94,265.04 718.10,265.04 719.26,266.00 720.42,266.00 721.58,266.96 722.74,266.96 723.90,267.91 725.06,268.86 726.22,268.86 727.38,269.80 728.53,271.66 729.69,275.33 730.85,279.80 732.01,284.14 733.17,286.68 734.33,287.52 735.49,285.84 736.65,284.99 737.81,284.14 738.97,282.42 740.13,281.55 741.29,280.67 742.45,279.80 743.61,278.91 744.77,278.03 745.93,277.13 747.09,276.23 748.25,275.33 749.41,275.33 750.57,274.42 751.73,274.42 752.89,274.42 754.05,273.51 755.21,273.51 756.36,273.51 757.52,274.42 758.68,274.42 759.84,274.42 761.00,274.42 762.16,274.42 763.32,274.42 764.48,275.33 765.64,275.33 766.80,275.33 767.96,275.33 769.12,275.33 770.28,275.33 771.44,275.33 772.60,276.23 773.76,276.23 774.92,276.23 776.08,276.23 777.24,277.13 778.40,277.13 779.56,277.13 780.72,277.13 781.88,278.03 783.04,278.03 784.20,278.91 785.35,278.91 786.51,279.80 787.67,279.80 788.83,276.23 789.99,273.51 791.15,273.51 792.31,273.51 793.47,273.51 794.63,273.51 795.79,273.51 796.95,273.51 798.11,273.51 799.27,273.51 800.43,273.51 801.59,273.51 802.75,274.42 803.91,274.42 805.07,274.42 806.23,274.42 807.39,274.42 808.55,275.33 809.71,275.33 810.87,275.33 812.03,275.33 813.19,275.33 814.34,276.23 815.50,276.23 816.66,276.23 817.82,276.23 818.98,277.13 820.14,277.13 821.30,277.13 822.46,277.13 823.62,277.13 824.78,278.03 825.94,278.03 827.10,278.03 828.26,278.03 829.42,278.03 830.58,278.03 831.74,278.03 832.90,278.03 834.06,278.03 835.22,278.03 836.38,278.03 837.54,278.03 838.70,278.03 839.86,278.03 841.02,278.91 842.18,278.91 843.33,278.91 844.49,278.91 845.65,279.80 846.81,280.67 847.97,282.42 849.13,284.14 850.29,288.35 851.45,290.82 852.61,290.82 853.77,290.82 854.93,290.82 856.09,292.45 857.25,294.05 858.41,294.85 859.57,295.64 860.73,295.64 861.89,295.64 863.05,295.64 864.21,295.64 865.37,294.85 866.53,294.85 867.69,294.85 868.85,294.85 870.01,294.85 871.17,294.05 872.32,293.25 873.48,293.25 874.64,292.45 875.80,292.45 876.96,292.45 878.12,292.45 879.28,292.45 880.44,292.45 881.60,292.45 882.76,292.45 883.92,292.45 885.08,292.45 886.24,292.45 887.40,292.45 888.56,292.45 889.72,292.45 890.88,292.45 892.04,292.45 893.20,292.45 894.36,292.45 895.52,292.45 896.68,292.45 897.84,292.45 899.00,292.45 900.16,292.45 901.31,293.25 902.47,293.25 903.63,293.25 904.79,294.05 905.95,294.05 907.11,294.85 908.27,294.85 909.43,294.85 910.59,293.25 911.75,290.82 912.91,290.00 914.07,289.18 915.23,289.18 916.39,288.35 917.55,288.35 918.71,288.35 919.87,288.35 921.03,288.35 922.19,289.18 923.35,289.18 924.51,289.18 925.67,289.18 926.83,290.00 927.99,290.00 929.15,290.82 930.30,291.64 931.46,292.45 932.62,292.45 933.78,293.25 934.94,294.05 936.10,294.05 937.26,294.85 938.42,295.64 939.58,295.64 940.74,296.42 941.90,296.42 943.06,297.21 944.22,297.21 945.38,297.21 946.54,297.21 947.70,297.21 948.86,297.98 950.02,297.98 951.18,297.98 952.34,297.98 953.50,297.98 954.66,298.76 955.82,298.76 956.98,298.76 958.13,298.76 959.29,298.76 960.45,298.76 961.61,299.53 962.77,299.53 963.93,299.53 965.09,300.29 966.25,300.29 967.41,301.05 968.57,301.80 969.73,303.30 970.89,304.05 972.05,305.52 973.21,306.25 974.37,305.52 997.56,388.43 998.72,388.43 999.88,388.43 1001.04,388.43 1002.20,388.43 1003.36,388.43 1004.52,388.43 1005.68,388.43 1006.84,388.43 1008.00,388.43 1009.16,388.43 1010.32,388.69 1011.48,388.69 1012.64,388.43 1013.80,388.43 1014.96,388.43 1016.11,388.43 1017.27,388.43 1018.43,388.43 1019.59,388.43 1020.75,388.43 1021.91,388.43 1023.07,388.43 1024.23,388.43 1025.39,388.18 1026.55,388.18 1027.71,388.18 1028.87,388.18 1030.03,388.18 1031.19,387.93 1032.35,387.93 1033.51,387.93 1034.67,387.93 1035.83,387.93 1036.99,387.93 1038.15,387.93 1039.31,387.93 1040.47,387.93 1041.63,388.18 1042.79,388.94 1043.95,389.68 1045.10,390.17 1046.26,389.93 1047.42,388.43 1048.58,386.89 1049.74,386.63 1050.90,386.89 1052.06,384.75 1053.22,383.92 1054.38,384.47 1055.54,384.20 1056.70,384.47 1057.86,384.20 1059.02,383.64 1060.18,383.92 1061.34,383.92 1062.50,384.47 1063.66,383.36 1064.82,382.22 1065.98,384.47 1067.14,384.75 1068.30,383.92 1069.46,383.36" fill="none" stroke="#dc2626" stroke-width="1.5" stroke-dasharray="5 4"/>
<line x1="78" y1="382.50" x2="1070" y2="382.50" stroke="#eee" />
<text x="1075" y="386.50" font-family="Arial" font-size="10" fill="#666">55</text>
<line x1="78" y1="373.46" x2="1070" y2="373.46" stroke="#eee" />
<text x="1075" y="377.46" font-family="Arial" font-size="10" fill="#666">65</text>
<line x1="78" y1="358.10" x2="1070" y2="358.10" stroke="#eee" />
<text x="1075" y="362.10" font-family="Arial" font-size="10" fill="#666">82</text>
<line x1="78" y1="343.64" x2="1070" y2="343.64" stroke="#eee" />
<text x="1075" y="347.64" font-family="Arial" font-size="10" fill="#666">98</text>
<line x1="78" y1="332.80" x2="1070" y2="332.80" stroke="#eee" />
<text x="1075" y="336.80" font-family="Arial" font-size="10" fill="#666">110</text>
<line x1="78" y1="313.82" x2="1070" y2="313.82" stroke="#eee" />
<text x="1075" y="317.82" font-family="Arial" font-size="10" fill="#666">131</text>
<line x1="78" y1="299.36" x2="1070" y2="299.36" stroke="#eee" />
<text x="1075" y="303.36" font-family="Arial" font-size="10" fill="#666">147</text>
<line x1="78" y1="283.10" x2="1070" y2="283.10" stroke="#eee" />
<text x="1075" y="287.10" font-family="Arial" font-size="10" fill="#666">165</text>
<line x1="78" y1="255.08" x2="1070" y2="255.08" stroke="#eee" />
<text x="1075" y="259.08" font-family="Arial" font-size="10" fill="#666">196</text>
<line x1="78" y1="233.39" x2="1070" y2="233.39" stroke="#eee" />
<text x="1075" y="237.39" font-family="Arial" font-size="10" fill="#666">220</text>
<line x1="78" y1="195.44" x2="1070" y2="195.44" stroke="#eee" />
<text x="1075" y="199.44" font-family="Arial" font-size="10" fill="#666">262</text>
<rect x="78.00" y="472" width="1.16" height="23" fill="#2563eb" opacity="0.75" />
<rect x="89.60" y="472" width="61.46" height="23" fill="#2563eb" opacity="0.75" />
<rect x="156.85" y="472" width="169.30" height="23" fill="#2563eb" opacity="0.75" />
<rect x="327.31" y="472" width="88.13" height="23" fill="#2563eb" opacity="0.75" />
<rect x="420.08" y="472" width="57.98" height="23" fill="#2563eb" opacity="0.75" />
<rect x="491.98" y="472" width="97.41" height="23" fill="#2563eb" opacity="0.75" />
<rect x="599.82" y="472" width="11.60" height="23" fill="#2563eb" opacity="0.75" />
<rect x="618.37" y="472" width="439.49" height="23" fill="#2563eb" opacity="0.75" />
<rect x="89.60" y="518" width="5.80" height="23" fill="#dc2626" opacity="0.75" />
<rect x="118.59" y="518" width="26.67" height="23" fill="#dc2626" opacity="0.75" />
<rect x="156.85" y="518" width="49.86" height="23" fill="#dc2626" opacity="0.75" />
<rect x="209.03" y="518" width="54.50" height="23" fill="#dc2626" opacity="0.75" />
<rect x="271.65" y="518" width="52.18" height="23" fill="#dc2626" opacity="0.75" />
<rect x="327.31" y="518" width="86.97" height="23" fill="#dc2626" opacity="0.75" />
<rect x="418.92" y="518" width="56.82" height="23" fill="#dc2626" opacity="0.75" />
<rect x="489.66" y="518" width="49.86" height="23" fill="#dc2626" opacity="0.75" />
<rect x="616.05" y="518" width="359.48" height="23" fill="#dc2626" opacity="0.75" />
<rect x="997.56" y="518" width="73.05" height="23" fill="#dc2626" opacity="0.75" />
<text x="78" y="468" font-family="Arial" font-size="11" fill="#2563eb">checkpoint</text>
<text x="78" y="514" font-family="Arial" font-size="11" fill="#dc2626">baseline pyin</text>
<text x="678" y="416" font-family="Arial" font-size="12" fill="#2563eb">checkpoint f0</text>
<text x="808" y="416" font-family="Arial" font-size="12" fill="#dc2626">baseline f0</text>
<line x1="78.00" y1="575" x2="78.00" y2="582" stroke="#666" />
<text x="66.00" y="598" font-family="Arial" font-size="10" fill="#666">0.0s</text>
<line x1="243.33" y1="575" x2="243.33" y2="582" stroke="#666" />
<text x="231.33" y="598" font-family="Arial" font-size="10" fill="#666">1.4s</text>
<line x1="408.67" y1="575" x2="408.67" y2="582" stroke="#666" />
<text x="396.67" y="598" font-family="Arial" font-size="10" fill="#666">2.9s</text>
<line x1="574.00" y1="575" x2="574.00" y2="582" stroke="#666" />
<text x="562.00" y="598" font-family="Arial" font-size="10" fill="#666">4.3s</text>
<line x1="739.33" y1="575" x2="739.33" y2="582" stroke="#666" />
<text x="727.33" y="598" font-family="Arial" font-size="10" fill="#666">5.7s</text>
<line x1="904.67" y1="575" x2="904.67" y2="582" stroke="#666" />
<text x="892.67" y="598" font-family="Arial" font-size="10" fill="#666">7.1s</text>
<line x1="1070.00" y1="575" x2="1070.00" y2="582" stroke="#666" />
<text x="1058.00" y="598" font-family="Arial" font-size="10" fill="#666">8.6s</text>
</svg>