<svg xmlns="http://www.w3.org/2000/svg" width="1100" height="620" viewBox="0 0 1100 620">
<rect width="100%" height="100%" fill="white" />
<text x="78" y="26" font-family="Arial" font-size="18" font-weight="700" fill="#111">Baseline comparison: 04_pitch_slide</text>
<text x="18" y="95.0" font-family="Arial" font-size="12" fill="#444">Waveform</text>
<rect x="78" y="50" width="992" height="90" fill="none" stroke="#eee" />
<line x1="78" y1="140" x2="1070" y2="140" stroke="#ddd" />
<text x="18" y="292.5" font-family="Arial" font-size="12" fill="#444">F0: checkpoint vs baseline</text>
<rect x="78" y="190" width="992" height="205" fill="none" stroke="#eee" />
<line x1="78" y1="395" x2="1070" y2="395" stroke="#ddd" />
<text x="18" y="505.0" font-family="Arial" font-size="12" fill="#444">Voiced mask</text>
<rect x="78" y="450" width="992" height="110" fill="none" stroke="#eee" />
<line x1="78" y1="560" x2="1070" y2="560" stroke="#ddd" />
<polyline points="78.00,95.00 78.70,95.00 79.41,95.00 80.12,95.00 80.83,95.00 81.55,95.00 82.25,95.00 82.96,95.00 83.67,95.00 84.38,95.00 85.09,95.42 85.79,94.75 86.50,95.15 87.21,94.68 87.92,94.90 88.64,95.07 89.34,95.10 90.05,95.00 90.76,94.96 91.47,95.07 92.18,95.11 92.88,95.44 93.59,94.78 94.30,94.97 95.01,95.29 95.73,95.11 96.43,95.24 97.14,95.17 97.85,94.07 98.56,95.34 99.27,94.32 99.97,94.75 100.68,93.16 101.39,94.67 102.10,95.50 102.82,95.29 103.53,93.84 104.23,96.73 104.94,94.24 105.65,94.63 106.36,94.99 107.07,95.02 107.77,95.60 108.48,94.02 109.19,95.48 109.91,95.32 110.62,95.20 111.32,94.85 112.03,95.45 112.74,94.89 113.45,94.77 114.16,95.61 114.86,94.75 115.57,95.35 116.29,94.61 117.00,95.15 117.71,94.71 118.41,94.61 119.12,95.72 119.83,94.95 120.54,95.02 121.25,94.71 121.95,95.20 122.66,95.09 123.38,95.60 124.09,94.81 124.80,94.28 125.51,95.40 126.21,94.86 126.92,95.08 127.63,94.94 128.34,95.16 129.05,94.78 129.75,95.65 130.47,95.04 131.18,94.84 131.89,95.33 132.60,94.58 133.30,94.81 134.01,94.62 134.72,95.11 135.43,94.56 136.14,94.78 136.84,95.37 137.56,95.18 138.27,94.74 138.98,95.45 139.69,95.08 140.39,95.14 141.10,94.41 141.81,95.56 142.52,95.06 143.23,95.21 143.93,95.36 144.65,94.40 145.36,94.75 146.07,95.17 146.78,95.45 147.49,94.63 148.19,94.50 148.90,95.54 149.61,95.18 150.32,94.92 151.03,94.74 151.74,95.94 152.45,94.65 153.16,94.89 153.87,94.74 154.58,96.40 155.28,94.59 155.99,93.52 156.70,94.73 157.41,95.31 158.12,94.98 158.83,95.79 159.54,94.65 160.25,94.69 160.96,94.97 161.67,95.26 162.37,94.77 163.08,95.95 163.79,95.74 164.50,93.50 165.21,95.02 165.92,96.00 166.63,94.92 167.34,94.54 168.05,94.70 168.76,94.44 169.47,95.71 170.17,94.58 170.88,96.52 171.59,94.29 172.30,95.64 173.02,94.71 173.72,95.76 174.43,94.48 175.14,95.43 175.85,94.73 176.56,95.38 177.26,94.58 177.97,95.29 178.68,95.49 179.39,94.66 180.11,94.72 180.81,95.77 181.52,95.26 182.23,94.37 182.94,95.48 183.65,95.53 184.35,94.42 185.06,94.62 185.77,95.37 186.48,95.33 187.20,95.51 187.90,94.93 188.61,95.19 189.32,95.25 190.03,95.73 190.74,94.09 191.45,94.72 192.15,95.39 192.86,94.75 193.57,95.15 194.29,95.57 195.00,94.93 195.70,95.09 196.41,94.77 197.12,95.35 197.83,94.79 198.54,95.07 199.24,93.65 199.95,96.01 200.66,95.06 201.38,95.23 202.09,94.42 202.79,95.65 203.50,94.05 204.21,95.04 204.92,94.68 205.63,95.80 206.33,94.10 207.04,95.12 207.76,95.04 208.47,95.37 209.18,94.77 209.88,94.73 210.59,94.57 211.30,94.72 212.01,95.37 212.72,95.30 213.43,94.60 214.13,93.93 214.85,95.82 215.56,95.57 216.27,92.24 216.98,92.69 217.68,94.87 218.39,95.33 219.10,89.30 219.81,93.88 220.52,96.03 221.22,95.89 221.94,98.00 222.65,90.95 223.36,100.82 224.07,83.80 224.77,91.09 225.48,94.46 226.19,94.01 226.90,89.74 227.61,101.71 228.31,104.35 229.03,97.58 229.74,100.08 230.45,95.10 231.16,89.55 231.86,88.73 232.57,95.65 233.28,84.00 233.99,91.65 234.70,88.57 235.40,102.66 236.12,95.25 236.83,96.85 237.54,101.51 238.25,81.70 238.96,98.39 239.66,99.83 240.37,92.85 241.08,94.36 241.79,93.28 242.50,104.28 243.21,77.49 243.92,90.70 244.63,101.30 245.34,107.10 246.05,96.66 246.75,93.85 247.46,103.21 248.17,104.11 248.88,86.71 249.59,81.97 250.30,88.01 251.01,94.80 251.72,99.05 252.43,109.39 253.14,103.83 253.84,85.39 254.55,72.97 255.26,70.96 255.97,76.76 256.68,84.45 257.39,93.08 258.10,95.32 258.81,93.59 259.52,97.56 260.23,100.41 260.94,106.58 261.64,108.05 262.35,110.35 263.06,111.76 263.77,112.48 264.49,112.73 265.19,112.19 265.90,110.37 266.61,111.32 267.32,108.04 268.03,108.56 268.73,103.18 269.44,102.93 270.15,101.79 270.86,103.44 271.58,102.57 272.28,100.21 272.99,99.31 273.70,100.89 274.41,99.99 275.12,100.35 275.82,98.57 276.53,98.55 277.24,98.02 277.95,99.69 278.67,100.54 279.37,100.79 280.08,101.50 280.79,104.92 281.50,106.87 282.21,109.57 282.92,109.90 283.62,111.30 284.33,109.89 285.04,108.42 285.76,104.10 286.47,93.00 287.17,83.44 287.88,73.29 288.59,59.99 289.30,68.18 290.01,82.83 290.71,98.58 291.42,113.69 292.14,117.30 292.85,108.92 293.56,95.51 294.26,84.15 294.97,65.30 295.68,65.94 296.39,97.21 297.10,121.64 297.80,125.19 298.51,107.95 299.23,91.59 299.94,78.10 300.65,84.46 301.35,96.88 302.06,114.20 302.77,119.54 303.48,117.29 304.19,96.20 304.90,73.93 305.60,54.50 306.32,54.84 307.03,73.47 307.74,101.43 308.45,121.40 309.15,122.95 309.86,116.66 310.57,112.36 311.28,101.88 311.99,92.46 312.69,85.64 313.41,75.41 314.12,63.73 314.83,68.47 315.54,76.86 316.24,89.60 316.95,104.89 317.66,116.21 318.37,114.72 319.08,108.02 319.78,100.63 320.50,95.74 321.21,90.61 321.92,96.16 322.63,97.26 323.33,99.96 324.04,104.57 324.75,109.02 325.46,110.75 326.17,90.69 326.88,73.16 327.59,62.31 328.30,72.39 329.01,94.04 329.72,112.64 330.43,116.42 331.13,111.58 331.84,99.04 332.55,75.00 333.26,65.24 333.97,81.59 334.68,104.28 335.39,116.77 336.10,110.87 336.81,102.60 337.52,94.20 338.22,88.77 338.93,91.31 339.64,101.01 340.35,111.76 341.06,103.48 341.77,91.55 342.48,73.53 343.19,67.96 343.90,78.99 344.61,99.09 345.31,110.24 346.02,112.06 346.73,108.47 347.44,99.02 348.15,83.21 348.87,65.47 349.57,68.66 350.28,88.63 350.99,110.62 351.70,119.54 352.41,106.73 353.11,102.10 353.82,90.63 354.53,88.53 355.24,92.90 355.96,105.85 356.66,112.73 357.37,91.22 358.08,69.96 358.79,77.66 359.50,94.77 360.20,104.51 360.91,109.22 361.62,100.42 362.33,72.77 363.05,71.54 363.75,95.79 364.46,113.06 365.17,106.53 365.88,100.23 366.59,93.33 367.29,95.36 368.00,104.38 368.71,80.61 369.42,76.62 370.14,100.65 370.84,103.84 371.55,105.62 372.26,83.77 372.97,70.52 373.68,99.92 374.39,114.37 375.09,108.89 375.80,101.06 376.52,93.47 377.23,94.27 377.94,104.01 378.64,92.92 379.35,69.84 380.06,82.96 380.77,105.96 381.48,108.66 382.18,104.56 382.89,81.75 383.61,71.37 384.32,100.38 385.03,114.47 385.73,109.32 386.44,100.74 387.15,94.01 387.86,93.38 388.57,100.87 389.27,108.73 389.98,88.24 390.70,69.10 391.41,74.45 392.12,90.27 392.82,104.96 393.53,109.19 394.24,112.35 394.95,100.59 395.66,79.85 396.37,66.13 397.07,69.72 397.79,98.16 398.50,114.14 399.21,118.05 399.92,103.16 400.62,96.01 401.33,88.16 402.04,90.31 402.75,99.36 403.46,111.36 404.16,111.75 404.88,86.12 405.59,65.79 406.30,84.23 407.01,104.49 407.71,107.45 408.42,108.70 409.13,89.00 409.84,69.09 410.55,92.77 411.25,112.47 411.97,115.34 412.68,104.19 413.39,93.56 414.10,93.30 414.80,101.42 415.51,98.96 416.22,72.94 416.93,75.17 417.64,98.88 418.35,105.02 419.06,108.65 419.77,93.97 420.48,65.06 421.19,73.06 421.90,107.70 422.60,117.46 423.31,106.51 424.02,96.65 424.73,92.06 425.44,96.65 426.15,107.33 426.86,88.35 427.57,68.28 428.28,94.21 428.99,107.53 429.69,112.06 430.40,96.73 431.11,63.47 431.82,79.14 432.53,114.48 433.24,117.14 433.95,104.19 434.66,94.11 435.37,93.39 436.08,105.12 436.78,90.71 437.49,65.21 438.20,84.33 438.91,109.87 439.62,111.61 440.34,102.16 441.04,85.78 441.75,67.83 442.46,84.90 443.17,112.68 443.88,118.42 444.58,106.26 445.29,94.32 446.00,91.66 446.71,95.47 447.43,106.24 448.13,108.99 448.84,82.79 449.55,68.56 450.26,89.17 450.97,108.65 451.67,109.74 452.38,108.74 453.09,92.57 453.80,65.92 454.52,71.49 455.22,97.28 455.93,116.30 456.64,117.32 457.35,102.51 458.06,90.08 458.76,90.78 459.47,93.43 460.18,106.01 460.90,107.41 461.61,79.71 462.32,66.72 463.02,85.95 463.73,107.05 464.44,112.50 465.15,107.24 465.86,88.27 466.56,64.53 467.27,74.42 467.99,107.15 468.70,120.01 469.41,107.33 470.11,98.76 470.82,92.17 471.53,91.72 472.24,102.14 472.95,108.83 473.65,87.73 474.36,67.59 475.08,90.24 475.79,108.22 476.50,110.95 477.20,103.17 477.91,77.55 478.62,69.24 479.33,98.05 480.04,117.02 480.74,115.33 481.45,104.28 482.17,91.30 482.88,90.94 483.59,102.77 484.30,112.59 485.00,86.26 485.71,64.26 486.42,86.25 487.13,107.12 487.84,108.59 488.54,107.54 489.26,87.08 489.97,67.89 490.68,92.50 491.39,116.54 492.09,115.57 492.80,103.86 493.51,91.02 494.22,90.50 494.93,106.24 495.63,91.28 496.35,69.04 497.06,83.38 497.77,105.14 498.48,109.29 499.18,106.98 499.89,81.93 500.60,72.85 501.31,99.08 502.02,113.00 502.73,109.97 503.44,100.28 504.15,92.36 504.86,95.32 505.57,106.06 506.27,86.46 506.98,71.07 507.69,90.88 508.40,106.29 509.11,108.98 509.82,89.80 510.53,66.10 511.24,87.53 511.95,114.72 512.66,111.81 513.37,99.94 514.07,90.01 514.78,95.07 515.49,102.76 516.20,75.16 516.91,85.32 517.62,106.25 518.33,106.24 519.04,86.16 519.75,78.37 520.46,113.53 521.16,113.90 521.87,102.03 522.58,93.24 523.29,101.46 524.00,88.63 524.71,72.41 525.42,94.52 526.13,104.32 526.84,100.87 527.55,68.02 528.25,81.65 528.96,116.80 529.67,105.89 530.38,95.87 531.09,92.19 531.81,102.55 532.51,91.19 533.22,70.96 533.93,91.19 534.64,105.14 535.35,108.30 536.05,91.29 536.76,66.95 537.47,94.49 538.18,114.18 538.90,105.99 539.60,97.06 540.31,92.84 541.02,99.84 541.73,97.00 542.44,72.59 543.14,80.98 543.85,104.46 544.56,108.73 545.27,98.06 545.99,68.31 546.69,76.13 547.40,105.88 548.11,113.47 548.82,104.31 549.53,94.24 550.23,95.23 550.94,101.27 551.65,98.24 552.37,71.65 553.08,81.91 553.79,107.02 554.49,108.20 555.20,102.31 555.91,73.45 556.62,76.30 557.33,108.46 558.03,113.09 558.74,104.40 559.46,95.29 560.17,95.41 560.88,104.91 561.58,91.79 562.29,65.56 563.00,89.18 563.71,109.82 564.42,108.70 565.12,91.40 565.83,67.87 566.55,106.17 567.26,115.50 567.97,104.48 568.67,93.18 569.38,99.07 570.09,88.00 570.80,73.21 571.51,99.77 572.21,102.22 572.92,100.00 573.64,65.49 574.35,88.90 575.06,116.15 575.77,104.79 576.47,98.39 577.18,90.41 577.89,105.26 578.60,88.15 579.31,71.18 580.01,92.01 580.73,104.70 581.44,107.00 582.15,83.87 582.86,72.71 583.56,102.67 584.27,114.76 584.98,102.93 585.69,93.27 586.40,92.79 587.11,106.28 587.82,86.19 588.53,71.12 589.24,97.59 589.95,103.95 590.65,104.34 591.36,75.14 592.07,77.54 592.78,116.54 593.49,110.78 594.20,100.73 594.91,91.17 595.62,97.43 596.33,105.56 597.04,74.31 597.75,79.37 598.45,98.57 599.16,104.03 599.87,104.34 600.58,74.40 601.29,76.31 602.00,105.10 602.71,113.30 603.42,103.49 604.13,93.90 604.84,93.69 605.54,99.58 606.25,107.52 606.96,85.20 607.67,73.84 608.38,92.82 609.09,108.31 609.80,109.19 610.51,87.31 611.22,68.95 611.93,100.68 612.63,114.45 613.34,106.60 614.05,96.87 614.76,93.91 615.47,101.97 616.18,103.60 616.89,75.25 617.60,80.65 618.31,104.38 619.02,108.64 619.73,97.71 620.43,72.19 621.14,78.03 621.85,112.01 622.56,114.00 623.28,101.91 623.98,92.74 624.69,94.53 625.40,103.98 626.11,100.11 626.82,75.91 627.52,73.75 628.23,95.03 628.94,105.02 629.65,106.65 630.37,88.18 631.07,67.53 631.78,83.97 632.49,111.02 633.20,112.90 633.91,100.89 634.61,93.47 635.32,94.65 636.03,105.47 636.75,85.11 637.46,68.71 638.16,88.96 638.87,111.10 639.58,110.15 640.29,91.94 641.00,65.93 641.71,87.69 642.41,114.42 643.12,113.46 643.84,101.10 644.55,91.19 645.26,96.28 645.96,104.49 646.67,95.21 647.38,69.48 648.09,79.12 648.80,103.36 649.50,107.24 650.21,104.06 650.93,83.97 651.64,72.28 652.35,100.16 653.05,112.32 653.76,108.60 654.47,96.71 655.18,92.52 655.89,101.27 656.59,109.11 657.30,79.74 658.02,74.80 658.73,101.91 659.44,105.43 660.14,106.03 660.85,77.25 661.56,73.16 662.27,112.66 662.98,113.31 663.68,103.69 664.39,91.10 665.11,97.67 665.82,97.26 666.53,64.25 667.24,93.61 667.94,109.12 668.65,102.55 669.36,78.98 670.07,74.63 670.78,118.20 671.49,114.64 672.20,100.58 672.91,90.71 673.62,99.94 674.33,101.09 675.03,71.00 675.74,83.97 676.45,111.60 677.16,106.56 677.87,89.80 678.58,62.34 679.29,99.23 680.00,117.01 680.71,100.79 681.42,93.21 682.12,93.01 682.83,108.36 683.54,89.03 684.25,62.37 684.96,92.77 685.67,111.61 686.38,110.08 687.09,89.81 687.80,66.28 688.51,102.90 689.22,115.31 689.92,102.96 690.63,96.26 691.34,92.78 692.05,110.20 692.76,84.72 693.47,63.00 694.18,97.97 694.89,105.45 695.60,100.77 696.31,67.04 697.01,75.02 697.72,119.81 698.43,108.67 699.14,97.84 699.85,92.47 700.56,104.25 701.27,87.69 701.98,69.90 702.69,102.25 703.40,105.19 704.10,102.50 704.81,72.31 705.52,78.12 706.23,117.51 706.94,108.83 707.65,97.77 708.36,91.44 709.07,100.16 709.78,103.52 710.49,64.88 711.20,86.17 711.90,111.05 712.61,107.63 713.32,90.87 714.03,69.35 714.75,111.72 715.45,114.88 716.16,98.18 716.87,95.49 717.58,99.65 718.29,89.97 718.99,61.35 719.70,97.09 720.41,104.61 721.13,97.49 721.84,63.56 722.54,89.42 723.25,117.46 723.96,99.16 724.67,94.48 725.38,94.69 726.08,98.63 726.79,61.87 727.50,97.57 728.22,102.49 728.93,97.38 729.63,67.64 730.34,88.60 731.05,119.38 731.76,100.38 732.47,95.44 733.18,95.51 733.88,102.09 734.59,64.68 735.31,91.43 736.02,106.44 736.73,101.32 737.43,82.35 738.14,70.87 738.85,116.79 739.56,107.13 740.27,97.05 740.97,91.00 741.68,104.56 742.40,73.39 743.11,86.15 743.82,108.46 744.52,100.09 745.23,77.00 745.94,77.30 746.65,117.31 747.36,102.19 748.06,99.20 748.77,91.30 749.49,105.79 750.20,82.72 750.91,76.88 751.61,109.63 752.32,106.79 753.03,96.89 753.74,64.82 754.45,103.57 755.16,118.07 755.87,101.84 756.58,94.81 757.29,92.78 758.00,107.53 758.71,68.52 759.41,76.96 760.12,111.20 760.83,108.15 761.54,94.40 762.25,64.89 762.96,91.59 763.67,118.53 764.38,104.21 765.09,94.56 765.80,92.60 766.50,103.91 767.21,92.44 767.92,61.65 768.63,93.36 769.34,111.24 770.05,108.64 770.76,94.26 771.47,64.69 772.18,97.98 772.89,115.77 773.59,105.82 774.30,98.19 775.01,92.11 775.72,104.20 776.43,100.35 777.14,64.40 777.85,78.82 778.56,108.27 779.27,108.97 779.98,96.40 780.69,65.61 781.39,78.83 782.10,113.11 782.81,109.32 783.52,100.91 784.23,92.47 784.94,96.97 785.65,106.30 786.36,69.06 787.07,82.94 787.78,113.65 788.48,106.27 789.19,97.27 789.90,64.73 790.61,89.70 791.32,116.75 792.03,107.67 792.74,98.14 793.45,93.57 794.16,103.94 794.87,90.27 795.57,61.10 796.28,91.65 796.99,109.78 797.70,103.63 798.41,83.03 799.12,69.03 799.83,111.44 800.54,114.10 801.25,101.18 801.96,94.50 802.67,97.54 803.37,108.68 804.08,80.53 804.79,76.48 805.51,106.21 806.22,104.40 806.92,102.44 807.63,67.83 808.34,81.36 809.05,116.67 809.76,105.26 810.46,100.04 811.17,92.48 811.88,102.28 812.60,94.58 813.31,59.43 814.01,86.90 814.72,113.27 815.43,107.87 816.14,91.91 816.85,66.76 817.55,92.37 818.26,117.27 818.97,101.53 819.69,95.07 820.40,91.93 821.10,106.32 821.81,86.88 822.52,65.68 823.23,101.87 823.94,103.51 824.65,102.88 825.35,84.26 826.06,70.60 826.78,109.15 827.49,114.05 828.20,99.96 828.90,95.85 829.61,94.11 830.32,107.90 831.03,83.69 831.74,69.86 832.44,100.50 833.15,102.65 833.87,102.69 834.58,68.99 835.29,81.81 835.99,120.96 836.70,106.37 837.41,98.46 838.12,92.52 838.83,106.38 839.53,90.25 840.24,65.10 840.96,101.54 841.67,102.19 842.38,99.97 843.08,66.58 843.79,88.91 844.50,118.23 845.21,98.62 845.92,93.40 846.63,90.77 847.34,108.19 848.05,82.90 848.76,76.78 849.47,106.67 850.18,110.10 850.88,97.08 851.59,61.21 852.30,102.08 853.01,115.48 853.72,98.36 854.43,93.83 855.14,92.07 855.85,109.91 856.56,77.26 857.27,78.49 857.97,105.96 858.68,108.34 859.39,95.82 860.10,60.47 860.81,106.09 861.52,119.16 862.23,99.77 862.94,91.16 863.65,92.67 864.36,108.22 865.06,77.82 865.77,78.83 866.48,113.44 867.19,107.81 867.90,87.93 868.61,69.26 869.32,110.72 870.03,115.88 870.74,101.38 871.45,91.72 872.16,99.76 872.86,106.40 873.57,64.74 874.28,86.97 874.99,109.87 875.70,105.24 876.41,89.44 877.12,65.97 877.83,109.59 878.54,116.37 879.25,98.40 879.95,91.54 880.66,93.95 881.37,109.52 882.08,89.14 882.79,60.58 883.50,87.74 884.21,112.93 884.92,108.93 885.63,88.68 886.34,67.42 887.04,99.04 887.75,117.16 888.46,98.53 889.17,93.29 889.89,93.83 890.60,109.64 891.30,84.61 892.01,70.75 892.72,105.25 893.43,106.42 894.14,96.75 894.84,60.39 895.55,96.84 896.26,119.32 896.98,97.39 897.69,92.23 898.39,93.02 899.10,108.99 899.81,66.41 900.52,86.12 901.23,111.16 901.93,107.05 902.64,90.41 903.35,66.55 904.07,112.56 904.78,115.79 905.48,99.83 906.19,91.50 906.90,93.22 907.61,111.09 908.32,81.66 909.02,68.85 909.73,100.56 910.44,103.82 911.16,101.43 911.87,62.45 912.58,89.44 913.28,122.45 913.99,100.79 914.70,94.37 915.41,92.28 916.12,108.49 916.82,78.85 917.53,78.72 918.25,116.05 918.96,102.72 919.67,85.23 920.37,69.85 921.08,116.95 921.79,113.96 922.50,100.16 923.21,92.36 923.91,102.86 924.62,89.36 925.34,68.81 926.05,106.19 926.76,105.32 927.46,102.20 928.17,62.73 928.88,85.68 929.59,122.04 930.30,99.65 931.00,97.12 931.72,91.11 932.43,109.35 933.14,84.40 933.85,69.75 934.55,101.31 935.26,104.07 935.97,103.60 936.68,69.54 937.39,77.91 938.10,120.05 938.81,113.14 939.52,98.51 940.23,92.58 940.94,104.61 941.65,91.56 942.35,59.29 943.06,93.45 943.77,109.02 944.48,103.29 945.19,82.84 945.90,66.38 946.61,109.51 947.32,115.79 948.03,98.86 948.74,91.17 949.44,95.35 950.15,109.46 950.86,83.23 951.57,67.78 952.28,101.74 952.99,108.31 953.70,105.34 954.41,83.60 955.12,69.98 955.83,109.97 956.53,116.29 957.24,99.34 957.95,93.55 958.66,94.39 959.37,109.61 960.08,81.74 960.79,62.40 961.50,100.53 962.21,106.12 962.92,104.24 963.63,78.69 964.33,68.09 965.04,109.16 965.75,114.40 966.46,100.28 967.17,93.04 967.88,95.48 968.59,107.97 969.30,82.24 970.01,66.34 970.72,100.39 971.42,109.74 972.13,106.82 972.84,83.83 973.55,68.43 974.26,110.61 974.97,116.60 975.68,98.86 976.39,92.19 977.10,95.62 977.81,109.76 978.51,82.31 979.22,66.31 979.93,102.08 980.64,105.07 981.36,102.79 982.07,66.41 982.77,75.43 983.48,120.14 984.19,110.98 984.90,98.53 985.61,93.08 986.31,100.82 987.02,102.14 987.73,58.77 988.45,90.85 989.16,110.76 989.86,108.41 990.57,86.66 991.28,68.56 991.99,113.34 992.70,113.93 993.40,97.78 994.11,90.54 994.82,96.17 995.54,98.38 996.25,59.81 996.95,91.59 997.66,106.80 998.37,101.46 999.08,65.95 999.79,88.06 1000.49,124.35 1001.20,106.62 1001.91,94.07 1002.63,96.04 1003.34,109.81 1004.05,84.23 1004.75,70.58 1005.46,101.53 1006.17,107.32 1006.88,93.68 1007.59,58.11 1008.29,96.96 1009.00,117.72 1009.72,96.31 1010.43,89.24 1011.14,97.55 1011.84,93.15 1012.55,60.65 1013.26,95.38 1013.97,104.34 1014.68,95.69 1015.38,63.40 1016.10,88.48 1016.81,120.54 1017.52,101.58 1018.23,89.12 1018.93,95.19 1019.64,105.37 1020.35,65.54 1021.06,93.87 1021.77,106.01 1022.47,99.83 1023.19,69.44 1023.90,86.90 1024.61,114.30 1025.32,104.89 1026.03,96.32 1026.73,95.45 1027.44,101.76 1028.15,102.88 1028.86,91.87 1029.57,83.64 1030.28,80.09 1030.99,79.03 1031.70,105.60 1032.41,104.92 1033.12,82.86 1033.82,99.35 1034.53,104.15 1035.24,94.47 1035.95,96.35 1036.66,92.14 1037.37,96.79 1038.08,94.69 1038.79,96.58 1039.50,94.20 1040.21,95.38 1040.91,94.80 1041.62,95.84 1042.33,94.84 1043.04,93.95 1043.75,94.22 1044.46,95.26 1045.17,95.54 1045.88,95.19 1046.59,94.90 1047.30,94.64 1048.01,95.11 1048.71,95.06 1049.42,94.95 1050.13,95.01 1050.84,94.82 1051.55,95.35 1052.26,94.49 1052.97,95.55 1053.68,95.01 1054.39,95.20 1055.10,94.78 1055.80,94.77 1056.51,95.67 1057.22,93.92 1057.93,94.00 1058.64,96.75 1059.35,95.31 1060.06,95.06 1060.77,94.88 1061.48,95.46 1062.19,94.38 1062.89,95.66 1063.60,94.86 1064.31,95.26 1065.02,95.18 1065.74,94.62 1066.44,95.06 1067.15,94.97 1067.86,95.18 1068.57,94.99 1069.28,94.98 1069.99,95.00" fill="none" stroke="#444" stroke-width="1.0" />
<polyline points="78.00,356.08 111.11,354.53 112.55,354.53 113.99,354.53 115.43,352.95 116.87,352.95 118.31,354.53 119.75,354.53 121.19,354.53 122.63,354.53 124.07,354.53 125.51,354.53 126.95,352.95 128.39,352.95 129.83,352.95 131.27,352.95 132.71,354.53 134.15,354.53 135.58,354.53 138.46,356.08 141.34,356.08 142.78,357.59 144.22,357.59 154.30,354.53 155.74,356.08 157.18,356.08 158.62,357.59 160.06,357.59 161.50,357.59 162.94,357.59 164.38,372.48 165.82,372.48 167.26,372.48 168.70,359.08 170.14,359.08 171.58,372.48 173.02,372.48 174.45,372.48 175.89,372.48 177.33,372.48 178.77,372.48 180.21,372.48 181.65,372.48 183.09,372.48 184.53,372.48 185.97,372.48 187.41,372.48 188.85,372.48 190.29,372.48 191.73,372.48 193.17,372.48 194.61,372.48 196.05,372.48 197.49,372.48 198.93,372.48 200.37,372.48 201.81,354.53 203.25,354.53 204.69,354.53 206.13,354.53 209.01,354.53 210.45,352.95 211.89,352.95 213.32,354.53 214.76,190.00 216.20,190.00 217.64,190.00 219.08,190.00 220.52,190.00 221.96,190.00 223.40,190.00 224.84,190.00 226.28,190.00 227.72,190.00 229.16,190.00 230.60,190.00 232.04,288.33 233.48,288.33 234.92,285.46 236.36,282.54 237.80,279.57 239.24,273.44 240.68,267.07 242.12,267.07 243.56,263.80 245.00,257.05 246.44,257.05 247.88,253.58 249.32,253.58 250.75,250.04 252.19,250.04 253.63,250.04 255.07,250.04 256.51,246.43 257.95,246.43 259.39,246.43 260.83,242.76 262.27,242.76 263.71,242.76 265.15,242.76 266.59,242.76 268.03,242.76 269.47,242.76 270.91,239.01 272.35,239.01 273.79,239.01 275.23,239.01 276.67,239.01 278.11,239.01 279.55,239.01 280.99,239.01 282.43,239.01 283.87,239.01 285.31,235.19 286.75,235.19 288.19,235.19 289.62,235.19 291.06,235.19 292.50,235.19 293.94,231.29 295.38,231.29 296.82,231.29 298.26,231.29 299.70,231.29 301.14,231.29 302.58,231.29 304.02,231.29 305.46,235.19 306.90,235.19 308.34,235.19 309.78,235.19 311.22,235.19 312.66,235.19 314.10,235.19 315.54,235.19 316.98,235.19 318.42,235.19 319.86,235.19 321.30,235.19 322.74,235.19 324.18,231.29 325.62,231.29 327.05,231.29 328.49,231.29 329.93,231.29 331.37,231.29 332.81,231.29 334.25,231.29 335.69,231.29 337.13,231.29 338.57,231.29 340.01,231.29 341.45,231.29 342.89,231.29 344.33,231.29 345.77,231.29 347.21,231.29 348.65,231.29 350.09,231.29 351.53,231.29 352.97,231.29 354.41,231.29 355.85,231.29 357.29,231.29 358.73,231.29 360.17,227.32 361.61,227.32 363.05,227.32 364.49,227.32 365.92,227.32 367.36,227.32 368.80,227.32 370.24,227.32 371.68,227.32 373.12,227.32 374.56,227.32 376.00,227.32 377.44,227.32 378.88,227.32 380.32,227.32 381.76,227.32 383.20,227.32 384.64,227.32 386.08,227.32 387.52,227.32 388.96,227.32 390.40,227.32 391.84,231.29 393.28,231.29 394.72,231.29 396.16,231.29 397.60,231.29 399.04,231.29 400.48,231.29 401.92,231.29 403.36,231.29 404.79,231.29 406.23,227.32 407.67,227.32 409.11,227.32 410.55,227.32 411.99,227.32 413.43,227.32 414.87,227.32 416.31,227.32 417.75,227.32 419.19,227.32 420.63,227.32 422.07,227.32 423.51,227.32 424.95,227.32 426.39,227.32 427.83,227.32 429.27,227.32 430.71,227.32 432.15,227.32 433.59,227.32 435.03,227.32 436.47,227.32 437.91,227.32 439.35,227.32 440.79,227.32 442.22,227.32 443.66,227.32 445.10,227.32 446.54,227.32 447.98,227.32 449.42,227.32 450.86,227.32 452.30,227.32 453.74,227.32 455.18,227.32 456.62,227.32 458.06,227.32 459.50,227.32 460.94,227.32 462.38,227.32 463.82,227.32 465.26,227.32 466.70,227.32 468.14,227.32 469.58,227.32 471.02,227.32 472.46,227.32 473.90,227.32 475.34,227.32 476.78,227.32 478.22,227.32 479.66,227.32 481.09,227.32 482.53,227.32 483.97,227.32 485.41,227.32 486.85,227.32 488.29,227.32 489.73,227.32 491.17,227.32 492.61,227.32 494.05,227.32 495.49,227.32 496.93,227.32 498.37,227.32 499.81,227.32 501.25,227.32 502.69,227.32 504.13,227.32 505.57,227.32 507.01,227.32 508.45,227.32 509.89,227.32 511.33,227.32 512.77,227.32 514.21,227.32 515.65,227.32 517.09,227.32 518.53,223.27 519.96,223.27 521.40,223.27 522.84,223.27 524.28,223.27 525.72,223.27 527.16,223.27 528.60,223.27 530.04,223.27 531.48,223.27 532.92,223.27 534.36,223.27 535.80,223.27 537.24,223.27 538.68,223.27 540.12,223.27 541.56,223.27 543.00,227.32 544.44,227.32 545.88,227.32 547.32,227.32 548.76,227.32 550.20,227.32 551.64,227.32 553.08,227.32 554.52,227.32 555.96,227.32 557.39,227.32 558.83,227.32 560.27,227.32 561.71,223.27 563.15,223.27 564.59,223.27 566.03,223.27 567.47,223.27 568.91,223.27 570.35,223.27 571.79,223.27 573.23,223.27 574.67,223.27 576.11,223.27 577.55,223.27 578.99,223.27 580.43,223.27 581.87,223.27 583.31,223.27 584.75,223.27 586.19,223.27 587.63,223.27 589.07,223.27 590.51,223.27 591.95,223.27 593.39,223.27 594.83,223.27 596.26,223.27 597.70,223.27 599.14,223.27 600.58,227.32 602.02,227.32 603.46,227.32 604.90,227.32 606.34,227.32 607.78,227.32 609.22,227.32 610.66,227.32 612.10,227.32 613.54,227.32 614.98,227.32 616.42,227.32 617.86,227.32 619.30,227.32 620.74,227.32 622.18,227.32 623.62,227.32 625.06,227.32 626.50,227.32 627.94,227.32 629.38,227.32 630.82,227.32 632.26,227.32 633.69,227.32 635.13,227.32 636.57,227.32 638.01,227.32 639.45,227.32 640.89,227.32 642.33,227.32 643.77,227.32 645.21,227.32 646.65,227.32 648.09,227.32 649.53,227.32 650.97,227.32 652.41,227.32 653.85,227.32 655.29,227.32 656.73,227.32 658.17,227.32 659.61,223.27 661.05,223.27 662.49,223.27 663.93,223.27 665.37,223.27 666.81,223.27 668.25,223.27 669.69,223.27 671.13,223.27 672.56,223.27 674.00,223.27 675.44,223.27 676.88,223.27 678.32,223.27 679.76,223.27 681.20,223.27 682.64,223.27 684.08,223.27 685.52,223.27 686.96,223.27 688.40,223.27 689.84,223.27 691.28,223.27 692.72,223.27 694.16,223.27 695.60,223.27 697.04,223.27 698.48,223.27 699.92,223.27 701.36,223.27 702.80,223.27 704.24,223.27 705.68,223.27 707.12,223.27 708.56,223.27 709.99,223.27 711.43,223.27 712.87,223.27 714.31,223.27 715.75,223.27 717.19,223.27 718.63,223.27 720.07,223.27 721.51,223.27 722.95,223.27 724.39,223.27 725.83,223.27 727.27,223.27 728.71,223.27 730.15,223.27 731.59,223.27 733.03,223.27 734.47,223.27 735.91,223.27 737.35,223.27 738.79,223.27 740.23,223.27 741.67,223.27 743.11,223.27 744.55,223.27 745.99,223.27 747.43,223.27 748.86,223.27 750.30,223.27 751.74,223.27 753.18,223.27 754.62,223.27 756.06,223.27 757.50,223.27 758.94,223.27 760.38,223.27 761.82,223.27 763.26,223.27 764.70,223.27 766.14,223.27 767.58,223.27 769.02,223.27 770.46,223.27 771.90,223.27 773.34,223.27 774.78,223.27 776.22,223.27 777.66,223.27 779.10,223.27 780.54,223.27 781.98,223.27 783.42,223.27 784.86,223.27 786.30,223.27 787.73,223.27 789.17,223.27 790.61,223.27 792.05,223.27 793.49,223.27 794.93,223.27 796.37,223.27 797.81,223.27 799.25,223.27 800.69,223.27 802.13,223.27 803.57,223.27 805.01,223.27 806.45,223.27 807.89,223.27 809.33,223.27 810.77,223.27 812.21,223.27 813.65,223.27 815.09,223.27 816.53,223.27 817.97,223.27 819.41,223.27 820.85,223.27 822.29,223.27 823.73,223.27 825.16,223.27 826.60,223.27 828.04,223.27 829.48,223.27 830.92,223.27 832.36,223.27 833.80,223.27 835.24,223.27 836.68,223.27 838.12,223.27 839.56,223.27 841.00,223.27 842.44,223.27 843.88,223.27 845.32,223.27 846.76,223.27 848.20,223.27 849.64,223.27 851.08,223.27 852.52,223.27 853.96,223.27 855.40,223.27 856.84,223.27 858.28,223.27 859.72,223.27 861.16,223.27 862.60,223.27 864.03,223.27 865.47,223.27 866.91,223.27 868.35,223.27 869.79,223.27 871.23,223.27 872.67,223.27 874.11,223.27 875.55,223.27 876.99,223.27 878.43,223.27 879.87,223.27 881.31,223.27 882.75,223.27 884.19,223.27 885.63,223.27 887.07,223.27 888.51,223.27 889.95,223.27 891.39,223.27 892.83,223.27 894.27,223.27 895.71,223.27 897.15,223.27 898.59,223.27 900.03,223.27 901.46,223.27 902.90,223.27 904.34,223.27 905.78,223.27 907.22,223.27 908.66,223.27 910.10,223.27 911.54,223.27 912.98,223.27 914.42,223.27 915.86,223.27 917.30,223.27 918.74,223.27 920.18,223.27 921.62,223.27 923.06,223.27 924.50,223.27 925.94,223.27 927.38,223.27 928.82,223.27 930.26,223.27 931.70,223.27 933.14,223.27 934.58,223.27 936.02,223.27 937.46,223.27 938.90,223.27 940.33,223.27 941.77,223.27 943.21,223.27 944.65,223.27 946.09,223.27 947.53,223.27 948.97,223.27 950.41,223.27 951.85,223.27 953.29,223.27 954.73,223.27 956.17,223.27 957.61,223.27 959.05,223.27 960.49,223.27 961.93,223.27 963.37,223.27 964.81,223.27 966.25,223.27 967.69,223.27 969.13,223.27 970.57,223.27 972.01,223.27 973.45,223.27 974.89,223.27 976.33,223.27 977.77,223.27 979.20,223.27 980.64,223.27 982.08,223.27 983.52,223.27 984.96,223.27 986.40,223.27 987.84,223.27 989.28,223.27 990.72,223.27 992.16,223.27 993.60,223.27 995.04,223.27 996.48,223.27 997.92,223.27 999.36,223.27 1000.80,223.27 1002.24,223.27 1003.68,223.27 1005.12,223.27 1006.56,223.27 1008.00,223.27 1009.44,223.27 1010.88,223.27 1012.32,223.27 1013.76,223.27 1015.20,223.27 1016.63,223.27 1018.07,223.27 1019.51,223.27 1020.95,223.27 1022.39,223.27 1023.83,223.27 1025.27,223.27 1026.71,223.27 1028.15,227.32 1029.59,227.32 1031.03,227.32 1032.47,227.32 1033.91,231.29 1035.35,231.29 1036.79,227.32 1038.23,223.27 1039.67,223.27 1041.11,223.27 1055.50,296.59 1056.94,223.27" fill="none" stroke="#2563eb" stroke-width="1.5" />
<polyline points="118.31,392.74 119.75,392.74 121.19,392.74 122.63,392.50 124.07,392.74 125.51,391.49 126.95,390.72 128.39,390.20 129.83,390.46 131.27,389.13 132.71,389.13 134.15,388.86 135.58,388.86 137.02,386.37 138.46,385.80 139.90,386.08 141.34,385.80 142.78,385.51 144.22,385.80 145.66,389.40 147.10,390.46 148.54,389.93 149.98,391.23 151.42,389.93 152.86,389.93 154.30,391.23 170.14,388.05 171.58,388.32 173.02,388.32 174.45,390.98 175.89,388.05 177.33,387.49 178.77,386.65 180.21,386.65 193.17,386.94 194.61,385.51 196.05,384.93 197.49,384.63 198.93,384.63 200.37,387.22 201.81,387.77 203.25,387.22 204.69,386.37 206.13,384.63 232.04,275.61 233.48,274.69 234.92,271.87 236.36,269.01 237.80,266.10 239.24,260.12 240.68,256.02 242.12,253.93 243.56,252.88 245.00,251.82 246.44,250.76 247.88,249.68 249.32,248.61 250.75,247.52 252.19,246.43 253.63,246.43 255.07,245.34 256.51,244.24 257.95,243.13 259.39,243.13 260.83,242.01 262.27,242.01 263.71,242.01 265.15,240.89 266.59,240.89 268.03,240.89 269.47,240.89 270.91,239.76 272.35,239.76 273.79,239.76 275.23,238.63 276.67,238.63 278.11,238.63 279.55,237.49 280.99,237.49 282.43,236.34 283.87,236.34 285.31,235.19 286.75,234.02 288.19,234.02 289.62,232.86 291.06,232.86 292.50,231.68 293.94,231.68 295.38,231.68 296.82,231.68 298.26,231.68 299.70,231.68 301.14,231.68 302.58,231.68 304.02,231.68 305.46,232.86 306.90,232.86 308.34,232.86 309.78,232.86 311.22,232.86 312.66,232.86 314.10,234.02 315.54,234.02 316.98,234.02 318.42,232.86 319.86,232.86 321.30,232.86 322.74,232.86 324.18,231.68 325.62,231.68 327.05,231.68 328.49,231.68 329.93,230.50 331.37,230.50 332.81,230.50 334.25,230.50 335.69,230.50 337.13,230.50 338.57,230.50 340.01,230.50 341.45,230.50 342.89,230.50 344.33,230.50 345.77,230.50 347.21,230.50 348.65,230.50 350.09,230.50 351.53,230.50 352.97,230.50 354.41,229.31 355.85,229.31 357.29,229.31 358.73,229.31 360.17,228.12 361.61,228.12 363.05,226.92 364.49,226.92 365.92,226.92 367.36,226.92 368.80,226.92 370.24,225.71 371.68,225.71 373.12,225.71 374.56,225.71 376.00,225.71 377.44,226.92 378.88,226.92 380.32,226.92 381.76,226.92 383.20,226.92 384.64,228.12 386.08,228.12 387.52,228.12 388.96,228.12 390.40,229.31 391.84,229.31 393.28,229.31 394.72,229.31 396.16,230.50 397.60,230.50 399.04,229.31 400.48,229.31 401.92,229.31 403.36,229.31 404.79,229.31 406.23,228.12 407.67,228.12 409.11,228.12 410.55,228.12 411.99,226.92 413.43,226.92 414.87,226.92 416.31,226.92 417.75,226.92 419.19,226.92 420.63,226.92 422.07,226.92 423.51,226.92 424.95,226.92 426.39,226.92 427.83,226.92 429.27,225.71 430.71,225.71 432.15,225.71 433.59,225.71 435.03,226.92 436.47,226.92 437.91,226.92 439.35,226.92 440.79,226.92 442.22,226.92 443.66,228.12 445.10,228.12 446.54,228.12 447.98,228.12 449.42,228.12 450.86,228.12 452.30,228.12 453.74,228.12 455.18,228.12 456.62,228.12 458.06,228.12 459.50,228.12 460.94,228.12 462.38,228.12 463.82,228.12 465.26,228.12 466.70,228.12 468.14,228.12 469.58,228.12 471.02,228.12 472.46,228.12 473.90,228.12 475.34,228.12 476.78,228.12 478.22,228.12 479.66,228.12 481.09,226.92 482.53,226.92 483.97,226.92 485.41,226.92 486.85,226.92 488.29,226.92 489.73,226.92 491.17,226.92 492.61,226.92 494.05,226.92 495.49,226.92 496.93,226.92 498.37,225.71 499.81,225.71 501.25,225.71 502.69,225.71 504.13,225.71 505.57,225.71 507.01,225.71 508.45,225.71 509.89,225.71 511.33,224.49 512.77,224.49 514.21,224.49 515.65,224.49 517.09,223.27 518.53,223.27 519.96,223.27 521.40,223.27 522.84,223.27 524.28,223.27 525.72,223.27 527.16,223.27 528.60,223.27 530.04,223.27 531.48,224.49 532.92,224.49 534.36,224.49 535.80,224.49 537.24,224.49 538.68,224.49 540.12,224.49 541.56,225.71 543.00,225.71 544.44,225.71 545.88,225.71 547.32,225.71 548.76,225.71 550.20,225.71 551.64,225.71 553.08,225.71 554.52,225.71 555.96,225.71 557.39,224.49 558.83,224.49 560.27,224.49 561.71,224.49 563.15,224.49 564.59,223.27 566.03,223.27 567.47,223.27 568.91,223.27 570.35,223.27 571.79,223.27 573.23,223.27 574.67,223.27 576.11,223.27 577.55,223.27 578.99,223.27 580.43,224.49 581.87,224.49 583.31,224.49 584.75,224.49 586.19,224.49 587.63,224.49 589.07,224.49 590.51,224.49 591.95,224.49 593.39,224.49 594.83,224.49 596.26,224.49 597.70,224.49 599.14,225.71 600.58,225.71 602.02,225.71 603.46,225.71 604.90,225.71 606.34,225.71 607.78,225.71 609.22,225.71 610.66,225.71 612.10,225.71 613.54,225.71 614.98,225.71 616.42,225.71 617.86,225.71 619.30,225.71 620.74,225.71 622.18,225.71 623.62,225.71 625.06,225.71 626.50,225.71 627.94,225.71 629.38,225.71 630.82,225.71 632.26,225.71 633.69,225.71 635.13,225.71 636.57,225.71 638.01,225.71 639.45,225.71 640.89,225.71 642.33,225.71 643.77,225.71 645.21,225.71 646.65,225.71 648.09,225.71 649.53,225.71 650.97,225.71 652.41,225.71 653.85,225.71 655.29,225.71 656.73,224.49 658.17,224.49 659.61,224.49 661.05,224.49 662.49,224.49 663.93,224.49 665.37,223.27 666.81,223.27 668.25,223.27 669.69,223.27 671.13,223.27 672.56,223.27 674.00,223.27 675.44,223.27 676.88,224.49 678.32,224.49 679.76,224.49 681.20,224.49 682.64,224.49 684.08,224.49 685.52,224.49 686.96,224.49 688.40,224.49 689.84,224.49 691.28,224.49 692.72,223.27 694.16,223.27 695.60,223.27 697.04,223.27 698.48,223.27 699.92,223.27 701.36,223.27 702.80,223.27 704.24,223.27 705.68,223.27 707.12,223.27 708.56,223.27 709.99,223.27 711.43,223.27 712.87,223.27 714.31,223.27 715.75,223.27 717.19,222.04 718.63,222.04 720.07,222.04 721.51,222.04 722.95,222.04 724.39,222.04 725.83,222.04 727.27,222.04 728.71,222.04 730.15,222.04 731.59,222.04 733.03,222.04 734.47,222.04 735.91,222.04 737.35,222.04 738.79,222.04 740.23,222.04 741.67,222.04 743.11,222.04 744.55,222.04 745.99,222.04 747.43,222.04 748.86,222.04 750.30,222.04 751.74,223.27 753.18,223.27 754.62,223.27 756.06,223.27 757.50,223.27 758.94,223.27 760.38,223.27 761.82,223.27 763.26,224.49 764.70,224.49 766.14,224.49 767.58,224.49 769.02,224.49 770.46,224.49 771.90,224.49 773.34,224.49 774.78,224.49 776.22,224.49 777.66,224.49 779.10,224.49 780.54,224.49 781.98,224.49 783.42,224.49 784.86,224.49 786.30,224.49 787.73,224.49 789.17,224.49 790.61,224.49 792.05,224.49 793.49,224.49 794.93,224.49 796.37,224.49 797.81,224.49 799.25,224.49 800.69,224.49 802.13,224.49 803.57,224.49 805.01,224.49 806.45,224.49 807.89,224.49 809.33,224.49 810.77,224.49 812.21,224.49 813.65,224.49 815.09,224.49 816.53,224.49 817.97,224.49 819.41,224.49 820.85,224.49 822.29,224.49 823.73,224.49 825.16,224.49 826.60,224.49 828.04,224.49 829.48,224.49 830.92,224.49 832.36,223.27 833.80,223.27 835.24,223.27 836.68,223.27 838.12,223.27 839.56,223.27 841.00,223.27 842.44,223.27 843.88,223.27 845.32,223.27 846.76,223.27 848.20,223.27 849.64,223.27 851.08,223.27 852.52,223.27 853.96,223.27 855.40,223.27 856.84,223.27 858.28,223.27 859.72,223.27 861.16,223.27 862.60,223.27 864.03,223.27 865.47,223.27 866.91,223.27 868.35,223.27 869.79,223.27 871.23,223.27 872.67,223.27 874.11,223.27 875.55,223.27 876.99,224.49 878.43,224.49 879.87,224.49 881.31,224.49 882.75,224.49 884.19,224.49 885.63,224.49 887.07,224.49 888.51,223.27 889.95,223.27 891.39,223.27 892.83,223.27 894.27,223.27 895.71,223.27 897.15,223.27 898.59,223.27 900.03,223.27 901.46,223.27 902.90,223.27 904.34,223.27 905.78,223.27 907.22,223.27 908.66,223.27 910.10,223.27 911.54,223.27 912.98,223.27 914.42,223.27 915.86,223.27 917.30,223.27 918.74,222.04 920.18,222.04 921.62,222.04 923.06,223.27 924.50,223.27 925.94,223.27 927.38,223.27 928.82,223.27 930.26,223.27 931.70,223.27 933.14,223.27 934.58,223.27 936.02,223.27 937.46,223.27 938.90,223.27 940.33,223.27 941.77,224.49 943.21,224.49 944.65,224.49 946.09,224.49 947.53,224.49 948.97,224.49 950.41,224.49 951.85,224.49 953.29,224.49 954.73,224.49 956.17,224.49 957.61,224.49 959.05,224.49 960.49,224.49 961.93,224.49 963.37,224.49 964.81,224.49 966.25,224.49 967.69,224.49 969.13,224.49 970.57,224.49 972.01,224.49 973.45,224.49 974.89,224.49 976.33,224.49 977.77,224.49 979.20,224.49 980.64,224.49 982.08,224.49 983.52,223.27 984.96,223.27 986.40,223.27 987.84,223.27 989.28,223.27 990.72,223.27 992.16,223.27 993.60,223.27 995.04,223.27 996.48,223.27 997.92,223.27 999.36,223.27 1000.80,223.27 1002.24,222.04 1003.68,222.04 1005.12,222.04 1006.56,222.04 1008.00,222.04 1009.44,222.04 1010.88,222.04 1012.32,222.04 1013.76,222.04 1015.20,222.04 1016.63,222.04 1018.07,222.04 1019.51,222.04 1020.95,223.27 1022.39,223.27 1023.83,223.27 1025.27,223.27 1026.71,223.27 1028.15,224.49 1029.59,224.49" fill="none" stroke="#dc2626" stroke-width="1.5" stroke-dasharray="5 4"/>
<line x1="78" y1="382.52" x2="1070" y2="382.52" stroke="#eee" />
<text x="1075" y="386.52" font-family="Arial" font-size="10" fill="#666">55</text>
<line x1="78" y1="372.87" x2="1070" y2="372.87" stroke="#eee" />
<text x="1075" y="376.87" font-family="Arial" font-size="10" fill="#666">65</text>
<line x1="78" y1="356.46" x2="1070" y2="356.46" stroke="#eee" />
<text x="1075" y="360.46" font-family="Arial" font-size="10" fill="#666">82</text>
<line x1="78" y1="341.02" x2="1070" y2="341.02" stroke="#eee" />
<text x="1075" y="345.02" font-family="Arial" font-size="10" fill="#666">98</text>
<line x1="78" y1="329.43" x2="1070" y2="329.43" stroke="#eee" />
<text x="1075" y="333.43" font-family="Arial" font-size="10" fill="#666">110</text>
<line x1="78" y1="309.16" x2="1070" y2="309.16" stroke="#eee" />
<text x="1075" y="313.16" font-family="Arial" font-size="10" fill="#666">131</text>
<line x1="78" y1="293.71" x2="1070" y2="293.71" stroke="#eee" />
<text x="1075" y="297.71" font-family="Arial" font-size="10" fill="#666">147</text>
<line x1="78" y1="276.34" x2="1070" y2="276.34" stroke="#eee" />
<text x="1075" y="280.34" font-family="Arial" font-size="10" fill="#666">165</text>
<line x1="78" y1="246.41" x2="1070" y2="246.41" stroke="#eee" />
<text x="1075" y="250.41" font-family="Arial" font-size="10" fill="#666">196</text>
<line x1="78" y1="223.25" x2="1070" y2="223.25" stroke="#eee" />
<text x="1075" y="227.25" font-family="Arial" font-size="10" fill="#666">220</text>
<rect x="78.00" y="472" width="1.44" height="23" fill="#2563eb" opacity="0.75" />
<rect x="111.11" y="472" width="25.91" height="23" fill="#2563eb" opacity="0.75" />
<rect x="138.46" y="472" width="1.44" height="23" fill="#2563eb" opacity="0.75" />
<rect x="141.34" y="472" width="4.32" height="23" fill="#2563eb" opacity="0.75" />
<rect x="154.30" y="472" width="53.27" height="23" fill="#2563eb" opacity="0.75" />
<rect x="209.01" y="472" width="833.54" height="23" fill="#2563eb" opacity="0.75" />
<rect x="1055.50" y="472" width="2.88" height="23" fill="#2563eb" opacity="0.75" />
<rect x="118.31" y="518" width="37.43" height="23" fill="#dc2626" opacity="0.75" />
<rect x="170.14" y="518" width="11.52" height="23" fill="#dc2626" opacity="0.75" />
<rect x="193.17" y="518" width="14.40" height="23" fill="#dc2626" opacity="0.75" />
<rect x="232.04" y="518" width="798.99" height="23" fill="#dc2626" opacity="0.75" />
<text x="78" y="468" font-family="Arial" font-size="11" fill="#2563eb">checkpoint</text>
<text x="78" y="514" font-family="Arial" font-size="11" fill="#dc2626">baseline pyin</text>
<text x="678" y="416" font-family="Arial" font-size="12" fill="#2563eb">checkpoint f0</text>
<text x="808" y="416" font-family="Arial" font-size="12" fill="#dc2626">baseline f0</text>
<line x1="78.00" y1="575" x2="78.00" y2="582" stroke="#666" />
<text x="66.00" y="598" font-family="Arial" font-size="10" fill="#666">0.0s</text>
<line x1="243.33" y1="575" x2="243.33" y2="582" stroke="#666" />
<text x="231.33" y="598" font-family="Arial" font-size="10" fill="#666">1.1s</text>
<line x1="408.67" y1="575" x2="408.67" y2="582" stroke="#666" />
<text x="396.67" y="598" font-family="Arial" font-size="10" fill="#666">2.3s</text>
<line x1="574.00" y1="575" x2="574.00" y2="582" stroke="#666" />
<text x="562.00" y="598" font-family="Arial" font-size="10" fill="#666">3.4s</text>
<line x1="739.33" y1="575" x2="739.33" y2="582" stroke="#666" />
<text x="727.33" y="598" font-family="Arial" font-size="10" fill="#666">4.6s</text>
<line x1="904.67" y1="575" x2="904.67" y2="582" stroke="#666" />
<text x="892.67" y="598" font-family="Arial" font-size="10" fill="#666">5.7s</text>
<line x1="1070.00" y1="575" x2="1070.00" y2="582" stroke="#666" />
<text x="1058.00" y="598" font-family="Arial" font-size="10" fill="#666">6.9s</text>
</svg>