<svg xmlns="http://www.w3.org/2000/svg" width="1100" height="620" viewBox="0 0 1100 620">
<rect width="100%" height="100%" fill="white" />
<text x="78" y="26" font-family="Arial" font-size="18" font-weight="700" fill="#111">Baseline comparison: 00_silence</text>
<text x="18" y="95.0" font-family="Arial" font-size="12" fill="#444">Waveform</text>
<rect x="78" y="50" width="992" height="90" fill="none" stroke="#eee" />
<line x1="78" y1="140" x2="1070" y2="140" stroke="#ddd" />
<text x="18" y="292.5" font-family="Arial" font-size="12" fill="#444">F0: checkpoint vs baseline</text>
<rect x="78" y="190" width="992" height="205" fill="none" stroke="#eee" />
<line x1="78" y1="395" x2="1070" y2="395" stroke="#ddd" />
<text x="18" y="505.0" font-family="Arial" font-size="12" fill="#444">Voiced mask</text>
<rect x="78" y="450" width="992" height="110" fill="none" stroke="#eee" />
<line x1="78" y1="560" x2="1070" y2="560" stroke="#ddd" />
<polyline points="78.00,95.00 78.71,95.00 79.41,95.00 80.12,95.00 80.83,95.00 81.54,95.00 82.25,95.00 82.96,95.00 83.67,95.00 84.38,95.01 85.08,95.03 85.80,94.56 86.50,94.19 87.21,93.68 87.93,95.54 88.63,95.77 89.34,95.29 90.05,94.47 90.76,94.45 91.47,94.75 92.17,93.04 92.89,97.66 93.60,93.46 94.30,92.21 95.02,103.38 95.72,90.73 96.43,83.37 97.14,103.19 97.85,97.98 98.56,105.66 99.26,69.21 99.98,99.20 100.69,102.04 101.39,73.80 102.11,111.35 102.81,102.43 103.52,90.57 104.23,93.16 104.94,101.20 105.65,101.71 106.36,75.76 107.07,106.95 107.78,80.00 108.48,111.38 109.19,98.79 109.91,75.33 110.61,108.00 111.32,92.85 112.03,110.92 112.74,106.52 113.45,85.96 114.16,93.46 114.87,106.78 115.58,87.40 116.28,99.04 117.00,109.21 117.70,86.85 118.41,78.63 119.13,100.69 119.83,99.79 120.54,77.98 121.24,73.89 121.96,106.33 122.67,80.62 123.37,97.43 124.09,92.35 124.79,90.33 125.50,85.55 126.22,101.60 126.92,98.45 127.63,76.60 128.34,101.98 129.05,108.54 129.76,89.50 130.46,96.17 131.18,105.34 131.89,98.46 132.59,75.79 133.30,107.35 134.01,98.99 134.72,87.38 135.43,94.58 136.14,92.21 136.85,86.16 137.56,106.91 138.27,106.20 138.98,102.34 139.68,85.05 140.39,104.56 141.11,100.02 141.81,85.20 142.52,93.25 143.23,105.86 143.94,91.89 144.65,95.24 145.35,91.17 146.07,100.71 146.77,90.71 147.48,100.37 148.20,93.38 148.90,85.63 149.61,101.18 150.32,91.35 151.03,99.72 151.74,94.76 152.44,106.20 153.16,89.56 153.87,95.10 154.57,92.47 155.29,108.02 155.99,84.33 156.70,104.14 157.41,110.83 158.12,92.36 158.83,78.19 159.54,108.07 160.25,93.96 160.96,90.12 161.66,70.03 162.38,103.90 163.09,103.84 163.79,56.91 164.50,104.02 165.21,110.95 165.92,75.63 166.63,90.63 167.34,124.31 168.05,84.58 168.75,79.47 169.46,104.05 170.18,101.33 170.88,79.04 171.59,90.94 172.31,93.48 173.01,96.24 173.72,92.74 174.43,91.94 175.14,108.50 175.85,83.57 176.55,83.65 177.27,124.16 177.97,73.48 178.68,86.02 179.40,115.54 180.10,89.76 180.81,88.57 181.52,79.82 182.23,108.63 182.94,91.23 183.64,111.19 184.36,85.61 185.07,119.40 185.77,79.48 186.49,96.40 187.19,100.11 187.90,89.16 188.61,77.45 189.32,91.51 190.03,112.70 190.73,73.78 191.45,121.26 192.16,88.96 192.86,93.24 193.58,88.96 194.29,109.12 194.99,96.40 195.70,94.39 196.41,72.04 197.12,105.78 197.83,93.80 198.54,99.58 199.25,80.08 199.95,108.13 200.66,94.37 201.38,82.36 202.08,85.32 202.79,115.89 203.50,101.36 204.21,89.78 204.92,97.21 205.63,108.37 206.34,87.81 207.05,92.89 207.75,85.92 208.47,111.61 209.17,97.16 209.88,86.55 210.60,103.21 211.30,81.94 212.01,100.32 212.72,100.03 213.43,104.28 214.14,92.63 214.84,107.54 215.56,102.27 216.27,88.04 216.97,95.49 217.69,96.85 218.39,84.67 219.10,98.26 219.81,92.86 220.52,93.99 221.23,97.26 221.93,76.30 222.65,107.26 223.36,93.66 224.06,90.23 224.77,96.73 225.48,106.20 226.19,74.28 226.90,90.93 227.61,103.70 228.32,88.31 229.03,74.50 229.74,97.67 230.45,88.21 231.15,82.80 231.86,81.46 232.58,108.80 233.28,93.77 233.99,83.68 234.70,91.77 235.41,101.69 236.12,92.29 236.82,83.67 237.54,99.71 238.25,84.11 238.95,94.77 239.67,98.17 240.37,98.41 241.08,81.24 241.80,91.79 242.50,104.27 243.21,64.08 243.91,103.27 244.63,90.62 245.34,86.18 246.04,97.58 246.76,111.19 247.46,102.33 248.17,77.21 248.88,104.99 249.59,93.99 250.30,88.48 251.01,102.67 251.72,97.86 252.43,105.35 253.13,90.50 253.85,94.37 254.56,103.13 255.26,91.76 255.97,105.18 256.68,79.52 257.39,103.38 258.10,83.30 258.81,95.88 259.52,113.24 260.23,80.78 260.93,97.17 261.65,94.69 262.35,101.50 263.06,85.57 263.78,99.18 264.48,100.45 265.19,99.63 265.90,79.27 266.61,103.79 267.32,80.95 268.02,115.19 268.74,88.11 269.44,90.10 270.15,88.91 270.87,118.78 271.57,88.63 272.28,77.55 272.99,108.37 273.70,115.51 274.41,89.44 275.11,81.39 275.83,112.05 276.54,88.39 277.24,105.05 277.96,100.92 278.66,105.87 279.37,74.05 280.08,111.60 280.79,93.45 281.50,113.06 282.21,58.36 282.92,115.30 283.63,98.38 284.33,92.17 285.04,82.71 285.76,123.25 286.46,78.41 287.17,89.48 287.88,114.80 288.59,84.88 289.30,97.76 290.01,71.12 290.72,109.97 291.42,83.89 292.13,98.05 292.85,94.85 293.55,90.44 294.26,90.18 294.97,87.20 295.68,93.36 296.39,89.95 297.09,86.55 297.81,114.48 298.52,105.83 299.22,96.75 299.94,110.40 300.64,99.34 301.35,98.35 302.07,98.78 302.77,97.92 303.48,97.88 304.19,88.38 304.90,83.91 305.61,93.16 306.31,93.44 307.03,105.55 307.74,93.51 308.44,98.42 309.16,79.58 309.86,93.99 310.57,102.60 311.28,100.15 311.99,96.62 312.70,92.90 313.40,93.19 314.12,75.81 314.83,99.71 315.53,91.96 316.24,113.54 316.95,95.26 317.66,80.21 318.37,108.76 319.08,111.53 319.79,78.69 320.50,89.00 321.21,108.19 321.92,92.92 322.62,89.37 323.33,75.30 324.05,93.01 324.75,112.42 325.46,85.84 326.17,100.85 326.88,99.27 327.59,107.72 328.29,76.95 329.01,105.45 329.72,91.87 330.42,105.36 331.14,93.54 331.84,93.27 332.55,96.41 333.27,93.94 333.97,103.37 334.68,98.03 335.38,94.67 336.10,108.12 336.81,92.86 337.51,93.13 338.23,109.61 338.93,71.50 339.64,97.55 340.35,95.01 341.06,87.03 341.77,93.09 342.48,96.37 343.19,106.66 343.90,66.84 344.60,90.07 345.32,124.31 346.03,84.94 346.73,68.69 347.44,91.72 348.15,111.66 348.86,91.69 349.57,97.67 350.28,92.22 350.99,102.78 351.70,96.17 352.40,93.10 353.12,98.25 353.82,98.06 354.53,87.84 355.25,92.50 355.95,104.27 356.66,73.02 357.37,87.48 358.08,105.16 358.79,77.23 359.49,98.42 360.21,87.25 360.92,98.90 361.62,95.89 362.34,93.04 363.04,83.01 363.75,92.29 364.46,115.56 365.17,84.20 365.88,89.01 366.58,103.96 367.30,97.35 368.01,69.81 368.71,101.83 369.43,95.72 370.13,118.36 370.84,74.93 371.55,104.86 372.26,102.57 372.97,86.64 373.68,85.78 374.39,104.10 375.10,124.35 375.80,68.17 376.51,101.05 377.23,93.67 377.93,104.82 378.64,84.74 379.35,90.98 380.06,99.74 380.77,115.23 381.48,101.04 382.19,88.37 382.90,77.34 383.60,96.13 384.32,116.39 385.02,77.17 385.73,100.99 386.45,94.27 387.15,97.05 387.86,84.64 388.56,102.38 389.28,118.25 389.99,72.06 390.69,99.80 391.41,94.66 392.11,96.60 392.82,76.39 393.54,107.70 394.24,90.59 394.95,77.87 395.66,93.82 396.37,105.76 397.08,101.91 397.78,72.65 398.50,96.31 399.21,87.43 399.91,95.72 400.62,81.90 401.33,113.04 402.04,95.30 402.75,73.36 403.46,96.36 404.17,92.36 404.88,104.29 405.59,85.57 406.30,102.92 407.00,83.16 407.71,103.57 408.43,86.50 409.13,92.05 409.84,93.66 410.55,102.56 411.26,89.44 411.97,99.34 412.68,76.80 413.39,97.37 414.09,94.69 414.80,98.07 415.52,96.84 416.22,96.69 416.93,89.62 417.64,78.92 418.35,109.11 419.06,90.08 419.76,94.46 420.48,109.66 421.19,95.96 421.89,111.51 422.61,98.69 423.31,95.75 424.02,100.66 424.74,91.38 425.44,90.28 426.15,103.25 426.86,83.04 427.57,96.72 428.28,96.69 428.98,92.91 429.70,77.79 430.41,109.89 431.11,93.78 431.82,88.53 432.53,94.89 433.24,92.80 433.95,96.22 434.66,95.34 435.37,98.96 436.07,82.98 436.79,108.02 437.50,84.77 438.20,91.79 438.91,96.46 439.62,108.01 440.33,96.49 441.04,81.36 441.75,97.13 442.46,89.47 443.17,106.61 443.87,86.23 444.59,94.93 445.29,108.97 446.00,97.67 446.72,111.44 447.42,99.11 448.13,101.80 448.84,89.44 449.55,108.38 450.26,105.02 450.96,90.40 451.68,94.91 452.39,90.61 453.09,96.09 453.81,108.16 454.51,76.21 455.22,95.22 455.93,110.11 456.64,88.30 457.35,99.63 458.05,101.35 458.77,99.04 459.48,72.08 460.18,119.46 460.90,83.25 461.60,110.26 462.31,77.58 463.02,101.55 463.73,106.84 464.44,83.24 465.15,92.22 465.86,102.29 466.57,95.47 467.27,70.24 467.98,119.77 468.70,92.14 469.40,87.82 470.11,101.43 470.82,101.48 471.53,102.31 472.24,84.24 472.95,92.68 473.66,106.08 474.37,85.93 475.07,90.22 475.79,111.21 476.49,99.23 477.20,73.17 477.92,110.39 478.62,107.02 479.33,87.38 480.03,89.73 480.75,99.91 481.46,88.75 482.16,89.52 482.88,105.33 483.58,110.71 484.29,90.39 485.01,102.22 485.71,92.65 486.42,82.94 487.13,108.38 487.84,97.51 488.55,97.21 489.25,84.81 489.97,92.18 490.68,98.80 491.38,79.44 492.09,106.54 492.80,102.59 493.51,91.19 494.22,90.13 494.93,95.84 495.64,105.14 496.35,96.38 497.06,88.62 497.77,82.09 498.47,89.25 499.18,88.79 499.90,81.65 500.60,107.27 501.31,93.08 502.02,89.41 502.73,101.35 503.44,86.16 504.14,92.38 504.86,98.99 505.56,112.81 506.27,86.48 506.99,103.87 507.69,88.86 508.40,84.40 509.12,88.49 509.82,98.28 510.53,94.20 511.23,87.84 511.95,99.30 512.66,88.27 513.36,80.78 514.08,96.41 514.78,109.15 515.49,86.53 516.20,88.95 516.91,94.97 517.62,104.72 518.33,94.82 519.04,114.70 519.75,86.66 520.45,89.28 521.17,90.99 521.88,126.18 522.58,87.36 523.29,79.31 524.00,107.26 524.71,93.39 525.42,90.96 526.13,99.03 526.84,112.46 527.54,90.68 528.26,85.54 528.97,102.53 529.67,85.87 530.38,93.72 531.10,104.86 531.80,95.89 532.51,102.78 533.22,89.76 533.93,100.18 534.64,96.57 535.34,76.35 536.06,93.98 536.76,118.68 537.47,90.11 538.19,73.45 538.89,112.92 539.60,78.04 540.31,103.66 541.02,103.48 541.73,83.24 542.43,108.39 543.15,99.68 543.86,95.96 544.56,90.46 545.28,104.85 545.98,93.63 546.69,96.14 547.40,106.73 548.11,82.23 548.82,105.40 549.53,99.75 550.24,97.54 550.95,88.10 551.65,99.69 552.37,90.02 553.08,97.30 553.78,90.92 554.49,87.53 555.20,112.99 555.91,85.61 556.62,91.44 557.33,110.03 558.04,98.28 558.74,98.53 559.45,87.97 560.17,111.50 560.87,88.53 561.58,101.50 562.29,96.37 563.00,88.38 563.71,93.91 564.42,80.03 565.13,107.15 565.84,84.06 566.54,94.45 567.26,101.07 567.96,82.75 568.67,91.16 569.39,87.43 570.09,89.55 570.80,107.31 571.51,79.02 572.22,103.78 572.93,71.26 573.63,86.39 574.35,98.02 575.06,96.96 575.76,97.21 576.48,83.65 577.18,100.11 577.89,104.17 578.60,72.26 579.31,100.36 580.02,88.87 580.72,93.26 581.44,87.26 582.15,92.16 582.85,89.04 583.56,78.20 584.27,103.28 584.98,99.02 585.69,111.78 586.40,86.31 587.11,96.78 587.82,88.05 588.53,101.78 589.24,72.37 589.94,94.24 590.65,101.55 591.37,85.00 592.07,86.58 592.78,79.26 593.49,104.20 594.20,97.45 594.91,83.77 595.61,68.31 596.33,107.66 597.04,107.28 597.74,77.97 598.46,109.90 599.16,93.66 599.87,88.39 600.59,105.22 601.29,98.81 602.00,76.99 602.70,92.34 603.42,102.07 604.13,95.01 604.83,93.67 605.55,105.78 606.25,92.79 606.96,91.76 607.67,95.02 608.38,94.60 609.09,100.27 609.80,94.27 610.51,93.64 611.22,102.11 611.92,89.51 612.64,92.02 613.35,94.05 614.05,109.52 614.76,91.99 615.47,92.25 616.18,84.64 616.89,103.26 617.60,91.51 618.31,92.28 619.02,94.52 619.72,107.03 620.44,81.00 621.14,92.59 621.85,79.03 622.57,97.76 623.27,102.35 623.98,70.80 624.69,103.59 625.40,87.03 626.11,91.90 626.81,80.14 627.53,121.00 628.23,94.49 628.94,85.79 629.66,86.52 630.36,108.97 631.07,104.11 631.78,73.02 632.49,109.88 633.20,90.05 633.90,107.61 634.62,82.03 635.33,94.47 636.03,100.06 636.75,94.90 637.45,93.09 638.16,84.33 638.87,104.87 639.58,88.24 640.29,111.88 641.00,85.23 641.71,91.11 642.42,93.78 643.12,79.48 643.84,107.98 644.55,107.00 645.25,99.13 645.96,68.54 646.67,112.23 647.38,104.98 648.09,90.31 648.80,84.41 649.51,100.21 650.21,84.97 650.92,89.48 651.64,86.63 652.34,120.01 653.05,85.24 653.76,95.95 654.47,113.40 655.18,95.74 655.89,84.83 656.60,99.93 657.31,97.83 658.01,93.54 658.73,105.95 659.43,94.04 660.14,82.74 660.86,87.02 661.56,99.18 662.27,102.39 662.98,73.52 663.69,93.03 664.40,106.55 665.10,107.15 665.82,84.53 666.53,94.87 667.23,93.43 667.95,91.48 668.65,121.05 669.36,83.57 670.07,93.56 670.78,91.46 671.49,114.00 672.19,60.98 672.91,106.94 673.62,92.64 674.32,89.10 675.03,108.87 675.74,92.11 676.45,90.97 677.16,71.22 677.87,104.60 678.58,95.10 679.29,107.04 680.00,82.46 680.71,108.30 681.41,93.70 682.12,89.72 682.84,107.24 683.54,89.15 684.25,78.88 684.96,107.01 685.67,96.16 686.38,80.13 687.08,89.63 687.80,112.85 688.51,98.05 689.21,76.91 689.93,111.40 690.63,103.48 691.34,83.97 692.06,94.56 692.76,100.65 693.47,107.19 694.17,80.79 694.89,101.90 695.60,93.89 696.30,88.77 697.02,81.58 697.73,115.82 698.43,81.62 699.14,85.59 699.85,92.89 700.56,102.18 701.27,102.22 701.98,89.19 702.69,92.21 703.39,109.37 704.11,101.06 704.82,80.53 705.52,101.56 706.23,96.33 706.94,89.42 707.65,91.61 708.36,101.73 709.07,109.42 709.78,76.44 710.49,97.60 711.19,99.01 711.91,110.84 712.61,80.37 713.32,87.17 714.04,105.55 714.74,89.41 715.45,85.86 716.16,95.00 716.87,106.45 717.58,98.61 718.28,85.65 719.00,106.71 719.71,91.03 720.41,83.77 721.13,95.79 721.83,111.12 722.54,81.46 723.25,98.79 723.96,67.73 724.67,125.64 725.37,75.12 726.09,93.89 726.80,97.83 727.50,94.32 728.22,107.59 728.92,80.32 729.63,103.91 730.34,86.83 731.05,105.06 731.76,80.67 732.47,94.38 733.18,114.72 733.89,92.85 734.59,85.83 735.30,92.56 736.02,100.13 736.72,86.48 737.43,88.94 738.14,98.66 738.85,109.33 739.56,85.20 740.27,93.51 740.98,82.47 741.69,98.54 742.39,85.53 743.11,102.24 743.81,84.01 744.52,115.68 745.24,71.94 745.94,107.68 746.65,97.97 747.36,76.14 748.07,94.69 748.78,101.57 749.48,100.05 750.20,83.95 750.90,113.31 751.61,85.61 752.33,89.24 753.03,93.38 753.74,108.22 754.45,96.18 755.16,85.18 755.87,92.28 756.57,100.64 757.29,104.56 758.00,90.34 758.70,92.11 759.42,113.49 760.12,75.27 760.83,99.20 761.54,85.55 762.25,84.16 762.96,108.01 763.67,93.20 764.38,101.37 765.09,92.77 765.79,101.24 766.50,86.96 767.22,103.98 767.92,96.87 768.63,91.99 769.34,98.27 770.05,100.20 770.76,92.19 771.47,94.76 772.18,78.48 772.88,103.03 773.59,92.50 774.31,94.50 775.01,102.61 775.72,105.35 776.43,90.70 777.14,89.31 777.85,86.94 778.55,112.84 779.27,89.52 779.98,91.33 780.68,94.93 781.40,107.59 782.10,75.89 782.81,90.61 783.53,130.70 784.23,98.90 784.94,55.10 785.65,99.16 786.36,110.18 787.07,95.88 787.77,75.35 788.49,87.93 789.20,125.44 789.90,84.57 790.61,75.06 791.32,107.82 792.03,113.22 792.74,91.19 793.45,80.48 794.16,92.83 794.86,122.96 795.58,97.05 796.29,85.80 796.99,78.81 797.70,126.05 798.41,72.32 799.12,80.94 799.83,91.73 800.54,104.11 801.25,93.54 801.96,80.27 802.66,93.17 803.38,110.00 804.08,92.32 804.79,91.67 805.51,99.05 806.21,111.41 806.92,81.32 807.63,79.89 808.34,117.69 809.05,101.44 809.75,79.76 810.47,97.75 811.18,107.41 811.88,85.72 812.60,85.50 813.30,90.42 814.01,108.17 814.72,75.55 815.43,105.55 816.14,101.42 816.84,91.63 817.56,89.96 818.27,107.01 818.97,86.77 819.69,96.62 820.39,90.36 821.10,103.45 821.81,80.72 822.52,118.41 823.23,72.92 823.94,96.93 824.65,92.13 825.36,94.94 826.06,79.02 826.77,107.98 827.49,96.16 828.19,93.60 828.90,96.83 829.61,96.87 830.32,98.13 831.03,102.19 831.74,89.72 832.45,96.31 833.16,107.49 833.86,93.69 834.58,90.90 835.28,86.14 835.99,90.73 836.71,106.03 837.41,90.82 838.12,89.44 838.82,80.27 839.54,114.10 840.25,90.65 840.95,80.66 841.67,93.79 842.37,97.45 843.08,100.79 843.80,95.27 844.50,101.28 845.21,97.36 845.92,91.08 846.63,97.35 847.34,96.71 848.04,89.00 848.76,102.00 849.47,107.48 850.17,89.48 850.89,80.75 851.59,97.65 852.30,106.88 853.01,87.48 853.72,88.54 854.43,101.57 855.14,107.39 855.85,76.55 856.56,107.79 857.26,84.49 857.97,95.24 858.69,82.77 859.39,104.43 860.10,85.64 860.81,88.46 861.52,108.98 862.23,80.77 862.94,93.04 863.65,95.98 864.35,101.02 865.06,97.67 865.78,78.68 866.48,97.34 867.19,86.69 867.91,96.82 868.61,92.08 869.32,87.45 870.02,101.22 870.74,97.38 871.45,93.12 872.15,103.71 872.87,99.29 873.57,99.54 874.28,90.06 875.00,90.26 875.70,96.51 876.41,101.15 877.12,81.14 877.83,94.40 878.54,107.04 879.24,89.36 879.96,103.70 880.67,75.41 881.37,91.77 882.08,97.61 882.79,92.06 883.50,100.25 884.21,103.58 884.92,88.52 885.63,90.98 886.34,112.99 887.05,90.81 887.76,104.55 888.46,103.99 889.17,95.29 889.89,81.69 890.59,104.06 891.30,86.88 892.01,105.10 892.72,95.84 893.43,83.00 894.13,88.35 894.85,95.02 895.55,99.65 896.26,91.44 896.98,88.87 897.68,99.53 898.39,96.02 899.10,92.70 899.81,78.66 900.52,100.33 901.22,96.65 901.94,93.90 902.65,102.18 903.35,69.01 904.07,87.38 904.77,114.92 905.48,106.44 906.19,78.59 906.90,79.93 907.61,109.54 908.32,110.57 909.03,98.99 909.74,80.07 910.44,103.92 911.16,103.76 911.87,83.62 912.57,100.53 913.28,95.10 913.99,90.63 914.70,83.00 915.41,102.09 916.12,93.68 916.83,92.78 917.53,105.61 918.24,88.77 918.96,101.25 919.66,108.98 920.37,90.88 921.08,84.37 921.79,98.66 922.50,98.66 923.21,90.01 923.92,106.15 924.63,90.47 925.33,76.13 926.05,116.64 926.75,95.50 927.46,81.94 928.18,90.53 928.88,100.35 929.59,111.54 930.30,80.10 931.01,76.97 931.72,106.68 932.42,101.48 933.14,86.77 933.85,99.69 934.55,112.26 935.27,106.71 935.97,72.90 936.68,105.72 937.39,105.92 938.10,94.88 938.81,103.33 939.51,96.33 940.23,89.24 940.94,95.38 941.64,96.21 942.35,79.12 943.06,113.06 943.77,105.65 944.48,84.94 945.19,84.60 945.90,105.10 946.61,106.90 947.32,94.55 948.03,87.51 948.73,107.48 949.44,83.41 950.16,87.09 950.86,107.16 951.57,98.21 952.28,79.75 952.99,102.42 953.70,92.08 954.40,102.80 955.12,88.21 955.83,101.32 956.53,88.54 957.25,89.89 957.95,104.94 958.66,82.94 959.38,94.11 960.08,102.89 960.79,90.79 961.49,96.67 962.21,75.14 962.92,102.01 963.62,97.21 964.34,115.23 965.04,83.31 965.75,84.60 966.47,97.11 967.17,100.76 967.88,81.34 968.59,93.93 969.30,104.16 970.01,107.49 970.71,77.56 971.43,92.19 972.14,91.32 972.84,106.86 973.55,93.14 974.26,84.99 974.97,91.04 975.68,102.69 976.39,79.74 977.10,85.18 977.81,120.07 978.52,83.49 979.23,105.02 979.93,113.48 980.64,74.70 981.36,68.27 982.06,96.44 982.77,118.78 983.48,77.22 984.19,99.34 984.90,112.85 985.60,97.28 986.32,75.99 987.02,88.04 987.73,93.02 988.45,112.40 989.15,73.44 989.86,94.52 990.57,106.09 991.28,95.71 991.99,83.44 992.69,96.22 993.41,80.23 994.12,97.48 994.82,101.79 995.54,96.04 996.24,82.12 996.95,96.21 997.66,101.48 998.37,109.64 999.08,94.56 999.79,81.56 1000.50,103.75 1001.21,110.10 1001.91,90.92 1002.63,91.66 1003.34,96.61 1004.04,82.87 1004.75,95.82 1005.46,89.95 1006.17,96.17 1006.88,86.20 1007.59,84.88 1008.30,91.33 1009.00,87.11 1009.71,93.28 1010.43,95.37 1011.13,91.35 1011.84,71.90 1012.55,97.98 1013.26,99.14 1013.97,108.20 1014.68,106.97 1015.39,92.76 1016.10,109.59 1016.80,102.05 1017.52,60.95 1018.22,109.83 1018.93,97.92 1019.65,87.43 1020.35,81.50 1021.06,106.09 1021.77,97.91 1022.48,100.66 1023.19,109.15 1023.89,101.17 1024.61,84.36 1025.32,97.11 1026.02,90.39 1026.74,89.72 1027.44,106.46 1028.15,79.28 1028.86,107.28 1029.57,81.25 1030.28,94.34 1030.98,102.42 1031.70,74.80 1032.41,94.82 1033.11,104.66 1033.82,72.54 1034.54,102.65 1035.24,114.61 1035.95,106.11 1036.66,77.20 1037.37,82.90 1038.08,113.44 1038.79,101.08 1039.50,89.29 1040.20,95.87 1040.91,83.50 1041.63,103.90 1042.33,81.69 1043.04,103.53 1043.75,100.24 1044.46,101.05 1045.17,105.52 1045.87,81.84 1046.59,100.34 1047.30,89.42 1048.00,108.14 1048.72,78.03 1049.42,98.35 1050.13,112.35 1050.85,77.31 1051.55,90.86 1052.26,105.57 1052.97,106.16 1053.68,75.49 1054.39,82.94 1055.09,123.00 1055.81,81.42 1056.52,70.98 1057.22,58.39 1057.93,70.45 1058.64,58.32 1059.35,54.50 1060.06,91.48 1060.77,128.60 1061.48,96.15 1062.18,100.67 1062.90,90.39 1063.61,87.79 1064.31,93.25 1065.02,99.96 1065.73,62.08 1066.44,115.10 1067.15,102.44 1067.86,95.28 1068.57,95.00 1069.28,95.00 1069.99,95.00" fill="none" stroke="#444" stroke-width="1.0" />
<polyline points="78.00,246.82 96.60,241.16 98.03,241.16 99.46,241.16 100.89,235.39 102.32,235.39 103.75,241.16 105.18,241.16 106.62,241.16 108.05,241.16 112.34,241.16 113.77,241.16 115.20,241.16 116.63,241.16 118.06,241.16 119.49,241.16 120.92,241.16 122.35,241.16 123.78,241.16 125.22,241.16 126.65,241.16 128.08,241.16 129.51,241.16 130.94,241.16 132.37,241.16 133.80,241.16 135.23,241.16 136.66,241.16 138.09,241.16 139.52,241.16 140.95,241.16 142.38,241.16 143.81,241.16 145.25,241.16 146.68,241.16 148.11,241.16 149.54,241.16 150.97,246.82 152.40,241.16 153.83,241.16 155.26,241.16 156.69,241.16 158.12,241.16 159.55,241.16 160.98,241.16 162.41,241.16 163.85,241.16 165.28,241.16 166.71,241.16 168.14,241.16 169.57,241.16 171.00,235.39 172.43,241.16 173.86,241.16 175.29,241.16 176.72,235.39 178.15,241.16 179.58,235.39 181.01,235.39 182.45,235.39 183.88,241.16 185.31,241.16 186.74,241.16 188.17,241.16 189.60,241.16 191.03,241.16 192.46,241.16 193.89,241.16 196.75,241.16 198.18,241.16 199.61,241.16 201.05,241.16 202.48,241.16 203.91,241.16 205.34,241.16 206.77,241.16 208.20,241.16 209.63,241.16 211.06,241.16 212.49,241.16 213.92,241.16 215.35,241.16 216.78,241.16 218.21,241.16 219.65,241.16 221.08,257.81 222.51,241.16 223.94,241.16 225.37,257.81 226.80,306.88 228.23,306.88 229.66,306.88 231.09,257.81 232.52,241.16 233.95,241.16 235.38,306.88 236.81,241.16 238.25,241.16 239.68,241.16 241.11,241.16 242.54,241.16 243.97,241.16 245.40,241.16 246.83,241.16 248.26,241.16 249.69,241.16 251.12,257.81 252.55,257.81 253.98,241.16 255.41,241.16 256.85,241.16 258.28,241.16 259.71,302.39 261.14,306.88 262.57,306.88 264.00,306.88 265.43,246.82 266.86,246.82 268.29,246.82 269.72,241.16 271.15,257.81 272.58,257.81 274.01,257.81 275.44,241.16 276.88,241.16 278.31,241.16 279.74,241.16 281.17,257.81 282.60,257.81 284.03,257.81 285.46,257.81 286.89,241.16 288.32,241.16 289.75,241.16 291.18,257.81 292.61,241.16 294.04,241.16 295.48,241.16 296.91,241.16 298.34,235.39 299.77,235.39 301.20,241.16 302.63,241.16 304.06,241.16 305.49,241.16 306.92,241.16 308.35,241.16 309.78,241.16 311.21,241.16 312.64,241.16 314.08,241.16 315.51,241.16 316.94,241.16 318.37,241.16 319.80,241.16 321.23,241.16 322.66,241.16 324.09,241.16 325.52,241.16 326.95,235.39 328.38,241.16 329.81,241.16 331.24,241.16 332.68,241.16 334.11,241.16 335.54,241.16 336.97,241.16 338.40,306.88 339.83,306.88 341.26,306.88 342.69,306.88 344.12,306.88 345.55,306.88 346.98,306.88 348.41,306.88 349.84,306.88 351.28,306.88 352.71,306.88 354.14,302.39 355.57,241.16 357.00,241.16 358.43,241.16 359.86,241.16 361.29,241.16 362.72,241.16 364.15,241.16 365.58,241.16 367.01,241.16 368.44,241.16 369.88,241.16 371.31,241.16 372.74,241.16 374.17,241.16 375.60,241.16 377.03,241.16 378.46,241.16 379.89,241.16 381.32,241.16 382.75,241.16 384.18,257.81 385.61,257.81 387.04,241.16 388.48,241.16 389.91,257.81 391.34,257.81 392.77,302.39 394.20,302.39 395.63,302.39 397.06,302.39 398.49,302.39 399.92,302.39 401.35,302.39 402.78,302.39 404.21,302.39 405.64,302.39 407.07,241.16 408.51,302.39 409.94,302.39 411.37,302.39 412.80,302.39 414.23,302.39 415.66,302.39 417.09,306.88 418.52,302.39 419.95,302.39 421.38,241.16 422.81,241.16 428.54,241.16 431.40,241.16 435.69,241.16 437.12,241.16 438.55,241.16 439.98,241.16 441.41,241.16 448.57,235.39 450.00,235.39 451.43,235.39 452.86,235.39 454.29,241.16 455.72,241.16 457.15,241.16 458.58,241.16 460.01,241.16 462.87,241.16 464.31,241.16 465.74,241.16 467.17,257.81 468.60,257.81 470.03,241.16 471.46,241.16 472.89,241.16 474.32,241.16 475.75,241.16 477.18,241.16 478.61,241.16 480.04,241.16 481.47,241.16 482.91,302.39 484.34,302.39 485.77,302.39 487.20,302.39 488.63,302.39 490.06,302.39 491.49,302.39 492.92,302.39 494.35,257.81 495.78,257.81 497.21,257.81 498.64,257.81 500.07,257.81 501.51,302.39 502.94,302.39 504.37,302.39 505.80,306.88 507.23,306.88 508.66,306.88 510.09,257.81 511.52,257.81 512.95,241.16 514.38,241.16 515.81,257.81 517.24,257.81 518.67,257.81 520.11,257.81 521.54,302.39 522.97,302.39 524.40,302.39 525.83,302.39 527.26,302.39 528.69,257.81 530.12,257.81 531.55,241.16 532.98,241.16 534.41,241.16 535.84,241.16 537.27,241.16 538.70,241.16 540.14,241.16 541.57,241.16 543.00,241.16 544.43,241.16 545.86,241.16 547.29,241.16 548.72,241.16 550.15,241.16 551.58,241.16 553.01,241.16 554.44,241.16 555.87,246.82 557.30,246.82 558.74,246.82 560.17,302.39 561.60,302.39 563.03,302.39 564.46,257.81 565.89,302.39 567.32,302.39 568.75,306.88 570.18,302.39 571.61,306.88 573.04,306.88 574.47,302.39 575.90,257.81 577.34,241.16 578.77,241.16 580.20,241.16 581.63,257.81 583.06,241.16 584.49,241.16 585.92,241.16 587.35,241.16 588.78,241.16 590.21,241.16 591.64,241.16 593.07,241.16 594.50,241.16 595.94,241.16 597.37,241.16 598.80,241.16 600.23,241.16 601.66,241.16 603.09,302.39 604.52,302.39 605.95,302.39 607.38,302.39 608.81,302.39 610.24,306.88 611.67,306.88 613.10,306.88 614.54,306.88 615.97,241.16 617.40,241.16 618.83,235.39 620.26,235.39 621.69,235.39 623.12,235.39 624.55,235.39 625.98,241.16 627.41,241.16 628.84,235.39 630.27,235.39 631.70,241.16 633.14,235.39 634.57,235.39 636.00,235.39 637.43,235.39 638.86,235.39 640.29,235.39 641.72,235.39 643.15,235.39 644.58,235.39 646.01,235.39 647.44,235.39 648.87,235.39 650.30,235.39 651.73,235.39 653.17,235.39 654.60,235.39 656.03,241.16 657.46,241.16 658.89,241.16 660.32,241.16 661.75,241.16 663.18,241.16 664.61,241.16 666.04,241.16 667.47,241.16 668.90,235.39 670.33,235.39 671.77,235.39 673.20,235.39 674.63,235.39 676.06,235.39 677.49,235.39 678.92,235.39 680.35,235.39 681.78,235.39 683.21,235.39 684.64,235.39 686.07,235.39 687.50,235.39 688.93,235.39 690.37,235.39 691.80,235.39 693.23,235.39 694.66,241.16 696.09,241.16 697.52,241.16 698.95,241.16 700.38,241.16 701.81,241.16 703.24,241.16 704.67,241.16 706.10,241.16 707.53,235.39 708.97,241.16 710.40,241.16 711.83,241.16 713.26,241.16 714.69,241.16 716.12,241.16 717.55,241.16 718.98,241.16 720.41,235.39 721.84,241.16 723.27,302.39 724.70,302.39 726.13,302.39 727.57,241.16 729.00,241.16 730.43,241.16 731.86,241.16 733.29,241.16 734.72,241.16 736.15,241.16 737.58,241.16 739.01,235.39 740.44,235.39 741.87,235.39 743.30,241.16 744.73,241.16 746.17,235.39 747.60,235.39 749.03,235.39 750.46,235.39 751.89,235.39 753.32,235.39 754.75,235.39 756.18,235.39 757.61,235.39 759.04,235.39 760.47,235.39 761.90,241.16 763.33,241.16 764.77,241.16 766.20,241.16 767.63,235.39 769.06,241.16 770.49,302.39 771.92,302.39 773.35,297.81 774.78,297.81 776.21,293.14 777.64,293.14 779.07,302.39 780.50,302.39 781.93,302.39 783.36,241.16 784.80,241.16 786.23,241.16 787.66,241.16 789.09,241.16 790.52,241.16 791.95,241.16 793.38,241.16 794.81,241.16 796.24,241.16 797.67,241.16 799.10,241.16 800.53,241.16 801.96,241.16 803.40,257.81 804.83,302.39 806.26,302.39 807.69,302.39 809.12,302.39 810.55,302.39 811.98,302.39 813.41,241.16 814.84,241.16 816.27,257.81 817.70,302.39 819.13,302.39 820.56,241.16 822.00,241.16 823.43,235.39 824.86,235.39 826.29,241.16 827.72,241.16 829.15,241.16 830.58,241.16 832.01,241.16 833.44,241.16 834.87,241.16 836.30,241.16 837.73,241.16 839.16,241.16 840.60,241.16 842.03,241.16 843.46,241.16 844.89,235.39 846.32,235.39 847.75,235.39 849.18,235.39 850.61,235.39 852.04,235.39 853.47,235.39 854.90,235.39 856.33,241.16 857.76,241.16 859.20,241.16 860.63,257.81 862.06,241.16 863.49,241.16 864.92,241.16 866.35,235.39 867.78,235.39 869.21,235.39 870.64,235.39 872.07,235.39 873.50,235.39 874.93,241.16 876.36,235.39 877.80,235.39 879.23,241.16 880.66,241.16 882.09,241.16 883.52,241.16 884.95,241.16 886.38,241.16 889.24,241.16 890.67,241.16 892.10,241.16 893.53,235.39 894.96,235.39 896.40,235.39 897.83,235.39 899.26,241.16 900.69,241.16 902.12,241.16 903.55,241.16 904.98,241.16 906.41,241.16 907.84,241.16 909.27,235.39 910.70,241.16 912.13,235.39 913.56,235.39 914.99,235.39 916.43,241.16 917.86,235.39 919.29,235.39 920.72,235.39 922.15,241.16 923.58,241.16 925.01,241.16 926.44,241.16 927.87,241.16 929.30,241.16 930.73,302.39 932.16,302.39 933.59,302.39 935.03,302.39 936.46,302.39 937.89,302.39 939.32,302.39 940.75,302.39 942.18,302.39 943.61,302.39 945.04,302.39 946.47,302.39 947.90,297.81 949.33,302.39 950.76,302.39 952.19,241.16 953.63,235.39 956.49,241.16 957.92,241.16 959.35,302.39 960.78,241.16 962.21,241.16 963.64,241.16 965.07,241.16 966.50,241.16 967.93,241.16 969.36,241.16 970.79,241.16 972.23,241.16 973.66,235.39 975.09,235.39 976.52,235.39 977.95,235.39 979.38,235.39 980.81,241.16 982.24,241.16 983.67,241.16 985.10,306.88 986.53,306.88 987.96,306.88 989.39,306.88 990.83,306.88 992.26,306.88 993.69,306.88 995.12,306.88 996.55,306.88 997.98,306.88 999.41,306.88 1000.84,306.88 1002.27,306.88 1003.70,306.88 1005.13,306.88 1006.56,306.88 1007.99,306.88 1009.43,241.16 1010.86,241.16 1012.29,241.16 1013.72,241.16 1015.15,257.81 1016.58,257.81 1018.01,257.81 1019.44,235.39 1020.87,235.39 1022.30,235.39 1023.73,241.16 1025.16,241.16 1026.59,235.39 1028.03,235.39 1029.46,241.16 1030.89,241.16 1032.32,241.16 1033.75,241.16 1035.18,235.39 1036.61,235.39 1038.04,235.39 1039.47,235.39 1040.90,235.39 1042.33,241.16 1043.76,241.16 1045.19,241.16 1046.62,241.16 1048.06,241.16 1049.49,241.16 1050.92,241.16 1052.35,257.81 1053.78,263.16 1055.21,263.16 1056.64,190.00 1058.07,190.00 1059.50,190.00 1060.93,283.53 1062.36,278.58 1063.79,273.54 1065.22,263.16" fill="none" stroke="#2563eb" stroke-width="1.5" />
<polyline points="135.23,316.04 136.66,319.85 138.09,318.58 139.52,319.85 140.95,321.10 142.38,327.28 143.81,328.49 145.25,328.49 146.68,346.98 148.11,342.52 149.54,328.49 150.97,344.76 152.40,341.39 153.83,345.88 155.26,333.28 156.69,314.75 158.12,317.31 159.55,316.04 160.98,328.49 162.41,323.59 163.85,323.59 165.28,327.28 166.71,326.06 168.14,324.83 169.57,324.83 171.00,326.06 172.43,327.28 173.86,327.28 175.29,328.49 176.72,327.28 178.15,327.28 179.58,327.28 181.01,327.28 182.45,327.28 183.88,327.28 185.31,330.90 186.74,329.70 188.17,343.64 189.60,354.55 191.03,351.34 192.46,348.08 193.89,349.18 195.32,352.42 196.75,356.66 198.18,357.70 199.61,354.55 201.05,355.61 202.48,334.45 203.91,329.70 205.34,329.70 206.77,329.70 208.20,332.09 209.63,332.09 211.06,329.70 212.49,329.70 213.92,329.70 219.65,330.90 221.08,329.70 222.51,329.70 223.94,328.49 225.37,327.28 226.80,328.49 228.23,328.49 229.66,329.70 231.09,328.49 232.52,327.28 233.95,327.28 235.38,327.28 236.81,326.06 238.25,326.06 242.54,329.70 243.97,330.90 245.40,310.85 246.83,308.21 248.26,321.10 249.69,323.59 251.12,318.58 252.55,319.85 253.98,323.59 255.41,324.83 256.85,324.83 258.28,323.59 259.71,327.28 261.14,330.90 262.57,337.95 264.00,339.10 265.43,355.61 266.86,354.55 268.29,340.25 269.72,336.79 271.15,337.95 272.58,342.52 274.01,356.66 275.44,356.66 276.88,353.49 281.17,353.49 282.60,353.49 284.03,353.49 285.46,357.70 286.89,357.70 298.34,318.58 299.77,314.75 301.20,312.16 302.63,314.75 304.06,326.06 305.49,328.49 306.92,328.49 308.35,329.70 309.78,332.09 311.21,329.70 312.64,329.70 314.08,329.70 315.51,332.09 316.94,330.90 318.37,332.09 319.80,330.90 321.23,330.90 322.66,334.45 324.09,335.63 325.52,336.79 326.95,340.25 328.38,358.74 329.81,354.55 331.24,352.42 332.68,353.49 334.11,354.55 335.54,357.70 336.97,355.61 338.40,356.66 339.83,355.61 349.84,332.09 351.28,330.90 352.71,327.28 354.14,326.06 355.57,327.28 357.00,328.49 358.43,328.49 359.86,326.06 361.29,332.09 362.72,341.39 364.15,332.09 365.58,344.76 367.01,344.76 368.44,343.64 369.88,344.76 371.31,344.76 372.74,344.76 374.17,345.88 375.60,348.08 377.03,342.52 378.46,335.63 379.89,351.34 381.32,350.26 382.75,353.49 384.18,352.42 385.61,354.55 387.04,354.55 388.48,333.28 389.91,332.09 391.34,333.28 392.77,350.26 394.20,350.26 395.63,336.79 397.06,351.34 398.49,350.26 399.92,351.34 401.35,349.18 402.78,351.34 412.80,327.28 414.23,326.06 415.66,323.59 417.09,323.59 418.52,318.58 419.95,317.31 421.38,316.04 422.81,316.04 424.24,317.31 425.67,323.59 427.11,318.58 428.54,318.58 429.97,322.35 431.40,326.06 432.83,324.83 504.37,395.00 505.80,395.00 507.23,395.00 508.66,395.00 510.09,395.00 511.52,395.00 544.43,395.00 545.86,380.13 547.29,366.83 548.72,363.84 550.15,363.84 551.58,380.13 553.01,361.82 554.44,362.83 555.87,362.83 557.30,362.83 558.74,362.83 560.17,363.84 561.60,363.84 563.03,364.84 564.46,364.84 565.89,361.82 567.32,361.82 568.75,362.83 570.18,364.84 571.61,364.84 573.04,360.80 574.47,360.80 575.90,362.83 577.34,360.80 578.77,356.66 580.20,366.83 581.63,369.77 583.06,368.80 584.49,366.83 585.92,365.84 587.35,360.80 588.78,363.84 590.21,359.77 591.64,358.74 594.50,329.70 595.94,328.49 597.37,326.06 598.80,328.49 600.23,328.49 601.66,328.49 603.09,328.49 604.52,327.28 638.86,356.66 640.29,354.55 641.72,348.08 643.15,348.08 644.58,346.98 646.01,346.98 647.44,339.10 648.87,343.64 650.30,346.98 651.73,350.26 653.17,346.98 654.60,348.08 656.03,346.98 657.46,346.98 658.89,348.08 660.32,342.52 661.75,340.25 663.18,337.95 664.61,339.10 666.04,340.25 667.47,336.79 668.90,336.79 670.33,336.79 671.77,335.63 673.20,332.09 674.63,334.45 676.06,335.63 677.49,329.70 678.92,343.64 680.35,343.64 681.78,344.76 683.21,342.52 684.64,342.52 686.07,328.49 687.50,324.83 688.93,334.45 690.37,334.45 691.80,334.45 693.23,350.26 697.52,355.61 698.95,356.66 700.38,356.66 701.81,356.66 703.24,356.66 704.67,356.66 706.10,357.70 707.53,357.70 708.97,356.66 710.40,356.66 711.83,355.61 713.26,355.61 714.69,354.55 716.12,355.61 717.55,355.61 718.98,354.55 720.41,354.55 721.84,354.55 723.27,354.55 724.70,355.61 726.13,355.61 727.57,355.61 729.00,356.66 730.43,357.70 731.86,355.61 780.50,348.08 781.93,350.26 783.36,351.34 784.80,353.49 786.23,352.42 787.66,350.26 789.09,351.34 790.52,353.49 791.95,363.84 793.38,364.84 794.81,365.84 796.24,365.84 797.67,363.84 799.10,364.84 800.53,351.34 801.96,344.76 803.40,345.88 804.83,340.25 806.26,348.08 807.69,348.08 809.12,349.18 813.41,354.55 814.84,354.55 816.27,356.66 817.70,363.84 819.13,364.84 820.56,368.80 822.00,364.84 823.43,368.80 824.86,369.77 826.29,369.77 827.72,367.82 829.15,360.80 882.09,395.00 883.52,395.00 884.95,395.00 886.38,395.00 887.81,395.00 889.24,395.00 890.67,395.00 892.10,395.00 893.53,395.00 894.96,395.00" fill="none" stroke="#dc2626" stroke-width="1.5" stroke-dasharray="5 4"/>
<line x1="78" y1="343.62" x2="1070" y2="343.62" stroke="#eee" />
<text x="1075" y="347.62" font-family="Arial" font-size="10" fill="#666">55</text>
<line x1="78" y1="308.29" x2="1070" y2="308.29" stroke="#eee" />
<text x="1075" y="312.29" font-family="Arial" font-size="10" fill="#666">65</text>
<line x1="78" y1="248.23" x2="1070" y2="248.23" stroke="#eee" />
<text x="1075" y="252.23" font-family="Arial" font-size="10" fill="#666">82</text>
<line x1="78" y1="191.69" x2="1070" y2="191.69" stroke="#eee" />
<text x="1075" y="195.69" font-family="Arial" font-size="10" fill="#666">98</text>
<rect x="78.00" y="472" width="1.43" height="23" fill="#2563eb" opacity="0.75" />
<rect x="96.60" y="472" width="12.88" height="23" fill="#2563eb" opacity="0.75" />
<rect x="112.34" y="472" width="82.98" height="23" fill="#2563eb" opacity="0.75" />
<rect x="196.75" y="472" width="227.49" height="23" fill="#2563eb" opacity="0.75" />
<rect x="428.54" y="472" width="1.43" height="23" fill="#2563eb" opacity="0.75" />
<rect x="431.40" y="472" width="1.43" height="23" fill="#2563eb" opacity="0.75" />
<rect x="435.69" y="472" width="7.15" height="23" fill="#2563eb" opacity="0.75" />
<rect x="448.57" y="472" width="12.88" height="23" fill="#2563eb" opacity="0.75" />
<rect x="462.87" y="472" width="424.94" height="23" fill="#2563eb" opacity="0.75" />
<rect x="889.24" y="472" width="65.81" height="23" fill="#2563eb" opacity="0.75" />
<rect x="956.49" y="472" width="110.17" height="23" fill="#2563eb" opacity="0.75" />
<rect x="135.23" y="518" width="80.12" height="23" fill="#dc2626" opacity="0.75" />
<rect x="219.65" y="518" width="20.03" height="23" fill="#dc2626" opacity="0.75" />
<rect x="242.54" y="518" width="35.77" height="23" fill="#dc2626" opacity="0.75" />
<rect x="281.17" y="518" width="7.15" height="23" fill="#dc2626" opacity="0.75" />
<rect x="298.34" y="518" width="42.92" height="23" fill="#dc2626" opacity="0.75" />
<rect x="349.84" y="518" width="54.37" height="23" fill="#dc2626" opacity="0.75" />
<rect x="412.80" y="518" width="21.46" height="23" fill="#dc2626" opacity="0.75" />
<rect x="504.37" y="518" width="8.58" height="23" fill="#dc2626" opacity="0.75" />
<rect x="544.43" y="518" width="48.65" height="23" fill="#dc2626" opacity="0.75" />
<rect x="594.50" y="518" width="11.45" height="23" fill="#dc2626" opacity="0.75" />
<rect x="638.86" y="518" width="55.80" height="23" fill="#dc2626" opacity="0.75" />
<rect x="697.52" y="518" width="35.77" height="23" fill="#dc2626" opacity="0.75" />
<rect x="780.50" y="518" width="30.05" height="23" fill="#dc2626" opacity="0.75" />
<rect x="813.41" y="518" width="17.17" height="23" fill="#dc2626" opacity="0.75" />
<rect x="882.09" y="518" width="14.31" height="23" fill="#dc2626" opacity="0.75" />
<text x="78" y="468" font-family="Arial" font-size="11" fill="#2563eb">checkpoint</text>
<text x="78" y="514" font-family="Arial" font-size="11" fill="#dc2626">baseline pyin</text>
<text x="678" y="416" font-family="Arial" font-size="12" fill="#2563eb">checkpoint f0</text>
<text x="808" y="416" font-family="Arial" font-size="12" fill="#dc2626">baseline f0</text>
<line x1="78.00" y1="575" x2="78.00" y2="582" stroke="#666" />
<text x="66.00" y="598" font-family="Arial" font-size="10" fill="#666">0.0s</text>
<line x1="243.33" y1="575" x2="243.33" y2="582" stroke="#666" />
<text x="231.33" y="598" font-family="Arial" font-size="10" fill="#666">1.2s</text>
<line x1="408.67" y1="575" x2="408.67" y2="582" stroke="#666" />
<text x="396.67" y="598" font-family="Arial" font-size="10" fill="#666">2.3s</text>
<line x1="574.00" y1="575" x2="574.00" y2="582" stroke="#666" />
<text x="562.00" y="598" font-family="Arial" font-size="10" fill="#666">3.5s</text>
<line x1="739.33" y1="575" x2="739.33" y2="582" stroke="#666" />
<text x="727.33" y="598" font-family="Arial" font-size="10" fill="#666">4.6s</text>
<line x1="904.67" y1="575" x2="904.67" y2="582" stroke="#666" />
<text x="892.67" y="598" font-family="Arial" font-size="10" fill="#666">5.8s</text>
<line x1="1070.00" y1="575" x2="1070.00" y2="582" stroke="#666" />
<text x="1058.00" y="598" font-family="Arial" font-size="10" fill="#666">6.9s</text>
</svg>