<svg xmlns="http://www.w3.org/2000/svg" width="1100" height="820" viewBox="0 0 1100 820">
<rect width="100%" height="100%" fill="white" />
<text x="72" y="25" font-family="Arial" font-size="18" font-weight="700" fill="#111">00_silence</text>
<text x="18" y="87.5" font-family="Arial" font-size="12" fill="#444">Waveform</text>
<line x1="72" y1="125" x2="1072" y2="125" stroke="#ddd" />
<rect x="72" y="50" width="1000" height="75" fill="none" stroke="#eee" />
<polyline points="72.00,87.50 72.83,87.50 73.67,87.50 74.50,87.50 75.34,87.50 76.16,87.50 77.00,87.50 77.83,87.50 78.67,87.37 79.50,87.50 80.34,87.42 81.17,86.93 82.01,87.74 82.84,87.85 83.67,87.50 84.50,87.26 85.34,87.21 86.17,87.27 87.01,88.69 87.84,83.93 88.68,86.57 89.51,92.94 90.34,86.16 91.17,89.53 92.01,88.83 92.85,90.69 93.68,93.95 94.52,78.59 95.35,82.81 96.19,94.98 97.01,90.81 97.85,83.64 98.68,81.23 99.52,90.87 100.35,84.65 101.19,92.58 102.02,80.81 102.86,91.67 103.69,83.30 104.52,90.40 105.35,90.25 106.19,93.19 107.02,92.64 107.86,85.21 108.69,85.17 109.53,90.72 110.36,76.29 111.19,93.86 112.03,84.47 112.86,87.80 113.70,91.69 114.53,92.79 115.37,87.31 116.20,96.08 117.04,80.74 117.87,87.19 118.70,92.10 119.53,93.66 120.37,82.57 121.20,89.45 122.04,78.48 122.87,90.65 123.71,87.23 124.54,83.18 125.37,92.56 126.20,85.97 127.04,79.11 127.87,94.84 128.71,83.47 129.54,88.61 130.38,89.17 131.22,81.44 132.04,93.24 132.88,94.70 133.71,81.38 134.55,83.47 135.38,83.90 136.22,87.65 137.05,86.34 137.89,96.48 138.72,85.90 139.55,85.72 140.38,86.90 141.22,81.40 142.05,89.47 142.89,89.56 143.72,79.11 144.56,95.37 145.39,85.95 146.22,89.69 147.05,92.19 147.89,85.02 148.72,85.15 149.56,86.04 150.39,80.21 151.23,92.50 152.07,94.45 152.89,91.50 153.73,85.70 154.56,95.32 155.40,88.72 156.23,76.71 157.07,90.76 157.90,91.51 158.74,84.30 159.57,97.31 160.40,82.67 161.23,77.75 162.07,100.32 162.90,85.83 163.74,80.30 164.57,96.82 165.41,81.12 166.24,80.03 167.07,86.67 167.90,84.67 168.74,87.99 169.57,94.11 170.41,77.43 171.25,81.94 172.08,99.51 172.92,81.16 173.75,81.47 174.58,92.85 175.41,86.84 176.25,80.08 177.08,93.33 177.92,84.05 178.75,86.88 179.59,88.96 180.42,89.75 181.25,90.82 182.08,90.15 182.92,84.29 183.75,76.27 184.59,90.16 185.42,86.90 186.26,95.08 187.09,85.12 187.92,83.85 188.75,89.92 189.59,88.61 190.43,86.17 191.26,79.02 192.10,92.78 192.93,84.81 193.77,80.25 194.60,86.70 195.43,95.10 196.26,81.76 197.10,82.87 197.93,95.23 198.77,84.60 199.60,86.24 200.44,85.47 201.27,86.48 202.10,86.47 202.93,86.28 203.77,88.00 204.60,83.08 205.44,93.62 206.27,87.43 207.11,89.42 207.94,88.06 208.78,90.33 209.61,82.42 210.44,88.16 211.28,86.49 212.11,87.03 212.95,85.56 213.78,89.82 214.62,91.14 215.45,84.05 216.28,88.08 217.11,79.80 217.95,90.89 218.78,83.24 219.62,83.25 220.45,97.15 221.29,77.51 222.12,84.83 222.95,94.64 223.78,86.02 224.62,85.15 225.45,93.95 226.29,80.83 227.12,82.12 227.96,87.08 228.79,85.42 229.63,91.42 230.46,92.13 231.29,93.46 232.13,82.13 232.96,89.06 233.80,85.80 234.63,85.96 235.47,81.91 236.30,83.88 237.13,87.43 237.96,87.62 238.80,77.14 239.63,96.11 240.47,82.08 241.30,91.72 242.14,93.32 242.97,84.49 243.80,89.40 244.63,88.81 245.47,83.66 246.30,88.45 247.14,88.59 247.97,90.77 248.81,92.62 249.65,82.30 250.48,82.38 251.31,91.92 252.14,80.90 252.98,80.29 253.81,93.84 254.65,96.44 255.48,81.59 256.32,80.54 257.15,88.90 257.98,81.68 258.81,85.09 259.65,91.48 260.48,86.93 261.32,79.28 262.15,91.19 262.99,90.49 263.82,87.08 264.66,91.53 265.48,81.77 266.32,97.15 267.15,83.84 267.99,83.21 268.83,89.65 269.66,82.38 270.50,86.53 271.33,90.56 272.16,85.09 272.99,88.85 273.83,95.06 274.66,79.99 275.50,88.93 276.33,83.71 277.17,92.66 278.00,79.53 278.83,93.43 279.66,83.08 280.50,81.54 281.33,102.15 282.17,78.80 283.00,89.84 283.84,94.19 284.67,82.90 285.51,77.49 286.33,95.11 287.17,81.01 288.01,87.39 288.84,86.38 289.68,95.24 290.51,80.07 291.35,87.84 292.18,82.67 293.01,83.27 293.84,95.17 294.68,88.48 295.51,83.11 296.35,87.09 297.18,89.66 298.02,90.51 298.85,87.83 299.68,87.95 300.51,88.11 301.35,83.64 302.18,86.17 303.02,86.34 303.85,90.93 304.69,89.38 305.52,84.90 306.36,92.36 307.18,89.89 308.02,81.88 308.86,91.41 309.69,87.92 310.53,83.92 311.36,82.79 312.20,93.60 313.03,84.04 313.86,77.02 314.69,100.49 315.53,87.83 316.36,86.13 317.20,93.14 318.03,87.27 318.87,88.21 319.70,90.41 320.54,91.30 321.36,83.15 322.20,90.88 323.03,86.99 323.87,78.20 324.70,92.81 325.54,83.44 326.37,89.27 327.21,88.80 328.04,83.00 328.87,88.81 329.71,78.90 330.54,84.47 331.38,83.85 332.21,92.72 333.05,95.22 333.88,83.57 334.71,85.62 335.54,85.77 336.38,88.04 337.21,84.71 338.05,81.57 338.88,97.79 339.72,74.06 340.55,86.72 341.39,96.25 342.21,84.12 343.05,82.59 343.88,98.88 344.72,84.00 345.55,82.46 346.39,91.70 347.23,89.71 348.06,86.14 348.89,92.29 349.72,94.88 350.56,79.82 351.39,82.89 352.23,93.09 353.06,78.33 353.90,86.28 354.73,99.31 355.57,85.35 356.39,82.15 357.23,87.41 358.06,88.59 358.90,87.91 359.73,84.32 360.57,86.47 361.40,84.97 362.24,86.33 363.06,91.69 363.90,86.14 364.73,82.24 365.57,92.43 366.41,99.60 367.24,77.45 368.08,96.33 368.91,97.12 369.74,78.79 370.57,84.48 371.41,100.21 372.24,75.01 373.08,90.38 373.91,89.42 374.75,81.32 375.58,88.15 376.42,87.74 377.24,93.35 378.08,87.80 378.91,80.22 379.75,86.49 380.58,86.08 381.42,78.94 382.25,91.31 383.09,90.47 383.92,86.57 384.75,80.73 385.58,96.03 386.42,78.89 387.26,89.28 388.09,91.02 388.93,86.50 389.76,89.52 390.59,87.72 391.42,86.02 392.26,87.81 393.09,89.66 393.93,91.51 394.76,91.77 395.60,85.16 396.43,82.34 397.27,81.78 398.09,92.48 398.93,87.85 399.76,89.19 400.60,88.99 401.43,87.86 402.27,84.41 403.10,92.39 403.94,87.92 404.77,82.23 405.60,92.53 406.44,87.46 407.27,89.04 408.11,82.88 408.94,79.01 409.78,95.44 410.61,94.53 411.45,82.64 412.27,90.41 413.11,87.01 413.94,84.17 414.78,92.11 415.61,79.11 416.45,91.41 417.28,93.89 418.12,86.41 418.95,85.58 419.78,86.37 420.61,87.72 421.45,82.89 422.28,85.68 423.12,95.65 423.95,85.17 424.79,88.40 425.62,88.80 426.45,82.04 427.29,91.91 428.12,90.16 428.96,83.53 429.79,85.58 430.63,86.55 431.46,89.58 432.30,89.94 433.12,92.03 433.96,94.56 434.79,78.87 435.63,89.57 436.46,95.68 437.30,87.78 438.13,85.73 438.97,86.41 439.80,88.70 440.63,83.48 441.46,89.91 442.30,94.58 443.13,79.39 443.97,83.16 444.81,89.91 445.64,82.82 446.47,88.95 447.30,92.73 448.14,89.50 448.97,86.09 449.81,84.87 450.64,95.09 451.48,77.85 452.31,85.27 453.15,80.87 453.97,90.15 454.81,85.70 455.64,88.61 456.48,71.15 457.31,95.83 458.15,83.65 458.98,90.80 459.82,85.42 460.65,93.21 461.48,84.12 462.31,87.25 463.15,90.82 463.98,87.76 464.82,86.04 465.66,81.61 466.49,84.05 467.33,92.08 468.15,89.88 468.99,87.07 469.82,82.60 470.66,91.44 471.49,83.04 472.33,86.46 473.16,93.86 474.00,85.32 474.83,83.02 475.66,89.96 476.49,86.33 477.33,86.83 478.16,91.35 479.00,78.74 479.83,89.97 480.67,90.40 481.50,84.71 482.33,91.48 483.16,84.74 484.00,86.41 484.84,92.59 485.67,88.32 486.51,82.87 487.34,88.40 488.18,89.06 489.00,80.96 489.84,91.61 490.67,91.78 491.51,83.58 492.34,87.73 493.18,89.00 494.01,89.87 494.85,83.65 495.68,91.90 496.51,81.62 497.34,81.84 498.18,92.13 499.01,87.53 499.85,90.11 500.68,89.28 501.52,84.91 502.35,89.58 503.18,82.40 504.02,96.58 504.85,88.78 505.69,74.40 506.52,82.79 507.36,91.05 508.19,82.99 509.03,85.34 509.85,84.29 510.69,89.31 511.52,94.26 512.36,91.53 513.19,82.31 514.03,83.56 514.86,80.30 515.70,90.66 516.53,95.08 517.36,84.72 518.19,85.89 519.03,84.18 519.86,93.84 520.70,77.33 521.53,95.49 522.37,88.36 523.21,82.28 524.03,88.40 524.87,89.81 525.70,85.41 526.54,90.64 527.37,82.91 528.21,84.07 529.04,94.13 529.88,83.03 530.71,87.50 531.54,91.61 532.37,88.75 533.21,86.32 534.04,91.61 534.88,90.59 535.71,79.54 536.55,94.24 537.38,78.28 538.21,91.49 539.04,79.43 539.88,82.55 540.71,87.57 541.55,93.90 542.38,83.36 543.22,94.28 544.06,81.02 544.88,86.09 545.72,78.30 546.55,89.83 547.39,88.90 548.22,85.87 549.06,80.28 549.89,94.62 550.73,87.64 551.56,84.79 552.39,88.21 553.22,92.56 554.06,77.83 554.89,81.91 555.73,83.28 556.56,90.57 557.40,85.30 558.23,93.19 559.06,93.44 559.89,85.60 560.73,87.81 561.56,88.53 562.40,81.89 563.24,92.54 564.07,89.54 564.91,90.92 565.74,87.70 566.57,82.46 567.40,85.63 568.24,94.99 569.07,88.55 569.91,97.60 570.74,86.12 571.58,84.48 572.41,90.43 573.24,85.21 574.07,86.52 574.91,93.96 575.74,87.28 576.58,78.65 577.41,91.48 578.25,85.50 579.08,86.36 579.91,92.15 580.74,92.87 581.58,81.01 582.42,91.19 583.25,85.14 584.09,82.38 584.92,87.51 585.76,91.06 586.59,93.05 587.42,81.33 588.25,94.73 589.09,90.39 589.92,85.82 590.76,89.13 591.59,91.03 592.43,86.23 593.26,82.21 594.09,93.41 594.92,90.01 595.76,74.22 596.59,93.99 597.43,81.16 598.26,87.61 599.10,84.61 599.93,82.05 600.76,84.69 601.60,88.41 602.43,86.07 603.27,91.03 604.10,88.95 604.94,91.95 605.77,78.22 606.61,85.38 607.44,89.24 608.27,87.02 609.10,87.75 609.94,87.39 610.77,90.55 611.61,85.07 612.44,96.09 613.28,82.14 614.11,91.74 614.94,87.74 615.77,88.83 616.61,85.47 617.44,89.66 618.28,80.46 619.11,95.81 619.95,85.14 620.78,94.63 621.62,93.04 622.45,81.52 623.28,83.79 624.12,103.26 624.95,76.27 625.79,101.31 626.62,86.77 627.46,82.39 628.29,86.99 629.12,97.23 629.95,79.87 630.79,91.85 631.62,85.45 632.46,93.76 633.29,87.61 634.13,90.66 634.96,85.30 635.79,86.01 636.62,83.56 637.46,93.48 638.29,88.06 639.13,86.33 639.96,84.39 640.80,91.97 641.64,80.77 642.47,95.65 643.30,91.07 644.13,84.63 644.97,84.33 645.80,94.54 646.64,83.57 647.47,80.94 648.31,89.82 649.14,86.57 649.97,85.78 650.80,94.55 651.64,82.01 652.47,87.55 653.31,90.30 654.14,85.69 654.98,82.86 655.81,94.25 656.64,87.46 657.47,90.84 658.31,88.46 659.14,81.67 659.98,91.59 660.82,87.54 661.65,76.97 662.49,85.23 663.32,88.47 664.15,86.95 664.98,98.79 665.82,84.24 666.65,87.63 667.49,98.73 668.32,79.99 669.16,81.80 669.99,101.82 670.82,77.38 671.65,91.27 672.49,86.50 673.32,87.21 674.16,85.83 674.99,91.35 675.83,83.56 676.66,91.91 677.50,89.82 678.32,84.03 679.16,88.32 680.00,89.83 680.83,80.82 681.67,92.04 682.50,84.59 683.34,78.71 684.17,99.05 685.00,86.65 685.83,88.41 686.67,94.22 687.50,90.05 688.34,81.43 689.17,90.59 690.01,82.03 690.84,81.59 691.67,87.93 692.50,94.05 693.34,79.74 694.17,86.15 695.01,91.37 695.84,80.79 696.68,96.22 697.51,82.41 698.35,85.72 699.17,88.24 700.01,89.07 700.85,76.57 701.68,86.70 702.52,92.24 703.35,92.49 704.19,91.24 705.02,93.25 705.85,86.91 706.68,88.56 707.52,86.29 708.35,87.66 709.19,88.59 710.02,90.20 710.86,90.26 711.69,78.17 712.52,85.51 713.35,91.06 714.19,86.86 715.02,91.32 715.86,88.21 716.69,89.07 717.53,82.96 718.36,92.53 719.20,82.25 720.03,81.78 720.86,91.45 721.70,81.94 722.53,87.93 723.37,87.47 724.20,89.51 725.04,83.25 725.87,90.43 726.70,87.74 727.53,94.92 728.37,86.19 729.20,89.12 730.04,85.29 730.87,87.49 731.71,88.27 732.54,96.97 733.38,78.83 734.20,88.14 735.04,94.72 735.87,88.38 736.71,83.46 737.54,92.26 738.38,91.17 739.22,84.89 740.05,83.90 740.88,95.16 741.71,83.72 742.55,89.21 743.38,84.64 744.22,86.67 745.05,80.27 745.89,95.20 746.72,82.40 747.55,87.12 748.38,95.34 749.22,81.99 750.05,90.99 750.89,89.98 751.72,81.21 752.56,91.95 753.39,86.68 754.23,88.48 755.05,93.30 755.89,89.47 756.72,91.29 757.56,86.86 758.40,94.16 759.23,80.04 760.07,88.29 760.90,84.64 761.73,83.45 762.56,91.68 763.40,85.15 764.23,87.99 765.07,86.66 765.90,88.54 766.74,90.02 767.57,92.00 768.41,83.20 769.23,89.06 770.07,90.87 770.90,94.63 771.74,80.14 772.57,89.12 773.41,82.32 774.24,87.59 775.08,92.97 775.91,83.28 776.74,84.66 777.57,86.79 778.41,96.03 779.25,93.64 780.08,74.03 780.92,92.12 781.75,81.61 782.58,85.99 783.41,104.61 784.25,83.46 785.08,79.19 785.92,97.05 786.75,85.18 787.59,79.44 788.42,94.38 789.26,85.77 790.08,87.61 790.92,87.28 791.75,97.57 792.59,84.94 793.42,80.29 794.26,90.38 795.09,93.44 795.93,79.35 796.76,79.88 797.59,104.47 798.43,76.27 799.26,87.14 800.10,94.30 800.93,85.00 801.77,79.72 802.60,88.43 803.43,88.99 804.26,82.89 805.10,87.33 805.93,94.85 806.77,80.77 807.60,80.92 808.44,96.66 809.27,84.55 810.11,83.37 810.93,96.16 811.77,84.88 812.60,86.98 813.44,91.64 814.27,83.83 815.11,81.76 815.94,91.16 816.78,85.77 817.61,85.90 818.44,84.17 819.28,94.37 820.11,87.01 820.95,89.68 821.78,80.75 822.62,93.99 823.45,80.75 824.29,94.55 825.11,85.60 825.95,79.82 826.78,92.07 827.62,88.04 828.45,80.17 829.29,88.75 830.12,87.46 830.96,89.05 831.79,84.59 832.62,87.16 833.45,86.75 834.29,83.18 835.12,89.10 835.96,85.11 836.80,91.26 837.63,86.62 838.46,82.51 839.29,87.88 840.13,91.10 840.96,86.04 841.80,87.83 842.63,87.40 843.47,87.93 844.30,85.16 845.14,89.35 845.96,87.78 846.80,88.94 847.63,85.12 848.47,89.06 849.30,88.49 850.14,87.91 850.97,90.31 851.81,88.28 852.64,88.33 853.47,85.98 854.30,89.69 855.14,93.89 855.97,71.32 856.81,93.48 857.65,84.86 858.48,87.86 859.31,89.04 860.14,94.44 860.98,85.22 861.81,94.24 862.65,87.65 863.48,80.74 864.32,95.16 865.15,93.14 865.99,85.73 866.81,88.92 867.65,84.25 868.48,88.18 869.32,84.46 870.15,85.88 870.99,88.12 871.82,86.18 872.66,86.59 873.49,88.98 874.32,89.97 875.15,82.57 875.99,88.96 876.83,90.85 877.66,84.78 878.50,87.08 879.33,91.45 880.17,91.50 880.99,87.14 881.83,85.42 882.66,87.36 883.50,91.46 884.33,88.41 885.17,91.60 886.00,83.17 886.84,95.18 887.67,82.60 888.50,86.40 889.33,84.41 890.17,84.59 891.00,98.93 891.84,83.97 892.67,95.49 893.51,88.44 894.34,85.28 895.17,95.77 896.01,89.32 896.84,86.01 897.68,86.27 898.51,86.81 899.35,91.00 900.18,80.90 901.02,92.20 901.84,87.43 902.68,91.70 903.51,91.46 904.35,74.73 905.18,94.42 906.02,88.36 906.85,79.07 907.69,82.10 908.52,91.31 909.35,86.56 910.18,88.25 911.02,89.03 911.85,91.39 912.69,84.45 913.52,95.67 914.36,84.37 915.20,85.65 916.02,91.76 916.86,86.43 917.69,88.85 918.53,88.03 919.36,81.47 920.20,96.94 921.03,87.01 921.87,83.07 922.70,91.33 923.53,86.32 924.36,86.63 925.20,87.70 926.03,79.10 926.87,96.85 927.70,88.47 928.54,81.89 929.37,95.56 930.20,91.03 931.03,84.95 931.87,78.01 932.70,86.77 933.54,83.94 934.37,80.75 935.21,93.09 936.05,88.05 936.87,76.39 937.71,95.20 938.54,87.01 939.38,86.25 940.21,83.72 941.05,87.38 941.88,85.72 942.72,89.54 943.55,80.26 944.38,88.61 945.21,93.06 946.05,80.82 946.88,92.93 947.72,90.22 948.55,78.46 949.39,90.47 950.22,90.07 951.05,80.35 951.88,92.44 952.72,88.24 953.55,88.36 954.39,87.39 955.23,92.07 956.06,85.34 956.90,90.01 957.72,82.91 958.56,87.80 959.39,88.96 960.23,92.10 961.06,90.29 961.90,85.04 962.73,91.42 963.57,87.19 964.40,86.56 965.23,81.23 966.06,87.68 966.90,82.37 967.73,87.96 968.57,94.21 969.40,84.37 970.24,84.92 971.07,94.55 971.90,80.72 972.73,92.16 973.57,90.93 974.41,77.77 975.24,89.94 976.08,85.23 976.91,91.32 977.75,80.13 978.58,96.09 979.41,86.52 980.24,89.76 981.08,98.67 981.91,78.50 982.75,78.98 983.58,97.79 984.42,80.91 985.25,83.73 986.08,92.59 986.91,89.17 987.75,81.14 988.58,90.32 989.42,90.75 990.25,81.55 991.09,84.44 991.92,92.68 992.75,89.48 993.59,88.97 994.42,84.02 995.26,89.73 996.09,93.92 996.93,87.05 997.76,89.52 998.60,81.09 999.43,82.04 1000.26,90.62 1001.09,83.55 1001.93,91.96 1002.76,92.18 1003.60,85.48 1004.43,91.58 1005.27,84.89 1006.10,84.73 1006.93,86.24 1007.76,90.80 1008.60,92.03 1009.43,86.55 1010.27,84.54 1011.10,88.02 1011.94,87.92 1012.77,83.70 1013.60,87.93 1014.44,87.25 1015.27,83.99 1016.11,84.23 1016.94,87.04 1017.78,91.46 1018.61,79.38 1019.45,84.11 1020.28,96.14 1021.11,83.62 1021.94,81.94 1022.78,90.02 1023.61,74.38 1024.45,81.06 1025.28,88.61 1026.12,87.03 1026.95,88.99 1027.78,92.65 1028.61,89.24 1029.45,93.94 1030.28,87.57 1031.12,87.20 1031.95,86.55 1032.79,89.31 1033.63,85.57 1034.46,96.95 1035.29,84.92 1036.12,87.15 1036.96,96.25 1037.79,88.17 1038.63,82.97 1039.46,85.58 1040.30,87.32 1041.13,81.65 1041.96,87.89 1042.79,88.24 1043.63,93.41 1044.46,87.35 1045.30,89.62 1046.13,96.25 1046.97,92.19 1047.80,81.23 1048.63,89.19 1049.46,86.58 1050.30,89.95 1051.13,81.28 1051.97,95.24 1052.81,81.77 1053.64,92.36 1054.48,96.84 1055.31,77.80 1056.14,87.26 1056.97,99.98 1057.81,76.87 1058.64,81.98 1059.48,122.00 1060.31,102.30 1061.15,63.66 1061.98,85.93 1062.81,97.74 1063.64,82.94 1064.48,83.65 1065.31,83.80 1066.15,93.28 1066.98,89.71 1067.82,75.26 1068.65,95.44 1069.48,83.63 1070.31,87.50 1071.15,87.50 1071.99,87.50" fill="none" stroke="#444" stroke-width="1.0" />
<text x="18" y="212.5" font-family="Arial" font-size="12" fill="#444">Voiced probability</text>
<line x1="72" y1="255" x2="1072" y2="255" stroke="#ddd" />
<rect x="72" y="170" width="1000" height="85" fill="none" stroke="#eee" />
<polyline points="72.00,204.86 73.44,216.77 74.88,221.77 76.33,225.94 77.77,229.59 79.21,228.30 80.65,220.70 82.10,220.19 83.54,218.74 84.98,218.70 86.42,215.53 87.87,212.76 89.31,212.61 90.75,211.66 92.19,210.54 93.63,209.51 95.08,209.34 96.52,208.71 97.96,208.97 99.40,209.03 100.85,209.47 102.29,211.32 103.73,213.57 105.17,213.37 106.62,212.03 108.06,211.66 109.50,209.66 110.94,208.26 112.38,207.16 113.83,207.01 115.27,207.89 116.71,207.95 118.15,208.81 119.60,209.80 121.04,210.17 122.48,209.69 123.92,209.05 125.37,208.65 126.81,209.03 128.25,207.31 129.69,208.59 131.13,209.93 132.58,209.94 134.02,211.00 135.46,210.19 136.90,208.91 138.35,209.70 139.79,209.39 141.23,209.54 142.67,208.37 144.11,205.64 145.56,207.77 147.00,207.97 148.44,205.85 149.88,204.22 151.33,204.04 152.77,205.82 154.21,204.57 155.65,203.84 157.10,203.42 158.54,203.93 159.98,203.31 161.42,203.87 162.86,203.45 164.31,203.85 165.75,204.18 167.19,205.40 168.63,208.23 170.08,208.89 171.52,208.25 172.96,209.81 174.40,210.11 175.85,207.83 177.29,207.23 178.73,207.24 180.17,208.28 181.61,209.83 183.06,211.73 184.50,210.88 185.94,209.12 187.38,211.37 188.83,211.75 190.27,212.80 191.71,211.63 193.15,210.26 194.60,208.84 196.04,207.44 197.48,207.97 198.92,209.93 200.36,210.02 201.81,208.73 203.25,211.47 204.69,210.38 206.13,209.60 207.58,207.47 209.02,204.20 210.46,205.87 211.90,204.39 213.35,203.32 214.79,202.60 216.23,204.93 217.67,205.93 219.11,205.93 220.56,205.12 222.00,202.03 223.44,202.75 224.88,203.85 226.33,203.80 227.77,203.87 229.21,204.11 230.65,204.49 232.10,206.43 233.54,206.61 234.98,206.36 236.42,206.22 237.86,206.24 239.31,206.64 240.75,206.95 242.19,205.81 243.63,205.50 245.08,207.09 246.52,208.36 247.96,209.14 249.40,209.62 250.85,209.38 252.29,208.27 253.73,207.74 255.17,206.37 256.61,205.08 258.06,202.70 259.50,204.74 260.94,206.37 262.38,205.89 263.83,205.17 265.27,205.56 266.71,204.02 268.15,201.90 269.59,202.97 271.04,204.57 272.48,206.38 273.92,207.61 275.36,208.44 276.81,207.46 278.25,207.68 279.69,208.68 281.13,209.32 282.58,208.32 284.02,208.97 285.46,208.16 286.90,207.02 288.34,207.75 289.79,209.65 291.23,207.51 292.67,206.26 294.11,207.98 295.56,209.71 297.00,209.47 298.44,209.87 299.88,209.00 301.33,210.09 302.77,210.22 304.21,209.79 305.65,208.14 307.09,206.56 308.54,204.17 309.98,206.22 311.42,205.68 312.86,204.88 314.31,205.02 315.75,205.76 317.19,204.17 318.63,205.68 320.08,206.79 321.52,206.01 322.96,206.37 324.40,207.49 325.84,208.75 327.29,209.36 328.73,207.56 330.17,206.72 331.61,204.16 333.06,204.11 334.50,203.72 335.94,204.00 337.38,202.93 338.83,200.94 340.27,202.03 341.71,203.52 343.15,204.22 344.59,204.36 346.04,202.36 347.48,203.55 348.92,204.70 350.36,206.27 351.81,207.02 353.25,207.43 354.69,206.23 356.13,205.31 357.58,204.32 359.02,204.57 360.46,204.77 361.90,207.59 363.34,208.92 364.79,209.98 366.23,208.07 367.67,207.16 369.11,208.39 370.56,206.61 372.00,207.16 373.44,206.92 374.88,205.91 376.33,204.99 377.77,203.06 379.21,202.48 380.65,203.02 382.09,202.77 383.54,203.14 384.98,201.75 386.42,201.31 387.86,201.62 389.31,201.15 390.75,202.11 392.19,203.88 393.63,204.38 395.07,203.39 396.52,203.44 397.96,204.50 399.40,204.65 400.84,204.86 402.29,207.94 403.73,209.48 405.17,209.07 406.61,205.28 408.06,204.49 409.50,202.94 410.94,204.03 412.38,203.78 413.82,201.35 415.27,203.11 416.71,207.85 418.15,211.15 419.59,212.19 421.04,213.01 422.48,213.25 423.92,212.75 425.36,212.05 426.81,213.47 428.25,211.76 429.69,214.17 431.13,214.27 432.57,211.89 434.02,209.64 435.46,210.88 436.90,211.21 438.34,211.00 439.79,213.56 441.23,214.60 442.67,214.31 444.11,213.89 445.56,211.35 447.00,210.92 448.44,210.20 449.88,210.28 451.32,207.42 452.77,205.79 454.21,208.23 455.65,210.57 457.09,212.38 458.54,212.63 459.98,211.07 461.42,208.05 462.86,206.68 464.31,205.93 465.75,207.49 467.19,208.25 468.63,208.35 470.07,208.18 471.52,205.98 472.96,205.21 474.40,205.73 475.84,207.73 477.29,208.46 478.73,207.31 480.17,206.50 481.61,205.39 483.06,205.63 484.50,206.21 485.94,206.91 487.38,205.80 488.82,206.48 490.27,206.93 491.71,206.12 493.15,207.79 494.59,208.23 496.04,207.31 497.48,205.58 498.92,205.76 500.36,205.70 501.81,206.55 503.25,206.53 504.69,208.46 506.13,209.15 507.57,209.02 509.02,208.13 510.46,207.23 511.90,207.39 513.34,206.39 514.79,204.00 516.23,206.02 517.67,207.83 519.11,206.46 520.55,206.40 522.00,207.27 523.44,208.97 524.88,210.20 526.32,211.19 527.77,209.99 529.21,209.48 530.65,208.94 532.09,209.82 533.54,209.13 534.98,207.46 536.42,207.67 537.86,206.09 539.30,205.42 540.75,206.61 542.19,206.87 543.63,207.53 545.07,206.72 546.52,205.73 547.96,207.33 549.40,206.52 550.84,204.85 552.29,204.07 553.73,203.99 555.17,203.84 556.61,204.10 558.05,205.72 559.50,207.69 560.94,206.48 562.38,203.38 563.82,203.64 565.27,203.61 566.71,203.60 568.15,205.10 569.59,204.99 571.04,205.94 572.48,207.46 573.92,210.31 575.36,210.09 576.80,209.00 578.25,209.53 579.69,210.21 581.13,211.29 582.57,210.32 584.02,209.19 585.46,208.50 586.90,205.33 588.34,204.82 589.79,205.42 591.23,206.87 592.67,207.65 594.11,205.79 595.55,205.54 597.00,205.09 598.44,205.24 599.88,204.80 601.32,203.96 602.77,203.95 604.21,206.36 605.65,206.05 607.09,206.67 608.54,205.86 609.98,205.76 611.42,205.97 612.86,205.89 614.30,205.20 615.75,206.16 617.19,204.64 618.63,205.62 620.07,204.87 621.52,202.87 622.96,205.05 624.40,207.53 625.84,209.05 627.29,210.03 628.73,209.83 630.17,211.38 631.61,210.68 633.05,210.91 634.50,211.04 635.94,210.21 637.38,211.70 638.82,209.87 640.27,209.73 641.71,209.29 643.15,208.59 644.59,209.06 646.04,208.48 647.48,210.59 648.92,209.76 650.36,209.51 651.80,210.45 653.25,212.41 654.69,212.17 656.13,212.30 657.57,211.80 659.02,212.34 660.46,210.37 661.90,209.98 663.34,208.98 664.78,207.42 666.23,208.90 667.67,209.24 669.11,211.02 670.55,211.14 672.00,209.37 673.44,206.95 674.88,209.27 676.32,207.02 677.77,208.95 679.21,211.15 680.65,209.64 682.09,207.90 683.53,207.18 684.98,206.45 686.42,205.77 687.86,205.32 689.30,204.36 690.75,203.41 692.19,203.16 693.63,204.35 695.07,203.83 696.52,201.56 697.96,202.31 699.40,204.16 700.84,203.89 702.28,203.52 703.73,202.15 705.17,203.82 706.61,203.71 708.05,202.61 709.50,203.34 710.94,206.36 712.38,205.38 713.82,205.86 715.27,205.15 716.71,205.26 718.15,202.81 719.59,198.15 721.03,200.50 722.48,197.83 723.92,202.96 725.36,202.05 726.80,202.34 728.25,205.02 729.69,205.44 731.13,205.07 732.57,206.10 734.02,206.14 735.46,203.75 736.90,203.48 738.34,203.52 739.78,204.04 741.23,204.94 742.67,203.48 744.11,205.53 745.55,206.55 747.00,206.39 748.44,204.50 749.88,203.31 751.32,204.15 752.77,203.26 754.21,203.59 755.65,207.45 757.09,207.80 758.53,208.49 759.98,209.08 761.42,206.26 762.86,204.21 764.30,204.10 765.75,205.06 767.19,206.21 768.63,205.38 770.07,205.73 771.52,205.65 772.96,207.23 774.40,206.93 775.84,206.83 777.28,206.04 778.73,206.90 780.17,208.05 781.61,209.67 783.05,210.95 784.50,212.28 785.94,210.36 787.38,209.93 788.82,208.40 790.26,209.09 791.71,210.37 793.15,209.47 794.59,208.74 796.03,209.34 797.48,210.52 798.92,210.24 800.36,208.54 801.80,205.00 803.25,205.44 804.69,206.27 806.13,206.10 807.57,204.76 809.01,205.06 810.46,206.70 811.90,206.59 813.34,206.79 814.78,202.81 816.23,203.13 817.67,204.51 819.11,208.23 820.55,207.78 822.00,209.64 823.44,208.98 824.88,208.10 826.32,206.72 827.76,207.69 829.21,205.75 830.65,208.00 832.09,207.02 833.53,206.72 834.98,205.74 836.42,204.08 837.86,203.80 839.30,205.00 840.75,205.54 842.19,207.14 843.63,206.98 845.07,206.96 846.51,207.01 847.96,203.59 849.40,204.35 850.84,203.99 852.28,203.66 853.73,201.97 855.17,201.62 856.61,200.66 858.05,200.15 859.50,203.42 860.94,203.25 862.38,203.61 863.82,203.06 865.26,203.83 866.71,203.72 868.15,203.50 869.59,202.50 871.03,202.88 872.48,203.66 873.92,203.80 875.36,203.08 876.80,202.28 878.25,202.14 879.69,206.78 881.13,209.33 882.57,210.92 884.01,211.76 885.46,211.76 886.90,212.37 888.34,213.12 889.78,212.01 891.23,212.30 892.67,210.51 894.11,210.30 895.55,209.29 897.00,207.85 898.44,207.11 899.88,205.79 901.32,204.17 902.76,203.00 904.21,201.72 905.65,202.47 907.09,204.26 908.53,204.75 909.98,203.11 911.42,204.39 912.86,205.82 914.30,206.09 915.74,204.80 917.19,204.85 918.63,205.32 920.07,206.63 921.51,206.64 922.96,207.07 924.40,204.46 925.84,202.55 927.28,201.95 928.73,203.91 930.17,204.23 931.61,203.48 933.05,203.49 934.49,203.46 935.94,202.45 937.38,204.24 938.82,202.28 940.26,201.43 941.71,204.86 943.15,205.23 944.59,205.52 946.03,206.56 947.48,208.35 948.92,206.91 950.36,207.13 951.80,208.02 953.24,209.13 954.69,211.65 956.13,213.13 957.57,210.80 959.01,207.73 960.46,204.91 961.90,204.45 963.34,204.89 964.78,204.60 966.23,205.32 967.67,203.40 969.11,202.05 970.55,201.54 971.99,201.97 973.44,203.97 974.88,204.17 976.32,204.23 977.76,206.11 979.21,205.85 980.65,204.20 982.09,205.65 983.53,203.82 984.98,202.76 986.42,202.22 987.86,201.95 989.30,201.14 990.74,201.40 992.19,201.60 993.63,200.80 995.07,200.72 996.51,200.47 997.96,202.56 999.40,204.34 1000.84,205.26 1002.28,204.98 1003.73,204.24 1005.17,204.41 1006.61,202.25 1008.05,201.74 1009.49,202.92 1010.94,205.14 1012.38,207.51 1013.82,207.64 1015.26,207.96 1016.71,207.47 1018.15,206.23 1019.59,206.91 1021.03,206.91 1022.48,205.66 1023.92,205.78 1025.36,205.20 1026.80,205.48 1028.24,205.10 1029.69,205.79 1031.13,205.45 1032.57,206.10 1034.01,206.59 1035.46,206.84 1036.90,206.13 1038.34,205.26 1039.78,205.24 1041.22,204.33 1042.67,204.93 1044.11,204.05 1045.55,205.60 1046.99,209.17 1048.44,210.66 1049.88,212.27 1051.32,212.32 1052.76,209.81 1054.21,211.34 1055.65,212.04 1057.09,211.09 1058.53,209.50 1059.97,208.96 1061.42,208.47 1062.86,206.32 1064.30,205.99 1065.74,207.83 1067.19,210.50 1068.63,212.96 1070.07,217.75 1071.51,219.23" fill="none" stroke="#2563eb" stroke-width="1.4" />
<line x1="72" y1="229.50" x2="1072" y2="229.50" stroke="#bbb" stroke-dasharray="4 4" />
<text x="1076" y="233.50" font-family="Arial" font-size="10" fill="#666">0.3</text>
<line x1="72" y1="212.50" x2="1072" y2="212.50" stroke="#bbb" stroke-dasharray="4 4" />
<text x="1076" y="216.50" font-family="Arial" font-size="10" fill="#666">0.5</text>
<line x1="72" y1="195.50" x2="1072" y2="195.50" stroke="#bbb" stroke-dasharray="4 4" />
<text x="1076" y="199.50" font-family="Arial" font-size="10" fill="#666">0.7</text>
<line x1="72" y1="178.50" x2="1072" y2="178.50" stroke="#bbb" stroke-dasharray="4 4" />
<text x="1076" y="182.50" font-family="Arial" font-size="10" fill="#666">0.9</text>
<text x="18" y="342.5" font-family="Arial" font-size="12" fill="#444">Pitch confidence</text>
<line x1="72" y1="385" x2="1072" y2="385" stroke="#ddd" />
<rect x="72" y="300" width="1000" height="85" fill="none" stroke="#eee" />
<polyline points="72.00,382.51 73.44,378.78 74.88,377.15 76.33,376.63 77.77,376.19 79.21,375.67 80.65,375.24 82.10,375.13 83.54,375.43 84.98,375.17 86.42,374.66 87.87,374.67 89.31,374.22 90.75,373.24 92.19,373.44 93.63,374.33 95.08,374.13 96.52,374.74 97.96,375.46 99.40,376.56 100.85,377.18 102.29,374.64 103.73,372.14 105.17,371.26 106.62,371.82 108.06,372.69 109.50,374.48 110.94,374.39 112.38,375.47 113.83,376.14 115.27,374.39 116.71,374.90 118.15,373.38 119.60,373.81 121.04,373.73 122.48,373.71 123.92,373.50 125.37,373.54 126.81,373.39 128.25,376.55 129.69,377.83 131.13,376.89 132.58,376.90 134.02,378.25 135.46,376.36 136.90,376.74 138.35,375.56 139.79,376.12 141.23,376.48 142.67,377.92 144.11,377.38 145.56,376.51 147.00,374.35 148.44,375.67 149.88,375.83 151.33,378.23 152.77,379.24 154.21,378.72 155.65,379.27 157.10,380.36 158.54,380.46 159.98,379.58 161.42,379.40 162.86,377.38 164.31,375.79 165.75,375.94 167.19,376.89 168.63,375.25 170.08,376.06 171.52,376.90 172.96,374.19 174.40,372.19 175.85,371.92 177.29,373.30 178.73,373.94 180.17,372.35 181.61,372.23 183.06,370.29 184.50,369.70 185.94,368.46 187.38,368.61 188.83,368.38 190.27,369.20 191.71,368.95 193.15,369.36 194.60,369.26 196.04,371.40 197.48,372.09 198.92,370.63 200.36,370.58 201.81,371.64 203.25,372.24 204.69,372.59 206.13,374.41 207.58,375.08 209.02,376.23 210.46,376.88 211.90,375.71 213.35,377.08 214.79,378.11 216.23,378.97 217.67,379.41 219.11,378.15 220.56,379.04 222.00,377.93 223.44,378.90 224.88,377.64 226.33,379.31 227.77,378.36 229.21,378.73 230.65,378.35 232.10,378.01 233.54,377.33 234.98,376.45 236.42,375.31 237.86,373.32 239.31,372.41 240.75,374.14 242.19,374.10 243.63,376.03 245.08,378.27 246.52,378.61 247.96,378.87 249.40,377.89 250.85,377.85 252.29,378.25 253.73,377.42 255.17,377.76 256.61,374.76 258.06,373.72 259.50,377.85 260.94,376.60 262.38,376.03 263.83,375.39 265.27,376.33 266.71,377.18 268.15,377.27 269.59,378.09 271.04,378.97 272.48,377.27 273.92,376.54 275.36,376.17 276.81,376.73 278.25,375.53 279.69,376.84 281.13,377.68 282.58,377.30 284.02,377.14 285.46,376.20 286.90,378.48 288.34,378.26 289.79,374.66 291.23,371.66 292.67,371.90 294.11,372.48 295.56,371.12 297.00,370.27 298.44,370.82 299.88,369.63 301.33,370.25 302.77,370.84 304.21,370.31 305.65,370.35 307.09,370.44 308.54,374.59 309.98,373.30 311.42,372.03 312.86,371.97 314.31,370.93 315.75,371.35 317.19,371.08 318.63,371.97 320.08,371.86 321.52,372.11 322.96,371.03 324.40,370.73 325.84,371.22 327.29,372.58 328.73,373.91 330.17,375.72 331.61,376.45 333.06,375.96 334.50,377.45 335.94,374.53 337.38,372.02 338.83,371.30 340.27,371.83 341.71,373.52 343.15,373.15 344.59,373.87 346.04,373.19 347.48,374.35 348.92,377.07 350.36,378.16 351.81,378.51 353.25,376.00 354.69,374.49 356.13,374.38 357.58,376.88 359.02,377.14 360.46,376.79 361.90,378.03 363.34,376.62 364.79,375.49 366.23,373.22 367.67,372.04 369.11,371.69 370.56,372.49 372.00,372.88 373.44,373.34 374.88,373.30 376.33,374.01 377.77,375.46 379.21,376.19 380.65,376.23 382.09,375.95 383.54,376.54 384.98,376.54 386.42,378.30 387.86,379.46 389.31,378.37 390.75,378.12 392.19,377.70 393.63,376.92 395.07,376.15 396.52,374.66 397.96,373.99 399.40,374.43 400.84,375.05 402.29,377.27 403.73,377.64 405.17,377.52 406.61,377.60 408.06,377.64 409.50,376.93 410.94,376.14 412.38,376.71 413.82,375.08 415.27,374.67 416.71,376.90 418.15,376.63 419.59,375.14 421.04,374.58 422.48,374.09 423.92,374.50 425.36,375.86 426.81,375.75 428.25,374.86 429.69,374.32 431.13,373.28 432.57,372.28 434.02,372.83 435.46,375.83 436.90,376.79 438.34,375.93 439.79,376.09 441.23,374.81 442.67,374.13 444.11,372.62 445.56,371.11 447.00,370.69 448.44,369.85 449.88,370.69 451.32,371.50 452.77,372.49 454.21,373.02 455.65,371.88 457.09,372.52 458.54,372.98 459.98,372.53 461.42,374.35 462.86,375.81 464.31,375.90 465.75,376.56 467.19,375.31 468.63,373.71 470.07,373.65 471.52,373.61 472.96,373.32 474.40,372.90 475.84,372.57 477.29,372.16 478.73,374.64 480.17,375.31 481.61,375.91 483.06,374.66 484.50,373.65 485.94,372.40 487.38,371.59 488.82,372.46 490.27,375.88 491.71,377.44 493.15,376.36 494.59,375.18 496.04,373.42 497.48,375.81 498.92,374.88 500.36,371.84 501.81,371.11 503.25,373.18 504.69,374.31 506.13,374.18 507.57,377.09 509.02,376.42 510.46,375.12 511.90,376.31 513.34,376.66 514.79,378.09 516.23,377.86 517.67,376.97 519.11,375.83 520.55,375.02 522.00,375.07 523.44,374.93 524.88,377.55 526.32,378.11 527.77,377.23 529.21,373.96 530.65,371.69 532.09,370.05 533.54,370.52 534.98,371.99 536.42,372.23 537.86,372.58 539.30,372.89 540.75,371.27 542.19,370.56 543.63,370.61 545.07,369.56 546.52,369.81 547.96,370.41 549.40,369.92 550.84,373.59 552.29,376.29 553.73,377.43 555.17,377.69 556.61,377.91 558.05,376.81 559.50,376.05 560.94,377.03 562.38,376.45 563.82,376.74 565.27,376.45 566.71,376.28 568.15,376.88 569.59,376.55 571.04,376.74 572.48,375.95 573.92,378.44 575.36,377.70 576.80,377.75 578.25,377.60 579.69,377.14 581.13,374.81 582.57,374.93 584.02,375.40 585.46,373.89 586.90,372.31 588.34,372.25 589.79,374.05 591.23,375.24 592.67,374.03 594.11,374.04 595.55,376.72 597.00,378.01 598.44,377.26 599.88,376.01 601.32,376.83 602.77,374.81 604.21,377.02 605.65,376.30 607.09,377.93 608.54,376.94 609.98,375.90 611.42,376.02 612.86,377.17 614.30,377.23 615.75,376.36 617.19,372.29 618.63,371.31 620.07,370.17 621.52,372.78 622.96,372.96 624.40,371.65 625.84,373.40 627.29,374.92 628.73,373.81 630.17,373.56 631.61,372.50 633.05,370.62 634.50,369.03 635.94,368.08 637.38,368.18 638.82,367.86 640.27,367.27 641.71,366.65 643.15,366.36 644.59,366.60 646.04,365.15 647.48,366.81 648.92,366.85 650.36,368.67 651.80,368.46 653.25,369.54 654.69,370.15 656.13,372.11 657.57,373.04 659.02,372.61 660.46,374.62 661.90,375.35 663.34,375.66 664.78,376.13 666.23,375.18 667.67,374.96 669.11,373.03 670.55,371.83 672.00,370.41 673.44,371.61 674.88,371.57 676.32,373.32 677.77,372.33 679.21,370.54 680.65,369.50 682.09,369.55 683.53,368.83 684.98,369.57 686.42,371.66 687.86,371.75 689.30,370.29 690.75,371.44 692.19,370.14 693.63,370.03 695.07,369.84 696.52,372.21 697.96,376.40 699.40,376.96 700.84,376.06 702.28,375.70 703.73,376.17 705.17,376.46 706.61,375.88 708.05,376.18 709.50,377.01 710.94,377.47 712.38,375.51 713.82,373.97 715.27,373.55 716.71,371.74 718.15,370.34 719.59,372.60 721.03,376.18 722.48,375.91 723.92,371.41 725.36,373.77 726.80,376.69 728.25,375.53 729.69,372.75 731.13,372.75 732.57,371.93 734.02,369.93 735.46,371.08 736.90,374.60 738.34,371.38 739.78,371.27 741.23,371.03 742.67,374.99 744.11,375.51 745.55,369.97 747.00,367.37 748.44,369.41 749.88,368.63 751.32,369.98 752.77,370.09 754.21,372.70 755.65,372.07 757.09,370.55 758.53,369.90 759.98,369.48 761.42,373.13 762.86,375.02 764.30,375.06 765.75,374.64 767.19,373.74 768.63,374.28 770.07,378.13 771.52,376.14 772.96,375.96 774.40,376.85 775.84,377.11 777.28,376.63 778.73,375.95 780.17,376.19 781.61,377.00 783.05,376.06 784.50,374.55 785.94,374.38 787.38,375.28 788.82,374.84 790.26,373.56 791.71,372.74 793.15,371.82 794.59,371.11 796.03,372.22 797.48,373.40 798.92,375.31 800.36,376.48 801.80,377.74 803.25,377.22 804.69,376.75 806.13,373.32 807.57,376.12 809.01,374.69 810.46,373.93 811.90,376.98 813.34,376.34 814.78,376.54 816.23,377.16 817.67,377.65 819.11,377.17 820.55,377.41 822.00,376.51 823.44,375.96 824.88,374.87 826.32,374.53 827.76,373.36 829.21,373.25 830.65,373.14 832.09,373.34 833.53,374.41 834.98,374.26 836.42,374.56 837.86,375.17 839.30,373.06 840.75,371.00 842.19,370.07 843.63,370.83 845.07,371.76 846.51,371.72 847.96,369.87 849.40,370.52 850.84,372.35 852.28,371.92 853.73,372.47 855.17,373.83 856.61,373.58 858.05,374.56 859.50,376.80 860.94,377.40 862.38,377.30 863.82,377.07 865.26,376.33 866.71,372.28 868.15,371.40 869.59,368.98 871.03,368.81 872.48,368.47 873.92,369.36 875.36,371.50 876.80,372.75 878.25,374.10 879.69,375.28 881.13,373.93 882.57,372.88 884.01,373.16 885.46,372.46 886.90,371.01 888.34,368.41 889.78,367.46 891.23,368.14 892.67,366.70 894.11,366.68 895.55,367.08 897.00,367.35 898.44,367.44 899.88,369.18 901.32,371.11 902.76,372.97 904.21,375.57 905.65,373.49 907.09,371.47 908.53,372.08 909.98,372.30 911.42,373.54 912.86,370.76 914.30,368.63 915.74,367.85 917.19,368.84 918.63,367.33 920.07,368.37 921.51,369.93 922.96,370.34 924.40,372.40 925.84,374.07 927.28,375.84 928.73,377.35 930.17,377.83 931.61,377.96 933.05,377.72 934.49,376.03 935.94,374.47 937.38,372.91 938.82,374.32 940.26,376.51 941.71,375.92 943.15,376.28 944.59,375.75 946.03,375.51 947.48,376.40 948.92,377.03 950.36,377.25 951.80,377.34 953.24,377.30 954.69,376.28 956.13,376.05 957.57,374.70 959.01,377.06 960.46,376.90 961.90,376.29 963.34,372.72 964.78,372.36 966.23,373.11 967.67,374.75 969.11,374.17 970.55,373.10 971.99,372.29 973.44,372.35 974.88,368.34 976.32,369.26 977.76,368.55 979.21,368.03 980.65,367.83 982.09,369.79 983.53,371.16 984.98,375.85 986.42,373.07 987.86,372.44 989.30,372.47 990.74,371.56 992.19,370.59 993.63,369.75 995.07,369.97 996.51,372.15 997.96,372.89 999.40,372.76 1000.84,373.46 1002.28,373.72 1003.73,373.60 1005.17,374.33 1006.61,376.58 1008.05,374.97 1009.49,376.40 1010.94,377.25 1012.38,376.77 1013.82,377.23 1015.26,376.89 1016.71,376.71 1018.15,376.65 1019.59,376.18 1021.03,373.68 1022.48,369.67 1023.92,368.73 1025.36,370.18 1026.80,370.24 1028.24,369.35 1029.69,368.53 1031.13,367.91 1032.57,368.42 1034.01,369.40 1035.46,370.10 1036.90,369.88 1038.34,370.52 1039.78,370.01 1041.22,368.52 1042.67,369.88 1044.11,371.52 1045.55,372.33 1046.99,370.93 1048.44,371.31 1049.88,371.36 1051.32,372.65 1052.76,375.78 1054.21,377.61 1055.65,378.11 1057.09,378.50 1058.53,379.12 1059.97,379.16 1061.42,380.78 1062.86,380.60 1064.30,380.01 1065.74,379.07 1067.19,376.94 1068.63,377.56 1070.07,378.56 1071.51,377.39" fill="none" stroke="#7c3aed" stroke-width="1.4" />
<text x="18" y="477.5" font-family="Arial" font-size="12" fill="#444">Raw f0 before smoothing</text>
<line x1="72" y1="525" x2="1072" y2="525" stroke="#ddd" />
<rect x="72" y="430" width="1000" height="95" fill="none" stroke="#eee" />
<polyline points="72.00,465.62 90.75,462.07 92.19,462.07 93.63,462.07 95.08,458.45 96.52,458.45 97.96,462.07 99.40,462.07 100.85,462.07 102.29,462.07 106.62,462.07 108.06,462.07 109.50,462.07 110.94,462.07 112.38,462.07 113.83,462.07 115.27,462.07 116.71,462.07 118.15,462.07 119.60,462.07 121.04,462.07 122.48,462.07 123.92,462.07 125.37,462.07 126.81,462.07 128.25,462.07 129.69,462.07 131.13,462.07 132.58,462.07 134.02,462.07 135.46,462.07 136.90,462.07 138.35,462.07 139.79,462.07 141.23,462.07 142.67,462.07 144.11,462.07 145.56,465.62 147.00,462.07 148.44,462.07 149.88,462.07 151.33,462.07 152.77,462.07 154.21,462.07 155.65,462.07 157.10,462.07 158.54,462.07 159.98,462.07 161.42,462.07 162.86,462.07 164.31,462.07 165.75,458.45 167.19,462.07 168.63,462.07 170.08,462.07 171.52,458.45 172.96,462.07 174.40,458.45 175.85,458.45 177.29,458.45 178.73,462.07 180.17,462.07 181.61,462.07 183.06,462.07 184.50,462.07 185.94,462.07 187.38,462.07 188.83,462.07 191.71,462.07 193.15,462.07 194.60,462.07 196.04,462.07 197.48,462.07 198.92,462.07 200.36,462.07 201.81,462.07 203.25,462.07 204.69,462.07 206.13,462.07 207.58,462.07 209.02,462.07 210.46,462.07 211.90,462.07 213.35,462.07 214.79,462.07 216.23,472.51 217.67,462.07 219.11,462.07 220.56,472.51 222.00,503.27 223.44,503.27 224.88,503.27 226.33,472.51 227.77,462.07 229.21,462.07 230.65,503.27 232.10,462.07 233.54,462.07 234.98,462.07 236.42,462.07 237.86,462.07 239.31,462.07 240.75,462.07 242.19,462.07 243.63,462.07 245.08,462.07 246.52,472.51 247.96,472.51 249.40,462.07 250.85,462.07 252.29,462.07 253.73,462.07 255.17,500.45 256.61,503.27 258.06,503.27 259.50,503.27 260.94,465.62 262.38,465.62 263.83,465.62 265.27,462.07 266.71,472.51 268.15,472.51 269.59,472.51 271.04,462.07 272.48,462.07 273.92,462.07 275.36,462.07 276.81,472.51 278.25,472.51 279.69,472.51 281.13,472.51 282.58,462.07 284.02,462.07 285.46,462.07 286.90,472.51 288.34,462.07 289.79,462.07 291.23,462.07 292.67,462.07 294.11,458.45 295.56,458.45 297.00,462.07 298.44,462.07 299.88,462.07 301.33,462.07 302.77,462.07 304.21,462.07 305.65,462.07 307.09,462.07 308.54,462.07 309.98,462.07 311.42,462.07 312.86,462.07 314.31,462.07 315.75,462.07 317.19,462.07 318.63,462.07 320.08,462.07 321.52,462.07 322.96,458.45 324.40,462.07 325.84,462.07 327.29,462.07 328.73,462.07 330.17,462.07 331.61,462.07 333.06,462.07 334.50,503.27 335.94,503.27 337.38,503.27 338.83,503.27 340.27,503.27 341.71,503.27 343.15,503.27 344.59,503.27 346.04,503.27 347.48,503.27 348.92,503.27 350.36,500.45 351.81,462.07 353.25,462.07 354.69,462.07 356.13,462.07 357.58,462.07 359.02,462.07 360.46,462.07 361.90,462.07 363.34,462.07 364.79,462.07 366.23,462.07 367.67,462.07 369.11,462.07 370.56,462.07 372.00,462.07 373.44,462.07 374.88,462.07 376.33,462.07 377.77,462.07 379.21,462.07 380.65,472.51 382.09,472.51 383.54,462.07 384.98,462.07 386.42,472.51 387.86,472.51 389.31,500.45 390.75,500.45 392.19,500.45 393.63,500.45 395.07,500.45 396.52,500.45 397.96,500.45 399.40,500.45 400.84,500.45 402.29,500.45 403.73,462.07 405.17,500.45 406.61,500.45 408.06,500.45 409.50,500.45 410.94,500.45 412.38,500.45 413.82,503.27 415.27,500.45 416.71,500.45 418.15,462.07 419.59,462.07 425.36,462.07 428.25,462.07 432.57,462.07 434.02,462.07 435.46,462.07 436.90,462.07 438.34,462.07 445.56,458.45 447.00,458.45 448.44,458.45 449.88,458.45 451.32,462.07 452.77,462.07 454.21,462.07 455.65,462.07 457.09,462.07 459.98,462.07 461.42,462.07 462.86,462.07 464.31,472.51 465.75,472.51 467.19,462.07 468.63,462.07 470.07,462.07 471.52,462.07 472.96,462.07 474.40,462.07 475.84,462.07 477.29,462.07 478.73,462.07 480.17,500.45 481.61,500.45 483.06,500.45 484.50,500.45 485.94,500.45 487.38,500.45 488.82,500.45 490.27,500.45 491.71,472.51 493.15,472.51 494.59,472.51 496.04,472.51 497.48,472.51 498.92,500.45 500.36,500.45 501.81,500.45 503.25,503.27 504.69,503.27 506.13,503.27 507.57,472.51 509.02,472.51 510.46,462.07 511.90,462.07 513.34,472.51 514.79,472.51 516.23,472.51 517.67,472.51 519.11,500.45 520.55,500.45 522.00,500.45 523.44,500.45 524.88,500.45 526.32,472.51 527.77,472.51 529.21,462.07 530.65,462.07 532.09,462.07 533.54,462.07 534.98,462.07 536.42,462.07 537.86,462.07 539.30,462.07 540.75,462.07 542.19,462.07 543.63,462.07 545.07,462.07 546.52,462.07 547.96,462.07 549.40,462.07 550.84,462.07 552.29,462.07 553.73,465.62 555.17,465.62 556.61,465.62 558.05,500.45 559.50,500.45 560.94,500.45 562.38,472.51 563.82,500.45 565.27,500.45 566.71,503.27 568.15,500.45 569.59,503.27 571.04,503.27 572.48,500.45 573.92,472.51 575.36,462.07 576.80,462.07 578.25,462.07 579.69,472.51 581.13,462.07 582.57,462.07 584.02,462.07 585.46,462.07 586.90,462.07 588.34,462.07 589.79,462.07 591.23,462.07 592.67,462.07 594.11,462.07 595.55,462.07 597.00,462.07 598.44,462.07 599.88,462.07 601.32,500.45 602.77,500.45 604.21,500.45 605.65,500.45 607.09,500.45 608.54,503.27 609.98,503.27 611.42,503.27 612.86,503.27 614.30,462.07 615.75,462.07 617.19,458.45 618.63,458.45 620.07,458.45 621.52,458.45 622.96,458.45 624.40,462.07 625.84,462.07 627.29,458.45 628.73,458.45 630.17,462.07 631.61,458.45 633.05,458.45 634.50,458.45 635.94,458.45 637.38,458.45 638.82,458.45 640.27,458.45 641.71,458.45 643.15,458.45 644.59,458.45 646.04,458.45 647.48,458.45 648.92,458.45 650.36,458.45 651.80,458.45 653.25,458.45 654.69,462.07 656.13,462.07 657.57,462.07 659.02,462.07 660.46,462.07 661.90,462.07 663.34,462.07 664.78,462.07 666.23,462.07 667.67,458.45 669.11,458.45 670.55,458.45 672.00,458.45 673.44,458.45 674.88,458.45 676.32,458.45 677.77,458.45 679.21,458.45 680.65,458.45 682.09,458.45 683.53,458.45 684.98,458.45 686.42,458.45 687.86,458.45 689.30,458.45 690.75,458.45 692.19,458.45 693.63,462.07 695.07,462.07 696.52,462.07 697.96,462.07 699.40,462.07 700.84,462.07 702.28,462.07 703.73,462.07 705.17,462.07 706.61,458.45 708.05,462.07 709.50,462.07 710.94,462.07 712.38,462.07 713.82,462.07 715.27,462.07 716.71,462.07 718.15,462.07 719.59,458.45 721.03,462.07 722.48,500.45 723.92,500.45 725.36,500.45 726.80,462.07 728.25,462.07 729.69,462.07 731.13,462.07 732.57,462.07 734.02,462.07 735.46,462.07 736.90,462.07 738.34,458.45 739.78,458.45 741.23,458.45 742.67,462.07 744.11,462.07 745.55,458.45 747.00,458.45 748.44,458.45 749.88,458.45 751.32,458.45 752.77,458.45 754.21,458.45 755.65,458.45 757.09,458.45 758.53,458.45 759.98,458.45 761.42,462.07 762.86,462.07 764.30,462.07 765.75,462.07 767.19,458.45 768.63,462.07 770.07,500.45 771.52,500.45 772.96,497.58 774.40,497.58 775.84,494.66 777.28,494.66 778.73,500.45 780.17,500.45 781.61,500.45 783.05,462.07 784.50,462.07 785.94,462.07 787.38,462.07 788.82,462.07 790.26,462.07 791.71,462.07 793.15,462.07 794.59,462.07 796.03,462.07 797.48,462.07 798.92,462.07 800.36,462.07 801.80,462.07 803.25,472.51 804.69,500.45 806.13,500.45 807.57,500.45 809.01,500.45 810.46,500.45 811.90,500.45 813.34,462.07 814.78,462.07 816.23,472.51 817.67,500.45 819.11,500.45 820.55,462.07 822.00,462.07 823.44,458.45 824.88,458.45 826.32,462.07 827.76,462.07 829.21,462.07 830.65,462.07 832.09,462.07 833.53,462.07 834.98,462.07 836.42,462.07 837.86,462.07 839.30,462.07 840.75,462.07 842.19,462.07 843.63,462.07 845.07,458.45 846.51,458.45 847.96,458.45 849.40,458.45 850.84,458.45 852.28,458.45 853.73,458.45 855.17,458.45 856.61,462.07 858.05,462.07 859.50,462.07 860.94,472.51 862.38,462.07 863.82,462.07 865.26,462.07 866.71,458.45 868.15,458.45 869.59,458.45 871.03,458.45 872.48,458.45 873.92,458.45 875.36,462.07 876.80,458.45 878.25,458.45 879.69,462.07 881.13,462.07 882.57,462.07 884.01,462.07 885.46,462.07 886.90,462.07 889.78,462.07 891.23,462.07 892.67,462.07 894.11,458.45 895.55,458.45 897.00,458.45 898.44,458.45 899.88,462.07 901.32,462.07 902.76,462.07 904.21,462.07 905.65,462.07 907.09,462.07 908.53,462.07 909.98,458.45 911.42,462.07 912.86,458.45 914.30,458.45 915.74,458.45 917.19,462.07 918.63,458.45 920.07,458.45 921.51,458.45 922.96,462.07 924.40,462.07 925.84,462.07 927.28,462.07 928.73,462.07 930.17,462.07 931.61,500.45 933.05,500.45 934.49,500.45 935.94,500.45 937.38,500.45 938.82,500.45 940.26,500.45 941.71,500.45 943.15,500.45 944.59,500.45 946.03,500.45 947.48,500.45 948.92,497.58 950.36,500.45 951.80,500.45 953.24,462.07 954.69,458.45 957.57,462.07 959.01,462.07 960.46,500.45 961.90,462.07 963.34,462.07 964.78,462.07 966.23,462.07 967.67,462.07 969.11,462.07 970.55,462.07 971.99,462.07 973.44,462.07 974.88,458.45 976.32,458.45 977.76,458.45 979.21,458.45 980.65,458.45 982.09,462.07 983.53,462.07 984.98,462.07 986.42,503.27 987.86,503.27 989.30,503.27 990.74,503.27 992.19,503.27 993.63,503.27 995.07,503.27 996.51,503.27 997.96,503.27 999.40,503.27 1000.84,503.27 1002.28,503.27 1003.73,503.27 1005.17,503.27 1006.61,503.27 1008.05,503.27 1009.49,503.27 1010.94,462.07 1012.38,462.07 1013.82,462.07 1015.26,462.07 1016.71,472.51 1018.15,472.51 1019.59,472.51 1021.03,458.45 1022.48,458.45 1023.92,458.45 1025.36,462.07 1026.80,462.07 1028.24,458.45 1029.69,458.45 1031.13,462.07 1032.57,462.07 1034.01,462.07 1035.46,462.07 1036.90,458.45 1038.34,458.45 1039.78,458.45 1041.22,458.45 1042.67,458.45 1044.11,462.07 1045.55,462.07 1046.99,462.07 1048.44,462.07 1049.88,462.07 1051.32,462.07 1052.76,462.07 1054.21,472.51 1055.65,475.86 1057.09,475.86 1058.53,430.00 1059.97,430.00 1061.42,430.00 1062.86,488.63 1064.30,485.53 1065.74,482.37 1067.19,475.86" fill="none" stroke="#ea580c" stroke-width="1.5" />
<line x1="72" y1="504.16" x2="1072" y2="504.16" stroke="#eee" />
<text x="1076" y="508.16" font-family="Arial" font-size="10" fill="#666">65</text>
<line x1="72" y1="466.50" x2="1072" y2="466.50" stroke="#eee" />
<text x="1076" y="470.50" font-family="Arial" font-size="10" fill="#666">82</text>
<line x1="72" y1="431.06" x2="1072" y2="431.06" stroke="#eee" />
<text x="1076" y="435.06" font-family="Arial" font-size="10" fill="#666">98</text>
<text x="18" y="617.5" font-family="Arial" font-size="12" fill="#444">Smoothed f0 after smoothing</text>
<line x1="72" y1="665" x2="1072" y2="665" stroke="#ddd" />
<rect x="72" y="570" width="1000" height="95" fill="none" stroke="#eee" />
<polyline points="72.00,605.62 90.75,602.07 92.19,602.07 93.63,602.07 95.08,602.07 96.52,602.07 97.96,602.07 99.40,602.07 100.85,602.07 102.29,602.07 106.62,602.07 108.06,602.07 109.50,602.07 110.94,602.07 112.38,602.07 113.83,602.07 115.27,602.07 116.71,602.07 118.15,602.07 119.60,602.07 121.04,602.07 122.48,602.07 123.92,602.07 125.37,602.07 126.81,602.07 128.25,602.07 129.69,602.07 131.13,602.07 132.58,602.07 134.02,602.07 135.46,602.07 136.90,602.07 138.35,602.07 139.79,602.07 141.23,602.07 142.67,602.07 144.11,602.07 145.56,602.07 147.00,602.07 148.44,602.07 149.88,602.07 151.33,602.07 152.77,602.07 154.21,602.07 155.65,602.07 157.10,602.07 158.54,602.07 159.98,602.07 161.42,602.07 162.86,602.07 164.31,602.07 165.75,602.07 167.19,602.07 168.63,602.07 170.08,602.07 171.52,602.07 172.96,598.45 174.40,598.45 175.85,598.45 177.29,598.45 178.73,602.07 180.17,602.07 181.61,602.07 183.06,602.07 184.50,602.07 185.94,602.07 187.38,602.07 188.83,602.07 191.71,602.07 193.15,602.07 194.60,602.07 196.04,602.07 197.48,602.07 198.92,602.07 200.36,602.07 201.81,602.07 203.25,602.07 204.69,602.07 206.13,602.07 207.58,602.07 209.02,602.07 210.46,602.07 211.90,602.07 213.35,602.07 214.79,602.07 216.23,602.07 217.67,602.07 219.11,612.51 220.56,612.51 222.00,643.27 223.44,643.27 224.88,643.27 226.33,612.51 227.77,612.51 229.21,602.07 230.65,602.07 232.10,602.07 233.54,602.07 234.98,602.07 236.42,602.07 237.86,602.07 239.31,602.07 240.75,602.07 242.19,602.07 243.63,602.07 245.08,602.07 246.52,602.07 247.96,602.07 249.40,602.07 250.85,602.07 252.29,602.07 253.73,602.07 255.17,640.45 256.61,643.27 258.06,643.27 259.50,643.27 260.94,605.62 262.38,605.62 263.83,605.62 265.27,605.62 266.71,612.51 268.15,612.51 269.59,612.51 271.04,602.07 272.48,602.07 273.92,602.07 275.36,602.07 276.81,612.51 278.25,612.51 279.69,612.51 281.13,612.51 282.58,602.07 284.02,602.07 285.46,602.07 286.90,602.07 288.34,602.07 289.79,602.07 291.23,602.07 292.67,602.07 294.11,602.07 295.56,602.07 297.00,602.07 298.44,602.07 299.88,602.07 301.33,602.07 302.77,602.07 304.21,602.07 305.65,602.07 307.09,602.07 308.54,602.07 309.98,602.07 311.42,602.07 312.86,602.07 314.31,602.07 315.75,602.07 317.19,602.07 318.63,602.07 320.08,602.07 321.52,602.07 322.96,602.07 324.40,602.07 325.84,602.07 327.29,602.07 328.73,602.07 330.17,602.07 331.61,602.07 333.06,602.07 334.50,643.27 335.94,643.27 337.38,643.27 338.83,643.27 340.27,643.27 341.71,643.27 343.15,643.27 344.59,643.27 346.04,643.27 347.48,643.27 348.92,643.27 350.36,640.45 351.81,602.07 353.25,602.07 354.69,602.07 356.13,602.07 357.58,602.07 359.02,602.07 360.46,602.07 361.90,602.07 363.34,602.07 364.79,602.07 366.23,602.07 367.67,602.07 369.11,602.07 370.56,602.07 372.00,602.07 373.44,602.07 374.88,602.07 376.33,602.07 377.77,602.07 379.21,602.07 380.65,602.07 382.09,602.07 383.54,612.51 384.98,612.51 386.42,612.51 387.86,612.51 389.31,640.45 390.75,640.45 392.19,640.45 393.63,640.45 395.07,640.45 396.52,640.45 397.96,640.45 399.40,640.45 400.84,640.45 402.29,640.45 403.73,640.45 405.17,640.45 406.61,640.45 408.06,640.45 409.50,640.45 410.94,640.45 412.38,640.45 413.82,640.45 415.27,640.45 416.71,640.45 418.15,602.07 419.59,602.07 425.36,602.07 428.25,602.07 432.57,602.07 434.02,602.07 435.46,602.07 436.90,602.07 438.34,602.07 445.56,598.45 447.00,598.45 448.44,598.45 449.88,598.45 451.32,602.07 452.77,602.07 454.21,602.07 455.65,602.07 457.09,602.07 459.98,602.07 461.42,602.07 462.86,602.07 464.31,602.07 465.75,602.07 467.19,602.07 468.63,602.07 470.07,602.07 471.52,602.07 472.96,602.07 474.40,602.07 475.84,602.07 477.29,602.07 478.73,602.07 480.17,640.45 481.61,640.45 483.06,640.45 484.50,640.45 485.94,640.45 487.38,640.45 488.82,640.45 490.27,640.45 491.71,612.51 493.15,612.51 494.59,612.51 496.04,612.51 497.48,612.51 498.92,640.45 500.36,640.45 501.81,640.45 503.25,643.27 504.69,643.27 506.13,643.27 507.57,612.51 509.02,612.51 510.46,612.51 511.90,612.51 513.34,612.51 514.79,612.51 516.23,612.51 517.67,612.51 519.11,640.45 520.55,640.45 522.00,640.45 523.44,640.45 524.88,640.45 526.32,612.51 527.77,612.51 529.21,602.07 530.65,602.07 532.09,602.07 533.54,602.07 534.98,602.07 536.42,602.07 537.86,602.07 539.30,602.07 540.75,602.07 542.19,602.07 543.63,602.07 545.07,602.07 546.52,602.07 547.96,602.07 549.40,602.07 550.84,602.07 552.29,602.07 553.73,605.62 555.17,605.62 556.61,605.62 558.05,640.45 559.50,640.45 560.94,640.45 562.38,640.45 563.82,640.45 565.27,640.45 566.71,640.45 568.15,643.27 569.59,643.27 571.04,640.45 572.48,640.45 573.92,612.51 575.36,602.07 576.80,602.07 578.25,602.07 579.69,602.07 581.13,602.07 582.57,602.07 584.02,602.07 585.46,602.07 586.90,602.07 588.34,602.07 589.79,602.07 591.23,602.07 592.67,602.07 594.11,602.07 595.55,602.07 597.00,602.07 598.44,602.07 599.88,602.07 601.32,640.45 602.77,640.45 604.21,640.45 605.65,640.45 607.09,640.45 608.54,643.27 609.98,643.27 611.42,643.27 612.86,643.27 614.30,602.07 615.75,602.07 617.19,598.45 618.63,598.45 620.07,598.45 621.52,598.45 622.96,598.45 624.40,598.45 625.84,598.45 627.29,602.07 628.73,598.45 630.17,598.45 631.61,598.45 633.05,598.45 634.50,598.45 635.94,598.45 637.38,598.45 638.82,598.45 640.27,598.45 641.71,598.45 643.15,598.45 644.59,598.45 646.04,598.45 647.48,598.45 648.92,598.45 650.36,598.45 651.80,598.45 653.25,598.45 654.69,602.07 656.13,602.07 657.57,602.07 659.02,602.07 660.46,602.07 661.90,602.07 663.34,602.07 664.78,602.07 666.23,602.07 667.67,598.45 669.11,598.45 670.55,598.45 672.00,598.45 673.44,598.45 674.88,598.45 676.32,598.45 677.77,598.45 679.21,598.45 680.65,598.45 682.09,598.45 683.53,598.45 684.98,598.45 686.42,598.45 687.86,598.45 689.30,598.45 690.75,598.45 692.19,598.45 693.63,602.07 695.07,602.07 696.52,602.07 697.96,602.07 699.40,602.07 700.84,602.07 702.28,602.07 703.73,602.07 705.17,602.07 706.61,602.07 708.05,602.07 709.50,602.07 710.94,602.07 712.38,602.07 713.82,602.07 715.27,602.07 716.71,602.07 718.15,602.07 719.59,602.07 721.03,602.07 722.48,640.45 723.92,640.45 725.36,640.45 726.80,602.07 728.25,602.07 729.69,602.07 731.13,602.07 732.57,602.07 734.02,602.07 735.46,602.07 736.90,602.07 738.34,598.45 739.78,598.45 741.23,598.45 742.67,598.45 744.11,598.45 745.55,598.45 747.00,598.45 748.44,598.45 749.88,598.45 751.32,598.45 752.77,598.45 754.21,598.45 755.65,598.45 757.09,598.45 758.53,598.45 759.98,598.45 761.42,602.07 762.86,602.07 764.30,602.07 765.75,602.07 767.19,602.07 768.63,602.07 770.07,637.58 771.52,637.58 772.96,637.58 774.40,637.58 775.84,637.58 777.28,637.58 778.73,640.45 780.17,640.45 781.61,640.45 783.05,602.07 784.50,602.07 785.94,602.07 787.38,602.07 788.82,602.07 790.26,602.07 791.71,602.07 793.15,602.07 794.59,602.07 796.03,602.07 797.48,602.07 798.92,602.07 800.36,602.07 801.80,602.07 803.25,612.51 804.69,640.45 806.13,640.45 807.57,640.45 809.01,640.45 810.46,640.45 811.90,640.45 813.34,612.51 814.78,612.51 816.23,612.51 817.67,612.51 819.11,612.51 820.55,602.07 822.00,602.07 823.44,602.07 824.88,602.07 826.32,602.07 827.76,602.07 829.21,602.07 830.65,602.07 832.09,602.07 833.53,602.07 834.98,602.07 836.42,602.07 837.86,602.07 839.30,602.07 840.75,602.07 842.19,602.07 843.63,602.07 845.07,598.45 846.51,598.45 847.96,598.45 849.40,598.45 850.84,598.45 852.28,598.45 853.73,598.45 855.17,598.45 856.61,602.07 858.05,602.07 859.50,602.07 860.94,602.07 862.38,602.07 863.82,602.07 865.26,602.07 866.71,598.45 868.15,598.45 869.59,598.45 871.03,598.45 872.48,598.45 873.92,598.45 875.36,598.45 876.80,598.45 878.25,602.07 879.69,602.07 881.13,602.07 882.57,602.07 884.01,602.07 885.46,602.07 886.90,602.07 889.78,602.07 891.23,602.07 892.67,602.07 894.11,598.45 895.55,598.45 897.00,598.45 898.44,598.45 899.88,602.07 901.32,602.07 902.76,602.07 904.21,602.07 905.65,602.07 907.09,602.07 908.53,602.07 909.98,602.07 911.42,598.45 912.86,598.45 914.30,598.45 915.74,598.45 917.19,598.45 918.63,598.45 920.07,598.45 921.51,598.45 922.96,602.07 924.40,602.07 925.84,602.07 927.28,602.07 928.73,602.07 930.17,602.07 931.61,640.45 933.05,640.45 934.49,640.45 935.94,640.45 937.38,640.45 938.82,640.45 940.26,640.45 941.71,640.45 943.15,640.45 944.59,640.45 946.03,640.45 947.48,640.45 948.92,640.45 950.36,640.45 951.80,637.58 953.24,602.07 954.69,598.45 957.57,602.07 959.01,602.07 960.46,602.07 961.90,602.07 963.34,602.07 964.78,602.07 966.23,602.07 967.67,602.07 969.11,602.07 970.55,602.07 971.99,602.07 973.44,602.07 974.88,598.45 976.32,598.45 977.76,598.45 979.21,598.45 980.65,598.45 982.09,602.07 983.53,602.07 984.98,602.07 986.42,643.27 987.86,643.27 989.30,643.27 990.74,643.27 992.19,643.27 993.63,643.27 995.07,643.27 996.51,643.27 997.96,643.27 999.40,643.27 1000.84,643.27 1002.28,643.27 1003.73,643.27 1005.17,643.27 1006.61,643.27 1008.05,643.27 1009.49,643.27 1010.94,602.07 1012.38,602.07 1013.82,602.07 1015.26,602.07 1016.71,612.51 1018.15,612.51 1019.59,612.51 1021.03,598.45 1022.48,598.45 1023.92,598.45 1025.36,598.45 1026.80,598.45 1028.24,602.07 1029.69,602.07 1031.13,602.07 1032.57,602.07 1034.01,602.07 1035.46,602.07 1036.90,598.45 1038.34,598.45 1039.78,598.45 1041.22,598.45 1042.67,598.45 1044.11,602.07 1045.55,602.07 1046.99,602.07 1048.44,602.07 1049.88,602.07 1051.32,602.07 1052.76,602.07 1054.21,612.51 1055.65,612.51 1057.09,612.51 1058.53,570.00 1059.97,570.00 1061.42,570.00 1062.86,622.37 1064.30,622.37 1065.74,622.37 1067.19,615.86" fill="none" stroke="#059669" stroke-width="1.5" />
<line x1="72" y1="644.16" x2="1072" y2="644.16" stroke="#eee" />
<text x="1076" y="648.16" font-family="Arial" font-size="10" fill="#666">65</text>
<line x1="72" y1="606.50" x2="1072" y2="606.50" stroke="#eee" />
<text x="1076" y="610.50" font-family="Arial" font-size="10" fill="#666">82</text>
<line x1="72" y1="571.06" x2="1072" y2="571.06" stroke="#eee" />
<text x="1076" y="575.06" font-family="Arial" font-size="10" fill="#666">98</text>
<text x="18" y="750.0" font-family="Arial" font-size="12" fill="#444">Onset probability</text>
<line x1="72" y1="790" x2="1072" y2="790" stroke="#ddd" />
<rect x="72" y="710" width="1000" height="80" fill="none" stroke="#eee" />
<polyline points="72.00,760.02 73.44,756.06 74.88,755.36 76.33,756.45 77.77,756.59 79.21,755.78 80.65,756.44 82.10,756.68 83.54,756.52 84.98,754.61 86.42,754.19 87.87,753.68 89.31,753.71 90.75,753.49 92.19,755.07 93.63,755.42 95.08,755.01 96.52,755.28 97.96,755.81 99.40,755.86 100.85,755.91 102.29,754.97 103.73,754.35 105.17,754.02 106.62,753.66 108.06,754.61 109.50,753.58 110.94,752.68 112.38,752.83 113.83,752.89 115.27,754.77 116.71,755.63 118.15,755.48 119.60,755.74 121.04,755.73 122.48,756.13 123.92,755.45 125.37,754.41 126.81,754.77 128.25,753.91 129.69,754.81 131.13,755.40 132.58,755.01 134.02,755.08 135.46,755.10 136.90,755.86 138.35,756.52 139.79,756.22 141.23,756.51 142.67,757.15 144.11,756.09 145.56,756.56 147.00,756.05 148.44,754.73 149.88,753.54 151.33,754.91 152.77,756.53 154.21,754.10 155.65,753.87 157.10,754.47 158.54,754.55 159.98,754.53 161.42,754.77 162.86,754.98 164.31,753.62 165.75,751.62 167.19,752.74 168.63,754.21 170.08,755.10 171.52,754.93 172.96,756.74 174.40,756.09 175.85,755.48 177.29,755.06 178.73,754.87 180.17,755.81 181.61,755.26 183.06,756.09 184.50,755.37 185.94,755.53 187.38,755.57 188.83,755.96 190.27,756.32 191.71,756.70 193.15,757.07 194.60,757.01 196.04,756.89 197.48,756.38 198.92,755.55 200.36,755.88 201.81,756.25 203.25,756.82 204.69,755.28 206.13,756.31 207.58,755.83 209.02,752.34 210.46,754.01 211.90,753.53 213.35,754.81 214.79,754.27 216.23,757.43 217.67,757.55 219.11,757.17 220.56,757.09 222.00,756.53 223.44,756.46 224.88,757.90 226.33,757.53 227.77,756.06 229.21,756.44 230.65,756.74 232.10,757.34 233.54,756.73 234.98,756.29 236.42,756.17 237.86,754.95 239.31,755.94 240.75,756.57 242.19,756.70 243.63,756.22 245.08,756.94 246.52,758.01 247.96,758.93 249.40,758.57 250.85,758.08 252.29,757.61 253.73,756.93 255.17,756.45 256.61,758.15 258.06,758.13 259.50,758.69 260.94,758.68 262.38,757.58 263.83,756.68 265.27,756.89 266.71,755.78 268.15,754.71 269.59,755.45 271.04,756.13 272.48,755.54 273.92,756.28 275.36,756.68 276.81,756.78 278.25,757.71 279.69,758.85 281.13,759.29 282.58,758.63 284.02,758.62 285.46,757.62 286.90,757.36 288.34,757.86 289.79,758.22 291.23,757.31 292.67,756.67 294.11,757.23 295.56,756.97 297.00,756.15 298.44,756.88 299.88,756.34 301.33,757.00 302.77,756.98 304.21,756.76 305.65,756.45 307.09,754.46 308.54,751.05 309.98,753.16 311.42,753.04 312.86,753.02 314.31,753.49 315.75,753.96 317.19,753.70 318.63,754.82 320.08,756.06 321.52,755.86 322.96,756.84 324.40,755.76 325.84,754.94 327.29,754.18 328.73,753.50 330.17,753.95 331.61,753.91 333.06,755.00 334.50,755.45 335.94,756.22 337.38,756.74 338.83,756.82 340.27,758.57 341.71,757.38 343.15,758.57 344.59,757.80 346.04,756.91 347.48,758.20 348.92,758.14 350.36,758.41 351.81,758.87 353.25,757.39 354.69,756.92 356.13,755.91 357.58,756.37 359.02,756.87 360.46,756.89 361.90,758.11 363.34,757.46 364.79,757.90 366.23,756.48 367.67,756.05 369.11,756.50 370.56,755.88 372.00,756.80 373.44,756.85 374.88,756.38 376.33,756.38 377.77,755.65 379.21,753.89 380.65,755.84 382.09,756.41 383.54,756.34 384.98,756.17 386.42,756.11 387.86,756.03 389.31,756.36 390.75,756.59 392.19,757.86 393.63,758.24 395.07,758.32 396.52,758.59 397.96,758.42 399.40,758.74 400.84,758.76 402.29,759.28 403.73,758.18 405.17,759.45 406.61,758.74 408.06,757.88 409.50,757.51 410.94,757.94 412.38,756.81 413.82,757.70 415.27,759.59 416.71,759.88 418.15,758.84 419.59,758.79 421.04,758.94 422.48,758.96 423.92,758.64 425.36,758.97 426.81,759.18 428.25,758.85 429.69,759.66 431.13,759.49 432.57,757.61 434.02,756.07 435.46,756.65 436.90,757.00 438.34,756.36 439.79,757.28 441.23,757.59 442.67,756.48 444.11,756.72 445.56,756.07 447.00,756.34 448.44,755.01 449.88,754.81 451.32,752.27 452.77,752.59 454.21,753.71 455.65,753.87 457.09,754.70 458.54,754.40 459.98,754.88 461.42,753.28 462.86,754.07 464.31,754.04 465.75,756.72 467.19,757.32 468.63,756.83 470.07,757.24 471.52,756.37 472.96,755.53 474.40,756.61 475.84,756.75 477.29,757.31 478.73,757.65 480.17,757.82 481.61,756.84 483.06,757.36 484.50,757.90 485.94,758.62 487.38,758.03 488.82,758.69 490.27,758.77 491.71,758.09 493.15,758.92 494.59,758.49 496.04,757.20 497.48,756.25 498.92,757.86 500.36,758.61 501.81,758.95 503.25,757.47 504.69,757.25 506.13,758.99 507.57,758.08 509.02,758.68 510.46,758.03 511.90,757.90 513.34,755.86 514.79,752.12 516.23,753.68 517.67,755.86 519.11,757.29 520.55,758.43 522.00,759.32 523.44,760.13 524.88,759.91 526.32,759.26 527.77,758.15 529.21,757.48 530.65,756.68 532.09,756.60 533.54,756.27 534.98,756.06 536.42,756.84 537.86,755.76 539.30,755.26 540.75,755.32 542.19,755.25 543.63,755.68 545.07,754.61 546.52,752.85 547.96,755.02 549.40,755.06 550.84,754.67 552.29,755.67 553.73,756.97 555.17,757.61 556.61,757.67 558.05,758.55 559.50,758.87 560.94,758.03 562.38,757.16 563.82,758.28 565.27,758.66 566.71,758.80 568.15,760.02 569.59,759.80 571.04,760.24 572.48,760.48 573.92,760.13 575.36,759.67 576.80,759.78 578.25,760.61 579.69,760.96 581.13,760.12 582.57,760.09 584.02,759.35 585.46,759.05 586.90,757.42 588.34,756.97 589.79,757.51 591.23,758.29 592.67,757.92 594.11,757.36 595.55,757.44 597.00,757.91 598.44,757.26 599.88,755.84 601.32,756.15 602.77,758.09 604.21,759.48 605.65,759.54 607.09,759.05 608.54,759.48 609.98,759.34 611.42,759.16 612.86,759.06 614.30,758.93 615.75,759.10 617.19,756.85 618.63,756.02 620.07,754.33 621.52,753.07 622.96,753.94 624.40,755.27 625.84,755.64 627.29,754.60 628.73,753.99 630.17,754.93 631.61,754.89 633.05,754.86 634.50,755.20 635.94,755.03 637.38,755.80 638.82,754.06 640.27,753.84 641.71,754.31 643.15,754.67 644.59,756.26 646.04,755.51 647.48,756.84 648.92,754.16 650.36,753.20 651.80,753.58 653.25,756.31 654.69,756.00 656.13,755.87 657.57,755.06 659.02,754.67 660.46,753.04 661.90,754.09 663.34,753.88 664.78,753.17 666.23,754.57 667.67,754.01 669.11,754.26 670.55,754.02 672.00,752.07 673.44,750.58 674.88,753.79 676.32,752.50 677.77,753.80 679.21,755.02 680.65,753.85 682.09,753.94 683.53,754.60 684.98,755.51 686.42,755.77 687.86,755.77 689.30,755.36 690.75,755.52 692.19,755.53 693.63,755.45 695.07,756.24 696.52,755.18 697.96,755.76 699.40,757.11 700.84,756.36 702.28,754.79 703.73,754.15 705.17,754.91 706.61,753.02 708.05,751.75 709.50,754.81 710.94,756.82 712.38,756.06 713.82,756.63 715.27,756.48 716.71,755.54 718.15,752.59 719.59,749.45 721.03,752.64 722.48,752.32 723.92,758.60 725.36,757.15 726.80,756.47 728.25,756.67 729.69,756.96 731.13,756.36 732.57,756.94 734.02,757.50 735.46,756.87 736.90,756.65 738.34,756.24 739.78,756.05 741.23,756.27 742.67,755.96 744.11,758.04 745.55,758.24 747.00,757.41 748.44,756.87 749.88,756.63 751.32,756.97 752.77,756.47 754.21,757.09 755.65,757.85 757.09,757.23 758.53,756.96 759.98,757.10 761.42,756.28 762.86,754.89 764.30,755.09 765.75,755.78 767.19,756.00 768.63,756.86 770.07,758.48 771.52,759.59 772.96,759.29 774.40,758.94 775.84,759.13 777.28,758.83 778.73,758.88 780.17,759.09 781.61,760.21 783.05,760.17 784.50,760.63 785.94,759.66 787.38,759.51 788.82,758.51 790.26,758.57 791.71,759.14 793.15,758.74 794.59,758.13 796.03,758.43 797.48,759.04 798.92,759.39 800.36,758.51 801.80,757.14 803.25,758.57 804.69,758.56 806.13,759.75 807.57,758.68 809.01,759.74 810.46,760.93 811.90,760.57 813.34,760.58 814.78,758.27 816.23,758.00 817.67,758.84 819.11,760.71 820.55,759.82 822.00,760.92 823.44,760.52 824.88,760.13 826.32,759.33 827.76,758.98 829.21,758.14 830.65,758.84 832.09,757.50 833.53,756.74 834.98,755.99 836.42,756.19 837.86,756.05 839.30,755.76 840.75,756.96 842.19,758.00 843.63,758.30 845.07,758.44 846.51,759.01 847.96,756.64 849.40,756.70 850.84,756.94 852.28,756.79 853.73,756.49 855.17,756.72 856.61,756.09 858.05,756.36 859.50,758.40 860.94,757.71 862.38,757.82 863.82,757.98 865.26,759.03 866.71,757.87 868.15,757.98 869.59,757.26 871.03,757.30 872.48,757.45 873.92,757.10 875.36,757.87 876.80,756.84 878.25,756.30 879.69,758.69 881.13,757.82 882.57,758.09 884.01,758.70 885.46,758.34 886.90,757.27 888.34,757.06 889.78,756.80 891.23,757.50 892.67,755.90 894.11,756.75 895.55,756.69 897.00,756.35 898.44,756.48 899.88,756.22 901.32,755.82 902.76,756.29 904.21,755.64 905.65,756.40 907.09,756.42 908.53,756.45 909.98,756.42 911.42,757.72 912.86,757.76 914.30,756.72 915.74,755.28 917.19,755.60 918.63,753.36 920.07,754.73 921.51,755.43 922.96,755.44 924.40,755.41 925.84,754.78 927.28,755.78 928.73,757.21 930.17,756.89 931.61,757.28 933.05,757.45 934.49,757.94 935.94,757.91 937.38,757.89 938.82,755.31 940.26,753.35 941.71,757.84 943.15,758.67 944.59,758.23 946.03,758.70 947.48,758.65 948.92,758.01 950.36,758.34 951.80,758.41 953.24,757.81 954.69,756.82 956.13,758.17 957.57,757.89 959.01,757.40 960.46,757.79 961.90,758.39 963.34,757.81 964.78,757.66 966.23,758.16 967.67,757.42 969.11,756.99 970.55,756.88 971.99,756.93 973.44,755.87 974.88,755.46 976.32,755.66 977.76,756.62 979.21,757.07 980.65,756.07 982.09,755.86 983.53,756.23 984.98,757.74 986.42,760.43 987.86,759.58 989.30,759.64 990.74,760.26 992.19,760.46 993.63,760.62 995.07,761.06 996.51,761.43 997.96,761.72 999.40,761.92 1000.84,762.24 1002.28,761.85 1003.73,760.95 1005.17,760.19 1006.61,759.93 1008.05,760.72 1009.49,760.94 1010.94,761.01 1012.38,760.71 1013.82,760.54 1015.26,760.03 1016.71,758.70 1018.15,757.28 1019.59,757.96 1021.03,756.68 1022.48,754.59 1023.92,754.87 1025.36,756.97 1026.80,757.52 1028.24,757.30 1029.69,756.85 1031.13,756.68 1032.57,756.80 1034.01,755.87 1035.46,755.84 1036.90,756.12 1038.34,755.67 1039.78,756.21 1041.22,755.77 1042.67,756.86 1044.11,756.53 1045.55,757.00 1046.99,757.58 1048.44,757.49 1049.88,757.08 1051.32,756.35 1052.76,754.66 1054.21,755.43 1055.65,754.97 1057.09,751.24 1058.53,750.52 1059.97,750.29 1061.42,751.78 1062.86,750.84 1064.30,749.02 1065.74,752.08 1067.19,753.80 1068.63,754.86 1070.07,755.54 1071.51,756.45" fill="none" stroke="#dc2626" stroke-width="1.4" />
<line x1="72.00" y1="795" x2="72.00" y2="802" stroke="#666" />
<text x="60.00" y="815" font-family="Arial" font-size="10" fill="#666">0.0s</text>
<line x1="238.67" y1="795" x2="238.67" y2="802" stroke="#666" />
<text x="226.67" y="815" font-family="Arial" font-size="10" fill="#666">1.2s</text>
<line x1="405.33" y1="795" x2="405.33" y2="802" stroke="#666" />
<text x="393.33" y="815" font-family="Arial" font-size="10" fill="#666">2.3s</text>
<line x1="572.00" y1="795" x2="572.00" y2="802" stroke="#666" />
<text x="560.00" y="815" font-family="Arial" font-size="10" fill="#666">3.5s</text>
<line x1="738.67" y1="795" x2="738.67" y2="802" stroke="#666" />
<text x="726.67" y="815" font-family="Arial" font-size="10" fill="#666">4.6s</text>
<line x1="905.33" y1="795" x2="905.33" y2="802" stroke="#666" />
<text x="893.33" y="815" font-family="Arial" font-size="10" fill="#666">5.8s</text>
<line x1="1072.00" y1="795" x2="1072.00" y2="802" stroke="#666" />
<text x="1060.00" y="815" font-family="Arial" font-size="10" fill="#666">6.9s</text>
</svg>