<svg xmlns="http://www.w3.org/2000/svg" width="1100" height="820" viewBox="0 0 1100 820">
<rect width="100%" height="100%" fill="white" />
<text x="72" y="25" font-family="Arial" font-size="18" font-weight="700" fill="#111">01_speaking_voice</text>
<text x="18" y="87.5" font-family="Arial" font-size="12" fill="#444">Waveform</text>
<line x1="72" y1="125" x2="1072" y2="125" stroke="#ddd" />
<rect x="72" y="50" width="1000" height="75" fill="none" stroke="#eee" />
<polyline points="72.00,87.50 72.83,87.50 73.67,87.50 74.50,87.50 75.33,87.50 76.17,87.50 77.00,87.50 77.83,87.50 78.67,87.79 79.50,89.36 80.33,86.82 81.17,88.08 82.00,87.47 82.83,87.39 83.68,87.40 84.51,87.97 85.34,87.01 86.18,91.00 87.01,84.76 87.84,87.92 88.68,88.06 89.51,88.07 90.34,88.80 91.18,83.90 92.01,89.22 92.84,86.33 93.68,89.74 94.52,88.00 95.35,88.18 96.18,87.13 97.02,87.48 97.85,85.87 98.68,87.04 99.52,84.62 100.35,87.22 101.19,89.62 102.02,85.01 102.85,90.06 103.69,90.04 104.52,80.38 105.36,90.25 106.19,90.79 107.03,88.64 107.86,86.09 108.69,85.84 109.53,88.20 110.36,87.86 111.19,85.89 112.03,89.31 112.86,86.90 113.69,89.00 114.53,88.03 115.36,86.37 116.20,87.90 117.04,86.76 117.87,87.83 118.70,87.45 119.54,88.30 120.37,87.77 121.20,86.45 122.04,87.32 122.87,87.02 123.70,89.31 124.54,87.12 125.37,87.07 126.20,87.50 127.05,88.65 127.88,86.33 128.71,87.70 129.55,87.95 130.38,87.33 131.21,88.08 132.05,88.10 132.88,87.62 133.71,87.78 134.55,86.89 135.38,88.10 136.21,86.74 137.05,87.99 137.88,89.09 138.72,87.35 139.55,88.30 140.39,86.86 141.22,86.65 142.05,87.20 142.89,88.73 143.72,86.69 144.55,88.42 145.39,87.12 146.22,86.61 147.05,88.15 147.89,88.22 148.72,87.34 149.56,87.50 150.40,88.57 151.23,86.21 152.06,87.01 152.90,89.12 153.73,87.78 154.56,87.07 155.40,86.59 156.23,86.77 157.06,89.13 157.90,86.93 158.73,86.47 159.56,88.17 160.41,87.49 161.24,82.59 162.07,69.17 162.91,91.77 163.74,100.00 164.57,91.42 165.41,92.17 166.24,78.29 167.07,73.36 167.91,93.92 168.74,102.80 169.57,92.52 170.41,73.00 171.25,94.27 172.08,64.63 172.91,103.05 173.75,103.76 174.58,76.46 175.42,91.04 176.25,71.73 177.08,87.77 177.92,100.41 178.75,96.63 179.58,72.18 180.42,95.71 181.25,54.55 182.09,86.25 182.92,110.69 183.76,80.17 184.59,72.60 185.42,93.89 186.26,84.33 187.09,103.54 187.92,85.39 188.76,76.99 189.59,100.00 190.42,69.96 191.26,104.72 192.09,87.74 192.93,91.43 193.77,81.68 194.60,93.47 195.43,64.14 196.27,104.07 197.10,96.47 197.93,90.20 198.77,98.06 199.60,86.56 200.43,77.80 201.27,84.96 202.10,89.82 202.93,83.42 203.77,83.25 204.61,83.93 205.44,84.34 206.28,91.17 207.11,75.07 207.94,85.28 208.78,94.31 209.61,83.15 210.44,84.33 211.28,95.97 212.11,88.78 212.94,84.57 213.78,86.00 214.61,89.13 215.45,90.40 216.28,84.13 217.12,86.54 217.95,92.84 218.78,82.31 219.62,90.45 220.45,81.93 221.28,90.10 222.12,91.78 222.95,84.99 223.78,84.62 224.62,89.26 225.45,89.07 226.29,87.80 227.13,86.98 227.96,86.03 228.79,88.96 229.63,89.29 230.46,85.52 231.29,84.71 232.13,88.23 232.96,90.25 233.79,85.85 234.63,84.96 235.46,87.91 236.29,91.28 237.14,88.60 237.97,85.89 238.80,87.03 239.64,86.91 240.47,87.05 241.30,89.69 242.14,86.38 242.97,89.27 243.80,86.62 244.64,86.84 245.47,88.46 246.30,87.46 247.14,86.09 247.98,88.08 248.81,87.84 249.65,87.02 250.48,88.96 251.31,88.71 252.15,86.22 252.98,87.46 253.81,86.76 254.65,89.00 255.48,87.87 256.31,86.78 257.15,87.60 257.98,87.86 258.82,87.57 259.65,86.92 260.49,88.50 261.32,88.42 262.15,88.04 262.99,87.79 263.82,86.30 264.65,88.75 265.49,86.66 266.32,87.56 267.15,88.19 267.99,87.61 268.82,88.87 269.65,88.05 270.50,87.17 271.33,88.09 272.16,86.50 273.00,86.63 273.83,87.29 274.66,86.86 275.50,86.56 276.33,88.19 277.16,87.28 278.00,87.82 278.83,88.75 279.66,88.33 280.50,88.98 281.34,85.24 282.17,88.80 283.01,84.98 283.84,88.55 284.67,84.88 285.51,87.23 286.34,91.20 287.17,87.10 288.01,84.16 288.84,87.12 289.67,90.37 290.51,86.55 291.34,85.77 292.18,87.16 293.01,86.34 293.85,87.98 294.68,88.46 295.51,88.44 296.35,85.26 297.18,90.27 298.01,84.69 298.85,87.75 299.68,88.74 300.51,86.35 301.35,87.48 302.18,88.85 303.02,88.92 303.86,87.26 304.69,88.15 305.52,87.45 306.36,85.06 307.19,90.35 308.02,91.07 308.86,84.68 309.69,84.84 310.52,92.15 311.36,89.09 312.19,87.20 313.02,88.89 313.87,85.56 314.70,82.99 315.53,90.37 316.37,88.68 317.20,89.34 318.03,86.47 318.87,84.21 319.70,87.27 320.53,90.45 321.37,85.74 322.20,87.89 323.03,89.58 323.87,86.21 324.70,87.14 325.54,88.46 326.38,87.79 327.21,87.03 328.04,86.94 328.88,88.62 329.71,86.41 330.54,86.89 331.38,89.48 332.21,85.15 333.04,85.30 333.88,107.67 334.71,83.00 335.54,86.18 336.38,113.80 337.22,87.68 338.05,81.63 338.88,70.81 339.72,101.77 340.55,63.70 341.38,93.71 342.22,111.44 343.05,92.63 343.88,88.22 344.72,93.53 345.55,66.03 346.38,83.39 347.23,107.03 348.06,76.40 348.89,73.69 349.73,88.78 350.56,91.19 351.39,91.19 352.23,86.85 353.06,86.61 353.89,86.64 354.73,85.19 355.56,91.65 356.39,84.66 357.23,88.00 358.07,86.92 358.90,87.58 359.74,88.08 360.57,85.79 361.40,88.73 362.24,88.45 363.07,85.96 363.90,84.68 364.74,89.07 365.57,89.47 366.40,85.11 367.24,86.82 368.07,85.11 368.91,87.72 369.74,87.18 370.58,84.66 371.41,86.42 372.24,88.45 373.08,89.74 373.91,88.28 374.74,88.00 375.58,88.33 376.41,86.37 377.25,88.86 378.08,86.54 378.91,87.05 379.75,88.06 380.59,87.78 381.42,86.12 382.25,88.76 383.09,86.63 383.92,86.84 384.75,88.86 385.59,85.33 386.42,89.32 387.25,88.01 388.09,86.19 388.92,86.11 389.75,86.39 390.59,89.22 391.43,87.38 392.26,87.30 393.10,88.59 393.93,87.88 394.76,86.66 395.60,86.38 396.43,88.21 397.26,87.23 398.10,87.66 398.93,86.89 399.76,88.56 400.60,88.88 401.43,87.26 402.27,87.83 403.11,86.17 403.94,88.49 404.77,89.16 405.61,92.82 406.44,92.92 407.27,99.10 408.11,100.06 408.94,104.38 409.77,100.03 410.61,91.80 411.44,95.34 412.27,88.95 413.11,77.67 413.95,84.13 414.78,87.09 415.61,77.12 416.45,70.27 417.28,97.90 418.11,102.33 418.95,94.87 419.78,87.18 420.61,77.70 421.45,90.41 422.28,70.19 423.11,93.92 423.96,99.55 424.79,92.98 425.62,82.84 426.46,86.02 427.29,78.63 428.12,85.24 428.96,98.38 429.79,92.05 430.62,85.15 431.46,84.81 432.29,80.38 433.12,86.33 433.96,95.43 434.80,92.23 435.63,84.61 436.47,85.25 437.30,83.55 438.13,89.37 438.97,95.52 439.80,89.97 440.63,86.30 441.47,85.80 442.30,89.85 443.13,90.03 443.97,86.19 444.80,86.75 445.64,87.60 446.47,87.43 447.31,87.13 448.14,89.84 448.97,88.98 449.81,92.99 450.64,84.59 451.48,90.37 452.31,85.24 453.14,86.11 453.98,87.37 454.81,90.12 455.64,85.84 456.48,87.00 457.32,89.00 458.15,87.49 458.98,87.30 459.82,87.43 460.65,89.12 461.48,85.92 462.32,88.50 463.15,86.05 463.98,86.92 464.82,88.58 465.65,88.72 466.48,85.54 467.32,88.68 468.16,88.04 468.99,88.25 469.83,87.76 470.66,88.60 471.49,85.13 472.33,88.57 473.16,86.54 473.99,87.83 474.83,86.95 475.66,88.35 476.49,86.65 477.33,88.72 478.16,85.83 479.00,88.95 479.84,87.69 480.67,87.88 481.50,87.68 482.34,86.83 483.17,87.10 484.00,89.01 484.84,86.79 485.67,89.70 486.50,84.69 487.34,88.88 488.17,87.59 489.00,87.99 489.84,85.59 490.68,90.21 491.51,87.41 492.34,87.23 493.18,88.05 494.01,87.01 494.84,87.99 495.68,87.62 496.51,89.38 497.34,85.18 498.18,88.48 499.01,87.37 499.84,86.38 500.69,87.69 501.52,88.68 502.35,87.96 503.19,88.40 504.02,87.36 504.85,91.16 505.69,83.96 506.52,86.82 507.35,87.59 508.19,86.00 509.02,87.51 509.85,89.51 510.69,84.64 511.52,88.87 512.36,89.21 513.20,88.37 514.03,85.37 514.86,90.00 515.70,84.64 516.53,87.46 517.36,88.59 518.20,85.39 519.03,89.08 519.86,87.32 520.70,87.87 521.53,87.89 522.36,88.97 523.20,85.78 524.04,89.11 524.87,86.63 525.71,87.72 526.54,87.25 527.37,88.17 528.21,86.91 529.04,88.30 529.87,87.09 530.71,88.60 531.54,86.16 532.37,86.70 533.21,88.41 534.05,87.79 534.88,87.13 535.71,86.88 536.55,89.63 537.38,86.80 538.21,87.91 539.05,85.18 539.88,76.60 540.71,90.57 541.55,96.37 542.38,90.41 543.21,95.66 544.05,100.11 544.89,106.79 545.72,91.44 546.56,72.02 547.39,85.02 548.22,84.20 549.06,62.78 549.89,99.37 550.72,96.63 551.56,59.64 552.39,92.74 553.22,103.90 554.06,98.55 554.89,95.76 555.73,77.16 556.57,93.61 557.40,63.13 558.23,100.51 559.07,79.78 559.90,108.75 560.73,93.73 561.57,94.69 562.40,76.64 563.23,82.73 564.07,102.19 564.90,57.20 565.73,108.25 566.57,92.65 567.41,88.42 568.24,91.70 569.07,70.23 569.91,85.33 570.74,92.49 571.57,98.58 572.41,83.40 573.24,96.66 574.07,80.04 574.91,63.67 575.74,98.82 576.57,110.60 577.41,82.73 578.25,70.82 579.08,85.88 579.92,87.46 580.75,97.23 581.58,93.06 582.42,86.38 583.25,80.51 584.08,85.49 584.92,90.98 585.75,89.21 586.58,88.98 587.42,84.80 588.25,86.77 589.09,89.82 589.93,87.29 590.76,88.42 591.59,87.21 592.43,88.26 593.26,87.29 594.09,85.90 594.93,89.60 595.76,88.13 596.59,85.78 597.43,90.80 598.26,86.10 599.09,86.78 599.94,87.99 600.77,87.75 601.60,87.18 602.44,88.20 603.27,88.65 604.10,85.73 604.94,86.68 605.77,103.47 606.60,102.44 607.44,74.99 608.27,91.15 609.10,71.52 609.94,82.62 610.78,97.45 611.61,100.40 612.44,89.61 613.28,90.08 614.11,72.22 614.94,92.38 615.78,92.19 616.61,106.20 617.44,98.24 618.28,77.43 619.11,83.95 619.94,77.47 620.78,95.19 621.62,68.89 622.45,87.09 623.29,86.37 624.12,92.56 624.95,91.76 625.79,86.76 626.62,85.67 627.45,88.45 628.29,89.58 629.12,89.23 629.95,86.27 630.79,87.99 631.62,84.41 632.46,86.45 633.30,88.35 634.13,82.82 634.96,89.08 635.80,87.03 636.63,89.28 637.46,86.54 638.30,87.24 639.13,87.70 639.96,85.99 640.80,88.26 641.63,87.71 642.46,86.46 643.30,86.95 644.14,89.34 644.97,84.87 645.80,88.29 646.64,85.47 647.47,90.71 648.30,84.96 649.14,88.36 649.97,88.35 650.80,86.97 651.64,86.87 652.47,87.11 653.31,86.63 654.14,87.71 654.98,88.17 655.81,86.29 656.65,89.30 657.48,87.71 658.31,87.46 659.15,88.08 659.98,85.62 660.81,85.89 661.65,86.71 662.48,89.09 663.31,87.60 664.15,86.29 664.98,89.02 665.82,87.48 666.66,88.19 667.49,85.91 668.32,87.50 669.16,90.00 669.99,86.81 670.82,89.08 671.66,95.51 672.49,96.96 673.32,76.59 674.16,96.69 674.99,56.70 675.82,98.58 676.67,102.76 677.50,96.87 678.33,68.79 679.17,55.80 680.00,109.22 680.83,101.31 681.67,99.88 682.50,73.59 683.33,66.18 684.17,97.47 685.00,91.12 685.83,81.63 686.67,102.25 687.51,95.81 688.34,87.29 689.17,69.84 690.01,75.55 690.84,58.35 691.67,111.32 692.51,95.30 693.34,87.42 694.17,92.28 695.01,83.17 695.84,95.60 696.67,83.75 697.51,74.39 698.34,85.62 699.18,93.67 700.02,99.54 700.85,85.89 701.68,74.94 702.52,86.23 703.35,92.17 704.18,103.86 705.02,89.14 705.85,77.20 706.68,86.66 707.52,77.55 708.35,94.33 709.18,93.32 710.03,86.23 710.86,84.93 711.69,85.69 712.53,88.20 713.36,89.15 714.19,88.01 715.03,86.78 715.86,87.37 716.69,87.77 717.53,88.28 718.36,87.43 719.19,87.45 720.03,87.53 720.87,86.72 721.70,87.79 722.53,85.20 723.37,89.34 724.20,88.13 725.03,86.32 725.87,86.60 726.70,88.61 727.54,88.21 728.37,88.18 729.20,87.91 730.04,87.36 730.87,86.94 731.71,86.92 732.54,90.37 733.38,85.42 734.21,88.89 735.04,86.25 735.88,89.14 736.71,86.36 737.54,86.49 738.38,85.92 739.21,89.03 740.04,87.90 740.88,86.07 741.71,87.83 742.55,89.74 743.39,86.34 744.22,88.50 745.05,87.06 745.89,88.09 746.72,88.34 747.55,87.20 748.39,85.46 749.22,87.50 750.05,86.79 750.89,88.62 751.72,89.45 752.55,83.97 753.40,88.22 754.23,87.52 755.06,89.16 755.90,88.98 756.73,83.99 757.56,88.37 758.40,91.52 759.23,88.32 760.06,86.44 760.90,98.68 761.73,103.04 762.56,99.80 763.40,91.31 764.23,82.44 765.07,84.65 765.90,90.73 766.74,89.21 767.57,81.01 768.40,68.58 769.24,70.69 770.07,94.05 770.90,103.28 771.74,96.81 772.57,86.05 773.40,88.37 774.24,92.40 775.07,76.29 775.91,77.33 776.75,97.98 777.58,92.19 778.41,88.49 779.25,84.79 780.08,82.36 780.91,88.88 781.75,89.36 782.58,88.35 783.41,86.14 784.25,87.55 785.08,87.99 785.91,87.17 786.76,83.04 787.59,90.57 788.42,96.11 789.26,82.00 790.09,75.00 790.92,94.00 791.76,97.05 792.59,79.25 793.42,79.27 794.26,112.34 795.09,77.98 795.92,67.49 796.76,72.11 797.60,122.00 798.43,87.45 799.26,68.12 800.10,109.14 800.93,93.80 801.77,90.93 802.60,67.07 803.43,100.33 804.27,66.64 805.10,102.09 805.93,104.43 806.77,91.33 807.60,70.80 808.44,98.40 809.27,70.94 810.11,100.05 810.94,104.30 811.77,77.48 812.61,78.35 813.44,94.47 814.27,76.62 815.11,93.70 815.94,100.26 816.77,91.65 817.61,78.52 818.44,79.75 819.28,78.56 820.12,97.95 820.95,99.29 821.78,93.27 822.62,84.96 823.45,78.00 824.28,77.10 825.12,88.86 825.95,97.83 826.78,93.90 827.62,85.92 828.45,80.18 829.28,86.39 830.12,91.27 830.96,90.47 831.79,83.09 832.63,89.78 833.46,87.47 834.29,84.59 835.13,88.30 835.96,88.37 836.79,88.97 837.63,85.65 838.46,86.26 839.29,89.60 840.13,87.16 840.96,87.01 841.80,85.37 842.63,90.85 843.47,86.18 844.30,80.74 845.13,84.93 845.97,93.87 846.80,93.44 847.63,87.02 848.47,85.60 849.30,73.92 850.13,92.35 850.97,95.06 851.80,86.49 852.64,89.13 853.48,74.22 854.31,92.61 855.14,93.78 855.98,78.19 856.81,97.22 857.64,81.79 858.48,86.83 859.31,91.72 860.14,92.27 860.98,75.48 861.81,95.47 862.64,90.77 863.49,89.35 864.32,80.12 865.15,93.84 865.99,88.31 866.82,74.53 867.65,54.77 868.49,102.67 869.32,97.13 870.15,93.59 870.99,94.42 871.82,93.12 872.65,90.76 873.49,81.38 874.33,83.95 875.16,78.47 876.00,92.93 876.83,78.33 877.66,70.85 878.50,58.97 879.33,94.65 880.16,78.67 881.00,71.06 881.83,74.50 882.66,96.29 883.50,84.80 884.33,73.76 885.16,92.66 886.00,94.64 886.84,89.84 887.67,77.25 888.50,97.49 889.34,88.59 890.17,95.45 891.00,83.70 891.84,86.29 892.67,84.22 893.50,90.34 894.34,87.53 895.17,88.95 896.00,85.68 896.85,87.74 897.68,86.50 898.51,90.88 899.35,86.06 900.18,87.88 901.01,85.99 901.85,86.86 902.68,88.23 903.51,85.48 904.35,87.90 905.18,88.99 906.01,87.66 906.85,86.00 907.69,89.66 908.52,86.81 909.36,88.35 910.19,86.86 911.02,87.97 911.86,86.46 912.69,86.38 913.52,88.80 914.36,87.15 915.19,87.29 916.02,88.26 916.86,86.88 917.69,88.59 918.53,86.71 919.36,87.20 920.20,85.33 921.03,88.33 921.86,87.00 922.70,86.75 923.53,89.54 924.36,87.77 925.20,85.69 926.03,88.63 926.86,89.70 927.70,91.07 928.53,85.10 929.37,86.75 930.21,80.69 931.04,91.22 931.87,89.50 932.71,88.41 933.54,88.03 934.37,90.76 935.21,89.65 936.04,85.46 936.87,87.61 937.71,89.54 938.54,87.06 939.37,75.37 940.22,91.49 941.05,90.96 941.88,81.91 942.72,79.90 943.55,91.19 944.38,89.11 945.22,82.09 946.05,92.98 946.88,89.72 947.72,87.18 948.55,78.22 949.38,96.23 950.22,86.53 951.05,84.73 951.89,80.86 952.73,92.40 953.56,87.43 954.39,85.24 955.23,68.26 956.06,90.56 956.89,88.59 957.73,86.67 958.56,80.77 959.39,95.89 960.23,83.71 961.06,90.43 961.89,73.77 962.73,91.90 963.57,85.13 964.40,92.62 965.23,80.58 966.07,92.18 966.90,80.25 967.73,91.02 968.57,93.94 969.40,96.43 970.23,84.22 971.07,88.42 971.90,87.84 972.73,90.65 973.58,80.82 974.41,97.08 975.24,88.33 976.08,87.91 976.91,90.20 977.74,93.80 978.58,77.28 979.41,92.54 980.24,91.05 981.08,90.15 981.91,79.31 982.74,90.96 983.58,92.43 984.42,88.38 985.25,82.35 986.09,87.53 986.92,88.23 987.75,88.27 988.59,87.03 989.42,86.62 990.25,85.52 991.09,88.89 991.92,88.26 992.75,86.36 993.59,89.03 994.42,87.44 995.26,86.88 996.09,88.02 996.93,87.68 997.76,87.09 998.59,87.18 999.43,87.56 1000.26,88.23 1001.09,87.31 1001.93,86.17 1002.76,89.48 1003.59,86.50 1004.43,87.05 1005.26,89.63 1006.10,86.78 1006.94,86.64 1007.77,88.28 1008.60,86.69 1009.44,87.18 1010.27,89.07 1011.10,86.11 1011.94,88.42 1012.77,86.89 1013.60,88.03 1014.44,87.35 1015.27,86.95 1016.10,87.75 1016.94,88.96 1017.78,85.94 1018.61,84.35 1019.45,91.86 1020.28,88.32 1021.11,89.09 1021.95,82.37 1022.78,87.95 1023.61,92.84 1024.45,83.09 1025.28,85.98 1026.11,91.13 1026.95,87.49 1027.78,85.44 1028.62,88.59 1029.46,84.10 1030.29,90.88 1031.12,91.67 1031.96,84.44 1032.79,85.13 1033.62,88.97 1034.46,86.67 1035.29,85.66 1036.12,85.94 1036.96,90.48 1037.79,87.19 1038.62,87.29 1039.46,86.76 1040.30,87.42 1041.13,88.12 1041.96,87.77 1042.80,87.30 1043.63,84.66 1044.46,88.53 1045.30,91.09 1046.13,84.68 1046.96,88.02 1047.80,85.10 1048.63,88.41 1049.46,88.33 1050.31,85.63 1051.14,87.68 1051.97,89.02 1052.81,88.04 1053.64,87.04 1054.47,86.66 1055.31,88.06 1056.14,88.24 1056.97,86.99 1057.81,88.34 1058.64,87.31 1059.47,86.79 1060.31,88.51 1061.15,87.13 1061.98,90.55 1062.82,87.42 1063.65,84.86 1064.48,85.48 1065.32,86.98 1066.15,89.28 1066.98,87.34 1067.82,87.85 1068.65,88.21 1069.48,86.45 1070.32,87.14 1071.15,88.34 1071.99,87.50" fill="none" stroke="#444" stroke-width="1.0" />
<text x="18" y="212.5" font-family="Arial" font-size="12" fill="#444">Voiced probability</text>
<line x1="72" y1="255" x2="1072" y2="255" stroke="#ddd" />
<rect x="72" y="170" width="1000" height="85" fill="none" stroke="#eee" />
<polyline points="72.00,207.52 73.37,218.49 74.75,222.52 76.12,223.92 77.50,219.96 78.87,214.31 80.25,209.74 81.62,209.80 83.00,211.80 84.37,213.55 85.75,213.18 87.12,212.65 88.50,212.04 89.87,211.23 91.24,210.45 92.62,206.57 93.99,207.82 95.37,209.48 96.74,208.45 98.12,205.91 99.49,205.19 100.87,204.34 102.24,202.87 103.62,202.55 104.99,203.72 106.37,205.17 107.74,205.45 109.11,206.97 110.49,207.62 111.86,206.96 113.24,205.69 114.61,206.14 115.99,208.48 117.36,208.43 118.74,208.66 120.11,207.89 121.49,208.43 122.86,208.70 124.24,209.05 125.61,211.75 126.99,210.12 128.36,210.23 129.73,210.22 131.11,208.42 132.48,209.04 133.86,209.05 135.23,208.81 136.61,209.64 137.98,210.64 139.36,211.25 140.73,210.33 142.11,210.15 143.48,210.35 144.86,213.23 146.23,214.25 147.60,212.12 148.98,211.45 150.35,210.09 151.73,209.52 153.10,209.79 154.48,213.05 155.85,217.54 157.23,216.04 158.60,209.42 159.98,205.16 161.35,195.43 162.73,188.89 164.10,184.27 165.47,180.82 166.85,178.67 168.22,178.01 169.60,177.60 170.97,177.82 172.35,178.49 173.72,178.49 175.10,179.04 176.47,179.22 177.85,179.73 179.22,179.78 180.60,181.16 181.97,181.86 183.35,181.50 184.72,180.13 186.09,179.47 187.47,178.41 188.84,178.10 190.22,177.81 191.59,177.91 192.97,177.81 194.34,179.13 195.72,180.05 197.09,183.43 198.47,185.77 199.84,185.88 201.22,184.79 202.59,187.74 203.96,192.48 205.34,197.09 206.71,202.19 208.09,208.47 209.46,211.49 210.84,213.86 212.21,214.34 213.59,213.42 214.96,209.85 216.34,210.84 217.71,211.01 219.09,212.78 220.46,212.86 221.83,213.42 223.21,213.02 224.58,213.07 225.96,212.17 227.33,211.44 228.71,212.38 230.08,213.68 231.46,212.62 232.83,212.12 234.21,210.26 235.58,207.72 236.96,208.42 238.33,208.24 239.70,207.85 241.08,209.83 242.45,210.49 243.83,211.84 245.20,211.19 246.58,213.04 247.95,212.96 249.33,214.64 250.70,213.54 252.08,214.88 253.45,215.83 254.83,217.06 256.20,215.40 257.58,217.17 258.95,218.98 260.32,219.53 261.70,218.09 263.07,215.60 264.45,215.33 265.82,216.97 267.20,216.11 268.57,215.56 269.95,216.14 271.32,215.12 272.70,214.89 274.07,214.01 275.45,214.13 276.82,213.67 278.19,211.85 279.57,213.72 280.94,215.40 282.32,214.99 283.69,215.33 285.07,214.92 286.44,214.31 287.82,213.06 289.19,212.78 290.57,213.74 291.94,213.60 293.32,214.67 294.69,215.52 296.06,214.83 297.44,214.04 298.81,213.77 300.19,213.06 301.56,213.03 302.94,213.18 304.31,210.89 305.69,209.66 307.06,209.66 308.44,209.77 309.81,210.74 311.19,212.56 312.56,212.88 313.93,212.11 315.31,210.65 316.68,209.80 318.06,211.15 319.43,210.76 320.81,213.11 322.18,211.87 323.56,211.14 324.93,211.31 326.31,212.62 327.68,203.99 329.06,194.97 330.43,188.51 331.80,184.63 333.18,181.41 334.55,180.15 335.93,179.96 337.30,181.00 338.68,180.76 340.05,179.20 341.43,177.55 342.80,177.05 344.18,177.38 345.55,177.28 346.93,177.81 348.30,177.60 349.68,177.72 351.05,177.99 352.42,181.89 353.80,186.46 355.17,196.69 356.55,205.04 357.92,213.15 359.30,218.20 360.67,220.59 362.05,218.45 363.42,215.84 364.80,216.71 366.17,218.61 367.55,219.02 368.92,218.14 370.29,218.83 371.67,218.79 373.04,219.49 374.42,216.73 375.79,214.61 377.17,211.52 378.54,211.56 379.92,210.77 381.29,210.46 382.67,209.36 384.04,209.48 385.42,210.16 386.79,210.49 388.16,211.36 389.54,211.58 390.91,211.79 392.29,211.89 393.66,212.03 395.04,212.19 396.41,213.65 397.79,215.07 399.16,215.10 400.54,212.50 401.91,208.00 403.29,203.27 404.66,199.37 406.03,196.32 407.41,191.19 408.78,189.03 410.16,187.60 411.53,185.57 412.91,183.23 414.28,182.18 415.66,180.44 417.03,179.55 418.41,178.90 419.78,178.54 421.16,179.15 422.53,179.57 423.91,180.19 425.28,180.60 426.65,181.19 428.03,182.23 429.40,184.24 430.78,184.95 432.15,185.93 433.53,185.36 434.90,187.41 436.28,192.88 437.65,198.00 439.03,202.57 440.40,206.89 441.78,207.66 443.15,211.96 444.52,216.29 445.90,219.30 447.27,219.49 448.65,218.74 450.02,213.74 451.40,214.18 452.77,215.05 454.15,215.26 455.52,211.29 456.90,206.98 458.27,204.84 459.65,204.13 461.02,203.21 462.39,202.70 463.77,203.44 465.14,202.68 466.52,202.29 467.89,203.23 469.27,203.41 470.64,202.43 472.02,202.84 473.39,203.08 474.77,202.41 476.14,202.40 477.52,202.55 478.89,203.10 480.26,203.40 481.64,203.52 483.01,203.68 484.39,203.52 485.76,203.56 487.14,203.19 488.51,203.30 489.89,203.21 491.26,203.24 492.64,203.68 494.01,202.97 495.39,202.37 496.76,202.93 498.14,202.12 499.51,201.84 500.88,201.18 502.26,203.09 503.63,204.14 505.01,202.77 506.38,201.17 507.76,201.07 509.13,200.62 510.51,199.71 511.88,199.93 513.26,201.41 514.63,201.72 516.01,201.33 517.38,202.07 518.75,202.30 520.13,203.15 521.50,203.34 522.88,203.42 524.25,202.71 525.63,203.35 527.00,202.42 528.38,202.13 529.75,204.50 531.13,204.95 532.50,204.96 533.88,203.88 535.25,201.52 536.62,201.02 538.00,197.56 539.37,190.24 540.75,184.97 542.12,180.50 543.50,180.12 544.87,179.97 546.25,179.70 547.62,178.87 549.00,177.53 550.37,177.14 551.75,177.59 553.12,178.23 554.49,178.23 555.87,178.02 557.24,177.86 558.62,177.75 559.99,177.94 561.37,177.62 562.74,177.55 564.12,177.45 565.49,177.78 566.87,177.88 568.24,177.93 569.62,177.98 570.99,177.67 572.37,176.82 573.74,176.32 575.11,176.12 576.49,175.75 577.86,175.64 579.24,175.84 580.61,177.25 581.99,181.17 583.36,187.30 584.74,192.26 586.11,197.78 587.49,202.04 588.86,207.39 590.24,209.43 591.61,210.22 592.98,210.72 594.36,209.79 595.73,208.09 597.11,205.97 598.48,199.91 599.86,198.01 601.23,194.07 602.61,191.20 603.98,187.20 605.36,184.11 606.73,184.07 608.11,183.95 609.48,184.25 610.85,185.39 612.23,185.11 613.60,182.51 614.98,181.08 616.35,180.73 617.73,180.65 619.10,179.88 620.48,179.03 621.85,178.50 623.23,178.57 624.60,180.40 625.98,185.69 627.35,191.57 628.72,198.34 630.10,209.98 631.47,217.06 632.85,214.38 634.22,210.20 635.60,208.38 636.97,208.40 638.35,205.87 639.72,204.54 641.10,204.32 642.47,205.93 643.85,207.00 645.22,204.79 646.60,205.50 647.97,206.36 649.34,207.37 650.72,208.78 652.09,209.11 653.47,209.33 654.84,209.16 656.22,209.56 657.59,208.38 658.97,209.07 660.34,208.42 661.72,207.96 663.09,211.94 664.47,209.37 665.84,207.88 667.21,207.56 668.59,202.07 669.96,196.10 671.34,198.25 672.71,200.35 674.09,200.58 675.46,201.49 676.84,198.63 678.21,191.49 679.59,185.30 680.96,181.55 682.34,180.10 683.71,179.05 685.08,178.46 686.46,178.30 687.83,178.86 689.21,178.69 690.58,178.51 691.96,178.11 693.33,177.63 694.71,177.76 696.08,177.52 697.46,177.51 698.83,177.22 700.21,176.69 701.58,176.40 702.95,176.51 704.33,176.49 705.70,176.41 707.08,177.16 708.45,178.01 709.83,178.62 711.20,180.98 712.58,184.00 713.95,187.48 715.33,192.37 716.70,197.12 718.08,201.25 719.45,206.52 720.83,211.00 722.20,211.66 723.57,214.17 724.95,215.00 726.32,216.50 727.70,216.36 729.07,212.71 730.45,209.90 731.82,205.11 733.20,205.39 734.57,205.83 735.95,208.01 737.32,209.05 738.70,210.45 740.07,211.56 741.44,213.04 742.82,213.27 744.19,211.08 745.57,210.49 746.94,210.44 748.32,209.97 749.69,209.12 751.07,209.06 752.44,204.22 753.82,198.82 755.19,196.53 756.57,195.40 757.94,194.52 759.31,190.81 760.69,186.69 762.06,183.51 763.44,181.17 764.81,181.38 766.19,180.91 767.56,180.92 768.94,179.88 770.31,178.73 771.69,178.29 773.06,178.27 774.44,178.67 775.81,179.74 777.18,181.12 778.56,183.52 779.93,190.36 781.31,202.18 782.68,211.12 784.06,215.79 785.43,216.09 786.81,214.69 788.18,214.78 789.56,212.56 790.93,208.44 792.31,205.06 793.68,199.98 795.06,195.10 796.43,188.17 797.80,184.91 799.18,181.47 800.55,179.50 801.93,180.10 803.30,180.64 804.68,179.43 806.05,178.62 807.43,178.24 808.80,178.54 810.18,179.04 811.55,179.03 812.93,179.56 814.30,179.49 815.67,179.47 817.05,179.91 818.42,180.51 819.80,180.09 821.17,180.81 822.55,181.33 823.92,181.72 825.30,184.28 826.67,188.35 828.05,195.62 829.42,205.09 830.80,207.67 832.17,211.11 833.54,211.58 834.92,210.94 836.29,210.28 837.67,210.01 839.04,209.45 840.42,209.60 841.79,208.45 843.17,205.94 844.54,202.29 845.92,198.11 847.29,192.05 848.67,189.04 850.04,186.53 851.41,180.70 852.79,176.23 854.16,174.54 855.54,174.16 856.91,174.01 858.29,173.84 859.66,173.74 861.04,173.62 862.41,173.65 863.79,174.03 865.16,174.37 866.54,175.10 867.91,175.66 869.29,176.01 870.66,176.26 872.03,175.90 873.41,175.50 874.78,175.36 876.16,175.21 877.53,175.29 878.91,175.33 880.28,175.38 881.66,175.36 883.03,175.20 884.41,174.90 885.78,174.69 887.16,174.66 888.53,174.77 889.90,175.00 891.28,174.90 892.65,175.15 894.03,175.91 895.40,177.69 896.78,178.60 898.15,180.68 899.53,183.02 900.90,185.10 902.28,188.20 903.65,193.06 905.03,197.49 906.40,197.44 907.77,198.68 909.15,199.89 910.52,200.62 911.90,201.77 913.27,201.42 914.65,200.99 916.02,199.80 917.40,199.23 918.77,197.85 920.15,197.40 921.52,196.31 922.90,195.57 924.27,194.45 925.64,193.32 927.02,190.66 928.39,191.32 929.77,191.87 931.14,191.76 932.52,194.06 933.89,195.30 935.27,195.30 936.64,194.25 938.02,190.40 939.39,189.65 940.77,190.58 942.14,188.45 943.52,189.06 944.89,188.01 946.26,188.95 947.64,187.61 949.01,183.43 950.39,180.91 951.76,180.67 953.14,181.59 954.51,182.29 955.89,181.68 957.26,182.21 958.64,183.18 960.01,182.13 961.39,180.85 962.76,178.41 964.13,177.48 965.51,176.59 966.88,177.23 968.26,177.08 969.63,177.79 971.01,178.14 972.38,178.78 973.76,179.26 975.13,179.98 976.51,181.70 977.88,180.67 979.26,178.52 980.63,176.60 982.00,175.84 983.38,175.47 984.75,175.07 986.13,175.46 987.50,176.79 988.88,180.26 990.25,187.45 991.63,195.65 993.00,200.49 994.38,201.43 995.75,202.11 997.13,203.89 998.50,204.53 999.87,203.71 1001.25,204.06 1002.62,204.75 1004.00,204.82 1005.37,204.35 1006.75,203.52 1008.12,205.05 1009.50,207.16 1010.87,206.82 1012.25,204.01 1013.62,203.61 1015.00,205.75 1016.37,204.45 1017.75,207.56 1019.12,206.04 1020.49,205.90 1021.87,204.55 1023.24,202.25 1024.62,201.27 1025.99,202.40 1027.37,203.33 1028.74,203.32 1030.12,203.64 1031.49,206.41 1032.87,206.81 1034.24,206.02 1035.62,207.18 1036.99,205.96 1038.36,205.66 1039.74,207.12 1041.11,209.09 1042.49,208.16 1043.86,206.59 1045.24,208.58 1046.61,207.02 1047.99,207.94 1049.36,210.06 1050.74,214.67 1052.11,215.95 1053.49,216.22 1054.86,218.27 1056.23,218.80 1057.61,219.02 1058.98,218.09 1060.36,213.31 1061.73,206.74 1063.11,210.26 1064.48,212.95 1065.86,212.55 1067.23,212.21 1068.61,213.98 1069.98,215.66 1071.36,216.82" fill="none" stroke="#2563eb" stroke-width="1.4" />
<line x1="72" y1="229.50" x2="1072" y2="229.50" stroke="#bbb" stroke-dasharray="4 4" />
<text x="1076" y="233.50" font-family="Arial" font-size="10" fill="#666">0.3</text>
<line x1="72" y1="212.50" x2="1072" y2="212.50" stroke="#bbb" stroke-dasharray="4 4" />
<text x="1076" y="216.50" font-family="Arial" font-size="10" fill="#666">0.5</text>
<line x1="72" y1="195.50" x2="1072" y2="195.50" stroke="#bbb" stroke-dasharray="4 4" />
<text x="1076" y="199.50" font-family="Arial" font-size="10" fill="#666">0.7</text>
<line x1="72" y1="178.50" x2="1072" y2="178.50" stroke="#bbb" stroke-dasharray="4 4" />
<text x="1076" y="182.50" font-family="Arial" font-size="10" fill="#666">0.9</text>
<text x="18" y="342.5" font-family="Arial" font-size="12" fill="#444">Pitch confidence</text>
<line x1="72" y1="385" x2="1072" y2="385" stroke="#ddd" />
<rect x="72" y="300" width="1000" height="85" fill="none" stroke="#eee" />
<polyline points="72.00,382.55 73.37,380.17 74.75,378.27 76.12,378.48 77.50,377.87 78.87,379.22 80.25,378.53 81.62,378.55 83.00,379.52 84.37,380.06 85.75,380.15 87.12,380.47 88.50,380.25 89.87,380.12 91.24,379.12 92.62,379.23 93.99,378.36 95.37,378.04 96.74,378.56 98.12,378.91 99.49,375.93 100.87,376.90 102.24,375.66 103.62,373.36 104.99,375.69 106.37,377.04 107.74,377.19 109.11,376.89 110.49,376.71 111.86,377.64 113.24,376.53 114.61,374.95 115.99,374.43 117.36,375.84 118.74,376.42 120.11,376.91 121.49,376.81 122.86,376.77 124.24,375.71 125.61,375.17 126.99,372.90 128.36,372.50 129.73,371.27 131.11,373.09 132.48,374.40 133.86,376.40 135.23,376.03 136.61,376.20 137.98,376.82 139.36,378.15 140.73,377.64 142.11,376.85 143.48,374.23 144.86,376.01 146.23,376.63 147.60,378.38 148.98,378.36 150.35,377.65 151.73,375.47 153.10,374.27 154.48,375.50 155.85,376.96 157.23,378.33 158.60,366.75 159.98,355.01 161.35,353.10 162.73,358.23 164.10,354.30 165.47,355.71 166.85,355.72 168.22,354.84 169.60,354.88 170.97,354.94 172.35,354.82 173.72,354.84 175.10,353.33 176.47,352.38 177.85,352.41 179.22,351.64 180.60,351.30 181.97,351.27 183.35,352.00 184.72,354.42 186.09,353.13 187.47,351.25 188.84,352.47 190.22,355.13 191.59,352.14 192.97,351.77 194.34,354.55 195.72,352.38 197.09,357.32 198.47,362.99 199.84,363.10 201.22,363.87 202.59,360.80 203.96,363.45 205.34,364.84 206.71,367.59 208.09,373.97 209.46,377.21 210.84,379.77 212.21,380.54 213.59,378.73 214.96,378.22 216.34,378.81 217.71,379.27 219.09,380.15 220.46,380.27 221.83,379.62 223.21,379.49 224.58,379.62 225.96,379.40 227.33,380.39 228.71,379.78 230.08,379.08 231.46,378.96 232.83,376.57 234.21,377.02 235.58,375.72 236.96,376.71 238.33,377.15 239.70,378.45 241.08,378.92 242.45,378.06 243.83,377.93 245.20,377.56 246.58,376.79 247.95,377.04 249.33,378.17 250.70,378.79 252.08,378.28 253.45,378.19 254.83,378.12 256.20,379.14 257.58,379.65 258.95,377.02 260.32,377.10 261.70,378.05 263.07,378.92 264.45,378.38 265.82,378.03 267.20,378.32 268.57,378.79 269.95,377.55 271.32,376.76 272.70,376.72 274.07,375.29 275.45,374.02 276.82,374.03 278.19,374.89 279.57,375.06 280.94,375.85 282.32,375.62 283.69,374.95 285.07,374.55 286.44,373.97 287.82,374.27 289.19,374.91 290.57,374.03 291.94,373.72 293.32,373.18 294.69,373.07 296.06,373.95 297.44,374.48 298.81,374.65 300.19,374.41 301.56,374.10 302.94,375.10 304.31,375.30 305.69,376.09 307.06,377.22 308.44,377.27 309.81,376.98 311.19,376.66 312.56,376.75 313.93,376.97 315.31,376.75 316.68,376.99 318.06,376.99 319.43,376.08 320.81,375.37 322.18,375.70 323.56,375.75 324.93,376.92 326.31,378.32 327.68,369.54 329.06,364.62 330.43,360.93 331.80,360.89 333.18,359.77 334.55,357.56 335.93,356.72 337.30,349.53 338.68,349.80 340.05,352.57 341.43,355.94 342.80,358.65 344.18,355.90 345.55,355.26 346.93,357.61 348.30,357.33 349.68,357.52 351.05,358.31 352.42,360.60 353.80,363.27 355.17,366.42 356.55,370.90 357.92,371.59 359.30,373.74 360.67,376.10 362.05,377.41 363.42,378.28 364.80,379.79 366.17,380.80 367.55,380.51 368.92,380.31 370.29,380.55 371.67,379.92 373.04,379.97 374.42,380.24 375.79,380.32 377.17,380.21 378.54,379.44 379.92,377.68 381.29,376.12 382.67,376.31 384.04,376.35 385.42,376.56 386.79,376.73 388.16,376.39 389.54,376.27 390.91,376.16 392.29,376.32 393.66,376.73 395.04,377.38 396.41,377.83 397.79,377.86 399.16,378.27 400.54,378.92 401.91,376.80 403.29,367.74 404.66,363.17 406.03,362.07 407.41,359.70 408.78,360.11 410.16,359.61 411.53,357.87 412.91,354.72 414.28,352.91 415.66,353.44 417.03,356.16 418.41,358.59 419.78,358.41 421.16,356.63 422.53,353.95 423.91,352.58 425.28,352.78 426.65,353.53 428.03,355.00 429.40,353.83 430.78,352.63 432.15,352.23 433.53,352.69 434.90,354.48 436.28,356.06 437.65,358.42 439.03,361.16 440.40,363.74 441.78,367.51 443.15,371.95 444.52,377.99 445.90,378.89 447.27,378.52 448.65,379.94 450.02,379.88 451.40,380.22 452.77,381.04 454.15,381.72 455.52,381.36 456.90,381.28 458.27,381.42 459.65,380.90 461.02,380.77 462.39,380.64 463.77,380.40 465.14,379.52 466.52,379.11 467.89,378.51 469.27,378.11 470.64,377.70 472.02,377.16 473.39,376.83 474.77,376.77 476.14,376.80 477.52,375.97 478.89,375.29 480.26,374.99 481.64,374.36 483.01,373.77 484.39,373.80 485.76,373.52 487.14,373.92 488.51,374.07 489.89,374.12 491.26,373.52 492.64,372.97 494.01,373.25 495.39,373.76 496.76,376.42 498.14,378.31 499.51,379.85 500.88,379.92 502.26,378.18 503.63,375.76 505.01,375.26 506.38,378.08 507.76,378.12 509.13,378.04 510.51,378.99 511.88,379.10 513.26,378.32 514.63,378.44 516.01,379.41 517.38,380.10 518.75,379.38 520.13,379.74 521.50,380.70 522.88,381.35 524.25,381.14 525.63,380.83 527.00,378.93 528.38,378.26 529.75,380.18 531.13,380.06 532.50,378.16 533.88,378.97 535.25,377.58 536.62,377.91 538.00,377.47 539.37,376.38 540.75,366.35 542.12,360.94 543.50,358.36 544.87,354.31 546.25,352.75 547.62,352.82 549.00,352.76 550.37,350.15 551.75,348.92 553.12,351.42 554.49,351.36 555.87,349.16 557.24,351.80 558.62,350.78 559.99,348.82 561.37,349.58 562.74,352.30 564.12,353.62 565.49,351.87 566.87,351.74 568.24,352.31 569.62,354.35 570.99,352.43 572.37,351.57 573.74,350.88 575.11,351.06 576.49,351.67 577.86,352.66 579.24,353.32 580.61,353.64 581.99,354.61 583.36,360.16 584.74,363.20 586.11,364.25 587.49,367.86 588.86,369.88 590.24,371.87 591.61,373.15 592.98,373.65 594.36,375.95 595.73,379.18 597.11,376.81 598.48,370.57 599.86,365.15 601.23,361.81 602.61,359.10 603.98,357.32 605.36,353.22 606.73,351.27 608.11,352.61 609.48,353.82 610.85,354.89 612.23,355.18 613.60,354.27 614.98,353.61 616.35,351.90 617.73,350.81 619.10,352.37 620.48,356.05 621.85,356.27 623.23,358.27 624.60,358.19 625.98,360.14 627.35,360.73 628.72,359.73 630.10,365.31 631.47,370.52 632.85,371.66 634.22,372.62 635.60,375.28 636.97,378.45 638.35,380.06 639.72,381.23 641.10,380.70 642.47,379.37 643.85,377.56 645.22,376.17 646.60,374.55 647.97,376.61 649.34,378.02 650.72,379.02 652.09,379.75 653.47,378.98 654.84,378.51 656.22,378.52 657.59,379.11 658.97,379.30 660.34,379.62 661.72,380.40 663.09,380.86 664.47,381.22 665.84,378.02 667.21,374.36 668.59,370.17 669.96,364.37 671.34,361.46 672.71,361.85 674.09,357.62 675.46,353.46 676.84,354.40 678.21,348.56 679.59,349.81 680.96,352.43 682.34,349.68 683.71,349.19 685.08,350.50 686.46,351.93 687.83,352.80 689.21,352.53 690.58,352.12 691.96,351.52 693.33,351.92 694.71,352.45 696.08,352.27 697.46,351.03 698.83,349.93 700.21,350.51 701.58,353.92 702.95,351.93 704.33,350.99 705.70,352.02 707.08,354.08 708.45,356.61 709.83,359.05 711.20,361.46 712.58,362.66 713.95,363.57 715.33,363.20 716.70,363.37 718.08,363.58 719.45,366.27 720.83,369.26 722.20,371.66 723.57,375.79 724.95,378.68 726.32,378.53 727.70,378.48 729.07,377.34 730.45,376.53 731.82,376.19 733.20,377.74 734.57,376.57 735.95,374.47 737.32,372.52 738.70,373.23 740.07,375.86 741.44,376.58 742.82,378.03 744.19,377.66 745.57,378.97 746.94,378.20 748.32,379.18 749.69,378.41 751.07,378.57 752.44,379.26 753.82,379.11 755.19,379.76 756.57,376.33 757.94,372.17 759.31,368.72 760.69,364.81 762.06,363.21 763.44,358.83 764.81,357.91 766.19,357.00 767.56,358.14 768.94,359.09 770.31,361.16 771.69,359.68 773.06,357.90 774.44,358.20 775.81,358.37 777.18,356.58 778.56,357.83 779.93,362.05 781.31,369.74 782.68,376.72 784.06,380.74 785.43,381.12 786.81,381.88 788.18,382.30 789.56,381.73 790.93,381.01 792.31,380.53 793.68,380.91 795.06,375.37 796.43,367.73 797.80,365.94 799.18,364.10 800.55,361.01 801.93,355.32 803.30,352.54 804.68,354.24 806.05,356.58 807.43,355.93 808.80,355.45 810.18,355.34 811.55,354.72 812.93,355.44 814.30,356.92 815.67,358.10 817.05,358.40 818.42,359.07 819.80,359.64 821.17,358.49 822.55,358.93 823.92,361.34 825.30,361.57 826.67,363.23 828.05,369.79 829.42,376.31 830.80,379.62 832.17,380.78 833.54,380.64 834.92,380.76 836.29,380.69 837.67,381.08 839.04,379.85 840.42,378.05 841.79,377.76 843.17,378.73 844.54,376.66 845.92,372.41 847.29,368.73 848.67,366.67 850.04,362.10 851.41,359.73 852.79,354.19 854.16,350.81 855.54,351.43 856.91,354.28 858.29,351.95 859.66,350.47 861.04,350.46 862.41,349.69 863.79,348.38 865.16,347.59 866.54,348.02 867.91,348.97 869.29,349.62 870.66,349.09 872.03,347.87 873.41,346.81 874.78,346.23 876.16,346.26 877.53,346.52 878.91,346.83 880.28,347.26 881.66,347.44 883.03,347.04 884.41,347.48 885.78,347.28 887.16,347.86 888.53,348.62 889.90,349.59 891.28,350.78 892.65,351.47 894.03,352.04 895.40,354.14 896.78,355.77 898.15,357.65 899.53,356.54 900.90,360.79 902.28,362.54 903.65,363.66 905.03,366.83 906.40,369.99 907.77,371.16 909.15,374.06 910.52,376.24 911.90,376.59 913.27,375.90 914.65,375.87 916.02,376.75 917.40,377.27 918.77,375.78 920.15,373.85 921.52,371.82 922.90,369.60 924.27,367.13 925.64,365.05 927.02,365.29 928.39,364.99 929.77,363.93 931.14,365.61 932.52,366.65 933.89,370.70 935.27,375.86 936.64,376.13 938.02,372.03 939.39,368.05 940.77,366.64 942.14,362.24 943.52,360.29 944.89,357.49 946.26,356.26 947.64,355.81 949.01,356.42 950.39,353.72 951.76,351.48 953.14,351.57 954.51,352.65 955.89,351.21 957.26,352.01 958.64,353.61 960.01,354.31 961.39,355.16 962.76,353.53 964.13,352.51 965.51,352.56 966.88,353.25 968.26,353.53 969.63,353.85 971.01,354.92 972.38,353.15 973.76,351.78 975.13,351.53 976.51,351.62 977.88,352.50 979.26,353.84 980.63,351.74 982.00,351.27 983.38,352.49 984.75,354.64 986.13,356.84 987.50,360.70 988.88,361.81 990.25,363.60 991.63,367.60 993.00,369.58 994.38,371.64 995.75,373.72 997.13,376.15 998.50,378.00 999.87,379.02 1001.25,379.06 1002.62,378.86 1004.00,380.03 1005.37,379.59 1006.75,379.81 1008.12,379.54 1009.50,379.73 1010.87,380.72 1012.25,381.05 1013.62,380.87 1015.00,380.77 1016.37,381.18 1017.75,380.86 1019.12,380.03 1020.49,379.38 1021.87,378.40 1023.24,377.07 1024.62,373.35 1025.99,372.86 1027.37,374.70 1028.74,375.41 1030.12,377.28 1031.49,376.54 1032.87,378.85 1034.24,378.37 1035.62,378.19 1036.99,378.04 1038.36,379.42 1039.74,379.71 1041.11,377.77 1042.49,374.70 1043.86,369.35 1045.24,367.88 1046.61,368.20 1047.99,369.96 1049.36,372.81 1050.74,376.89 1052.11,376.82 1053.49,376.90 1054.86,379.64 1056.23,377.99 1057.61,376.82 1058.98,375.91 1060.36,378.38 1061.73,378.88 1063.11,380.32 1064.48,380.68 1065.86,379.76 1067.23,378.68 1068.61,374.66 1069.98,372.68 1071.36,371.82" fill="none" stroke="#7c3aed" stroke-width="1.4" />
<text x="18" y="477.5" font-family="Arial" font-size="12" fill="#444">Raw f0 before smoothing</text>
<line x1="72" y1="525" x2="1072" y2="525" stroke="#ddd" />
<rect x="72" y="430" width="1000" height="95" fill="none" stroke="#eee" />
<polyline points="72.00,521.80 80.25,522.35 81.62,522.17 83.00,522.17 88.50,521.99 89.87,521.99 91.24,521.99 92.62,522.17 93.99,522.17 95.37,522.17 96.74,522.17 98.12,522.17 99.49,523.83 100.87,523.83 102.24,522.17 103.62,522.17 104.99,522.17 106.37,522.17 107.74,522.17 109.11,522.17 110.49,523.83 111.86,523.83 113.24,523.83 114.61,523.83 115.99,523.83 117.36,523.83 118.74,523.83 120.11,523.83 121.49,523.83 122.86,523.83 124.24,523.83 125.61,523.83 126.99,523.83 128.36,523.83 129.73,523.83 131.11,523.83 132.48,523.83 133.86,523.83 135.23,523.83 136.61,522.17 137.98,522.17 139.36,523.83 140.73,523.83 142.11,523.83 143.48,523.83 147.60,523.68 148.98,521.80 150.35,523.68 151.73,523.68 153.10,523.68 158.60,514.44 159.98,514.77 161.35,514.77 162.73,514.77 164.10,515.09 165.47,515.09 166.85,515.40 168.22,515.40 169.60,515.40 170.97,515.40 172.35,515.40 173.72,515.40 175.10,515.40 176.47,515.40 177.85,515.40 179.22,515.40 180.60,515.40 181.97,515.40 183.35,515.40 184.72,515.40 186.09,515.71 187.47,515.71 188.84,515.71 190.22,515.71 191.59,515.40 192.97,515.40 194.34,515.09 195.72,515.09 197.09,515.09 198.47,514.77 199.84,514.10 201.22,513.76 202.59,513.41 203.96,513.41 205.34,513.06 206.71,513.06 208.09,513.06 209.46,513.06 214.96,522.35 216.34,522.35 217.71,522.35 225.96,522.35 227.33,522.17 228.71,521.61 232.83,521.61 234.21,521.61 235.58,521.61 236.96,521.61 238.33,521.61 239.70,521.61 241.08,521.99 242.45,521.99 243.83,521.99 245.20,523.83 278.19,521.99 304.31,521.99 305.69,521.99 307.06,521.99 308.44,521.99 309.81,521.99 313.93,521.99 315.31,521.99 316.68,521.99 318.06,521.99 319.43,521.99 322.18,521.99 323.56,521.99 324.93,521.99 327.68,514.10 329.06,514.10 330.43,514.10 331.80,514.10 333.18,514.44 334.55,514.44 335.93,514.44 337.30,514.77 338.68,514.77 340.05,514.77 341.43,514.44 342.80,514.44 344.18,514.10 345.55,514.10 346.93,514.10 348.30,513.76 349.68,513.76 351.05,513.76 352.42,513.76 353.80,513.76 355.17,514.10 356.55,513.41 377.17,521.41 378.54,521.41 379.92,521.41 381.29,521.41 382.67,521.41 384.04,521.41 385.42,521.41 386.79,521.41 388.16,521.41 389.54,521.41 390.91,521.41 392.29,521.41 393.66,521.41 395.04,521.99 401.91,513.06 403.29,513.06 404.66,513.06 406.03,513.06 407.41,513.06 408.78,513.41 410.16,513.41 411.53,513.76 412.91,513.76 414.28,513.76 415.66,513.76 417.03,513.76 418.41,514.10 419.78,514.44 421.16,514.77 422.53,514.77 423.91,514.77 425.28,514.77 426.65,514.77 428.03,514.77 429.40,515.09 430.78,515.09 432.15,515.09 433.53,515.09 434.90,515.09 436.28,515.09 437.65,515.09 439.03,515.09 440.40,515.09 441.78,515.09 443.15,515.09 455.52,521.99 456.90,521.99 458.27,521.41 459.65,521.61 461.02,521.61 462.39,516.31 463.77,521.61 465.14,521.41 466.52,521.41 467.89,521.41 469.27,521.41 470.64,521.41 472.02,521.41 473.39,521.41 474.77,521.41 476.14,521.41 477.52,521.41 478.89,521.41 480.26,521.41 481.64,521.41 483.01,521.41 484.39,521.41 485.76,521.41 487.14,521.41 488.51,521.41 489.89,521.41 491.26,521.41 492.64,521.41 494.01,521.41 495.39,521.41 496.76,521.41 498.14,521.41 499.51,521.41 500.88,521.41 502.26,521.41 503.63,521.41 505.01,521.41 506.38,521.41 507.76,521.41 509.13,521.41 510.51,521.41 511.88,521.41 513.26,521.41 514.63,521.41 516.01,521.41 517.38,521.41 518.75,523.83 520.13,523.83 521.50,523.83 522.88,523.83 524.25,523.68 525.63,523.68 527.00,523.68 528.38,523.68 529.75,523.68 531.13,523.68 532.50,523.68 533.88,523.68 535.25,522.35 536.62,522.35 538.00,449.81 539.37,513.76 540.75,513.76 542.12,513.41 543.50,513.41 544.87,513.41 546.25,513.41 547.62,513.41 549.00,513.76 550.37,513.76 551.75,513.76 553.12,513.76 554.49,514.10 555.87,514.10 557.24,514.10 558.62,514.44 559.99,514.44 561.37,514.44 562.74,514.44 564.12,514.77 565.49,514.77 566.87,514.77 568.24,514.77 569.62,515.09 570.99,515.09 572.37,515.09 573.74,515.09 575.11,515.09 576.49,515.09 577.86,515.09 579.24,515.09 580.61,515.09 581.99,515.09 583.36,515.09 584.74,515.09 586.11,515.09 587.49,515.71 588.86,515.71 590.24,516.02 591.61,516.02 592.98,516.02 594.36,516.02 595.73,516.02 597.11,514.44 598.48,514.44 599.86,514.44 601.23,514.44 602.61,514.44 603.98,514.77 605.36,514.77 606.73,514.77 608.11,514.77 609.48,514.77 610.85,514.77 612.23,514.77 613.60,514.77 614.98,514.77 616.35,514.77 617.73,514.77 619.10,514.77 620.48,514.77 621.85,514.44 623.23,514.44 624.60,514.10 625.98,514.10 627.35,514.44 628.72,514.44 630.10,514.44 634.22,514.10 635.60,514.44 636.97,514.44 638.35,514.10 639.72,514.10 641.10,444.94 642.47,444.94 643.85,444.94 645.22,444.94 646.60,446.60 647.97,446.60 649.34,444.94 650.72,444.94 652.09,521.41 653.47,521.41 654.84,521.41 656.22,521.41 657.59,521.41 658.97,521.41 660.34,521.61 661.72,522.35 663.09,522.35 664.47,516.02 665.84,514.10 667.21,514.10 668.59,514.44 669.96,515.09 671.34,515.09 672.71,515.40 674.09,515.40 675.46,515.40 676.84,515.71 678.21,515.71 679.59,515.71 680.96,516.02 682.34,516.02 683.71,516.02 685.08,516.02 686.46,516.02 687.83,516.02 689.21,516.31 690.58,516.31 691.96,516.31 693.33,516.31 694.71,516.31 696.08,516.02 697.46,516.02 698.83,516.02 700.21,516.02 701.58,516.02 702.95,515.71 704.33,515.71 705.70,515.71 707.08,515.71 708.45,515.71 709.83,515.71 711.20,515.71 712.58,515.71 713.95,515.71 715.33,515.71 716.70,516.02 718.08,516.02 719.45,516.02 720.83,516.02 722.20,516.02 730.45,443.26 731.82,443.26 733.20,443.26 734.57,443.26 735.95,443.26 737.32,443.26 738.70,443.26 740.07,443.26 744.19,443.26 745.57,516.89 746.94,516.61 748.32,516.61 749.69,516.61 751.07,516.61 752.44,441.54 753.82,441.54 755.19,441.54 756.57,513.41 757.94,514.10 759.31,514.10 760.69,514.10 762.06,513.76 763.44,513.76 764.81,513.76 766.19,513.76 767.56,513.76 768.94,513.76 770.31,513.76 771.69,514.10 773.06,514.10 774.44,514.10 775.81,514.44 777.18,514.44 778.56,514.44 779.93,514.44 781.31,514.44 782.68,514.44 790.93,444.94 792.31,444.94 793.68,520.16 795.06,514.44 796.43,514.44 797.80,514.44 799.18,514.77 800.55,514.77 801.93,514.77 803.30,514.77 804.68,514.77 806.05,515.09 807.43,515.09 808.80,515.09 810.18,515.09 811.55,515.09 812.93,515.09 814.30,515.09 815.67,515.09 817.05,515.09 818.42,515.09 819.80,515.09 821.17,515.09 822.55,515.09 823.92,515.09 825.30,515.09 826.67,515.09 828.05,515.09 829.42,515.09 830.80,515.09 832.17,523.52 833.54,523.52 834.92,523.83 836.29,523.83 837.67,523.83 839.04,516.31 840.42,516.31 841.79,516.31 843.17,515.09 844.54,515.09 845.92,515.09 847.29,515.09 848.67,515.71 850.04,515.71 851.41,516.02 852.79,516.31 854.16,516.31 855.54,516.31 856.91,516.31 858.29,516.61 859.66,516.61 861.04,516.61 862.41,516.61 863.79,516.61 865.16,516.61 866.54,516.61 867.91,516.61 869.29,516.61 870.66,516.61 872.03,516.61 873.41,516.61 874.78,516.61 876.16,516.61 877.53,516.61 878.91,516.61 880.28,516.61 881.66,516.61 883.03,516.61 884.41,516.61 885.78,516.61 887.16,516.61 888.53,516.61 889.90,516.61 891.28,516.61 892.65,516.61 894.03,516.61 895.40,516.61 896.78,516.61 898.15,516.61 899.53,516.89 900.90,516.89 902.28,516.61 903.65,516.61 905.03,516.61 906.40,516.61 907.77,516.31 909.15,516.31 910.52,516.31 911.90,516.31 913.27,516.31 914.65,516.31 916.02,516.31 917.40,516.31 918.77,516.31 920.15,516.02 921.52,516.02 922.90,516.02 924.27,516.02 925.64,516.02 927.02,516.31 928.39,516.31 929.77,516.31 931.14,516.31 932.52,516.31 933.89,516.31 935.27,517.17 936.64,517.17 938.02,517.45 939.39,517.45 940.77,517.45 942.14,517.45 943.52,517.45 944.89,517.45 946.26,517.45 947.64,517.45 949.01,517.45 950.39,517.17 951.76,517.17 953.14,517.17 954.51,517.17 955.89,517.17 957.26,517.17 958.64,517.17 960.01,517.17 961.39,517.17 962.76,517.17 964.13,517.17 965.51,517.17 966.88,517.17 968.26,517.17 969.63,517.17 971.01,516.89 972.38,516.89 973.76,516.89 975.13,516.89 976.51,516.89 977.88,516.89 979.26,516.89 980.63,516.61 982.00,516.61 983.38,516.61 984.75,516.61 986.13,516.61 987.50,516.61 988.88,516.31 990.25,516.31 991.63,516.31 993.00,516.61 994.38,516.61 995.75,516.61 997.13,516.61 998.50,516.61 999.87,516.89 1001.25,520.80 1002.62,520.80 1004.00,520.80 1005.37,521.01 1006.75,444.94 1008.12,521.01 1009.50,521.41 1010.87,521.41 1012.25,443.26 1013.62,444.94 1015.00,444.94 1016.37,443.26 1017.75,439.79 1019.12,439.79 1020.49,444.94 1021.87,444.94 1023.24,444.94 1024.62,446.60 1025.99,446.60 1027.37,446.60 1028.74,448.22 1030.12,448.22 1031.49,448.22 1032.87,448.22 1034.24,448.22 1035.62,448.22 1036.99,448.22 1038.36,448.22 1039.74,523.83 1041.11,523.83 1042.49,523.83 1043.86,523.83 1045.24,523.83 1046.61,523.83 1047.99,523.83 1049.36,523.83 1061.73,513.06 1063.11,522.35 1067.23,522.35" fill="none" stroke="#ea580c" stroke-width="1.5" />
<line x1="72" y1="523.88" x2="1072" y2="523.88" stroke="#eee" />
<text x="1076" y="527.88" font-family="Arial" font-size="10" fill="#666">65</text>
<line x1="72" y1="521.85" x2="1072" y2="521.85" stroke="#eee" />
<text x="1076" y="525.85" font-family="Arial" font-size="10" fill="#666">82</text>
<line x1="72" y1="519.93" x2="1072" y2="519.93" stroke="#eee" />
<text x="1076" y="523.93" font-family="Arial" font-size="10" fill="#666">98</text>
<line x1="72" y1="518.50" x2="1072" y2="518.50" stroke="#eee" />
<text x="1076" y="522.50" font-family="Arial" font-size="10" fill="#666">110</text>
<line x1="72" y1="515.99" x2="1072" y2="515.99" stroke="#eee" />
<text x="1076" y="519.99" font-family="Arial" font-size="10" fill="#666">131</text>
<line x1="72" y1="514.08" x2="1072" y2="514.08" stroke="#eee" />
<text x="1076" y="518.08" font-family="Arial" font-size="10" fill="#666">147</text>
<line x1="72" y1="511.93" x2="1072" y2="511.93" stroke="#eee" />
<text x="1076" y="515.93" font-family="Arial" font-size="10" fill="#666">165</text>
<line x1="72" y1="508.23" x2="1072" y2="508.23" stroke="#eee" />
<text x="1076" y="512.23" font-family="Arial" font-size="10" fill="#666">196</text>
<line x1="72" y1="505.36" x2="1072" y2="505.36" stroke="#eee" />
<text x="1076" y="509.36" font-family="Arial" font-size="10" fill="#666">220</text>
<line x1="72" y1="500.34" x2="1072" y2="500.34" stroke="#eee" />
<text x="1076" y="504.34" font-family="Arial" font-size="10" fill="#666">262</text>
<line x1="72" y1="492.22" x2="1072" y2="492.22" stroke="#eee" />
<text x="1076" y="496.22" font-family="Arial" font-size="10" fill="#666">330</text>
<line x1="72" y1="484.82" x2="1072" y2="484.82" stroke="#eee" />
<text x="1076" y="488.82" font-family="Arial" font-size="10" fill="#666">392</text>
<line x1="72" y1="469.17" x2="1072" y2="469.17" stroke="#eee" />
<text x="1076" y="473.17" font-family="Arial" font-size="10" fill="#666">523</text>
<line x1="72" y1="452.92" x2="1072" y2="452.92" stroke="#eee" />
<text x="1076" y="456.92" font-family="Arial" font-size="10" fill="#666">659</text>
<line x1="72" y1="437.99" x2="1072" y2="437.99" stroke="#eee" />
<text x="1076" y="441.99" font-family="Arial" font-size="10" fill="#666">784</text>
<text x="18" y="617.5" font-family="Arial" font-size="12" fill="#444">Smoothed f0 after smoothing</text>
<line x1="72" y1="665" x2="1072" y2="665" stroke="#ddd" />
<rect x="72" y="570" width="1000" height="95" fill="none" stroke="#eee" />
<polyline points="72.00,661.73 80.25,662.29 81.62,662.11 83.00,662.11 88.50,661.92 89.87,661.92 91.24,661.92 92.62,662.11 93.99,662.11 95.37,662.11 96.74,662.11 98.12,662.11 99.49,662.11 100.87,662.11 102.24,662.11 103.62,662.11 104.99,662.11 106.37,662.11 107.74,662.11 109.11,662.11 110.49,663.80 111.86,663.80 113.24,663.80 114.61,663.80 115.99,663.80 117.36,663.80 118.74,663.80 120.11,663.80 121.49,663.80 122.86,663.80 124.24,663.80 125.61,663.80 126.99,663.80 128.36,663.80 129.73,663.80 131.11,663.80 132.48,663.80 133.86,663.80 135.23,663.80 136.61,663.80 137.98,663.80 139.36,663.80 140.73,663.80 142.11,663.80 143.48,663.80 147.60,663.65 148.98,663.65 150.35,663.65 151.73,663.65 153.10,663.65 158.60,654.22 159.98,654.55 161.35,654.55 162.73,654.55 164.10,654.88 165.47,654.88 166.85,655.20 168.22,655.20 169.60,655.20 170.97,655.20 172.35,655.20 173.72,655.20 175.10,655.20 176.47,655.20 177.85,655.20 179.22,655.20 180.60,655.20 181.97,655.20 183.35,655.20 184.72,655.20 186.09,655.52 187.47,655.52 188.84,655.52 190.22,655.52 191.59,655.20 192.97,655.20 194.34,654.88 195.72,654.88 197.09,654.88 198.47,654.55 199.84,653.88 201.22,653.53 202.59,653.17 203.96,653.17 205.34,652.81 206.71,652.81 208.09,652.81 209.46,652.81 214.96,662.29 216.34,662.29 217.71,662.29 225.96,662.29 227.33,662.11 228.71,661.54 232.83,661.54 234.21,661.54 235.58,661.54 236.96,661.54 238.33,661.54 239.70,661.54 241.08,661.92 242.45,661.92 243.83,661.92 245.20,663.80 278.19,661.92 304.31,661.92 305.69,661.92 307.06,661.92 308.44,661.92 309.81,661.92 313.93,661.92 315.31,661.92 316.68,661.92 318.06,661.92 319.43,661.92 322.18,661.92 323.56,661.92 324.93,661.92 327.68,653.88 329.06,653.88 330.43,653.88 331.80,653.88 333.18,654.22 334.55,654.22 335.93,654.22 337.30,654.55 338.68,654.55 340.05,654.55 341.43,654.22 342.80,654.22 344.18,653.88 345.55,653.88 346.93,653.88 348.30,653.53 349.68,653.53 351.05,653.53 352.42,653.53 353.80,653.53 355.17,653.53 356.55,653.17 377.17,661.34 378.54,661.34 379.92,661.34 381.29,661.34 382.67,661.34 384.04,661.34 385.42,661.34 386.79,661.34 388.16,661.34 389.54,661.34 390.91,661.34 392.29,661.34 393.66,661.34 395.04,661.92 401.91,652.81 403.29,652.81 404.66,652.81 406.03,652.81 407.41,652.81 408.78,653.17 410.16,653.17 411.53,653.53 412.91,653.53 414.28,653.53 415.66,653.53 417.03,653.53 418.41,653.88 419.78,654.22 421.16,654.55 422.53,654.55 423.91,654.55 425.28,654.55 426.65,654.55 428.03,654.55 429.40,654.88 430.78,654.88 432.15,654.88 433.53,654.88 434.90,654.88 436.28,654.88 437.65,654.88 439.03,654.88 440.40,654.88 441.78,654.88 443.15,654.88 455.52,661.92 456.90,661.92 458.27,661.54 459.65,661.54 461.02,661.54 462.39,661.54 463.77,661.54 465.14,661.34 466.52,661.34 467.89,661.34 469.27,661.34 470.64,661.34 472.02,661.34 473.39,661.34 474.77,661.34 476.14,661.34 477.52,661.34 478.89,661.34 480.26,661.34 481.64,661.34 483.01,661.34 484.39,661.34 485.76,661.34 487.14,661.34 488.51,661.34 489.89,661.34 491.26,661.34 492.64,661.34 494.01,661.34 495.39,661.34 496.76,661.34 498.14,661.34 499.51,661.34 500.88,661.34 502.26,661.34 503.63,661.34 505.01,661.34 506.38,661.34 507.76,661.34 509.13,661.34 510.51,661.34 511.88,661.34 513.26,661.34 514.63,661.34 516.01,661.34 517.38,661.34 518.75,663.80 520.13,663.80 521.50,663.80 522.88,663.80 524.25,663.65 525.63,663.65 527.00,663.65 528.38,663.65 529.75,663.65 531.13,663.65 532.50,663.65 533.88,663.65 535.25,662.29 536.62,662.29 538.00,653.53 539.37,653.53 540.75,653.17 542.12,653.17 543.50,653.17 544.87,653.17 546.25,653.17 547.62,653.17 549.00,653.53 550.37,653.53 551.75,653.53 553.12,653.53 554.49,653.88 555.87,653.88 557.24,653.88 558.62,654.22 559.99,654.22 561.37,654.22 562.74,654.22 564.12,654.55 565.49,654.55 566.87,654.55 568.24,654.55 569.62,654.88 570.99,654.88 572.37,654.88 573.74,654.88 575.11,654.88 576.49,654.88 577.86,654.88 579.24,654.88 580.61,654.88 581.99,654.88 583.36,654.88 584.74,654.88 586.11,654.88 587.49,655.52 588.86,655.52 590.24,655.83 591.61,655.83 592.98,655.83 594.36,655.83 595.73,655.83 597.11,654.22 598.48,654.22 599.86,654.22 601.23,654.22 602.61,654.22 603.98,654.55 605.36,654.55 606.73,654.55 608.11,654.55 609.48,654.55 610.85,654.55 612.23,654.55 613.60,654.55 614.98,654.55 616.35,654.55 617.73,654.55 619.10,654.55 620.48,654.55 621.85,654.22 623.23,654.22 624.60,654.22 625.98,654.22 627.35,654.22 628.72,654.22 630.10,654.22 634.22,653.88 635.60,653.88 636.97,653.88 638.35,653.88 639.72,653.88 641.10,649.65 642.47,649.65 643.85,649.65 645.22,649.65 646.60,649.65 647.97,649.65 649.34,650.07 650.72,650.07 652.09,650.89 653.47,650.89 654.84,650.89 656.22,650.89 657.59,650.89 658.97,650.89 660.34,651.29 661.72,652.81 663.09,652.81 664.47,653.88 665.84,653.88 667.21,654.22 668.59,654.22 669.96,654.88 671.34,654.88 672.71,655.20 674.09,655.20 675.46,655.20 676.84,655.52 678.21,655.52 679.59,655.52 680.96,655.83 682.34,655.83 683.71,655.83 685.08,655.83 686.46,655.83 687.83,655.83 689.21,656.13 690.58,656.13 691.96,656.13 693.33,656.13 694.71,656.13 696.08,655.83 697.46,655.83 698.83,655.83 700.21,655.83 701.58,655.83 702.95,655.52 704.33,655.52 705.70,655.52 707.08,655.52 708.45,655.52 709.83,655.52 711.20,655.52 712.58,655.52 713.95,655.52 715.33,655.52 716.70,655.83 718.08,655.83 719.45,655.83 720.83,655.83 722.20,655.83 730.45,581.55 731.82,581.55 733.20,581.55 734.57,581.55 735.95,581.55 737.32,581.55 738.70,581.55 740.07,581.55 744.19,581.55 745.57,610.39 746.94,610.39 748.32,610.39 749.69,610.39 751.07,610.39 752.44,579.80 753.82,579.80 755.19,579.80 756.57,597.36 757.94,600.17 759.31,600.17 760.69,600.17 762.06,598.78 763.44,598.78 764.81,598.78 766.19,598.78 767.56,598.78 768.94,598.78 770.31,598.78 771.69,600.17 773.06,600.17 774.44,600.17 775.81,601.53 777.18,601.53 778.56,601.53 779.93,601.53 781.31,601.53 782.68,601.53 790.93,583.28 792.31,583.28 793.68,624.90 795.06,636.66 796.43,636.66 797.80,636.66 799.18,637.33 800.55,637.33 801.93,637.33 803.30,637.33 804.68,637.33 806.05,637.98 807.43,637.98 808.80,637.98 810.18,637.98 811.55,637.98 812.93,637.98 814.30,637.98 815.67,637.98 817.05,637.98 818.42,637.98 819.80,637.98 821.17,637.98 822.55,637.98 823.92,637.98 825.30,637.98 826.67,637.98 828.05,637.98 829.42,637.98 830.80,637.98 832.17,638.63 833.54,638.63 834.92,639.88 836.29,639.88 837.67,639.88 839.04,640.49 840.42,640.49 841.79,640.49 843.17,637.98 844.54,637.98 845.92,637.98 847.29,637.98 848.67,639.26 850.04,639.26 851.41,639.88 852.79,640.49 854.16,640.49 855.54,640.49 856.91,640.49 858.29,641.08 859.66,641.08 861.04,641.08 862.41,641.08 863.79,641.08 865.16,641.08 866.54,641.08 867.91,641.08 869.29,641.08 870.66,641.08 872.03,641.08 873.41,641.08 874.78,641.08 876.16,641.08 877.53,641.08 878.91,641.08 880.28,641.08 881.66,641.08 883.03,641.08 884.41,641.08 885.78,641.08 887.16,641.08 888.53,641.08 889.90,641.08 891.28,641.08 892.65,641.08 894.03,641.08 895.40,641.08 896.78,641.08 898.15,641.08 899.53,641.08 900.90,641.08 902.28,641.08 903.65,641.08 905.03,641.08 906.40,641.08 907.77,640.49 909.15,640.49 910.52,640.49 911.90,640.49 913.27,640.49 914.65,640.49 916.02,640.49 917.40,640.49 918.77,640.49 920.15,639.88 921.52,639.88 922.90,639.88 924.27,639.88 925.64,639.88 927.02,640.49 928.39,640.49 929.77,640.49 931.14,640.49 932.52,640.49 933.89,640.49 935.27,642.24 936.64,642.24 938.02,642.81 939.39,642.81 940.77,642.81 942.14,642.81 943.52,642.81 944.89,642.81 946.26,642.81 947.64,642.81 949.01,642.81 950.39,642.24 951.76,642.24 953.14,642.24 954.51,642.24 955.89,642.24 957.26,642.24 958.64,642.24 960.01,642.24 961.39,642.24 962.76,642.24 964.13,642.24 965.51,642.24 966.88,642.24 968.26,642.24 969.63,642.24 971.01,641.67 972.38,641.67 973.76,641.67 975.13,641.67 976.51,641.67 977.88,641.67 979.26,641.67 980.63,641.08 982.00,641.08 983.38,641.08 984.75,641.08 986.13,641.08 987.50,641.08 988.88,640.49 990.25,640.49 991.63,640.49 993.00,641.08 994.38,641.08 995.75,641.08 997.13,641.08 998.50,641.08 999.87,641.67 1001.25,649.65 1002.62,649.65 1004.00,649.65 1005.37,650.07 1006.75,650.07 1008.12,650.07 1009.50,650.07 1010.87,650.07 1012.25,649.65 1013.62,649.65 1015.00,649.22 1016.37,649.22 1017.75,649.22 1019.12,649.22 1020.49,649.65 1021.87,649.65 1023.24,649.65 1024.62,650.07 1025.99,650.07 1027.37,650.07 1028.74,650.49 1030.12,650.49 1031.49,650.49 1032.87,650.49 1034.24,650.49 1035.62,650.49 1036.99,650.49 1038.36,650.49 1039.74,655.83 1041.11,655.83 1042.49,655.83 1043.86,655.83 1045.24,655.83 1046.61,655.83 1047.99,655.83 1049.36,655.83 1061.73,652.81 1063.11,652.81 1067.23,662.29" fill="none" stroke="#059669" stroke-width="1.5" />
<line x1="72" y1="663.85" x2="1072" y2="663.85" stroke="#eee" />
<text x="1076" y="667.85" font-family="Arial" font-size="10" fill="#666">65</text>
<line x1="72" y1="661.78" x2="1072" y2="661.78" stroke="#eee" />
<text x="1076" y="665.78" font-family="Arial" font-size="10" fill="#666">82</text>
<line x1="72" y1="659.83" x2="1072" y2="659.83" stroke="#eee" />
<text x="1076" y="663.83" font-family="Arial" font-size="10" fill="#666">98</text>
<line x1="72" y1="658.37" x2="1072" y2="658.37" stroke="#eee" />
<text x="1076" y="662.37" font-family="Arial" font-size="10" fill="#666">110</text>
<line x1="72" y1="655.80" x2="1072" y2="655.80" stroke="#eee" />
<text x="1076" y="659.80" font-family="Arial" font-size="10" fill="#666">131</text>
<line x1="72" y1="653.85" x2="1072" y2="653.85" stroke="#eee" />
<text x="1076" y="657.85" font-family="Arial" font-size="10" fill="#666">147</text>
<line x1="72" y1="651.66" x2="1072" y2="651.66" stroke="#eee" />
<text x="1076" y="655.66" font-family="Arial" font-size="10" fill="#666">165</text>
<line x1="72" y1="647.88" x2="1072" y2="647.88" stroke="#eee" />
<text x="1076" y="651.88" font-family="Arial" font-size="10" fill="#666">196</text>
<line x1="72" y1="644.95" x2="1072" y2="644.95" stroke="#eee" />
<text x="1076" y="648.95" font-family="Arial" font-size="10" fill="#666">220</text>
<line x1="72" y1="639.83" x2="1072" y2="639.83" stroke="#eee" />
<text x="1076" y="643.83" font-family="Arial" font-size="10" fill="#666">262</text>
<line x1="72" y1="631.54" x2="1072" y2="631.54" stroke="#eee" />
<text x="1076" y="635.54" font-family="Arial" font-size="10" fill="#666">330</text>
<line x1="72" y1="623.98" x2="1072" y2="623.98" stroke="#eee" />
<text x="1076" y="627.98" font-family="Arial" font-size="10" fill="#666">392</text>
<line x1="72" y1="608.01" x2="1072" y2="608.01" stroke="#eee" />
<text x="1076" y="612.01" font-family="Arial" font-size="10" fill="#666">523</text>
<line x1="72" y1="591.42" x2="1072" y2="591.42" stroke="#eee" />
<text x="1076" y="595.42" font-family="Arial" font-size="10" fill="#666">659</text>
<line x1="72" y1="576.18" x2="1072" y2="576.18" stroke="#eee" />
<text x="1076" y="580.18" font-family="Arial" font-size="10" fill="#666">784</text>
<text x="18" y="750.0" font-family="Arial" font-size="12" fill="#444">Onset probability</text>
<line x1="72" y1="790" x2="1072" y2="790" stroke="#ddd" />
<rect x="72" y="710" width="1000" height="80" fill="none" stroke="#eee" />
<polyline points="72.00,761.71 73.37,757.09 74.75,758.62 76.12,754.68 77.50,755.68 78.87,755.44 80.25,756.74 81.62,756.34 83.00,755.87 84.37,753.32 85.75,753.48 87.12,755.83 88.50,754.46 89.87,755.00 91.24,756.04 92.62,753.89 93.99,755.58 95.37,755.46 96.74,755.61 98.12,753.83 99.49,755.30 100.87,757.24 102.24,757.56 103.62,757.71 104.99,758.74 106.37,759.46 107.74,759.61 109.11,759.51 110.49,759.79 111.86,759.78 113.24,759.79 114.61,758.82 115.99,758.71 117.36,759.20 118.74,760.13 120.11,759.89 121.49,760.60 122.86,761.14 124.24,761.33 125.61,761.86 126.99,761.37 128.36,760.54 129.73,759.97 131.11,758.46 132.48,758.76 133.86,758.59 135.23,759.69 136.61,760.51 137.98,761.00 139.36,760.57 140.73,760.42 142.11,760.70 143.48,761.26 144.86,760.68 146.23,759.68 147.60,759.73 148.98,759.07 150.35,758.75 151.73,759.03 153.10,759.50 154.48,760.20 155.85,759.51 157.23,756.79 158.60,755.83 159.98,750.10 161.35,751.31 162.73,755.95 164.10,760.27 165.47,768.97 166.85,774.00 168.22,775.05 169.60,775.75 170.97,775.78 172.35,775.90 173.72,776.55 175.10,776.19 176.47,776.05 177.85,775.76 179.22,775.04 180.60,773.46 181.97,772.18 183.35,772.80 184.72,774.88 186.09,776.80 187.47,778.78 188.84,778.92 190.22,778.52 191.59,777.88 192.97,777.56 194.34,777.44 195.72,777.27 197.09,773.91 198.47,771.03 199.84,769.55 201.22,768.76 202.59,767.55 203.96,765.35 205.34,763.35 206.71,762.25 208.09,762.76 209.46,763.17 210.84,762.03 212.21,760.62 213.59,760.77 214.96,760.26 216.34,760.85 217.71,761.17 219.09,762.05 220.46,762.15 221.83,762.24 223.21,762.24 224.58,761.90 225.96,760.05 227.33,758.98 228.71,759.61 230.08,759.77 231.46,758.80 232.83,759.28 234.21,758.68 235.58,758.47 236.96,758.67 238.33,758.87 239.70,759.11 241.08,760.07 242.45,759.71 243.83,761.33 245.20,761.14 246.58,762.18 247.95,761.17 249.33,762.47 250.70,762.17 252.08,762.53 253.45,762.49 254.83,762.82 256.20,761.69 257.58,761.06 258.95,762.07 260.32,762.46 261.70,762.29 263.07,761.70 264.45,760.90 265.82,760.69 267.20,759.49 268.57,758.45 269.95,758.52 271.32,758.17 272.70,757.91 274.07,757.98 275.45,757.73 276.82,757.48 278.19,755.72 279.57,755.49 280.94,755.61 282.32,754.63 283.69,755.08 285.07,755.07 286.44,755.20 287.82,755.28 289.19,755.07 290.57,754.85 291.94,754.87 293.32,756.79 294.69,757.85 296.06,757.31 297.44,758.23 298.81,758.23 300.19,756.76 301.56,757.05 302.94,756.85 304.31,754.86 305.69,754.82 307.06,755.17 308.44,756.49 309.81,756.55 311.19,756.51 312.56,756.26 313.93,753.68 315.31,752.52 316.68,752.73 318.06,752.93 319.43,753.60 320.81,753.73 322.18,753.00 323.56,752.95 324.93,752.01 326.31,752.62 327.68,746.20 329.06,751.49 330.43,755.33 331.80,757.32 333.18,761.29 334.55,764.85 335.93,767.11 337.30,769.78 338.68,771.41 340.05,773.74 341.43,776.50 342.80,777.14 344.18,777.51 345.55,777.51 346.93,776.72 348.30,776.31 349.68,776.26 351.05,775.79 352.42,773.76 353.80,771.73 355.17,763.02 356.55,758.56 357.92,757.64 359.30,758.62 360.67,757.36 362.05,756.50 363.42,756.04 364.80,755.86 366.17,756.50 367.55,756.69 368.92,758.31 370.29,757.93 371.67,759.25 373.04,758.28 374.42,759.09 375.79,759.69 377.17,759.57 378.54,759.78 379.92,758.95 381.29,758.05 382.67,757.79 384.04,757.65 385.42,758.07 386.79,758.63 388.16,757.76 389.54,757.61 390.91,757.19 392.29,757.99 393.66,757.51 395.04,757.74 396.41,757.25 397.79,756.90 399.16,755.13 400.54,755.11 401.91,751.74 403.29,752.34 404.66,754.79 406.03,757.70 407.41,761.61 408.78,763.63 410.16,764.64 411.53,765.03 412.91,767.21 414.28,769.43 415.66,770.61 417.03,772.46 418.41,773.21 419.78,774.81 421.16,775.99 422.53,777.35 423.91,777.51 425.28,777.91 426.65,777.59 428.03,776.00 429.40,773.07 430.78,772.14 432.15,771.64 433.53,772.15 434.90,772.38 436.28,770.40 437.65,769.97 439.03,768.18 440.40,767.49 441.78,765.23 443.15,763.72 444.52,760.79 445.90,759.95 447.27,759.28 448.65,758.57 450.02,758.27 451.40,758.27 452.77,757.81 454.15,757.67 455.52,756.86 456.90,756.50 458.27,756.38 459.65,755.72 461.02,756.00 462.39,755.06 463.77,755.82 465.14,754.54 466.52,754.20 467.89,754.36 469.27,754.98 470.64,754.57 472.02,755.35 473.39,755.02 474.77,755.11 476.14,755.99 477.52,756.30 478.89,756.15 480.26,756.47 481.64,756.30 483.01,756.13 484.39,756.15 485.76,756.35 487.14,756.70 488.51,756.27 489.89,756.13 491.26,755.75 492.64,756.66 494.01,756.50 495.39,756.11 496.76,756.38 498.14,756.18 499.51,757.13 500.88,757.61 502.26,758.12 503.63,758.59 505.01,758.51 506.38,758.27 507.76,758.80 509.13,758.97 510.51,757.60 511.88,758.19 513.26,758.58 514.63,758.57 516.01,758.79 517.38,759.75 518.75,759.65 520.13,760.23 521.50,760.70 522.88,759.81 524.25,758.31 525.63,758.36 527.00,757.72 528.38,757.93 529.75,759.23 531.13,758.89 532.50,758.95 533.88,757.04 535.25,755.35 536.62,754.81 538.00,753.05 539.37,748.86 540.75,753.17 542.12,765.02 543.50,770.36 544.87,774.38 546.25,777.35 547.62,779.30 549.00,780.42 550.37,780.97 551.75,780.83 553.12,780.59 554.49,780.48 555.87,779.74 557.24,778.99 558.62,778.68 559.99,778.38 561.37,778.71 562.74,779.00 564.12,778.87 565.49,778.15 566.87,777.46 568.24,777.07 569.62,776.76 570.99,776.96 572.37,778.53 573.74,779.38 575.11,779.46 576.49,779.74 577.86,780.06 579.24,780.23 580.61,778.07 581.99,770.78 583.36,763.35 584.74,759.80 586.11,755.47 587.49,752.36 588.86,750.83 590.24,750.81 591.61,751.85 592.98,751.05 594.36,750.73 595.73,750.37 597.11,748.92 598.48,745.44 599.86,745.80 601.23,747.59 602.61,750.50 603.98,754.73 605.36,761.58 606.73,763.56 608.11,764.95 609.48,765.49 610.85,764.02 612.23,764.45 613.60,767.30 614.98,770.42 616.35,772.52 617.73,772.50 619.10,773.12 620.48,774.08 621.85,774.54 623.23,775.08 624.60,775.72 625.98,772.77 627.35,769.41 628.72,764.68 630.10,760.31 631.47,757.79 632.85,756.69 634.22,756.66 635.60,756.39 636.97,756.41 638.35,755.72 639.72,755.48 641.10,755.78 642.47,756.21 643.85,756.75 645.22,756.51 646.60,757.55 647.97,758.89 649.34,759.56 650.72,759.14 652.09,757.43 653.47,756.99 654.84,756.95 656.22,756.41 657.59,756.07 658.97,756.22 660.34,756.13 661.72,756.13 663.09,755.86 664.47,753.68 665.84,752.59 667.21,754.21 668.59,750.98 669.96,751.08 671.34,754.08 672.71,753.29 674.09,753.55 675.46,756.91 676.84,758.51 678.21,761.19 679.59,764.95 680.96,770.48 682.34,773.96 683.71,776.53 685.08,778.47 686.46,778.96 687.83,778.32 689.21,778.49 690.58,779.17 691.96,779.86 693.33,780.54 694.71,780.47 696.08,780.22 697.46,780.22 698.83,779.99 700.21,780.59 701.58,780.70 702.95,779.70 704.33,779.05 705.70,779.39 707.08,779.53 708.45,779.68 709.83,780.06 711.20,778.87 712.58,775.57 713.95,771.12 715.33,767.01 716.70,764.22 718.08,760.46 719.45,758.02 720.83,755.56 722.20,754.55 723.57,754.23 724.95,754.54 726.32,755.46 727.70,755.13 729.07,755.24 730.45,756.15 731.82,755.57 733.20,756.25 734.57,756.20 735.95,757.53 737.32,756.12 738.70,755.79 740.07,756.54 741.44,756.75 742.82,756.29 744.19,756.48 745.57,755.86 746.94,754.78 748.32,754.56 749.69,753.91 751.07,753.35 752.44,750.77 753.82,751.53 755.19,753.99 756.57,752.19 757.94,752.83 759.31,753.73 760.69,758.66 762.06,763.99 763.44,768.58 764.81,771.60 766.19,773.83 767.56,776.63 768.94,778.08 770.31,779.09 771.69,779.68 773.06,779.69 774.44,779.19 775.81,778.70 777.18,776.58 778.56,774.07 779.93,769.60 781.31,761.87 782.68,758.54 784.06,757.40 785.43,756.39 786.81,756.31 788.18,757.82 789.56,756.10 790.93,759.60 792.31,759.35 793.68,760.30 795.06,756.43 796.43,759.56 797.80,763.98 799.18,771.09 800.55,775.73 801.93,776.60 803.30,778.52 804.68,780.53 806.05,780.55 807.43,780.10 808.80,778.86 810.18,777.97 811.55,777.80 812.93,777.52 814.30,777.87 815.67,778.11 817.05,778.30 818.42,778.26 819.80,778.07 821.17,775.41 822.55,774.50 823.92,774.82 825.30,774.29 826.67,773.20 828.05,770.08 829.42,761.54 830.80,758.15 832.17,757.36 833.54,756.36 834.92,756.67 836.29,756.93 837.67,756.01 839.04,754.56 840.42,753.88 841.79,753.83 843.17,754.64 844.54,754.84 845.92,753.44 847.29,754.51 848.67,759.43 850.04,761.83 851.41,768.31 852.79,777.91 854.16,781.06 855.54,781.31 856.91,782.06 858.29,782.77 859.66,783.23 861.04,783.53 862.41,784.01 863.79,783.86 865.16,783.55 866.54,782.15 867.91,781.52 869.29,781.77 870.66,781.18 872.03,781.95 873.41,782.85 874.78,783.36 876.16,784.01 877.53,784.11 878.91,784.39 880.28,784.58 881.66,784.78 883.03,784.80 884.41,784.87 885.78,784.85 887.16,784.79 888.53,784.42 889.90,783.86 891.28,783.55 892.65,783.19 894.03,781.80 895.40,778.13 896.78,776.46 898.15,771.79 899.53,770.40 900.90,768.77 902.28,764.79 903.65,761.24 905.03,758.64 906.40,756.81 907.77,755.25 909.15,755.38 910.52,754.50 911.90,754.70 913.27,754.23 914.65,754.56 916.02,754.94 917.40,754.72 918.77,752.83 920.15,751.69 921.52,750.20 922.90,750.01 924.27,749.79 925.64,750.42 927.02,749.20 928.39,750.41 929.77,752.01 931.14,751.78 932.52,752.06 933.89,751.33 935.27,751.35 936.64,751.76 938.02,753.23 939.39,753.07 940.77,755.15 942.14,757.26 943.52,756.93 944.89,756.65 946.26,759.39 947.64,759.63 949.01,761.24 950.39,762.44 951.76,763.47 953.14,761.85 954.51,762.03 955.89,764.36 957.26,765.34 958.64,765.70 960.01,767.26 961.39,768.21 962.76,771.93 964.13,773.95 965.51,775.90 966.88,774.25 968.26,773.45 969.63,773.46 971.01,773.09 972.38,774.42 973.76,776.21 975.13,776.10 976.51,775.00 977.88,776.09 979.26,777.94 980.63,779.59 982.00,780.86 983.38,780.97 984.75,781.88 986.13,782.00 987.50,780.22 988.88,775.05 990.25,766.50 991.63,761.85 993.00,757.82 994.38,757.30 995.75,757.46 997.13,756.66 998.50,757.52 999.87,758.24 1001.25,758.79 1002.62,759.11 1004.00,759.29 1005.37,758.84 1006.75,758.48 1008.12,759.14 1009.50,760.36 1010.87,760.83 1012.25,760.78 1013.62,760.75 1015.00,761.62 1016.37,759.23 1017.75,760.82 1019.12,760.68 1020.49,761.18 1021.87,761.41 1023.24,761.22 1024.62,760.66 1025.99,761.09 1027.37,761.73 1028.74,761.76 1030.12,762.51 1031.49,764.03 1032.87,763.19 1034.24,763.06 1035.62,763.06 1036.99,762.49 1038.36,761.80 1039.74,762.43 1041.11,763.28 1042.49,763.65 1043.86,764.96 1045.24,765.33 1046.61,764.04 1047.99,763.57 1049.36,764.59 1050.74,764.48 1052.11,763.41 1053.49,760.61 1054.86,760.25 1056.23,758.94 1057.61,757.57 1058.98,756.24 1060.36,754.40 1061.73,750.76 1063.11,756.38 1064.48,755.69 1065.86,754.92 1067.23,753.46 1068.61,754.83 1069.98,756.31 1071.36,757.42" fill="none" stroke="#dc2626" stroke-width="1.4" />
<line x1="72.00" y1="795" x2="72.00" y2="802" stroke="#666" />
<text x="60.00" y="815" font-family="Arial" font-size="10" fill="#666">0.0s</text>
<line x1="238.67" y1="795" x2="238.67" y2="802" stroke="#666" />
<text x="226.67" y="815" font-family="Arial" font-size="10" fill="#666">1.2s</text>
<line x1="405.33" y1="795" x2="405.33" y2="802" stroke="#666" />
<text x="393.33" y="815" font-family="Arial" font-size="10" fill="#666">2.4s</text>
<line x1="572.00" y1="795" x2="572.00" y2="802" stroke="#666" />
<text x="560.00" y="815" font-family="Arial" font-size="10" fill="#666">3.6s</text>
<line x1="738.67" y1="795" x2="738.67" y2="802" stroke="#666" />
<text x="726.67" y="815" font-family="Arial" font-size="10" fill="#666">4.8s</text>
<line x1="905.33" y1="795" x2="905.33" y2="802" stroke="#666" />
<text x="893.33" y="815" font-family="Arial" font-size="10" fill="#666">6.1s</text>
<line x1="1072.00" y1="795" x2="1072.00" y2="802" stroke="#666" />
<text x="1060.00" y="815" font-family="Arial" font-size="10" fill="#666">7.3s</text>
</svg>