<svg xmlns="http://www.w3.org/2000/svg" width="1100" height="820" viewBox="0 0 1100 820">
<rect width="100%" height="100%" fill="white" />
<text x="72" y="25" font-family="Arial" font-size="18" font-weight="700" fill="#111">03_sustained_aaa</text>
<text x="18" y="87.5" font-family="Arial" font-size="12" fill="#444">Waveform</text>
<line x1="72" y1="125" x2="1072" y2="125" stroke="#ddd" />
<rect x="72" y="50" width="1000" height="75" fill="none" stroke="#eee" />
<polyline points="72.00,87.50 72.83,87.50 73.67,87.50 74.50,87.50 75.34,87.50 76.16,87.50 77.00,87.50 77.83,87.50 78.67,86.67 79.50,89.06 80.34,87.19 81.17,86.82 82.01,87.83 82.84,87.84 83.67,87.42 84.50,87.36 85.34,87.44 86.17,87.78 87.01,87.40 87.84,87.34 88.68,87.86 89.51,87.32 90.34,87.39 91.17,87.52 92.01,86.92 92.85,87.49 93.68,86.47 94.52,87.80 95.35,87.56 96.19,87.88 97.01,88.06 97.85,87.44 98.68,88.08 99.52,87.38 100.35,86.58 101.19,87.34 102.02,87.87 102.86,87.06 103.69,87.91 104.52,87.67 105.35,87.32 106.19,87.27 107.02,87.97 107.86,87.65 108.69,87.40 109.53,87.26 110.36,87.82 111.19,87.84 112.03,86.56 112.86,88.63 113.70,87.49 114.53,87.13 115.37,87.51 116.20,88.20 117.04,87.41 117.87,87.38 118.70,87.34 119.53,87.40 120.37,87.30 121.20,87.54 122.04,88.13 122.87,87.18 123.71,87.76 124.54,87.25 125.37,87.52 126.20,88.17 127.04,87.39 127.87,87.73 128.71,88.48 129.54,87.36 130.38,88.15 131.22,87.61 132.04,88.09 132.88,86.92 133.71,87.59 134.55,87.30 135.38,87.83 136.22,87.09 137.05,88.15 137.89,87.40 138.72,88.00 139.55,87.28 140.38,87.65 141.22,86.71 142.05,87.44 142.89,87.45 143.72,87.62 144.56,87.60 145.39,87.07 146.22,87.65 147.05,88.00 147.89,87.27 148.72,88.29 149.56,87.66 150.39,87.58 151.23,86.78 152.07,87.40 152.89,87.41 153.73,87.72 154.56,88.43 155.40,87.24 156.23,87.48 157.07,87.90 157.90,86.98 158.74,88.05 159.57,86.49 160.40,88.32 161.23,87.06 162.07,87.17 162.90,88.31 163.74,87.05 164.57,86.86 165.41,87.37 166.24,86.65 167.07,87.85 167.90,88.40 168.74,87.24 169.57,86.66 170.41,87.92 171.25,87.89 172.08,87.85 172.92,87.62 173.75,88.15 174.58,86.91 175.41,87.59 176.25,87.04 177.08,87.93 177.92,88.58 178.75,88.00 179.59,97.12 180.42,82.46 181.25,88.01 182.08,90.44 182.92,86.54 183.75,87.38 184.59,88.62 185.42,86.67 186.26,87.31 187.09,89.05 187.92,89.12 188.75,96.25 189.59,93.78 190.43,71.32 191.26,89.54 192.10,92.99 192.93,80.35 193.77,79.61 194.60,68.55 195.43,94.94 196.26,92.00 197.10,87.15 197.93,85.31 198.77,74.82 199.60,96.35 200.44,93.55 201.27,88.67 202.10,87.27 202.93,82.22 203.77,98.79 204.60,94.20 205.44,89.77 206.27,91.50 207.11,87.96 207.94,99.73 208.78,94.86 209.61,90.43 210.44,88.82 211.28,78.47 212.11,100.01 212.95,93.48 213.78,87.86 214.62,83.84 215.45,74.49 216.28,100.86 217.11,94.73 217.95,87.69 218.78,87.37 219.62,79.02 220.45,101.41 221.29,93.80 222.12,89.62 222.95,89.52 223.78,84.04 224.62,103.04 225.45,93.32 226.29,89.59 227.12,91.67 227.96,82.13 228.79,101.44 229.63,91.29 230.46,91.50 231.29,94.77 232.13,87.31 232.96,100.43 233.80,90.49 234.63,91.68 235.47,94.22 236.30,83.33 237.13,101.56 237.96,90.97 238.80,86.47 239.63,93.75 240.47,71.96 241.30,101.90 242.14,94.39 242.97,85.82 243.80,88.86 244.63,65.97 245.47,100.94 246.30,96.20 247.14,81.10 247.97,86.12 248.81,71.33 249.65,98.37 250.48,94.25 251.31,80.59 252.14,81.84 252.98,75.21 253.81,97.57 254.65,93.57 255.48,81.49 256.32,81.01 257.15,69.34 257.98,99.56 258.81,93.03 259.65,84.25 260.48,80.71 261.32,68.52 262.15,99.55 262.99,91.59 263.82,83.82 264.66,74.21 265.48,73.18 266.32,96.21 267.15,89.55 267.99,78.89 268.83,89.15 269.66,87.97 270.50,79.40 271.33,98.41 272.16,92.27 272.99,89.38 273.83,83.95 274.66,77.73 275.50,94.04 276.33,95.96 277.17,82.60 278.00,77.43 278.83,97.87 279.66,91.63 280.50,94.83 281.33,92.75 282.17,91.59 283.00,90.02 283.84,87.40 284.67,97.19 285.51,88.42 286.33,90.61 287.17,91.35 288.01,83.59 288.84,98.24 289.68,91.01 290.51,90.06 291.35,91.36 292.18,84.14 293.01,98.05 293.84,91.23 294.68,91.89 295.51,90.29 296.35,84.48 297.18,97.31 298.02,88.88 298.85,92.49 299.68,88.11 300.51,87.30 301.35,98.27 302.18,86.88 303.02,91.48 303.85,87.80 304.69,92.38 305.52,93.74 306.36,88.62 307.18,87.74 308.02,84.14 308.86,93.51 309.69,92.59 310.53,84.53 311.36,89.31 312.20,80.44 313.03,91.07 313.86,91.96 314.69,85.30 315.53,82.78 316.36,81.20 317.20,96.72 318.03,89.39 318.87,85.06 319.70,79.73 320.54,76.11 321.36,98.35 322.20,89.41 323.03,86.96 323.87,81.74 324.70,73.78 325.54,97.70 326.37,89.09 327.21,89.83 328.04,87.03 328.87,87.46 329.71,92.99 330.54,91.20 331.38,89.95 332.21,82.57 333.05,96.82 333.88,91.69 334.71,88.84 335.54,82.53 336.38,81.44 337.21,92.26 338.05,94.59 338.88,91.30 339.72,84.30 340.55,84.33 341.39,90.43 342.21,89.04 343.05,91.15 343.88,88.05 344.72,85.87 345.55,86.00 346.39,90.31 347.23,89.94 348.06,86.53 348.89,87.24 349.72,82.39 350.56,78.31 351.39,92.31 352.23,88.36 353.06,87.32 353.90,82.83 354.73,85.37 355.57,89.30 356.39,92.88 357.23,92.12 358.06,85.54 358.90,84.28 359.73,86.14 360.57,82.23 361.40,89.65 362.24,88.15 363.06,90.79 363.90,81.37 364.73,79.48 365.57,90.77 366.41,92.15 367.24,90.25 368.08,85.94 368.91,84.12 369.74,87.31 370.57,91.11 371.41,89.74 372.24,89.04 373.08,90.59 373.91,80.15 374.75,78.36 375.58,92.84 376.42,92.05 377.24,89.53 378.08,85.63 378.91,87.88 379.75,86.60 380.58,88.90 381.42,89.47 382.25,89.70 383.09,90.76 383.92,80.23 384.75,78.78 385.58,95.02 386.42,90.19 387.26,88.64 388.09,86.08 388.93,85.49 389.76,84.60 390.59,91.77 391.42,91.12 392.26,86.93 393.09,89.05 393.93,83.40 394.76,77.91 395.60,91.90 396.43,92.07 397.27,86.40 398.09,84.11 398.93,92.94 399.76,84.94 400.60,89.51 401.43,93.49 402.27,85.98 403.10,87.19 403.94,84.18 404.77,80.32 405.60,90.01 406.44,93.43 407.27,85.64 408.11,84.23 408.94,93.70 409.78,86.97 410.61,92.91 411.45,93.34 412.27,87.56 413.11,85.62 413.94,84.57 414.78,79.19 415.61,91.06 416.45,90.03 417.28,88.40 418.12,81.15 418.95,76.72 419.78,93.94 420.61,88.81 421.45,88.42 422.28,84.05 423.12,85.31 423.95,84.45 424.79,94.82 425.62,93.14 426.45,89.28 427.29,88.87 428.12,79.31 428.96,74.27 429.79,94.37 430.63,88.70 431.46,89.61 432.30,87.92 433.12,83.61 433.96,81.36 434.79,90.91 435.63,89.80 436.46,90.67 437.30,90.22 438.13,79.98 438.97,88.18 439.80,86.20 440.63,88.84 441.46,92.46 442.30,92.26 443.13,88.39 443.97,81.71 444.81,77.59 445.64,88.52 446.47,94.09 447.30,92.90 448.14,90.25 448.97,86.78 449.81,89.67 450.64,86.21 451.48,86.28 452.31,93.80 453.15,91.77 453.97,92.58 454.81,87.46 455.64,88.75 456.48,82.29 457.31,88.53 458.15,90.56 458.98,92.71 459.82,92.38 460.65,90.54 461.48,86.41 462.31,83.21 463.15,86.35 463.98,87.39 464.82,93.10 465.66,90.70 466.49,93.21 467.33,83.62 468.15,89.34 468.99,82.80 469.82,80.02 470.66,90.92 471.49,90.20 472.33,87.99 473.16,86.00 474.00,86.61 474.83,79.74 475.66,80.50 476.49,91.55 477.33,89.54 478.16,89.78 479.00,85.66 479.83,86.72 480.67,80.14 481.50,81.31 482.33,92.69 483.16,90.02 484.00,89.60 484.84,85.06 485.67,89.41 486.51,80.62 487.34,87.44 488.18,93.50 489.00,91.12 489.84,89.59 490.67,87.74 491.51,84.42 492.34,83.42 493.18,91.66 494.01,91.98 494.85,90.64 495.68,86.45 496.51,86.40 497.34,78.13 498.18,86.50 499.01,90.11 499.85,95.76 500.68,91.01 501.52,87.01 502.35,85.48 503.18,88.46 504.02,79.90 504.85,88.23 505.69,94.54 506.52,89.15 507.36,91.30 508.19,87.36 509.03,89.07 509.85,78.98 510.69,89.81 511.52,89.09 512.36,90.12 513.19,93.25 514.03,84.80 514.86,77.08 515.70,78.26 516.53,92.80 517.36,88.36 518.19,91.55 519.03,92.78 519.86,83.82 520.70,78.22 521.53,74.93 522.37,87.16 523.21,91.02 524.03,91.99 524.87,92.50 525.70,84.71 526.54,85.84 527.37,74.52 528.21,85.53 529.04,93.13 529.88,91.79 530.71,91.48 531.54,85.57 532.37,87.29 533.21,73.66 534.04,86.78 534.88,92.40 535.71,89.62 536.55,91.14 537.38,87.33 538.21,89.29 539.04,76.59 539.88,82.76 540.71,91.71 541.55,89.12 542.38,89.86 543.22,92.21 544.06,86.18 544.88,86.37 545.72,79.50 546.55,91.25 547.39,92.09 548.22,93.14 549.06,92.71 549.89,83.56 550.73,91.16 551.56,72.21 552.39,90.61 553.22,95.15 554.06,92.98 554.89,93.37 555.73,86.04 556.56,91.78 557.40,68.52 558.23,85.84 559.06,92.19 559.89,93.52 560.73,89.01 561.56,90.96 562.40,84.10 563.24,69.58 564.07,81.07 564.91,93.18 565.74,91.51 566.57,88.13 567.40,94.68 568.24,80.71 569.07,70.38 569.91,82.06 570.74,90.94 571.58,92.65 572.41,90.29 573.24,91.50 574.07,78.38 574.91,87.66 575.74,70.71 576.58,91.42 577.41,91.32 578.25,97.18 579.08,88.81 579.91,82.66 580.74,90.24 581.58,78.71 582.42,87.38 583.25,92.84 584.09,98.04 584.92,84.17 585.76,87.34 586.59,88.96 587.42,65.41 588.25,91.63 589.09,92.46 589.92,85.82 590.76,89.52 591.59,76.21 592.43,100.63 593.26,78.79 594.09,87.66 594.92,92.69 595.76,83.34 596.59,97.22 597.43,87.53 598.26,68.44 599.10,92.62 599.93,96.73 600.76,87.49 601.60,97.38 602.43,67.80 603.27,73.43 604.10,93.21 604.94,95.17 605.77,88.60 606.61,85.65 607.44,75.78 608.27,98.48 609.10,87.34 609.94,92.53 610.77,96.40 611.61,89.15 612.44,70.66 613.28,100.73 614.11,93.36 614.94,90.23 615.77,93.46 616.61,101.06 617.44,68.67 618.28,67.05 619.11,98.31 619.95,92.79 620.78,84.89 621.62,95.38 622.45,81.30 623.28,93.25 624.12,91.11 624.95,94.03 625.79,89.07 626.62,92.77 627.46,78.79 628.29,72.39 629.12,92.47 629.95,91.44 630.79,84.69 631.62,99.22 632.46,86.16 633.29,71.10 634.13,95.94 634.96,97.91 635.79,86.37 636.62,86.31 637.46,85.52 638.29,76.11 639.13,91.71 639.96,88.90 640.80,83.39 641.64,99.90 642.47,89.09 643.30,59.79 644.13,97.25 644.97,101.09 645.80,81.17 646.64,77.21 647.47,94.86 648.31,86.57 649.14,89.45 649.97,94.84 650.80,83.70 651.64,87.82 652.47,85.83 653.31,67.10 654.14,93.26 654.98,96.21 655.81,81.87 656.64,75.58 657.47,103.32 658.31,88.67 659.14,90.46 659.98,96.31 660.82,92.35 661.65,78.79 662.49,74.27 663.32,93.01 664.15,89.43 664.98,81.51 665.82,90.38 666.65,94.58 667.49,80.74 668.32,98.41 669.16,90.91 669.99,81.49 670.82,80.21 671.65,101.43 672.49,87.26 673.32,92.62 674.16,94.89 674.99,92.78 675.83,75.18 676.66,75.93 677.50,91.61 678.32,90.74 679.16,82.88 680.00,100.81 680.83,91.48 681.67,57.93 682.50,97.10 683.34,101.74 684.17,81.32 685.00,71.67 685.83,92.47 686.67,88.69 687.50,89.58 688.34,94.98 689.17,86.23 690.01,84.04 690.84,82.76 691.67,76.72 692.50,95.95 693.34,93.11 694.17,80.12 695.01,82.02 695.84,93.32 696.68,89.21 697.51,94.10 698.35,84.41 699.17,71.48 700.01,96.72 700.85,91.58 701.68,92.11 702.52,101.56 703.35,97.43 704.19,66.18 705.02,67.71 705.85,94.76 706.68,89.73 707.52,82.23 708.35,106.07 709.19,91.29 710.02,64.81 710.86,97.24 711.69,92.40 712.52,93.39 713.35,80.51 714.19,70.97 715.02,95.86 715.86,97.22 716.69,89.36 717.53,67.70 718.36,65.63 719.20,97.57 720.03,91.16 720.86,80.76 721.70,98.28 722.53,92.79 723.37,54.02 724.20,96.91 725.04,101.94 725.87,73.37 726.70,76.64 727.53,106.86 728.37,84.10 729.20,89.85 730.04,97.44 730.87,91.85 731.71,74.26 732.54,71.40 733.38,92.29 734.20,89.19 735.04,84.18 735.87,103.67 736.71,93.15 737.54,57.01 738.38,95.49 739.22,98.97 740.05,82.13 740.88,74.07 741.71,100.65 742.55,82.48 743.38,89.56 744.22,99.24 745.05,91.97 745.89,67.40 746.72,71.38 747.55,92.82 748.38,90.08 749.22,82.62 750.05,83.97 750.89,80.21 751.72,88.88 752.56,97.09 753.39,85.88 754.23,92.39 755.05,90.75 755.89,58.42 756.72,95.34 757.56,104.86 758.40,78.60 759.23,79.10 760.07,105.87 760.90,87.09 761.73,87.09 762.56,97.00 763.40,89.56 764.23,80.91 765.07,73.32 765.90,92.90 766.74,84.94 767.57,83.76 768.41,91.84 769.23,86.63 770.07,71.85 770.90,96.57 771.74,88.16 772.57,78.44 773.41,83.61 774.24,106.80 775.08,86.35 775.91,91.72 776.74,96.96 777.57,92.88 778.41,70.77 779.25,68.91 780.08,95.02 780.92,91.16 781.75,84.40 782.58,97.39 783.41,91.14 784.25,66.46 785.08,95.86 785.92,103.56 786.75,84.93 787.59,72.25 788.42,92.28 789.26,87.99 790.08,90.29 790.92,95.59 791.75,89.30 792.59,78.15 793.42,73.02 794.26,88.77 795.09,98.18 795.93,86.55 796.76,77.87 797.59,84.93 798.43,101.61 799.26,90.87 800.10,95.60 800.93,91.43 801.77,81.60 802.60,83.39 803.43,86.18 804.26,87.95 805.10,87.18 805.93,83.77 806.77,98.38 807.60,87.26 808.44,66.60 809.27,96.94 810.11,92.35 810.93,78.87 811.77,83.11 812.60,107.17 813.44,86.36 814.27,95.43 815.11,89.33 815.94,76.75 816.78,83.45 817.61,92.05 818.44,89.61 819.28,91.96 820.11,88.63 820.95,80.23 821.78,68.13 822.62,93.44 823.45,97.59 824.29,85.59 825.11,81.46 825.95,89.75 826.78,69.04 827.62,94.07 828.45,106.09 829.29,84.41 830.12,71.30 830.96,94.38 831.79,88.00 832.62,88.00 833.45,102.30 834.29,99.16 835.12,67.18 835.96,66.84 836.80,99.18 837.63,88.90 838.46,84.47 839.29,106.83 840.13,94.20 840.96,53.00 841.80,96.19 842.63,95.73 843.47,77.70 844.30,81.46 845.14,113.00 845.96,84.32 846.80,90.70 847.63,92.22 848.47,77.15 849.30,84.01 850.14,94.94 850.97,89.41 851.81,95.54 852.64,97.37 853.47,67.19 854.30,64.19 855.14,100.03 855.97,91.59 856.81,83.06 857.65,97.68 858.48,94.93 859.31,54.06 860.14,96.28 860.98,101.51 861.81,80.04 862.65,77.10 863.48,107.32 864.32,83.69 865.15,87.78 865.99,99.11 866.81,91.67 867.65,74.54 868.48,85.72 869.32,93.05 870.15,85.24 870.99,82.95 871.82,90.57 872.66,83.32 873.49,80.37 874.32,97.55 875.15,86.37 875.99,76.61 876.83,85.37 877.66,86.19 878.50,94.15 879.33,100.38 880.17,87.72 880.99,72.83 881.83,89.28 882.66,91.82 883.50,90.42 884.33,98.32 885.17,95.52 886.00,67.38 886.84,68.33 887.67,94.33 888.50,96.89 889.33,85.05 890.17,83.79 891.00,86.87 891.84,87.60 892.67,93.24 893.51,97.89 894.34,86.55 895.17,79.82 896.01,82.73 896.84,75.97 897.68,90.39 898.51,91.16 899.35,84.02 900.18,96.92 901.02,90.77 901.84,67.81 902.68,92.49 903.51,100.21 904.35,84.93 905.18,81.94 906.02,86.43 906.85,76.75 907.69,92.36 908.52,89.98 909.35,82.60 910.18,95.84 911.02,95.52 911.85,61.75 912.69,92.95 913.52,94.13 914.36,85.87 915.20,81.23 916.02,92.41 916.86,85.75 917.69,89.59 918.53,92.84 919.36,84.67 920.20,91.03 921.03,93.75 921.87,64.61 922.70,91.24 923.53,99.61 924.36,88.18 925.20,78.12 926.03,89.53 926.87,84.67 927.70,90.34 928.54,91.70 929.37,81.93 930.20,94.53 931.03,94.57 931.87,63.88 932.70,91.90 933.54,98.62 934.37,87.96 935.21,79.07 936.05,86.97 936.87,86.66 937.71,91.51 938.54,92.60 939.38,81.35 940.21,95.26 941.05,94.83 941.88,62.18 942.72,92.50 943.55,97.53 944.38,87.31 945.21,79.78 946.05,89.14 946.88,83.28 947.72,92.06 948.55,92.69 949.39,80.44 950.22,95.32 951.05,97.20 951.88,58.75 952.72,93.84 953.55,93.82 954.39,78.78 955.23,76.40 956.06,107.33 956.90,87.62 957.72,89.41 958.56,93.90 959.39,90.11 960.23,81.95 961.06,77.22 961.90,92.60 962.73,88.74 963.57,81.41 964.40,78.66 965.23,84.13 966.06,93.05 966.90,95.59 967.73,85.20 968.57,94.51 969.40,92.32 970.24,62.18 971.07,94.23 971.90,102.45 972.73,85.31 973.57,76.32 974.41,94.61 975.24,86.81 976.08,89.25 976.91,97.47 977.75,90.67 978.58,78.35 979.41,84.81 980.24,69.26 981.08,91.21 981.91,92.17 982.75,85.99 983.58,80.59 984.42,88.71 985.25,86.95 986.08,90.69 986.91,93.24 987.75,83.93 988.58,92.42 989.42,88.63 990.25,70.32 991.09,92.03 991.92,95.71 992.75,82.50 993.59,93.08 994.42,91.15 995.26,69.12 996.09,92.14 996.93,96.63 997.76,83.07 998.60,87.88 999.43,82.55 1000.26,72.67 1001.09,93.18 1001.93,94.62 1002.76,78.96 1003.60,84.56 1004.43,96.77 1005.27,91.35 1006.10,91.49 1006.93,91.07 1007.76,85.21 1008.60,84.52 1009.43,69.95 1010.27,93.25 1011.10,96.09 1011.94,84.62 1012.77,82.25 1013.60,94.50 1014.44,73.34 1015.27,89.59 1016.11,97.74 1016.94,79.78 1017.78,82.10 1018.61,100.76 1019.45,88.84 1020.28,89.55 1021.11,92.57 1021.94,84.19 1022.78,83.50 1023.61,72.15 1024.45,92.14 1025.28,92.75 1026.12,88.37 1026.95,79.32 1027.78,94.36 1028.61,91.36 1029.45,91.45 1030.28,85.61 1031.12,94.98 1031.95,81.12 1032.79,85.53 1033.63,93.45 1034.46,91.65 1035.29,85.87 1036.12,94.96 1036.96,83.97 1037.79,77.24 1038.63,93.11 1039.46,93.44 1040.30,85.21 1041.13,93.63 1041.96,85.54 1042.79,74.97 1043.63,91.70 1044.46,91.93 1045.30,84.81 1046.13,92.53 1046.97,87.83 1047.80,72.00 1048.63,91.50 1049.46,94.65 1050.30,83.87 1051.13,79.64 1051.97,91.59 1052.81,89.73 1053.64,90.45 1054.48,85.56 1055.31,82.78 1056.14,86.58 1056.97,90.66 1057.81,90.37 1058.64,87.87 1059.48,89.27 1060.31,86.36 1061.15,80.63 1061.98,87.58 1062.81,89.37 1063.64,88.72 1064.48,86.75 1065.31,86.75 1066.15,85.57 1066.98,87.54 1067.82,88.17 1068.65,88.89 1069.48,87.29 1070.31,88.50 1071.15,86.72 1071.99,87.50" fill="none" stroke="#444" stroke-width="1.0" />
<text x="18" y="212.5" font-family="Arial" font-size="12" fill="#444">Voiced probability</text>
<line x1="72" y1="255" x2="1072" y2="255" stroke="#ddd" />
<rect x="72" y="170" width="1000" height="85" fill="none" stroke="#eee" />
<polyline points="72.00,206.39 73.44,216.75 74.88,220.47 76.33,221.32 77.77,217.44 79.21,212.63 80.65,208.13 82.10,210.50 83.54,212.27 84.98,212.71 86.42,211.14 87.87,209.89 89.31,209.42 90.75,210.37 92.19,209.55 93.63,207.64 95.08,206.15 96.52,206.85 97.96,207.47 99.40,207.46 100.85,206.31 102.29,205.51 103.73,205.61 105.17,206.71 106.62,205.87 108.06,206.53 109.50,206.51 110.94,205.46 112.38,205.93 113.83,206.83 115.27,206.15 116.71,205.82 118.15,206.07 119.60,204.98 121.04,204.89 122.48,204.03 123.92,204.99 125.37,205.29 126.81,206.44 128.25,205.45 129.69,204.37 131.13,204.47 132.58,203.42 134.02,205.20 135.46,204.16 136.90,203.80 138.35,205.37 139.79,205.73 141.23,208.29 142.67,206.83 144.11,206.04 145.56,208.48 147.00,208.41 148.44,207.44 149.88,207.85 151.33,207.02 152.77,207.80 154.21,207.20 155.65,207.53 157.10,210.25 158.54,210.44 159.98,209.70 161.42,207.81 162.86,206.75 164.31,205.93 165.75,205.53 167.19,206.72 168.63,205.26 170.08,206.78 171.52,206.84 172.96,208.23 174.40,211.20 175.85,212.61 177.29,209.20 178.73,204.27 180.17,202.51 181.61,201.45 183.06,200.76 184.50,199.92 185.94,195.66 187.38,189.97 188.83,187.45 190.27,184.79 191.71,183.05 193.15,181.15 194.60,180.36 196.04,179.93 197.48,179.22 198.92,179.23 200.36,179.61 201.81,180.29 203.25,181.52 204.69,181.38 206.13,180.98 207.58,180.38 209.02,180.34 210.46,180.70 211.90,180.78 213.35,180.19 214.79,180.41 216.23,180.80 217.67,181.16 219.11,181.81 220.56,182.17 222.00,182.45 223.44,183.43 224.88,183.96 226.33,184.03 227.77,183.77 229.21,183.74 230.65,183.29 232.10,182.39 233.54,182.17 234.98,182.18 236.42,182.11 237.86,182.65 239.31,183.05 240.75,184.06 242.19,184.19 243.63,184.39 245.08,184.51 246.52,184.61 247.96,184.46 249.40,184.29 250.85,183.72 252.29,183.31 253.73,183.19 255.17,183.28 256.61,183.57 258.06,183.30 259.50,182.78 260.94,182.27 262.38,181.66 263.83,180.87 265.27,180.34 266.71,180.90 268.15,181.65 269.59,182.65 271.04,183.15 272.48,183.44 273.92,183.64 275.36,183.70 276.81,183.19 278.25,181.68 279.69,180.95 281.13,180.62 282.58,181.12 284.02,181.44 285.46,181.89 286.90,181.93 288.34,182.48 289.79,183.04 291.23,183.14 292.67,183.17 294.11,182.59 295.56,181.91 297.00,181.72 298.44,181.76 299.88,181.64 301.33,181.64 302.77,181.53 304.21,181.19 305.65,181.02 307.09,180.83 308.54,181.03 309.98,180.90 311.42,181.31 312.86,181.37 314.31,181.14 315.75,181.31 317.19,181.11 318.63,180.86 320.08,180.87 321.52,180.70 322.96,180.66 324.40,181.09 325.84,181.82 327.29,182.37 328.73,183.47 330.17,184.80 331.61,184.29 333.06,185.52 334.50,186.89 335.94,188.70 337.38,190.56 338.83,192.53 340.27,194.85 341.71,196.85 343.15,197.23 344.59,196.65 346.04,195.65 347.48,194.55 348.92,193.38 350.36,193.65 351.81,193.72 353.25,193.82 354.69,196.18 356.13,197.45 357.58,196.74 359.02,194.92 360.46,194.44 361.90,195.32 363.34,194.90 364.79,194.22 366.23,194.86 367.67,195.32 369.11,197.29 370.56,196.34 372.00,196.48 373.44,197.74 374.88,198.47 376.33,199.02 377.77,197.92 379.21,198.08 380.65,200.67 382.09,200.86 383.54,202.13 384.98,201.33 386.42,200.86 387.86,199.83 389.31,199.94 390.75,200.87 392.19,201.73 393.63,203.65 395.07,204.75 396.52,201.25 397.96,200.18 399.40,199.17 400.84,198.68 402.29,196.42 403.73,195.73 405.17,195.36 406.61,195.19 408.06,194.75 409.50,194.88 410.94,194.58 412.38,193.89 413.82,193.57 415.27,192.79 416.71,193.55 418.15,193.13 419.59,193.38 421.04,194.16 422.48,195.71 423.92,196.05 425.36,196.15 426.81,195.51 428.25,195.83 429.69,196.30 431.13,196.67 432.57,196.44 434.02,195.55 435.46,195.13 436.90,194.39 438.34,194.29 439.79,193.94 441.23,194.33 442.67,195.46 444.11,196.99 445.56,199.74 447.00,202.08 448.44,202.89 449.88,203.36 451.32,204.55 452.77,204.83 454.21,204.95 455.65,205.36 457.09,205.49 458.54,205.49 459.98,205.11 461.42,204.72 462.86,205.00 464.31,206.10 465.75,206.33 467.19,205.61 468.63,202.99 470.07,200.36 471.52,199.38 472.96,199.57 474.40,200.64 475.84,202.65 477.29,202.13 478.73,201.11 480.17,200.26 481.61,199.43 483.06,200.05 484.50,200.03 485.94,199.95 487.38,199.56 488.82,198.95 490.27,198.29 491.71,197.44 493.15,197.86 494.59,197.77 496.04,197.13 497.48,197.42 498.92,197.41 500.36,196.16 501.81,195.86 503.25,194.22 504.69,192.26 506.13,190.42 507.57,190.74 509.02,189.32 510.46,190.01 511.90,191.50 513.34,191.84 514.79,190.37 516.23,188.83 517.67,187.72 519.11,187.03 520.55,186.58 522.00,185.74 523.44,185.42 524.88,185.28 526.32,184.89 527.77,184.68 529.21,184.09 530.65,183.25 532.09,183.77 533.54,185.05 534.98,185.96 536.42,186.58 537.86,188.06 539.30,187.48 540.75,187.64 542.19,187.91 543.63,188.80 545.07,190.36 546.52,191.56 547.96,193.03 549.40,192.76 550.84,191.35 552.29,191.42 553.73,190.50 555.17,189.71 556.61,189.43 558.05,188.79 559.50,189.24 560.94,188.52 562.38,189.27 563.82,188.37 565.27,188.31 566.71,188.94 568.15,190.04 569.59,188.63 571.04,187.78 572.48,188.16 573.92,189.47 575.36,191.09 576.80,192.04 578.25,190.82 579.69,188.53 581.13,188.26 582.57,188.21 584.02,188.49 585.46,189.49 586.90,189.97 588.34,190.62 589.79,190.57 591.23,189.94 592.67,190.95 594.11,191.85 595.55,191.13 597.00,191.73 598.44,191.29 599.88,190.51 601.32,192.26 602.77,193.46 604.21,194.72 605.65,195.19 607.09,194.49 608.54,192.75 609.98,192.74 611.42,191.56 612.86,191.94 614.30,192.40 615.75,193.92 617.19,194.87 618.63,195.91 620.07,197.66 621.52,199.36 622.96,200.66 624.40,201.70 625.84,202.45 627.29,201.64 628.73,201.93 630.17,202.26 631.61,201.14 633.05,201.41 634.50,201.05 635.94,200.77 637.38,201.46 638.82,201.43 640.27,201.78 641.71,200.98 643.15,200.40 644.59,200.76 646.04,202.28 647.48,202.51 648.92,202.59 650.36,202.08 651.80,201.45 653.25,199.95 654.69,198.46 656.13,197.94 657.57,198.41 659.02,199.82 660.46,200.15 661.90,200.88 663.34,201.58 664.78,201.11 666.23,201.27 667.67,200.85 669.11,201.10 670.55,201.92 672.00,202.71 673.44,202.42 674.88,202.13 676.32,202.60 677.77,202.45 679.21,203.21 680.65,204.11 682.09,204.38 683.53,204.39 684.98,203.89 686.42,204.10 687.86,203.20 689.30,201.83 690.75,200.58 692.19,200.55 693.63,200.53 695.07,200.67 696.52,200.12 697.96,199.20 699.40,197.66 700.84,197.87 702.28,198.26 703.73,199.20 705.17,199.67 706.61,201.08 708.05,201.35 709.50,200.41 710.94,199.18 712.38,196.87 713.82,195.02 715.27,193.09 716.71,191.82 718.15,190.64 719.59,192.09 721.03,193.39 722.48,194.50 723.92,195.66 725.36,194.96 726.80,195.76 728.25,195.79 729.69,196.11 731.13,196.28 732.57,196.73 734.02,196.94 735.46,197.33 736.90,197.10 738.34,196.43 739.78,194.47 741.23,192.67 742.67,192.62 744.11,193.93 745.55,193.91 747.00,194.13 748.44,192.53 749.88,191.75 751.32,190.81 752.77,189.43 754.21,189.29 755.65,189.66 757.09,190.22 758.53,191.10 759.98,191.71 761.42,192.93 762.86,193.60 764.30,194.54 765.75,196.42 767.19,197.18 768.63,197.85 770.07,197.18 771.52,197.30 772.96,197.36 774.40,197.20 775.84,196.87 777.28,197.19 778.73,197.15 780.17,197.57 781.61,198.68 783.05,199.11 784.50,200.03 785.94,200.27 787.38,199.60 788.82,198.99 790.26,198.39 791.71,197.17 793.15,197.93 794.59,198.07 796.03,197.94 797.48,197.14 798.92,197.45 800.36,197.17 801.80,196.21 803.25,196.43 804.69,196.91 806.13,197.53 807.57,197.30 809.01,196.44 810.46,196.17 811.90,195.82 813.34,195.44 814.78,195.13 816.23,194.96 817.67,194.29 819.11,194.07 820.55,194.13 822.00,192.96 823.44,192.51 824.88,192.41 826.32,192.95 827.76,193.91 829.21,194.50 830.65,195.22 832.09,195.42 833.53,197.07 834.98,197.77 836.42,197.85 837.86,197.13 839.30,196.63 840.75,196.56 842.19,195.98 843.63,195.15 845.07,195.24 846.51,194.40 847.96,193.86 849.40,193.89 850.84,194.08 852.28,193.71 853.73,193.48 855.17,194.12 856.61,193.64 858.05,194.10 859.50,194.48 860.94,194.85 862.38,194.63 863.82,195.13 865.26,195.80 866.71,196.10 868.15,196.50 869.59,196.96 871.03,197.51 872.48,197.25 873.92,196.65 875.36,196.54 876.80,196.70 878.25,197.35 879.69,197.39 881.13,197.31 882.57,196.95 884.01,197.38 885.46,197.76 886.90,197.57 888.34,198.04 889.78,198.30 891.23,198.32 892.67,198.42 894.11,198.68 895.55,199.32 897.00,198.99 898.44,199.71 899.88,200.70 901.32,200.91 902.76,201.95 904.21,202.70 905.65,204.45 907.09,204.18 908.53,204.21 909.98,204.35 911.42,203.91 912.86,203.90 914.30,203.55 915.74,203.04 917.19,203.19 918.63,203.61 920.07,203.34 921.51,203.54 922.96,203.70 924.40,203.68 925.84,203.23 927.28,202.98 928.73,203.51 930.17,203.87 931.61,204.16 933.05,204.46 934.49,204.24 935.94,204.40 937.38,204.46 938.82,204.46 940.26,204.21 941.71,204.32 943.15,204.23 944.59,204.63 946.03,205.35 947.48,204.68 948.92,205.33 950.36,205.04 951.80,205.08 953.24,205.04 954.69,205.18 956.13,204.57 957.57,205.38 959.01,205.13 960.46,204.81 961.90,204.21 963.34,204.10 964.78,203.28 966.23,201.88 967.67,202.52 969.11,202.60 970.55,201.52 971.99,201.10 973.44,200.25 974.88,199.95 976.32,200.00 977.76,200.99 979.21,202.21 980.65,202.13 982.09,202.38 983.53,202.93 984.98,203.75 986.42,204.38 987.86,204.16 989.30,204.21 990.74,203.63 992.19,203.07 993.63,204.39 995.07,203.65 996.51,201.95 997.96,201.82 999.40,201.60 1000.84,200.92 1002.28,201.03 1003.73,201.44 1005.17,201.47 1006.61,202.57 1008.05,203.50 1009.49,202.36 1010.94,200.88 1012.38,198.34 1013.82,196.66 1015.26,195.21 1016.71,193.97 1018.15,194.46 1019.59,194.31 1021.03,194.94 1022.48,195.45 1023.92,195.16 1025.36,194.40 1026.80,194.62 1028.24,194.11 1029.69,194.57 1031.13,196.17 1032.57,196.35 1034.01,196.45 1035.46,195.70 1036.90,195.75 1038.34,195.22 1039.78,194.73 1041.22,194.99 1042.67,194.14 1044.11,194.52 1045.55,194.68 1046.99,195.61 1048.44,195.47 1049.88,194.24 1051.32,193.80 1052.76,192.51 1054.21,189.66 1055.65,188.87 1057.09,188.21 1058.53,188.66 1059.97,190.89 1061.42,192.51 1062.86,194.02 1064.30,192.67 1065.74,194.50 1067.19,197.09 1068.63,199.10 1070.07,200.93 1071.51,203.18" fill="none" stroke="#2563eb" stroke-width="1.4" />
<line x1="72" y1="229.50" x2="1072" y2="229.50" stroke="#bbb" stroke-dasharray="4 4" />
<text x="1076" y="233.50" font-family="Arial" font-size="10" fill="#666">0.3</text>
<line x1="72" y1="212.50" x2="1072" y2="212.50" stroke="#bbb" stroke-dasharray="4 4" />
<text x="1076" y="216.50" font-family="Arial" font-size="10" fill="#666">0.5</text>
<line x1="72" y1="195.50" x2="1072" y2="195.50" stroke="#bbb" stroke-dasharray="4 4" />
<text x="1076" y="199.50" font-family="Arial" font-size="10" fill="#666">0.7</text>
<line x1="72" y1="178.50" x2="1072" y2="178.50" stroke="#bbb" stroke-dasharray="4 4" />
<text x="1076" y="182.50" font-family="Arial" font-size="10" fill="#666">0.9</text>
<text x="18" y="342.5" font-family="Arial" font-size="12" fill="#444">Pitch confidence</text>
<line x1="72" y1="385" x2="1072" y2="385" stroke="#ddd" />
<rect x="72" y="300" width="1000" height="85" fill="none" stroke="#eee" />
<polyline points="72.00,382.44 73.44,379.80 74.88,376.73 76.33,376.46 77.77,375.85 79.21,377.37 80.65,378.47 82.10,377.37 83.54,377.46 84.98,376.86 86.42,376.28 87.87,375.62 89.31,376.50 90.75,375.57 92.19,376.02 93.63,378.66 95.08,379.69 96.52,379.55 97.96,378.64 99.40,375.67 100.85,374.51 102.29,374.93 103.73,374.81 105.17,374.47 106.62,374.79 108.06,373.91 109.50,372.76 110.94,372.75 112.38,373.22 113.83,375.20 115.27,378.01 116.71,376.38 118.15,372.67 119.60,372.10 121.04,371.26 122.48,370.16 123.92,369.43 125.37,367.66 126.81,368.12 128.25,370.62 129.69,372.15 131.13,373.96 132.58,370.46 134.02,370.51 135.46,371.27 136.90,372.40 138.35,373.60 139.79,373.57 141.23,372.32 142.67,369.58 144.11,368.90 145.56,368.62 147.00,368.43 148.44,369.17 149.88,368.72 151.33,370.18 152.77,372.03 154.21,373.86 155.65,373.25 157.10,372.58 158.54,372.43 159.98,372.45 161.42,371.73 162.86,370.57 164.31,370.71 165.75,371.39 167.19,370.98 168.63,371.86 170.08,372.86 171.52,371.88 172.96,371.75 174.40,373.07 175.85,378.23 177.29,377.32 178.73,376.06 180.17,371.80 181.61,369.43 183.06,373.12 184.50,378.43 185.94,372.85 187.38,374.09 188.83,370.19 190.27,367.30 191.71,362.17 193.15,357.17 194.60,353.44 196.04,352.58 197.48,352.22 198.92,352.38 200.36,352.22 201.81,352.88 203.25,353.07 204.69,353.69 206.13,353.94 207.58,354.14 209.02,355.40 210.46,356.34 211.90,356.42 213.35,355.96 214.79,354.71 216.23,354.50 217.67,355.88 219.11,355.78 220.56,355.22 222.00,355.18 223.44,354.77 224.88,353.87 226.33,352.93 227.77,353.23 229.21,353.51 230.65,353.70 232.10,353.45 233.54,353.05 234.98,352.55 236.42,351.12 237.86,350.04 239.31,349.80 240.75,348.70 242.19,349.09 243.63,348.96 245.08,348.87 246.52,349.62 247.96,350.27 249.40,350.74 250.85,351.03 252.29,351.01 253.73,350.46 255.17,349.83 256.61,350.59 258.06,350.98 259.50,351.04 260.94,350.87 262.38,350.99 263.83,350.96 265.27,350.84 266.71,351.73 268.15,352.79 269.59,355.61 271.04,356.55 272.48,355.58 273.92,354.48 275.36,354.06 276.81,353.55 278.25,352.79 279.69,352.78 281.13,354.57 282.58,353.51 284.02,351.85 285.46,351.89 286.90,351.80 288.34,350.81 289.79,350.78 291.23,350.32 292.67,350.43 294.11,350.54 295.56,351.09 297.00,352.05 298.44,352.90 299.88,353.47 301.33,353.82 302.77,354.18 304.21,353.71 305.65,352.95 307.09,353.23 308.54,353.13 309.98,353.17 311.42,353.25 312.86,352.81 314.31,352.87 315.75,353.84 317.19,353.75 318.63,354.55 320.08,354.26 321.52,353.86 322.96,354.19 324.40,354.84 325.84,355.31 327.29,356.08 328.73,355.49 330.17,355.19 331.61,355.12 333.06,356.50 334.50,357.66 335.94,359.25 337.38,361.45 338.83,365.17 340.27,369.58 341.71,369.97 343.15,368.06 344.59,366.53 346.04,366.06 347.48,364.58 348.92,365.03 350.36,363.74 351.81,364.76 353.25,364.45 354.69,364.63 356.13,365.15 357.58,365.35 359.02,364.88 360.46,365.24 361.90,366.15 363.34,368.47 364.79,366.99 366.23,366.63 367.67,364.78 369.11,363.94 370.56,366.09 372.00,367.69 373.44,368.30 374.88,368.13 376.33,368.82 377.77,368.44 379.21,368.30 380.65,369.18 382.09,369.96 383.54,371.34 384.98,371.80 386.42,370.65 387.86,370.38 389.31,369.83 390.75,369.74 392.19,370.30 393.63,370.37 395.07,370.25 396.52,369.47 397.96,366.91 399.40,365.04 400.84,365.26 402.29,364.46 403.73,363.91 405.17,362.22 406.61,359.94 408.06,358.21 409.50,357.30 410.94,356.24 412.38,357.80 413.82,358.77 415.27,357.66 416.71,357.56 418.15,357.42 419.59,356.54 421.04,354.90 422.48,353.35 423.92,353.69 425.36,356.48 426.81,359.79 428.25,361.49 429.69,363.56 431.13,365.15 432.57,364.36 434.02,362.75 435.46,362.87 436.90,362.50 438.34,363.04 439.79,363.23 441.23,363.61 442.67,364.38 444.11,364.53 445.56,365.96 447.00,366.50 448.44,366.74 449.88,366.84 451.32,365.47 452.77,364.60 454.21,364.45 455.65,364.23 457.09,363.13 458.54,362.43 459.98,362.62 461.42,362.59 462.86,363.82 464.31,362.79 465.75,362.16 467.19,360.18 468.63,359.92 470.07,361.18 471.52,361.77 472.96,362.22 474.40,363.24 475.84,361.28 477.29,360.32 478.73,360.47 480.17,360.09 481.61,361.14 483.06,361.18 484.50,361.85 485.94,361.91 487.38,359.77 488.82,361.53 490.27,365.45 491.71,367.26 493.15,367.43 494.59,367.70 496.04,368.11 497.48,369.31 498.92,369.79 500.36,369.17 501.81,367.19 503.25,366.31 504.69,366.55 506.13,366.84 507.57,368.88 509.02,370.31 510.46,370.89 511.90,371.25 513.34,370.04 514.79,369.57 516.23,370.44 517.67,369.57 519.11,367.97 520.55,366.26 522.00,363.34 523.44,363.95 524.88,361.37 526.32,360.90 527.77,359.99 529.21,359.56 530.65,359.32 532.09,360.87 533.54,362.26 534.98,366.40 536.42,365.15 537.86,366.01 539.30,364.83 540.75,365.88 542.19,367.87 543.63,369.29 545.07,372.79 546.52,371.95 547.96,373.70 549.40,374.53 550.84,372.99 552.29,372.77 553.73,371.49 555.17,370.61 556.61,369.31 558.05,367.47 559.50,366.24 560.94,365.78 562.38,364.89 563.82,363.78 565.27,364.48 566.71,365.71 568.15,365.42 569.59,363.60 571.04,363.83 572.48,365.29 573.92,367.42 575.36,369.37 576.80,369.91 578.25,367.56 579.69,365.21 581.13,362.63 582.57,362.45 584.02,363.31 585.46,362.70 586.90,361.64 588.34,361.03 589.79,360.80 591.23,360.24 592.67,359.27 594.11,359.24 595.55,359.45 597.00,360.18 598.44,361.81 599.88,362.95 601.32,364.05 602.77,367.25 604.21,368.48 605.65,368.91 607.09,368.56 608.54,367.17 609.98,366.08 611.42,365.57 612.86,366.23 614.30,366.83 615.75,368.95 617.19,369.32 618.63,369.89 620.07,369.83 621.52,367.04 622.96,364.56 624.40,365.32 625.84,367.32 627.29,367.95 628.73,368.89 630.17,368.27 631.61,366.17 633.05,364.62 634.50,363.94 635.94,362.12 637.38,361.55 638.82,362.62 640.27,364.74 641.71,366.05 643.15,366.77 644.59,367.91 646.04,369.62 647.48,371.23 648.92,372.35 650.36,372.82 651.80,372.73 653.25,372.07 654.69,371.06 656.13,371.59 657.57,371.37 659.02,372.15 660.46,371.81 661.90,371.61 663.34,371.52 664.78,372.30 666.23,372.64 667.67,372.64 669.11,371.93 670.55,371.92 672.00,372.48 673.44,372.61 674.88,372.68 676.32,372.58 677.77,372.06 679.21,372.40 680.65,372.44 682.09,372.36 683.53,372.11 684.98,372.42 686.42,372.60 687.86,372.80 689.30,372.88 690.75,373.05 692.19,372.64 693.63,371.86 695.07,371.89 696.52,373.38 697.96,374.24 699.40,373.58 700.84,374.12 702.28,375.26 703.73,376.07 705.17,377.22 706.61,377.91 708.05,377.06 709.50,376.92 710.94,378.22 712.38,377.85 713.82,376.34 715.27,375.62 716.71,375.53 718.15,375.32 719.59,375.88 721.03,376.59 722.48,377.32 723.92,376.74 725.36,375.32 726.80,374.06 728.25,373.96 729.69,373.83 731.13,373.29 732.57,372.90 734.02,372.73 735.46,372.98 736.90,373.46 738.34,372.47 739.78,371.98 741.23,371.34 742.67,371.15 744.11,372.92 745.55,371.88 747.00,372.29 748.44,369.89 749.88,371.15 751.32,371.28 752.77,371.50 754.21,371.18 755.65,371.38 757.09,370.48 758.53,371.32 759.98,371.27 761.42,371.27 762.86,371.02 764.30,371.37 765.75,372.12 767.19,372.22 768.63,373.07 770.07,372.03 771.52,374.01 772.96,373.90 774.40,373.78 775.84,373.40 777.28,373.84 778.73,374.22 780.17,373.64 781.61,372.71 783.05,372.34 784.50,372.28 785.94,372.93 787.38,373.07 788.82,372.48 790.26,372.98 791.71,372.10 793.15,372.58 794.59,371.41 796.03,371.45 797.48,371.39 798.92,371.78 800.36,372.83 801.80,372.61 803.25,371.77 804.69,371.25 806.13,372.30 807.57,371.86 809.01,371.29 810.46,371.72 811.90,372.73 813.34,373.52 814.78,372.60 816.23,373.16 817.67,372.69 819.11,371.53 820.55,370.68 822.00,370.52 823.44,369.53 824.88,370.65 826.32,370.88 827.76,370.52 829.21,372.19 830.65,373.22 832.09,373.75 833.53,373.98 834.98,373.61 836.42,373.22 837.86,373.78 839.30,374.60 840.75,373.36 842.19,372.68 843.63,372.60 845.07,371.48 846.51,370.74 847.96,371.62 849.40,371.57 850.84,370.71 852.28,371.00 853.73,372.33 855.17,373.27 856.61,373.36 858.05,372.58 859.50,372.40 860.94,372.46 862.38,372.23 863.82,372.31 865.26,373.23 866.71,373.66 868.15,373.04 869.59,373.14 871.03,372.51 872.48,372.46 873.92,372.64 875.36,373.39 876.80,373.61 878.25,373.82 879.69,373.18 881.13,373.96 882.57,373.20 884.01,373.42 885.46,373.63 886.90,373.52 888.34,373.37 889.78,373.75 891.23,373.19 892.67,372.92 894.11,373.43 895.55,372.99 897.00,371.64 898.44,369.81 899.88,368.67 901.32,368.74 902.76,368.41 904.21,367.44 905.65,368.14 907.09,367.69 908.53,367.62 909.98,368.09 911.42,368.74 912.86,368.44 914.30,368.34 915.74,368.88 917.19,368.13 918.63,368.36 920.07,368.55 921.51,368.19 922.96,367.33 924.40,366.18 925.84,366.33 927.28,365.82 928.73,365.57 930.17,365.80 931.61,365.54 933.05,366.35 934.49,366.12 935.94,367.42 937.38,367.70 938.82,367.75 940.26,368.10 941.71,367.93 943.15,367.46 944.59,367.40 946.03,366.91 947.48,366.46 948.92,367.17 950.36,368.21 951.80,368.32 953.24,367.53 954.69,367.60 956.13,369.24 957.57,369.64 959.01,370.41 960.46,369.90 961.90,369.28 963.34,369.21 964.78,370.10 966.23,371.35 967.67,370.29 969.11,368.24 970.55,366.93 971.99,365.31 973.44,364.02 974.88,365.35 976.32,366.48 977.76,365.94 979.21,369.57 980.65,368.25 982.09,368.20 983.53,368.44 984.98,369.16 986.42,370.18 987.86,371.09 989.30,370.89 990.74,371.03 992.19,370.51 993.63,371.74 995.07,371.92 996.51,372.36 997.96,370.94 999.40,371.37 1000.84,371.39 1002.28,371.18 1003.73,371.52 1005.17,372.15 1006.61,373.57 1008.05,373.62 1009.49,374.06 1010.94,374.38 1012.38,374.49 1013.82,375.15 1015.26,375.81 1016.71,375.62 1018.15,374.82 1019.59,374.75 1021.03,374.85 1022.48,375.84 1023.92,375.70 1025.36,375.14 1026.80,374.56 1028.24,372.09 1029.69,373.02 1031.13,373.45 1032.57,372.51 1034.01,373.02 1035.46,372.80 1036.90,372.26 1038.34,371.59 1039.78,371.45 1041.22,370.80 1042.67,367.72 1044.11,366.42 1045.55,364.99 1046.99,366.01 1048.44,364.67 1049.88,362.27 1051.32,362.66 1052.76,360.64 1054.21,361.36 1055.65,363.17 1057.09,360.96 1058.53,359.15 1059.97,362.72 1061.42,365.13 1062.86,369.14 1064.30,370.77 1065.74,373.17 1067.19,373.11 1068.63,371.15 1070.07,372.41 1071.51,375.09" fill="none" stroke="#7c3aed" stroke-width="1.4" />
<text x="18" y="477.5" font-family="Arial" font-size="12" fill="#444">Raw f0 before smoothing</text>
<line x1="72" y1="525" x2="1072" y2="525" stroke="#ddd" />
<rect x="72" y="430" width="1000" height="95" fill="none" stroke="#eee" />
<polyline points="72.00,506.85 80.65,509.52 82.10,509.52 83.54,506.85 86.42,506.85 87.87,505.48 89.31,505.48 90.75,505.48 92.19,505.48 93.63,506.85 95.08,509.52 96.52,509.52 97.96,505.48 99.40,505.48 100.85,505.48 102.29,505.48 103.73,505.48 105.17,505.48 106.62,504.08 108.06,505.48 109.50,505.48 110.94,505.48 112.38,505.48 113.83,505.48 115.27,505.48 116.71,505.48 118.15,505.48 119.60,505.48 121.04,504.08 122.48,505.48 123.92,505.48 125.37,505.48 126.81,505.48 128.25,505.48 129.69,504.08 131.13,504.08 132.58,504.08 134.02,504.08 135.46,504.08 136.90,504.08 138.35,504.08 139.79,504.08 141.23,504.08 142.67,505.48 144.11,505.48 145.56,505.48 147.00,505.48 148.44,505.48 149.88,505.48 151.33,505.48 152.77,505.48 154.21,505.48 155.65,505.48 157.10,505.48 158.54,505.48 159.98,505.48 161.42,505.48 162.86,505.48 164.31,505.48 165.75,505.48 167.19,505.48 168.63,505.48 170.08,505.48 171.52,505.48 172.96,505.48 174.40,505.48 177.29,430.00 178.73,430.00 180.17,430.00 181.61,430.00 183.06,430.00 184.50,430.00 185.94,461.00 187.38,461.00 188.83,461.00 190.27,461.00 191.71,461.00 193.15,461.00 194.60,461.00 196.04,461.00 197.48,461.00 198.92,461.00 200.36,461.00 201.81,461.00 203.25,461.00 204.69,461.00 206.13,461.00 207.58,461.00 209.02,461.00 210.46,461.00 211.90,461.00 213.35,458.73 214.79,458.73 216.23,458.73 217.67,458.73 219.11,458.73 220.56,458.73 222.00,458.73 223.44,458.73 224.88,458.73 226.33,458.73 227.77,458.73 229.21,458.73 230.65,458.73 232.10,458.73 233.54,458.73 234.98,458.73 236.42,458.73 237.86,458.73 239.31,458.73 240.75,458.73 242.19,458.73 243.63,458.73 245.08,458.73 246.52,458.73 247.96,458.73 249.40,458.73 250.85,458.73 252.29,458.73 253.73,458.73 255.17,458.73 256.61,458.73 258.06,458.73 259.50,458.73 260.94,458.73 262.38,458.73 263.83,458.73 265.27,458.73 266.71,458.73 268.15,458.73 269.59,458.73 271.04,458.73 272.48,456.42 273.92,456.42 275.36,456.42 276.81,456.42 278.25,456.42 279.69,456.42 281.13,458.73 282.58,458.73 284.02,458.73 285.46,458.73 286.90,458.73 288.34,458.73 289.79,458.73 291.23,458.73 292.67,458.73 294.11,458.73 295.56,458.73 297.00,458.73 298.44,458.73 299.88,458.73 301.33,458.73 302.77,458.73 304.21,458.73 305.65,458.73 307.09,458.73 308.54,458.73 309.98,458.73 311.42,458.73 312.86,458.73 314.31,458.73 315.75,458.73 317.19,458.73 318.63,458.73 320.08,458.73 321.52,458.73 322.96,458.73 324.40,458.73 325.84,458.73 327.29,458.73 328.73,458.73 330.17,458.73 331.61,458.73 333.06,458.73 334.50,458.73 335.94,458.73 337.38,458.73 338.83,458.73 340.27,458.73 341.71,516.92 343.15,516.92 344.59,516.92 346.04,516.92 347.48,516.92 348.92,516.92 350.36,516.92 351.81,516.92 353.25,516.92 354.69,515.75 356.13,515.75 357.58,515.75 359.02,515.75 360.46,515.75 361.90,515.75 363.34,515.75 364.79,515.75 366.23,515.75 367.67,515.75 369.11,515.75 370.56,515.75 372.00,515.75 373.44,515.75 374.88,515.75 376.33,515.75 377.77,515.75 379.21,515.75 380.65,515.75 382.09,515.75 383.54,515.75 384.98,515.75 386.42,515.75 387.86,515.75 389.31,515.75 390.75,515.75 392.19,515.75 393.63,515.75 395.07,515.75 396.52,515.75 397.96,515.75 399.40,515.75 400.84,515.75 402.29,515.75 403.73,515.75 405.17,515.75 406.61,515.75 408.06,515.75 409.50,515.75 410.94,515.75 412.38,515.75 413.82,515.75 415.27,515.75 416.71,515.75 418.15,515.75 419.59,515.75 421.04,515.75 422.48,515.75 423.92,515.75 425.36,515.75 426.81,515.75 428.25,515.75 429.69,515.75 431.13,515.75 432.57,515.75 434.02,514.55 435.46,514.55 436.90,514.55 438.34,514.55 439.79,514.55 441.23,514.55 442.67,514.55 444.11,514.55 445.56,514.55 447.00,514.55 448.44,514.55 449.88,513.33 451.32,513.33 452.77,513.33 454.21,513.33 455.65,513.33 457.09,513.33 458.54,513.33 459.98,513.33 461.42,513.33 462.86,513.33 464.31,513.33 465.75,513.33 467.19,513.33 468.63,513.33 470.07,513.33 471.52,513.33 472.96,513.33 474.40,513.33 475.84,514.55 477.29,514.55 478.73,514.55 480.17,514.55 481.61,514.55 483.06,514.55 484.50,514.55 485.94,514.55 487.38,514.55 488.82,514.55 490.27,514.55 491.71,514.55 493.15,514.55 494.59,514.55 496.04,514.55 497.48,513.33 498.92,513.33 500.36,451.67 501.81,451.67 503.25,451.67 504.69,451.67 506.13,451.67 507.57,451.67 509.02,451.67 510.46,451.67 511.90,451.67 513.34,451.67 514.79,451.67 516.23,451.67 517.67,451.67 519.11,449.23 520.55,451.67 522.00,451.67 523.44,451.67 524.88,449.23 526.32,449.23 527.77,449.23 529.21,449.23 530.65,449.23 532.09,449.23 533.54,449.23 534.98,449.23 536.42,449.23 537.86,449.23 539.30,449.23 540.75,449.23 542.19,449.23 543.63,449.23 545.07,449.23 546.52,490.20 547.96,513.33 549.40,490.20 550.84,490.20 552.29,449.23 553.73,449.23 555.17,449.23 556.61,449.23 558.05,449.23 559.50,449.23 560.94,449.23 562.38,449.23 563.82,449.23 565.27,449.23 566.71,449.23 568.15,449.23 569.59,449.23 571.04,449.23 572.48,449.23 573.92,449.23 575.36,449.23 576.80,449.23 578.25,449.23 579.69,449.23 581.13,449.23 582.57,449.23 584.02,449.23 585.46,451.67 586.90,451.67 588.34,451.67 589.79,451.67 591.23,451.67 592.67,451.67 594.11,451.67 595.55,451.67 597.00,451.67 598.44,451.67 599.88,451.67 601.32,451.67 602.77,451.67 604.21,514.55 605.65,451.67 607.09,454.07 608.54,454.07 609.98,454.07 611.42,454.07 612.86,454.07 614.30,454.07 615.75,454.07 617.19,454.07 618.63,454.07 620.07,514.55 621.52,514.55 622.96,514.55 624.40,514.55 625.84,514.55 627.29,514.55 628.73,514.55 630.17,514.55 631.61,514.55 633.05,514.55 634.50,514.55 635.94,514.55 637.38,514.55 638.82,514.55 640.27,514.55 641.71,514.55 643.15,514.55 644.59,514.55 646.04,514.55 647.48,514.55 648.92,514.55 650.36,515.75 651.80,515.75 653.25,515.75 654.69,515.75 656.13,515.75 657.57,515.75 659.02,515.75 660.46,515.75 661.90,515.75 663.34,515.75 664.78,515.75 666.23,515.75 667.67,515.75 669.11,515.75 670.55,515.75 672.00,515.75 673.44,454.07 674.88,515.75 676.32,515.75 677.77,515.75 679.21,515.75 680.65,515.75 682.09,515.75 683.53,515.75 684.98,515.75 686.42,515.75 687.86,515.75 689.30,515.75 690.75,515.75 692.19,515.75 693.63,515.75 695.07,515.75 696.52,515.75 697.96,456.42 699.40,516.92 700.84,456.42 702.28,456.42 703.73,456.42 705.17,456.42 706.61,456.42 708.05,430.00 709.50,430.00 710.94,430.00 712.38,456.42 713.82,456.42 715.27,456.42 716.71,456.42 718.15,456.42 719.59,456.42 721.03,456.42 722.48,456.42 723.92,456.42 725.36,456.42 726.80,456.42 728.25,456.42 729.69,456.42 731.13,456.42 732.57,456.42 734.02,454.07 735.46,454.07 736.90,454.07 738.34,454.07 739.78,454.07 741.23,454.07 742.67,456.42 744.11,456.42 745.55,456.42 747.00,456.42 748.44,456.42 749.88,456.42 751.32,456.42 752.77,456.42 754.21,456.42 755.65,456.42 757.09,456.42 758.53,456.42 759.98,456.42 761.42,456.42 762.86,456.42 764.30,456.42 765.75,456.42 767.19,456.42 768.63,456.42 770.07,456.42 771.52,456.42 772.96,456.42 774.40,456.42 775.84,456.42 777.28,456.42 778.73,456.42 780.17,454.07 781.61,454.07 783.05,454.07 784.50,454.07 785.94,454.07 787.38,454.07 788.82,454.07 790.26,454.07 791.71,454.07 793.15,454.07 794.59,454.07 796.03,454.07 797.48,454.07 798.92,454.07 800.36,454.07 801.80,456.42 803.25,456.42 804.69,456.42 806.13,454.07 807.57,456.42 809.01,456.42 810.46,456.42 811.90,454.07 813.34,456.42 814.78,456.42 816.23,456.42 817.67,456.42 819.11,456.42 820.55,456.42 822.00,456.42 823.44,456.42 824.88,456.42 826.32,456.42 827.76,456.42 829.21,456.42 830.65,456.42 832.09,456.42 833.53,456.42 834.98,456.42 836.42,456.42 837.86,456.42 839.30,456.42 840.75,456.42 842.19,456.42 843.63,456.42 845.07,456.42 846.51,456.42 847.96,456.42 849.40,456.42 850.84,456.42 852.28,456.42 853.73,456.42 855.17,456.42 856.61,456.42 858.05,456.42 859.50,456.42 860.94,456.42 862.38,456.42 863.82,456.42 865.26,456.42 866.71,456.42 868.15,456.42 869.59,456.42 871.03,456.42 872.48,456.42 873.92,456.42 875.36,456.42 876.80,456.42 878.25,456.42 879.69,456.42 881.13,456.42 882.57,456.42 884.01,456.42 885.46,456.42 886.90,456.42 888.34,456.42 889.78,456.42 891.23,454.07 892.67,454.07 894.11,454.07 895.55,515.75 897.00,515.75 898.44,515.75 899.88,515.75 901.32,515.75 902.76,515.75 904.21,515.75 905.65,515.75 907.09,454.07 908.53,454.07 909.98,515.75 911.42,515.75 912.86,454.07 914.30,454.07 915.74,515.75 917.19,515.75 918.63,515.75 920.07,515.75 921.51,515.75 922.96,515.75 924.40,515.75 925.84,515.75 927.28,515.75 928.73,514.55 930.17,514.55 931.61,514.55 933.05,514.55 934.49,514.55 935.94,515.75 937.38,515.75 938.82,515.75 940.26,515.75 941.71,515.75 943.15,515.75 944.59,515.75 946.03,515.75 947.48,515.75 948.92,515.75 950.36,515.75 951.80,515.75 953.24,454.07 954.69,454.07 956.13,454.07 957.57,454.07 959.01,454.07 960.46,456.42 961.90,456.42 963.34,456.42 964.78,456.42 966.23,456.42 967.67,456.42 969.11,456.42 970.55,456.42 971.99,454.07 973.44,454.07 974.88,454.07 976.32,454.07 977.76,454.07 979.21,515.75 980.65,515.75 982.09,515.75 983.53,515.75 984.98,515.75 986.42,515.75 987.86,515.75 989.30,515.75 990.74,454.07 992.19,454.07 993.63,515.75 995.07,454.07 996.51,515.75 997.96,515.75 999.40,515.75 1000.84,515.75 1002.28,515.75 1003.73,515.75 1005.17,515.75 1006.61,515.75 1008.05,515.75 1009.49,515.75 1010.94,515.75 1012.38,454.07 1013.82,454.07 1015.26,456.42 1016.71,456.42 1018.15,456.42 1019.59,456.42 1021.03,456.42 1022.48,456.42 1023.92,456.42 1025.36,456.42 1026.80,456.42 1028.24,456.42 1029.69,454.07 1031.13,454.07 1032.57,454.07 1034.01,454.07 1035.46,515.75 1036.90,454.07 1038.34,454.07 1039.78,454.07 1041.22,454.07 1042.67,454.07 1044.11,454.07 1045.55,454.07 1046.99,454.07 1048.44,456.42 1049.88,456.42 1051.32,456.42 1052.76,456.42 1054.21,456.42 1055.65,456.42 1057.09,456.42 1058.53,456.42 1059.97,456.42 1061.42,456.42 1062.86,456.42 1064.30,454.07 1065.74,454.07 1067.19,451.67 1068.63,451.67 1070.07,451.67 1071.51,451.67" fill="none" stroke="#ea580c" stroke-width="1.5" />
<line x1="72" y1="521.75" x2="1072" y2="521.75" stroke="#eee" />
<text x="1076" y="525.75" font-family="Arial" font-size="10" fill="#666">65</text>
<line x1="72" y1="507.19" x2="1072" y2="507.19" stroke="#eee" />
<text x="1076" y="511.19" font-family="Arial" font-size="10" fill="#666">82</text>
<line x1="72" y1="493.49" x2="1072" y2="493.49" stroke="#eee" />
<text x="1076" y="497.49" font-family="Arial" font-size="10" fill="#666">98</text>
<line x1="72" y1="483.21" x2="1072" y2="483.21" stroke="#eee" />
<text x="1076" y="487.21" font-family="Arial" font-size="10" fill="#666">110</text>
<line x1="72" y1="465.22" x2="1072" y2="465.22" stroke="#eee" />
<text x="1076" y="469.22" font-family="Arial" font-size="10" fill="#666">131</text>
<line x1="72" y1="451.52" x2="1072" y2="451.52" stroke="#eee" />
<text x="1076" y="455.52" font-family="Arial" font-size="10" fill="#666">147</text>
<line x1="72" y1="436.10" x2="1072" y2="436.10" stroke="#eee" />
<text x="1076" y="440.10" font-family="Arial" font-size="10" fill="#666">165</text>
<text x="18" y="617.5" font-family="Arial" font-size="12" fill="#444">Smoothed f0 after smoothing</text>
<line x1="72" y1="665" x2="1072" y2="665" stroke="#ddd" />
<rect x="72" y="570" width="1000" height="95" fill="none" stroke="#eee" />
<polyline points="72.00,663.15 80.65,663.68 82.10,663.68 83.54,663.15 86.42,663.15 87.87,662.89 89.31,662.89 90.75,662.89 92.19,662.89 93.63,663.15 95.08,663.15 96.52,663.15 97.96,662.89 99.40,662.89 100.85,662.89 102.29,662.89 103.73,662.89 105.17,662.89 106.62,662.89 108.06,662.89 109.50,662.89 110.94,662.89 112.38,662.89 113.83,662.89 115.27,662.89 116.71,662.89 118.15,662.89 119.60,662.89 121.04,662.89 122.48,662.89 123.92,662.89 125.37,662.89 126.81,662.89 128.25,662.89 129.69,662.61 131.13,662.61 132.58,662.61 134.02,662.61 135.46,662.61 136.90,662.61 138.35,662.61 139.79,662.61 141.23,662.61 142.67,662.89 144.11,662.89 145.56,662.89 147.00,662.89 148.44,662.89 149.88,662.89 151.33,662.89 152.77,662.89 154.21,662.89 155.65,662.89 157.10,662.89 158.54,662.89 159.98,662.89 161.42,662.89 162.86,662.89 164.31,662.89 165.75,662.89 167.19,662.89 168.63,662.89 170.08,662.89 171.52,662.89 172.96,662.89 174.40,662.89 177.29,570.00 178.73,570.00 180.17,570.00 181.61,570.00 183.06,570.00 184.50,570.00 185.94,585.73 187.38,585.73 188.83,585.73 190.27,585.73 191.71,585.73 193.15,585.73 194.60,585.73 196.04,585.73 197.48,585.73 198.92,585.73 200.36,585.73 201.81,585.73 203.25,585.73 204.69,585.73 206.13,585.73 207.58,585.73 209.02,585.73 210.46,585.73 211.90,585.73 213.35,583.95 214.79,583.95 216.23,583.95 217.67,583.95 219.11,583.95 220.56,583.95 222.00,583.95 223.44,583.95 224.88,583.95 226.33,583.95 227.77,583.95 229.21,583.95 230.65,583.95 232.10,583.95 233.54,583.95 234.98,583.95 236.42,583.95 237.86,583.95 239.31,583.95 240.75,583.95 242.19,583.95 243.63,583.95 245.08,583.95 246.52,583.95 247.96,583.95 249.40,583.95 250.85,583.95 252.29,583.95 253.73,583.95 255.17,583.95 256.61,583.95 258.06,583.95 259.50,583.95 260.94,583.95 262.38,583.95 263.83,583.95 265.27,583.95 266.71,583.95 268.15,583.95 269.59,583.95 271.04,583.95 272.48,582.15 273.92,582.15 275.36,582.15 276.81,582.15 278.25,582.15 279.69,582.15 281.13,583.95 282.58,583.95 284.02,583.95 285.46,583.95 286.90,583.95 288.34,583.95 289.79,583.95 291.23,583.95 292.67,583.95 294.11,583.95 295.56,583.95 297.00,583.95 298.44,583.95 299.88,583.95 301.33,583.95 302.77,583.95 304.21,583.95 305.65,583.95 307.09,583.95 308.54,583.95 309.98,583.95 311.42,583.95 312.86,583.95 314.31,583.95 315.75,583.95 317.19,583.95 318.63,583.95 320.08,583.95 321.52,583.95 322.96,583.95 324.40,583.95 325.84,583.95 327.29,583.95 328.73,583.95 330.17,583.95 331.61,583.95 333.06,583.95 334.50,583.95 335.94,583.95 337.38,583.95 338.83,583.95 340.27,583.95 341.71,629.56 343.15,629.56 344.59,629.56 346.04,629.56 347.48,629.56 348.92,629.56 350.36,629.56 351.81,629.56 353.25,629.56 354.69,628.64 356.13,628.64 357.58,628.64 359.02,628.64 360.46,628.64 361.90,628.64 363.34,628.64 364.79,628.64 366.23,628.64 367.67,628.64 369.11,628.64 370.56,628.64 372.00,628.64 373.44,628.64 374.88,628.64 376.33,628.64 377.77,628.64 379.21,628.64 380.65,628.64 382.09,628.64 383.54,628.64 384.98,628.64 386.42,628.64 387.86,628.64 389.31,628.64 390.75,628.64 392.19,628.64 393.63,628.64 395.07,628.64 396.52,628.64 397.96,628.64 399.40,628.64 400.84,628.64 402.29,628.64 403.73,628.64 405.17,628.64 406.61,628.64 408.06,628.64 409.50,628.64 410.94,628.64 412.38,628.64 413.82,628.64 415.27,628.64 416.71,628.64 418.15,628.64 419.59,628.64 421.04,628.64 422.48,628.64 423.92,628.64 425.36,628.64 426.81,628.64 428.25,628.64 429.69,628.64 431.13,628.64 432.57,628.64 434.02,627.70 435.46,627.70 436.90,627.70 438.34,627.70 439.79,627.70 441.23,627.70 442.67,627.70 444.11,627.70 445.56,627.70 447.00,627.70 448.44,627.70 449.88,626.74 451.32,626.74 452.77,626.74 454.21,626.74 455.65,626.74 457.09,626.74 458.54,626.74 459.98,626.74 461.42,626.74 462.86,626.74 464.31,626.74 465.75,626.74 467.19,626.74 468.63,626.74 470.07,626.74 471.52,626.74 472.96,626.74 474.40,626.74 475.84,627.70 477.29,627.70 478.73,627.70 480.17,627.70 481.61,627.70 483.06,627.70 484.50,627.70 485.94,627.70 487.38,627.70 488.82,627.70 490.27,627.70 491.71,627.70 493.15,627.70 494.59,627.70 496.04,627.70 497.48,627.70 498.92,627.70 500.36,627.70 501.81,627.70 503.25,627.70 504.69,627.70 506.13,627.70 507.57,627.70 509.02,627.70 510.46,627.70 511.90,627.70 513.34,627.70 514.79,627.70 516.23,627.70 517.67,627.70 519.11,627.70 520.55,627.70 522.00,627.70 523.44,627.70 524.88,626.74 526.32,626.74 527.77,626.74 529.21,626.74 530.65,626.74 532.09,626.74 533.54,626.74 534.98,626.74 536.42,626.74 537.86,626.74 539.30,626.74 540.75,626.74 542.19,626.74 543.63,626.74 545.07,626.74 546.52,626.74 547.96,608.62 549.40,608.62 550.84,626.74 552.29,626.74 553.73,626.74 555.17,626.74 556.61,626.74 558.05,626.74 559.50,626.74 560.94,626.74 562.38,626.74 563.82,626.74 565.27,626.74 566.71,626.74 568.15,626.74 569.59,626.74 571.04,626.74 572.48,626.74 573.92,626.74 575.36,626.74 576.80,626.74 578.25,626.74 579.69,626.74 581.13,626.74 582.57,626.74 584.02,626.74 585.46,627.70 586.90,627.70 588.34,627.70 589.79,627.70 591.23,627.70 592.67,627.70 594.11,627.70 595.55,627.70 597.00,627.70 598.44,627.70 599.88,627.70 601.32,627.70 602.77,627.70 604.21,627.70 605.65,627.70 607.09,628.64 608.54,628.64 609.98,628.64 611.42,628.64 612.86,628.64 614.30,628.64 615.75,628.64 617.19,628.64 618.63,628.64 620.07,627.70 621.52,627.70 622.96,627.70 624.40,627.70 625.84,627.70 627.29,627.70 628.73,627.70 630.17,627.70 631.61,627.70 633.05,627.70 634.50,627.70 635.94,627.70 637.38,627.70 638.82,627.70 640.27,627.70 641.71,627.70 643.15,627.70 644.59,627.70 646.04,627.70 647.48,627.70 648.92,627.70 650.36,628.64 651.80,628.64 653.25,628.64 654.69,628.64 656.13,628.64 657.57,628.64 659.02,628.64 660.46,628.64 661.90,628.64 663.34,628.64 664.78,628.64 666.23,628.64 667.67,628.64 669.11,628.64 670.55,628.64 672.00,628.64 673.44,628.64 674.88,628.64 676.32,628.64 677.77,628.64 679.21,628.64 680.65,628.64 682.09,628.64 683.53,628.64 684.98,628.64 686.42,628.64 687.86,628.64 689.30,628.64 690.75,628.64 692.19,628.64 693.63,628.64 695.07,628.64 696.52,628.64 697.96,629.11 699.40,629.56 700.84,629.56 702.28,629.56 703.73,629.56 705.17,629.56 706.61,629.56 708.05,623.76 709.50,623.76 710.94,623.76 712.38,629.56 713.82,629.56 715.27,629.56 716.71,629.56 718.15,629.56 719.59,629.56 721.03,629.56 722.48,629.56 723.92,629.56 725.36,629.56 726.80,629.56 728.25,629.56 729.69,629.56 731.13,629.56 732.57,629.56 734.02,628.64 735.46,628.64 736.90,628.64 738.34,628.64 739.78,628.64 741.23,628.64 742.67,629.56 744.11,629.56 745.55,629.56 747.00,629.56 748.44,629.56 749.88,629.56 751.32,629.56 752.77,629.56 754.21,629.56 755.65,629.56 757.09,629.56 758.53,629.56 759.98,629.56 761.42,629.56 762.86,629.56 764.30,629.56 765.75,629.56 767.19,629.56 768.63,629.56 770.07,629.56 771.52,629.56 772.96,629.56 774.40,629.56 775.84,629.56 777.28,629.56 778.73,629.56 780.17,628.64 781.61,628.64 783.05,628.64 784.50,628.64 785.94,628.64 787.38,628.64 788.82,628.64 790.26,628.64 791.71,628.64 793.15,628.64 794.59,628.64 796.03,628.64 797.48,628.64 798.92,628.64 800.36,628.64 801.80,629.56 803.25,629.56 804.69,629.56 806.13,629.56 807.57,629.56 809.01,629.56 810.46,629.56 811.90,629.56 813.34,629.56 814.78,629.56 816.23,629.56 817.67,629.56 819.11,629.56 820.55,629.56 822.00,629.56 823.44,629.56 824.88,629.56 826.32,629.56 827.76,629.56 829.21,629.56 830.65,629.56 832.09,629.56 833.53,629.56 834.98,629.56 836.42,629.56 837.86,629.56 839.30,629.56 840.75,629.56 842.19,629.56 843.63,629.56 845.07,629.56 846.51,629.56 847.96,629.56 849.40,629.56 850.84,629.56 852.28,629.56 853.73,629.56 855.17,629.56 856.61,629.56 858.05,629.56 859.50,629.56 860.94,629.56 862.38,629.56 863.82,629.56 865.26,629.56 866.71,629.56 868.15,629.56 869.59,629.56 871.03,629.56 872.48,629.56 873.92,629.56 875.36,629.56 876.80,629.56 878.25,629.56 879.69,629.56 881.13,629.56 882.57,629.56 884.01,629.56 885.46,629.56 886.90,629.56 888.34,629.56 889.78,629.56 891.23,628.64 892.67,628.64 894.11,628.64 895.55,628.64 897.00,628.64 898.44,628.64 899.88,628.64 901.32,628.64 902.76,628.64 904.21,628.64 905.65,628.64 907.09,628.64 908.53,628.64 909.98,628.64 911.42,628.64 912.86,628.64 914.30,628.64 915.74,628.64 917.19,628.64 918.63,628.64 920.07,628.64 921.51,628.64 922.96,628.64 924.40,628.64 925.84,628.64 927.28,628.64 928.73,627.70 930.17,627.70 931.61,627.70 933.05,627.70 934.49,627.70 935.94,628.64 937.38,628.64 938.82,628.64 940.26,628.64 941.71,628.64 943.15,628.64 944.59,628.64 946.03,628.64 947.48,628.64 948.92,628.64 950.36,628.64 951.80,628.64 953.24,628.64 954.69,628.64 956.13,628.64 957.57,628.64 959.01,628.64 960.46,629.56 961.90,629.56 963.34,629.56 964.78,629.56 966.23,629.56 967.67,629.56 969.11,629.56 970.55,629.56 971.99,628.64 973.44,628.64 974.88,628.64 976.32,628.64 977.76,628.64 979.21,628.64 980.65,628.64 982.09,628.64 983.53,628.64 984.98,628.64 986.42,628.64 987.86,628.64 989.30,628.64 990.74,628.64 992.19,628.64 993.63,628.64 995.07,628.64 996.51,628.64 997.96,628.64 999.40,628.64 1000.84,628.64 1002.28,628.64 1003.73,628.64 1005.17,628.64 1006.61,628.64 1008.05,628.64 1009.49,628.64 1010.94,628.64 1012.38,628.64 1013.82,628.64 1015.26,629.56 1016.71,629.56 1018.15,629.56 1019.59,629.56 1021.03,629.56 1022.48,629.56 1023.92,629.56 1025.36,629.56 1026.80,629.56 1028.24,629.56 1029.69,628.64 1031.13,628.64 1032.57,628.64 1034.01,628.64 1035.46,628.64 1036.90,628.64 1038.34,628.64 1039.78,628.64 1041.22,628.64 1042.67,628.64 1044.11,628.64 1045.55,628.64 1046.99,628.64 1048.44,629.56 1049.88,629.56 1051.32,629.56 1052.76,629.56 1054.21,629.56 1055.65,629.56 1057.09,629.56 1058.53,629.56 1059.97,629.56 1061.42,629.56 1062.86,629.56 1064.30,628.64 1065.74,628.64 1067.19,627.70 1068.63,627.70 1070.07,627.70 1071.51,627.70" fill="none" stroke="#059669" stroke-width="1.5" />
<line x1="72" y1="663.22" x2="1072" y2="663.22" stroke="#eee" />
<text x="1076" y="667.22" font-family="Arial" font-size="10" fill="#666">82</text>
<line x1="72" y1="660.54" x2="1072" y2="660.54" stroke="#eee" />
<text x="1076" y="664.54" font-family="Arial" font-size="10" fill="#666">98</text>
<line x1="72" y1="658.52" x2="1072" y2="658.52" stroke="#eee" />
<text x="1076" y="662.52" font-family="Arial" font-size="10" fill="#666">110</text>
<line x1="72" y1="655.00" x2="1072" y2="655.00" stroke="#eee" />
<text x="1076" y="659.00" font-family="Arial" font-size="10" fill="#666">131</text>
<line x1="72" y1="652.31" x2="1072" y2="652.31" stroke="#eee" />
<text x="1076" y="656.31" font-family="Arial" font-size="10" fill="#666">147</text>
<line x1="72" y1="649.29" x2="1072" y2="649.29" stroke="#eee" />
<text x="1076" y="653.29" font-family="Arial" font-size="10" fill="#666">165</text>
<line x1="72" y1="644.09" x2="1072" y2="644.09" stroke="#eee" />
<text x="1076" y="648.09" font-family="Arial" font-size="10" fill="#666">196</text>
<line x1="72" y1="640.06" x2="1072" y2="640.06" stroke="#eee" />
<text x="1076" y="644.06" font-family="Arial" font-size="10" fill="#666">220</text>
<line x1="72" y1="633.01" x2="1072" y2="633.01" stroke="#eee" />
<text x="1076" y="637.01" font-family="Arial" font-size="10" fill="#666">262</text>
<line x1="72" y1="621.60" x2="1072" y2="621.60" stroke="#eee" />
<text x="1076" y="625.60" font-family="Arial" font-size="10" fill="#666">330</text>
<line x1="72" y1="611.19" x2="1072" y2="611.19" stroke="#eee" />
<text x="1076" y="615.19" font-family="Arial" font-size="10" fill="#666">392</text>
<line x1="72" y1="589.21" x2="1072" y2="589.21" stroke="#eee" />
<text x="1076" y="593.21" font-family="Arial" font-size="10" fill="#666">523</text>
<text x="18" y="750.0" font-family="Arial" font-size="12" fill="#444">Onset probability</text>
<line x1="72" y1="790" x2="1072" y2="790" stroke="#ddd" />
<rect x="72" y="710" width="1000" height="80" fill="none" stroke="#eee" />
<polyline points="72.00,762.54 73.44,757.81 74.88,758.39 76.33,755.94 77.77,756.70 79.21,756.83 80.65,756.82 82.10,756.94 83.54,757.04 84.98,755.37 86.42,754.82 87.87,754.33 89.31,754.42 90.75,753.74 92.19,753.30 93.63,753.75 95.08,753.08 96.52,753.75 97.96,754.87 99.40,754.89 100.85,755.32 102.29,754.92 103.73,755.09 105.17,756.17 106.62,755.88 108.06,755.91 109.50,755.98 110.94,755.81 112.38,755.87 113.83,755.47 115.27,753.71 116.71,751.03 118.15,750.26 119.60,750.82 121.04,750.63 122.48,750.24 123.92,749.85 125.37,749.86 126.81,752.85 128.25,753.04 129.69,752.54 131.13,751.62 132.58,751.32 134.02,752.33 135.46,752.08 136.90,751.42 138.35,751.72 139.79,752.20 141.23,753.57 142.67,753.00 144.11,751.96 145.56,752.73 147.00,753.01 148.44,753.81 149.88,754.86 151.33,754.85 152.77,754.90 154.21,754.00 155.65,753.92 157.10,755.47 158.54,756.18 159.98,756.30 161.42,755.60 162.86,754.15 164.31,752.83 165.75,753.58 167.19,754.63 168.63,754.63 170.08,754.93 171.52,754.10 172.96,753.74 174.40,754.22 175.85,756.24 177.29,754.95 178.73,753.66 180.17,755.27 181.61,758.56 183.06,757.67 184.50,755.99 185.94,753.74 187.38,754.27 188.83,758.44 190.27,760.61 191.71,761.37 193.15,762.94 194.60,765.09 196.04,767.29 197.48,769.33 198.92,769.79 200.36,770.35 201.81,769.89 203.25,768.18 204.69,769.77 206.13,771.01 207.58,772.31 209.02,772.79 210.46,772.36 211.90,772.00 213.35,772.27 214.79,771.89 216.23,771.12 217.67,770.07 219.11,769.26 220.56,769.06 222.00,768.51 223.44,768.05 224.88,765.74 226.33,765.84 227.77,765.50 229.21,765.55 230.65,766.41 232.10,767.44 233.54,767.12 234.98,766.96 236.42,767.67 237.86,767.94 239.31,768.25 240.75,768.70 242.19,768.86 243.63,768.69 245.08,769.30 246.52,770.19 247.96,770.48 249.40,770.67 250.85,771.35 252.29,771.78 253.73,771.91 255.17,772.03 256.61,771.87 258.06,771.74 259.50,771.83 260.94,772.03 262.38,772.97 263.83,774.34 265.27,775.35 266.71,774.97 268.15,774.15 269.59,772.01 271.04,771.15 272.48,770.42 273.92,770.32 275.36,770.00 276.81,769.96 278.25,771.30 279.69,772.40 281.13,771.61 282.58,770.66 284.02,770.78 285.46,771.13 286.90,771.56 288.34,771.10 289.79,770.98 291.23,771.41 292.67,771.89 294.11,772.85 295.56,773.45 297.00,774.22 298.44,774.03 299.88,774.39 301.33,774.57 302.77,774.92 304.21,775.38 305.65,775.59 307.09,775.48 308.54,774.99 309.98,774.81 311.42,773.94 312.86,773.79 314.31,774.76 315.75,774.42 317.19,774.79 318.63,774.65 320.08,775.14 321.52,774.96 322.96,774.53 324.40,773.70 325.84,771.48 327.29,769.39 328.73,766.63 330.17,765.56 331.61,767.40 333.06,767.43 334.50,765.71 335.94,764.10 337.38,763.53 338.83,761.96 340.27,761.56 341.71,761.37 343.15,761.52 344.59,762.69 346.04,763.16 347.48,763.38 348.92,762.40 350.36,763.60 351.81,764.00 353.25,763.78 354.69,764.79 356.13,765.46 357.58,766.09 359.02,766.44 360.46,766.16 361.90,766.38 363.34,765.63 364.79,765.28 366.23,764.26 367.67,763.06 369.11,762.62 370.56,761.85 372.00,759.84 373.44,759.88 374.88,760.42 376.33,759.48 377.77,758.76 379.21,758.28 380.65,758.89 382.09,758.25 383.54,758.15 384.98,757.19 386.42,756.98 387.86,757.40 389.31,758.21 390.75,758.82 392.19,758.80 393.63,758.38 395.07,758.51 396.52,757.88 397.96,758.21 399.40,758.54 400.84,758.39 402.29,758.46 403.73,758.23 405.17,758.99 406.61,759.45 408.06,759.86 409.50,759.54 410.94,760.15 412.38,759.82 413.82,759.40 415.27,759.33 416.71,759.75 418.15,759.92 419.59,759.68 421.04,759.74 422.48,760.05 423.92,759.84 425.36,759.70 426.81,758.73 428.25,758.41 429.69,758.22 431.13,758.27 432.57,757.91 434.02,757.38 435.46,757.51 436.90,756.95 438.34,756.72 439.79,756.33 441.23,756.10 442.67,756.00 444.11,755.58 445.56,755.63 447.00,754.94 448.44,754.79 449.88,754.70 451.32,754.85 452.77,755.10 454.21,755.31 455.65,755.72 457.09,755.99 458.54,755.82 459.98,754.97 461.42,754.32 462.86,753.91 464.31,753.73 465.75,754.38 467.19,755.10 468.63,755.69 470.07,755.47 471.52,756.16 472.96,756.57 474.40,756.84 475.84,756.03 477.29,756.02 478.73,756.18 480.17,756.69 481.61,756.45 483.06,756.04 484.50,755.91 485.94,756.09 487.38,755.92 488.82,755.86 490.27,755.36 491.71,754.82 493.15,754.65 494.59,754.59 496.04,754.91 497.48,756.88 498.92,758.67 500.36,758.40 501.81,759.82 503.25,760.52 504.69,760.28 506.13,759.32 507.57,759.44 509.02,759.76 510.46,759.26 511.90,757.90 513.34,757.76 514.79,758.11 516.23,757.82 517.67,758.11 519.11,758.20 520.55,759.13 522.00,759.95 523.44,760.17 524.88,761.74 526.32,762.31 527.77,762.84 529.21,764.02 530.65,764.92 532.09,763.52 533.54,762.68 534.98,761.64 536.42,761.13 537.86,760.83 539.30,761.85 540.75,761.23 542.19,761.24 543.63,761.69 545.07,760.70 546.52,760.96 547.96,761.42 549.40,761.60 550.84,762.24 552.29,762.07 553.73,762.70 555.17,763.24 556.61,763.52 558.05,765.02 559.50,764.37 560.94,763.90 562.38,762.85 563.82,762.80 565.27,762.27 566.71,762.39 568.15,763.21 569.59,763.16 571.04,763.05 572.48,762.75 573.92,761.86 575.36,761.38 576.80,761.08 578.25,761.64 579.69,762.86 581.13,763.08 582.57,763.95 584.02,764.48 585.46,764.45 586.90,764.24 588.34,764.65 589.79,764.62 591.23,764.68 592.67,764.78 594.11,764.94 595.55,765.13 597.00,764.59 598.44,764.31 599.88,763.96 601.32,762.92 602.77,761.55 604.21,761.14 605.65,760.24 607.09,760.02 608.54,759.81 609.98,760.28 611.42,760.75 612.86,761.08 614.30,760.75 615.75,760.77 617.19,760.94 618.63,760.37 620.07,760.16 621.52,759.85 622.96,759.85 624.40,759.53 625.84,758.83 627.29,758.83 628.73,758.09 630.17,757.36 631.61,756.96 633.05,756.76 634.50,756.25 635.94,756.25 637.38,756.38 638.82,755.69 640.27,755.38 641.71,755.51 643.15,755.81 644.59,756.53 646.04,756.66 647.48,756.80 648.92,756.75 650.36,756.97 651.80,756.88 653.25,757.11 654.69,757.67 656.13,757.67 657.57,758.14 659.02,758.06 660.46,758.23 661.90,757.76 663.34,757.64 664.78,757.36 666.23,757.09 667.67,757.05 669.11,757.18 670.55,756.82 672.00,756.68 673.44,756.67 674.88,757.02 676.32,757.01 677.77,757.38 679.21,757.20 680.65,756.91 682.09,757.05 683.53,757.18 684.98,757.30 686.42,756.94 687.86,757.21 689.30,756.93 690.75,756.68 692.19,756.87 693.63,757.30 695.07,757.59 696.52,757.99 697.96,758.19 699.40,758.82 700.84,758.99 702.28,759.84 703.73,760.73 705.17,760.33 706.61,759.93 708.05,760.51 709.50,760.84 710.94,760.55 712.38,760.85 713.82,760.82 715.27,761.78 716.71,761.87 718.15,761.57 719.59,761.79 721.03,761.76 722.48,761.59 723.92,761.10 725.36,761.12 726.80,761.66 728.25,761.29 729.69,760.97 731.13,760.10 732.57,759.44 734.02,759.20 735.46,759.23 736.90,759.20 738.34,759.32 739.78,759.79 741.23,761.16 742.67,761.71 744.11,762.49 745.55,762.12 747.00,762.30 748.44,762.54 749.88,763.49 751.32,763.51 752.77,764.45 754.21,764.87 755.65,764.27 757.09,764.30 758.53,764.85 759.98,764.50 761.42,763.64 762.86,762.37 764.30,761.69 765.75,761.49 767.19,760.53 768.63,759.46 770.07,759.47 771.52,758.61 772.96,758.06 774.40,758.09 775.84,757.60 777.28,757.90 778.73,758.02 780.17,758.00 781.61,757.86 783.05,757.70 784.50,757.50 785.94,757.49 787.38,757.44 788.82,757.24 790.26,756.94 791.71,755.79 793.15,755.58 794.59,755.17 796.03,754.74 797.48,754.64 798.92,754.42 800.36,754.31 801.80,754.35 803.25,754.72 804.69,755.31 806.13,754.82 807.57,755.17 809.01,755.71 810.46,755.67 811.90,754.66 813.34,754.33 814.78,754.61 816.23,754.39 817.67,754.46 819.11,755.00 820.55,754.92 822.00,754.43 823.44,754.06 824.88,754.21 826.32,753.83 827.76,753.44 829.21,753.71 830.65,753.84 832.09,754.18 833.53,753.58 834.98,753.43 836.42,753.52 837.86,753.74 839.30,754.12 840.75,754.37 842.19,754.28 843.63,754.47 845.07,754.55 846.51,754.85 847.96,754.68 849.40,754.72 850.84,754.68 852.28,754.43 853.73,754.61 855.17,754.78 856.61,754.73 858.05,754.88 859.50,754.90 860.94,754.63 862.38,754.25 863.82,754.27 865.26,754.50 866.71,754.47 868.15,754.15 869.59,754.22 871.03,753.93 872.48,754.47 873.92,755.22 875.36,755.33 876.80,755.35 878.25,755.13 879.69,755.26 881.13,754.80 882.57,754.91 884.01,755.21 885.46,755.49 886.90,755.54 888.34,755.86 889.78,756.19 891.23,756.67 892.67,757.12 894.11,756.65 895.55,756.78 897.00,756.55 898.44,757.12 899.88,757.42 901.32,756.88 902.76,757.37 904.21,757.40 905.65,757.26 907.09,757.20 908.53,757.36 909.98,758.00 911.42,757.82 912.86,757.41 914.30,757.03 915.74,757.03 917.19,757.23 918.63,756.76 920.07,756.53 921.51,756.45 922.96,756.32 924.40,756.75 925.84,756.73 927.28,756.87 928.73,756.63 930.17,756.54 931.61,756.55 933.05,756.05 934.49,755.30 935.94,755.86 937.38,755.74 938.82,755.65 940.26,755.40 941.71,755.35 943.15,755.52 944.59,755.36 946.03,756.17 947.48,756.13 948.92,756.26 950.36,756.28 951.80,756.57 953.24,756.54 954.69,756.87 956.13,757.42 957.57,757.43 959.01,757.59 960.46,757.85 961.90,758.36 963.34,758.64 964.78,759.17 966.23,759.65 967.67,759.02 969.11,758.25 970.55,757.79 971.99,758.06 973.44,758.18 974.88,758.26 976.32,758.13 977.76,757.41 979.21,756.99 980.65,757.19 982.09,757.10 983.53,756.64 984.98,755.79 986.42,756.03 987.86,755.60 989.30,755.85 990.74,756.35 992.19,756.70 993.63,756.65 995.07,757.23 996.51,757.75 997.96,758.19 999.40,758.27 1000.84,758.89 1002.28,759.12 1003.73,758.73 1005.17,758.21 1006.61,757.62 1008.05,758.16 1009.49,758.93 1010.94,759.77 1012.38,760.63 1013.82,761.95 1015.26,762.72 1016.71,763.02 1018.15,763.17 1019.59,762.63 1021.03,762.52 1022.48,762.10 1023.92,762.09 1025.36,762.40 1026.80,762.42 1028.24,762.67 1029.69,761.92 1031.13,761.61 1032.57,761.73 1034.01,761.67 1035.46,761.43 1036.90,761.95 1038.34,762.36 1039.78,763.08 1041.22,763.50 1042.67,764.01 1044.11,764.44 1045.55,765.48 1046.99,767.00 1048.44,767.87 1049.88,769.39 1051.32,771.57 1052.76,771.65 1054.21,768.25 1055.65,763.18 1057.09,761.89 1058.53,762.31 1059.97,761.29 1061.42,761.21 1062.86,762.22 1064.30,762.39 1065.74,762.16 1067.19,760.51 1068.63,759.11 1070.07,758.68 1071.51,757.60" fill="none" stroke="#dc2626" stroke-width="1.4" />
<line x1="72.00" y1="795" x2="72.00" y2="802" stroke="#666" />
<text x="60.00" y="815" font-family="Arial" font-size="10" fill="#666">0.0s</text>
<line x1="238.67" y1="795" x2="238.67" y2="802" stroke="#666" />
<text x="226.67" y="815" font-family="Arial" font-size="10" fill="#666">1.2s</text>
<line x1="405.33" y1="795" x2="405.33" y2="802" stroke="#666" />
<text x="393.33" y="815" font-family="Arial" font-size="10" fill="#666">2.3s</text>
<line x1="572.00" y1="795" x2="572.00" y2="802" stroke="#666" />
<text x="560.00" y="815" font-family="Arial" font-size="10" fill="#666">3.5s</text>
<line x1="738.67" y1="795" x2="738.67" y2="802" stroke="#666" />
<text x="726.67" y="815" font-family="Arial" font-size="10" fill="#666">4.6s</text>
<line x1="905.33" y1="795" x2="905.33" y2="802" stroke="#666" />
<text x="893.33" y="815" font-family="Arial" font-size="10" fill="#666">5.8s</text>
<line x1="1072.00" y1="795" x2="1072.00" y2="802" stroke="#666" />
<text x="1060.00" y="815" font-family="Arial" font-size="10" fill="#666">6.9s</text>
</svg>