<svg xmlns="http://www.w3.org/2000/svg" width="1100" height="700" viewBox="0 0 1100 700">
<rect width="100%" height="100%" fill="#ffffff" />
<text x="70" y="34" font-family="Arial" font-size="22" font-weight="700">05_twinkle_twinkle</text>
<text x="20" y="88" font-family="Arial" font-size="13" fill="#333">Waveform</text>
<rect x="70" y="70" width="1000" height="140" fill="#fafafa" stroke="#ddd" />
<text x="20" y="273" font-family="Arial" font-size="13" fill="#333">Voiced / Breath / Onset</text>
<rect x="70" y="255" width="1000" height="120" fill="#fafafa" stroke="#ddd" />
<text x="20" y="443" font-family="Arial" font-size="13" fill="#333">F0 / Pitch curve</text>
<rect x="70" y="425" width="1000" height="210" fill="#fafafa" stroke="#ddd" />
<polyline points="70.00,140.00 70.62,140.00 71.25,140.00 71.87,140.00 72.50,140.00 73.12,140.00 73.75,140.00 74.37,140.00 74.99,140.00 75.62,140.00 76.24,140.00 76.87,139.87 77.50,139.54 78.12,140.12 78.75,140.19 79.37,140.00 80.00,139.92 80.62,140.03 81.24,139.95 81.87,140.33 82.49,140.40 83.12,140.52 83.75,140.25 84.37,139.69 85.00,138.44 85.62,143.84 86.25,136.87 86.87,140.48 87.49,139.41 88.12,141.02 88.74,143.03 89.37,139.04 90.00,136.81 90.62,140.34 91.25,140.35 91.87,139.98 92.50,142.96 93.12,143.59 93.74,137.82 94.37,137.88 94.99,142.03 95.62,140.82 96.25,140.77 96.87,138.49 97.50,137.61 98.12,138.30 98.75,141.14 99.37,139.65 99.99,137.96 100.62,140.73 101.24,142.41 101.87,138.01 102.50,140.66 103.12,142.57 103.75,140.29 104.37,138.88 105.00,138.85 105.62,138.69 106.24,141.94 106.87,142.98 107.49,137.11 108.12,139.74 108.75,140.00 109.37,139.63 110.00,140.08 110.62,143.08 111.25,138.54 111.87,140.63 112.49,139.48 113.12,140.48 113.74,139.11 114.37,140.16 115.00,141.75 115.62,137.00 116.25,140.07 116.87,141.41 117.50,140.51 118.12,138.18 118.74,142.01 119.37,141.85 119.99,136.90 120.62,139.41 121.25,140.84 121.87,140.18 122.50,137.62 123.12,140.86 123.75,142.78 124.37,140.41 124.99,136.84 125.62,141.89 126.24,141.01 126.87,139.36 127.50,138.48 128.12,141.69 128.75,139.35 129.37,139.55 130.00,141.22 130.62,140.87 131.24,138.30 131.87,138.31 132.49,142.29 133.12,138.76 133.75,136.94 134.37,143.59 135.00,140.26 135.62,137.49 136.25,143.35 136.87,139.55 137.49,139.51 138.12,138.70 138.74,140.83 139.37,139.88 140.00,139.27 140.62,142.58 141.25,138.95 141.87,132.51 142.50,144.02 143.12,140.27 143.74,134.28 144.37,140.47 144.99,142.26 145.62,139.05 146.25,139.46 146.87,140.22 147.50,139.22 148.12,139.86 148.75,140.12 149.37,141.72 149.99,140.32 150.62,137.43 151.24,140.02 151.87,141.16 152.50,140.31 153.12,140.62 153.75,146.44 154.37,146.65 155.00,122.51 155.62,154.02 156.24,113.35 156.87,147.30 157.49,158.52 158.12,160.86 158.75,143.22 159.37,124.46 160.00,138.72 160.62,126.44 161.25,159.70 161.87,158.80 162.49,121.15 163.12,141.32 163.74,111.53 164.37,149.68 165.00,161.04 165.62,146.99 166.25,129.50 166.87,117.85 167.50,145.22 168.12,161.24 168.74,142.36 169.37,135.59 169.99,111.91 170.62,147.14 171.25,164.42 171.87,139.98 172.50,134.38 173.12,117.48 173.75,150.96 174.37,162.56 174.99,134.93 175.62,135.47 176.24,116.03 176.87,149.77 177.50,160.55 178.12,133.73 178.75,133.92 179.37,116.18 180.00,152.35 180.62,162.00 181.24,130.36 181.87,134.98 182.49,118.50 183.12,153.94 183.75,158.20 184.37,128.40 185.00,124.88 185.62,137.23 186.25,151.39 186.87,155.07 187.49,132.46 188.12,121.27 188.74,142.65 189.37,153.90 190.00,143.77 190.62,121.85 191.25,138.44 191.87,150.48 192.50,144.21 193.12,128.36 193.74,139.03 194.37,145.63 194.99,133.61 195.62,139.48 196.25,141.31 196.87,139.75 197.50,138.18 198.12,140.80 198.75,142.80 199.37,136.68 199.99,140.97 200.62,139.93 201.24,140.94 201.87,136.72 202.50,138.90 203.12,140.36 203.75,135.77 204.37,136.09 205.00,138.11 205.62,143.90 206.24,136.47 206.87,139.35 207.49,139.06 208.12,147.15 208.75,146.21 209.37,147.21 210.00,121.88 210.62,112.10 211.25,155.81 211.87,147.12 212.49,154.26 213.12,122.09 213.74,146.42 214.37,105.25 215.00,168.58 215.62,148.67 216.25,107.22 216.87,155.99 217.50,102.51 218.12,168.02 218.74,145.25 219.37,122.05 219.99,152.67 220.62,103.70 221.25,166.76 221.87,149.54 222.50,109.82 223.12,160.10 223.75,100.00 224.37,165.41 224.99,162.65 225.62,98.45 226.24,154.45 226.87,111.28 227.50,152.99 228.12,165.97 228.75,111.10 229.37,141.66 230.00,118.56 230.62,141.98 231.24,160.01 231.87,135.27 232.49,144.20 233.12,111.67 233.75,144.93 234.37,158.13 235.00,138.77 235.62,148.25 236.25,116.97 236.87,134.03 237.49,156.11 238.12,148.10 238.74,137.70 239.37,130.78 240.00,122.87 240.62,155.92 241.25,151.56 241.87,133.46 242.50,142.38 243.12,112.94 243.74,149.74 244.37,156.60 244.99,134.11 245.62,144.60 246.25,120.49 246.87,146.56 247.50,147.44 248.12,139.82 248.75,148.85 249.37,125.58 249.99,143.04 250.62,142.28 251.24,139.97 251.87,138.41 252.50,143.40 253.12,135.60 253.75,139.49 254.37,141.34 255.00,142.01 255.62,139.17 256.24,140.44 256.87,139.85 257.49,139.48 258.12,138.92 258.75,149.09 259.37,140.14 260.00,141.18 260.62,141.70 261.25,140.56 261.87,137.78 262.49,139.18 263.12,141.12 263.74,139.26 264.37,138.31 265.00,140.48 265.62,139.07 266.25,139.43 266.87,142.02 267.50,139.27 268.12,138.73 268.74,141.71 269.37,137.17 269.99,143.06 270.62,142.11 271.25,149.39 271.87,158.45 272.50,160.89 273.12,153.67 273.75,149.26 274.37,122.96 274.99,107.54 275.62,110.99 276.24,116.50 276.87,135.83 277.50,141.02 278.12,131.26 278.75,120.08 279.37,117.34 280.00,138.32 280.62,143.29 281.24,155.02 281.87,168.60 282.49,172.13 283.12,157.83 283.75,151.90 284.37,114.68 285.00,103.39 285.62,121.62 286.25,140.26 286.87,138.12 287.49,135.17 288.12,146.02 288.74,160.06 289.37,165.05 290.00,145.26 290.62,118.67 291.25,110.87 291.87,123.35 292.50,139.40 293.12,144.04 293.74,149.64 294.37,153.53 294.99,162.74 295.62,151.13 296.25,117.22 296.87,110.13 297.50,127.40 298.12,138.67 298.75,146.00 299.37,150.70 299.99,155.72 300.62,159.86 301.24,153.55 301.87,116.80 302.50,112.65 303.12,124.77 303.75,139.19 304.37,145.92 305.00,148.90 305.62,153.66 306.24,160.93 306.87,158.31 307.49,145.51 308.12,128.93 308.75,120.21 309.37,115.40 310.00,118.02 310.62,129.24 311.25,135.34 311.87,138.94 312.49,136.49 313.12,140.03 313.74,136.18 314.37,137.53 315.00,136.39 315.62,140.31 316.25,143.89 316.87,139.31 317.50,141.16 318.12,137.20 318.74,143.64 319.37,142.49 319.99,138.26 320.62,139.60 321.25,139.76 321.87,140.00 322.50,140.06 323.12,138.81 323.75,143.88 324.37,136.90 324.99,142.80 325.62,139.17 326.24,138.07 326.87,134.43 327.50,138.34 328.12,149.13 328.75,153.72 329.37,168.43 330.00,121.39 330.62,110.67 331.24,162.28 331.87,133.79 332.49,148.76 333.12,175.69 333.75,140.04 334.37,95.27 335.00,143.83 335.62,152.99 336.25,119.29 336.87,158.46 337.49,171.45 338.12,142.80 338.74,105.81 339.37,120.66 340.00,165.23 340.62,131.76 341.25,131.62 341.87,165.36 342.50,163.50 343.12,141.90 343.74,88.91 344.37,133.05 344.99,170.33 345.62,136.44 346.25,140.98 346.87,171.35 347.50,152.72 348.12,85.61 348.75,124.64 349.37,171.76 349.99,134.18 350.62,141.20 351.24,170.99 351.87,152.07 352.50,85.89 353.12,122.90 353.75,172.15 354.37,140.44 355.00,132.72 355.62,168.46 356.24,161.29 356.87,92.63 357.49,108.81 358.12,167.75 358.75,146.17 359.37,130.99 360.00,163.53 360.62,166.23 361.25,96.60 361.87,108.53 362.49,166.57 363.12,150.75 363.74,127.15 364.37,160.96 365.00,164.11 365.62,117.80 366.25,96.53 366.87,145.13 367.50,160.22 368.12,142.20 368.74,139.44 369.37,164.27 369.99,153.46 370.62,103.93 371.25,120.80 371.87,160.19 372.50,147.70 373.12,138.70 373.75,158.12 374.37,151.02 374.99,97.07 375.62,135.64 376.24,166.39 376.87,125.64 377.50,164.40 378.12,161.29 378.75,98.48 379.37,129.77 380.00,164.20 380.62,119.96 381.24,171.24 381.87,157.72 382.49,75.46 383.12,157.91 383.75,140.76 384.37,146.15 385.00,175.57 385.62,82.21 386.25,147.24 386.87,151.88 387.49,154.93 388.12,155.36 388.74,75.72 389.37,174.19 390.00,134.97 390.62,179.96 391.25,89.88 391.87,144.73 392.50,147.72 393.12,166.95 393.74,132.51 394.37,106.76 394.99,174.60 395.62,142.21 396.25,168.52 396.87,70.00 397.50,168.18 398.12,148.42 398.75,160.74 399.37,136.52 399.99,86.58 400.62,160.77 401.24,164.47 401.87,139.30 402.50,146.20 403.12,141.88 403.75,142.58 404.37,144.36 405.00,138.33 405.62,140.97 406.24,143.47 406.87,140.08 407.49,139.91 408.12,141.13 408.75,139.36 409.37,142.43 410.00,139.04 410.62,140.88 411.25,138.50 411.87,143.34 412.49,138.29 413.12,137.68 413.74,141.78 414.37,140.56 415.00,139.75 415.62,137.57 416.25,144.27 416.87,137.75 417.50,141.22 418.12,142.10 418.74,143.56 419.37,145.22 419.99,127.75 420.62,125.93 421.25,151.10 421.87,165.21 422.50,98.48 423.12,154.55 423.75,140.99 424.37,167.95 424.99,89.23 425.62,157.03 426.24,137.97 426.87,171.48 427.50,92.67 428.12,149.24 428.75,136.25 429.37,169.77 430.00,125.13 430.62,131.19 431.24,140.65 431.87,162.39 432.49,154.28 433.12,92.43 433.75,157.81 434.37,145.97 435.00,161.78 435.62,96.43 436.25,151.52 436.87,149.00 437.49,164.31 438.12,88.07 438.74,155.69 439.37,146.66 440.00,166.49 440.62,85.01 441.25,161.18 441.87,143.92 442.50,166.16 443.12,87.67 443.74,154.43 444.37,148.47 444.99,159.90 445.62,100.91 446.25,145.16 446.87,156.08 447.50,153.77 448.12,127.07 448.75,118.46 449.37,166.59 449.99,143.79 450.62,150.05 451.24,96.80 451.87,154.30 452.50,151.92 453.12,147.77 453.75,127.41 454.37,114.49 455.00,163.81 455.62,142.61 456.24,147.37 456.87,106.00 457.49,150.04 458.12,155.43 458.75,147.98 459.37,120.09 460.00,133.71 460.62,159.85 461.25,140.78 461.87,139.40 462.49,121.06 463.12,152.13 463.74,145.78 464.37,147.37 465.00,129.28 465.62,139.76 466.25,138.72 466.87,143.95 467.50,137.57 468.12,136.59 468.74,142.92 469.37,140.29 469.99,138.13 470.62,137.65 471.25,145.58 471.87,138.58 472.50,139.18 473.12,139.04 473.75,142.44 474.37,140.46 474.99,137.43 475.62,141.59 476.24,140.86 476.87,141.11 477.50,138.51 478.12,139.38 478.75,140.20 479.37,142.42 480.00,139.10 480.62,135.41 481.24,142.33 481.87,140.03 482.49,138.98 483.12,136.98 483.75,143.85 484.37,141.46 485.00,138.35 485.62,139.63 486.25,141.47 486.87,139.14 487.49,137.18 488.12,139.46 488.74,141.19 489.37,139.05 490.00,143.07 490.62,134.43 491.25,129.75 491.87,148.36 492.50,139.77 493.12,136.92 493.74,147.48 494.37,167.81 494.99,164.85 495.62,160.36 496.25,149.70 496.87,126.50 497.50,92.16 498.12,127.50 498.75,153.74 499.37,139.51 499.99,133.33 500.62,148.06 501.24,159.31 501.87,152.29 502.50,152.03 503.12,107.51 503.75,105.94 504.37,155.67 505.00,134.27 505.62,127.28 506.24,145.26 506.87,159.49 507.49,162.76 508.12,151.52 508.75,132.61 509.37,103.41 510.00,135.69 510.62,153.63 511.25,125.46 511.87,136.05 512.49,153.79 513.12,158.80 513.74,154.13 514.37,149.60 515.00,133.03 515.62,101.42 516.25,135.13 516.87,147.79 517.50,132.14 518.12,135.24 518.74,151.11 519.37,163.77 519.99,151.78 520.62,141.72 521.25,107.51 521.87,127.50 522.50,149.50 523.12,125.95 523.75,145.47 524.37,158.35 524.99,159.95 525.62,148.18 526.24,115.29 526.87,117.17 527.50,148.26 528.12,137.92 528.75,136.57 529.37,155.49 530.00,157.45 530.62,148.62 531.24,114.68 531.87,115.36 532.49,148.09 533.12,141.10 533.75,131.84 534.37,143.61 535.00,160.27 535.62,158.32 536.25,150.77 536.87,120.91 537.49,118.20 538.12,135.33 538.74,147.92 539.37,136.64 540.00,138.01 540.62,123.79 541.25,198.31 541.87,165.87 542.50,93.51 543.12,83.49 543.74,156.71 544.37,168.17 544.99,98.50 545.62,161.61 546.25,174.06 546.87,125.07 547.50,78.91 548.12,164.58 548.75,173.78 549.37,117.59 549.99,144.23 550.62,154.00 551.24,155.25 551.87,127.21 552.50,153.80 553.12,148.62 553.75,130.81 554.37,133.92 555.00,148.30 555.62,143.31 556.24,138.19 556.87,143.43 557.49,135.46 558.12,139.37 558.75,142.39 559.37,149.58 560.00,134.16 560.62,140.03 561.25,142.21 561.87,135.47 562.49,142.67 563.12,148.28 563.74,133.74 564.37,138.56 565.00,140.47 565.62,145.77 566.25,134.72 566.87,141.74 567.50,138.17 568.12,143.13 568.74,139.31 569.37,141.71 569.99,139.43 570.62,140.28 571.24,142.44 571.87,136.94 572.50,138.06 573.12,144.13 573.75,140.48 574.37,134.74 574.99,142.59 575.62,141.04 576.24,138.00 576.87,140.65 577.49,142.17 578.12,139.79 578.75,139.81 579.37,142.20 580.00,137.82 580.62,142.44 581.24,143.13 581.87,139.66 582.49,136.21 583.12,143.15 583.74,142.83 584.37,141.66 585.00,135.48 585.62,142.45 586.25,137.67 586.87,140.72 587.49,138.56 588.12,138.17 588.74,139.80 589.37,141.28 589.99,138.89 590.62,140.48 591.25,141.34 591.87,141.41 592.50,138.52 593.12,139.90 593.74,138.38 594.37,143.46 594.99,140.63 595.62,136.33 596.24,143.73 596.87,139.23 597.50,143.27 598.12,135.35 598.75,143.35 599.37,141.00 599.99,136.56 600.62,139.18 601.24,142.90 601.87,137.68 602.49,139.23 603.12,140.54 603.75,140.44 604.37,135.48 605.00,143.47 605.62,142.68 606.24,136.97 606.87,141.19 607.49,141.56 608.12,140.58 608.74,139.34 609.37,141.58 610.00,137.31 610.62,142.57 611.25,138.60 611.87,140.52 612.49,137.48 613.12,142.41 613.74,140.03 614.37,138.63 614.99,137.87 615.62,143.31 616.25,136.76 616.87,142.16 617.50,150.35 618.12,154.77 618.74,148.56 619.37,139.87 619.99,147.57 620.62,130.86 621.24,157.68 621.87,107.13 622.50,132.63 623.12,141.57 623.75,164.54 624.37,160.49 624.99,155.13 625.62,131.92 626.24,139.11 626.87,152.20 627.49,129.78 628.12,107.84 628.75,144.58 629.37,156.87 630.00,156.65 630.62,107.49 631.24,77.90 631.87,104.71 632.49,143.78 633.12,146.56 633.74,149.35 634.37,168.47 635.00,162.26 635.62,155.27 636.25,146.07 636.87,154.24 637.49,157.54 638.12,172.71 638.74,160.15 639.37,130.67 639.99,99.80 640.62,100.83 641.25,127.98 641.87,151.88 642.50,168.94 643.12,160.82 643.74,156.03 644.37,140.74 644.99,136.84 645.62,116.79 646.24,105.84 646.87,92.51 647.50,85.66 648.12,87.06 648.75,85.01 649.37,97.73 649.99,105.21 650.62,115.03 651.24,138.97 651.87,157.02 652.49,147.27 653.12,131.28 653.75,129.90 654.37,140.88 655.00,146.48 655.62,153.34 656.24,163.29 656.87,161.19 657.49,166.59 658.12,172.07 658.74,188.67 659.37,186.66 660.00,190.18 660.62,200.71 661.25,197.01 661.87,187.24 662.49,178.29 663.12,184.75 663.74,178.02 664.37,169.72 664.99,168.94 665.62,169.39 666.25,173.33 666.87,159.96 667.50,172.12 668.12,173.03 668.74,169.59 669.37,170.59 669.99,174.02 670.62,178.47 671.24,179.44 671.87,186.65 672.50,184.47 673.12,177.97 673.75,173.36 674.37,176.08 674.99,178.21 675.62,178.25 676.24,173.17 676.87,166.72 677.49,165.84 678.12,165.78 678.75,158.99 679.37,163.17 680.00,165.50 680.62,161.11 681.24,164.08 681.87,165.46 682.49,170.23 683.12,165.72 683.74,171.65 684.37,170.18 685.00,170.50 685.62,166.07 686.25,164.39 686.87,157.85 687.49,160.02 688.12,157.93 688.74,154.62 689.37,152.46 689.99,143.64 690.62,138.88 691.25,130.68 691.87,119.44 692.50,120.24 693.12,124.88 693.74,131.09 694.37,137.22 694.99,145.44 695.62,151.14 696.24,147.31 696.87,146.89 697.50,150.54 698.12,140.74 698.75,140.22 699.37,130.82 699.99,126.72 700.62,122.87 701.24,111.64 701.87,110.59 702.49,106.73 703.12,103.31 703.75,101.38 704.37,91.11 705.00,94.48 705.62,96.41 706.24,95.96 706.87,96.80 707.49,103.12 708.12,99.58 708.74,100.19 709.37,100.02 710.00,102.50 710.62,102.17 711.25,110.36 711.87,106.82 712.49,109.07 713.12,115.45 713.74,127.27 714.37,128.33 714.99,135.76 715.62,140.68 716.25,136.63 716.87,142.86 717.50,142.99 718.12,147.90 718.74,141.17 719.37,149.82 719.99,148.04 720.62,153.24 721.24,154.56 721.87,161.77 722.50,154.39 723.12,153.60 723.75,145.63 724.37,145.14 724.99,151.98 725.62,146.88 726.24,126.69 726.87,138.59 727.49,151.22 728.12,151.34 728.75,141.92 729.37,133.91 730.00,130.06 730.62,146.47 731.24,151.20 731.87,133.81 732.49,135.59 733.12,124.24 733.74,149.21 734.37,154.66 735.00,131.06 735.62,144.86 736.25,143.64 736.87,108.61 737.49,138.95 738.12,148.98 738.74,158.24 739.37,160.35 739.99,131.08 740.62,127.13 741.25,144.49 741.87,152.21 742.50,134.69 743.12,104.08 743.74,118.37 744.37,138.37 744.99,146.70 745.62,156.16 746.24,153.77 746.87,156.19 747.50,151.50 748.12,149.55 748.75,145.21 749.37,136.26 749.99,132.95 750.62,146.24 751.24,151.15 751.87,150.58 752.49,126.30 753.12,111.83 753.75,105.90 754.37,136.44 755.00,146.07 755.62,154.47 756.24,148.77 756.87,155.07 757.49,146.97 758.12,140.44 758.74,137.02 759.37,136.77 760.00,141.62 760.62,149.66 761.25,140.83 761.87,114.03 762.49,112.95 763.12,121.04 763.74,144.33 764.37,143.76 764.99,155.29 765.62,158.50 766.25,147.38 766.87,141.05 767.50,137.60 768.12,140.23 768.74,145.51 769.37,139.98 769.99,129.09 770.62,119.12 771.24,127.64 771.87,144.39 772.50,154.69 773.12,156.96 773.75,148.83 774.37,144.10 774.99,142.41 775.62,142.94 776.24,143.81 776.87,141.57 777.49,132.12 778.12,119.20 778.75,118.29 779.37,137.01 780.00,151.83 780.62,157.60 781.24,153.52 781.87,147.24 782.49,138.81 783.12,142.97 783.74,142.49 784.37,127.91 785.00,120.06 785.62,126.22 786.25,150.42 786.87,151.62 787.49,145.04 788.12,141.80 788.74,135.82 789.37,133.44 789.99,145.14 790.62,138.57 791.25,140.59 791.87,146.32 792.50,153.53 793.12,137.06 793.74,137.43 794.37,153.98 794.99,160.07 795.62,150.27 796.24,123.93 796.87,106.29 797.50,104.64 798.12,136.40 798.75,147.09 799.37,148.96 799.99,158.87 800.62,154.86 801.24,151.32 801.87,132.75 802.49,123.86 803.12,135.13 803.75,151.02 804.37,161.87 805.00,150.54 805.62,119.58 806.24,104.23 806.87,109.13 807.49,142.54 808.12,151.35 808.74,152.80 809.37,156.11 810.00,150.62 810.62,142.14 811.25,130.24 811.87,128.90 812.49,145.79 813.12,161.84 813.74,149.12 814.37,120.49 814.99,105.08 815.62,130.61 816.25,144.75 816.87,161.57 817.50,163.39 818.12,146.63 818.74,127.81 819.37,124.95 819.99,144.71 820.62,158.66 821.24,148.10 821.87,118.29 822.50,109.57 823.12,131.46 823.75,150.65 824.37,162.73 824.99,163.08 825.62,139.61 826.24,128.94 826.87,132.41 827.49,156.35 828.12,156.30 828.75,134.86 829.37,112.98 830.00,115.78 830.62,138.95 831.24,157.21 831.87,165.35 832.49,151.44 833.12,134.65 833.74,127.47 834.37,144.84 835.00,151.20 835.62,144.86 836.25,123.89 836.87,110.33 837.49,134.40 838.12,142.96 838.74,159.05 839.37,154.89 839.99,143.54 840.62,140.43 841.25,146.40 841.87,141.84 842.50,128.65 843.12,131.89 843.74,140.60 844.37,145.89 844.99,149.62 845.62,142.18 846.24,134.72 846.87,133.45 847.50,142.66 848.12,145.27 848.75,143.15 849.37,135.58 849.99,132.11 850.62,137.42 851.24,149.29 851.87,147.18 852.49,135.19 853.12,130.89 853.75,139.14 854.37,147.48 855.00,149.75 855.62,142.07 856.24,131.63 856.87,122.37 857.49,138.41 858.12,152.82 858.74,153.49 859.37,139.77 860.00,127.57 860.62,129.25 861.25,148.97 861.87,150.30 862.49,138.97 863.12,129.56 863.74,124.68 864.37,146.68 864.99,152.77 865.62,139.50 866.25,132.06 866.87,136.77 867.50,141.84 868.12,157.46 868.74,141.93 869.37,136.06 869.99,142.32 870.62,108.12 871.24,151.95 871.87,151.63 872.50,146.99 873.12,128.86 873.75,143.28 874.37,110.24 874.99,153.72 875.62,153.92 876.24,145.47 876.87,122.84 877.49,144.34 878.12,111.69 878.75,150.36 879.37,152.53 880.00,147.90 880.62,132.48 881.24,143.26 881.87,120.30 882.49,152.97 883.12,150.85 883.74,134.18 884.37,138.96 885.00,127.92 885.62,141.85 886.25,148.32 886.87,152.14 887.49,128.61 888.12,143.11 888.74,116.42 889.37,148.78 889.99,151.16 890.62,152.43 891.25,127.47 891.87,143.12 892.50,118.58 893.12,145.28 893.74,153.44 894.37,150.46 894.99,131.17 895.62,137.86 896.24,120.92 896.87,148.46 897.50,158.57 898.12,135.71 898.75,142.66 899.37,129.56 899.99,123.88 900.62,148.67 901.24,155.43 901.87,138.06 902.49,140.98 903.12,120.78 903.75,143.76 904.37,148.47 905.00,143.47 905.62,134.02 906.24,132.90 906.87,145.07 907.49,141.80 908.12,145.20 908.74,131.84 909.37,137.77 910.00,141.08 910.62,146.02 911.25,139.23 911.87,129.11 912.49,138.77 913.12,149.57 913.74,143.58 914.37,141.66 914.99,141.60 915.62,120.38 916.25,130.93 916.87,155.54 917.50,150.41 918.12,128.17 918.74,150.71 919.37,138.37 919.99,113.15 920.62,144.60 921.24,163.57 921.87,141.28 922.50,127.68 923.12,153.65 923.75,126.12 924.37,125.76 924.99,147.29 925.62,163.43 926.24,126.51 926.87,144.73 927.49,137.27 928.12,120.72 928.75,143.45 929.37,164.05 930.00,131.79 930.62,144.46 931.24,136.55 931.87,119.57 932.49,150.72 933.12,157.94 933.74,126.69 934.37,146.18 935.00,120.27 935.62,144.23 936.25,153.95 936.87,130.32 937.49,153.90 938.12,117.79 938.74,142.39 939.37,157.21 939.99,133.33 940.62,148.96 941.25,117.82 941.87,143.37 942.50,159.40 943.12,127.53 943.74,155.69 944.37,118.25 944.99,142.96 945.62,156.64 946.24,131.49 946.87,152.83 947.50,118.01 948.12,145.88 948.75,155.22 949.37,131.42 949.99,152.42 950.62,114.29 951.24,144.30 951.87,155.17 952.49,130.44 953.12,145.26 953.75,117.46 954.37,146.78 955.00,148.89 955.62,135.53 956.24,135.63 956.87,130.73 957.49,150.42 958.12,144.20 958.74,145.59 959.37,126.09 960.00,143.33 960.62,153.60 961.25,139.05 961.87,147.75 962.49,116.61 963.12,145.20 963.74,153.56 964.37,127.64 964.99,141.43 965.62,131.75 966.25,150.43 966.87,138.83 967.50,151.21 968.12,119.79 968.74,140.18 969.37,149.06 969.99,140.26 970.62,126.39 971.24,142.94 971.87,153.86 972.50,136.56 973.12,127.62 973.75,149.81 974.37,152.38 974.99,139.02 975.62,104.41 976.24,150.23 976.87,148.29 977.49,136.81 978.12,147.22 978.75,137.43 979.37,152.55 980.00,94.61 980.62,159.44 981.24,134.61 981.87,146.01 982.49,147.01 983.12,142.79 983.74,127.25 984.37,101.12 985.00,157.30 985.62,144.79 986.25,134.71 986.87,122.37 987.49,157.65 988.12,141.52 988.74,130.00 989.37,116.52 989.99,158.05 990.62,137.51 991.25,121.80 991.87,121.88 992.50,152.54 993.12,144.19 993.74,133.97 994.37,144.22 994.99,136.63 995.62,152.37 996.24,144.53 996.87,137.06 997.50,117.35 998.12,146.61 998.75,147.28 999.37,136.21 999.99,137.49 1000.62,136.04 1001.24,158.11 1001.87,138.60 1002.49,133.33 1003.12,126.78 1003.75,147.56 1004.37,138.78 1005.00,136.59 1005.62,141.37 1006.24,139.27 1006.87,147.42 1007.49,145.16 1008.12,135.85 1008.74,120.91 1009.37,145.06 1010.00,143.90 1010.62,139.98 1011.25,134.50 1011.87,135.20 1012.49,153.76 1013.12,144.54 1013.74,132.29 1014.37,123.41 1014.99,156.78 1015.62,142.89 1016.25,130.63 1016.87,137.91 1017.50,142.77 1018.12,143.17 1018.74,141.35 1019.37,144.33 1019.99,124.94 1020.62,149.21 1021.24,144.62 1021.87,140.53 1022.50,126.87 1023.12,141.58 1023.75,150.22 1024.37,141.44 1024.99,133.61 1025.62,129.99 1026.24,152.64 1026.87,142.00 1027.49,133.10 1028.12,138.80 1028.75,138.55 1029.37,143.89 1030.00,144.91 1030.62,146.38 1031.24,123.26 1031.87,140.48 1032.49,153.47 1033.12,138.93 1033.74,131.62 1034.37,134.61 1035.00,146.54 1035.62,146.79 1036.25,137.17 1036.87,135.96 1037.49,141.13 1038.12,139.89 1038.74,141.04 1039.37,139.05 1039.99,140.13 1040.62,139.65 1041.25,138.74 1041.87,140.95 1042.50,141.01 1043.12,135.29 1043.74,141.52 1044.37,139.85 1044.99,140.42 1045.62,135.20 1046.24,143.96 1046.87,142.47 1047.50,135.39 1048.12,140.10 1048.75,142.33 1049.37,142.52 1049.99,133.57 1050.62,143.31 1051.24,142.76 1051.87,138.39 1052.49,135.99 1053.12,146.10 1053.75,139.27 1054.37,136.51 1055.00,139.13 1055.62,144.09 1056.24,141.29 1056.87,142.75 1057.49,139.08 1058.12,143.98 1058.74,135.66 1059.37,137.18 1060.00,145.56 1060.62,140.19 1061.25,136.78 1061.87,139.66 1062.49,145.74 1063.12,139.08 1063.74,134.86 1064.37,144.27 1064.99,141.81 1065.62,135.00 1066.25,137.57 1066.87,147.82 1067.50,136.62 1068.12,139.98 1068.74,140.00 1069.37,140.00" fill="none" stroke="#315efb" stroke-width="1.0" />
<line x1="70" y1="140.00" x2="1070" y2="140.00" stroke="#bbb" stroke-width="1" />
<text x="70" y="273" font-family="Arial" font-size="12" fill="#555">voiced</text>
<line x1="70" y1="280" x2="1070" y2="280" stroke="#ddd" />
<rect x="70.00" y="271" width="1.17" height="18" fill="#16803c" opacity="0.75" />
<rect x="81.68" y="271" width="61.92" height="18" fill="#16803c" opacity="0.75" />
<rect x="149.44" y="271" width="170.56" height="18" fill="#16803c" opacity="0.75" />
<rect x="321.17" y="271" width="88.79" height="18" fill="#16803c" opacity="0.75" />
<rect x="414.63" y="271" width="58.41" height="18" fill="#16803c" opacity="0.75" />
<rect x="487.06" y="271" width="98.13" height="18" fill="#16803c" opacity="0.75" />
<rect x="595.70" y="271" width="11.68" height="18" fill="#16803c" opacity="0.75" />
<rect x="614.39" y="271" width="442.76" height="18" fill="#16803c" opacity="0.75" />
<text x="70" y="308" font-family="Arial" font-size="12" fill="#555">breath</text>
<line x1="70" y1="315" x2="1070" y2="315" stroke="#ddd" />
<rect x="149.44" y="306" width="132.01" height="18" fill="#d97706" opacity="0.75" />
<rect x="619.07" y="306" width="7.01" height="18" fill="#d97706" opacity="0.75" />
<rect x="733.55" y="306" width="8.18" height="18" fill="#d97706" opacity="0.75" />
<rect x="855.05" y="306" width="57.24" height="18" fill="#d97706" opacity="0.75" />
<rect x="934.49" y="306" width="107.48" height="18" fill="#d97706" opacity="0.75" />
<text x="70" y="343" font-family="Arial" font-size="12" fill="#555">onset</text>
<line x1="70" y1="350" x2="1070" y2="350" stroke="#ddd" />
<rect x="70.00" y="341" width="86.45" height="18" fill="#be123c" opacity="0.75" />
<rect x="192.66" y="341" width="16.36" height="18" fill="#be123c" opacity="0.75" />
<rect x="254.58" y="341" width="18.69" height="18" fill="#be123c" opacity="0.75" />
<rect x="317.66" y="341" width="9.35" height="18" fill="#be123c" opacity="0.75" />
<rect x="406.45" y="341" width="3.50" height="18" fill="#be123c" opacity="0.75" />
<rect x="411.12" y="341" width="7.01" height="18" fill="#be123c" opacity="0.75" />
<rect x="471.87" y="341" width="19.86" height="18" fill="#be123c" opacity="0.75" />
<rect x="538.46" y="341" width="80.61" height="18" fill="#be123c" opacity="0.75" />
<rect x="850.37" y="341" width="7.01" height="18" fill="#be123c" opacity="0.75" />
<rect x="1010.42" y="341" width="59.58" height="18" fill="#be123c" opacity="0.75" />
<polyline points="70.00,611.64 81.68,609.97 82.85,609.97 84.02,628.05 85.19,628.05 86.36,628.05 87.52,628.05 88.69,628.05 89.86,628.05 91.03,628.05 92.20,628.05 93.36,628.05 94.53,628.05 95.70,628.05 96.87,628.05 98.04,614.89 99.21,614.89 100.37,614.89 101.54,614.89 102.71,629.37 103.88,629.37 105.05,629.37 106.21,629.37 107.38,629.37 108.55,629.37 109.72,628.05 110.89,628.05 112.06,628.05 113.22,628.05 114.39,628.05 115.56,614.89 116.73,614.89 117.90,611.64 119.07,609.97 120.23,609.97 121.40,609.97 122.57,609.97 123.74,609.97 124.91,611.64 126.07,611.64 127.24,609.97 128.41,609.97 129.58,609.97 130.75,609.97 131.92,609.97 133.08,608.27 134.25,608.27 135.42,608.27 136.59,608.27 137.76,608.27 138.93,608.27 140.09,608.27 141.26,609.97 142.43,609.97 149.44,613.28 150.61,613.28 151.78,532.19 152.94,532.19 154.11,532.19 155.28,532.19 156.45,532.19 157.62,532.19 158.79,535.35 159.95,535.35 161.12,535.35 162.29,535.35 163.46,538.44 164.63,538.44 165.79,538.44 166.96,538.44 168.13,541.48 169.30,541.48 170.47,541.48 171.64,541.48 172.80,541.48 173.97,541.48 175.14,541.48 176.31,541.48 177.48,541.48 178.64,541.48 179.81,541.48 180.98,541.48 182.15,544.45 183.32,544.45 184.49,544.45 185.65,544.45 186.82,544.45 187.99,544.45 189.16,544.45 190.33,544.45 191.50,544.45 192.66,544.45 193.83,544.45 195.00,544.45 196.17,544.45 197.34,544.45 198.50,541.48 199.67,541.48 200.84,544.45 202.01,538.44 203.18,538.44 204.35,538.44 205.51,538.44 206.68,535.35 207.85,535.35 209.02,535.35 210.19,535.35 211.36,535.35 212.52,538.44 213.69,538.44 214.86,538.44 216.03,538.44 217.20,538.44 218.36,541.48 219.53,541.48 220.70,541.48 221.87,541.48 223.04,541.48 224.21,541.48 225.37,541.48 226.54,541.48 227.71,541.48 228.88,541.48 230.05,541.48 231.21,541.48 232.38,541.48 233.55,541.48 234.72,541.48 235.89,538.44 237.06,538.44 238.22,538.44 239.39,538.44 240.56,541.48 241.73,541.48 242.90,541.48 244.07,541.48 245.23,541.48 246.40,541.48 247.57,541.48 248.74,541.48 249.91,541.48 251.07,541.48 252.24,541.48 253.41,541.48 254.58,541.48 255.75,541.48 256.92,541.48 258.08,541.48 259.25,541.48 260.42,541.48 261.59,544.45 262.76,544.45 263.93,544.45 265.09,595.38 266.26,595.38 267.43,485.16 268.60,485.16 269.77,485.16 270.93,489.21 272.10,489.21 273.27,489.21 274.44,489.21 275.61,489.21 276.78,489.21 277.94,489.21 279.11,489.21 280.28,489.21 281.45,489.21 282.62,485.16 283.79,485.16 284.95,485.16 286.12,485.16 287.29,485.16 288.46,485.16 289.63,481.03 290.79,481.03 291.96,481.03 293.13,481.03 294.30,481.03 295.47,481.03 296.64,481.03 297.80,481.03 298.97,481.03 300.14,481.03 301.31,481.03 302.48,481.03 303.64,481.03 304.81,481.03 305.98,485.16 307.15,485.16 308.32,485.16 309.49,485.16 310.65,489.21 311.82,489.21 312.99,489.21 314.16,489.21 315.33,489.21 316.50,493.18 317.66,493.18 318.83,485.16 321.17,485.16 322.34,468.15 323.50,468.15 324.67,468.15 325.84,468.15 327.01,468.15 328.18,468.15 329.35,468.15 330.51,468.15 331.68,472.52 332.85,472.52 334.02,472.52 335.19,472.52 336.36,472.52 337.52,472.52 338.69,476.82 339.86,476.82 341.03,476.82 342.20,476.82 343.36,476.82 344.53,476.82 345.70,476.82 346.87,476.82 348.04,476.82 349.21,476.82 350.37,476.82 351.54,476.82 352.71,476.82 353.88,476.82 355.05,476.82 356.21,476.82 357.38,476.82 358.55,476.82 359.72,476.82 360.89,476.82 362.06,476.82 363.22,476.82 364.39,476.82 365.56,476.82 366.73,476.82 367.90,476.82 369.07,476.82 370.23,476.82 371.40,476.82 372.57,476.82 373.74,472.52 374.91,472.52 376.07,472.52 377.24,472.52 378.41,472.52 379.58,468.15 380.75,468.15 381.92,468.15 383.08,468.15 384.25,463.69 385.42,463.69 386.59,463.69 387.76,463.69 388.93,459.14 390.09,459.14 391.26,459.14 392.43,459.14 393.60,459.14 394.77,459.14 395.93,459.14 397.10,459.14 398.27,459.14 399.44,459.14 400.61,463.69 401.78,463.69 402.94,463.69 404.11,463.69 405.28,463.69 406.45,463.69 407.62,463.69 408.79,468.15 414.63,454.51 415.79,454.51 416.96,449.78 418.13,449.78 419.30,449.78 420.47,449.78 421.64,449.78 422.80,449.78 423.97,449.78 425.14,449.78 426.31,454.51 427.48,454.51 428.64,454.51 429.81,454.51 430.98,454.51 432.15,454.51 433.32,454.51 434.49,454.51 435.65,454.51 436.82,454.51 437.99,454.51 439.16,454.51 440.33,454.51 441.50,454.51 442.66,454.51 443.83,454.51 445.00,454.51 446.17,454.51 447.34,454.51 448.50,454.51 449.67,454.51 450.84,459.14 452.01,459.14 453.18,459.14 454.35,459.14 455.51,459.14 456.68,459.14 457.85,459.14 459.02,459.14 460.19,459.14 461.36,459.14 462.52,459.14 463.69,459.14 464.86,459.14 466.03,459.14 467.20,459.14 468.36,459.14 469.53,459.14 470.70,459.14 471.87,459.14 487.06,468.15 488.22,472.52 489.39,481.03 490.56,485.16 491.73,485.16 492.90,485.16 494.07,485.16 495.23,485.16 496.40,485.16 497.57,485.16 498.74,485.16 499.91,485.16 501.07,485.16 502.24,481.03 503.41,481.03 504.58,481.03 505.75,481.03 506.92,481.03 508.08,481.03 509.25,481.03 510.42,481.03 511.59,481.03 512.76,481.03 513.93,481.03 515.09,481.03 516.26,481.03 517.43,481.03 518.60,481.03 519.77,481.03 520.93,481.03 522.10,481.03 523.27,481.03 524.44,481.03 525.61,481.03 526.78,481.03 527.94,481.03 529.11,481.03 530.28,481.03 531.45,481.03 532.62,481.03 533.79,481.03 534.95,481.03 536.12,481.03 537.29,481.03 538.46,481.03 539.63,481.03 540.79,481.03 541.96,481.03 543.13,476.82 544.30,476.82 545.47,476.82 546.64,476.82 547.80,472.52 548.97,472.52 550.14,468.15 551.31,256.05 552.48,256.05 553.64,256.05 554.81,256.05 555.98,256.05 557.15,613.28 558.32,613.28 559.49,613.28 560.65,613.28 561.82,613.28 562.99,613.28 564.16,613.28 565.33,613.28 566.50,613.28 567.66,613.28 568.83,613.28 570.00,613.28 571.17,629.37 572.34,629.37 573.50,629.37 574.67,629.37 575.84,629.37 577.01,613.28 578.18,613.28 579.35,613.28 580.51,613.28 581.68,613.28 582.85,613.28 584.02,613.28 595.70,611.64 596.87,611.64 598.04,608.27 599.21,611.64 600.37,611.64 601.54,611.64 602.71,613.28 603.88,613.28 605.05,613.28 606.21,608.27 614.39,511.94 615.56,511.94 616.73,515.48 617.90,518.95 619.07,518.95 620.23,518.95 621.40,518.95 622.57,518.95 623.74,518.95 624.91,518.95 626.07,515.48 627.24,515.48 628.41,515.48 629.58,515.48 630.75,515.48 631.92,515.48 633.08,511.94 634.25,511.94 635.42,511.94 636.59,511.94 637.76,511.94 638.93,511.94 640.09,511.94 641.26,511.94 642.43,508.33 643.60,508.33 644.77,508.33 645.93,508.33 647.10,508.33 648.27,508.33 649.44,508.33 650.61,508.33 651.78,508.33 652.94,504.65 654.11,504.65 655.28,504.65 656.45,504.65 657.62,504.65 658.78,504.65 659.95,504.65 661.12,504.65 662.29,504.65 663.46,504.65 664.63,504.65 665.79,504.65 666.96,504.65 668.13,500.90 669.30,500.90 670.47,500.90 671.64,500.90 672.80,500.90 673.97,500.90 675.14,500.90 676.31,500.90 677.48,500.90 678.64,500.90 679.81,500.90 680.98,500.90 682.15,500.90 683.32,504.65 684.49,504.65 685.65,504.65 686.82,504.65 687.99,504.65 689.16,504.65 690.33,504.65 691.50,504.65 692.66,504.65 693.83,504.65 695.00,504.65 696.17,504.65 697.34,504.65 698.50,504.65 699.67,504.65 700.84,504.65 702.01,504.65 703.18,504.65 704.35,504.65 705.51,504.65 706.68,504.65 707.85,504.65 709.02,504.65 710.19,504.65 711.36,504.65 712.52,504.65 713.69,504.65 714.86,504.65 716.03,504.65 717.20,504.65 718.36,504.65 719.53,508.33 720.70,508.33 721.87,508.33 723.04,511.94 724.21,511.94 725.37,515.48 726.54,515.48 727.71,518.95 728.88,522.36 730.05,522.36 731.21,528.98 732.38,528.98 733.55,528.98 734.72,528.98 735.89,525.70 737.06,525.70 738.22,525.70 739.39,522.36 740.56,522.36 741.73,522.36 742.90,518.95 744.07,518.95 745.23,518.95 746.40,518.95 747.57,518.95 748.74,515.48 749.91,515.48 751.07,515.48 752.24,515.48 753.41,515.48 754.58,515.48 755.75,515.48 756.92,515.48 758.08,515.48 759.25,515.48 760.42,515.48 761.59,515.48 762.76,515.48 763.93,515.48 765.09,515.48 766.26,518.95 767.43,518.95 768.60,518.95 769.77,518.95 770.93,518.95 772.10,518.95 773.27,518.95 774.44,518.95 775.61,518.95 776.78,518.95 777.94,518.95 779.11,518.95 780.28,518.95 781.45,518.95 782.62,518.95 783.78,522.36 784.95,522.36 786.12,522.36 787.29,522.36 788.46,522.36 789.63,518.95 790.79,518.95 791.96,511.94 793.13,511.94 794.30,515.48 795.47,515.48 796.64,515.48 797.80,515.48 798.97,515.48 800.14,515.48 801.31,515.48 802.48,515.48 803.64,515.48 804.81,515.48 805.98,515.48 807.15,515.48 808.32,515.48 809.49,515.48 810.65,515.48 811.82,518.95 812.99,518.95 814.16,518.95 815.33,518.95 816.50,518.95 817.66,518.95 818.83,518.95 820.00,518.95 821.17,518.95 822.34,518.95 823.50,518.95 824.67,518.95 825.84,518.95 827.01,518.95 828.18,518.95 829.35,518.95 830.51,340.32 831.68,340.32 832.85,340.32 834.02,340.32 835.19,340.32 836.36,340.32 837.52,340.32 838.69,518.95 839.86,518.95 841.03,518.95 842.20,522.36 843.36,522.36 844.53,522.36 845.70,522.36 846.87,525.70 848.04,525.70 849.21,528.98 850.37,528.98 851.54,528.98 852.71,528.98 853.88,532.19 855.05,532.19 856.21,535.35 857.38,535.35 858.55,535.35 859.72,535.35 860.89,538.44 862.06,538.44 863.22,538.44 864.39,541.48 865.56,538.44 866.73,538.44 867.90,538.44 869.07,538.44 870.23,538.44 871.40,538.44 872.57,538.44 873.74,535.35 874.91,535.35 876.07,535.35 877.24,535.35 878.41,535.35 879.58,538.44 880.75,538.44 881.92,538.44 883.08,538.44 884.25,538.44 885.42,538.44 886.59,538.44 887.76,538.44 888.93,535.35 890.09,535.35 891.26,535.35 892.43,538.44 893.60,538.44 894.77,538.44 895.93,538.44 897.10,538.44 898.27,538.44 899.44,538.44 900.61,538.44 901.78,538.44 902.94,538.44 904.11,541.48 905.28,541.48 906.45,541.48 907.62,541.48 908.78,541.48 909.95,541.48 911.12,538.44 912.29,538.44 913.46,535.35 914.63,535.35 915.79,532.19 916.96,532.19 918.13,532.19 919.30,532.19 920.47,532.19 921.64,532.19 922.80,532.19 923.97,532.19 925.14,532.19 926.31,535.35 927.48,535.35 928.64,535.35 929.81,535.35 930.98,535.35 932.15,535.35 933.32,538.44 934.49,538.44 935.65,538.44 936.82,538.44 937.99,538.44 939.16,541.48 940.33,541.48 941.50,541.48 942.66,541.48 943.83,541.48 945.00,541.48 946.17,541.48 947.34,541.48 948.50,541.48 949.67,541.48 950.84,541.48 952.01,541.48 953.18,541.48 954.35,544.45 955.51,544.45 956.68,544.45 957.85,544.45 959.02,544.45 960.19,544.45 961.36,544.45 962.52,544.45 963.69,544.45 964.86,544.45 966.03,547.37 967.20,547.37 968.36,547.37 969.53,547.37 970.70,550.24 971.87,550.24 973.04,550.24 974.21,553.05 975.37,553.05 976.54,553.05 977.71,555.81 978.88,555.81 980.05,555.81 981.21,555.81 982.38,555.81 983.55,555.81 984.72,555.81 985.89,553.05 987.06,553.05 988.22,553.05 989.39,550.24 990.56,550.24 991.73,550.24 992.90,550.24 994.07,550.24 995.23,547.37 996.40,547.37 997.57,547.37 998.74,547.37 999.91,547.37 1001.07,547.37 1002.24,547.37 1003.41,547.37 1004.58,547.37 1005.75,547.37 1006.92,547.37 1008.08,547.37 1009.25,547.37 1010.42,547.37 1011.59,547.37 1012.76,547.37 1013.93,547.37 1015.09,547.37 1016.26,547.37 1017.43,544.45 1018.60,544.45 1019.77,544.45 1020.93,544.45 1022.10,544.45 1023.27,544.45 1024.44,544.45 1025.61,544.45 1026.78,544.45 1027.94,544.45 1029.11,544.45 1030.28,544.45 1031.45,544.45 1032.62,544.45 1033.78,544.45 1034.95,544.45 1036.12,544.45 1037.29,544.45 1038.46,544.45 1039.63,544.45 1040.79,544.45 1041.96,544.45 1043.13,544.45 1044.30,544.45 1045.47,544.45 1046.64,616.47 1047.80,616.47 1048.97,616.47 1050.14,616.47 1051.31,616.47 1052.48,616.47 1053.64,616.47 1054.81,544.45 1055.98,538.44" fill="none" stroke="#7c3aed" stroke-width="1.5" />
<line x1="70" y1="612.06" x2="1070" y2="612.06" stroke="#e5e5e5" />
<text x="24" y="616.06" font-family="Arial" font-size="11" fill="#666">82 Hz</text>
<line x1="70" y1="582.86" x2="1070" y2="582.86" stroke="#e5e5e5" />
<text x="24" y="586.86" font-family="Arial" font-size="11" fill="#666">110 Hz</text>
<line x1="70" y1="544.26" x2="1070" y2="544.26" stroke="#e5e5e5" />
<text x="24" y="548.26" font-family="Arial" font-size="11" fill="#666">147 Hz</text>
<line x1="70" y1="493.16" x2="1070" y2="493.16" stroke="#e5e5e5" />
<text x="24" y="497.16" font-family="Arial" font-size="11" fill="#666">196 Hz</text>
<line x1="70.00" y1="645" x2="70.00" y2="652" stroke="#666" />
<text x="56.00" y="670" font-family="Arial" font-size="11" fill="#666">0.0s</text>
<line x1="236.67" y1="645" x2="236.67" y2="652" stroke="#666" />
<text x="222.67" y="670" font-family="Arial" font-size="11" fill="#666">1.4s</text>
<line x1="403.33" y1="645" x2="403.33" y2="652" stroke="#666" />
<text x="389.33" y="670" font-family="Arial" font-size="11" fill="#666">2.9s</text>
<line x1="570.00" y1="645" x2="570.00" y2="652" stroke="#666" />
<text x="556.00" y="670" font-family="Arial" font-size="11" fill="#666">4.3s</text>
<line x1="736.67" y1="645" x2="736.67" y2="652" stroke="#666" />
<text x="722.67" y="670" font-family="Arial" font-size="11" fill="#666">5.7s</text>
<line x1="903.33" y1="645" x2="903.33" y2="652" stroke="#666" />
<text x="889.33" y="670" font-family="Arial" font-size="11" fill="#666">7.1s</text>
<line x1="1070.00" y1="645" x2="1070.00" y2="652" stroke="#666" />
<text x="1056.00" y="670" font-family="Arial" font-size="11" fill="#666">8.6s</text>
<text x="70" y="690" font-family="Arial" font-size="12" fill="#777">Confidence curve unavailable: existing inference result exposes thresholded booleans, not raw probabilities.</text>
</svg>