<svg xmlns="http://www.w3.org/2000/svg" width="1100" height="620" viewBox="0 0 1100 620">
<rect width="100%" height="100%" fill="white" />
<text x="78" y="26" font-family="Arial" font-size="18" font-weight="700" fill="#111">Baseline comparison: 01_speaking_voice</text>
<text x="18" y="95.0" font-family="Arial" font-size="12" fill="#444">Waveform</text>
<rect x="78" y="50" width="992" height="90" fill="none" stroke="#eee" />
<line x1="78" y1="140" x2="1070" y2="140" stroke="#ddd" />
<text x="18" y="292.5" font-family="Arial" font-size="12" fill="#444">F0: checkpoint vs baseline</text>
<rect x="78" y="190" width="992" height="205" fill="none" stroke="#eee" />
<line x1="78" y1="395" x2="1070" y2="395" stroke="#ddd" />
<text x="18" y="505.0" font-family="Arial" font-size="12" fill="#444">Voiced mask</text>
<rect x="78" y="450" width="992" height="110" fill="none" stroke="#eee" />
<line x1="78" y1="560" x2="1070" y2="560" stroke="#ddd" />
<polyline points="78.00,95.00 78.71,95.00 79.41,95.00 80.12,95.00 80.83,95.00 81.54,95.00 82.25,95.00 82.96,95.00 83.67,95.00 84.37,93.65 85.08,96.94 85.80,93.08 86.51,94.85 87.21,95.52 87.92,94.97 88.63,94.83 89.34,94.80 90.05,94.98 90.76,94.69 91.47,95.19 92.17,95.49 92.89,92.20 93.60,93.32 94.30,94.61 95.01,97.32 95.72,95.52 96.43,95.13 97.14,91.44 97.85,96.75 98.56,93.63 99.26,96.54 99.98,95.01 100.69,96.09 101.39,92.73 102.10,95.00 102.81,94.84 103.53,95.06 104.23,95.91 104.94,93.19 105.65,93.98 106.36,96.02 107.07,96.39 107.78,92.46 108.49,95.23 109.19,101.90 109.90,90.22 110.62,89.00 111.32,97.35 112.03,98.39 112.74,96.37 113.45,93.82 114.16,91.08 114.87,96.19 115.58,95.74 116.28,95.49 116.99,95.52 117.71,96.85 118.41,94.63 119.12,93.79 119.83,95.01 120.54,94.56 121.25,95.31 121.96,96.07 122.67,94.36 123.37,94.48 124.08,94.84 124.80,95.36 125.51,94.73 126.21,95.94 126.92,93.04 127.63,94.71 128.34,94.53 129.05,95.56 129.76,95.79 130.47,93.41 131.17,94.81 131.89,94.89 132.60,96.13 133.30,94.85 134.01,95.18 134.72,94.83 135.43,94.98 136.14,94.38 136.85,95.75 137.56,95.64 138.26,94.84 138.98,94.37 139.69,94.45 140.39,94.98 141.10,95.17 141.81,93.43 142.53,95.50 143.23,95.59 143.94,94.80 144.65,92.51 145.35,96.75 146.07,94.64 146.78,94.20 147.49,94.81 148.19,95.19 148.90,95.30 149.61,92.65 150.32,94.83 151.03,95.20 151.74,94.17 152.45,95.33 153.15,94.54 153.87,93.41 154.58,95.43 155.28,96.40 155.99,94.98 156.70,94.63 157.41,94.53 158.12,96.10 158.83,95.10 159.54,93.76 160.24,95.43 160.96,94.11 161.67,94.54 162.37,96.10 163.08,95.92 163.79,94.08 164.51,92.98 165.21,96.51 165.92,98.56 166.63,95.69 167.33,79.31 168.05,108.42 168.76,94.69 169.47,90.97 170.17,92.99 170.88,108.07 171.60,83.18 172.30,77.53 173.01,115.61 173.72,97.78 174.43,97.84 175.14,108.42 175.85,103.27 176.56,102.33 177.26,78.51 177.97,108.54 178.69,78.63 179.39,77.32 180.10,107.50 180.81,95.04 181.52,102.78 182.23,98.22 182.94,111.80 183.65,94.18 184.35,70.57 185.06,110.08 185.78,76.21 186.49,99.19 187.19,99.05 187.90,91.86 188.61,81.57 189.32,85.16 190.03,114.67 190.74,82.96 191.45,71.04 192.15,113.24 192.87,104.48 193.58,98.80 194.28,108.75 194.99,96.79 195.70,104.84 196.41,102.32 197.12,93.56 197.83,74.68 198.54,65.13 199.24,118.92 199.96,99.11 200.67,102.43 201.37,89.41 202.08,102.49 202.79,94.95 203.51,102.14 204.21,83.05 204.92,96.02 205.63,98.16 206.33,101.37 207.05,96.98 207.76,92.02 208.47,83.48 209.17,99.75 209.88,98.65 210.60,99.25 211.30,97.01 212.01,82.56 212.72,92.52 213.43,108.56 214.14,97.11 214.85,86.42 215.56,90.87 216.26,102.79 216.97,96.32 217.69,91.66 218.39,91.20 219.10,96.42 219.81,96.37 220.52,96.50 221.22,92.11 221.94,93.29 222.65,100.58 223.35,93.26 224.06,93.28 224.77,97.45 225.49,89.02 226.19,98.80 226.90,99.61 227.61,92.25 228.31,91.97 229.03,95.58 229.74,95.52 230.45,96.48 231.15,94.61 231.86,94.27 232.58,92.77 233.28,94.89 233.99,99.25 234.70,94.47 235.41,90.66 236.12,93.38 236.83,96.00 237.54,97.00 238.24,97.29 238.95,91.89 239.67,94.36 240.37,93.29 241.08,97.98 241.79,96.20 242.50,92.28 243.21,93.77 243.92,94.20 244.63,97.99 245.33,92.82 246.04,96.97 246.76,93.72 247.47,95.53 248.17,95.16 248.88,95.39 249.59,93.60 250.30,95.78 251.01,95.28 251.72,94.05 252.43,95.07 253.13,94.96 253.85,94.95 254.56,94.14 255.26,95.67 255.97,95.85 256.68,93.91 257.39,94.30 258.10,94.57 258.81,97.19 259.52,94.50 260.22,94.90 260.94,94.50 261.65,94.83 262.35,95.74 263.06,95.88 263.77,94.87 264.49,94.95 265.19,94.41 265.90,95.88 266.61,95.84 267.31,95.18 268.03,94.57 268.74,95.28 269.45,95.45 270.15,94.43 270.86,94.27 271.58,95.73 272.28,93.87 272.99,94.92 273.70,95.08 274.41,94.22 275.12,96.20 275.83,95.37 276.54,94.17 277.24,94.89 277.95,95.88 278.67,95.92 279.37,94.17 280.08,94.42 280.79,95.62 281.50,94.77 282.21,96.93 282.92,92.82 283.63,93.79 284.33,94.62 285.04,98.78 285.76,91.75 286.47,96.56 287.17,92.49 287.88,97.17 288.59,94.61 289.30,93.69 290.01,96.32 290.72,97.77 291.43,94.50 292.13,92.17 292.84,92.65 293.56,98.92 294.26,95.52 294.97,95.48 295.68,93.21 296.39,94.40 297.10,93.81 297.81,93.62 298.52,97.58 299.22,93.89 299.93,95.95 300.65,92.65 301.35,98.00 302.06,91.64 302.77,96.08 303.48,95.89 304.19,95.84 304.90,92.74 305.61,94.24 306.31,96.17 307.02,97.03 307.74,91.68 308.45,95.71 309.15,97.52 309.86,93.18 310.57,91.99 311.28,97.40 311.99,97.27 312.70,94.66 313.41,91.15 314.11,95.28 314.83,97.77 315.54,95.78 316.24,95.09 316.95,92.29 317.66,94.84 318.37,97.23 319.08,96.47 319.79,92.66 320.50,95.55 321.20,96.13 321.92,91.83 322.63,98.25 323.33,96.26 324.04,92.86 324.75,95.62 325.47,93.81 326.17,95.55 326.88,95.21 327.59,94.69 328.29,93.74 329.01,95.37 329.72,95.10 330.43,95.37 331.13,94.53 331.84,94.15 332.56,95.52 333.26,94.69 333.97,91.01 334.68,97.16 335.39,97.50 336.10,95.29 336.81,89.18 337.52,107.72 338.22,95.45 338.93,95.13 339.65,101.49 340.35,105.19 341.06,93.00 341.77,72.88 342.48,73.89 343.19,122.53 343.90,89.07 344.61,85.54 345.31,75.51 346.02,120.36 346.74,96.21 347.45,83.49 348.15,73.85 348.86,119.78 349.57,99.26 350.28,71.86 350.99,104.48 351.70,92.91 352.41,98.56 353.11,97.89 353.83,93.04 354.54,89.53 355.24,99.48 355.95,93.21 356.66,95.22 357.37,94.57 358.08,96.75 358.79,91.68 359.50,98.78 360.20,94.12 360.92,97.87 361.63,93.26 362.33,95.18 363.04,94.33 363.75,97.00 364.46,95.53 365.17,95.34 365.88,98.06 366.59,93.42 367.29,99.23 368.00,91.47 368.72,95.06 369.43,93.80 370.13,94.15 370.84,95.75 371.55,95.64 372.26,92.60 372.97,94.63 373.68,96.42 374.39,92.45 375.09,93.76 375.81,95.52 376.52,96.43 377.22,92.91 377.93,92.93 378.64,93.86 379.35,95.83 380.06,93.59 380.77,96.79 381.48,93.44 382.18,95.33 382.90,95.15 383.61,95.18 384.31,96.58 385.02,93.15 385.73,96.97 386.45,93.33 387.15,96.98 387.86,93.13 388.57,99.04 389.27,92.65 389.99,95.74 390.70,95.20 391.41,93.60 392.11,96.77 392.82,96.35 393.54,93.44 394.24,95.66 394.95,95.28 395.66,94.93 396.37,95.58 397.08,96.65 397.79,92.02 398.50,98.65 399.20,93.85 399.91,95.99 400.63,94.55 401.33,95.06 402.04,93.97 402.75,96.82 403.46,91.27 404.17,97.06 404.88,93.74 405.59,95.04 406.29,95.45 407.00,95.16 407.72,93.34 408.43,93.78 409.13,95.74 409.84,91.37 410.55,106.17 411.26,94.88 411.97,103.86 412.68,81.25 413.39,82.90 414.09,100.87 414.81,98.21 415.52,90.95 416.22,94.49 416.93,91.99 417.64,111.96 418.35,99.64 419.06,84.66 419.77,75.75 420.48,117.19 421.18,103.20 421.90,85.12 422.61,74.60 423.31,108.91 424.02,102.60 424.73,96.65 425.45,82.09 426.15,106.75 426.86,92.01 427.57,96.74 428.27,99.74 428.99,103.72 429.70,90.29 430.41,85.15 431.11,103.31 431.82,96.62 432.53,92.16 433.24,96.30 433.95,99.99 434.66,91.84 435.37,86.08 436.07,102.07 436.79,95.62 437.50,92.44 438.20,94.33 438.91,97.42 439.62,93.28 440.33,89.84 441.04,99.02 441.75,92.50 442.46,91.94 443.16,95.93 443.88,91.76 444.59,92.36 445.29,95.32 446.00,96.79 446.71,95.64 447.43,96.78 448.13,93.84 448.84,92.88 449.55,94.20 450.25,93.99 450.97,92.52 451.68,94.14 452.39,92.51 453.09,100.21 453.80,91.95 454.52,98.24 455.22,95.25 455.93,96.63 456.64,94.91 457.35,95.80 458.06,93.93 458.77,91.45 459.48,94.22 460.18,96.83 460.89,93.19 461.61,93.67 462.31,93.19 463.02,95.47 463.73,95.09 464.44,93.36 465.15,96.76 465.86,94.10 466.57,97.25 467.27,93.70 467.98,95.98 468.70,96.06 469.41,93.73 470.11,96.72 470.82,96.18 471.53,92.80 472.24,94.71 472.95,95.95 473.66,95.94 474.37,92.70 475.07,95.35 475.79,93.84 476.50,95.04 477.20,94.00 477.91,95.25 478.62,97.03 479.33,94.29 480.04,96.34 480.75,93.51 481.46,96.59 482.16,94.61 482.88,94.66 483.59,95.20 484.29,96.65 485.00,94.25 485.71,95.27 486.42,94.22 487.13,95.70 487.84,93.45 488.55,96.70 489.25,93.20 489.97,96.45 490.68,93.88 491.39,95.83 492.09,95.22 492.80,93.90 493.52,95.95 494.22,95.30 494.93,94.85 495.64,94.95 496.35,97.66 497.06,93.54 497.77,95.11 498.48,94.37 499.18,96.99 499.89,92.50 500.61,95.05 501.31,96.75 502.02,96.37 502.73,93.62 503.44,95.01 504.14,96.90 504.86,95.09 505.57,94.67 506.27,92.86 506.98,97.24 507.69,95.11 508.41,92.27 509.11,96.11 509.82,93.60 510.53,94.31 511.23,97.64 511.95,94.98 512.66,96.15 513.37,92.44 514.07,96.16 514.78,95.40 515.50,96.14 516.20,93.93 516.91,94.88 517.62,92.51 518.33,92.45 519.04,94.96 519.75,94.30 520.46,95.21 521.16,96.51 521.87,97.19 522.59,93.69 523.29,93.68 524.00,94.89 524.71,95.55 525.42,91.91 526.13,94.92 526.84,96.36 527.55,94.42 528.25,96.26 528.96,94.58 529.68,95.28 530.39,92.90 531.09,96.43 531.80,94.84 532.51,96.37 533.22,94.35 533.93,94.69 534.64,94.11 535.35,94.14 536.05,94.22 536.77,95.74 537.48,94.73 538.18,95.58 538.89,97.22 539.60,94.46 540.31,96.03 541.02,94.80 541.73,97.78 542.44,100.95 543.14,91.83 543.86,93.41 544.57,99.47 545.27,83.55 545.98,97.80 546.69,121.38 547.40,71.78 548.11,101.87 548.82,99.85 549.53,100.68 550.23,111.21 550.95,102.06 551.66,106.02 552.37,78.00 553.07,71.41 553.78,75.12 554.50,112.14 555.20,105.46 555.91,105.33 556.62,101.52 557.33,94.15 558.04,107.12 558.75,102.84 559.46,104.28 560.16,98.46 560.87,106.66 561.59,97.96 562.29,105.47 563.00,103.18 563.71,107.34 564.42,102.18 565.13,109.10 565.84,119.09 566.55,106.69 567.25,99.86 567.96,77.94 568.68,122.16 569.38,70.74 570.09,83.00 570.80,91.74 571.51,98.74 572.22,97.81 572.93,94.74 573.64,119.58 574.35,74.97 575.05,90.03 575.76,104.94 576.48,108.87 577.18,88.50 577.89,72.28 578.60,117.23 579.31,94.04 580.02,102.38 580.73,102.60 581.44,96.62 582.14,91.92 582.85,91.65 583.57,102.80 584.27,93.70 584.98,87.02 585.69,101.39 586.40,94.58 587.11,92.72 587.82,95.98 588.53,95.89 589.23,93.30 589.94,96.47 590.66,95.81 591.37,94.06 592.07,93.37 592.78,95.86 593.49,94.74 594.20,96.19 594.91,92.85 595.62,96.49 596.33,96.14 597.03,95.03 597.75,94.39 598.46,93.65 599.16,97.37 599.87,95.07 600.58,94.63 601.29,95.05 602.00,96.47 602.71,93.17 603.42,95.02 604.12,95.91 604.84,95.97 605.55,90.94 606.25,94.47 606.96,107.38 607.67,63.50 608.38,119.69 609.09,87.01 609.80,89.26 610.51,93.63 611.21,111.19 611.93,102.11 612.64,92.51 613.35,112.96 614.05,76.26 614.76,82.69 615.48,92.22 616.18,106.59 616.89,100.24 617.60,101.41 618.31,111.39 619.02,93.75 619.73,85.79 620.44,84.05 621.14,105.97 621.85,93.37 622.57,85.69 623.27,82.26 623.98,90.84 624.69,101.72 625.40,92.05 626.11,87.34 626.82,94.18 627.53,97.04 628.23,92.83 628.94,94.23 629.66,97.87 630.36,92.60 631.07,93.85 631.78,94.27 632.49,96.05 633.20,94.05 633.91,97.17 634.62,95.90 635.33,97.84 636.03,97.45 636.75,94.19 637.46,93.33 638.16,97.75 638.87,93.52 639.58,96.72 640.29,93.61 641.00,97.73 641.71,93.22 642.42,95.67 643.12,94.79 643.84,93.37 644.55,92.93 645.25,94.32 645.96,96.35 646.67,91.38 647.38,95.77 648.09,92.01 648.80,98.53 649.51,91.42 650.21,94.71 650.92,95.47 651.64,94.65 652.34,92.94 653.05,94.61 653.76,95.36 654.47,94.28 655.18,94.63 655.89,95.82 656.60,94.78 657.31,93.51 658.01,96.61 658.73,95.88 659.44,94.65 660.14,95.96 660.85,94.80 661.56,95.77 662.27,95.00 662.98,94.01 663.69,97.03 664.40,95.03 665.10,94.99 665.82,94.01 666.53,96.57 667.23,95.60 667.94,95.32 668.65,93.59 669.36,93.63 670.07,94.88 670.78,95.67 671.49,94.66 672.19,100.66 672.91,99.31 673.62,100.24 674.32,104.12 675.03,112.90 675.74,87.04 676.46,81.09 677.16,65.82 677.87,113.69 678.58,97.09 679.29,69.41 680.00,101.88 680.71,100.79 681.42,116.73 682.12,104.63 682.83,90.38 683.55,118.62 684.25,113.33 684.96,80.48 685.67,114.50 686.38,113.84 687.09,79.96 687.80,102.83 688.51,116.75 689.21,86.06 689.92,94.42 690.64,115.13 691.34,91.31 692.05,92.37 692.76,108.53 693.47,95.53 694.18,88.21 694.89,103.47 695.60,101.19 696.31,85.54 697.01,101.45 697.73,99.97 698.44,81.70 699.14,99.17 699.85,99.35 700.56,84.95 701.27,87.30 701.98,101.61 702.69,85.98 703.40,70.74 704.10,108.28 704.82,100.69 705.53,96.44 706.23,102.31 706.94,99.97 707.65,95.16 708.36,91.66 709.07,103.18 709.78,92.27 710.49,91.21 711.19,101.72 711.91,95.52 712.62,93.17 713.32,96.11 714.03,97.58 714.74,95.04 715.46,92.58 716.16,96.44 716.87,95.97 717.58,95.26 718.29,93.75 718.99,92.79 719.71,97.35 720.42,92.32 721.12,95.71 721.83,94.10 722.54,95.06 723.25,93.15 723.96,96.51 724.67,94.33 725.38,95.27 726.08,93.43 726.80,95.20 727.51,95.74 728.21,96.00 728.92,94.66 729.63,95.06 730.34,95.74 731.05,95.45 731.76,95.79 732.47,94.00 733.17,97.26 733.89,94.00 734.60,95.69 735.30,95.30 736.01,92.75 736.72,95.67 737.44,94.22 738.14,95.32 738.85,95.14 739.56,94.76 740.27,94.93 740.98,94.44 741.69,93.90 742.40,94.56 743.10,96.87 743.81,92.07 744.53,96.96 745.23,94.47 745.94,93.74 746.65,94.13 747.36,95.95 748.07,94.73 748.78,94.50 749.49,94.67 750.19,94.33 750.90,97.40 751.62,93.24 752.32,96.83 753.03,92.40 753.74,94.91 754.45,94.97 755.16,94.31 755.87,98.71 756.58,94.74 757.28,91.47 757.99,95.88 758.71,96.31 759.42,96.85 760.12,103.09 760.83,93.28 761.54,74.00 762.25,109.75 762.96,96.43 763.67,94.87 764.38,86.82 765.08,87.18 765.80,114.20 766.51,90.54 767.21,96.23 767.92,77.72 768.63,108.50 769.34,104.28 770.05,91.02 770.76,90.23 771.47,91.63 772.17,107.14 772.89,91.34 773.60,92.76 774.30,87.83 775.01,106.15 775.72,92.02 776.44,88.93 777.14,104.54 777.85,95.53 778.56,94.82 779.27,92.50 779.98,98.20 780.69,95.48 781.40,92.11 782.10,96.81 782.81,94.76 783.53,92.92 784.23,96.05 784.94,97.13 785.65,93.38 786.36,94.70 787.06,90.27 787.78,95.53 788.49,105.84 789.19,96.63 789.90,83.02 790.61,84.20 791.32,120.33 792.03,97.83 792.74,82.03 793.45,76.00 794.15,112.99 794.87,99.02 795.58,93.66 796.28,97.75 796.99,65.21 797.70,94.43 798.42,134.34 799.12,88.02 799.83,54.50 800.54,95.53 801.25,133.21 801.96,102.29 802.67,80.87 803.38,63.19 804.08,107.66 804.79,91.74 805.51,108.32 806.21,112.41 806.92,93.98 807.63,80.83 808.34,62.18 809.05,111.15 809.76,87.73 810.47,102.78 811.17,110.11 811.88,83.88 812.60,85.77 813.30,91.47 814.01,114.36 814.72,83.94 815.43,87.07 816.14,108.29 816.85,100.39 817.56,86.60 818.26,79.29 818.97,107.87 819.69,93.74 820.40,94.37 821.10,101.86 821.81,101.14 822.52,85.60 823.23,80.98 823.94,105.55 824.65,99.06 825.36,84.36 826.06,98.21 826.78,102.66 827.49,89.87 828.19,92.23 828.90,102.15 829.61,92.35 830.32,92.57 831.03,99.14 831.74,91.19 832.45,98.80 833.15,93.29 833.87,94.67 834.58,97.88 835.28,93.73 835.99,92.35 836.70,96.72 837.42,92.56 838.12,97.36 838.83,94.73 839.54,93.68 840.24,97.98 840.96,92.96 841.67,92.48 842.38,97.98 843.08,90.75 843.79,96.63 844.51,98.98 845.21,88.40 845.92,94.77 846.63,101.49 847.34,94.80 848.05,82.22 848.76,102.37 849.47,94.44 850.17,89.00 850.88,101.21 851.60,96.39 852.30,99.58 853.01,100.13 853.72,103.15 854.43,99.56 855.14,99.66 855.85,104.98 856.56,104.58 857.26,102.97 857.97,103.37 858.68,108.07 859.40,106.80 860.10,99.56 860.81,96.35 861.52,104.01 862.23,90.13 862.94,72.48 863.65,102.95 864.36,86.63 865.06,84.30 865.77,103.68 866.49,83.39 867.19,90.63 867.90,101.60 868.61,79.49 869.32,92.12 870.03,100.56 870.74,80.29 871.45,97.45 872.15,99.71 872.86,78.64 873.58,105.04 874.28,93.72 874.99,93.59 875.70,108.07 876.41,85.53 877.12,101.84 877.83,109.92 878.54,89.70 879.24,109.74 879.95,103.13 880.67,101.16 881.38,87.35 882.08,110.77 882.79,94.64 883.50,74.51 884.21,107.18 884.92,79.64 885.63,71.66 886.34,97.54 887.04,85.39 887.76,78.27 888.47,102.54 889.17,97.35 889.88,96.79 890.59,101.85 891.30,94.61 892.01,94.52 892.72,94.82 893.43,96.32 894.13,97.17 894.85,94.10 895.56,96.48 896.26,93.88 896.97,94.74 897.68,94.47 898.40,95.40 899.10,95.62 899.81,93.46 900.52,94.49 901.22,94.45 901.94,95.14 902.65,96.79 903.36,94.44 904.06,94.03 904.77,96.57 905.49,94.83 906.19,93.21 906.90,95.86 907.61,94.96 908.32,94.06 909.03,95.44 909.74,95.85 910.45,96.03 911.15,94.07 911.86,94.68 912.58,96.93 913.28,94.17 913.99,96.02 914.70,94.27 915.41,96.13 916.12,94.08 916.83,95.44 917.54,95.55 918.24,95.76 918.95,95.17 919.67,93.35 920.38,96.74 921.08,94.29 921.79,94.58 922.50,95.06 923.21,95.81 923.92,96.57 924.63,93.18 925.34,96.02 926.04,97.42 926.76,96.57 927.47,93.25 928.17,103.41 928.88,98.36 929.59,93.06 930.30,102.33 931.01,98.26 931.72,92.63 932.43,95.49 933.13,96.05 933.84,84.92 934.56,94.84 935.26,92.85 935.97,95.74 936.68,97.58 937.39,96.44 938.10,98.78 938.81,93.05 939.52,100.66 940.22,97.03 940.93,89.15 941.65,93.24 942.36,96.44 943.06,93.02 943.77,98.96 944.48,95.14 945.19,81.92 945.90,97.97 946.61,95.84 947.32,100.58 948.02,95.25 948.74,87.54 949.45,102.95 950.15,92.72 950.86,91.26 951.57,97.77 952.28,97.24 952.99,86.74 953.70,99.90 954.41,86.28 955.11,100.80 955.83,96.29 956.54,88.34 957.24,102.06 957.95,90.58 958.66,86.64 959.38,103.88 960.08,89.91 960.79,82.29 961.50,103.32 962.20,96.35 962.92,91.81 963.63,99.44 964.34,98.54 965.04,99.04 965.75,87.60 966.47,85.57 967.17,95.77 967.88,90.91 968.59,84.25 969.30,99.52 970.01,92.57 970.72,89.34 971.43,100.14 972.13,103.19 972.84,102.02 973.56,100.58 974.26,100.12 974.97,101.24 975.68,98.35 976.39,90.53 977.10,102.73 977.81,87.44 978.52,82.26 979.22,101.23 979.93,89.03 980.65,85.89 981.36,99.82 982.06,95.27 982.77,89.69 983.48,100.60 984.19,94.71 984.90,92.89 985.61,96.03 986.32,96.22 987.02,92.35 987.74,95.87 988.45,97.40 989.15,93.90 989.86,94.50 990.57,95.68 991.28,94.71 991.99,95.83 992.70,93.43 993.41,95.49 994.11,95.27 994.83,94.23 995.54,95.25 996.24,93.38 996.95,95.96 997.66,93.87 998.38,96.30 999.08,95.13 999.79,95.20 1000.50,93.78 1001.20,96.37 1001.91,94.81 1002.63,93.74 1003.34,96.44 1004.04,95.05 1004.75,94.62 1005.46,94.12 1006.17,97.27 1006.88,94.54 1007.59,95.36 1008.30,95.40 1009.00,95.34 1009.72,94.06 1010.43,96.06 1011.13,95.07 1011.84,97.03 1012.55,95.47 1013.26,95.39 1013.97,92.71 1014.68,97.29 1015.39,96.03 1016.09,96.22 1016.81,94.33 1017.52,96.22 1018.22,99.01 1018.93,96.96 1019.64,96.24 1020.36,88.94 1021.06,90.04 1021.77,104.73 1022.48,97.35 1023.18,87.14 1023.90,97.82 1024.61,95.69 1025.32,95.96 1026.02,94.03 1026.73,95.48 1027.45,93.20 1028.15,93.10 1028.86,97.11 1029.57,98.77 1030.28,91.87 1030.99,91.79 1031.70,96.62 1032.41,95.96 1033.11,96.47 1033.82,92.85 1034.54,94.33 1035.24,98.00 1035.95,95.63 1036.66,93.41 1037.37,93.56 1038.08,93.91 1038.79,94.84 1039.50,96.39 1040.20,95.27 1040.91,97.00 1041.63,91.01 1042.34,94.98 1043.04,97.14 1043.75,95.45 1044.46,92.67 1045.17,95.41 1045.88,93.97 1046.59,96.63 1047.30,94.93 1048.00,95.40 1048.72,92.96 1049.43,94.79 1050.13,96.55 1050.84,95.77 1051.55,95.19 1052.26,94.69 1052.97,94.63 1053.68,94.70 1054.39,95.55 1055.09,94.48 1055.81,95.67 1056.52,94.85 1057.22,96.15 1057.93,94.11 1058.64,95.23 1059.36,94.09 1060.06,98.12 1060.77,90.69 1061.48,100.95 1062.18,95.53 1062.90,91.86 1063.61,93.98 1064.32,96.70 1065.02,94.83 1065.73,95.08 1066.45,93.03 1067.15,96.42 1067.86,94.24 1068.57,95.71 1069.28,95.93 1069.99,95.00" fill="none" stroke="#444" stroke-width="1.0" />
<polyline points="78.00,384.06 86.18,385.26 87.55,384.87 88.91,384.87 94.36,384.47 95.73,384.47 97.09,384.47 98.45,384.87 99.82,384.87 101.18,384.87 102.55,384.87 103.91,384.87 105.27,388.45 106.64,388.45 108.00,384.87 109.36,384.87 110.73,384.87 112.09,384.87 113.45,384.87 114.82,384.87 116.18,388.45 117.55,388.45 118.91,388.45 120.27,388.45 121.64,388.45 123.00,388.45 124.36,388.45 125.73,388.45 127.09,388.45 128.45,388.45 129.82,388.45 131.18,388.45 132.55,388.45 133.91,388.45 135.27,388.45 136.64,388.45 138.00,388.45 139.36,388.45 140.73,388.45 142.09,384.87 143.45,384.87 144.82,388.45 146.18,388.45 147.55,388.45 148.91,388.45 153.00,388.12 154.36,384.06 155.73,388.12 157.09,388.12 158.45,388.12 163.91,368.17 165.27,368.88 166.64,368.88 168.00,368.88 169.36,369.57 170.73,369.57 172.09,370.25 173.45,370.25 174.82,370.25 176.18,370.25 177.55,370.25 178.91,370.25 180.27,370.25 181.64,370.25 183.00,370.25 184.36,370.25 185.73,370.25 187.09,370.25 188.45,370.25 189.82,370.25 191.18,370.92 192.55,370.92 193.91,370.92 195.27,370.92 196.64,370.25 198.00,370.25 199.36,369.57 200.73,369.57 202.09,369.57 203.45,368.88 204.82,367.44 206.18,366.71 207.55,365.96 208.91,365.96 210.27,365.19 211.64,365.19 213.00,365.19 214.36,365.19 219.82,385.26 221.18,385.26 222.55,385.26 230.73,385.26 232.09,384.87 233.45,383.65 237.54,383.65 238.91,383.65 240.27,383.65 241.64,383.65 243.00,383.65 244.36,383.65 245.73,384.47 247.09,384.47 248.45,384.47 249.82,388.45 282.54,384.47 308.45,384.47 309.82,384.47 311.18,384.47 312.54,384.47 313.91,384.47 318.00,384.47 319.36,384.47 320.73,384.47 322.09,384.47 323.45,384.47 326.18,384.47 327.54,384.47 328.91,384.47 331.64,367.44 333.00,367.44 334.36,367.44 335.73,367.44 337.09,368.17 338.45,368.17 339.82,368.17 341.18,368.88 342.54,368.88 343.91,368.88 345.27,368.17 346.64,368.17 348.00,367.44 349.36,367.44 350.73,367.44 352.09,366.71 353.45,366.71 354.82,366.71 356.18,366.71 357.54,366.71 358.91,367.44 360.27,365.96 380.73,383.23 382.09,383.23 383.45,383.23 384.82,383.23 386.18,383.23 387.54,383.23 388.91,383.23 390.27,383.23 391.64,383.23 393.00,383.23 394.36,383.23 395.73,383.23 397.09,383.23 398.45,384.47 405.27,365.19 406.64,365.19 408.00,365.19 409.36,365.19 410.73,365.19 412.09,365.96 413.45,365.96 414.82,366.71 416.18,366.71 417.54,366.71 418.91,366.71 420.27,366.71 421.64,367.44 423.00,368.17 424.36,368.88 425.73,368.88 427.09,368.88 428.45,368.88 429.82,368.88 431.18,368.88 432.54,369.57 433.91,369.57 435.27,369.57 436.64,369.57 438.00,369.57 439.36,369.57 440.73,369.57 442.09,369.57 443.45,369.57 444.82,369.57 446.18,369.57 458.45,384.47 459.82,384.47 461.18,383.23 462.54,383.65 463.91,383.65 465.27,372.22 466.64,383.65 468.00,383.23 469.36,383.23 470.73,383.23 472.09,383.23 473.45,383.23 474.82,383.23 476.18,383.23 477.54,383.23 478.91,383.23 480.27,383.23 481.64,383.23 483.00,383.23 484.36,383.23 485.73,383.23 487.09,383.23 488.45,383.23 489.82,383.23 491.18,383.23 492.54,383.23 493.91,383.23 495.27,383.23 496.64,383.23 498.00,383.23 499.36,383.23 500.73,383.23 502.09,383.23 503.45,383.23 504.82,383.23 506.18,383.23 507.54,383.23 508.91,383.23 510.27,383.23 511.64,383.23 513.00,383.23 514.36,383.23 515.73,383.23 517.09,383.23 518.45,383.23 519.82,383.23 521.18,388.45 522.54,388.45 523.91,388.45 525.27,388.45 526.64,388.12 528.00,388.12 529.36,388.12 530.73,388.12 532.09,388.12 533.45,388.12 534.82,388.12 536.18,388.12 537.54,385.26 538.91,385.26 540.27,228.59 541.64,366.71 543.00,366.71 544.36,365.96 545.73,365.96 547.09,365.96 548.45,365.96 549.82,365.96 551.18,366.71 552.54,366.71 553.91,366.71 555.27,366.71 556.64,367.44 558.00,367.44 559.36,367.44 560.73,368.17 562.09,368.17 563.45,368.17 564.82,368.17 566.18,368.88 567.54,368.88 568.91,368.88 570.27,368.88 571.63,369.57 573.00,369.57 574.36,369.57 575.73,369.57 577.09,369.57 578.45,369.57 579.82,369.57 581.18,369.57 582.54,369.57 583.91,369.57 585.27,369.57 586.63,369.57 588.00,369.57 589.36,370.92 590.73,370.92 592.09,371.58 593.45,371.58 594.82,371.58 596.18,371.58 597.54,371.58 598.91,368.17 600.27,368.17 601.63,368.17 603.00,368.17 604.36,368.17 605.73,368.88 607.09,368.88 608.45,368.88 609.82,368.88 611.18,368.88 612.54,368.88 613.91,368.88 615.27,368.88 616.63,368.88 618.00,368.88 619.36,368.88 620.73,368.88 622.09,368.88 623.45,368.17 624.82,368.17 626.18,367.44 627.54,367.44 628.91,368.17 630.27,368.17 631.63,368.17 635.73,367.44 637.09,368.17 638.45,368.17 639.82,367.44 641.18,367.44 642.54,218.09 643.91,218.09 645.27,218.09 646.63,218.09 648.00,221.66 649.36,221.66 650.73,218.09 652.09,218.09 653.45,383.23 654.82,383.23 656.18,383.23 657.54,383.23 658.91,383.23 660.27,383.23 661.63,383.65 663.00,385.26 664.36,385.26 665.73,371.58 667.09,367.44 668.45,367.44 669.82,368.17 671.18,369.57 672.54,369.57 673.91,370.25 675.27,370.25 676.63,370.25 678.00,370.92 679.36,370.92 680.73,370.92 682.09,371.58 683.45,371.58 684.82,371.58 686.18,371.58 687.54,371.58 688.91,371.58 690.27,372.22 691.63,372.22 693.00,372.22 694.36,372.22 695.73,372.22 697.09,371.58 698.45,371.58 699.82,371.58 701.18,371.58 702.54,371.58 703.91,370.92 705.27,370.92 706.63,370.92 708.00,370.92 709.36,370.92 710.73,370.92 712.09,370.92 713.45,370.92 714.82,370.92 716.18,370.92 717.54,371.58 718.91,371.58 720.27,371.58 721.63,371.58 723.00,371.58 731.18,214.45 732.54,214.45 733.91,214.45 735.27,214.45 736.63,214.45 738.00,214.45 739.36,214.45 740.73,214.45 744.82,214.45 746.18,373.47 747.54,372.85 748.91,372.85 750.27,372.85 751.63,372.85 753.00,210.73 754.36,210.73 755.73,210.73 757.09,365.96 758.45,367.44 759.82,367.44 761.18,367.44 762.54,366.71 763.91,366.71 765.27,366.71 766.63,366.71 768.00,366.71 769.36,366.71 770.73,366.71 772.09,367.44 773.45,367.44 774.82,367.44 776.18,368.17 777.54,368.17 778.91,368.17 780.27,368.17 781.63,368.17 783.00,368.17 791.18,218.09 792.54,218.09 793.91,380.52 795.27,368.17 796.63,368.17 798.00,368.17 799.36,368.88 800.73,368.88 802.09,368.88 803.45,368.88 804.82,368.88 806.18,369.57 807.54,369.57 808.91,369.57 810.27,369.57 811.63,369.57 813.00,369.57 814.36,369.57 815.73,369.57 817.09,369.57 818.45,369.57 819.82,369.57 821.18,369.57 822.54,369.57 823.91,369.57 825.27,369.57 826.63,369.57 828.00,369.57 829.36,369.57 830.73,369.57 832.09,387.79 833.45,387.79 834.82,388.45 836.18,388.45 837.54,388.45 838.91,372.22 840.27,372.22 841.63,372.22 843.00,369.57 844.36,369.57 845.73,369.57 847.09,369.57 848.45,370.92 849.82,370.92 851.18,371.58 852.54,372.22 853.91,372.22 855.27,372.22 856.63,372.22 858.00,372.85 859.36,372.85 860.73,372.85 862.09,372.85 863.45,372.85 864.82,372.85 866.18,372.85 867.54,372.85 868.91,372.85 870.27,372.85 871.63,372.85 873.00,372.85 874.36,372.85 875.72,372.85 877.09,372.85 878.45,372.85 879.82,372.85 881.18,372.85 882.54,372.85 883.91,372.85 885.27,372.85 886.63,372.85 888.00,372.85 889.36,372.85 890.72,372.85 892.09,372.85 893.45,372.85 894.82,372.85 896.18,372.85 897.54,372.85 898.91,373.47 900.27,373.47 901.63,372.85 903.00,372.85 904.36,372.85 905.72,372.85 907.09,372.22 908.45,372.22 909.82,372.22 911.18,372.22 912.54,372.22 913.91,372.22 915.27,372.22 916.63,372.22 918.00,372.22 919.36,371.58 920.72,371.58 922.09,371.58 923.45,371.58 924.82,371.58 926.18,372.22 927.54,372.22 928.91,372.22 930.27,372.22 931.63,372.22 933.00,372.22 934.36,374.08 935.72,374.08 937.09,374.67 938.45,374.67 939.82,374.67 941.18,374.67 942.54,374.67 943.91,374.67 945.27,374.67 946.63,374.67 948.00,374.67 949.36,374.08 950.72,374.08 952.09,374.08 953.45,374.08 954.82,374.08 956.18,374.08 957.54,374.08 958.91,374.08 960.27,374.08 961.63,374.08 963.00,374.08 964.36,374.08 965.72,374.08 967.09,374.08 968.45,374.08 969.82,373.47 971.18,373.47 972.54,373.47 973.91,373.47 975.27,373.47 976.63,373.47 978.00,373.47 979.36,372.85 980.72,372.85 982.09,372.85 983.45,372.85 984.82,372.85 986.18,372.85 987.54,372.22 988.91,372.22 990.27,372.22 991.63,372.85 993.00,372.85 994.36,372.85 995.72,372.85 997.09,372.85 998.45,373.47 999.82,381.91 1001.18,381.91 1002.54,381.91 1003.91,382.36 1005.27,218.09 1006.63,382.36 1008.00,383.23 1009.36,383.23 1010.72,214.45 1012.09,218.09 1013.45,218.09 1014.82,214.45 1016.18,206.95 1017.54,206.95 1018.91,218.09 1020.27,218.09 1021.63,218.09 1023.00,221.66 1024.36,221.66 1025.72,221.66 1027.09,225.16 1028.45,225.16 1029.82,225.16 1031.18,225.16 1032.54,225.16 1033.91,225.16 1035.27,225.16 1036.63,225.16 1038.00,388.45 1039.36,388.45 1040.72,388.45 1042.09,388.45 1043.45,388.45 1044.82,388.45 1046.18,388.45 1047.54,388.45 1059.82,365.19 1061.18,385.26 1065.27,385.26" fill="none" stroke="#2563eb" stroke-width="1.5" />
<polyline points="125.73,393.73 127.09,394.12 128.45,393.93 129.82,394.06 131.18,394.06 132.55,394.06 133.91,394.06 135.27,394.06 136.64,392.90 138.00,392.16 158.45,367.44 159.82,367.44 161.18,368.52 162.55,369.36 163.91,369.78 165.27,369.98 166.64,370.18 168.00,370.18 169.36,370.18 170.73,370.18 172.09,370.18 173.45,370.39 174.82,370.39 176.18,370.39 177.55,370.39 178.91,370.39 180.27,370.39 181.64,370.39 183.00,370.39 184.36,370.39 185.73,370.59 187.09,370.59 188.45,370.59 189.82,370.59 191.18,370.59 192.55,370.39 193.91,370.39 195.27,370.39 196.64,370.18 198.00,370.18 199.36,369.98 200.73,369.98 202.09,369.57 203.45,369.15 222.55,395.00 223.91,395.00 225.27,395.00 226.64,395.00 228.00,395.00 229.36,395.00 230.73,395.00 232.09,395.00 233.45,394.99 234.82,395.00 236.18,395.00 237.54,395.00 238.91,395.00 240.27,394.87 241.64,394.93 243.00,394.93 244.36,394.81 245.73,394.63 247.09,394.32 248.45,394.32 249.82,394.25 251.18,394.25 252.54,394.25 253.91,394.32 255.27,394.93 256.64,394.87 258.00,395.00 259.36,395.00 260.73,395.00 262.09,395.00 279.82,393.32 281.18,393.59 282.54,393.46 283.91,393.66 285.27,393.66 286.64,393.66 288.00,393.66 289.36,393.59 290.73,393.73 292.09,393.59 293.45,393.59 294.82,393.73 296.18,393.86 297.54,393.59 298.91,393.39 300.27,393.04 301.64,392.97 303.00,393.32 304.36,393.32 305.73,393.32 307.09,393.32 308.45,393.32 309.82,393.32 311.18,393.53 312.54,393.66 313.91,393.73 315.27,393.80 333.00,367.66 334.36,367.88 335.73,368.31 337.09,368.31 338.45,368.10 339.82,368.10 341.18,367.88 342.54,367.66 343.91,367.66 345.27,367.66 346.64,367.88 348.00,367.88 349.36,367.66 350.73,367.66 352.09,367.44 353.45,367.23 354.82,367.23 356.18,367.00 357.54,367.00 358.91,367.00 360.27,367.44 361.64,370.18 383.45,377.59 384.82,377.59 386.18,376.95 387.54,377.11 388.91,377.11 390.27,377.43 391.64,377.59 393.00,378.07 394.36,378.23 395.73,377.27 397.09,376.95 403.91,363.54 405.27,364.25 406.64,364.73 408.00,364.96 409.36,364.96 410.73,365.19 412.09,365.65 413.45,365.88 414.82,366.11 416.18,366.33 417.54,366.56 418.91,366.78 420.27,367.23 421.64,367.88 423.00,368.10 424.36,368.10 425.73,368.31 427.09,368.73 428.45,368.95 429.82,369.15 431.18,369.36 432.54,369.57 433.91,369.15 435.27,369.78 436.64,369.15 438.00,369.15 439.36,369.15 440.73,369.15 442.09,369.98 443.45,369.15 444.82,369.98 466.64,394.25 468.00,394.38 469.36,394.38 470.73,394.25 472.09,394.19 473.45,394.38 474.82,394.57 476.18,394.38 477.54,394.38 478.91,394.44 492.54,393.18 493.91,393.11 495.27,393.11 496.64,393.11 498.00,393.11 499.36,393.04 500.73,393.04 502.09,392.75 503.45,392.16 504.82,392.23 506.18,391.69 507.54,391.77 508.91,391.77 510.27,392.31 511.64,392.75 513.00,391.69 538.91,364.73 540.27,364.96 541.64,365.19 543.00,365.42 544.36,365.42 545.73,365.65 547.09,365.88 548.45,366.11 549.82,366.33 551.18,366.33 552.54,366.56 553.91,366.78 555.27,367.23 556.64,367.44 558.00,367.66 559.36,367.88 560.73,368.10 562.09,368.31 563.45,368.31 564.82,368.52 566.18,368.73 567.54,368.95 568.91,369.15 570.27,369.36 571.63,369.36 573.00,369.57 574.36,369.78 575.73,369.98 577.09,369.98 578.45,370.18 579.82,370.18 581.18,370.18 582.54,370.18 583.91,370.39 585.27,370.39 586.63,370.59 588.00,371.58 589.36,370.99 590.73,370.99 592.09,370.99 593.45,371.18 598.91,364.49 600.27,366.33 601.63,367.44 603.00,368.31 604.36,368.95 605.73,369.36 607.09,369.57 608.45,369.57 609.82,369.57 611.18,369.57 612.54,369.36 613.91,369.36 615.27,369.36 616.63,369.57 618.00,369.57 619.36,369.36 620.73,369.36 622.09,369.15 623.45,368.95 624.82,368.52 626.18,368.31 627.54,368.10 628.91,367.88 630.27,368.10 631.63,367.88 633.00,369.98 667.09,369.15 668.45,369.78 669.82,370.18 671.18,370.39 672.54,370.59 673.91,370.99 675.27,370.99 676.63,371.18 678.00,371.18 679.36,371.38 680.73,371.38 682.09,371.38 683.45,371.58 684.82,371.58 686.18,371.77 687.54,371.77 688.91,371.96 690.27,371.96 691.63,371.96 693.00,371.96 694.36,371.96 695.73,371.77 697.09,371.77 698.45,371.77 699.82,371.58 701.18,371.58 702.54,371.58 703.91,371.38 705.27,371.38 706.63,371.18 708.00,370.99 709.36,370.79 710.73,370.79 712.09,370.79 713.45,370.79 714.82,370.79 716.18,371.18 753.00,363.78 754.36,365.88 755.73,366.11 757.09,366.11 758.45,366.11 759.82,366.11 761.18,366.33 762.54,366.33 763.91,366.56 765.27,366.56 766.63,366.56 768.00,366.78 769.36,366.78 770.73,367.00 772.09,367.00 773.45,367.23 774.82,367.44 776.18,367.66 777.54,367.88 778.91,368.10 780.27,368.31 803.45,368.95 804.82,368.95 806.18,369.15 807.54,369.36 808.91,369.36 810.27,369.57 811.63,369.57 813.00,369.78 814.36,369.78 815.73,369.98 817.09,369.98 818.45,369.78 819.82,369.78 821.18,369.78 822.54,369.78 823.91,369.78 825.27,369.78 826.63,369.98 828.00,369.98 829.36,370.18 830.73,370.18 832.09,370.59 833.45,371.38 834.82,372.35 836.18,372.91 837.54,371.77 838.91,371.18 840.27,370.39 841.63,370.39 843.00,370.59 844.36,370.79 845.73,370.99 847.09,371.38 848.45,371.58 849.82,371.77 851.18,372.16 852.54,372.35 853.91,372.54 855.27,372.73 856.63,372.73 858.00,372.73 859.36,372.73 860.73,372.54 862.09,372.54 863.45,372.54 864.82,372.54 866.18,372.54 867.54,372.54 868.91,372.54 870.27,372.54 871.63,372.73 873.00,372.73 874.36,372.73 875.72,372.73 877.09,372.91 878.45,372.91 879.82,372.91 881.18,372.91 882.54,372.91 883.91,373.10 885.27,373.10 886.63,373.10 888.00,373.10 889.36,373.10 890.72,373.10 892.09,373.10 893.45,373.10 894.82,373.29 896.18,373.47 897.54,373.65 898.91,373.29 900.27,373.84 949.36,374.20 950.72,374.02 952.09,373.65 953.45,373.47 954.82,373.65 956.18,373.65 957.54,373.65 958.91,373.84 960.27,373.65 961.63,373.84 963.00,373.47 964.36,373.29 965.72,373.47 967.09,373.29 968.45,373.47 969.82,373.29 971.18,373.29 972.54,373.29 973.91,373.10 975.27,373.10 976.63,373.10 978.00,373.10 979.36,373.10 980.72,373.10 982.09,372.91 983.45,373.10 984.82,372.91 986.18,372.73 987.54,372.73 988.91,372.54 990.27,372.54 991.63,372.91 993.00,373.10 1016.18,391.54 1017.54,391.85 1018.91,391.85 1020.27,391.85 1021.63,391.85 1023.00,391.85 1024.36,391.85 1025.72,391.85 1027.09,392.16 1028.45,392.16 1029.82,392.61 1031.18,393.39 1032.54,393.39 1033.91,394.06 1035.27,394.12 1036.63,393.39 1038.00,393.25 1039.36,393.25 1054.36,393.73 1055.72,393.59 1057.09,393.66 1058.45,393.66 1059.82,393.59 1061.18,393.59 1062.54,393.59 1063.91,393.66 1065.27,393.66 1066.63,393.53 1068.00,393.59 1069.36,393.11" fill="none" stroke="#dc2626" stroke-width="1.5" stroke-dasharray="5 4"/>
<line x1="78" y1="391.13" x2="1070" y2="391.13" stroke="#eee" />
<text x="1075" y="395.13" font-family="Arial" font-size="10" fill="#666">55</text>
<line x1="78" y1="388.55" x2="1070" y2="388.55" stroke="#eee" />
<text x="1075" y="392.55" font-family="Arial" font-size="10" fill="#666">65</text>
<line x1="78" y1="384.17" x2="1070" y2="384.17" stroke="#eee" />
<text x="1075" y="388.17" font-family="Arial" font-size="10" fill="#666">82</text>
<line x1="78" y1="380.04" x2="1070" y2="380.04" stroke="#eee" />
<text x="1075" y="384.04" font-family="Arial" font-size="10" fill="#666">98</text>
<line x1="78" y1="376.94" x2="1070" y2="376.94" stroke="#eee" />
<text x="1075" y="380.94" font-family="Arial" font-size="10" fill="#666">110</text>
<line x1="78" y1="371.53" x2="1070" y2="371.53" stroke="#eee" />
<text x="1075" y="375.53" font-family="Arial" font-size="10" fill="#666">131</text>
<line x1="78" y1="367.40" x2="1070" y2="367.40" stroke="#eee" />
<text x="1075" y="371.40" font-family="Arial" font-size="10" fill="#666">147</text>
<line x1="78" y1="362.75" x2="1070" y2="362.75" stroke="#eee" />
<text x="1075" y="366.75" font-family="Arial" font-size="10" fill="#666">165</text>
<line x1="78" y1="354.76" x2="1070" y2="354.76" stroke="#eee" />
<text x="1075" y="358.76" font-family="Arial" font-size="10" fill="#666">196</text>
<line x1="78" y1="348.57" x2="1070" y2="348.57" stroke="#eee" />
<text x="1075" y="352.57" font-family="Arial" font-size="10" fill="#666">220</text>
<line x1="78" y1="337.73" x2="1070" y2="337.73" stroke="#eee" />
<text x="1075" y="341.73" font-family="Arial" font-size="10" fill="#666">262</text>
<line x1="78" y1="320.19" x2="1070" y2="320.19" stroke="#eee" />
<text x="1075" y="324.19" font-family="Arial" font-size="10" fill="#666">330</text>
<line x1="78" y1="304.20" x2="1070" y2="304.20" stroke="#eee" />
<text x="1075" y="308.20" font-family="Arial" font-size="10" fill="#666">392</text>
<line x1="78" y1="270.40" x2="1070" y2="270.40" stroke="#eee" />
<text x="1075" y="274.40" font-family="Arial" font-size="10" fill="#666">523</text>
<line x1="78" y1="235.32" x2="1070" y2="235.32" stroke="#eee" />
<text x="1075" y="239.32" font-family="Arial" font-size="10" fill="#666">659</text>
<line x1="78" y1="203.07" x2="1070" y2="203.07" stroke="#eee" />
<text x="1075" y="207.07" font-family="Arial" font-size="10" fill="#666">784</text>
<rect x="78.00" y="472" width="1.36" height="23" fill="#2563eb" opacity="0.75" />
<rect x="86.18" y="472" width="4.09" height="23" fill="#2563eb" opacity="0.75" />
<rect x="94.36" y="472" width="55.91" height="23" fill="#2563eb" opacity="0.75" />
<rect x="153.00" y="472" width="6.82" height="23" fill="#2563eb" opacity="0.75" />
<rect x="163.91" y="472" width="51.82" height="23" fill="#2563eb" opacity="0.75" />
<rect x="219.82" y="472" width="4.09" height="23" fill="#2563eb" opacity="0.75" />
<rect x="230.73" y="472" width="4.09" height="23" fill="#2563eb" opacity="0.75" />
<rect x="237.54" y="472" width="13.64" height="23" fill="#2563eb" opacity="0.75" />
<rect x="282.54" y="472" width="1.36" height="23" fill="#2563eb" opacity="0.75" />
<rect x="308.45" y="472" width="6.82" height="23" fill="#2563eb" opacity="0.75" />
<rect x="318.00" y="472" width="6.82" height="23" fill="#2563eb" opacity="0.75" />
<rect x="326.18" y="472" width="4.09" height="23" fill="#2563eb" opacity="0.75" />
<rect x="331.64" y="472" width="30.00" height="23" fill="#2563eb" opacity="0.75" />
<rect x="380.73" y="472" width="19.09" height="23" fill="#2563eb" opacity="0.75" />
<rect x="405.27" y="472" width="42.27" height="23" fill="#2563eb" opacity="0.75" />
<rect x="458.45" y="472" width="174.54" height="23" fill="#2563eb" opacity="0.75" />
<rect x="635.73" y="472" width="88.64" height="23" fill="#2563eb" opacity="0.75" />
<rect x="731.18" y="472" width="10.91" height="23" fill="#2563eb" opacity="0.75" />
<rect x="744.82" y="472" width="39.55" height="23" fill="#2563eb" opacity="0.75" />
<rect x="791.18" y="472" width="257.73" height="23" fill="#2563eb" opacity="0.75" />
<rect x="1059.82" y="472" width="2.73" height="23" fill="#2563eb" opacity="0.75" />
<rect x="1065.27" y="472" width="1.36" height="23" fill="#2563eb" opacity="0.75" />
<rect x="125.73" y="518" width="13.64" height="23" fill="#dc2626" opacity="0.75" />
<rect x="158.45" y="518" width="46.36" height="23" fill="#dc2626" opacity="0.75" />
<rect x="222.55" y="518" width="40.91" height="23" fill="#dc2626" opacity="0.75" />
<rect x="279.82" y="518" width="36.82" height="23" fill="#dc2626" opacity="0.75" />
<rect x="333.00" y="518" width="30.00" height="23" fill="#dc2626" opacity="0.75" />
<rect x="383.45" y="518" width="15.00" height="23" fill="#dc2626" opacity="0.75" />
<rect x="403.91" y="518" width="42.27" height="23" fill="#dc2626" opacity="0.75" />
<rect x="466.64" y="518" width="13.64" height="23" fill="#dc2626" opacity="0.75" />
<rect x="492.54" y="518" width="21.82" height="23" fill="#dc2626" opacity="0.75" />
<rect x="538.91" y="518" width="55.91" height="23" fill="#dc2626" opacity="0.75" />
<rect x="598.91" y="518" width="35.45" height="23" fill="#dc2626" opacity="0.75" />
<rect x="667.09" y="518" width="50.45" height="23" fill="#dc2626" opacity="0.75" />
<rect x="753.00" y="518" width="28.64" height="23" fill="#dc2626" opacity="0.75" />
<rect x="803.45" y="518" width="98.18" height="23" fill="#dc2626" opacity="0.75" />
<rect x="949.36" y="518" width="45.00" height="23" fill="#dc2626" opacity="0.75" />
<rect x="1016.18" y="518" width="24.55" height="23" fill="#dc2626" opacity="0.75" />
<rect x="1054.36" y="518" width="16.36" height="23" fill="#dc2626" opacity="0.75" />
<text x="78" y="468" font-family="Arial" font-size="11" fill="#2563eb">checkpoint</text>
<text x="78" y="514" font-family="Arial" font-size="11" fill="#dc2626">baseline pyin</text>
<text x="678" y="416" font-family="Arial" font-size="12" fill="#2563eb">checkpoint f0</text>
<text x="808" y="416" font-family="Arial" font-size="12" fill="#dc2626">baseline f0</text>
<line x1="78.00" y1="575" x2="78.00" y2="582" stroke="#666" />
<text x="66.00" y="598" font-family="Arial" font-size="10" fill="#666">0.0s</text>
<line x1="243.33" y1="575" x2="243.33" y2="582" stroke="#666" />
<text x="231.33" y="598" font-family="Arial" font-size="10" fill="#666">1.2s</text>
<line x1="408.67" y1="575" x2="408.67" y2="582" stroke="#666" />
<text x="396.67" y="598" font-family="Arial" font-size="10" fill="#666">2.4s</text>
<line x1="574.00" y1="575" x2="574.00" y2="582" stroke="#666" />
<text x="562.00" y="598" font-family="Arial" font-size="10" fill="#666">3.6s</text>
<line x1="739.33" y1="575" x2="739.33" y2="582" stroke="#666" />
<text x="727.33" y="598" font-family="Arial" font-size="10" fill="#666">4.8s</text>
<line x1="904.67" y1="575" x2="904.67" y2="582" stroke="#666" />
<text x="892.67" y="598" font-family="Arial" font-size="10" fill="#666">6.1s</text>
<line x1="1070.00" y1="575" x2="1070.00" y2="582" stroke="#666" />
<text x="1058.00" y="598" font-family="Arial" font-size="10" fill="#666">7.3s</text>
</svg>