<svg xmlns="http://www.w3.org/2000/svg" width="1100" height="820" viewBox="0 0 1100 820">
<rect width="100%" height="100%" fill="white" />
<text x="72" y="25" font-family="Arial" font-size="18" font-weight="700" fill="#111">05_twinkle_twinkle</text>
<text x="18" y="87.5" font-family="Arial" font-size="12" fill="#444">Waveform</text>
<line x1="72" y1="125" x2="1072" y2="125" stroke="#ddd" />
<rect x="72" y="50" width="1000" height="75" fill="none" stroke="#eee" />
<polyline points="72.00,87.50 72.83,87.50 73.67,87.50 74.50,87.50 75.33,87.50 76.16,87.50 77.00,87.50 77.84,87.51 78.67,87.76 79.50,87.28 80.34,87.59 81.17,87.52 82.00,87.46 82.84,87.72 83.67,86.94 84.51,87.48 85.34,86.83 86.17,87.67 87.01,86.75 87.84,87.78 88.68,87.28 89.51,87.23 90.35,89.13 91.18,87.86 92.01,85.97 92.84,88.42 93.68,87.38 94.52,88.74 95.35,87.74 96.18,86.03 97.02,88.68 97.85,88.42 98.69,87.64 99.52,86.45 100.35,88.17 101.19,88.26 102.02,86.48 102.85,88.10 103.69,86.44 104.53,87.94 105.36,87.51 106.19,87.56 107.02,87.04 107.86,87.62 108.69,88.14 109.53,86.14 110.36,87.35 111.20,87.81 112.03,87.65 112.86,88.31 113.69,86.26 114.53,87.21 115.37,87.93 116.20,87.97 117.03,88.27 117.87,86.32 118.70,88.70 119.53,87.72 120.37,86.20 121.21,89.12 122.04,86.09 122.87,87.41 123.70,88.73 124.54,86.34 125.38,88.27 126.21,87.22 127.04,85.99 127.88,88.76 128.71,87.67 129.54,86.84 130.37,87.72 131.21,86.77 132.05,88.06 132.88,87.83 133.71,86.52 134.55,88.43 135.38,87.24 136.22,87.82 137.05,87.57 137.88,86.96 138.72,88.02 139.55,87.23 140.38,88.77 141.22,86.85 142.06,87.10 142.89,91.68 143.72,84.19 144.56,90.43 145.39,87.26 146.22,87.82 147.06,89.36 147.89,86.97 148.73,87.17 149.56,87.23 150.39,87.26 151.23,88.23 152.07,87.80 152.90,86.45 153.73,87.49 154.56,87.39 155.40,84.92 156.23,84.20 157.06,78.99 157.90,98.54 158.74,97.60 159.57,94.26 160.40,88.94 161.23,71.86 162.07,89.58 162.91,85.44 163.74,75.17 164.57,83.75 165.41,95.26 166.24,97.32 167.07,98.42 167.91,100.28 168.75,93.57 169.58,86.91 170.41,79.98 171.24,74.42 172.08,78.05 172.91,85.19 173.75,87.45 174.58,83.31 175.42,81.43 176.25,81.99 177.08,87.69 177.91,95.23 178.75,97.39 179.59,97.41 180.42,96.09 181.25,93.93 182.09,93.27 182.92,86.21 183.76,79.66 184.59,75.15 185.42,77.39 186.26,78.54 187.09,82.67 187.92,84.30 188.76,86.07 189.60,84.23 190.43,86.85 191.26,88.63 192.09,90.46 192.93,89.97 193.76,91.43 194.60,89.95 195.43,89.94 196.27,89.65 197.10,85.24 197.93,86.09 198.77,86.19 199.60,86.79 200.44,86.50 201.27,85.08 202.10,88.26 202.94,86.93 203.77,87.13 204.60,86.95 205.44,86.63 206.28,92.01 207.11,86.39 207.94,88.70 208.77,86.52 209.61,87.54 210.45,84.40 211.28,75.99 212.11,82.54 212.95,83.38 213.78,82.29 214.61,97.25 215.44,93.26 216.28,96.43 217.12,101.10 217.95,89.27 218.78,72.44 219.62,72.61 220.45,84.98 221.29,94.84 222.12,90.48 222.96,80.30 223.79,69.81 224.62,81.80 225.45,96.24 226.29,97.84 227.13,94.01 227.96,87.77 228.79,93.49 229.63,98.19 230.46,95.18 231.29,87.66 232.13,71.03 232.96,76.87 233.80,87.00 234.63,91.95 235.46,86.18 236.30,83.76 237.14,89.50 237.97,97.07 238.80,97.97 239.63,92.82 240.47,91.48 241.30,82.87 242.13,76.68 242.97,77.48 243.81,84.66 244.64,91.43 245.47,86.87 246.31,85.72 247.14,85.92 247.98,89.44 248.81,95.46 249.64,91.50 250.48,93.37 251.31,87.16 252.14,88.09 252.98,87.09 253.82,86.59 254.65,89.10 255.48,87.21 256.31,87.96 257.15,87.94 257.98,88.01 258.82,87.69 259.65,87.32 260.49,89.09 261.32,86.96 262.15,87.43 262.98,88.11 263.82,85.74 264.66,86.76 265.49,89.15 266.32,86.67 267.16,87.78 267.99,87.80 268.83,87.03 269.66,87.93 270.49,87.30 271.33,86.14 272.16,89.11 272.99,86.94 273.83,90.52 274.67,92.29 275.50,85.35 276.33,102.26 277.17,71.11 278.00,87.43 278.83,92.90 279.67,80.32 280.50,102.73 281.34,78.17 282.17,90.19 283.00,78.03 283.84,78.77 284.67,99.43 285.51,82.23 286.34,100.78 287.17,80.44 288.01,95.87 288.84,68.13 289.67,88.90 290.51,71.09 291.35,88.56 292.18,77.08 293.01,91.11 293.84,84.74 294.68,90.10 295.52,92.37 296.35,87.37 297.18,97.12 298.02,87.88 298.85,97.07 299.68,86.91 300.52,97.28 301.36,84.13 302.19,97.50 303.02,82.11 303.85,94.56 304.69,77.84 305.52,95.37 306.36,75.66 307.19,94.08 308.03,74.27 308.86,92.23 309.69,80.27 310.52,90.57 311.36,94.00 312.20,78.16 313.03,91.49 313.86,87.98 314.70,86.05 315.53,88.91 316.36,89.11 317.20,85.31 318.03,88.75 318.87,87.00 319.70,88.11 320.53,86.65 321.37,87.39 322.21,86.61 323.04,88.14 323.87,87.73 324.71,86.97 325.54,88.34 326.37,85.97 327.20,88.48 328.04,87.72 328.88,86.93 329.71,89.96 330.54,87.16 331.38,88.50 332.21,63.47 333.05,94.65 333.88,80.88 334.71,102.78 335.55,99.05 336.38,101.63 337.21,98.37 338.05,93.43 338.89,94.68 339.72,92.69 340.55,91.25 341.38,90.88 342.22,86.91 343.05,91.89 343.89,85.30 344.72,89.83 345.56,89.22 346.39,89.97 347.22,88.75 348.05,82.08 348.89,82.60 349.73,66.28 350.56,80.56 351.39,61.53 352.23,80.14 353.06,64.36 353.89,87.46 354.73,73.38 355.57,96.91 356.40,81.75 357.23,99.89 358.06,89.96 358.90,100.68 359.74,99.75 360.57,101.89 361.40,103.18 362.24,100.18 363.07,101.00 363.90,97.72 364.74,95.46 365.57,85.98 366.41,92.95 367.24,81.25 368.07,89.49 368.91,78.36 369.74,88.40 370.58,73.27 371.41,87.39 372.24,70.42 373.08,86.28 373.91,66.98 374.74,86.47 375.58,67.68 376.42,91.59 377.25,75.57 378.08,99.49 378.92,98.79 379.75,101.27 380.59,100.18 381.42,87.77 382.25,79.86 383.09,61.70 383.92,85.59 384.75,80.46 385.59,105.03 386.43,101.26 387.26,72.22 388.09,79.19 388.92,82.11 389.76,104.61 390.59,94.90 391.43,53.00 392.26,98.02 393.10,103.36 393.93,69.10 394.76,89.74 395.59,89.72 396.43,98.85 397.27,85.91 398.10,70.54 398.93,106.24 399.77,99.53 400.60,57.53 401.43,90.10 402.27,91.24 403.11,91.66 403.94,93.77 404.77,93.42 405.60,83.19 406.44,90.27 407.28,86.94 408.11,85.13 408.94,87.73 409.78,87.57 410.61,86.70 411.44,87.36 412.27,88.01 413.11,88.00 413.95,87.92 414.78,85.87 415.61,87.67 416.45,88.62 417.28,87.04 418.12,88.08 418.95,86.45 419.78,87.82 420.62,86.51 421.45,89.65 422.28,76.70 423.12,96.99 423.96,95.33 424.79,65.73 425.62,98.27 426.45,86.58 427.29,77.31 428.12,99.18 428.96,85.14 429.79,73.53 430.63,101.77 431.46,85.59 432.29,63.47 433.13,103.00 433.97,91.47 434.80,65.68 435.63,98.32 436.46,95.63 437.30,84.58 438.13,91.98 438.96,87.64 439.80,86.66 440.64,91.06 441.47,91.86 442.30,82.98 443.13,89.10 443.97,92.83 444.81,79.42 445.64,87.57 446.47,94.76 447.31,83.70 448.14,88.85 448.97,87.43 449.81,88.89 450.64,92.87 451.48,73.09 452.31,95.29 453.14,100.74 453.98,68.56 454.81,88.68 455.65,96.45 456.48,84.14 457.32,92.23 458.15,80.16 458.98,88.77 459.81,98.67 460.65,74.53 461.49,87.76 462.32,96.99 463.15,76.63 463.99,90.84 464.82,89.64 465.66,83.28 466.49,93.13 467.32,81.61 468.16,87.04 468.99,89.46 469.82,87.84 470.66,86.52 471.50,88.59 472.33,86.11 473.16,87.83 473.99,87.84 474.83,86.58 475.66,89.25 476.50,87.71 477.33,85.59 478.17,87.80 479.00,87.43 479.83,86.37 480.66,88.90 481.50,87.31 482.34,86.25 483.17,87.28 484.00,87.81 484.84,86.55 485.67,86.48 486.50,88.65 487.34,87.47 488.18,87.99 489.01,87.80 489.84,85.87 490.67,88.17 491.51,87.59 492.35,89.59 493.18,88.04 494.01,68.75 494.85,89.19 495.68,69.10 496.51,84.06 497.34,91.56 498.18,90.14 499.02,95.77 499.85,93.07 500.68,100.56 501.52,74.22 502.35,94.54 503.19,67.76 504.02,93.92 504.85,69.03 505.69,87.80 506.52,71.65 507.35,85.21 508.19,83.57 509.03,81.71 509.86,91.95 510.69,80.42 511.53,93.82 512.36,86.03 513.19,90.88 514.03,93.53 514.86,98.65 515.70,89.91 516.53,99.46 517.36,76.05 518.20,92.73 519.04,71.11 519.87,91.41 520.70,71.97 521.53,86.63 522.37,80.21 523.20,85.17 524.03,85.30 524.87,82.73 525.71,88.95 526.54,83.17 527.37,88.48 528.20,84.48 529.04,89.62 529.88,83.50 530.71,89.88 531.54,83.45 532.38,89.09 533.21,84.86 534.04,88.88 534.88,84.33 535.72,91.68 536.55,86.21 537.38,95.14 538.21,86.54 539.05,98.27 539.88,91.70 540.72,95.72 541.55,94.89 542.39,91.68 543.22,79.64 544.05,113.59 544.88,73.22 545.72,93.34 546.56,101.50 547.39,76.14 548.22,99.85 549.06,97.36 549.89,77.38 550.73,116.86 551.56,81.40 552.39,92.14 553.23,90.13 554.06,83.45 554.89,92.28 555.73,84.57 556.57,84.52 557.40,91.26 558.23,85.78 559.06,88.99 559.90,84.45 560.73,85.28 561.57,92.63 562.40,84.45 563.24,87.63 564.07,84.90 564.90,89.71 565.74,87.10 566.57,85.36 567.41,87.49 568.24,88.47 569.07,87.53 569.91,86.53 570.74,86.16 571.57,88.60 572.41,86.80 573.25,89.24 574.08,85.88 574.91,88.84 575.74,88.40 576.58,86.03 577.42,88.20 578.25,86.96 579.08,87.85 579.92,88.79 580.75,84.78 581.58,88.64 582.41,87.02 583.25,87.64 584.09,88.14 584.92,85.46 585.75,88.62 586.59,87.97 587.42,84.53 588.26,88.05 589.09,88.91 589.93,87.36 590.76,87.68 591.59,88.31 592.42,88.03 593.26,87.93 594.10,87.72 594.93,86.82 595.76,86.83 596.60,89.13 597.43,87.41 598.26,85.63 599.10,87.05 599.93,87.26 600.77,88.03 601.60,87.91 602.43,86.12 603.27,88.77 604.11,86.13 604.94,88.04 605.77,88.68 606.60,84.36 607.44,88.93 608.27,87.38 609.10,86.81 609.94,88.15 610.78,86.48 611.61,87.96 612.44,87.36 613.27,87.69 614.11,87.88 614.95,87.16 615.78,87.96 616.61,87.09 617.45,87.35 618.28,88.44 619.11,88.67 619.95,91.63 620.79,88.30 621.62,89.32 622.45,86.86 623.28,98.63 624.12,90.20 624.95,97.68 625.79,87.04 626.62,87.25 627.46,95.82 628.29,55.25 629.12,77.59 629.95,84.91 630.79,96.63 631.63,65.20 632.46,75.02 633.29,86.31 634.13,94.29 634.96,82.79 635.79,69.70 636.63,93.14 637.46,88.24 638.30,97.61 639.13,97.50 639.96,92.94 640.80,56.11 641.64,84.63 642.47,98.10 643.30,95.58 644.14,87.25 644.97,80.66 645.80,92.76 646.64,56.91 647.47,82.52 648.31,105.58 649.14,81.76 649.97,97.54 650.81,97.45 651.64,90.80 652.48,85.32 653.31,84.53 654.14,92.47 654.98,65.32 655.81,82.26 656.64,105.96 657.48,62.43 658.32,87.20 659.15,108.36 659.98,75.66 660.81,96.08 661.65,97.20 662.49,82.22 663.32,104.28 664.15,92.40 664.99,83.49 665.82,92.41 666.65,86.96 667.48,95.52 668.33,82.34 669.16,85.56 669.99,96.31 670.82,82.20 671.66,94.56 672.49,89.51 673.33,96.69 674.16,92.90 675.00,95.99 675.83,90.83 676.66,101.88 677.49,98.21 678.33,87.50 679.17,97.19 680.00,88.85 680.83,84.54 681.67,97.74 682.50,89.95 683.33,83.12 684.17,97.45 685.00,90.01 685.84,84.80 686.67,92.93 687.50,92.23 688.34,84.40 689.18,91.65 690.01,96.57 690.84,64.73 691.67,76.53 692.51,100.21 693.34,81.77 694.17,91.91 695.01,97.19 695.85,90.44 696.68,87.09 697.51,92.27 698.35,94.45 699.18,66.92 700.02,83.99 700.85,100.48 701.68,65.54 702.52,77.80 703.35,102.98 704.18,69.32 705.02,80.82 705.86,104.66 706.69,70.67 707.52,85.67 708.35,100.16 709.19,83.12 710.02,89.69 710.86,100.16 711.69,87.89 712.53,88.90 713.36,96.84 714.19,89.25 715.02,83.73 715.86,94.64 716.70,92.27 717.53,75.18 718.36,88.86 719.20,99.08 720.03,68.32 720.86,88.49 721.70,101.75 722.54,65.16 723.37,93.46 724.20,99.21 725.03,84.09 725.87,75.50 726.71,95.54 727.54,85.81 728.37,93.18 729.21,92.40 730.04,86.14 730.87,78.85 731.71,80.16 732.54,85.36 733.38,87.93 734.21,86.55 735.04,86.12 735.88,86.23 736.71,88.26 737.55,98.75 738.38,91.40 739.21,81.70 740.05,82.10 740.88,92.38 741.71,85.36 742.55,94.11 743.39,90.04 744.22,82.09 745.05,85.99 745.88,91.71 746.72,92.92 747.56,71.11 748.39,87.72 749.22,92.62 750.06,92.76 750.89,73.50 751.72,88.71 752.56,92.14 753.40,89.42 754.23,75.78 755.06,88.49 755.89,92.24 756.73,90.95 757.56,74.95 758.40,87.81 759.23,91.38 760.07,92.45 760.90,74.13 761.73,92.12 762.56,88.72 763.40,94.75 764.24,73.47 765.07,94.07 765.90,88.08 766.74,92.78 767.57,79.94 768.40,90.24 769.24,85.79 770.07,95.62 770.91,85.89 771.74,82.18 772.57,89.27 773.41,87.04 774.25,93.82 775.08,76.57 775.91,89.19 776.75,87.88 777.58,95.36 778.41,82.68 779.24,82.66 780.08,88.67 780.92,91.02 781.75,95.61 782.58,75.41 783.42,89.02 784.25,88.71 785.09,96.01 785.92,87.59 786.75,76.34 787.59,89.47 788.42,86.95 789.25,91.49 790.09,90.55 790.93,88.21 791.76,86.56 792.59,85.82 793.42,83.96 794.26,90.96 795.09,91.31 795.93,71.75 796.76,97.49 797.60,83.55 798.43,94.29 799.26,76.22 800.09,96.57 800.94,81.89 801.77,94.75 802.60,83.93 803.43,94.37 804.27,79.24 805.10,95.54 805.93,88.82 806.77,89.78 807.61,82.06 808.44,94.87 809.27,88.60 810.10,82.11 810.94,86.55 811.78,92.58 812.61,90.88 813.44,73.64 814.28,91.05 815.11,89.12 815.94,94.50 816.78,71.79 817.61,97.14 818.45,79.92 819.28,99.34 820.11,85.00 820.95,85.48 821.78,89.13 822.62,88.92 823.45,94.78 824.28,72.66 825.12,97.51 825.95,79.88 826.78,98.24 827.62,86.87 828.46,81.22 829.29,91.50 830.12,83.73 830.96,97.00 831.79,74.12 832.62,91.11 833.46,82.15 834.29,95.55 835.13,88.42 835.96,72.59 836.79,95.42 837.63,81.54 838.47,98.63 839.30,78.92 840.13,86.62 840.96,89.13 841.80,90.94 842.63,90.95 843.47,79.00 844.30,85.76 845.14,90.97 845.97,89.67 846.80,91.61 847.63,90.70 848.47,86.58 849.31,85.32 850.14,85.46 850.97,84.41 851.81,84.00 852.64,85.23 853.47,87.43 854.31,89.97 855.15,90.99 855.98,90.62 856.81,91.88 857.64,91.26 858.48,87.08 859.32,83.44 860.15,80.89 860.98,84.28 861.82,87.54 862.65,85.40 863.48,91.19 864.31,89.90 865.15,94.82 865.99,96.54 866.82,93.76 867.65,90.58 868.49,83.62 869.32,73.45 870.16,88.16 870.99,85.15 871.82,83.05 872.66,87.75 873.49,89.27 874.32,91.29 875.16,95.79 876.00,93.83 876.83,82.11 877.66,76.83 878.49,90.11 879.33,83.74 880.16,82.39 881.00,91.25 881.83,92.64 882.67,92.84 883.50,93.46 884.33,88.51 885.17,73.50 886.01,86.29 886.84,88.24 887.67,84.83 888.50,81.21 889.34,91.18 890.17,96.08 891.00,91.90 891.84,91.96 892.68,86.89 893.51,76.07 894.34,84.80 895.17,88.38 896.01,82.55 896.85,88.49 897.68,94.48 898.51,95.77 899.35,93.13 900.18,85.69 901.01,78.84 901.85,80.36 902.68,86.39 903.52,89.67 904.35,86.82 905.18,88.87 906.02,89.83 906.85,91.40 907.69,90.56 908.52,90.42 909.36,89.99 910.19,89.03 911.02,89.01 911.85,87.32 912.69,88.24 913.53,85.68 914.36,83.35 915.19,80.10 916.03,87.60 916.86,89.30 917.69,86.11 918.53,91.84 919.36,97.18 920.20,91.14 921.03,76.22 921.86,78.51 922.70,95.40 923.54,83.08 924.37,83.46 925.20,98.77 926.03,92.44 926.87,86.73 927.70,75.02 928.54,86.55 929.37,92.99 930.21,82.05 931.04,85.44 931.87,97.18 932.71,95.27 933.54,89.44 934.38,83.19 935.21,76.61 936.04,81.75 936.88,88.95 937.71,93.56 938.54,84.70 939.38,81.31 940.22,88.97 941.05,89.00 941.88,94.61 942.71,96.54 943.55,92.01 944.39,89.76 945.22,88.86 946.05,79.08 946.89,74.68 947.72,80.71 948.55,86.83 949.38,92.82 950.22,92.12 951.06,84.23 951.89,82.71 952.72,84.98 953.56,88.42 954.39,92.70 955.23,95.00 956.06,92.87 956.89,91.27 957.73,90.84 958.56,89.04 959.39,87.64 960.23,81.16 961.07,74.27 961.90,77.92 962.73,82.13 963.57,87.52 964.40,90.12 965.23,91.73 966.07,90.25 966.90,83.01 967.74,84.19 968.57,84.95 969.40,85.21 970.24,91.32 971.08,88.82 971.91,91.45 972.74,92.51 973.57,88.37 974.41,93.76 975.24,90.74 976.07,88.95 976.91,92.84 977.75,89.08 978.58,86.36 979.41,89.88 980.24,79.14 981.08,80.44 981.92,93.73 982.75,86.95 983.58,85.56 984.42,88.02 985.25,71.27 986.08,73.88 986.92,70.45 987.76,80.55 988.59,82.15 989.42,83.61 990.25,88.62 991.09,83.47 991.92,82.50 992.76,79.17 993.59,73.90 994.43,76.88 995.26,80.46 996.09,81.15 996.92,88.73 997.76,86.72 998.60,88.24 999.43,87.60 1000.26,82.55 1001.10,85.72 1001.93,85.40 1002.76,84.97 1003.60,91.73 1004.43,87.37 1005.27,89.52 1006.10,91.24 1006.93,86.86 1007.77,89.42 1008.61,92.03 1009.44,90.38 1010.27,94.72 1011.11,94.20 1011.94,90.52 1012.77,93.86 1013.61,90.03 1014.44,85.61 1015.28,90.40 1016.11,82.62 1016.94,80.76 1017.78,82.43 1018.61,78.18 1019.45,85.71 1020.28,86.62 1021.11,85.47 1021.95,90.14 1022.78,84.57 1023.61,85.88 1024.45,87.78 1025.29,81.49 1026.12,88.15 1026.95,87.99 1027.78,87.82 1028.62,90.58 1029.46,88.70 1030.29,89.75 1031.12,91.67 1031.96,89.21 1032.79,93.55 1033.62,91.00 1034.45,87.97 1035.29,90.28 1036.13,84.14 1036.96,85.22 1037.79,83.39 1038.63,79.91 1039.46,85.37 1040.30,83.94 1041.13,85.82 1041.97,86.99 1042.80,84.95 1043.63,86.73 1044.46,87.89 1045.30,87.72 1046.14,87.64 1046.97,87.48 1047.80,87.54 1048.64,87.54 1049.47,88.73 1050.30,85.55 1051.14,87.97 1051.97,88.71 1052.81,86.46 1053.64,88.84 1054.47,86.75 1055.31,86.44 1056.15,88.73 1056.98,85.82 1057.81,88.58 1058.64,88.58 1059.48,89.08 1060.31,91.24 1061.14,87.43 1061.98,86.14 1062.82,90.83 1063.65,85.18 1064.48,87.34 1065.32,89.36 1066.15,85.13 1066.99,89.55 1067.82,86.70 1068.65,85.64 1069.49,91.26 1070.32,86.06 1071.15,87.50 1071.99,87.50" fill="none" stroke="#444" stroke-width="1.0" />
<text x="18" y="212.5" font-family="Arial" font-size="12" fill="#444">Voiced probability</text>
<line x1="72" y1="255" x2="1072" y2="255" stroke="#ddd" />
<rect x="72" y="170" width="1000" height="85" fill="none" stroke="#eee" />
<polyline points="72.00,207.51 73.17,219.36 74.34,223.60 75.51,227.59 76.68,232.33 77.84,229.27 79.01,218.58 80.18,215.07 81.35,215.81 82.52,215.08 83.69,211.37 84.86,205.74 86.03,203.76 87.20,202.81 88.37,203.08 89.53,203.38 90.70,202.03 91.87,201.42 93.04,199.71 94.21,200.27 95.38,201.63 96.55,201.85 97.72,201.67 98.89,203.77 100.05,204.22 101.22,203.98 102.39,201.93 103.56,199.65 104.73,199.63 105.90,199.88 107.07,199.98 108.24,199.72 109.41,201.44 110.58,202.51 111.74,202.46 112.91,202.47 114.08,203.73 115.25,203.28 116.42,201.51 117.59,203.27 118.76,206.98 119.93,207.96 121.10,208.45 122.26,210.29 123.43,212.46 124.60,211.95 125.77,212.05 126.94,212.37 128.11,211.86 129.28,211.51 130.45,211.46 131.62,211.76 132.79,211.52 133.95,211.86 135.12,209.70 136.29,208.41 137.46,208.08 138.63,208.45 139.80,210.10 140.97,209.39 142.14,207.35 143.31,206.45 144.47,210.07 145.64,213.44 146.81,214.86 147.98,217.58 149.15,218.61 150.32,216.40 151.49,209.53 152.66,203.89 153.83,201.20 155.00,197.48 156.16,189.76 157.33,184.20 158.50,181.48 159.67,180.78 160.84,179.57 162.01,179.40 163.18,179.03 164.35,178.20 165.52,178.28 166.68,177.79 167.85,177.39 169.02,177.03 170.19,176.85 171.36,176.58 172.53,176.19 173.70,175.79 174.87,175.98 176.04,176.20 177.21,176.64 178.37,176.80 179.54,177.13 180.71,177.40 181.88,177.27 183.05,177.16 184.22,177.47 185.39,177.18 186.56,177.24 187.73,177.38 188.89,177.78 190.06,178.79 191.23,180.28 192.40,182.69 193.57,185.47 194.74,188.80 195.91,191.17 197.08,194.66 198.25,197.83 199.42,199.51 200.58,198.09 201.75,200.31 202.92,202.29 204.09,198.97 205.26,196.96 206.43,193.52 207.60,189.80 208.77,186.94 209.94,183.78 211.11,181.10 212.27,179.25 213.44,177.85 214.61,177.16 215.78,176.88 216.95,176.63 218.12,176.20 219.29,175.85 220.46,175.58 221.63,175.24 222.79,176.07 223.96,176.28 225.13,177.01 226.30,177.33 227.47,177.46 228.64,177.14 229.81,176.74 230.98,176.71 232.15,176.58 233.32,176.52 234.48,176.60 235.65,176.74 236.82,177.08 237.99,177.03 239.16,176.86 240.33,176.91 241.50,177.12 242.67,177.49 243.84,177.26 245.00,177.26 246.17,177.31 247.34,177.33 248.51,177.26 249.68,177.54 250.85,177.66 252.02,178.29 253.19,179.08 254.36,181.01 255.53,185.79 256.69,191.60 257.86,195.73 259.03,201.66 260.20,204.64 261.37,204.88 262.54,207.17 263.71,206.72 264.88,205.66 266.05,206.45 267.21,208.19 268.38,204.06 269.55,198.76 270.72,189.91 271.89,185.39 273.06,182.37 274.23,180.58 275.40,179.48 276.57,177.94 277.74,176.69 278.90,175.85 280.07,175.32 281.24,174.95 282.41,174.75 283.58,174.88 284.75,174.96 285.92,174.74 287.09,174.31 288.26,173.91 289.42,173.56 290.59,173.29 291.76,173.20 292.93,173.18 294.10,173.27 295.27,173.27 296.44,173.29 297.61,173.29 298.78,173.26 299.95,173.24 301.11,173.40 302.28,173.71 303.45,173.92 304.62,173.86 305.79,173.73 306.96,173.71 308.13,173.75 309.30,174.15 310.47,174.86 311.63,176.54 312.80,179.51 313.97,183.67 315.14,185.79 316.31,190.35 317.48,196.74 318.65,202.32 319.82,205.66 320.99,210.75 322.16,214.67 323.32,211.94 324.49,202.40 325.66,196.02 326.83,187.14 328.00,178.51 329.17,176.02 330.34,175.12 331.51,175.67 332.68,176.23 333.84,176.67 335.01,176.30 336.18,175.63 337.35,175.23 338.52,175.27 339.69,175.36 340.86,175.69 342.03,175.80 343.20,175.98 344.37,176.00 345.53,175.95 346.70,176.07 347.87,176.05 349.04,175.86 350.21,175.99 351.38,175.80 352.55,175.42 353.72,175.24 354.89,175.16 356.05,175.15 357.22,175.31 358.39,175.45 359.56,175.41 360.73,175.32 361.90,175.21 363.07,175.30 364.24,175.18 365.41,175.15 366.58,175.41 367.74,175.55 368.91,175.43 370.08,175.35 371.25,175.19 372.42,175.17 373.59,174.65 374.76,174.22 375.93,174.14 377.10,174.12 378.26,174.41 379.43,174.64 380.60,174.98 381.77,175.15 382.94,175.01 384.11,174.39 385.28,173.99 386.45,173.88 387.62,174.01 388.79,174.11 389.95,174.40 391.12,174.68 392.29,174.90 393.46,174.92 394.63,174.76 395.80,174.75 396.97,174.80 398.14,174.79 399.31,174.75 400.47,174.51 401.64,174.44 402.81,174.38 403.98,174.92 405.15,176.47 406.32,179.37 407.49,183.37 408.66,191.31 409.83,199.31 411.00,204.04 412.16,214.52 413.33,220.42 414.50,221.41 415.67,213.99 416.84,203.80 418.01,190.87 419.18,182.89 420.35,177.63 421.52,175.11 422.68,174.51 423.85,174.03 425.02,173.78 426.19,173.91 427.36,174.00 428.53,173.82 429.70,173.63 430.87,173.32 432.04,173.11 433.21,172.99 434.37,173.10 435.54,173.25 436.71,173.57 437.88,173.62 439.05,173.59 440.22,173.69 441.39,173.78 442.56,173.83 443.73,173.71 444.89,173.59 446.06,173.37 447.23,173.10 448.40,173.01 449.57,172.89 450.74,172.81 451.91,172.88 453.08,172.88 454.25,172.84 455.42,172.93 456.58,173.00 457.75,173.07 458.92,173.08 460.09,173.16 461.26,173.35 462.43,173.67 463.60,174.00 464.77,174.35 465.94,174.86 467.11,175.90 468.27,177.81 469.44,180.76 470.61,184.72 471.78,191.59 472.95,199.52 474.12,209.92 475.29,215.71 476.46,222.29 477.63,227.85 478.79,229.83 479.96,231.28 481.13,232.71 482.30,233.38 483.47,231.54 484.64,229.06 485.81,224.87 486.98,219.67 488.15,212.81 489.32,202.89 490.48,189.18 491.65,183.47 492.82,180.20 493.99,177.82 495.16,176.44 496.33,175.49 497.50,175.13 498.67,174.75 499.84,174.37 501.00,174.13 502.17,173.96 503.34,173.79 504.51,173.78 505.68,173.90 506.85,174.02 508.02,174.26 509.19,174.50 510.36,174.47 511.53,174.44 512.69,174.43 513.86,174.28 515.03,174.25 516.20,174.20 517.37,174.01 518.54,173.82 519.71,173.84 520.88,173.85 522.05,173.85 523.21,173.95 524.38,174.24 525.55,174.88 526.72,176.02 527.89,177.05 529.06,178.50 530.23,178.83 531.40,178.89 532.57,179.39 533.74,180.11 534.90,180.20 536.07,180.95 537.24,182.35 538.41,185.04 539.58,185.42 540.75,185.45 541.92,185.55 543.09,186.01 544.26,186.20 545.42,186.85 546.59,187.06 547.76,185.89 548.93,183.70 550.10,182.73 551.27,184.79 552.44,186.26 553.61,188.78 554.78,192.29 555.95,196.68 557.11,198.88 558.28,202.03 559.45,204.30 560.62,203.83 561.79,204.56 562.96,204.03 564.13,202.50 565.30,200.98 566.47,201.57 567.63,201.09 568.80,201.62 569.97,201.30 571.14,200.33 572.31,200.43 573.48,200.28 574.65,199.95 575.82,200.48 576.99,200.56 578.16,201.85 579.32,203.42 580.49,204.24 581.66,206.86 582.83,208.45 584.00,210.15 585.17,210.53 586.34,212.15 587.51,213.90 588.68,214.41 589.84,215.33 591.01,216.54 592.18,217.06 593.35,216.47 594.52,214.83 595.69,214.92 596.86,213.62 598.03,211.66 599.20,211.56 600.37,211.38 601.53,211.37 602.70,210.07 603.87,207.29 605.04,208.96 606.21,210.51 607.38,211.65 608.55,211.97 609.72,214.66 610.89,215.61 612.05,218.80 613.22,219.82 614.39,219.19 615.56,215.54 616.73,207.15 617.90,194.31 619.07,186.17 620.24,180.72 621.41,181.62 622.58,181.70 623.74,180.88 624.91,179.96 626.08,178.67 627.25,177.84 628.42,177.27 629.59,176.82 630.76,176.04 631.93,175.70 633.10,175.61 634.26,175.51 635.43,175.24 636.60,175.13 637.77,175.17 638.94,175.07 640.11,175.07 641.28,174.94 642.45,174.93 643.62,174.80 644.79,174.65 645.95,174.46 647.12,174.51 648.29,174.65 649.46,174.86 650.63,175.08 651.80,175.21 652.97,175.29 654.14,175.17 655.31,175.24 656.47,175.21 657.64,175.16 658.81,175.24 659.98,175.36 661.15,175.49 662.32,175.33 663.49,175.27 664.66,175.32 665.83,175.38 667.00,175.63 668.16,175.71 669.33,175.71 670.50,175.61 671.67,175.64 672.84,175.73 674.01,175.54 675.18,175.48 676.35,175.54 677.52,175.70 678.68,175.83 679.85,176.46 681.02,176.80 682.19,177.23 683.36,177.11 684.53,176.78 685.70,176.81 686.87,176.47 688.04,176.29 689.21,176.04 690.37,175.85 691.54,175.65 692.71,175.31 693.88,175.13 695.05,174.99 696.22,174.95 697.39,174.96 698.56,175.04 699.73,175.17 700.89,175.31 702.06,175.52 703.23,175.77 704.40,176.03 705.57,176.21 706.74,176.42 707.91,176.49 709.08,176.79 710.25,176.63 711.42,176.65 712.58,176.40 713.75,176.17 714.92,176.00 716.09,176.02 717.26,176.05 718.43,175.88 719.60,175.66 720.77,175.24 721.94,175.08 723.10,175.30 724.27,176.20 725.44,177.36 726.61,178.54 727.78,178.65 728.95,178.98 730.12,179.34 731.29,181.08 732.46,183.63 733.63,184.05 734.79,182.43 735.96,179.88 737.13,179.34 738.30,178.61 739.47,178.50 740.64,178.06 741.81,177.74 742.98,177.25 744.15,176.76 745.32,176.27 746.48,175.81 747.65,175.48 748.82,175.34 749.99,175.24 751.16,175.09 752.33,175.11 753.50,175.09 754.67,175.13 755.84,175.01 757.00,175.21 758.17,175.20 759.34,175.18 760.51,175.17 761.68,174.94 762.85,174.99 764.02,175.00 765.19,175.41 766.36,176.21 767.53,176.93 768.69,176.83 769.86,177.00 771.03,177.75 772.20,178.25 773.37,178.63 774.54,179.66 775.71,180.05 776.88,180.05 778.05,179.22 779.21,178.36 780.38,178.00 781.55,177.63 782.72,177.51 783.89,177.30 785.06,177.14 786.23,178.08 787.40,180.46 788.57,183.49 789.74,186.10 790.90,185.58 792.07,185.88 793.24,185.46 794.41,182.27 795.58,180.80 796.75,179.25 797.92,178.60 799.09,178.19 800.26,178.21 801.42,177.62 802.59,176.71 803.76,175.96 804.93,175.61 806.10,175.65 807.27,175.74 808.44,175.88 809.61,176.20 810.78,176.24 811.95,175.93 813.11,175.83 814.28,175.69 815.45,175.51 816.62,175.21 817.79,175.09 818.96,175.19 820.13,175.47 821.30,175.88 822.47,176.74 823.63,177.61 824.80,178.17 825.97,178.61 827.14,178.53 828.31,178.61 829.48,178.69 830.65,178.85 831.82,178.48 832.99,178.12 834.16,177.94 835.32,177.29 836.49,177.27 837.66,177.37 838.83,177.49 840.00,178.36 841.17,178.89 842.34,179.53 843.51,179.84 844.68,181.48 845.84,183.00 847.01,184.17 848.18,184.40 849.35,186.65 850.52,189.65 851.69,192.90 852.86,196.22 854.03,198.09 855.20,196.84 856.37,192.70 857.53,189.74 858.70,187.63 859.87,185.67 861.04,183.57 862.21,181.96 863.38,180.13 864.55,179.05 865.72,178.51 866.89,178.29 868.05,178.10 869.22,177.63 870.39,177.36 871.56,177.10 872.73,177.01 873.90,177.25 875.07,177.62 876.24,177.82 877.41,178.04 878.58,178.56 879.74,178.73 880.91,179.02 882.08,179.31 883.25,178.94 884.42,178.68 885.59,178.48 886.76,178.19 887.93,178.15 889.10,178.41 890.26,178.47 891.43,178.33 892.60,178.35 893.77,178.39 894.94,178.40 896.11,178.25 897.28,178.15 898.45,177.79 899.62,177.27 900.79,176.65 901.95,176.31 903.12,176.17 904.29,175.82 905.46,175.77 906.63,176.42 907.80,178.09 908.97,180.11 910.14,182.19 911.31,183.92 912.47,184.78 913.64,183.84 914.81,181.52 915.98,178.71 917.15,176.72 918.32,176.21 919.49,175.55 920.66,175.17 921.83,175.07 923.00,175.05 924.16,175.27 925.33,175.77 926.50,176.03 927.67,176.18 928.84,176.31 930.01,176.49 931.18,176.59 932.35,176.61 933.52,176.29 934.68,176.05 935.85,176.09 937.02,175.56 938.19,174.73 939.36,174.29 940.53,174.26 941.70,174.20 942.87,174.67 944.04,174.57 945.21,174.36 946.37,174.56 947.54,174.59 948.71,174.58 949.88,174.64 951.05,174.86 952.22,175.13 953.39,175.48 954.56,175.65 955.73,175.86 956.89,176.15 958.06,176.50 959.23,176.90 960.40,176.63 961.57,177.13 962.74,177.19 963.91,177.22 965.08,177.28 966.25,177.62 967.42,177.83 968.58,178.12 969.75,178.17 970.92,177.99 972.09,178.83 973.26,179.19 974.43,178.40 975.60,180.60 976.77,181.45 977.94,180.87 979.10,180.70 980.27,181.50 981.44,181.67 982.61,182.20 983.78,182.79 984.95,183.73 986.12,183.33 987.29,181.85 988.46,180.68 989.63,179.60 990.79,178.93 991.96,178.36 993.13,178.61 994.30,178.17 995.47,177.50 996.64,177.09 997.81,176.76 998.98,176.57 1000.15,176.68 1001.32,177.44 1002.48,178.37 1003.65,178.94 1004.82,179.08 1005.99,179.77 1007.16,181.54 1008.33,184.40 1009.50,184.83 1010.67,185.80 1011.84,185.66 1013.00,186.56 1014.17,187.66 1015.34,189.71 1016.51,190.65 1017.68,190.73 1018.85,192.59 1020.02,193.36 1021.19,192.39 1022.36,191.63 1023.53,192.61 1024.69,190.24 1025.86,189.92 1027.03,188.77 1028.20,188.65 1029.37,187.75 1030.54,186.12 1031.71,184.86 1032.88,183.92 1034.05,183.91 1035.21,184.03 1036.38,184.79 1037.55,186.22 1038.72,188.51 1039.89,191.41 1041.06,194.10 1042.23,197.70 1043.40,201.95 1044.57,205.68 1045.74,206.47 1046.90,206.41 1048.07,205.48 1049.24,207.01 1050.41,207.70 1051.58,208.45 1052.75,208.52 1053.92,208.29 1055.09,209.62 1056.26,211.45 1057.42,210.84 1058.59,210.35 1059.76,212.88 1060.93,215.52 1062.10,215.71 1063.27,216.85 1064.44,215.39 1065.61,215.71 1066.78,216.93 1067.95,216.33 1069.11,215.11 1070.28,217.30 1071.45,215.13" fill="none" stroke="#2563eb" stroke-width="1.4" />
<line x1="72" y1="229.50" x2="1072" y2="229.50" stroke="#bbb" stroke-dasharray="4 4" />
<text x="1076" y="233.50" font-family="Arial" font-size="10" fill="#666">0.3</text>
<line x1="72" y1="212.50" x2="1072" y2="212.50" stroke="#bbb" stroke-dasharray="4 4" />
<text x="1076" y="216.50" font-family="Arial" font-size="10" fill="#666">0.5</text>
<line x1="72" y1="195.50" x2="1072" y2="195.50" stroke="#bbb" stroke-dasharray="4 4" />
<text x="1076" y="199.50" font-family="Arial" font-size="10" fill="#666">0.7</text>
<line x1="72" y1="178.50" x2="1072" y2="178.50" stroke="#bbb" stroke-dasharray="4 4" />
<text x="1076" y="182.50" font-family="Arial" font-size="10" fill="#666">0.9</text>
<text x="18" y="342.5" font-family="Arial" font-size="12" fill="#444">Pitch confidence</text>
<line x1="72" y1="385" x2="1072" y2="385" stroke="#ddd" />
<rect x="72" y="300" width="1000" height="85" fill="none" stroke="#eee" />
<polyline points="72.00,382.78 73.17,379.65 74.34,377.73 75.51,376.10 76.68,376.37 77.84,377.10 79.01,378.05 80.18,377.37 81.35,377.53 82.52,376.81 83.69,376.89 84.86,378.87 86.03,381.20 87.20,380.00 88.37,378.19 89.53,378.15 90.70,377.75 91.87,377.90 93.04,377.47 94.21,377.10 95.38,376.90 96.55,376.13 97.72,377.18 98.89,377.82 100.05,377.95 101.22,378.23 102.39,376.62 103.56,376.31 104.73,378.10 105.90,378.59 107.07,378.67 108.24,377.49 109.41,376.18 110.58,375.54 111.74,376.43 112.91,377.10 114.08,377.12 115.25,377.19 116.42,376.16 117.59,377.57 118.76,376.82 119.93,375.83 121.10,374.14 122.26,372.61 123.43,371.44 124.60,370.74 125.77,371.49 126.94,372.19 128.11,373.54 129.28,373.76 130.45,372.07 131.62,371.61 132.79,372.26 133.95,372.92 135.12,372.94 136.29,372.05 137.46,371.63 138.63,372.50 139.80,373.27 140.97,373.60 142.14,378.17 143.31,378.67 144.47,376.75 145.64,374.38 146.81,372.05 147.98,371.66 149.15,372.39 150.32,374.67 151.49,376.42 152.66,378.75 153.83,375.69 155.00,361.54 156.16,354.93 157.33,352.89 158.50,353.40 159.67,354.52 160.84,352.70 162.01,351.28 163.18,351.82 164.35,354.56 165.52,351.46 166.68,350.39 167.85,351.85 169.02,354.06 170.19,351.68 171.36,350.08 172.53,348.88 173.70,348.62 174.87,348.53 176.04,348.38 177.21,348.89 178.37,349.64 179.54,350.66 180.71,351.99 181.88,353.60 183.05,355.69 184.22,354.26 185.39,353.25 186.56,352.47 187.73,352.53 188.89,352.91 190.06,353.77 191.23,355.11 192.40,356.24 193.57,356.71 194.74,356.86 195.91,357.90 197.08,358.48 198.25,360.67 199.42,364.23 200.58,367.56 201.75,368.66 202.92,371.34 204.09,370.88 205.26,369.05 206.43,367.25 207.60,365.44 208.77,361.60 209.94,358.10 211.11,355.42 212.27,355.02 213.44,356.53 214.61,353.35 215.78,351.64 216.95,351.75 218.12,352.51 219.29,353.63 220.46,354.31 221.63,351.94 222.79,350.95 223.96,348.99 225.13,349.17 226.30,349.19 227.47,349.14 228.64,349.25 229.81,349.16 230.98,348.96 232.15,348.85 233.32,349.31 234.48,349.88 235.65,351.09 236.82,351.93 237.99,353.64 239.16,352.01 240.33,351.98 241.50,353.13 242.67,353.30 243.84,351.31 245.00,350.82 246.17,350.17 247.34,350.07 248.51,349.82 249.68,349.40 250.85,349.38 252.02,349.69 253.19,350.66 254.36,352.88 255.53,355.80 256.69,359.62 257.86,361.92 259.03,366.77 260.20,367.00 261.37,369.64 262.54,372.57 263.71,374.14 264.88,372.08 266.05,376.49 267.21,376.48 268.38,375.17 269.55,375.43 270.72,367.55 271.89,359.71 273.06,356.78 274.23,355.30 275.40,353.34 276.57,352.05 277.74,350.38 278.90,350.49 280.07,350.72 281.24,351.12 282.41,352.61 283.58,354.13 284.75,352.84 285.92,351.36 287.09,350.22 288.26,350.09 289.42,351.46 290.59,353.37 291.76,354.53 292.93,352.96 294.10,351.70 295.27,350.74 296.44,350.10 297.61,349.73 298.78,349.65 299.95,349.68 301.11,349.74 302.28,349.78 303.45,350.43 304.62,350.93 305.79,352.15 306.96,354.24 308.13,353.65 309.30,351.66 310.47,351.25 311.63,354.35 312.80,355.55 313.97,358.70 315.14,361.29 316.31,363.22 317.48,365.09 318.65,365.85 319.82,367.08 320.99,371.12 322.16,373.75 323.32,373.77 324.49,374.65 325.66,363.97 326.83,361.25 328.00,360.15 329.17,359.35 330.34,357.56 331.51,355.36 332.68,355.22 333.84,356.02 335.01,353.51 336.18,352.48 337.35,352.56 338.52,353.00 339.69,353.80 340.86,353.90 342.03,352.24 343.20,351.27 344.37,350.62 345.53,350.57 346.70,350.12 347.87,350.70 349.04,351.33 350.21,351.73 351.38,352.10 352.55,352.56 353.72,352.71 354.89,352.64 356.05,352.59 357.22,352.24 358.39,351.52 359.56,351.53 360.73,351.48 361.90,351.61 363.07,351.04 364.24,351.28 365.41,351.46 366.58,350.97 367.74,350.66 368.91,350.40 370.08,350.05 371.25,350.48 372.42,350.83 373.59,352.16 374.76,353.80 375.93,354.98 377.10,353.02 378.26,351.81 379.43,352.06 380.60,352.95 381.77,355.29 382.94,352.29 384.11,351.88 385.28,353.90 386.45,353.56 387.62,351.54 388.79,351.64 389.95,353.09 391.12,355.50 392.29,352.92 393.46,352.06 394.63,351.56 395.80,351.24 396.97,351.13 398.14,351.29 399.31,351.87 400.47,353.00 401.64,354.81 402.81,355.37 403.98,354.68 405.15,354.40 406.32,354.80 407.49,356.58 408.66,357.96 409.83,361.21 411.00,367.25 412.16,368.71 413.33,370.18 414.50,368.86 415.67,366.75 416.84,364.94 418.01,361.98 419.18,358.80 420.35,358.23 421.52,355.75 422.68,355.07 423.85,353.83 425.02,352.65 426.19,354.61 427.36,356.18 428.53,354.92 429.70,354.16 430.87,353.91 432.04,354.11 433.21,354.49 434.37,354.32 435.54,354.15 436.71,353.44 437.88,353.11 439.05,352.83 440.22,352.86 441.39,352.72 442.56,352.66 443.73,352.50 444.89,352.43 446.06,352.39 447.23,352.65 448.40,352.90 449.57,353.57 450.74,354.66 451.91,355.79 453.08,355.00 454.25,354.31 455.42,353.84 456.58,353.14 457.75,353.16 458.92,353.24 460.09,353.48 461.26,354.21 462.43,354.73 463.60,354.15 464.77,354.60 465.94,354.00 467.11,354.19 468.27,354.82 469.44,355.49 470.61,356.87 471.78,357.80 472.95,360.29 474.12,364.61 475.29,367.03 476.46,370.99 477.63,374.69 478.79,378.37 479.96,377.11 481.13,375.34 482.30,376.77 483.47,376.54 484.64,377.32 485.81,378.26 486.98,378.92 488.15,378.65 489.32,376.21 490.48,369.32 491.65,362.02 492.82,358.73 493.99,353.64 495.16,352.17 496.33,351.87 497.50,351.02 498.67,351.15 499.84,351.18 501.00,351.56 502.17,352.50 503.34,353.82 504.51,353.36 505.68,351.88 506.85,350.92 508.02,350.58 509.19,350.59 510.36,351.10 511.53,351.51 512.69,351.64 513.86,351.75 515.03,351.67 516.20,351.46 517.37,351.28 518.54,350.69 519.71,349.65 520.88,348.58 522.05,347.77 523.21,347.57 524.38,348.46 525.55,349.74 526.72,351.86 527.89,353.83 529.06,355.48 530.23,356.38 531.40,356.75 532.57,356.78 533.74,356.66 534.90,356.76 536.07,357.65 537.24,358.60 538.41,361.60 539.58,362.89 540.75,364.11 541.92,365.46 543.09,367.62 544.26,367.52 545.42,367.68 546.59,366.94 547.76,366.16 548.93,365.26 550.10,365.26 551.27,368.34 552.44,371.92 553.61,375.52 554.78,371.89 555.95,373.44 557.11,376.84 558.28,378.74 559.45,378.06 560.62,376.75 561.79,377.25 562.96,377.71 564.13,378.25 565.30,378.62 566.47,377.66 567.63,376.92 568.80,376.37 569.97,376.97 571.14,377.47 572.31,377.90 573.48,377.56 574.65,377.41 575.82,376.28 576.99,376.46 578.16,377.70 579.32,376.69 580.49,376.33 581.66,375.05 582.83,375.11 584.00,374.07 585.17,374.47 586.34,374.33 587.51,375.07 588.68,375.22 589.84,375.08 591.01,374.76 592.18,374.41 593.35,373.04 594.52,373.93 595.69,374.69 596.86,373.57 598.03,374.68 599.20,374.14 600.37,374.11 601.53,373.05 602.70,373.59 603.87,375.00 605.04,375.09 606.21,375.54 607.38,376.32 608.55,375.51 609.72,372.72 610.89,372.23 612.05,372.63 613.22,374.42 614.39,374.45 615.56,376.48 616.73,373.55 617.90,364.90 619.07,363.23 620.24,363.61 621.41,355.57 622.58,353.20 623.74,352.36 624.91,351.06 626.08,350.13 627.25,352.60 628.42,352.84 629.59,350.21 630.76,348.81 631.93,349.06 633.10,350.92 634.26,354.39 635.43,352.17 636.60,351.07 637.77,350.51 638.94,350.43 640.11,350.65 641.28,351.77 642.45,353.39 643.62,355.13 644.79,355.61 645.95,354.43 647.12,353.95 648.29,353.80 649.46,353.74 650.63,353.77 651.80,353.86 652.97,353.96 654.14,354.24 655.31,353.29 656.47,352.23 657.64,351.08 658.81,350.14 659.98,349.81 661.15,349.56 662.32,349.74 663.49,350.03 664.66,350.30 665.83,350.61 667.00,351.04 668.16,352.07 669.33,353.78 670.50,353.58 671.67,351.98 672.84,350.83 674.01,350.43 675.18,349.91 676.35,349.60 677.52,349.48 678.68,349.45 679.85,349.33 681.02,349.45 682.19,349.92 683.36,350.59 684.53,351.69 685.70,353.49 686.87,351.63 688.04,350.44 689.21,350.03 690.37,350.08 691.54,350.68 692.71,351.92 693.88,353.08 695.05,354.00 696.22,353.95 697.39,353.67 698.56,352.74 699.73,351.90 700.89,351.13 702.06,350.39 703.23,349.87 704.40,349.39 705.57,349.24 706.74,349.31 707.91,348.97 709.08,348.80 710.25,348.68 711.42,348.69 712.58,348.99 713.75,349.57 714.92,350.01 716.09,350.19 717.26,350.24 718.43,350.70 719.60,351.81 720.77,353.46 721.94,353.90 723.10,353.35 724.27,354.27 725.44,358.13 726.61,356.43 727.78,360.14 728.95,361.14 730.12,362.47 731.29,363.80 732.46,364.59 733.63,367.46 734.79,364.10 735.96,360.66 737.13,359.56 738.30,357.55 739.47,355.37 740.64,355.79 741.81,355.35 742.98,353.66 744.15,354.29 745.32,355.84 746.48,354.15 747.65,353.72 748.82,354.42 749.99,356.02 751.16,353.32 752.33,352.32 753.50,351.66 754.67,351.33 755.84,352.08 757.00,352.47 758.17,353.02 759.34,354.36 760.51,353.76 761.68,353.99 762.85,353.36 764.02,353.08 765.19,352.89 766.36,353.16 767.53,353.90 768.69,353.68 769.86,352.72 771.03,352.68 772.20,352.49 773.37,351.05 774.54,351.32 775.71,350.75 776.88,350.56 778.05,350.17 779.21,350.06 780.38,350.38 781.55,350.61 782.72,351.63 783.89,353.07 785.06,354.19 786.23,353.97 787.40,352.95 788.57,354.19 789.74,356.78 790.90,360.00 792.07,362.04 793.24,363.47 794.41,359.54 795.58,356.01 796.75,355.64 797.92,353.64 799.09,352.89 800.26,352.11 801.42,352.46 802.59,352.05 803.76,352.69 804.93,352.74 806.10,351.61 807.27,350.98 808.44,350.58 809.61,352.07 810.78,352.31 811.95,351.74 813.11,352.90 814.28,352.35 815.45,351.29 816.62,350.63 817.79,349.54 818.96,349.42 820.13,349.11 821.30,348.70 822.47,349.25 823.63,350.08 824.80,351.43 825.97,352.34 827.14,353.76 828.31,354.38 829.48,354.99 830.65,358.73 831.82,366.64 832.99,364.93 834.16,360.32 835.32,358.86 836.49,358.43 837.66,359.03 838.83,360.32 840.00,367.12 841.17,366.77 842.34,362.77 843.51,361.48 844.68,358.13 845.84,355.59 847.01,357.14 848.18,360.71 849.35,362.40 850.52,366.40 851.69,369.70 852.86,370.26 854.03,368.30 855.20,366.98 856.37,364.61 857.53,363.91 858.70,362.05 859.87,361.31 861.04,360.26 862.21,359.73 863.38,356.67 864.55,354.57 865.72,354.92 866.89,353.93 868.05,351.57 869.22,348.26 870.39,346.59 871.56,346.41 872.73,347.42 873.90,349.93 875.07,353.00 876.24,351.98 877.41,350.72 878.58,350.37 879.74,351.48 880.91,352.23 882.08,352.87 883.25,352.52 884.42,352.31 885.59,352.05 886.76,352.66 887.93,352.10 889.10,351.92 890.26,352.64 891.43,353.55 892.60,353.07 893.77,353.68 894.94,353.16 896.11,352.04 897.28,352.29 898.45,352.44 899.62,352.83 900.79,351.88 901.95,350.42 903.12,349.40 904.29,348.23 905.46,350.04 906.63,354.82 907.80,354.46 908.97,355.08 910.14,356.09 911.31,357.39 912.47,359.27 913.64,356.46 914.81,355.87 915.98,358.64 917.15,356.78 918.32,357.04 919.49,355.60 920.66,354.81 921.83,354.32 923.00,353.81 924.16,353.53 925.33,353.73 926.50,354.11 927.67,354.58 928.84,353.97 930.01,351.38 931.18,350.07 932.35,350.10 933.52,350.55 934.68,351.75 935.85,350.97 937.02,347.61 938.19,347.82 939.36,350.25 940.53,352.14 941.70,353.00 942.87,351.18 944.04,350.18 945.21,349.48 946.37,349.33 947.54,349.19 948.71,349.26 949.88,349.56 951.05,350.31 952.22,351.67 953.39,352.86 954.56,354.12 955.73,354.56 956.89,354.52 958.06,354.18 959.23,352.70 960.40,353.67 961.57,352.67 962.74,352.68 963.91,352.83 965.08,352.22 966.25,352.28 967.42,353.06 968.58,355.13 969.75,351.77 970.92,350.08 972.09,352.64 973.26,352.35 974.43,353.17 975.60,357.71 976.77,356.85 977.94,356.62 979.10,358.12 980.27,357.72 981.44,356.82 982.61,355.18 983.78,353.88 984.95,353.78 986.12,353.60 987.29,354.89 988.46,353.26 989.63,350.19 990.79,350.68 991.96,354.33 993.13,351.21 994.30,350.14 995.47,350.94 996.64,353.89 997.81,351.73 998.98,351.02 1000.15,351.41 1001.32,351.94 1002.48,352.23 1003.65,353.52 1004.82,352.71 1005.99,352.61 1007.16,350.22 1008.33,350.59 1009.50,349.64 1010.67,348.48 1011.84,348.77 1013.00,349.60 1014.17,351.45 1015.34,351.37 1016.51,352.15 1017.68,352.53 1018.85,351.94 1020.02,351.69 1021.19,349.36 1022.36,349.04 1023.53,350.23 1024.69,348.02 1025.86,348.90 1027.03,349.34 1028.20,348.78 1029.37,348.44 1030.54,350.63 1031.71,351.95 1032.88,352.18 1034.05,351.34 1035.21,351.64 1036.38,352.55 1037.55,352.98 1038.72,354.10 1039.89,356.12 1041.06,358.29 1042.23,360.23 1043.40,365.95 1044.57,371.41 1045.74,375.37 1046.90,377.63 1048.07,379.33 1049.24,380.48 1050.41,380.36 1051.58,379.86 1052.75,379.60 1053.92,379.42 1055.09,378.47 1056.26,378.75 1057.42,377.59 1058.59,378.26 1059.76,379.46 1060.93,379.97 1062.10,379.79 1063.27,378.16 1064.44,376.51 1065.61,376.82 1066.78,376.72 1067.95,376.54 1069.11,376.26 1070.28,376.85 1071.45,378.34" fill="none" stroke="#7c3aed" stroke-width="1.4" />
<text x="18" y="477.5" font-family="Arial" font-size="12" fill="#444">Raw f0 before smoothing</text>
<line x1="72" y1="525" x2="1072" y2="525" stroke="#ddd" />
<rect x="72" y="430" width="1000" height="95" fill="none" stroke="#eee" />
<polyline points="72.00,513.71 83.69,513.01 84.86,513.01 86.03,520.61 87.20,520.61 88.37,520.61 89.53,520.61 90.70,520.61 91.87,520.61 93.04,520.61 94.21,520.61 95.38,520.61 96.55,520.61 97.72,520.61 98.89,520.61 100.05,515.08 101.22,515.08 102.39,515.08 103.56,515.08 104.73,521.17 105.90,521.17 107.07,521.17 108.24,521.17 109.41,521.17 110.58,521.17 111.74,520.61 112.91,520.61 114.08,520.61 115.25,520.61 116.42,520.61 117.59,515.08 118.76,515.08 119.93,513.71 121.10,513.01 122.26,513.01 123.43,513.01 124.60,513.01 125.77,513.01 126.94,513.71 128.11,513.71 129.28,513.01 130.45,513.01 131.62,513.01 132.79,513.01 133.95,513.01 135.12,512.29 136.29,512.29 137.46,512.29 138.63,512.29 139.80,512.29 140.97,512.29 142.14,512.29 143.31,513.01 144.47,513.01 151.49,514.40 152.66,514.40 153.83,480.30 155.00,480.30 156.16,480.30 157.33,480.30 158.50,480.30 159.67,480.30 160.84,481.62 162.01,481.62 163.18,481.62 164.35,481.62 165.52,482.93 166.68,482.93 167.85,482.93 169.02,482.93 170.19,484.20 171.36,484.20 172.53,484.20 173.70,484.20 174.87,484.20 176.04,484.20 177.21,484.20 178.37,484.20 179.54,484.20 180.71,484.20 181.88,484.20 183.05,484.20 184.22,485.45 185.39,485.45 186.56,485.45 187.73,485.45 188.89,485.45 190.06,485.45 191.23,485.45 192.40,485.45 193.57,485.45 194.74,485.45 195.91,485.45 197.08,485.45 198.25,485.45 199.42,485.45 200.58,484.20 201.75,484.20 202.92,485.45 204.09,482.93 205.26,482.93 206.43,482.93 207.60,482.93 208.77,481.62 209.94,481.62 211.11,481.62 212.27,481.62 213.44,481.62 214.61,482.93 215.78,482.93 216.95,482.93 218.12,482.93 219.29,482.93 220.46,484.20 221.63,484.20 222.79,484.20 223.96,484.20 225.13,484.20 226.30,484.20 227.47,484.20 228.64,484.20 229.81,484.20 230.98,484.20 232.15,484.20 233.32,484.20 234.48,484.20 235.65,484.20 236.82,484.20 237.99,482.93 239.16,482.93 240.33,482.93 241.50,482.93 242.67,484.20 243.84,484.20 245.00,484.20 246.17,484.20 247.34,484.20 248.51,484.20 249.68,484.20 250.85,484.20 252.02,484.20 253.19,484.20 254.36,484.20 255.53,484.20 256.69,484.20 257.86,484.20 259.03,484.20 260.20,484.20 261.37,484.20 262.54,484.20 263.71,485.45 264.88,485.45 266.05,485.45 267.21,506.87 268.38,506.87 269.55,460.51 270.72,460.51 271.89,460.51 273.06,462.22 274.23,462.22 275.40,462.22 276.57,462.22 277.74,462.22 278.90,462.22 280.07,462.22 281.24,462.22 282.41,462.22 283.58,462.22 284.75,460.51 285.92,460.51 287.09,460.51 288.26,460.51 289.42,460.51 290.59,460.51 291.76,458.78 292.93,458.78 294.10,458.78 295.27,458.78 296.44,458.78 297.61,458.78 298.78,458.78 299.95,458.78 301.11,458.78 302.28,458.78 303.45,458.78 304.62,458.78 305.79,458.78 306.96,458.78 308.13,460.51 309.30,460.51 310.47,460.51 311.63,460.51 312.80,462.22 313.97,462.22 315.14,462.22 316.31,462.22 317.48,462.22 318.65,463.89 319.82,463.89 320.99,460.51 323.32,460.51 324.49,453.36 325.66,453.36 326.83,453.36 328.00,453.36 329.17,453.36 330.34,453.36 331.51,453.36 332.68,453.36 333.84,455.20 335.01,455.20 336.18,455.20 337.35,455.20 338.52,455.20 339.69,455.20 340.86,457.01 342.03,457.01 343.20,457.01 344.37,457.01 345.53,457.01 346.70,457.01 347.87,457.01 349.04,457.01 350.21,457.01 351.38,457.01 352.55,457.01 353.72,457.01 354.89,457.01 356.05,457.01 357.22,457.01 358.39,457.01 359.56,457.01 360.73,457.01 361.90,457.01 363.07,457.01 364.24,457.01 365.41,457.01 366.58,457.01 367.74,457.01 368.91,457.01 370.08,457.01 371.25,457.01 372.42,457.01 373.59,457.01 374.76,457.01 375.93,455.20 377.10,455.20 378.26,455.20 379.43,455.20 380.60,455.20 381.77,453.36 382.94,453.36 384.11,453.36 385.28,453.36 386.45,451.48 387.62,451.48 388.79,451.48 389.95,451.48 391.12,449.57 392.29,449.57 393.46,449.57 394.63,449.57 395.80,449.57 396.97,449.57 398.14,449.57 399.31,449.57 400.47,449.57 401.64,449.57 402.81,451.48 403.98,451.48 405.15,451.48 406.32,451.48 407.49,451.48 408.66,451.48 409.83,451.48 411.00,453.36 416.84,447.62 418.01,447.62 419.18,445.63 420.35,445.63 421.52,445.63 422.68,445.63 423.85,445.63 425.02,445.63 426.19,445.63 427.36,445.63 428.53,447.62 429.70,447.62 430.87,447.62 432.04,447.62 433.21,447.62 434.37,447.62 435.54,447.62 436.71,447.62 437.88,447.62 439.05,447.62 440.22,447.62 441.39,447.62 442.56,447.62 443.73,447.62 444.89,447.62 446.06,447.62 447.23,447.62 448.40,447.62 449.57,447.62 450.74,447.62 451.91,447.62 453.08,449.57 454.25,449.57 455.42,449.57 456.58,449.57 457.75,449.57 458.92,449.57 460.09,449.57 461.26,449.57 462.43,449.57 463.60,449.57 464.77,449.57 465.94,449.57 467.11,449.57 468.27,449.57 469.44,449.57 470.61,449.57 471.78,449.57 472.95,449.57 474.12,449.57 489.32,453.36 490.48,455.20 491.65,458.78 492.82,460.51 493.99,460.51 495.16,460.51 496.33,460.51 497.50,460.51 498.67,460.51 499.84,460.51 501.00,460.51 502.17,460.51 503.34,460.51 504.51,458.78 505.68,458.78 506.85,458.78 508.02,458.78 509.19,458.78 510.36,458.78 511.53,458.78 512.69,458.78 513.86,458.78 515.03,458.78 516.20,458.78 517.37,458.78 518.54,458.78 519.71,458.78 520.88,458.78 522.05,458.78 523.21,458.78 524.38,458.78 525.55,458.78 526.72,458.78 527.89,458.78 529.06,458.78 530.23,458.78 531.40,458.78 532.57,458.78 533.74,458.78 534.90,458.78 536.07,458.78 537.24,458.78 538.41,458.78 539.58,458.78 540.75,458.78 541.92,458.78 543.09,458.78 544.26,458.78 545.42,457.01 546.59,457.01 547.76,457.01 548.93,457.01 550.10,455.20 551.27,455.20 552.44,453.36 553.61,430.00 554.78,430.00 555.95,430.00 557.11,430.00 558.28,430.00 559.45,514.40 560.62,514.40 561.79,514.40 562.96,514.40 564.13,514.40 565.30,514.40 566.47,514.40 567.63,514.40 568.80,514.40 569.97,514.40 571.14,514.40 572.31,514.40 573.48,521.17 574.65,521.17 575.82,521.17 576.99,521.17 578.16,521.17 579.32,514.40 580.49,514.40 581.66,514.40 582.83,514.40 584.00,514.40 585.17,514.40 586.34,514.40 598.03,513.71 599.20,513.71 600.37,512.29 601.53,513.71 602.70,513.71 603.87,513.71 605.04,514.40 606.21,514.40 607.38,514.40 608.55,512.29 616.73,471.78 617.90,471.78 619.07,473.27 620.24,474.73 621.41,474.73 622.58,474.73 623.74,474.73 624.91,474.73 626.08,474.73 627.25,474.73 628.42,473.27 629.59,473.27 630.76,473.27 631.93,473.27 633.10,473.27 634.26,473.27 635.43,471.78 636.60,471.78 637.77,471.78 638.94,471.78 640.11,471.78 641.28,471.78 642.45,471.78 643.62,471.78 644.79,470.26 645.95,470.26 647.12,470.26 648.29,470.26 649.46,470.26 650.63,470.26 651.80,470.26 652.97,470.26 654.14,470.26 655.31,468.71 656.47,468.71 657.64,468.71 658.81,468.71 659.98,468.71 661.15,468.71 662.32,468.71 663.49,468.71 664.66,468.71 665.83,468.71 667.00,468.71 668.16,468.71 669.33,468.71 670.50,467.14 671.67,467.14 672.84,467.14 674.01,467.14 675.18,467.14 676.35,467.14 677.52,467.14 678.68,467.14 679.85,467.14 681.02,467.14 682.19,467.14 683.36,467.14 684.53,467.14 685.70,468.71 686.87,468.71 688.04,468.71 689.21,468.71 690.37,468.71 691.54,468.71 692.71,468.71 693.88,468.71 695.05,468.71 696.22,468.71 697.39,468.71 698.56,468.71 699.73,468.71 700.89,468.71 702.06,468.71 703.23,468.71 704.40,468.71 705.57,468.71 706.74,468.71 707.91,468.71 709.08,468.71 710.25,468.71 711.42,468.71 712.58,468.71 713.75,468.71 714.92,468.71 716.09,468.71 717.26,468.71 718.43,468.71 719.60,468.71 720.77,468.71 721.94,470.26 723.10,470.26 724.27,470.26 725.44,471.78 726.61,471.78 727.78,473.27 728.95,473.27 730.12,474.73 731.29,476.16 732.46,476.16 733.63,478.95 734.79,478.95 735.96,478.95 737.13,478.95 738.30,477.57 739.47,477.57 740.64,477.57 741.81,476.16 742.98,476.16 744.15,476.16 745.32,474.73 746.48,474.73 747.65,474.73 748.82,474.73 749.99,474.73 751.16,473.27 752.33,473.27 753.50,473.27 754.67,473.27 755.84,473.27 757.00,473.27 758.17,473.27 759.34,473.27 760.51,473.27 761.68,473.27 762.85,473.27 764.02,473.27 765.19,473.27 766.36,473.27 767.53,473.27 768.69,474.73 769.86,474.73 771.03,474.73 772.20,474.73 773.37,474.73 774.54,474.73 775.71,474.73 776.88,474.73 778.05,474.73 779.21,474.73 780.38,474.73 781.55,474.73 782.72,474.73 783.89,474.73 785.06,474.73 786.23,476.16 787.40,476.16 788.57,476.16 789.74,476.16 790.90,476.16 792.07,474.73 793.24,474.73 794.41,471.78 795.58,471.78 796.75,473.27 797.92,473.27 799.09,473.27 800.26,473.27 801.42,473.27 802.59,473.27 803.76,473.27 804.93,473.27 806.10,473.27 807.27,473.27 808.44,473.27 809.61,473.27 810.78,473.27 811.95,473.27 813.11,473.27 814.28,474.73 815.45,474.73 816.62,474.73 817.79,474.73 818.96,474.73 820.13,474.73 821.30,474.73 822.47,474.73 823.63,474.73 824.80,474.73 825.97,474.73 827.14,474.73 828.31,474.73 829.48,474.73 830.65,474.73 831.82,474.73 832.99,430.00 834.16,430.00 835.32,430.00 836.49,430.00 837.66,430.00 838.83,430.00 840.00,430.00 841.17,474.73 842.34,474.73 843.51,474.73 844.68,476.16 845.84,476.16 847.01,476.16 848.18,476.16 849.35,477.57 850.52,477.57 851.69,478.95 852.86,478.95 854.03,478.95 855.20,478.95 856.37,480.30 857.53,480.30 858.70,481.62 859.87,481.62 861.04,481.62 862.21,481.62 863.38,482.93 864.55,482.93 865.72,482.93 866.89,484.20 868.05,482.93 869.22,482.93 870.39,482.93 871.56,482.93 872.73,482.93 873.90,482.93 875.07,482.93 876.24,481.62 877.41,481.62 878.58,481.62 879.74,481.62 880.91,481.62 882.08,482.93 883.25,482.93 884.42,482.93 885.59,482.93 886.76,482.93 887.93,482.93 889.10,482.93 890.26,482.93 891.43,481.62 892.60,481.62 893.77,481.62 894.94,482.93 896.11,482.93 897.28,482.93 898.45,482.93 899.62,482.93 900.79,482.93 901.95,482.93 903.12,482.93 904.29,482.93 905.46,482.93 906.63,484.20 907.80,484.20 908.97,484.20 910.14,484.20 911.31,484.20 912.47,484.20 913.64,482.93 914.81,482.93 915.98,481.62 917.15,481.62 918.32,480.30 919.49,480.30 920.66,480.30 921.83,480.30 923.00,480.30 924.16,480.30 925.33,480.30 926.50,480.30 927.67,480.30 928.84,481.62 930.01,481.62 931.18,481.62 932.35,481.62 933.52,481.62 934.68,481.62 935.85,482.93 937.02,482.93 938.19,482.93 939.36,482.93 940.53,482.93 941.70,484.20 942.87,484.20 944.04,484.20 945.21,484.20 946.37,484.20 947.54,484.20 948.71,484.20 949.88,484.20 951.05,484.20 952.22,484.20 953.39,484.20 954.56,484.20 955.73,484.20 956.89,485.45 958.06,485.45 959.23,485.45 960.40,485.45 961.57,485.45 962.74,485.45 963.91,485.45 965.08,485.45 966.25,485.45 967.42,485.45 968.58,486.68 969.75,486.68 970.92,486.68 972.09,486.68 973.26,487.89 974.43,487.89 975.60,487.89 976.77,489.07 977.94,489.07 979.10,489.07 980.27,490.23 981.44,490.23 982.61,490.23 983.78,490.23 984.95,490.23 986.12,490.23 987.29,490.23 988.46,489.07 989.63,489.07 990.79,489.07 991.96,487.89 993.13,487.89 994.30,487.89 995.47,487.89 996.64,487.89 997.81,486.68 998.98,486.68 1000.15,486.68 1001.32,486.68 1002.48,486.68 1003.65,486.68 1004.82,486.68 1005.99,486.68 1007.16,486.68 1008.33,486.68 1009.50,486.68 1010.67,486.68 1011.84,486.68 1013.00,486.68 1014.17,486.68 1015.34,486.68 1016.51,486.68 1017.68,486.68 1018.85,486.68 1020.02,485.45 1021.19,485.45 1022.36,485.45 1023.53,485.45 1024.69,485.45 1025.86,485.45 1027.03,485.45 1028.20,485.45 1029.37,485.45 1030.54,485.45 1031.71,485.45 1032.88,485.45 1034.05,485.45 1035.21,485.45 1036.38,485.45 1037.55,485.45 1038.72,485.45 1039.89,485.45 1041.06,485.45 1042.23,485.45 1043.40,485.45 1044.57,485.45 1045.74,485.45 1046.90,485.45 1048.07,485.45 1049.24,515.74 1050.41,515.74 1051.58,515.74 1052.75,515.74 1053.92,515.74 1055.09,515.74 1056.26,515.74 1057.42,485.45 1058.59,482.93" fill="none" stroke="#ea580c" stroke-width="1.5" />
<line x1="72" y1="521.35" x2="1072" y2="521.35" stroke="#eee" />
<text x="1076" y="525.35" font-family="Arial" font-size="10" fill="#666">65</text>
<line x1="72" y1="513.89" x2="1072" y2="513.89" stroke="#eee" />
<text x="1076" y="517.89" font-family="Arial" font-size="10" fill="#666">82</text>
<line x1="72" y1="506.87" x2="1072" y2="506.87" stroke="#eee" />
<text x="1076" y="510.87" font-family="Arial" font-size="10" fill="#666">98</text>
<line x1="72" y1="501.61" x2="1072" y2="501.61" stroke="#eee" />
<text x="1076" y="505.61" font-family="Arial" font-size="10" fill="#666">110</text>
<line x1="72" y1="492.39" x2="1072" y2="492.39" stroke="#eee" />
<text x="1076" y="496.39" font-family="Arial" font-size="10" fill="#666">131</text>
<line x1="72" y1="485.37" x2="1072" y2="485.37" stroke="#eee" />
<text x="1076" y="489.37" font-family="Arial" font-size="10" fill="#666">147</text>
<line x1="72" y1="477.48" x2="1072" y2="477.48" stroke="#eee" />
<text x="1076" y="481.48" font-family="Arial" font-size="10" fill="#666">165</text>
<line x1="72" y1="463.88" x2="1072" y2="463.88" stroke="#eee" />
<text x="1076" y="467.88" font-family="Arial" font-size="10" fill="#666">196</text>
<line x1="72" y1="453.35" x2="1072" y2="453.35" stroke="#eee" />
<text x="1076" y="457.35" font-family="Arial" font-size="10" fill="#666">220</text>
<line x1="72" y1="434.93" x2="1072" y2="434.93" stroke="#eee" />
<text x="1076" y="438.93" font-family="Arial" font-size="10" fill="#666">262</text>
<text x="18" y="617.5" font-family="Arial" font-size="12" fill="#444">Smoothed f0 after smoothing</text>
<line x1="72" y1="665" x2="1072" y2="665" stroke="#ddd" />
<rect x="72" y="570" width="1000" height="95" fill="none" stroke="#eee" />
<polyline points="72.00,653.44 83.69,652.72 84.86,652.72 86.03,660.50 87.20,660.50 88.37,660.50 89.53,660.50 90.70,660.50 91.87,660.50 93.04,660.50 94.21,660.50 95.38,660.50 96.55,660.50 97.72,660.50 98.89,660.50 100.05,654.83 101.22,654.83 102.39,654.83 103.56,654.83 104.73,661.08 105.90,661.08 107.07,661.08 108.24,661.08 109.41,661.08 110.58,661.08 111.74,660.50 112.91,660.50 114.08,660.50 115.25,660.50 116.42,660.50 117.59,654.83 118.76,654.83 119.93,653.44 121.10,652.72 122.26,652.72 123.43,652.72 124.60,652.72 125.77,652.72 126.94,652.72 128.11,652.72 129.28,652.72 130.45,652.72 131.62,652.72 132.79,652.72 133.95,652.72 135.12,651.98 136.29,651.98 137.46,651.98 138.63,651.98 139.80,651.98 140.97,651.98 142.14,651.98 143.31,652.72 144.47,652.72 151.49,654.14 152.66,654.14 153.83,654.83 155.00,654.83 156.16,654.83 157.33,654.83 158.50,654.83 159.67,654.83 160.84,655.51 162.01,655.51 163.18,655.51 164.35,655.51 165.52,656.18 166.68,656.18 167.85,656.18 169.02,656.18 170.19,656.83 171.36,656.83 172.53,656.83 173.70,656.83 174.87,656.83 176.04,656.83 177.21,656.83 178.37,656.83 179.54,656.83 180.71,656.83 181.88,656.83 183.05,656.83 184.22,657.48 185.39,657.48 186.56,657.48 187.73,657.48 188.89,657.48 190.06,657.48 191.23,657.48 192.40,657.48 193.57,657.48 194.74,657.48 195.91,657.48 197.08,657.48 198.25,657.48 199.42,657.48 200.58,657.48 201.75,656.83 202.92,656.83 204.09,656.18 205.26,656.18 206.43,656.18 207.60,656.18 208.77,655.51 209.94,655.51 211.11,655.51 212.27,655.51 213.44,655.51 214.61,656.18 215.78,656.18 216.95,656.18 218.12,656.18 219.29,656.18 220.46,656.83 221.63,656.83 222.79,656.83 223.96,656.83 225.13,656.83 226.30,656.83 227.47,656.83 228.64,656.83 229.81,656.83 230.98,656.83 232.15,656.83 233.32,656.83 234.48,656.83 235.65,656.83 236.82,656.83 237.99,656.18 239.16,656.18 240.33,656.18 241.50,656.18 242.67,656.83 243.84,656.83 245.00,656.83 246.17,656.83 247.34,656.83 248.51,656.83 249.68,656.83 250.85,656.83 252.02,656.83 253.19,656.83 254.36,656.83 255.53,656.83 256.69,656.83 257.86,656.83 259.03,656.83 260.20,656.83 261.37,656.83 262.54,656.83 263.71,657.48 264.88,657.48 266.05,657.48 267.21,646.43 268.38,646.43 269.55,644.70 270.72,644.70 271.89,644.70 273.06,645.57 274.23,645.57 275.40,645.57 276.57,645.57 277.74,645.57 278.90,645.57 280.07,645.57 281.24,645.57 282.41,645.57 283.58,645.57 284.75,644.70 285.92,644.70 287.09,644.70 288.26,644.70 289.42,644.70 290.59,644.70 291.76,643.81 292.93,643.81 294.10,643.81 295.27,643.81 296.44,643.81 297.61,643.81 298.78,643.81 299.95,643.81 301.11,643.81 302.28,643.81 303.45,643.81 304.62,643.81 305.79,643.81 306.96,643.81 308.13,644.70 309.30,644.70 310.47,644.70 311.63,644.70 312.80,645.57 313.97,645.57 315.14,645.57 316.31,645.57 317.48,645.57 318.65,645.57 319.82,645.57 320.99,644.70 323.32,598.92 324.49,591.59 325.66,591.59 326.83,591.59 328.00,591.59 329.17,591.59 330.34,591.59 331.51,591.59 332.68,591.59 333.84,593.48 335.01,593.48 336.18,593.48 337.35,593.48 338.52,593.48 339.69,593.48 340.86,595.33 342.03,595.33 343.20,595.33 344.37,595.33 345.53,595.33 346.70,595.33 347.87,595.33 349.04,595.33 350.21,595.33 351.38,595.33 352.55,595.33 353.72,595.33 354.89,595.33 356.05,595.33 357.22,595.33 358.39,595.33 359.56,595.33 360.73,595.33 361.90,595.33 363.07,595.33 364.24,595.33 365.41,595.33 366.58,595.33 367.74,595.33 368.91,595.33 370.08,595.33 371.25,595.33 372.42,595.33 373.59,595.33 374.76,595.33 375.93,593.48 377.10,593.48 378.26,593.48 379.43,593.48 380.60,593.48 381.77,591.59 382.94,591.59 384.11,591.59 385.28,591.59 386.45,589.67 387.62,589.67 388.79,589.67 389.95,589.67 391.12,587.71 392.29,587.71 393.46,587.71 394.63,587.71 395.80,587.71 396.97,587.71 398.14,587.71 399.31,587.71 400.47,587.71 401.64,587.71 402.81,589.67 403.98,589.67 405.15,589.67 406.32,589.67 407.49,589.67 408.66,589.67 409.83,589.67 411.00,591.59 416.84,585.71 418.01,585.71 419.18,583.68 420.35,583.68 421.52,583.68 422.68,583.68 423.85,583.68 425.02,583.68 426.19,583.68 427.36,583.68 428.53,585.71 429.70,585.71 430.87,585.71 432.04,585.71 433.21,585.71 434.37,585.71 435.54,585.71 436.71,585.71 437.88,585.71 439.05,585.71 440.22,585.71 441.39,585.71 442.56,585.71 443.73,585.71 444.89,585.71 446.06,585.71 447.23,585.71 448.40,585.71 449.57,585.71 450.74,585.71 451.91,585.71 453.08,587.71 454.25,587.71 455.42,587.71 456.58,587.71 457.75,587.71 458.92,587.71 460.09,587.71 461.26,587.71 462.43,587.71 463.60,587.71 464.77,587.71 465.94,587.71 467.11,587.71 468.27,587.71 469.44,587.71 470.61,587.71 471.78,587.71 472.95,587.71 474.12,587.71 489.32,591.59 490.48,593.48 491.65,597.14 492.82,598.92 493.99,598.92 495.16,598.92 496.33,598.92 497.50,598.92 498.67,598.92 499.84,598.92 501.00,598.92 502.17,598.92 503.34,598.92 504.51,597.14 505.68,597.14 506.85,597.14 508.02,597.14 509.19,597.14 510.36,597.14 511.53,597.14 512.69,597.14 513.86,597.14 515.03,597.14 516.20,597.14 517.37,597.14 518.54,597.14 519.71,597.14 520.88,597.14 522.05,597.14 523.21,597.14 524.38,597.14 525.55,597.14 526.72,597.14 527.89,597.14 529.06,597.14 530.23,597.14 531.40,597.14 532.57,597.14 533.74,597.14 534.90,597.14 536.07,597.14 537.24,597.14 538.41,597.14 539.58,597.14 540.75,597.14 541.92,597.14 543.09,597.14 544.26,597.14 545.42,595.33 546.59,595.33 547.76,595.33 548.93,595.33 550.10,593.48 551.27,593.48 552.44,593.48 553.61,595.33 554.78,595.33 555.95,595.33 557.11,595.33 558.28,595.33 559.45,617.81 560.62,617.81 561.79,617.81 562.96,617.81 564.13,617.81 565.30,617.81 566.47,617.81 567.63,617.81 568.80,617.81 569.97,617.81 571.14,617.81 572.31,617.81 573.48,631.68 574.65,631.68 575.82,631.68 576.99,631.68 578.16,631.68 579.32,654.14 580.49,654.14 581.66,654.14 582.83,654.14 584.00,654.14 585.17,654.14 586.34,654.14 598.03,653.44 599.20,653.44 600.37,653.44 601.53,653.44 602.70,653.44 603.87,653.44 605.04,654.14 606.21,654.14 607.38,654.14 608.55,651.98 616.73,610.47 617.90,610.47 619.07,611.99 620.24,613.49 621.41,613.49 622.58,613.49 623.74,613.49 624.91,613.49 626.08,613.49 627.25,613.49 628.42,611.99 629.59,611.99 630.76,611.99 631.93,611.99 633.10,611.99 634.26,611.99 635.43,610.47 636.60,610.47 637.77,610.47 638.94,610.47 640.11,610.47 641.28,610.47 642.45,610.47 643.62,610.47 644.79,608.91 645.95,608.91 647.12,608.91 648.29,608.91 649.46,608.91 650.63,608.91 651.80,608.91 652.97,608.91 654.14,608.91 655.31,607.33 656.47,607.33 657.64,607.33 658.81,607.33 659.98,607.33 661.15,607.33 662.32,607.33 663.49,607.33 664.66,607.33 665.83,607.33 667.00,607.33 668.16,607.33 669.33,607.33 670.50,605.71 671.67,605.71 672.84,605.71 674.01,605.71 675.18,605.71 676.35,605.71 677.52,605.71 678.68,605.71 679.85,605.71 681.02,605.71 682.19,605.71 683.36,605.71 684.53,605.71 685.70,607.33 686.87,607.33 688.04,607.33 689.21,607.33 690.37,607.33 691.54,607.33 692.71,607.33 693.88,607.33 695.05,607.33 696.22,607.33 697.39,607.33 698.56,607.33 699.73,607.33 700.89,607.33 702.06,607.33 703.23,607.33 704.40,607.33 705.57,607.33 706.74,607.33 707.91,607.33 709.08,607.33 710.25,607.33 711.42,607.33 712.58,607.33 713.75,607.33 714.92,607.33 716.09,607.33 717.26,607.33 718.43,607.33 719.60,607.33 720.77,607.33 721.94,608.91 723.10,608.91 724.27,608.91 725.44,610.47 726.61,610.47 727.78,611.99 728.95,611.99 730.12,613.49 731.29,614.96 732.46,614.96 733.63,617.81 734.79,617.81 735.96,617.81 737.13,617.81 738.30,616.40 739.47,616.40 740.64,616.40 741.81,614.96 742.98,614.96 744.15,614.96 745.32,613.49 746.48,613.49 747.65,613.49 748.82,613.49 749.99,613.49 751.16,611.99 752.33,611.99 753.50,611.99 754.67,611.99 755.84,611.99 757.00,611.99 758.17,611.99 759.34,611.99 760.51,611.99 761.68,611.99 762.85,611.99 764.02,611.99 765.19,611.99 766.36,611.99 767.53,611.99 768.69,613.49 769.86,613.49 771.03,613.49 772.20,613.49 773.37,613.49 774.54,613.49 775.71,613.49 776.88,613.49 778.05,613.49 779.21,613.49 780.38,613.49 781.55,613.49 782.72,613.49 783.89,613.49 785.06,613.49 786.23,614.96 787.40,614.96 788.57,614.96 789.74,614.96 790.90,614.96 792.07,613.49 793.24,613.49 794.41,611.99 795.58,611.99 796.75,611.99 797.92,611.99 799.09,611.99 800.26,611.99 801.42,611.99 802.59,611.99 803.76,611.99 804.93,611.99 806.10,611.99 807.27,611.99 808.44,611.99 809.61,611.99 810.78,611.99 811.95,611.99 813.11,611.99 814.28,613.49 815.45,613.49 816.62,613.49 817.79,613.49 818.96,613.49 820.13,613.49 821.30,613.49 822.47,613.49 823.63,613.49 824.80,613.49 825.97,613.49 827.14,613.49 828.31,613.49 829.48,613.49 830.65,613.49 831.82,613.49 832.99,613.49 834.16,613.49 835.32,613.49 836.49,613.49 837.66,613.49 838.83,613.49 840.00,613.49 841.17,613.49 842.34,613.49 843.51,613.49 844.68,614.96 845.84,614.96 847.01,614.96 848.18,614.96 849.35,616.40 850.52,616.40 851.69,617.81 852.86,617.81 854.03,617.81 855.20,617.81 856.37,619.20 857.53,619.20 858.70,620.55 859.87,620.55 861.04,620.55 862.21,620.55 863.38,621.89 864.55,621.89 865.72,621.89 866.89,621.89 868.05,621.89 869.22,621.89 870.39,621.89 871.56,621.89 872.73,621.89 873.90,621.89 875.07,621.89 876.24,620.55 877.41,620.55 878.58,620.55 879.74,620.55 880.91,620.55 882.08,621.89 883.25,621.89 884.42,621.89 885.59,621.89 886.76,621.89 887.93,621.89 889.10,621.89 890.26,621.89 891.43,620.55 892.60,620.55 893.77,620.55 894.94,621.89 896.11,621.89 897.28,621.89 898.45,621.89 899.62,621.89 900.79,621.89 901.95,621.89 903.12,621.89 904.29,621.89 905.46,621.89 906.63,623.20 907.80,623.20 908.97,623.20 910.14,623.20 911.31,623.20 912.47,623.20 913.64,621.89 914.81,621.89 915.98,620.55 917.15,620.55 918.32,619.20 919.49,619.20 920.66,619.20 921.83,619.20 923.00,619.20 924.16,619.20 925.33,619.20 926.50,619.20 927.67,619.20 928.84,620.55 930.01,620.55 931.18,620.55 932.35,620.55 933.52,620.55 934.68,620.55 935.85,621.89 937.02,621.89 938.19,621.89 939.36,621.89 940.53,621.89 941.70,623.20 942.87,623.20 944.04,623.20 945.21,623.20 946.37,623.20 947.54,623.20 948.71,623.20 949.88,623.20 951.05,623.20 952.22,623.20 953.39,623.20 954.56,623.20 955.73,623.20 956.89,624.48 958.06,624.48 959.23,624.48 960.40,624.48 961.57,624.48 962.74,624.48 963.91,624.48 965.08,624.48 966.25,624.48 967.42,624.48 968.58,625.74 969.75,625.74 970.92,625.74 972.09,625.74 973.26,626.97 974.43,626.97 975.60,626.97 976.77,628.18 977.94,628.18 979.10,628.18 980.27,629.37 981.44,629.37 982.61,629.37 983.78,629.37 984.95,629.37 986.12,629.37 987.29,629.37 988.46,628.18 989.63,628.18 990.79,628.18 991.96,626.97 993.13,626.97 994.30,626.97 995.47,626.97 996.64,626.97 997.81,625.74 998.98,625.74 1000.15,625.74 1001.32,625.74 1002.48,625.74 1003.65,625.74 1004.82,625.74 1005.99,625.74 1007.16,625.74 1008.33,625.74 1009.50,625.74 1010.67,625.74 1011.84,625.74 1013.00,625.74 1014.17,625.74 1015.34,625.74 1016.51,625.74 1017.68,625.74 1018.85,625.74 1020.02,624.48 1021.19,624.48 1022.36,624.48 1023.53,624.48 1024.69,624.48 1025.86,624.48 1027.03,624.48 1028.20,624.48 1029.37,624.48 1030.54,624.48 1031.71,624.48 1032.88,624.48 1034.05,624.48 1035.21,624.48 1036.38,624.48 1037.55,624.48 1038.72,624.48 1039.89,624.48 1041.06,624.48 1042.23,624.48 1043.40,624.48 1044.57,624.48 1045.74,624.48 1046.90,624.48 1048.07,624.48 1049.24,620.55 1050.41,620.55 1051.58,620.55 1052.75,620.55 1053.92,620.55 1055.09,620.55 1056.26,620.55 1057.42,621.89 1058.59,621.89" fill="none" stroke="#059669" stroke-width="1.5" />
<line x1="72" y1="661.26" x2="1072" y2="661.26" stroke="#eee" />
<text x="1076" y="665.26" font-family="Arial" font-size="10" fill="#666">65</text>
<line x1="72" y1="653.61" x2="1072" y2="653.61" stroke="#eee" />
<text x="1076" y="657.61" font-family="Arial" font-size="10" fill="#666">82</text>
<line x1="72" y1="646.42" x2="1072" y2="646.42" stroke="#eee" />
<text x="1076" y="650.42" font-family="Arial" font-size="10" fill="#666">98</text>
<line x1="72" y1="641.03" x2="1072" y2="641.03" stroke="#eee" />
<text x="1076" y="645.03" font-family="Arial" font-size="10" fill="#666">110</text>
<line x1="72" y1="631.59" x2="1072" y2="631.59" stroke="#eee" />
<text x="1076" y="635.59" font-family="Arial" font-size="10" fill="#666">131</text>
<line x1="72" y1="624.40" x2="1072" y2="624.40" stroke="#eee" />
<text x="1076" y="628.40" font-family="Arial" font-size="10" fill="#666">147</text>
<line x1="72" y1="616.31" x2="1072" y2="616.31" stroke="#eee" />
<text x="1076" y="620.31" font-family="Arial" font-size="10" fill="#666">165</text>
<line x1="72" y1="602.37" x2="1072" y2="602.37" stroke="#eee" />
<text x="1076" y="606.37" font-family="Arial" font-size="10" fill="#666">196</text>
<line x1="72" y1="591.58" x2="1072" y2="591.58" stroke="#eee" />
<text x="1076" y="595.58" font-family="Arial" font-size="10" fill="#666">220</text>
<line x1="72" y1="572.71" x2="1072" y2="572.71" stroke="#eee" />
<text x="1076" y="576.71" font-family="Arial" font-size="10" fill="#666">262</text>
<text x="18" y="750.0" font-family="Arial" font-size="12" fill="#444">Onset probability</text>
<line x1="72" y1="790" x2="1072" y2="790" stroke="#ddd" />
<rect x="72" y="710" width="1000" height="80" fill="none" stroke="#eee" />
<polyline points="72.00,764.03 73.17,758.88 74.34,756.91 75.51,757.06 76.68,757.22 77.84,755.78 79.01,754.67 80.18,754.06 81.35,753.43 82.52,753.74 83.69,755.05 84.86,755.58 86.03,755.74 87.20,756.27 88.37,755.13 89.53,755.33 90.70,755.36 91.87,755.00 93.04,754.25 94.21,755.20 95.38,755.77 96.55,757.06 97.72,756.39 98.89,756.83 100.05,756.85 101.22,756.27 102.39,755.68 103.56,754.75 104.73,756.37 105.90,757.75 107.07,758.68 108.24,758.64 109.41,759.08 110.58,758.73 111.74,758.20 112.91,757.70 114.08,758.05 115.25,757.56 116.42,756.88 117.59,756.28 118.76,757.41 119.93,756.80 121.10,756.10 122.26,757.48 123.43,758.04 124.60,757.84 125.77,757.37 126.94,757.19 128.11,757.05 129.28,756.53 130.45,756.26 131.62,756.68 132.79,757.19 133.95,757.46 135.12,755.99 136.29,755.91 137.46,755.93 138.63,757.18 139.80,758.65 140.97,758.50 142.14,757.53 143.31,757.68 144.47,759.00 145.64,758.82 146.81,757.30 147.98,757.54 149.15,756.09 150.32,751.53 151.49,748.30 152.66,749.43 153.83,753.17 155.00,756.80 156.16,758.95 157.33,764.70 158.50,767.89 159.67,770.21 160.84,771.48 162.01,771.38 163.18,771.56 164.35,774.14 165.52,775.13 166.68,776.77 167.85,778.20 169.02,778.75 170.19,779.33 171.36,779.85 172.53,779.75 173.70,779.90 174.87,779.29 176.04,778.73 177.21,778.37 178.37,778.22 179.54,777.92 180.71,777.07 181.88,776.49 183.05,776.76 184.22,776.29 185.39,777.05 186.56,777.74 187.73,778.80 188.89,778.86 190.06,776.87 191.23,774.13 192.40,771.24 193.57,768.31 194.74,764.65 195.91,763.69 197.08,760.61 198.25,757.48 199.42,754.01 200.58,751.67 201.75,752.96 202.92,753.95 204.09,751.95 205.26,753.80 206.43,756.11 207.60,758.71 208.77,760.39 209.94,765.34 211.11,769.95 212.27,772.35 213.44,773.69 214.61,774.85 215.78,775.62 216.95,776.93 218.12,779.10 219.29,780.46 220.46,781.72 221.63,781.91 222.79,781.33 223.96,780.64 225.13,780.42 226.30,779.95 227.47,779.99 228.64,780.12 229.81,780.53 230.98,780.72 232.15,780.93 233.32,781.20 234.48,781.04 235.65,780.79 236.82,779.94 237.99,779.59 239.16,779.60 240.33,779.12 241.50,777.80 242.67,777.03 243.84,777.15 245.00,777.00 246.17,776.52 247.34,776.34 248.51,776.34 249.68,776.00 250.85,775.43 252.02,773.50 253.19,771.50 254.36,770.27 255.53,767.66 256.69,764.82 257.86,761.54 259.03,760.07 260.20,758.80 261.37,757.79 262.54,756.99 263.71,755.29 264.88,755.07 266.05,754.58 267.21,752.25 268.38,748.01 269.55,748.32 270.72,753.19 271.89,756.95 273.06,760.47 274.23,763.53 275.40,766.47 276.57,769.09 277.74,771.81 278.90,774.43 280.07,775.80 281.24,776.41 282.41,777.15 283.58,777.14 284.75,777.16 285.92,777.64 287.09,779.37 288.26,781.24 289.42,782.44 290.59,783.35 291.76,783.66 292.93,783.87 294.10,783.77 295.27,783.57 296.44,783.55 297.61,783.81 298.78,784.16 299.95,784.63 301.11,785.20 302.28,785.02 303.45,784.85 304.62,784.63 305.79,784.74 306.96,784.80 308.13,784.84 309.30,784.20 310.47,783.14 311.63,780.50 312.80,778.18 313.97,775.93 315.14,773.88 316.31,772.88 317.48,769.42 318.65,767.13 319.82,764.98 320.99,763.40 322.16,760.85 323.32,751.61 324.49,744.01 325.66,745.72 326.83,751.73 328.00,762.72 329.17,773.64 330.34,778.35 331.51,779.83 332.68,780.85 333.84,781.64 335.01,782.32 336.18,782.99 337.35,783.29 338.52,783.08 339.69,783.04 340.86,782.61 342.03,782.50 343.20,782.28 344.37,782.12 345.53,782.23 346.70,782.29 347.87,782.34 349.04,782.73 350.21,782.73 351.38,782.94 352.55,783.43 353.72,783.61 354.89,783.73 356.05,783.72 357.22,783.59 358.39,783.56 359.56,783.74 360.73,783.68 361.90,783.62 363.07,783.58 364.24,783.49 365.41,783.67 366.58,783.90 367.74,783.90 368.91,783.95 370.08,784.06 371.25,783.96 372.42,784.08 373.59,784.61 374.76,784.90 375.93,784.56 377.10,784.32 378.26,783.88 379.43,783.73 380.60,783.17 381.77,782.49 382.94,781.62 384.11,781.94 385.28,782.30 386.45,782.77 387.62,783.18 388.79,783.30 389.95,783.39 391.12,783.16 392.29,783.01 393.46,783.06 394.63,783.24 395.80,783.38 396.97,783.43 398.14,783.41 399.31,783.36 400.47,783.46 401.64,783.22 402.81,782.33 403.98,781.49 405.15,779.21 406.32,777.60 407.49,774.49 408.66,765.64 409.83,764.82 411.00,765.46 412.16,766.60 413.33,764.45 414.50,758.88 415.67,750.64 416.84,745.85 418.01,750.56 419.18,759.47 420.35,769.73 421.52,776.67 422.68,779.00 423.85,780.36 425.02,780.90 426.19,782.27 427.36,782.23 428.53,782.25 429.70,782.45 430.87,782.96 432.04,783.27 433.21,783.50 434.37,783.09 435.54,783.16 436.71,782.81 437.88,782.90 439.05,782.87 440.22,782.78 441.39,782.75 442.56,782.87 443.73,783.05 444.89,783.20 446.06,783.52 447.23,783.99 448.40,784.28 449.57,784.47 450.74,784.47 451.91,784.34 453.08,784.24 454.25,784.51 455.42,784.52 456.58,784.18 457.75,783.85 458.92,783.75 460.09,783.78 461.26,783.67 462.43,783.55 463.60,783.17 464.77,783.05 465.94,782.62 467.11,781.69 468.27,779.91 469.44,777.12 470.61,773.57 471.78,768.14 472.95,766.23 474.12,765.80 475.29,762.67 476.46,762.21 477.63,761.65 478.79,760.63 479.96,760.94 481.13,760.88 482.30,759.34 483.47,758.00 484.64,757.69 485.81,754.16 486.98,749.03 488.15,744.58 489.32,746.14 490.48,751.92 491.65,760.19 492.82,763.65 493.99,771.03 495.16,775.06 496.33,776.52 497.50,777.25 498.67,778.43 499.84,780.79 501.00,782.69 502.17,783.32 503.34,783.34 504.51,783.30 505.68,783.18 506.85,783.01 508.02,783.14 509.19,783.51 510.36,784.09 511.53,784.94 512.69,785.29 513.86,785.53 515.03,785.52 516.20,785.43 517.37,785.70 518.54,785.93 519.71,785.82 520.88,785.64 522.05,785.91 523.21,786.12 524.38,785.84 525.55,784.59 526.72,782.58 527.89,779.91 529.06,777.05 530.23,776.07 531.40,775.27 532.57,774.51 533.74,774.84 534.90,774.81 536.07,773.50 537.24,772.39 538.41,768.99 539.58,767.23 540.75,765.51 541.92,763.95 543.09,762.46 544.26,760.85 545.42,760.72 546.59,761.15 547.76,761.51 548.93,763.43 550.10,764.40 551.27,764.45 552.44,763.38 553.61,763.30 554.78,762.48 555.95,760.34 557.11,759.40 558.28,759.42 559.45,759.03 560.62,759.05 561.79,758.94 562.96,758.47 564.13,757.94 565.30,757.82 566.47,757.27 567.63,757.20 568.80,758.39 569.97,757.92 571.14,758.29 572.31,757.60 573.48,757.77 574.65,758.63 575.82,758.83 576.99,759.19 578.16,759.23 579.32,758.48 580.49,758.24 581.66,759.24 582.83,760.42 584.00,760.30 585.17,759.89 586.34,760.30 587.51,760.87 588.68,760.83 589.84,761.08 591.01,761.38 592.18,760.56 593.35,760.26 594.52,759.85 595.69,759.19 596.86,758.87 598.03,757.34 599.20,757.13 600.37,758.02 601.53,758.44 602.70,758.01 603.87,757.65 605.04,759.76 606.21,759.43 607.38,759.78 608.55,758.92 609.72,758.95 610.89,758.83 612.05,757.70 613.22,756.36 614.39,755.12 615.56,750.60 616.73,747.51 617.90,750.43 619.07,756.57 620.24,764.61 621.41,766.21 622.58,769.47 623.74,773.71 624.91,776.12 626.08,777.30 627.25,777.82 628.42,778.63 629.59,779.35 630.76,780.36 631.93,781.44 633.10,781.81 634.26,782.26 635.43,783.38 636.60,784.27 637.77,784.91 638.94,785.48 640.11,785.68 641.28,786.01 642.45,786.02 643.62,786.18 644.79,786.27 645.95,786.38 647.12,786.35 648.29,786.24 649.46,786.09 650.63,785.77 651.80,785.44 652.97,784.94 654.14,784.54 655.31,784.20 656.47,783.91 657.64,783.63 658.81,783.45 659.98,783.19 661.15,782.92 662.32,782.84 663.49,782.84 664.66,782.73 665.83,782.54 667.00,782.17 668.16,781.85 669.33,781.51 670.50,781.49 671.67,781.31 672.84,781.19 674.01,781.54 675.18,781.77 676.35,781.79 677.52,781.76 678.68,781.67 679.85,781.17 681.02,780.93 682.19,780.66 683.36,780.51 684.53,780.70 685.70,780.99 686.87,781.75 688.04,782.38 689.21,782.94 690.37,783.39 691.54,783.97 692.71,784.52 693.88,784.95 695.05,785.15 696.22,785.39 697.39,785.36 698.56,785.07 699.73,784.74 700.89,784.42 702.06,783.75 703.23,783.08 704.40,782.55 705.57,782.38 706.74,782.05 707.91,781.70 709.08,781.36 710.25,781.74 711.42,781.71 712.58,781.90 713.75,782.17 714.92,782.29 716.09,782.39 717.26,782.26 718.43,782.24 719.60,782.09 720.77,782.48 721.94,782.91 723.10,782.97 724.27,782.49 725.44,781.37 726.61,779.70 727.78,778.98 728.95,776.22 730.12,774.58 731.29,772.33 732.46,770.71 733.63,770.50 734.79,772.11 735.96,775.52 737.13,777.51 738.30,778.59 739.47,778.31 740.64,778.31 741.81,779.13 742.98,780.66 744.15,781.31 745.32,781.30 746.48,781.75 747.65,782.18 748.82,782.56 749.99,782.70 751.16,782.90 752.33,782.89 753.50,783.08 754.67,783.08 755.84,783.34 757.00,783.27 758.17,783.23 759.34,783.34 760.51,783.36 761.68,783.78 762.85,783.74 764.02,783.86 765.19,783.42 766.36,782.38 767.53,781.19 768.69,781.41 769.86,781.03 771.03,779.80 772.20,778.88 773.37,778.35 774.54,777.21 775.71,777.62 776.88,778.18 778.05,778.96 779.21,780.04 780.38,780.46 781.55,781.36 782.72,781.80 783.89,782.43 785.06,783.13 786.23,782.91 787.40,781.07 788.57,778.56 789.74,775.41 790.90,774.50 792.07,772.32 793.24,770.38 794.41,774.84 795.58,777.43 796.75,779.81 797.92,781.24 799.09,781.65 800.26,781.74 801.42,782.79 802.59,783.94 803.76,784.51 804.93,784.81 806.10,784.71 807.27,784.62 808.44,784.49 809.61,784.32 810.78,784.38 811.95,784.50 813.11,784.71 814.28,784.83 815.45,784.88 816.62,784.82 817.79,784.82 818.96,784.59 820.13,784.27 821.30,784.15 822.47,783.56 823.63,783.14 824.80,782.98 825.97,782.61 827.14,782.68 828.31,782.69 829.48,782.57 830.65,782.63 831.82,782.76 832.99,782.83 834.16,782.82 835.32,783.11 836.49,783.30 837.66,783.40 838.83,783.69 840.00,783.97 841.17,783.97 842.34,783.87 843.51,783.64 844.68,782.95 845.84,782.88 847.01,781.33 848.18,778.72 849.35,774.56 850.52,770.20 851.69,767.32 852.86,763.12 854.03,763.19 855.20,762.94 856.37,762.71 857.53,763.08 858.70,763.87 859.87,766.07 861.04,766.52 862.21,766.24 863.38,768.18 864.55,769.78 865.72,771.11 866.89,773.34 868.05,776.08 869.22,778.33 870.39,780.23 871.56,781.79 872.73,782.53 873.90,782.63 875.07,782.35 876.24,782.25 877.41,782.09 878.58,781.53 879.74,781.53 880.91,781.45 882.08,781.08 883.25,780.91 884.42,781.41 885.59,781.94 886.76,782.06 887.93,781.90 889.10,781.39 890.26,781.53 891.43,781.79 892.60,781.73 893.77,781.19 894.94,780.72 896.11,780.55 897.28,780.56 898.45,780.84 899.62,780.93 900.79,780.86 901.95,780.77 903.12,781.03 904.29,781.21 905.46,779.84 906.63,776.87 907.80,773.69 908.97,771.65 910.14,769.36 911.31,768.71 912.47,767.15 913.64,768.82 914.81,772.65 915.98,778.41 917.15,782.00 918.32,782.33 919.49,783.49 920.66,784.36 921.83,784.66 923.00,785.17 924.16,785.03 925.33,784.67 926.50,784.47 927.67,783.97 928.84,783.88 930.01,783.15 931.18,782.83 932.35,782.41 933.52,782.02 934.68,782.45 935.85,782.29 937.02,782.82 938.19,783.23 939.36,783.43 940.53,783.29 941.70,783.10 942.87,781.93 944.04,782.35 945.21,782.49 946.37,782.36 947.54,782.48 948.71,782.23 949.88,781.97 951.05,782.00 952.22,781.71 953.39,781.58 954.56,781.34 955.73,781.20 956.89,780.88 958.06,780.07 959.23,779.92 960.40,780.00 961.57,779.37 962.74,779.42 963.91,778.40 965.08,777.59 966.25,776.99 967.42,776.04 968.58,774.92 969.75,774.09 970.92,773.44 972.09,771.69 973.26,768.26 974.43,769.96 975.60,766.71 976.77,767.81 977.94,770.05 979.10,769.93 980.27,768.76 981.44,767.43 982.61,768.15 983.78,767.99 984.95,768.47 986.12,769.25 987.29,770.39 988.46,772.71 989.63,773.80 990.79,775.57 991.96,776.64 993.13,776.48 994.30,777.68 995.47,778.70 996.64,779.33 997.81,780.09 998.98,780.65 1000.15,780.08 1001.32,778.56 1002.48,777.26 1003.65,776.67 1004.82,777.05 1005.99,774.79 1007.16,771.09 1008.33,769.16 1009.50,767.67 1010.67,766.48 1011.84,767.91 1013.00,765.69 1014.17,763.35 1015.34,762.15 1016.51,761.71 1017.68,761.09 1018.85,762.03 1020.02,762.01 1021.19,763.01 1022.36,763.23 1023.53,762.17 1024.69,762.98 1025.86,763.84 1027.03,764.62 1028.20,764.07 1029.37,763.40 1030.54,763.08 1031.71,763.42 1032.88,763.60 1034.05,764.26 1035.21,763.61 1036.38,762.57 1037.55,761.78 1038.72,758.79 1039.89,756.91 1041.06,757.17 1042.23,756.35 1043.40,756.40 1044.57,756.34 1045.74,755.93 1046.90,755.17 1048.07,754.60 1049.24,754.92 1050.41,755.09 1051.58,755.30 1052.75,754.74 1053.92,754.30 1055.09,753.65 1056.26,754.67 1057.42,752.65 1058.59,750.37 1059.76,751.63 1060.93,753.30 1062.10,754.85 1063.27,754.78 1064.44,755.11 1065.61,756.45 1066.78,757.31 1067.95,756.61 1069.11,756.28 1070.28,755.86 1071.45,755.65" fill="none" stroke="#dc2626" stroke-width="1.4" />
<line x1="72.00" y1="795" x2="72.00" y2="802" stroke="#666" />
<text x="60.00" y="815" font-family="Arial" font-size="10" fill="#666">0.0s</text>
<line x1="238.67" y1="795" x2="238.67" y2="802" stroke="#666" />
<text x="226.67" y="815" font-family="Arial" font-size="10" fill="#666">1.4s</text>
<line x1="405.33" y1="795" x2="405.33" y2="802" stroke="#666" />
<text x="393.33" y="815" font-family="Arial" font-size="10" fill="#666">2.9s</text>
<line x1="572.00" y1="795" x2="572.00" y2="802" stroke="#666" />
<text x="560.00" y="815" font-family="Arial" font-size="10" fill="#666">4.3s</text>
<line x1="738.67" y1="795" x2="738.67" y2="802" stroke="#666" />
<text x="726.67" y="815" font-family="Arial" font-size="10" fill="#666">5.7s</text>
<line x1="905.33" y1="795" x2="905.33" y2="802" stroke="#666" />
<text x="893.33" y="815" font-family="Arial" font-size="10" fill="#666">7.1s</text>
<line x1="1072.00" y1="795" x2="1072.00" y2="802" stroke="#666" />
<text x="1060.00" y="815" font-family="Arial" font-size="10" fill="#666">8.6s</text>
</svg>